<svg width="110" height="38" viewBox="0 0 110 38" fill="none" xmlns="http://www.w3.org/2000/svg">
<g clip-path="url(#clip0_66_21951)">
<path d="M94.4965 0H90.0689V4.48155L104.371 18.982L91.9044 31.6367H34.5856V0.736798L33.8365 0H29.0942L18.9355 8.0668V12.5863H23.4006L28.3226 8.68206V37.2349L29.0493 37.9717L29.0643 37.9793H33.844H34.5856H90.0689H94.4965L113.203 18.982L94.4965 0Z" fill="#E53641"/>
<path d="M7.20327 0L-2.91797 8.0668V12.5863H1.5171L6.43912 8.68206V37.2349L7.16581 37.9717L7.1808 37.9793H11.9605L12.6947 37.2349V31.6367V0.736798L11.9605 0H7.20327Z" fill="#E53641"/>
<path d="M49.6442 1.06342H52.7158L52.963 1.33687V5.46142L53.2327 5.72728H56.5366L56.8063 5.46142V0.258259L57.076 0H60.1475L60.4172 0.258259V16.6881L60.1475 16.9615H57.076L56.8063 16.6881V9.13022L56.5366 8.86436H53.2327L52.963 9.13022V13.0725L52.7158 13.3383H41.5607L41.291 13.0725V1.33687L41.5607 1.06342H44.6323L44.8795 1.33687V3.95744L45.1492 4.2233H49.1048L49.3745 3.95744V1.33687L49.6442 1.06342ZM49.1123 7.20087H45.1567L44.887 7.45913V9.98855L45.1567 10.2544H49.1123L49.382 9.98855V7.45913L49.1123 7.20087ZM44.887 15.5563L45.1567 15.2905H48.2957L48.5579 15.5563V20.1138L48.8276 20.3873H60.0651L61.6534 21.9672L60.0651 23.5472H45.1567L44.887 23.2813V15.5563Z" fill="#E53641"/>
<path d="M72.1647 4.70184H65.175L64.9128 4.43598V1.73186L65.1825 1.466H75.7832L76.0604 1.73186V8.49217C76.0604 8.92513 76.0379 9.33531 76.0004 9.69231C75.9705 10.0569 75.8955 10.3683 75.7682 10.6798C75.6483 10.9684 75.4685 11.2495 75.2588 11.5153C75.0565 11.7812 74.7868 12.0622 74.4571 12.3433C73.3109 13.2927 72.0898 14.2422 70.8237 15.1841C69.5276 16.126 68.269 17.0375 67.0104 17.8882H64.3809V15.2677C65.5945 14.4321 66.8231 13.5586 68.0967 12.6851C69.3478 11.8192 70.5016 10.9456 71.5279 10.0873C71.865 9.82144 72.0973 9.5404 72.2321 9.24416C72.3595 8.94032 72.4194 8.60611 72.4194 8.18074V4.97529L72.1647 4.70184ZM83.2224 0.258259V7.44394L83.4846 7.70979H86.2865L86.5487 7.98324V10.6342L86.2865 10.9001H83.4846L83.2224 11.1659V23.5472L82.9527 23.813H79.8586L79.5964 23.5472V0.258259L79.8586 0H82.9527L83.2224 0.258259Z" fill="#E53641"/>
</g>
<defs>
<clipPath id="clip0_66_21951">
<rect width="110" height="38" fill="white"/>
</clipPath>
</defs>
</svg>
