<svg width="103" height="46" viewBox="0 0 103 46" fill="none" xmlns="http://www.w3.org/2000/svg">
<g clip-path="url(#clip0_66_21815)">
<path fill-rule="evenodd" clip-rule="evenodd" d="M37.1029 8.6889C35.5021 7.69862 33.5913 7.23223 30.3644 7.23223H22.3479C16.7294 7.23223 13.9897 10.1967 12.9584 15.5186C11.3766 23.6197 9.33293 33.9378 9.11781 35.0622C8.59265 37.7392 9.98463 38.6464 12.5092 38.6464H23.3286C28.1436 38.6464 30.9908 37.9053 33.1421 36.5508C37.0396 34.3531 37.8179 29.8617 37.8179 29.8617C39.0896 23.4408 32.8447 22.4889 32.8447 22.4889C32.8447 22.4889 38.2734 21.3581 39.4123 15.2758C39.425 15.2695 40.393 10.7397 37.1029 8.6889ZM29.099 28.5583C28.9282 29.6125 28.1183 30.9542 25.3597 30.9542H19.1717L20.1461 26.0028H25.8532C27.1882 26.0028 29.504 26.0283 29.099 28.5583ZM30.1557 16.905C29.9152 18.6811 28.6118 19.205 25.7899 19.205H21.4621C21.4621 19.205 21.7468 17.5183 21.9303 16.5792C22.1138 15.64 22.6263 14.8542 23.993 14.8542H27.8399C28.2006 14.8606 30.453 14.7647 30.1557 16.905ZM63.8289 19.6203L59.2923 19.6267C55.4643 19.6267 54.6987 22.2781 54.3508 24.0733C54.2179 24.7697 53.8509 26.4756 53.8509 26.4756H59.6339C58.7228 30.5006 55.9515 31.2097 54.1166 31.2097C52.7816 31.2097 49.1688 31.657 49.3206 26.8014C49.3523 25.8431 49.9091 21.6839 51.1239 19.3328C52.7057 16.2853 54.8126 14.8797 59.1531 14.6945C61.4815 14.5986 63.7593 14.8733 63.7593 14.8733C66.4989 15.1672 67.6441 13.1867 67.6441 13.1867C68.802 11.4745 69.5866 8.8614 69.5866 8.8614C69.5866 8.8614 68.5616 8.35667 66.7394 7.82001C63.9301 7.00223 60.0452 6.98945 60.0452 6.98945C51.5478 6.82973 46.7835 11.4617 46.7835 11.4617C42.133 15.5506 41.0067 22.3931 41.0067 22.3931C38.5075 32.3917 43.6452 36.1739 43.6452 36.1739C47.1251 39.2533 53.1486 38.9211 53.1486 38.9211C60.0326 38.9211 63.7403 35.1708 63.7403 35.1708C67.5619 31.5292 68.2769 26.5778 68.5046 25.2745C69.112 21.8628 67.6884 19.6203 63.8289 19.6203ZM87.4355 7.18751C79.2229 7.18751 74.0979 10.35 72.2693 19.6139C72.2693 19.6139 69.15 35.4775 69.131 35.5861C69.0045 36.6467 69.188 37.3686 69.5866 37.8414C69.6499 37.9117 69.7131 37.9756 69.7827 38.0331C70.2826 38.4675 71.0102 38.6208 71.8327 38.6208H77.5398L79.6658 28.2325L79.7417 27.8172H86.7712C90.3207 27.8172 93.0984 26.4756 93.9399 23.1789C94.3954 21.4092 94.465 19.9845 94.465 19.9845C94.465 19.9845 89.1059 19.4222 85.4235 19.7992C83.2786 20.0164 81.779 20.4508 80.8616 21.9458L81.3361 19.6267C82.1966 15.8828 84.8097 14.8158 87.619 14.8158H92.3201C95.142 14.8158 96.92 13.8128 97.4451 11.2508C97.8754 9.16806 98.217 7.18751 98.217 7.18751H87.4355Z" fill="#4DB857"/>
</g>
<defs>
<clipPath id="clip0_66_21815">
<rect width="103" height="46" fill="white"/>
</clipPath>
</defs>
</svg>
