<svg width="110" height="60" viewBox="0 0 110 60" fill="none" xmlns="http://www.w3.org/2000/svg">
<path d="M55.7369 22.4212C49.902 19.9898 44.0068 20.2543 42.5104 23.0926C41.0039 25.9613 43.2033 32.7467 47.3511 38.3825C51.4988 44.0183 57.3638 43.8352 60.5977 37.6806C63.7813 31.5463 61.5517 24.8423 55.7369 22.4212Z" fill="#FF9700"/>
<path d="M26.0498 24.3845C31.2319 28.118 37.0267 29.2472 39.0855 26.826C41.1543 24.3845 40.4413 17.2533 37.579 10.7833C34.7168 4.32349 28.9622 3.12308 24.5132 8.36215C20.1345 13.6012 20.8877 20.6612 26.0498 24.3845Z" fill="#006ECD"/>
<path d="M44.6099 44.0386C43.7763 37.4771 40.7032 32.1567 37.62 32.1668C34.5168 32.1668 29.9673 37.4974 27.316 44.0692C24.6747 50.6409 27.6876 55.9512 34.346 55.9512C40.9744 55.9003 45.4435 50.59 44.6099 44.0386Z" fill="#EF151E"/>
<path d="M20.9789 26.9684C19.9244 26.9684 19.2113 27.6602 19.2113 28.6775V29.705H21.7221C21.7221 29.705 21.8024 38.4435 21.712 39.3591C21.6216 40.2746 21.4007 41.7701 19.844 42.5432C18.5083 43.2146 18.4782 43.8555 18.3979 44.4252C18.2874 45.1577 18.4179 45.2594 18.9201 45.1271C20.9086 44.6083 23.0377 43.764 24.1123 41.6887C24.6948 40.5595 24.9258 39.3387 24.9258 37.4771C24.9258 35.707 24.9258 29.705 24.9258 29.705C25.9903 29.6948 26.7536 28.9725 26.7536 27.9959V26.9684H20.9789Z" fill="black"/>
<path d="M18.1869 38.7589C18.1869 38.7589 16.1784 41.8108 12.2616 41.8108C8.22437 41.8108 5.19141 38.5554 5.19141 34.2319C5.19141 29.8474 8.23441 26.5514 12.2616 26.5514C16.098 26.5514 18.1267 29.5931 18.1267 29.5931C18.1267 29.5931 17.0521 30.8037 16.0177 30.8037C15.5155 30.8037 15.1339 30.5595 14.702 30.2747C14.1196 29.8983 13.4567 29.4608 12.2516 29.4608C9.96179 29.4608 8.09381 31.5971 8.09381 34.2218C8.09381 36.7955 9.96179 38.881 12.2516 38.881C13.6074 38.881 14.2501 38.474 14.8125 38.1078C15.2142 37.8535 15.5959 37.6093 16.1382 37.6093C17.3232 37.6093 18.1869 38.7589 18.1869 38.7589Z" fill="black"/>
<path d="M105.62 26.9685V39.8983C105.62 40.8443 104.947 41.3428 104.003 41.3428H102.757V32.5839L100.488 40.4273C100.297 41.058 99.5538 41.3428 98.8206 41.353H98.2482L95.4462 32.5839V39.8881C95.4462 40.8443 94.7834 41.3428 93.8293 41.3428H92.584V28.4232C92.584 27.4669 93.2468 26.9583 94.2009 26.9583H96.2396L99.1922 36.4903L101.854 27.8637C102.064 27.2736 102.617 26.9583 103.37 26.9583H105.62" fill="black"/>
<path d="M74.9697 29.6641C75.6827 29.6641 76.2853 29.0334 76.2853 28.2704V26.9683H66.9855C66.2725 26.9683 65.6699 27.6295 65.6699 28.362V41.3528H74.9697C75.6827 41.3528 76.2853 40.5288 76.2853 39.776V38.6468H69.8377C68.7732 38.6468 68.5924 39.1962 68.5924 39.1962V35.4424H74.6583C75.3714 35.4424 75.974 34.8116 75.974 34.0487V32.7363H69.8277C68.7631 32.7363 68.5824 33.2857 68.5824 33.2857V29.6743H74.9697V29.6641Z" fill="black"/>
<path d="M88.3772 26.9683C87.7144 26.9683 87.3327 27.6804 87.3327 28.362V35.8696L80.9454 26.9683H79.6901C79.0272 26.9683 78.4648 27.6296 78.4648 28.362V41.3529H80.1018C80.7647 41.3529 81.3271 40.6713 81.3271 39.9592V31.7191L88.1161 41.3529H88.9697C89.6326 41.3529 90.195 40.6916 90.195 39.9592V26.9683H88.3772Z" fill="black"/>
</svg>
