<svg width="160" height="54" viewBox="0 0 160 54" fill="none" xmlns="http://www.w3.org/2000/svg">
<path d="M79.6472 32.395C77.7331 32.395 76.5061 31.0123 76.5061 29.037C76.5061 26.9234 77.841 25.6197 79.6472 25.6197C81.4533 25.6197 82.7686 27.0617 82.7686 29.037C82.7686 31.1506 81.5613 32.395 79.6472 32.395ZM79.6668 23.3679C76.2901 23.3679 74.1797 26.1333 74.1797 29.037C74.1797 31.9506 76.4275 34.6469 79.6668 34.6469C82.9061 34.6469 85.095 32.0395 85.095 29.037C85.095 26.2518 83.0533 23.3679 79.6668 23.3679Z" fill="black"/>
<path d="M109.339 23.6247H103.823C103.008 23.6247 102.557 24.0296 102.557 24.7803V34.4198H108.073C108.819 34.4198 109.349 34.0444 109.349 33.3235V32.4543H106.012C105.973 32.4543 105.924 32.4543 105.865 32.4543C105.6 32.4543 105.177 32.4938 104.952 32.879V30.0247H107.847C108.593 30.0247 109.114 29.6395 109.114 28.9185V28.0494H106.071C106.031 28.0494 105.973 28.0494 105.904 28.0494C105.629 28.0494 105.177 28.0889 104.942 28.484C104.942 28.1975 104.942 25.6 104.942 25.6H108.073C108.819 25.6 109.349 25.1457 109.349 24.4247V23.6247" fill="black"/>
<path d="M66.0317 29.9457C66.0317 29.5704 66.0317 25.5506 66.0317 25.5506H68.0538C70.5961 25.5506 70.5961 29.4025 68.0538 29.4025H67.5041C67.4452 29.4025 67.3568 29.3926 67.2587 29.3926C66.8955 29.4025 66.3261 29.4519 66.0317 29.9457ZM68.7998 23.2198H64.9519C63.882 23.2198 63.2832 23.7432 63.2832 24.7309V37.3827H64.3826C65.3642 37.3827 66.0513 36.879 66.0513 35.9407V35.1901L66.0415 31.7136H68.7801C73.9924 31.7037 73.8844 23.2198 68.7998 23.2198Z" fill="black"/>
<path d="M87.4205 23.6049C86.6646 23.6049 86.2229 24.0296 86.2622 24.7506L88.9321 34.2519H90.2573C90.8364 34.2519 91.2683 34.0148 91.4352 33.5803L93.2511 26.8938L95.9505 34.2716H97.099C97.6781 34.2716 98.0904 34.0346 98.2573 33.6L98.4143 33.0074L100.8 23.6247H100.751H99.2291C98.591 23.6247 98.2376 23.9111 98.1297 24.4445L96.991 30.321C96.8732 30.8741 96.9027 31.358 96.9027 31.358L94.4094 23.6346H93.0352C92.4168 23.6346 91.9554 23.9012 91.818 24.4049V24.3951L91.7984 24.4543L91.4941 25.7383L90.326 30.6074C90.2573 30.9729 90.2573 31.3185 90.2573 31.3185L88.3922 23.6148H87.499C87.4794 23.605 87.4499 23.6049 87.4205 23.6049Z" fill="black"/>
<path d="M113.953 28.3951V25.5605H115.033C115.858 25.5605 116.692 25.7086 116.692 26.7654C116.692 27.8321 115.828 27.9802 114.974 27.9802H114.719C114.464 27.9901 114.14 28.0691 113.953 28.3951ZM114.984 23.6148H113.531H112.854C112.039 23.6148 111.598 24.0099 111.598 24.7506V34.2617H112.707C113.443 34.2617 113.963 33.8864 113.963 33.1753V32.6123L113.953 29.9259H114.425L117.86 34.2617H117.87H118.371C118.999 34.2617 119.47 33.9852 119.598 33.4617C119.657 33.2346 119.48 32.958 119.48 32.958L116.83 29.6296C118.017 29.5506 119.048 28.3654 119.048 26.9136C119.048 25.9062 118.714 25.0765 118.047 24.4642C117.046 23.6148 116.093 23.6148 114.984 23.6148Z" fill="black"/>
<path d="M125.918 23.3975C122.797 23.3975 120.52 25.8864 120.52 29.0469C120.52 32.1975 122.797 34.6173 125.918 34.6173C127.646 34.6173 129.275 33.8469 130.365 32.4839C130.335 32.4543 130.306 32.3951 130.247 32.3358C130.188 32.2568 130.11 32.1679 130.002 32.079C129.786 31.9111 129.472 31.7432 128.971 31.7432C128.5 31.7432 128.215 31.9309 127.803 32.1284C127.391 32.3259 126.861 32.5234 125.908 32.5234C124.976 32.5234 124.191 32.1679 123.641 31.5654C123.091 30.9531 122.777 30.0839 122.777 29.0469C122.777 28.0099 123.091 27.121 123.641 26.4988C124.191 25.8667 124.976 25.5012 125.908 25.5012C126.762 25.5012 127.293 25.7086 127.715 25.916C128.137 26.1234 128.451 26.321 128.873 26.321C129.295 26.321 129.639 26.1531 129.884 25.9654C130.11 25.7975 130.247 25.6197 130.326 25.5407C129.246 24.1778 127.646 23.3975 125.918 23.3975Z" fill="black"/>
<path d="M135.901 23.6444C135.322 23.6444 134.89 23.7827 134.694 24.1975L130.395 34.2321H131.759C131.818 34.2321 131.877 34.242 131.926 34.242C132.466 34.242 132.878 34.0049 133.035 33.5506V33.5407L135.882 26.8049L137.226 29.9654L137.315 30.163H136.441C136.049 30.163 135.774 30.2716 135.548 30.4593C135.332 30.6568 135.165 30.9333 135.028 31.2988L134.723 32.0494H138.139L139.052 34.163L139.082 34.2321H140.063C140.417 34.2321 140.701 34.1432 140.907 33.9852C141.114 33.8173 141.231 33.5802 141.231 33.2543C141.231 33.2346 141.231 33.2049 141.231 33.1852L141.192 33.0963L137.001 23.6543L135.901 23.6444Z" fill="black"/>
<path d="M145.65 23.358C144.02 23.358 142.293 24.4148 142.293 26.3901C142.293 28.0593 143.52 28.8099 144.707 29.3235L145.728 29.7877C146.759 30.2222 147.152 30.6272 147.152 31.2691C147.152 32.0593 146.543 32.6617 145.738 32.6617H145.591C145.11 32.6617 144.56 32.6222 144.207 32.0988L144.177 32.0593C144.06 31.8914 143.588 31.2099 142.675 31.1605L141.979 31.3087L142.028 31.7037C142.253 33.4321 143.736 34.637 145.64 34.637C147.76 34.637 149.291 33.2247 149.291 31.2691C149.291 29.1556 147.731 28.2963 146.563 27.8321L145.512 27.3778C144.54 27.0025 144.433 26.6272 144.433 26.3803C144.433 25.8074 145.051 25.4222 145.63 25.4222C145.974 25.4222 146.229 25.4716 146.445 25.6494L146.455 25.6593C146.523 25.7185 146.916 25.9654 147.485 25.9654C147.682 25.9654 147.898 25.9358 148.133 25.8568L148.801 25.4815L148.585 25.0864C147.956 23.9803 146.916 23.358 145.65 23.358Z" fill="black"/>
<path d="M157.899 23.6247H151.096C150.36 23.6247 149.84 24.1679 149.84 24.879V25.7185H152.628L152.618 34.2914H153.737C154.552 34.2914 154.993 33.8963 154.993 33.1556L155.003 25.7185H156.642C157.379 25.7185 157.899 25.2741 157.899 24.563V23.6247Z" fill="black"/>
<path d="M9.80541 23.1605C5.76124 23.1605 2.80664 26.3802 2.80664 30.4691C2.80664 34.5481 5.76124 37.679 9.80541 37.679C12.0533 37.679 14.1833 36.6617 15.587 34.8938C15.43 34.7457 15.0471 33.916 13.7416 33.916C12.5146 33.916 12.2398 35.1605 9.80541 35.1605C7.42995 35.1605 5.45695 33.116 5.45695 30.479C5.45695 27.8321 7.42995 25.6988 9.80541 25.6988C11.9747 25.6988 12.495 27.0025 13.614 27.0025C14.733 27.0025 15.3809 26.1037 15.5379 25.9654C14.1244 24.1778 12.0533 23.1605 9.80541 23.1605Z" fill="black"/>
<path d="M24.0693 23.5852H18.3859C17.4239 23.5852 16.7466 24.1679 16.7466 25.0963V25.9457H19.2791C19.2791 25.9457 19.3773 34.5876 19.2693 35.516C19.2399 36.2271 18.9356 37.9358 17.3061 38.7062C15.9712 39.3383 15.9515 39.9407 15.8828 40.879C15.9024 40.9481 15.9319 40.9876 15.9712 40.9876C15.9712 40.9876 15.981 40.9876 15.9908 40.9876C16.0399 40.9778 17.3159 40.6518 17.5024 40.5827L17.4926 40.5728C18.7 40.1975 20.5356 39.3679 21.4092 37.6494C21.4092 37.6494 22.2239 36.3753 22.2141 33.6395V25.9457H22.3319C23.2939 25.9457 24.0595 25.363 24.0595 24.4444V23.5852" fill="black"/>
<path d="M53.3895 19.042C47.4606 16.6914 41.4729 16.9383 39.9416 19.7235L39.9613 19.7136C38.43 22.4988 40.668 29.0963 44.8889 34.558C49.1097 40.0198 55.0582 39.842 58.3465 33.8667L58.3171 33.9062C61.5858 27.921 59.3183 21.3926 53.3895 19.042Z" fill="#EA8B00"/>
<path d="M42.0914 40.0395C41.257 33.6691 38.1355 28.5037 34.9846 28.5037L35.0043 28.5136C31.8435 28.5136 27.2202 33.679 24.5306 40.0592C21.8411 46.4296 24.884 51.5951 31.657 51.5951L31.6079 51.5852C38.3809 51.5852 42.9257 46.4197 42.0914 40.0395Z" fill="#E02535"/>
<path d="M23.2335 20.9481C28.4949 24.5728 34.3844 25.679 36.4949 23.3086L36.4752 23.3185C38.5857 20.9481 37.8593 14.0247 34.9538 7.74321C32.0483 1.4716 26.1979 0.30617 21.6826 5.39259L21.7219 5.36296C17.1967 10.4593 17.9722 17.3235 23.2335 20.9481Z" fill="#0079C3"/>
</svg>
