<svg width="110" height="30" viewBox="0 0 110 30" fill="none" xmlns="http://www.w3.org/2000/svg">
<path d="M27.6148 25.2536L18.9589 14.2536L27.2425 4.09259H21.3789L13.4676 14.1604V4.09259H9V25.2536H13.4676V14.3468L21.1927 25.2536H27.6148Z" fill="#140661"/>
<path d="M59.2603 12.3899C60.5634 12.3899 66.0547 13.2288 66.0547 18.8221C66.0547 24.6949 60.4703 25.3475 60.4703 25.3475H47.4399V21.8983H57.9573C61.0287 21.8983 60.9357 19.0085 60.9357 19.0085C60.9357 15.7458 57.3058 15.9322 57.3058 15.9322C57.3058 15.9322 54.3274 15.9322 53.3036 15.9322C51.4421 15.9322 46.6953 15.2797 46.6953 10.339C46.6953 4.3729 52.559 4.18646 52.559 4.18646H64.4725V7.44917H54.6997C51.5352 7.44917 51.6282 9.96612 51.6282 9.96612C51.6282 9.96612 51.6282 12.3899 54.4205 12.3899H59.2603Z" fill="#140661"/>
<path d="M40.5533 25.2539C43.7178 25.2539 46.6031 22.9234 46.6031 19.2878C46.6031 15.1861 43.6247 13.881 43.6247 13.881C43.6247 13.881 46.0447 13.042 45.7654 9.40641C45.4862 4.09285 39.5295 3.99963 39.5295 3.99963H27.9883V25.1607C27.9883 25.2539 37.9472 25.2539 40.5533 25.2539ZM32.1766 7.54201H37.9472C37.9472 7.54201 41.1117 7.35557 41.1117 10.059C41.1117 12.2962 39.1572 12.4827 38.5057 12.4827H32.1766V7.54201ZM37.4818 21.8047H32.1766V15.8386H38.6918C38.6918 15.8386 41.9494 15.9318 41.9494 18.8217C41.9494 21.6183 39.5295 21.8047 37.4818 21.8047Z" fill="#140661"/>
<path d="M100.978 14.6082C100.978 14.0721 100.894 13.536 100.811 12.9587C100.727 12.3813 100.602 11.7628 100.394 11.1854C100.06 10.0307 99.5602 8.9173 98.8931 7.80385C97.0588 4.71095 94.3073 2.56654 91.4307 1.65929C91.4307 1.65929 84.8854 -0.526357 81.3835 3.06141C81.3001 3.14388 81.2584 3.18512 81.2167 3.2676C78.9238 4.09237 76.9644 5.45325 75.5886 7.14403C74.5047 8.46367 73.7126 10.0307 73.3791 11.7215C73.3374 11.8452 73.254 12.2989 73.254 12.2989C73.0039 13.9072 73.0456 15.1856 73.0456 15.1856C73.0456 15.2268 73.0456 15.268 73.0456 15.3505C73.0873 16.5052 73.254 17.6599 73.5875 18.8146C73.9211 19.9693 74.4213 21.0827 75.0884 22.1961C76.9227 25.289 79.6742 27.4335 82.5508 28.3407C82.5508 28.3407 89.0961 30.5264 92.598 26.9386C92.6814 26.8561 92.7231 26.8149 92.7647 26.7324C95.0577 25.9076 97.0171 24.5468 98.3928 22.856C99.0599 22.0724 99.6018 21.1652 99.977 20.2579C100.936 18.2785 101.061 16.0928 100.978 14.6082ZM80.3829 4.546C81.5086 4.0099 82.8009 3.59751 84.1767 3.35008C86.3029 2.93769 88.3457 2.85521 90.2634 3.10264C94.4323 3.63875 97.8092 5.74192 99.4351 8.9173C99.4351 8.95853 99.4768 8.95853 99.4768 8.99977C99.4768 9.04101 99.4768 9.08225 99.4768 9.08225C99.4351 9.08225 99.3934 9.08225 99.3934 9.04101C99.3934 8.99977 99.3517 8.99977 99.3517 8.95854C98.0593 6.8966 95.9332 5.32953 93.3901 4.42228C90.8053 3.51503 87.7203 3.2676 84.5102 3.84494C82.8843 4.13361 81.4252 4.58724 80.1745 5.24706C80.1745 5.04086 80.2996 4.79343 80.3829 4.546ZM79.7993 6.93784C81.0917 6.3605 82.5091 5.86563 83.9682 5.49449C88.7209 4.29857 92.9732 4.87591 96.0582 6.64917C98.1844 7.88633 99.7269 9.65959 100.477 11.804C100.477 11.8452 100.519 11.8452 100.519 11.8865C100.561 12.0102 100.519 12.0514 100.477 12.0514C100.477 12.0514 100.436 12.0514 100.436 12.0102C100.436 11.969 100.436 11.969 100.394 11.9277C99.7269 10.3194 98.6013 8.9173 97.1005 7.88633C93.9737 5.65944 89.2628 4.87591 84.0099 6.23678C82.5508 6.64917 81.175 7.14403 79.8827 7.76261C79.8827 7.72137 79.8827 7.6389 79.841 7.59766C79.7993 7.39147 79.7993 7.14403 79.7993 6.93784ZM93.6819 25.4952C92.5563 26.0313 91.2639 26.4437 89.8882 26.6912C87.762 27.1035 85.7192 27.186 83.8015 26.9386C79.6325 26.4025 76.214 24.3406 74.6298 21.1239C74.6298 21.0827 74.5881 21.0827 74.5881 21.0415C74.5881 21.0002 74.5881 20.959 74.5881 20.959C74.6298 20.959 74.6715 20.959 74.6715 21.0002C74.6715 21.0415 74.7132 21.0415 74.7132 21.0827C76.0055 23.1446 78.1317 24.7117 80.6748 25.619C83.2595 26.5262 86.3446 26.7736 89.5547 26.1963C91.1805 25.9076 92.6397 25.454 93.8904 24.7942C93.8904 25.0416 93.7653 25.289 93.6819 25.4952ZM94.2656 23.1446C92.9732 23.722 91.5557 24.2168 90.0966 24.588C85.344 25.7839 81.0917 25.2066 78.0066 23.4333C75.8805 22.1961 74.338 20.4229 73.5875 18.2785C73.5875 18.2372 73.5458 18.2372 73.5458 18.196C73.5042 18.0723 73.5458 18.031 73.5875 18.031C73.5875 18.031 73.6292 18.031 73.6292 18.0723C73.6292 18.1135 73.6292 18.1135 73.6709 18.1548C74.338 19.7631 75.4636 21.1652 76.9644 22.1961C80.0911 24.423 84.802 25.2066 90.0549 23.8457C91.5141 23.4333 92.8898 22.9384 94.1822 22.3199C94.1822 22.3611 94.1822 22.4436 94.2239 22.4848C94.2656 22.691 94.2656 22.8972 94.2656 23.1446ZM100.769 14.8969C100.727 14.8969 100.727 14.8969 100.727 14.8557C100.727 14.8144 100.727 14.8144 100.727 14.7732C100.352 13.3298 99.6018 12.0514 98.5596 11.0205C95.558 8.05128 90.0966 6.85536 84.3435 8.21624C83.9266 8.33996 83.468 8.46367 83.0511 8.58739C82.1339 8.87606 81.3001 9.24721 80.4663 9.65959C80.6331 9.9895 80.8415 10.2782 81.0917 10.5668C82.8009 9.74207 84.7187 9.16473 86.7614 8.9173C88.0955 8.75234 89.4296 8.7111 90.6803 8.83482C94.0988 9.16473 97.0588 10.4844 98.8514 12.5051C100.019 13.7835 100.686 15.3505 100.727 17.1238C100.727 17.165 100.727 17.2063 100.727 17.2887C100.727 17.33 100.727 17.3712 100.727 17.4125C100.727 17.4949 100.686 17.4949 100.644 17.4949C100.602 17.4949 100.602 17.4949 100.602 17.4537C100.602 17.4125 100.602 17.3712 100.602 17.33C100.394 15.9279 99.852 14.6907 98.9765 13.6185C97.8509 12.2164 96.1833 11.1442 94.1822 10.4844C91.8059 9.70083 88.9293 9.53588 85.8443 10.1132C84.4268 10.3606 83.0511 10.773 81.8004 11.3091C82.1339 11.5978 82.5091 11.8452 82.8843 12.0514C84.3018 11.4329 85.9277 10.9792 87.6369 10.8143C91.0972 10.4431 94.349 11.1854 96.6836 12.6288C97.6007 13.2061 98.3512 13.8659 98.9348 14.6082C99.7269 15.6392 100.185 16.8351 100.227 18.1548C100.227 18.8971 100.102 19.5981 99.852 20.2992C99.852 20.3404 99.852 20.3404 99.8103 20.3816C99.8103 20.4229 99.7686 20.4229 99.7686 20.4229C99.7269 20.4229 99.7269 20.3816 99.7269 20.3404C99.7269 20.2992 99.7269 20.2992 99.7269 20.2579C99.852 19.7218 99.8937 19.1445 99.852 18.5671C99.7686 17.4949 99.3934 16.5052 98.7681 15.6392C98.643 15.4742 98.5179 15.2681 98.3512 15.1031C96.0999 12.5051 91.6808 11.1442 87.0116 12.0102C86.1361 12.1339 85.3023 12.3401 84.4685 12.6288C85.1772 12.7937 85.9693 12.835 86.7614 12.7113C86.7614 12.7113 88.0121 12.5463 88.5541 12.4226C88.6792 12.4226 88.8042 12.3813 88.8876 12.3813H88.9293C89.6797 12.2989 92.0143 12.1751 94.4323 13.0412C94.4323 13.0412 97.1422 13.9484 98.3512 16.0103C98.3512 16.0103 98.6013 16.3815 98.2261 16.9176C97.8509 17.3712 97.4757 17.8248 97.0171 18.2372C96.6002 18.6084 95.8498 19.1445 95.8498 19.1445C95.1827 19.5981 94.474 20.0105 93.7236 20.3816C93.6819 20.4229 93.5985 20.4229 93.5569 20.4641C93.5985 20.5054 93.5985 20.5466 93.6402 20.6291C93.7236 20.794 93.807 21.0002 93.8904 21.1652C92.6397 21.7425 91.3056 22.2374 89.8465 22.6085C84.2601 24.0106 79.0072 23.0209 75.9222 20.2992C74.5047 18.9795 73.5458 17.33 73.254 15.3505C73.254 15.3093 73.254 15.2681 73.254 15.2681C73.254 15.2268 73.2957 15.2268 73.2957 15.1856C73.2957 15.1856 73.3374 15.1856 73.3374 15.2268C73.3374 15.2681 73.3374 15.2681 73.3374 15.3093C73.7126 16.7526 74.463 18.031 75.5053 19.062C78.5069 22.0312 83.9682 23.2271 89.7214 21.8662C90.1383 21.7425 90.5969 21.6188 91.0138 21.4951C91.931 21.2064 92.8064 20.8765 93.5985 20.4641C93.4318 20.1342 93.2233 19.8455 92.9732 19.5569C91.2639 20.3816 89.3462 20.959 87.3034 21.2064C85.9693 21.3714 84.6353 21.4126 83.3846 21.2889C79.966 20.959 77.0061 19.6393 75.2134 17.6187C74.0461 16.299 73.3791 14.7319 73.3374 12.9587C73.3374 12.9174 73.3374 12.8762 73.3374 12.7937C73.3374 12.7525 73.3374 12.7113 73.3374 12.67C73.3374 12.5875 73.3791 12.5875 73.4208 12.5875C73.4625 12.5875 73.4625 12.5875 73.4625 12.6288C73.4625 12.67 73.4625 12.7113 73.4625 12.7525C73.6709 14.1546 74.2129 15.3918 75.0884 16.464C76.214 17.8661 77.8816 18.9383 79.8827 19.5981C82.259 20.3816 85.1356 20.5466 88.2206 19.9693C89.638 19.7218 91.0138 19.3094 92.2645 18.7733C91.931 18.4847 91.5558 18.2372 91.1805 18.031C89.7631 18.6496 88.1372 19.1032 86.4279 19.2682C82.9677 19.6393 79.7159 18.8971 77.3813 17.4537C76.4641 16.8764 75.7137 16.2165 75.1301 15.4742C74.338 14.4433 73.8794 13.2474 73.8377 11.9277C73.8377 11.1854 73.9627 10.4844 74.2129 9.78331C74.2129 9.74207 74.2129 9.74207 74.2546 9.70083C74.2546 9.65959 74.2963 9.65959 74.2963 9.65959C74.338 9.65959 74.338 9.70083 74.338 9.74207C74.338 9.78331 74.338 9.78331 74.338 9.82455C74.2129 10.4019 74.1712 10.9792 74.2546 11.5566C74.338 12.6288 74.7132 13.6185 75.3385 14.4845C75.4636 14.6907 75.5886 14.8557 75.7554 15.0206C78.0066 17.6187 82.4257 18.9795 87.095 18.1135C87.9704 17.9898 88.8042 17.7836 89.638 17.4949C88.9293 17.33 88.1372 17.2887 87.3451 17.4125C87.3451 17.4125 86.0944 17.5774 85.5525 17.7011C85.4274 17.7011 85.3023 17.7424 85.2189 17.7424H85.1772C84.4268 17.8248 82.0922 17.9486 79.6742 17.0826C79.6742 17.0826 76.9644 16.1753 75.7554 14.1134C75.7554 14.1134 75.5053 13.7422 75.8805 13.2061C76.2557 12.7525 76.6309 12.2989 77.0895 11.8865C77.5064 11.5153 78.2568 10.9792 78.2568 10.9792C78.9238 10.5256 79.6325 10.1132 80.3829 9.74207C80.4246 9.70083 80.508 9.70083 80.5497 9.65959C80.508 9.61835 80.508 9.57712 80.4663 9.49464C80.3829 9.32968 80.2996 9.12349 80.2162 8.95854C81.4669 8.38119 82.8009 7.88633 84.2601 7.51518C89.8465 6.11307 95.0994 7.10279 98.1844 9.82455C99.6435 11.1029 100.602 12.7937 100.894 14.7732C100.894 14.8144 100.894 14.8557 100.894 14.8557C100.853 14.8557 100.811 14.8969 100.769 14.8969Z" fill="#0090D4"/>
</svg>
