<svg width="110" height="44" viewBox="0 0 110 44" fill="none" xmlns="http://www.w3.org/2000/svg">
<path d="M95.6519 18.3969C94.8129 22.1272 93.1348 27.9769 93.1348 30.6898C93.1348 33.4875 93.7221 34.9287 94.5612 35.5222C94.8968 35.7765 95.4002 35.946 95.8197 35.946C97.2461 35.946 98.4208 34.8439 98.4208 30.6898C98.4208 27.9769 96.491 22.1272 95.6519 18.3969Z" fill="#B5B5B6"/>
<path d="M95.6519 18.3969C96.4071 14.6667 98.3369 8.81695 98.3369 6.10404C98.3369 1.9499 97.1622 0.847778 95.6519 0.847778C94.2255 0.847778 92.9669 1.9499 93.0508 6.10404C93.0508 8.81695 94.8129 14.6667 95.6519 18.3969Z" fill="#B5B5B6"/>
<path d="M97.1621 22.2119C98.6724 25.6878 100.686 31.4528 102.28 33.657C103.958 35.946 105.217 36.709 106.224 36.709C106.727 36.709 107.147 36.5395 107.482 36.2851C108.657 35.4373 108.993 33.8266 106.56 30.4354C104.965 28.316 100.015 24.6705 97.1621 22.2119Z" fill="#EA5504"/>
<path d="M97.1624 22.2119C95.6522 18.736 93.8062 12.8863 92.1281 10.6821C89.6949 7.29093 88.1007 7.12137 86.926 8.05393C85.7513 8.90172 85.4157 10.5125 87.8489 13.9036C89.5271 16.0231 94.3097 19.6686 97.1624 22.2119Z" fill="#F39800"/>
<path d="M81.8086 15.684C84.4097 18.3969 88.2693 23.1445 90.5348 24.5858C92.8841 26.1118 94.3105 26.4509 95.3174 26.1118C95.7369 25.9422 96.0725 25.6031 96.3242 25.264C97.1633 23.9923 96.9116 22.4663 93.4714 20.1773C91.1221 18.6513 85.2487 17.0405 81.8086 15.684Z" fill="#8FC31F"/>
<path d="M81.7244 15.5992C79.1234 12.8863 75.3476 8.05395 73.0822 6.52794C69.642 4.3237 68.0478 4.74759 67.2927 5.93449C66.4536 7.20617 66.7053 8.73218 70.1455 11.0212C72.4109 12.5472 78.2004 14.3276 81.7244 15.5992Z" fill="#0099D9"/>
<path d="M55.4622 27.3834C55.2105 27.3834 55.1266 27.9769 54.3714 28.7399C53.5324 29.5877 52.6933 29.842 50.9313 30.5202C49.0015 31.1984 48.3302 32.131 47.659 33.3179C47.3234 33.9961 47.2395 34.7591 47.3234 35.2678C47.3234 35.5221 47.4073 35.6917 47.5751 35.6917C47.7429 35.6069 48.3302 33.5722 50.2601 33.4027C51.183 33.3179 52.2738 33.657 52.6933 35.0983C52.7772 35.2678 52.7772 35.5221 52.7772 35.6917C53.0289 38.5742 50.1762 41.2871 46.8199 41.2023C44.3028 41.1175 41.5339 39.5067 41.1144 36.4547C40.7788 33.9114 41.7856 31.2832 43.5476 30.3507C43.7994 30.4354 44.135 30.5202 44.4706 30.605C45.1418 30.7746 45.7292 30.7746 46.4004 30.6898C46.9878 30.605 47.659 30.2659 47.5751 29.6724C47.4912 28.8246 46.1487 28.7399 45.4775 28.7399C44.7223 28.7399 44.2189 28.8246 43.8833 28.9094C43.3798 28.4855 43.0442 27.9769 42.7925 27.2139C42.2891 25.6031 43.212 22.8054 45.8131 22.551C47.4912 22.3815 48.582 23.0597 49.2532 23.9923C49.9244 24.8401 50.1762 25.1792 50.344 25.1792C50.5118 25.0944 50.5118 25.0096 50.5118 24.7553V23.0597C50.5118 22.8902 50.5118 22.7206 50.4279 22.551C50.1762 21.5337 47.9107 20.5164 45.3936 20.6859C44.6384 20.6859 44.135 20.7707 42.8764 21.1946C40.0236 22.2119 39.1846 24.7553 39.4363 26.6204C39.688 28.5703 41.3661 29.5877 41.3661 29.5877C38.5133 30.6898 36.164 33.8266 37.1708 37.8959C38.1777 41.9653 42.7086 43.4065 45.8131 43.4913C49.1693 43.5761 51.6026 42.2196 53.1129 40.6089C54.3714 39.2524 55.0427 37.3025 54.791 35.4374C54.7071 34.7591 54.2036 33.3179 53.0289 32.6397C53.0289 32.6397 53.6163 32.3853 54.0358 32.131C54.9588 31.368 55.4622 30.5202 55.5461 29.5877C55.63 28.8247 55.5461 28.0616 55.3783 27.8073C55.63 27.553 55.5461 27.3834 55.4622 27.3834Z" fill="#4C4948"/>
<path d="M65.0262 41.1175C66.956 41.1175 73.4167 41.1175 73.4167 41.1175C76.1017 41.1175 78.8706 39.6763 79.1223 36.0308C79.374 32.3006 77.1086 30.8594 74.2558 30.8594H70.48C69.4732 30.8594 68.8858 30.8594 68.2985 31.9615L67.0399 34.3353H71.9903C73.165 34.3353 73.6684 35.0983 73.6684 36.0308C73.6684 36.9634 73.165 37.6416 71.9903 37.6416H67.4594C66.2009 37.6416 65.1101 37.2177 64.3549 36.2852C63.7676 35.5222 63.2642 34.5048 63.2642 32.8093C63.2642 30.9441 63.8515 30.0964 64.3549 29.4181C65.0262 28.5703 66.033 28.2312 67.0399 28.1464H67.4594H75.5983C76.6051 28.1464 77.1925 28.1464 77.7798 27.0443L79.0384 24.6705C78.3671 24.6705 65.1101 24.6705 65.1101 24.6705C60.747 24.6705 57.5586 28.2312 57.5586 32.894C57.5586 37.133 60.0758 40.4393 63.8515 41.0328C63.9354 41.1175 64.271 41.1175 65.0262 41.1175Z" fill="#4C4948"/>
<path d="M24.668 29.5877C24.668 28.0617 23.4094 28.1464 23.4094 28.1464H16.9487L13.089 31.7919L20.5566 41.1175H15.4384C13.5925 41.1175 12.8373 40.185 11.8304 38.8285L8.30642 34.0809C8.22251 33.9114 8.0547 33.7418 7.71908 33.9114C7.55127 33.9114 7.46737 34.0809 7.46737 34.2505V41.1175H1.8457V24.6705H7.46737V31.6224L13.2568 25.8574C13.8442 25.3488 14.2637 25.0096 14.851 24.8401C15.2706 24.7553 15.6901 24.6705 16.2774 24.6705H38.0089L36.7504 27.0443C36.163 28.0617 35.5757 28.1464 34.7366 28.1464H30.2057V41.1175H24.7519V29.5877H24.668Z" fill="#4C4948"/>
</svg>
