<svg width="110" height="60" viewBox="0 0 110 60" fill="none" xmlns="http://www.w3.org/2000/svg">
<mask id="mask0_66_22020" style="mask-type:luminance" maskUnits="userSpaceOnUse" x="1" y="1" width="108" height="58">
<path d="M108.319 1.36621H1.79492V58.2922H108.319V1.36621Z" fill="white"/>
</mask>
<g mask="url(#mask0_66_22020)">
<mask id="mask1_66_22020" style="mask-type:luminance" maskUnits="userSpaceOnUse" x="-97" y="-76" width="912" height="1311">
<path d="M814.741 -75.2562H-96.207V1234.27H814.741V-75.2562Z" fill="white"/>
</mask>
<g mask="url(#mask1_66_22020)">
<path d="M11.4385 38.9374L10.2051 38.2542L9.6444 38.0265L8.74736 37.2296L8.5231 36.888L8.41097 36.6603L8.29884 36.4326L8.18671 36.2049V35.9772L8.41097 35.2941L8.63523 35.0664L8.85949 34.8387L9.30801 34.611L9.6444 34.3833L10.0929 34.2694C12.5598 34.0417 14.466 35.5218 15.6995 32.5616L15.9237 31.8785L16.148 31.1954L15.0267 30.8539L14.2418 30.74C11.887 29.943 7.40179 29.8292 5.38345 31.7647L4.82279 32.1062L4.37427 32.5616C2.80444 34.8387 2.58018 36.6603 3.47723 39.1651L3.70149 39.5066L3.92575 39.962L4.15001 40.3036L4.4864 40.6451C6.39262 42.9222 10.0929 43.036 11.7749 45.5408V46.5654L11.5506 47.0208L11.3264 47.2485L11.1021 47.8178L10.6536 48.0455L10.0929 48.2732L9.53227 48.3871H7.96245L7.0654 48.1594L5.60771 47.5901L4.4864 47.0208L4.03788 46.7931L2.01953 50.6641L2.69231 51.0057L3.3651 51.2334C7.17753 52.8273 12.2234 53.1688 15.4752 50.2087L16.2601 49.0702C18.3906 45.9962 16.9329 41.4421 13.4568 39.962L11.4385 38.9374Z" fill="#E31837"/>
</g>
<mask id="mask2_66_22020" style="mask-type:luminance" maskUnits="userSpaceOnUse" x="-97" y="-76" width="912" height="1311">
<path d="M814.741 -75.2562H-96.207V1234.27H814.741V-75.2562Z" fill="white"/>
</mask>
<g mask="url(#mask2_66_22020)">
<path d="M11.5503 38.7097L10.429 38.2543L9.86832 38.0266L9.41979 37.5712L8.97127 37.2296C8.29849 36.7742 8.18636 35.408 8.85914 34.9526L9.0834 34.7249L9.30766 34.611C10.8775 33.9279 12.5594 35.1803 14.1293 34.4972L14.6899 34.1556L14.9142 33.9279L15.1384 33.7002L15.4748 33.2448L15.8112 32.5617L16.0355 31.9924L16.2598 31.3093V31.0816L16.0355 30.8539L15.0263 30.5124L13.7929 30.2847L12.6716 30.0569L11.4381 29.9431C10.0926 29.6015 6.84079 30.2847 5.49523 31.3093L5.15884 31.537L4.37392 32.334L3.9254 33.0171C0.337225 39.6205 5.83162 42.2391 10.9896 44.8577L11.2139 45.1993L11.4381 45.427L11.6624 45.8824C12.1109 47.1347 10.7654 47.9317 9.64406 48.0456H8.29849L7.06505 47.8179L6.5044 47.5902L5.83162 47.3625L5.27097 47.1348L4.71031 46.7932L4.14966 46.5655H3.9254L3.81327 46.6793L1.90705 50.4365L1.79492 50.6642V50.778H1.90705V51.0057L3.58901 51.8027L4.37392 52.0304C8.52275 53.6243 14.8021 53.2828 16.8204 48.6148L17.0447 48.1594L17.2689 47.8179C18.166 42.6945 15.8112 40.8729 11.5503 38.7097H11.326L11.2139 38.8236V39.0513L11.326 39.1651L12.7837 39.8482L13.4565 40.1898L14.2414 40.6452L14.9142 41.1006L15.4748 41.6699L15.9234 42.353L16.484 43.0361L16.8204 43.9469V44.4023L16.9325 44.8577L17.0447 45.3131V45.8824L16.8204 46.907L16.7083 47.3625L16.5961 47.8179C14.4657 52.8274 8.85914 53.0551 4.37392 51.4611L3.58901 51.1196L2.8041 50.8919L2.01918 50.5503L2.24344 50.6642L4.26179 46.907H3.9254L4.82245 47.3625L5.71949 47.9317L6.84079 48.2733L7.40145 48.3871L7.9621 48.6148H9.64406L10.5411 48.3871L10.9896 48.1594L11.4381 47.8179L12.1109 47.1348L12.3352 46.6793V46.3378C12.3352 43.833 8.63488 43.1499 6.95292 42.0114L6.28014 41.6699L5.49523 41.1006L4.82245 40.6452C0.112965 34.611 6.39227 28.5769 13.4565 30.6262L14.6899 30.9678L15.9234 31.4232L15.6991 31.1955L15.3627 32.2201L15.1384 32.7894C13.3444 35.7495 10.7654 32.7894 8.52275 34.611L8.29849 34.8387L8.07423 35.1803L7.9621 35.408C7.9621 36.3188 7.84997 36.3188 8.18636 37.2296L8.97127 38.0266L9.86832 38.5959L10.5411 38.7097L11.326 39.1651H11.5503L11.6624 39.0513L11.7745 38.8236L11.5503 38.7097Z" fill="#E31837"/>
</g>
<mask id="mask3_66_22020" style="mask-type:luminance" maskUnits="userSpaceOnUse" x="-97" y="-76" width="912" height="1311">
<path d="M814.741 -75.2562H-96.207V1234.27H814.741V-75.2562Z" fill="white"/>
</mask>
<g mask="url(#mask3_66_22020)">
<path d="M29.1548 40.759L37.4525 30.6262H31.6217L25.1181 39.5067H24.8939V30.6262H20.0723V52.2581H20.2965C23.0998 52.372 24.8939 50.6642 24.8939 47.8179V42.8084H25.006L31.7338 52.0304H37.901L29.1548 40.759Z" fill="#E31837"/>
</g>
<mask id="mask4_66_22020" style="mask-type:luminance" maskUnits="userSpaceOnUse" x="-97" y="-76" width="912" height="1311">
<path d="M814.741 -75.2562H-96.207V1234.27H814.741V-75.2562Z" fill="white"/>
</mask>
<g mask="url(#mask4_66_22020)">
<path d="M29.2674 41.1006L37.5651 30.7401V30.3985H31.3979L31.2858 30.5124L30.5009 31.537L26.9127 36.3188L25.3429 38.482L24.8943 39.1651L24.7822 39.279L25.0065 39.5067V30.3985H24.8943V30.2847H19.8485L19.7363 30.3985V52.372L19.8485 52.4858H19.9606L20.8576 52.372L21.4183 52.2581L21.7547 52.1442L22.2032 52.0304L22.5396 51.8027L22.876 51.575C25.1186 50.4365 25.0065 47.704 25.0065 45.5408V44.0608L24.8943 42.6945L24.6701 42.9222L24.5579 42.8084L24.7822 43.0361L25.1186 43.7192L26.8005 45.9962L30.5009 51.0057L31.2858 52.1442V52.2581H37.6772L37.7893 52.1442V51.9165L37.6772 51.8027L29.0432 40.6452L28.931 40.5313H28.7068V40.6452L28.5946 40.759V40.9868L37.3408 52.1442L37.5651 51.6888H31.51V51.8027H31.3979L31.51 51.9165H31.6222L31.51 51.8027L30.5009 50.3226L26.6884 45.0854L25.2307 43.1499L25.0065 42.8084L24.7822 42.6945L24.5579 42.5807H24.4458L24.6701 42.6945V42.8084V48.1594L24.5579 48.7287L24.4458 49.1841C23.8852 51.1196 22.7638 51.6888 21.0819 52.0304H20.0727L20.297 52.2581V30.6262L20.0727 30.8539H24.8943L24.6701 30.6262V39.5067L24.8943 39.7344L25.1186 39.6205C27.3612 37.0019 29.3795 33.7002 31.6222 30.9678L31.7343 30.7401H31.6222V30.9678H37.4529L37.2287 30.5124L28.931 40.759V40.9868L29.0432 41.2145H29.2674" fill="#E31837"/>
</g>
<mask id="mask5_66_22020" style="mask-type:luminance" maskUnits="userSpaceOnUse" x="-97" y="-76" width="912" height="1311">
<path d="M814.741 -75.2562H-96.207V1234.27H814.741V-75.2562Z" fill="white"/>
</mask>
<g mask="url(#mask5_66_22020)">
<path d="M37.6759 7.40039L37.0031 7.51424C27.8084 11.7268 40.3671 18.444 33.1907 24.1366L32.7422 24.4782L33.6392 24.3643H35.6576L36.4425 24.4782H37.0031L44.7401 14.9146L43.8431 13.7761C42.8339 12.1822 40.1428 9.22202 38.573 8.0835L37.6759 7.40039Z" fill="#E31837"/>
</g>
<mask id="mask6_66_22020" style="mask-type:luminance" maskUnits="userSpaceOnUse" x="-97" y="-76" width="912" height="1311">
<path d="M814.741 -75.2562H-96.207V1234.27H814.741V-75.2562Z" fill="white"/>
</mask>
<g mask="url(#mask6_66_22020)">
<path d="M37.5643 7.05884L37.0036 7.17269L36.5551 7.40039C33.7518 8.65277 32.4063 11.4991 33.7518 14.3454L34.2003 15.5977L34.761 16.8501L34.9853 17.5332C35.0974 18.444 35.4338 19.3549 35.2095 20.3795L35.0974 20.8349L34.9853 21.2903C34.2003 22.7704 33.8639 23.4535 32.5184 24.2505L32.4062 24.4782V24.592L32.5184 24.8197H32.6305L32.7426 24.9336L33.7518 24.7059H35.8823L36.8915 24.9336H37.2279L37.34 24.7059L37.4521 24.592L39.8069 21.6319L44.9649 15.37V14.8008L44.18 13.6623L43.395 12.6376L42.6101 11.6129L41.8252 10.7021L40.9282 9.79129L39.919 8.88047L39.0219 8.08351L38.0128 7.28654L37.5643 7.05884L37.34 7.28654V7.51425H37.4521C39.919 9.56358 42.3859 12.1822 44.2921 14.8008L44.5163 14.9146V15.0285L41.4888 18.6717L37.6764 23.4535L37.2279 24.1366L37.0036 24.3643H37.2279L36.1066 24.1366H33.8639L32.7426 24.2505L32.8548 24.7059L33.4154 24.3643C40.5918 17.6471 27.8089 11.3852 37.6764 7.6281L37.9006 7.51425V7.28654L37.7885 7.05884H37.5643Z" fill="#E31837"/>
</g>
<mask id="mask7_66_22020" style="mask-type:luminance" maskUnits="userSpaceOnUse" x="-97" y="-76" width="912" height="1311">
<path d="M814.741 -75.2562H-96.207V1234.27H814.741V-75.2562Z" fill="white"/>
</mask>
<g mask="url(#mask7_66_22020)">
<path d="M44.0678 33.0171L44.6285 31.7647C45.6377 29.3738 44.4042 24.7059 46.4226 23.2258L46.9832 22.8842L47.3196 22.7704L47.7681 22.5427H49.8986L51.2442 22.6565L52.0291 22.5427C53.5989 22.6565 56.4022 22.0873 57.8599 21.2903L58.8691 20.9487L59.654 20.4933L60.4389 20.1518L58.9812 19.3548C55.1688 16.9639 50.3471 15.5977 45.9741 15.1423L44.7406 15.0284L40.5918 26.6413L41.0403 27.2106C42.1616 29.0322 42.8344 30.1708 43.7314 32.2201L44.0678 33.0171Z" fill="#E31837"/>
</g>
<mask id="mask8_66_22020" style="mask-type:luminance" maskUnits="userSpaceOnUse" x="-97" y="-76" width="912" height="1311">
<path d="M814.741 -75.2562H-96.207V1234.27H814.741V-75.2562Z" fill="white"/>
</mask>
<g mask="url(#mask8_66_22020)">
<path d="M44.2929 33.131L44.6293 32.334L44.8536 31.537L45.0778 30.7401L45.3021 29.9431L45.4142 29.1461V28.3492L45.5263 26.6414L45.6385 25.8444V25.1613L45.8627 24.4782L46.087 24.2505L45.9749 23.9089L46.1991 23.6812L46.5355 23.4535L46.8719 23.2258L47.2083 23.112L47.6568 22.8843H48.2175L49.0024 22.7704L50.6843 22.8843L52.3663 22.7704H53.1512L53.9361 22.6566C55.8423 22.4289 57.6364 21.7458 59.3184 20.8349L60.5518 20.1518L60.7761 19.9241H60.5518C56.403 17.1917 51.6935 15.5977 46.8719 15.0285L45.7506 14.9146L44.7414 14.8008H44.5172L44.405 14.9146L41.2654 23.9089L40.5926 25.7306L40.4805 26.186V26.6414C41.4896 28.2353 42.2746 29.1461 43.0595 30.9678L43.508 31.9924L43.8444 33.0171V33.2448L44.2929 33.131V32.9032L43.1716 30.2847L42.4988 29.0323L41.7139 27.7799L41.2654 26.9829L40.7047 26.2998L40.8169 26.4137V26.2998L41.0411 25.7306L43.6201 18.6717L44.7414 15.5977L44.9657 15.1423H45.0778C50.7965 15.5977 54.0483 16.7363 59.0941 19.4687L60.3276 20.2657V19.9241L58.982 20.4934L57.6364 21.1765C53.0391 23.2258 50.2358 21.7458 46.6476 22.7704L46.3113 23.112L45.9749 23.3397C44.2929 25.7306 45.7506 30.0569 43.9565 32.9032V33.131H44.2929Z" fill="#E31837"/>
</g>
<mask id="mask9_66_22020" style="mask-type:luminance" maskUnits="userSpaceOnUse" x="-97" y="-76" width="912" height="1311">
<path d="M814.741 -75.2562H-96.207V1234.27H814.741V-75.2562Z" fill="white"/>
</mask>
<g mask="url(#mask9_66_22020)">
<path d="M27.9221 25.1613H27.6978L27.5857 25.0475L27.3614 24.8198L27.2493 24.5921L25.0067 3.64329L24.8945 2.84633V1.93551L25.0067 1.70781L25.3431 1.4801L25.9037 1.59395C28.9312 2.27707 31.8466 3.64329 34.5378 5.12337L35.5469 5.80648L36.444 6.48959L35.8833 6.71729C25.5673 12.296 42.6111 20.7211 28.4827 25.1613H27.9221Z" fill="#F58025"/>
</g>
<mask id="mask10_66_22020" style="mask-type:luminance" maskUnits="userSpaceOnUse" x="-97" y="-76" width="912" height="1311">
<path d="M814.741 -75.2562H-96.207V1234.27H814.741V-75.2562Z" fill="white"/>
</mask>
<g mask="url(#mask10_66_22020)">
<path d="M28.0338 25.0475L27.6974 24.8198L27.5853 24.5921L27.4732 24.2505L27.3611 23.5674V23.112L27.0247 19.3549L25.9034 9.5636L25.567 6.03419L25.2306 2.61863V2.16322H25.3427L25.4548 1.93552H25.6791H25.7912L26.0155 2.04937H26.2397L26.5761 2.27707L28.0338 2.39092L29.2673 2.84633L30.2764 3.30174L31.1735 3.6433L32.0705 4.0987L32.8554 4.55411L34.7617 5.57878L36.5558 6.7173L36.6679 6.37574L35.883 6.60345L35.3223 6.83115L34.7617 7.17271C28.146 12.0683 36.5558 16.6224 33.5282 21.9735L33.1918 22.315L32.8554 22.7704L32.0705 23.5674L31.1735 24.1367L30.6128 24.3644L30.1643 24.5921L29.6037 24.8198L28.0338 25.0475H27.8096L27.6974 25.1613V25.389L27.8096 25.5029H27.9217L28.4824 25.389H29.043L30.1643 25.0475L30.8371 24.8198L31.2856 24.5921L31.8463 24.3644L33.1918 23.2258L33.5282 22.8843L33.7525 22.315L33.9768 21.8596L34.201 21.4042L34.4253 20.8349L34.5374 20.2657C34.8738 16.7363 32.1827 14.6869 32.5191 11.3852L32.6312 10.816L32.7433 10.4744L32.9676 9.90516L33.1918 9.5636L33.4161 9.10819L33.7525 8.76663L33.9768 8.42508L34.4253 7.96967L34.7617 7.74197L35.6587 7.17271L35.9951 7.05885L36.6679 6.83115L36.78 6.7173V6.48959L36.6679 6.37574L34.9859 5.12337C33.9768 4.32641 26.1276 0.683143 25.1184 1.59396L24.8942 1.82166L24.6699 2.04937V3.18789L24.7821 3.75715L25.0063 4.55411L25.3427 8.88049L26.5761 19.9241L27.0247 23.6812V24.2505L27.1368 24.8198L27.3611 25.0475L27.4732 25.2752L27.6974 25.5029L28.0338 25.6167V25.5029L28.2581 25.2752V25.1613L28.0338 25.0475Z" fill="#F58025"/>
</g>
<mask id="mask11_66_22020" style="mask-type:luminance" maskUnits="userSpaceOnUse" x="-97" y="-76" width="912" height="1311">
<path d="M814.741 -75.2562H-96.207V1234.27H814.741V-75.2562Z" fill="white"/>
</mask>
<g mask="url(#mask11_66_22020)">
<path d="M44.5176 34.2694L44.7418 34.8387L44.9661 35.0664L45.0782 35.1802L45.3025 35.2941L45.5267 35.1802L45.751 35.0664L64.3647 26.1859L65.5981 25.6167L65.8224 25.5028L65.9345 25.2751L66.0466 25.1613V24.8197L65.9345 24.7058L65.486 24.1366L63.9161 22.6565L63.1312 22.0873L62.3463 21.4041L61.4493 20.6072L60.5522 21.1764L59.6552 21.7457C54.1608 24.1366 53.1516 23.4535 47.7694 23.795L47.5451 23.9089L47.3208 24.1366C45.6389 24.7058 46.7602 30.74 45.5267 32.9032L45.1904 33.7002L44.5176 34.2694Z" fill="#F58025"/>
</g>
<mask id="mask12_66_22020" style="mask-type:luminance" maskUnits="userSpaceOnUse" x="-97" y="-76" width="912" height="1311">
<path d="M814.741 -75.2562H-96.207V1234.27H814.741V-75.2562Z" fill="white"/>
</mask>
<g mask="url(#mask12_66_22020)">
<path d="M44.293 34.3833L44.4051 34.7248L44.6294 34.9526L44.7415 35.1803L44.9657 35.2941H45.4143L45.6385 35.1803L45.8628 34.9526L48.3297 33.814L56.8516 29.8292L63.9158 26.4137L64.7007 26.1859L65.4856 25.8444L65.822 25.6167L65.9341 25.389L66.0463 25.2751V24.9336L65.9341 24.7059L65.822 24.4782L65.5978 23.9089L65.0371 23.4535L64.5886 22.8842L63.9158 22.4288L62.7945 21.4042L61.5611 20.4933H61.3368L59.8791 21.2903L58.5335 21.9734L56.2909 22.7704C53.5998 23.9089 48.1054 22.7704 46.872 24.0228L46.3113 24.8197C45.3021 27.4383 46.1992 30.5123 44.8536 33.3586L44.4051 34.1556L44.293 34.3833L44.4051 34.611H44.6294V34.4971L45.5264 33.0171L45.7507 32.2201L46.0871 30.5123L46.1992 29.7154L46.3113 27.8937V27.0968L46.4234 26.2998L46.6477 25.389L46.872 25.0474L47.0962 24.8197L47.3205 24.592L47.6569 24.3643C52.2542 23.9089 53.0391 24.8197 58.085 22.9981L59.3185 22.315L60.5519 21.7457L61.1125 21.518H61.3368L61.5611 21.7457L62.0096 22.2011L63.0188 22.9981L64.0279 23.9089L64.5886 24.3643L64.8128 24.592L65.0371 24.8197L65.2614 25.1613V25.389L65.1492 25.5028L65.0371 25.7305L64.8128 25.8444L64.5886 26.0721L63.0188 26.7552L59.2063 28.5768L49.2267 33.3586L46.3113 34.7248L45.8628 34.9526L45.9749 34.611L45.7507 34.8387H45.5264L45.3021 34.7248L45.0779 34.4971L44.8536 34.2694L44.6294 34.1556V34.0417H44.4051V34.1556H44.293V34.3833Z" fill="#F58025"/>
</g>
<mask id="mask13_66_22020" style="mask-type:luminance" maskUnits="userSpaceOnUse" x="-97" y="-76" width="912" height="1311">
<path d="M814.741 -75.2562H-96.207V1234.27H814.741V-75.2562Z" fill="white"/>
</mask>
<g mask="url(#mask13_66_22020)">
<path d="M69.4106 52.5996L69.0742 53.5105C67.6165 57.0399 64.8132 59.2031 61.1129 57.6091L60.8887 57.4953L61.6736 55.2182L61.8978 55.3321C64.7011 56.3568 65.9345 54.649 66.7195 52.0304L61.4493 40.1898L61.8978 40.0759C63.8041 39.6205 64.7011 40.4175 65.3739 42.1253L68.1772 48.9564H68.2893L71.0925 40.1898H74.0079L69.4106 52.5996Z" fill="#F58025"/>
</g>
<mask id="mask14_66_22020" style="mask-type:luminance" maskUnits="userSpaceOnUse" x="-97" y="-76" width="912" height="1311">
<path d="M814.741 -75.2562H-96.207V1234.27H814.741V-75.2562Z" fill="white"/>
</mask>
<g mask="url(#mask14_66_22020)">
<path d="M69.186 52.5996L68.8496 53.5104C67.0555 56.926 65.2614 58.6338 61.449 57.4953L61.2247 57.3814L61.3368 57.4953L62.0096 55.2182L61.6732 55.4459L62.5703 55.7875C63.4673 56.0152 64.5886 55.7875 65.3735 55.1044L65.9342 54.5351L66.2706 53.852L66.7191 53.055L66.9434 52.7135L67.0555 52.2581L67.1676 51.9165L66.9434 51.575L66.1585 49.6395L63.9158 44.8577L61.7854 40.0759L61.5611 40.4175L62.1218 40.1898L62.6824 40.0759H63.2431L64.028 40.3036L64.2522 40.5313L64.7008 40.9867L64.925 41.556L65.1493 42.0114L66.0463 44.2884L67.9525 48.9564V49.1841H68.2889L68.5132 48.9564L70.5315 42.5807L71.3165 40.1898L71.2043 40.3036V40.4175H74.0076L73.7833 40.0759L69.186 52.5996V52.8273L69.2981 52.9412H69.5224L69.7466 52.7135L74.2318 40.4175V40.3036L74.0076 40.1898V40.0759H70.7558L70.6437 40.1898L69.0738 45.0854L68.1768 48.1594L67.9525 48.9564H67.8404L68.0647 48.7287H68.1768L68.2889 48.8425V48.9564L65.9342 42.9222C65.2614 41.4421 64.925 39.8482 63.1309 39.8482H62.6824H62.1218H61.6732L61.2247 40.0759L61.1126 40.1898V40.4175L62.9067 44.2884L64.7008 48.2733L66.3827 51.9165L66.4948 52.0304V52.1442H66.3827V52.3719L66.1585 52.9412C65.7099 54.3074 65.4857 54.7628 64.1401 55.3321L63.6916 55.4459H63.2431L62.346 55.2182L61.8975 54.9905H61.6732L61.449 55.2182L60.6641 57.4953L60.7762 57.6091L60.8883 57.8368C62.6824 58.5199 64.8129 58.6338 66.3827 57.6091L66.7191 57.3814L66.9434 57.1537L67.6162 56.5844L68.1768 55.9013L68.5132 55.1044L68.9617 54.3074L69.186 53.5104L69.5224 52.7135V52.4858V52.3719H69.186V52.5996Z" fill="#F58025"/>
</g>
<mask id="mask15_66_22020" style="mask-type:luminance" maskUnits="userSpaceOnUse" x="-97" y="-76" width="912" height="1311">
<path d="M814.741 -75.2562H-96.207V1234.27H814.741V-75.2562Z" fill="white"/>
</mask>
<g mask="url(#mask15_66_22020)">
<path d="M107.982 52.0304L103.945 46.1101L107.87 40.1898H104.506L101.702 44.4023L100.02 41.6699C99.2355 40.0759 97.8899 39.5067 96.2079 40.3036L95.7594 40.5313L99.5719 45.9962L95.5352 51.9165H99.0112L101.814 47.5902L104.618 51.9165H107.982" fill="#F58025"/>
</g>
<mask id="mask16_66_22020" style="mask-type:luminance" maskUnits="userSpaceOnUse" x="-97" y="-76" width="912" height="1311">
<path d="M814.741 -75.2562H-96.207V1234.27H814.741V-75.2562Z" fill="white"/>
</mask>
<g mask="url(#mask16_66_22020)">
<path d="M108.208 51.9165L104.171 45.9962L104.283 46.1101L104.395 45.9962L104.731 45.3131L106.189 43.1499L108.095 40.3036L108.208 40.0759L108.095 39.9621V39.8482H105.516L104.731 39.7344L104.507 39.8482L104.283 39.9621V40.0759L101.48 44.4023H101.928L101.255 43.2638C99.9099 40.8729 99.1249 38.9374 95.9853 40.0759L95.5368 40.3036V40.4175L95.4246 40.5313V40.6452L95.5368 40.759L96.7702 42.5807L98.0036 44.2885L98.7885 45.427L99.1249 45.8824L99.2371 46.1101L99.3492 46.2239L98.7885 47.1348L95.4246 52.0304L95.3125 52.1442L95.4246 52.3719H95.5368L95.6489 52.4858H99.1249L99.2371 52.3719L99.3492 52.1442L102.152 47.9317H101.816L104.507 52.1442L104.619 52.2581L104.844 52.3719L105.068 52.4858H108.32L108.432 52.3719V51.9165L108.32 51.6888H104.844V51.8027L105.068 51.9165L104.844 51.575L102.152 47.704V47.4763H101.928L101.816 47.704L99.2371 51.575L99.0128 51.8027V51.9165L99.2371 51.8027V51.6888H95.761L95.9853 52.1442L99.9098 46.2239L100.022 45.9962L99.7977 45.8824L97.7794 43.2638L95.9853 40.4175L95.8732 40.759L96.4338 40.5313L96.8823 40.4175C97.7794 40.1898 98.4522 40.3036 99.1249 40.8729L99.4613 41.3283L100.022 42.1253L100.47 42.9222L101.48 44.5162L101.592 44.63H101.816L102.04 44.5162L104.619 40.5313L104.731 40.3036H104.619V40.4175H107.983L107.759 40.0759L103.722 45.9962V46.2239L107.871 52.2581L108.095 52.3719L108.208 52.2581H108.32V52.1442V51.9165H108.208Z" fill="#F58025"/>
</g>
<mask id="mask17_66_22020" style="mask-type:luminance" maskUnits="userSpaceOnUse" x="-97" y="-76" width="912" height="1311">
<path d="M814.741 -75.2562H-96.207V1234.27H814.741V-75.2562Z" fill="white"/>
</mask>
<g mask="url(#mask17_66_22020)">
<path d="M76.2496 44.1746V52.0304H79.165V43.833L79.3893 43.6053C81.1834 42.0114 83.7624 42.4668 83.7624 45.3131V52.0304H86.5656V43.833C86.5656 42.6945 85.7807 41.2144 84.7716 40.759L84.4352 40.5313L84.0988 40.4175C83.0896 39.7343 80.7349 40.0759 79.8378 40.9867L79.5014 41.2144L79.0529 41.6698L78.9408 41.4421L78.8287 41.2144L78.7165 40.9867L78.1559 40.6452L77.9316 40.5313L77.5952 40.4175L77.0346 40.3036H76.8103L76.0254 40.5313L76.1375 40.8729L76.2496 41.6698L76.3618 42.6945V44.1746" fill="#F58025"/>
</g>
<mask id="mask18_66_22020" style="mask-type:luminance" maskUnits="userSpaceOnUse" x="-97" y="-76" width="912" height="1311">
<path d="M814.741 -75.2562H-96.207V1234.27H814.741V-75.2562Z" fill="white"/>
</mask>
<g mask="url(#mask18_66_22020)">
<path d="M76.0258 44.1746V52.1442H76.138V52.2581H79.2776L79.3898 52.1442H79.5019V43.9469L79.7261 43.7192L80.0625 43.4915L80.3989 43.2638L80.6232 43.0361C81.296 42.8084 81.7445 42.8084 82.4173 43.0361L82.6415 43.2638L82.8658 43.3776L82.9779 43.6053L83.2022 43.833L83.4265 44.0607L83.5386 44.4023L83.6507 44.63V52.0304H83.7628V52.1442H86.9025L87.0146 52.0304H87.1268V51.8027C87.351 45.5408 88.3602 36.6604 79.5019 40.759L78.9412 41.2144L79.2776 41.3283L79.1655 41.1006C78.717 39.8482 77.035 39.7344 75.9137 39.9621H75.8016L75.6895 40.1898V40.3036C76.138 41.8975 75.9137 42.8084 76.0258 44.1746L76.138 44.4023H76.3622L76.4744 44.2884V43.2638L76.3622 42.2391L76.2501 41.4421L76.0258 40.5313L75.8016 40.759H76.138C77.2593 40.5313 78.0442 40.759 78.6048 41.7837V41.8975H78.9412L79.5019 41.4421L80.1747 40.9867L80.8475 40.759L81.5202 40.5313L82.193 40.4175L82.9779 40.5313L83.6507 40.6452L84.4356 40.8729C86.3419 42.1253 86.0055 42.4668 86.5661 44.2884V52.1442L86.7904 51.9165H83.9871L84.2114 52.1442V44.7438L83.9871 44.1746L83.5386 43.2638L83.3143 43.0361L82.9779 42.8084L82.5294 42.5807L82.193 42.4668L81.8566 42.353L81.296 42.4668L80.8475 42.6945L80.0625 42.9222L79.8383 43.1499L79.5019 43.3776L79.2776 43.6053L79.1655 43.833V52.0304L79.3898 51.8027H76.2501L76.4744 52.0304V44.0607L76.3622 43.9469H76.2501V43.833L76.0258 44.1746Z" fill="#F58025"/>
</g>
<mask id="mask19_66_22020" style="mask-type:luminance" maskUnits="userSpaceOnUse" x="-97" y="-76" width="912" height="1311">
<path d="M814.741 -75.2562H-96.207V1234.27H814.741V-75.2562Z" fill="white"/>
</mask>
<g mask="url(#mask19_66_22020)">
<path d="M93.1811 36.6603V36.888L93.069 37.4573C92.2841 39.0512 90.0415 38.7097 89.8172 37.0019L89.7051 36.7742L89.8172 36.4326C90.1536 34.7248 92.3962 34.4971 93.069 36.0911L93.2932 36.4326V36.6603" fill="#F58025"/>
</g>
<mask id="mask20_66_22020" style="mask-type:luminance" maskUnits="userSpaceOnUse" x="-97" y="-76" width="912" height="1311">
<path d="M814.741 -75.2562H-96.207V1234.27H814.741V-75.2562Z" fill="white"/>
</mask>
<g mask="url(#mask20_66_22020)">
<path d="M93.0694 36.6603L92.9573 36.888L92.8452 37.2296L92.7331 37.5711L92.5088 37.7989L92.2845 37.9127L92.0603 38.1404L91.836 38.2543H91.1632L90.8268 38.1404L90.6026 37.9127L90.3783 37.7989L90.1541 37.5711L89.9298 37.3434L89.8177 37.0019L89.7055 36.7742L89.8177 36.4326L89.9298 36.2049C90.4904 34.7248 92.8452 34.9526 93.0694 36.6603V36.888H93.4058V36.7742L93.518 36.6603L93.4058 36.2049L93.2937 35.8634C92.5088 34.2694 89.8177 34.3833 89.4813 36.2049L89.3691 36.6603L89.4813 37.1157C90.0419 38.8235 92.3967 39.3928 93.2937 37.3434L93.4058 37.0019L93.518 36.6603L93.4058 36.5465V36.4326H93.2937H93.1816L93.0694 36.5465V36.6603Z" fill="#F58025"/>
</g>
<mask id="mask21_66_22020" style="mask-type:luminance" maskUnits="userSpaceOnUse" x="-97" y="-76" width="912" height="1311">
<path d="M814.741 -75.2562H-96.207V1234.27H814.741V-75.2562Z" fill="white"/>
</mask>
<g mask="url(#mask21_66_22020)">
<path d="M92.8443 40.1898H90.041V51.9165H92.8443V40.1898Z" fill="#F58025"/>
</g>
<mask id="mask22_66_22020" style="mask-type:luminance" maskUnits="userSpaceOnUse" x="-97" y="-76" width="912" height="1311">
<path d="M814.741 -75.2562H-96.207V1234.27H814.741V-75.2562Z" fill="white"/>
</mask>
<g mask="url(#mask22_66_22020)">
<path d="M92.8447 51.6888H90.0415L90.1536 52.0304V40.1898L90.0415 40.5313H92.8447L92.7326 40.1898V52.1442V52.2581H92.9569L93.069 52.1442H93.1811V40.1898L93.069 40.0759H89.8172L89.7051 40.1898V52.1442H89.8172L89.9293 52.2581H92.9569L93.069 52.1442H93.1811V51.9165L93.069 51.8027L92.9569 51.6888H92.8447Z" fill="#F58025"/>
</g>
<mask id="mask23_66_22020" style="mask-type:luminance" maskUnits="userSpaceOnUse" x="-97" y="-76" width="912" height="1311">
<path d="M814.741 -75.2562H-96.207V1234.27H814.741V-75.2562Z" fill="white"/>
</mask>
<g mask="url(#mask23_66_22020)">
<path d="M52.0295 41.556L52.3659 41.3283C55.5055 38.9374 59.8786 39.9621 59.6543 44.1746V52.0304H56.739V45.0854L56.6268 44.63V44.1746L56.4026 43.833L55.8419 43.2638L55.5055 43.0361L55.1691 42.9222L54.7206 42.8083L54.16 42.9222L53.8236 43.0361L53.375 43.2638H53.0386L52.3659 43.7192L52.0295 43.9469V51.9165H49.002V34.0417H49.6747C51.2446 34.1556 51.9173 34.9526 52.0295 36.4326V41.556Z" fill="#F58025"/>
</g>
<mask id="mask24_66_22020" style="mask-type:luminance" maskUnits="userSpaceOnUse" x="-97" y="-76" width="912" height="1311">
<path d="M814.741 -75.2562H-96.207V1234.27H814.741V-75.2562Z" fill="white"/>
</mask>
<g mask="url(#mask24_66_22020)">
<path d="M52.1417 41.7836L52.7024 41.3282C55.842 39.0512 59.8787 40.1897 59.4302 44.7438V51.9165L59.6545 51.6888H56.7391L56.9633 51.9165V46.3377L57.0755 45.1992C56.9633 43.833 56.7391 43.036 55.3935 42.4668L54.945 42.3529H54.0479L53.4873 42.5806L52.7024 42.8083L52.366 43.2637L52.0296 43.4914L51.8053 43.7191V43.833L51.6932 43.9468V51.9165L51.9174 51.6888H48.8899L49.1142 51.9165V34.0417L48.8899 34.2694L49.4506 34.3833H49.787L50.2355 34.611L50.5719 34.7248L50.9083 34.9525L51.1325 35.1802L51.3568 35.5218L51.5811 36.091V36.4326L51.6932 36.7742L51.5811 37.5711V41.4421L51.6932 41.6698V41.7836H52.1417V36.091L52.0296 35.7495L51.9174 35.5218L51.6932 35.2941L51.5811 35.0664L51.2447 34.7248L51.0204 34.4971L50.7961 34.3833L50.1234 34.1556L49.5627 34.0417L48.7778 33.9279L48.6657 34.0417H48.5535L48.4414 34.1556V52.3719H48.5535L48.6657 52.4857H51.9174L52.0296 52.3719V44.4022C52.1417 44.0607 52.7024 43.7191 52.9266 43.6053L53.1509 43.4914L53.3751 43.2637L53.7115 43.1499C56.5148 42.8083 56.1784 45.4269 56.0663 47.4762V52.3719H56.1784L56.2905 52.4857H59.5423L59.6545 52.3719V43.6053L59.5423 42.9222V42.1252L59.3181 41.4421L58.3089 40.5313L58.0846 40.3036C56.0663 39.1651 53.4873 39.962 51.8053 41.4421L51.6932 41.5559V41.7836H51.8053L51.9174 41.8975H52.1417" fill="#F58025"/>
</g>
</g>
</svg>
