<svg width="126" height="22" viewBox="0 0 126 22" fill="none" xmlns="http://www.w3.org/2000/svg">
<g clip-path="url(#clip0_66_21898)">
<path d="M62.5556 19.0987C62.5556 20.4312 61.4673 21.5214 60.1372 21.5214C58.807 21.5214 57.7188 20.4312 57.7188 19.0987C57.7188 17.7663 58.807 16.6761 60.1372 16.6761C61.4673 16.6761 62.5556 17.7663 62.5556 19.0987Z" fill="black"/>
<path d="M1.61133 18.493L4.15068 15.4646C5.88388 16.9182 7.73801 17.8469 9.9549 17.8469C11.6881 17.8469 12.7764 17.1605 12.7764 15.9896V15.9492C12.7764 14.859 12.0912 14.2937 8.86661 13.4861C4.95682 12.4767 2.41747 11.3865 2.41747 7.51022V7.46984C2.41747 3.87621 5.23897 1.5343 9.22937 1.5343C12.0509 1.5343 14.4693 2.42261 16.4443 3.99735L14.2275 7.22757C12.4942 6.01624 10.8013 5.28944 9.14876 5.28944C7.49617 5.28944 6.64972 6.05661 6.64972 6.9853V7.02568C6.64972 8.31777 7.49617 8.72155 10.8417 9.60986C14.7918 10.6597 17.0086 12.0729 17.0086 15.4646V15.505C17.0086 19.3813 14.0662 21.5617 9.87428 21.5617C6.93187 21.6021 3.94914 20.5926 1.61133 18.493Z" fill="black"/>
<path d="M18.7422 18.4929L21.2815 15.4646C23.0147 16.9182 24.8689 17.8469 27.0858 17.8469C28.819 17.8469 29.9073 17.1604 29.9073 15.9895V15.9491C29.9073 14.8589 29.222 14.2936 25.9975 13.4861C22.0877 12.4766 19.5483 11.3864 19.5483 7.51015V7.46977C19.5483 3.91653 22.3698 1.57462 26.3602 1.57462C29.1817 1.57462 31.6002 2.46293 33.5752 4.03766L31.3583 7.26788C29.6251 6.05655 27.9322 5.32975 26.2796 5.32975C24.627 5.32975 23.7806 6.09693 23.7806 7.02562V7.06599C23.7806 8.35808 24.627 8.76186 27.9725 9.65017C31.9226 10.7 34.1395 12.1132 34.1395 15.505V15.5453C34.1395 19.4216 31.1971 21.602 27.0051 21.602C24.0627 21.602 21.08 20.5926 18.7422 18.4929Z" fill="black"/>
<path d="M35.873 11.6288V11.5884C35.873 6.05668 40.1859 1.49399 46.0708 1.49399C49.5775 1.49399 51.6734 2.42268 53.7291 4.15892L51.0285 7.42952C49.5372 6.17781 48.207 5.45101 45.9498 5.45101C42.8462 5.45101 40.3471 8.1967 40.3471 11.5481V11.5884C40.3471 15.1417 42.8059 17.7662 46.232 17.7662C47.804 17.7662 49.1744 17.3625 50.2627 16.5953V13.8092H45.9498V10.0945H54.4143V18.5738C52.399 20.2697 49.6581 21.6829 46.1111 21.6829C40.065 21.6425 35.873 17.4028 35.873 11.6288Z" fill="black"/>
<path d="M63.6836 11.6288V11.5884C63.6836 6.05668 67.8755 1.49399 73.841 1.49399C77.5089 1.49399 79.7258 2.70532 81.4993 4.52232L78.7585 7.67179C77.2671 6.29894 75.7354 5.45101 73.7604 5.45101C70.4955 5.45101 68.1174 8.1967 68.1174 11.5481V11.5884C68.1174 14.9398 70.4149 17.7259 73.7604 17.7259C75.9773 17.7259 77.3477 16.8375 78.8794 15.4243L81.6203 18.17C79.6049 20.31 77.388 21.6425 73.6395 21.6425C67.9561 21.6425 63.6836 17.2413 63.6836 11.6288Z" fill="black"/>
<path d="M82.3867 11.6288V11.5884C82.3867 6.05668 86.7399 1.49399 92.7457 1.49399C98.7514 1.49399 103.064 5.97592 103.064 11.5481V11.5884C103.064 17.1202 98.7111 21.6829 92.7053 21.6829C86.6996 21.6425 82.3867 17.1606 82.3867 11.6288ZM98.6305 11.6288V11.5884C98.6305 8.23708 96.1718 5.45101 92.7457 5.45101C89.2792 5.45101 86.9011 8.1967 86.9011 11.5481V11.5884C86.9011 14.9398 89.3599 17.7259 92.786 17.7259C96.2121 17.6855 98.6305 14.9802 98.6305 11.6288Z" fill="black"/>
<path d="M105.08 1.81702H109.715L114.834 10.0541L119.953 1.81702H124.548V21.3195H120.316V8.60049L114.834 16.9183H114.713L109.312 8.68124V21.3195H105.08V1.81702Z" fill="black"/>
</g>
<defs>
<clipPath id="clip0_66_21898">
<rect width="126" height="21.7636" fill="white"/>
</clipPath>
</defs>
</svg>
