<svg width="171" height="42" viewBox="0 0 171 42" fill="none" xmlns="http://www.w3.org/2000/svg">
<path d="M2.90101 24.4856L1.77386 24.4677C1.72616 24.1012 1.68982 23.7309 1.66621 23.3569H2.3831C2.4794 23.6066 2.59141 23.8505 2.71333 24.0884M32.323 24.4856C32.3196 24.3544 32.3142 24.2211 32.3073 24.0885C32.3113 24.2144 32.3196 24.3423 32.3196 24.4677H16.3812L16.5596 24.0885C16.6721 23.852 16.7728 23.6088 16.8613 23.357H32.2258C32.2666 23.5995 32.2911 23.8433 32.3073 24.0885M11.282 36.5946H23.0699C21.4495 37.2409 19.7076 37.624 17.9118 37.7045H16.479C15.5179 37.6611 14.5485 37.5321 13.579 37.3103C12.7845 37.1277 12.016 36.8877 11.282 36.5946ZM28.4679 17.8399L20.5321 17.8493L21.2981 17.4436C22.2552 17.0032 23.3102 16.7552 24.4005 16.7393C24.4702 16.7393 24.541 16.7393 24.6127 16.7393C25.1453 16.7475 25.6868 16.8106 26.2263 16.9353C26.7451 17.0533 27.2458 17.2243 27.7191 17.4436M24.4005 16.7393H24.6127C24.541 16.7393 24.4702 16.7393 24.4005 16.7393ZM30.4259 19.5041H18.6095C18.8502 19.1738 18.9657 19.1059 18.9657 19.1059C19.2103 18.8485 19.4713 18.6127 19.7484 18.395H29.2703C29.5503 18.6139 29.8141 18.8506 30.0603 19.1059M1.8667 21.1639L1.69079 21.1584C1.72076 20.7899 1.76694 20.4197 1.82593 20.049H1.8721C1.85147 20.2891 1.84704 20.5267 1.85147 20.7658M31.4956 21.1639L17.5826 21.1584C17.6976 20.9046 17.7653 20.7659 17.7653 20.7659C17.897 20.5182 18.041 20.2783 18.1987 20.049H30.8524C31.0156 20.2805 31.1708 20.5182 31.3094 20.7659M2.17478 22.8253L1.64066 22.8142C1.63776 22.6917 1.63672 22.5715 1.63672 22.4489V22.413C1.63672 22.1785 1.64309 21.9413 1.65541 21.7034H1.93552C1.97235 21.9466 2.02102 22.1894 2.08 22.4277M32.1088 22.8253L17.0327 22.8142C17.1059 22.6355 17.125 22.4277 17.125 22.4277C17.1859 22.1805 17.2621 21.9401 17.3476 21.7034H31.7648C31.8586 21.9401 31.9442 22.1819 32.015 22.4277M4.18289 26.1474L4.15831 26.1226H2.09613C2.00323 25.757 1.92465 25.3862 1.86123 25.0113H3.26946C3.44731 25.2685 3.64192 25.5138 3.8483 25.751M15.4796 25.751C15.6785 25.5165 15.8672 25.2704 16.0378 25.0113H32.3029C32.2774 25.3819 32.2233 25.7527 32.1368 26.1226H15.1616L15.1385 26.1474M6.54186 27.7777H2.61696C2.47843 27.4124 2.35554 27.042 2.24456 26.667H4.80306C5.14104 26.9427 5.5027 27.1939 5.8879 27.4111M13.4557 27.4111C13.8365 27.1946 14.202 26.9454 14.5406 26.667H31.9997C31.898 27.0441 31.7826 27.4137 31.6528 27.7777H12.7899L12.7172 27.8096M2.83566 28.3218H8.49652C9.29053 28.4451 10.0787 28.4398 10.8412 28.3218H31.4465C31.2927 28.7016 31.1272 29.0715 30.9468 29.4319H3.35745C3.1688 29.07 2.99482 28.6982 2.83566 28.3218ZM3.65521 29.9754H30.6554C30.4436 30.3578 30.2152 30.7284 29.9715 31.086H4.35686C4.10971 30.7265 3.8744 30.3567 3.65521 29.9754ZM4.75439 31.6312H29.5843C29.2949 32.0167 28.9888 32.3866 28.6664 32.741H5.68201C5.35628 32.3854 5.04626 32.0136 4.75439 31.6312ZM6.21121 33.286H28.1421C27.7407 33.6789 27.322 34.0495 26.8828 34.3946H7.4701C7.02931 34.0484 6.60825 33.6764 6.21121 33.286ZM8.20513 34.9398H26.1488C25.5547 35.3528 24.9282 35.7239 24.2797 36.0497H10.0722C9.41826 35.7212 8.79573 35.3494 8.20513 34.9398Z" fill="#270089"/>
<path d="M31.4974 21.1639H32.4541C32.4378 21.0306 32.4226 20.8986 32.4064 20.7659H31.3121H31.2969L31.4831 21.1639H31.4974Z" fill="#CF3339"/>
<path d="M1.86587 21.1639L17.5753 21.1584H17.5675C17.6839 20.9046 17.7523 20.7659 17.7523 20.7659H1.85459H1.83984L1.85064 21.1639H1.86587Z" fill="#CF3339"/>
<path d="M32.1402 26.1226C32.2021 26.0019 32.212 25.751 32.212 25.751H32.1967C32.1737 25.8748 32.1535 25.9988 32.125 26.1226H32.1402Z" fill="#CF3339"/>
<path d="M3.85117 25.751H3.83594L4.14845 26.1226H4.15973L4.18382 26.1474H15.1266L15.4662 25.751H3.85117Z" fill="#CF3339"/>
<path d="M18.9534 19.1059H2.01756C1.98758 19.2378 1.96356 19.3688 1.94141 19.5017L18.5977 19.5042C18.8355 19.1737 18.9534 19.1059 18.9534 19.1059Z" fill="#CF3339"/>
<path d="M5.88822 27.4111H5.875L6.52895 27.7777H6.44048L6.51227 27.8096H12.6099L12.6832 27.7777H12.7632L13.4442 27.4111H5.88822Z" fill="#CF3339"/>
<path d="M30.4251 19.5041L32.1817 19.5017C32.1517 19.3688 32.1208 19.2378 32.0879 19.1058H30.0621H30.0488L30.4119 19.5041L30.4251 19.5041Z" fill="#CF3339"/>
<path d="M24.1179 9.13731H9.87465C9.6275 9.26277 9.3784 9.39521 9.13672 9.53367H24.8535C24.6127 9.39595 24.366 9.26277 24.1179 9.13731Z" fill="#CF3339"/>
<path d="M17.6906 7.47607H16.2627C15.2785 7.51963 14.3091 7.65424 13.3672 7.87284L20.594 7.87094C19.6231 7.64888 18.6512 7.51841 17.6906 7.47607Z" fill="#CF3339"/>
<path d="M29.8347 14.1207H4.17445C4.08556 14.2527 3.99999 14.3847 3.91602 14.5181H30.1015C30.0145 14.3847 29.9261 14.2527 29.8347 14.1207Z" fill="#CF3339"/>
<path d="M28.5093 12.4602H5.48168C5.36323 12.59 5.24775 12.7232 5.13477 12.857H28.8615C28.7476 12.7236 28.6292 12.5905 28.5093 12.4602Z" fill="#CF3339"/>
<path d="M30.832 15.7825H3.20238C3.13855 15.9133 3.0732 16.0457 3.01172 16.1801H31.0315C30.9676 16.0457 30.9008 15.9133 30.832 15.7825Z" fill="#CF3339"/>
<path d="M21.2847 17.4436H2.4994C2.45226 17.5746 2.4085 17.708 2.36523 17.84L20.5197 17.8493L21.2847 17.4436Z" fill="#CF3339"/>
<path d="M28.4721 17.8399H31.7155C31.6693 17.708 31.6217 17.5746 31.5725 17.4436H27.7198H27.7051L28.4553 17.8399" fill="#CF3339"/>
<path d="M26.7212 10.7977H7.2672C7.10409 10.9282 6.9434 11.0601 6.7832 11.1959H27.2032C27.046 11.0601 26.8839 10.9282 26.7212 10.7977Z" fill="#CF3339"/>
<path d="M15.125 26.1474H15.1397L15.1643 26.1226H15.1505L15.125 26.1474Z" fill="#CF3339"/>
<path d="M32.3229 24.4856H32.4388C32.4526 24.3544 32.4658 24.2211 32.4781 24.0885H32.3086C32.3166 24.2212 32.3229 24.3544 32.3229 24.4856Z" fill="#CF3339"/>
<path d="M32.3087 24.4678H32.321C32.3195 24.3424 32.3141 24.2145 32.3077 24.0886H32.291C32.3018 24.2145 32.3062 24.3423 32.3087 24.4678Z" fill="#CF3339"/>
<path d="M16.5459 24.0885H2.78418H2.70117L2.8883 24.4849L2.90263 24.4856L16.3813 24.4678H16.3666L16.5459 24.0885Z" fill="#CF3339"/>
<path d="M32.3077 24.4678H32.3087C32.3062 24.3424 32.3018 24.2145 32.291 24.0886C32.3008 24.2145 32.3062 24.3423 32.3077 24.4678Z" fill="#CF3339"/>
<path d="M17.1096 22.4277C17.1096 22.425 17.112 22.4229 17.112 22.421L2.06445 22.413C2.06445 22.4184 2.06695 22.4229 2.06888 22.4277L2.16228 22.8253H2.17598L17.0265 22.8142H17.0202C17.0919 22.6355 17.1096 22.4277 17.1096 22.4277Z" fill="#CF3339"/>
<path d="M32.5336 22.4277H32.0186H32.002L32.0973 22.8253H32.1095H32.5361V22.6861C32.536 22.6003 32.535 22.5142 32.5336 22.4277Z" fill="#CF3339"/>
<path fill-rule="evenodd" clip-rule="evenodd" d="M22.0454 5.73842C22.4194 5.9222 22.6803 6.20198 22.7034 6.24987C22.7103 6.26193 22.7058 6.27541 22.7023 6.28578C22.698 6.29512 22.691 6.30867 22.6802 6.31924C22.6645 6.34112 22.6409 6.36713 22.6149 6.39003C22.577 6.42709 22.5363 6.46177 22.5196 6.47383V6.72576C22.6449 6.84756 22.6557 6.97695 22.6355 7.07761C22.6178 7.16209 22.5771 7.22549 22.5662 7.24277V7.4951C22.6709 7.67042 22.6178 7.78362 22.5338 7.85028C22.4916 7.88354 22.4424 7.90494 22.4056 7.91815C22.3688 7.93069 22.3393 7.93671 22.3393 7.93671C21.7761 7.85366 21.4514 8.04077 21.2651 8.24521C21.1713 8.34879 21.1113 8.45643 21.0775 8.53921C21.042 8.62037 21.0327 8.67503 21.0327 8.67503L20.9905 10.0301C21.1836 10.2874 21.3359 10.6526 21.4406 10.9523C21.5388 11.2367 21.593 11.4638 21.5997 11.4919C22.6193 13.1509 22.8149 13.985 22.7565 14.4526C22.7279 14.6867 22.637 14.8286 22.5569 14.9326L22.4985 15.0031C22.4818 15.0258 22.4641 15.0462 22.4533 15.0669C22.4277 15.1057 22.414 15.1401 22.4209 15.1803C22.4455 15.3643 22.4086 15.5441 22.358 15.7558C22.3079 15.9651 22.2425 16.2076 22.2116 16.5221C22.1791 16.8431 21.3836 18.0651 20.6029 19.1989C19.8703 20.2617 19.1455 21.2543 19.0546 21.3803C19.9233 22.0938 20.628 22.9007 21.2397 23.6388C21.5468 24.0109 21.8293 24.3653 22.0971 24.6815C22.3654 24.9981 22.6179 25.2753 22.8651 25.4959C24.0453 26.5523 24.2816 27.2875 24.3244 27.489C24.3632 27.6817 24.8895 28.6779 24.8895 28.6798C25.1494 29.0063 25.341 29.3781 25.4983 29.7643C25.6565 30.152 25.7773 30.5532 25.8957 30.9363C26.1297 31.7018 26.3459 32.3855 26.7831 32.7372C27.6223 33.4086 27.6125 34.0711 27.61 34.1455C28.1781 34.8958 28.3402 35.6926 28.3643 36.3247C28.3756 36.6402 28.3524 36.9183 28.3313 37.1257C28.3191 37.2302 28.3082 37.3164 28.3018 37.3836C28.295 37.4527 28.2935 37.4956 28.2989 37.5148C28.3082 37.5634 28.325 37.6133 28.3313 37.6621C28.3373 37.7117 28.3329 37.7626 28.3034 37.8093C28.2458 37.9005 28.0965 37.962 27.7663 37.9778C27.4396 37.9944 27.3177 37.9605 27.2617 37.8925C27.2479 37.8767 27.2411 37.8578 27.2322 37.8398C27.2263 37.8218 27.2224 37.8032 27.2155 37.7832C27.2057 37.7474 27.191 37.71 27.158 37.6724C27.0823 37.5901 27.0194 37.3873 26.9723 37.1622C26.9207 36.937 26.8809 36.6798 26.85 36.4834C26.8176 36.2869 26.8422 36.0336 26.8176 35.7616C26.7925 35.4926 26.7223 35.2054 26.4991 34.9338C26.3847 34.7925 26.3335 34.6551 26.3105 34.5186C26.2884 34.3833 26.2928 34.2496 26.2884 34.1122C26.283 33.843 26.2491 33.5699 25.9066 33.2675C25.7341 33.1122 25.5533 32.907 25.371 32.677C25.1887 32.448 25.0025 32.1916 24.8134 31.9358C24.4384 31.4258 24.0587 30.9209 23.692 30.6238C22.9472 30.0215 22.641 28.961 22.5447 28.3932C22.4494 27.8364 21.0938 26.7851 20.288 26.2327C19.4831 25.681 18.1806 24.5611 17.6818 23.9615C17.1978 23.3785 16.8756 23.7428 16.7478 23.9282C16.6839 24.0233 16.25 24.6651 15.8127 25.3066C15.3759 25.9476 14.9327 26.5903 14.8526 26.6856C14.69 26.8757 13.8714 27.6631 13.726 27.7884C13.6538 27.8539 13.2749 28.1281 12.9158 28.3913C12.5502 28.6586 12.2102 28.9057 12.2048 28.9182C12.1959 28.9317 12.1517 29.061 12.0874 29.1888C12.0274 29.3162 11.9434 29.4581 11.8554 29.478C11.7591 29.4992 11.5154 30.0257 11.4825 30.1882C11.4668 30.272 11.3248 30.4574 11.1808 30.632C11.0324 30.8111 10.8782 30.9823 10.8206 31.0469C10.7091 31.1697 9.92342 32.5446 9.86796 32.7173C9.83896 32.8025 9.79569 32.9449 9.75346 33.0703C9.71026 33.1903 9.66256 33.3061 9.6287 33.3316C9.58204 33.3634 9.52403 33.8024 9.53192 33.9326C9.53635 34.0005 9.5088 34.1164 9.48325 34.2143C9.46262 34.283 9.44344 34.3449 9.43361 34.3754C9.552 34.4041 9.62718 34.4467 9.68416 34.4958C9.71413 34.5214 9.73726 34.5478 9.75886 34.576C9.77949 34.602 9.79818 34.6278 9.81881 34.6534C9.89642 34.7485 9.99964 34.825 10.3544 34.7945C10.713 34.7639 10.8551 34.82 10.8938 34.9145C10.913 34.9592 10.9051 35.0105 10.8953 35.0531L10.8816 35.1123C10.8782 35.1316 10.8737 35.147 10.8737 35.1583C10.8737 35.2888 10.576 35.3975 10.3731 35.3975C10.1681 35.3975 9.49647 35.5694 8.3084 35.979C7.06038 36.4074 7.6073 35.1417 7.62842 35.1171C7.6613 35.0795 7.78121 34.9537 7.88686 34.819C7.99742 34.6772 8.08043 34.5392 8.0598 34.4708C8.03376 34.3855 8.10154 34.1228 8.16987 33.8897C8.24007 33.6526 8.31526 33.4387 8.31526 33.4387C8.31526 33.4387 8.814 31.2982 8.99088 30.4166C9.16873 29.5297 10.5529 27.7309 11.1184 27.4138C11.3945 27.26 11.7139 26.8342 11.9911 26.4C12.2687 25.9635 12.5025 25.5237 12.6058 25.3431C12.6569 25.253 12.6922 25.1618 12.7311 25.0592C12.7698 24.9555 12.8107 24.8432 12.875 24.7095C12.9998 24.4456 13.2106 24.1052 13.6538 23.624C14.5093 22.6916 14.8365 21.2689 14.8527 21.195C14.7466 20.4115 14.9888 19.8292 15.4251 19.3117C15.6442 19.0517 15.912 18.8099 16.2113 18.5655C16.5116 18.3216 16.8432 18.0764 17.1886 17.8135C18.5615 16.7634 18.4882 15.3469 18.4499 15.2444C18.4474 15.2323 18.4307 15.2056 18.4091 15.1661L18.3221 15.0217C18.2504 14.9059 18.163 14.7551 18.076 14.5913C17.9021 14.2648 17.735 13.8764 17.7512 13.592C17.7596 13.4487 17.7242 13.4174 17.6844 13.4193C17.6343 13.423 17.5527 13.4766 17.4579 13.5648C17.3626 13.6527 17.2589 13.7673 17.1626 13.8846C17.0624 14.0009 16.9724 14.1155 16.9002 14.2018C16.6162 14.5526 15.9932 14.8685 15.7839 14.9398C15.5667 15.0137 14.329 15.5062 14.3088 15.5888C14.2971 15.6348 14.2558 15.8773 14.1993 16.121C14.1462 16.3637 14.074 16.6202 13.9988 16.6836C13.8691 16.7955 13.8037 17.712 13.8037 17.718C13.644 17.7262 13.6131 17.4818 13.6102 17.2738C13.6052 17.0751 13.6278 16.8786 13.6322 16.8454C13.5733 16.7168 13.4947 16.7232 13.3915 16.8194C13.2829 16.9181 13.163 17.1071 13.0445 17.3157C12.9291 17.5257 12.8176 17.7554 12.732 17.9293C12.6898 18.0174 12.6535 18.0933 12.6274 18.1452C12.6126 18.172 12.6004 18.1932 12.5925 18.2079L12.5714 18.2339C12.4751 18.2385 12.2289 17.1913 12.3144 16.6829C12.361 16.4185 12.4505 16.2933 12.6888 16.0901C12.9237 15.8853 13.3083 15.5991 13.9422 15.004C14.2601 14.7059 14.5824 14.4783 14.888 14.291C15.1951 14.1052 15.4865 13.958 15.743 13.8241C16.2569 13.5535 16.6284 13.3317 16.7222 12.9279C16.8116 12.5488 16.4476 12.5382 15.9522 12.6967C15.4712 12.8486 14.9204 13.1446 14.7302 13.3063C14.5337 13.4769 14.1785 13.5828 13.8777 13.6491C13.576 13.7126 13.3206 13.736 13.3206 13.736C13.3206 13.736 10.8805 13.722 10.2786 13.7601C9.69489 13.7995 9.52541 14.7235 9.52396 14.7302L9.44337 16.5897C9.14312 16.5235 8.92456 16.0486 9.05471 15.6655C9.11466 15.4895 9.01539 15.3999 8.87146 15.3782C8.72552 15.3548 8.54226 15.4049 8.46071 15.5075C8.37078 15.6197 8.22533 15.756 8.08922 15.8767L7.89759 16.0459C7.84206 16.0965 7.79589 16.1398 7.77138 16.1704C7.71973 16.2265 7.7252 16.369 7.74286 16.5391C7.75269 16.6216 7.76453 16.7074 7.77138 16.7852C7.77823 16.8649 7.78211 16.9388 7.77283 16.9952C7.76446 17.0525 7.74826 17.0992 7.72368 17.1305C7.69966 17.1632 7.66525 17.1785 7.62489 17.1604C7.5576 17.1305 7.48878 17.0034 7.43423 16.7455C7.38016 16.4962 7.26274 16.4902 7.12566 16.555C7.05193 16.589 6.97481 16.6417 6.89568 16.6956C6.85636 16.7228 6.81856 16.7493 6.78173 16.7741C6.74192 16.7974 6.70557 16.8194 6.6702 16.8355C6.52329 16.9034 6.46624 16.8465 6.53997 16.7288C6.6009 16.6269 6.75715 16.4743 6.99246 16.3329C7.4489 16.0553 7.64254 15.3211 7.64254 15.0413C7.64254 14.7499 7.88679 14.4609 7.98599 14.3969C8.03363 14.3649 8.29601 14.1963 8.56234 14.0107C8.83061 13.8267 9.10089 13.6268 9.17067 13.5355C9.24738 13.4349 9.48657 13.3349 9.75339 13.2276C9.88659 13.1751 10.0305 13.1163 10.1681 13.0577C10.3042 12.9985 10.4305 12.9366 10.539 12.8692C10.9591 12.6108 11.3468 12.6421 11.3847 12.646L12.3462 12.4728C12.3418 12.4747 12.8282 12.2896 13.4459 12.0852C14.063 11.8798 14.8108 11.6546 15.3341 11.5773C16.3739 11.4189 17.0849 10.5259 17.0849 10.4282C17.0849 10.317 17.1978 9.63643 17.3772 9.31811C17.5502 9.00771 17.6057 7.78639 17.6543 6.61771C17.7034 5.44794 18.3721 4.66505 18.6321 4.45701C18.894 4.24803 20.9051 3.79023 21.6883 4.46853C22.4288 5.11221 22.0475 5.47341 21.9732 5.53167L22.0454 5.73842Z" fill="black"/>
<path d="M42.0215 27.4306H43.6967V31.2259L45.449 27.4306H47.6756L45.6992 31.2211L47.7654 37.4742H45.7037L44.562 33.3426L43.6967 35.023V37.4741H42.0215V27.4306Z" fill="#811C21"/>
<path d="M48.3613 32.4593C48.3613 30.8189 48.6095 29.5427 49.1009 28.6303C49.5932 27.7157 50.2811 27.2594 51.1608 27.2594C52.061 27.2594 52.7564 27.7081 53.2454 28.6046C53.7311 29.5024 53.976 30.7599 53.976 32.3776C53.976 33.5497 53.8686 34.5121 53.6573 35.2657C53.4453 36.0161 53.1352 36.6015 52.7334 37.0168C52.329 37.4353 51.8274 37.6454 51.2282 37.6454C50.6156 37.6454 50.1095 37.4651 49.7096 37.1049C49.3093 36.7432 48.9836 36.1724 48.7353 35.3924C48.4896 34.61 48.3613 33.6333 48.3613 32.4593ZM50.0357 32.4724C50.0357 33.4873 50.1388 34.2156 50.3426 34.658C50.5453 35.1006 50.8219 35.3233 51.1722 35.3233C51.5311 35.3233 51.809 35.1055 52.007 34.6715C52.2043 34.2387 52.3018 33.4586 52.3018 32.3359C52.3018 31.3909 52.2001 30.6987 51.9932 30.2626C51.7879 29.8282 51.5081 29.6085 51.1562 29.6085C50.8195 29.6085 50.5484 29.8306 50.3442 30.2732C50.1388 30.7162 50.0357 31.4502 50.0357 32.4724Z" fill="#811C21"/>
<path d="M55.4102 37.4742V27.4306H58.2027C58.7213 27.4306 59.1167 27.512 59.39 27.677C59.6618 27.8418 59.8827 28.1453 60.0509 28.5914C60.219 29.037 60.3018 29.579 60.3018 30.218C60.3018 30.776 60.2362 31.2563 60.1106 31.6604C59.9808 32.0645 59.8057 32.3916 59.5823 32.6427C59.4377 32.8038 59.2434 32.936 58.9933 33.0418C59.1926 33.1629 59.3371 33.288 59.43 33.4123C59.4893 33.4932 59.5804 33.6697 59.6975 33.9393C59.8141 34.2101 59.8917 34.4168 59.9311 34.5632L60.7411 37.4741H58.85L57.9548 34.4042C57.8427 34.0078 57.7415 33.7498 57.6517 33.6297C57.5339 33.4748 57.3945 33.3968 57.2417 33.3968H57.0952V37.4741L55.4102 37.4742ZM57.0952 31.5003H57.802C57.8764 31.5003 58.0255 31.4534 58.242 31.3621C58.3552 31.3211 58.4457 31.2162 58.5163 31.0471C58.5858 30.8787 58.6201 30.6838 58.6201 30.4657C58.6201 30.1403 58.5666 29.8931 58.4545 29.7184C58.3445 29.5455 58.134 29.4572 57.8299 29.4572H57.0952V31.5003Z" fill="#811C21"/>
<path d="M61.7852 27.4306H66.2728V29.3995H63.4648V31.1708H66.0703V33.2181H63.4648V35.5073H66.3549V37.4742H61.7852L61.7852 27.4306Z" fill="#811C21"/>
<path d="M70.844 35.8159H68.9427L68.6798 37.4742H66.9707L69.0051 27.4306H70.8325L72.8688 37.4742H71.1147L70.844 35.8159ZM70.4962 33.6441L69.8997 30.0336L69.3074 33.6441H70.4962Z" fill="#811C21"/>
<path d="M73.9238 27.4306H75.4869L77.528 32.9881V27.4306H79.1069V37.4742H77.528L75.4993 31.9589V37.4742H73.9238V27.4306Z" fill="#811C21"/>
<path d="M82.7598 27.4309H84.3239L86.363 32.9873V27.4309H87.9421V37.4739H86.363L84.3354 31.9592V37.4739H82.7598V27.4309Z" fill="#811C21"/>
<path d="M92.825 35.816H90.9236L90.6608 37.4739H88.9512L90.9861 27.4309H92.8129L94.8485 37.4739H93.0956L92.825 35.816ZM92.478 33.6447L91.8789 30.0343L91.2867 33.6447H92.478Z" fill="#811C21"/>
<path d="M94.9902 27.4309H100.079V29.4385H98.372V37.4738H96.698V29.4386H94.9902V27.4309Z" fill="#811C21"/>
<path d="M101.674 27.4309H103.352V37.4739H101.674V27.4309Z" fill="#811C21"/>
<path d="M104.855 32.4597C104.855 30.8198 105.101 29.5435 105.595 28.6311C106.086 27.7161 106.775 27.2585 107.653 27.2585C108.555 27.2585 109.249 27.7092 109.738 28.6069C110.225 29.5034 110.47 30.7604 110.47 32.3769C110.47 33.5523 110.364 34.5128 110.15 35.2658C109.937 36.0172 109.629 36.6014 109.226 37.0193C108.823 37.4378 108.321 37.6462 107.722 37.6462C107.109 37.6462 106.603 37.4633 106.204 37.1051C105.802 36.7434 105.478 36.1727 105.23 35.3917C104.98 34.61 104.855 33.6341 104.855 32.4597ZM106.531 32.4735C106.531 33.4875 106.631 34.2162 106.836 34.658C107.038 35.1004 107.315 35.3226 107.666 35.3226C108.024 35.3226 108.303 35.108 108.502 34.6717C108.696 34.2379 108.795 33.4594 108.795 32.337C108.795 31.3909 108.692 30.7006 108.488 30.2638C108.281 29.8281 108.003 29.6093 107.65 29.6093C107.313 29.6093 107.041 29.8321 106.838 30.2731C106.631 30.7164 106.531 31.45 106.531 32.4735Z" fill="#811C21"/>
<path d="M111.895 27.4309H113.458L115.498 32.9873V27.4309H117.076V37.4739H115.498L113.469 31.9592V37.4739H111.895L111.895 27.4309Z" fill="#811C21"/>
<path d="M121.959 35.816H120.056L119.793 37.4739H118.084L120.119 27.4309H121.945L123.982 37.4739H122.228L121.959 35.816ZM121.61 33.6447L121.012 30.0343L120.418 33.6447H121.61Z" fill="#811C21"/>
<path d="M125.029 27.4309H126.7V35.4824H129.314V37.4738H125.029V27.4309Z" fill="#811C21"/>
<path d="M132.248 27.4305H135.382C135.906 27.4305 136.303 27.6709 136.586 28.1489C136.864 28.6301 137.004 29.2233 137.004 29.9294C137.004 30.5256 136.906 31.0338 136.705 31.4585C136.572 31.741 136.377 31.9652 136.121 32.1305C136.51 32.3036 136.797 32.6007 136.981 33.0238C137.165 33.4463 137.255 33.977 137.255 34.6161C137.255 35.1387 137.191 35.6063 137.059 36.0205C136.929 36.4364 136.75 36.7667 136.524 37.0076C136.383 37.1578 136.173 37.2699 135.888 37.3389C135.511 37.4271 135.262 37.4743 135.138 37.4743H132.248L132.248 27.4305ZM133.937 31.3685H134.667C134.926 31.3685 135.109 31.2855 135.21 31.1202C135.314 30.9535 135.362 30.713 135.362 30.3972C135.362 30.1053 135.314 29.877 135.21 29.7111C135.109 29.5471 134.931 29.4648 134.676 29.4648H133.937V31.3685ZM133.937 35.3167H134.79C135.079 35.3167 135.281 35.2207 135.4 35.0296C135.518 34.843 135.579 34.587 135.579 34.268C135.579 33.9716 135.52 33.7313 135.402 33.5514C135.285 33.37 135.081 33.282 134.787 33.282H133.937V35.3167Z" fill="#811C21"/>
<path d="M141.684 35.8154H139.783L139.519 37.4743H137.809L139.845 27.4305H141.673L143.706 37.4743H141.955L141.684 35.8154ZM141.337 33.6441L140.736 30.0332L140.145 33.6441H141.337Z" fill="#811C21"/>
<path d="M145.008 27.4305H146.683V35.4847H149.295V37.4742H145.008V27.4305Z" fill="#811C21"/>
<path d="M150.406 27.4305H152.08V35.4847H154.693V37.4742H150.406V27.4305Z" fill="#811C21"/>
<path d="M155.801 27.4305H160.288V29.4216H157.479V31.17H160.084V33.2194H157.479V35.505H160.369V37.4743H155.801V27.4305Z" fill="#811C21"/>
<path d="M161.4 27.4305H166.492V29.3846H164.783V37.4743H163.109V29.3846H161.4V27.4305Z" fill="#811C21"/>
<path d="M47.8895 14.9354V17.2461H52.5526V23.6606H50.0799V19.8415H41.1224V17.2461H45.2698V14.9354H39.5469V12.3424H49.6488C49.865 11.2959 50.0799 9.80774 50.1613 8.86525H41.0393V6.27032H52.9155C52.8489 8.24012 52.5526 10.5744 52.0536 12.3424H54.2918V14.9354H47.8895Z" fill="#811C21"/>
<path d="M72.2369 15.4777H69.1348V9.8891H74.3605V8.9437H69.1348V6.51163H76.8321V12.1604H71.606V13.0657H73.3162C74.6907 13.0657 77.0792 12.8235 78.2579 12.6222V14.9767C77.0126 15.1949 74.4092 15.4777 72.2369 15.4777ZM70.6281 23.4603V16.2617H73.0995V17.6483H79.1702V16.2617H81.6416V23.4603H70.6281ZM79.1701 19.9615H73.0995V21.0465H79.1701V19.9615ZM79.1701 15.7185V5.78679H81.6416V15.7184L79.1701 15.7185Z" fill="#811C21"/>
<path d="M97.2168 14.7331V6.38976H99.6691V8.3408H102.557V6.38976H105.012V14.7331L97.2168 14.7331ZM98.8888 23.4603V18.533H106.802V17.8486H98.8888V15.6573H109.555V20.5635H101.643V21.2685H109.887V23.4603L98.8888 23.4603ZM102.557 10.7743H99.6691V12.2408H102.557V10.7743ZM109.572 11.8204V15.0967H107.1V5.78679H109.572V9.12572H111.463V11.8203L109.572 11.8204Z" fill="#811C21"/>
<path d="M130.187 20.0414C128.68 20.2008 125.941 20.2008 125.793 20.2008V12.4021H128.629V10.1901H125.793V7.59672H131.049V14.9952H128.214V17.6088C128.481 17.6088 129.324 17.5886 130.255 17.5269C131.118 17.4485 131.831 17.3474 132.211 17.186V19.7207C131.863 19.8415 131.118 19.9402 130.187 20.0414ZM133.372 22.8559V14.9354H131.595V12.0602H133.372V6.18945H135.762V22.8559H133.372ZM136.524 23.6606V5.78679H138.912V23.6606H136.524Z" fill="#811C21"/>
<path d="M156.956 15.6371H154.252V6.6908H162.032V9.32759H156.725V13.0041H158.15C159.279 13.0041 162.165 12.6222 163.194 12.381V14.9147C162.065 15.1766 159.145 15.6371 156.956 15.6371ZM155.827 23.258V17.0853H158.3V20.6626H166.924V23.258L155.827 23.258ZM166.512 13.5484V18.7357H164.039V5.78679H166.512V10.9539H168.483V13.5484H166.512Z" fill="#811C21"/>
</svg>
