<svg width="180" height="34" viewBox="0 0 180 34" fill="none" xmlns="http://www.w3.org/2000/svg">
<path d="M24.9152 15.4206C24.6745 14.8065 24.1821 14.3348 23.5693 14.1265C23.2028 14.0058 22.4368 13.7481 17.2174 14.461C11.4563 15.2506 11.2593 15.64 10.8326 16.4955C10.3566 17.4497 10.745 18.6123 11.697 19.0948C12.2113 19.3526 12.7803 19.3581 13.2727 19.1606C13.694 18.9906 13.4423 19.0619 13.4204 19.0674C14.2411 18.7658 18.1256 18.201 20.604 17.9597C20.6915 17.9487 20.5876 18.0639 20.5493 18.1845C20.3687 18.7165 20.1882 19.4403 20.0076 19.6652C19.8927 19.8077 19.7833 19.9777 19.4551 20.1039C17.4636 20.8716 13.8526 22.1384 12.0581 22.2042C9.99548 22.281 8.31585 21.2445 7.45141 19.3526C7.19426 18.7877 7.04654 17.9268 7.90551 15.8484C8.66053 14.0277 11.4508 11.6148 12.6435 10.5784C12.8624 10.3865 13.0538 10.2219 13.2016 10.0903C15.3079 8.1929 16.8508 7.35936 17.6551 7.18387C17.9341 7.5129 18.328 8.30807 18.525 8.9771C18.8259 10.0026 19.8982 10.5894 20.9213 10.2877C21.9444 9.98613 22.5298 8.91129 22.2289 7.88581C21.9006 6.7671 20.6095 3.12032 17.7043 3.27387C15.7839 3.37258 13.3985 4.69968 10.6192 7.21129C10.4988 7.32097 10.3237 7.46903 10.1213 7.64452C8.48545 9.05936 5.44898 11.6916 4.34381 14.3513C3.21676 17.0603 3.09639 19.1003 3.94442 20.9539C5.46539 24.2881 8.5511 26.1965 12.2003 26.0594C14.1098 25.9881 16.9876 25.0942 19.094 24.3484V28.7465C19.094 29.8158 19.9584 30.6823 21.0253 30.6823C22.0921 30.6823 22.9566 29.8158 22.9566 28.7465V22.0397C25.5827 17.1535 25.1396 15.9855 24.9152 15.4206Z" fill="#00853D"/>
<path d="M35.9117 17.3784L35.8132 17.2906C36.5299 16.8903 37.1646 16.479 37.5366 16.1445C39.3749 14.5048 39.6813 11.1158 39.5719 9.37193C39.4023 6.61903 36.5901 3.81677 34.0023 3.81677C32.4977 3.81677 29.505 4.59548 28.9196 4.75451C27.716 5.07806 27.0047 6.31193 27.3275 7.51839C27.5737 8.45064 28.367 9.08129 29.2643 9.17451C29.1275 10.0081 28.9907 10.6935 28.8868 10.9458C28.657 11.5216 28.4436 12.5087 28.181 13.9565C28.0771 13.9455 27.9786 13.94 27.8746 13.929C26.6381 13.8194 25.5439 14.7406 25.4345 15.98C25.3305 17.17 26.1676 18.2174 27.3275 18.3984C27.0868 19.9668 27.1032 23.3339 27.1415 25.3519C27.1634 26.4213 28.0388 27.2713 29.1056 27.2494C30.1725 27.2329 31.0205 26.35 30.9986 25.2806C30.9603 23.3284 30.9822 21.0361 31.0588 19.7803L33.1324 20.9374L37.9907 25.1874C38.9263 26.01 40.3488 25.9113 41.164 24.9681C41.9792 24.0303 41.8862 22.6045 40.9451 21.7819L35.9117 17.3784ZM35.0801 9.65161C35.1676 11.061 34.7737 12.4648 34.522 12.7884C34.0953 13.1558 32.8643 13.77 32.0819 14.0881C32.2296 13.3148 32.3774 12.6239 32.4704 12.3826C32.8096 11.5326 33.0995 9.73935 33.2801 8.40677C33.5482 8.3629 33.767 8.34097 33.9257 8.33548C34.336 8.47258 35.0527 9.22387 35.0801 9.65161Z" fill="#00853D"/>
<path d="M55.816 9.87097C57.2002 9.54194 58.0591 8.15452 57.7309 6.7671C57.4026 5.37968 56.0184 4.51871 54.6397 4.84774L44.9941 7.43065C43.6099 7.7542 42.7509 9.1471 43.0792 10.5345C43.1941 11.0281 43.4457 11.4448 43.7795 11.7794C43.7138 13.0516 43.6263 14.1923 43.5333 14.7132C43.3309 15.0532 43.2269 15.4536 43.2324 15.8758C43.1995 15.9965 43.1667 16.1171 43.1284 16.2377C42.3023 19.1387 42.0506 20.2465 42.171 21.1239C42.4227 22.9061 44.923 25.2806 46.5315 25.681C47.5108 25.9277 50.8318 26.2458 52.2324 25.8948C53.4415 25.5932 54.1746 24.3648 53.8682 23.1584C53.5673 21.9465 52.3473 21.2116 51.1382 21.5187C51.16 21.5132 51.1764 21.5077 51.1764 21.5077C50.6184 21.6065 48.4518 21.4639 47.7296 21.3213C47.4506 21.1623 46.9692 20.7071 46.6901 20.3616C46.805 19.7748 47.084 18.7713 47.2974 18.009L54.284 17.5758C55.526 17.499 56.467 16.4297 56.3904 15.1848C56.3138 13.94 55.247 12.9913 54.005 13.0681L48.1783 13.43C48.2166 12.92 48.2439 12.3936 48.2713 11.8945L55.816 9.87097Z" fill="#00853D"/>
<path d="M74.1283 6.77258C73.8 5.38516 72.4158 4.52419 71.0371 4.85322L60.1058 7.43613C58.7216 7.75967 57.8626 9.15258 58.1909 10.54C58.3058 11.0335 58.5575 11.4503 58.8967 11.7848C58.831 13.0571 58.7435 14.1977 58.6505 14.7187C58.448 15.0587 58.3441 15.4645 58.3496 15.8868C58.3167 16.0019 58.2839 16.1226 58.2456 16.2487C57.4195 19.1497 57.1678 20.2574 57.2882 21.1348C57.5398 22.9171 60.0401 25.2916 61.6487 25.6919C62.628 25.9387 65.949 26.2568 67.3496 25.9058C68.5587 25.6042 69.2918 24.3758 68.9854 23.1694C68.6845 21.9574 67.4645 21.2226 66.2553 21.5297C66.2772 21.5242 66.2936 21.5187 66.2936 21.5187C65.7356 21.6174 63.5526 21.4748 62.8414 21.3323C62.4529 21.1239 62.1137 20.7729 61.9167 20.5864C61.7964 20.4658 61.8073 20.3506 61.8784 20.0545C62.0043 19.5061 62.2067 18.7768 62.3763 18.1626C62.3927 18.1132 62.4037 18.0694 62.4146 18.02L62.5186 18.0145L69.4012 17.5868C70.6432 17.51 71.5842 16.4406 71.5076 15.1958C71.431 13.951 70.3642 13.0023 69.1222 13.079L63.2955 13.441C63.3338 12.9529 63.3611 12.4539 63.383 11.9713L72.2079 9.88742C73.5976 9.54742 74.4566 8.16 74.1283 6.77258Z" fill="#00853D"/>
<path d="M79.4785 4.84225C79.4895 4.86414 79.5059 4.90244 79.5278 4.96809C79.5278 4.97356 79.5332 4.97356 79.5332 4.97903L79.4785 4.84225Z" fill="#00853D"/>
<path d="M86.8973 4.34871C85.8304 4.32129 84.9441 5.16032 84.9168 6.22968L84.594 15.4426C84.5776 15.821 84.5502 16.3145 84.5228 16.8629C84.3204 16.4461 84.1508 16.1061 84.0359 15.8923C83.8773 15.6016 83.6365 15.2671 83.1824 14.6419C82.5314 13.7426 81.552 12.3881 80.9502 11.209C80.5782 10.4742 80.2499 9.59678 79.9928 8.81258C79.9873 6.52032 79.6535 5.33581 79.5168 4.9629C79.09 3.80032 77.8043 3.1971 76.639 3.62484C75.4681 4.05258 74.8663 5.34678 75.2931 6.52032L75.2712 6.46549C75.2766 6.47645 75.5611 7.4471 75.4791 9.64065C75.3751 12.3387 75.0578 16.0842 74.6803 17.7019C74.2317 19.6268 73.7994 23.0652 73.783 23.2077C73.6298 24.4471 74.5052 25.5713 75.7362 25.7303C76.9672 25.8839 78.0943 25.0065 78.2475 23.7726C78.2529 23.7397 78.6687 20.4274 79.0627 18.7439C79.2213 18.0639 79.3636 17.1481 79.4894 16.1335C79.6918 16.4187 79.8888 16.6929 80.0584 16.9287C80.2882 17.2523 80.5782 17.6471 80.6493 17.7677C81.1417 18.6781 83.0894 22.9445 83.7952 24.5074C83.8663 24.661 83.9593 24.7981 84.0633 24.9242C84.0797 25.9223 84.8511 26.7558 85.8633 26.8216C86.9247 26.8874 87.8438 26.0758 87.9095 25.0119C87.9259 24.7268 88.3417 18.0858 88.4456 15.6235L88.7684 6.34484C88.8013 5.27 87.9642 4.38161 86.8973 4.34871Z" fill="#00853D"/>
<path d="M106.118 14.4555C108.394 13.0845 108.509 9.5913 108.372 8.47807C108.088 6.19678 104.958 4.53517 102.901 4.26097C101.309 4.0471 98.311 3.76743 96.1609 4.31033C94.3499 4.76549 90.832 6.04323 90.6843 6.09807C89.5135 6.52581 88.9116 7.82001 89.3384 8.99355C89.7651 10.1671 91.0563 10.7703 92.2217 10.3426C92.7961 10.1342 94.0381 9.69001 95.2198 9.30614L94.9682 13.3642C94.5195 13.4629 94.2077 13.5342 94.1694 13.5452C92.9548 13.8248 92.1998 15.0313 92.4733 16.2487C92.7141 17.3016 93.6442 18.0036 94.6782 17.9981L94.6727 18.1187C94.5633 20.2903 94.5633 25.2094 94.5633 25.4177C94.5633 26.4871 95.4277 27.3536 96.4946 27.3536C97.5615 27.3536 98.4259 26.4871 98.4259 25.4177C98.4259 25.3684 98.4259 20.389 98.5299 18.3107L98.601 17.1919C99.2302 17.0603 99.7992 16.9507 100.16 16.8958C102.108 16.6052 105.21 15.0039 106.118 14.4555ZM98.891 12.5416L99.1426 8.51646C100.067 8.51097 101.161 8.58226 102.31 8.7413C102.847 8.81259 103.727 9.15259 103.859 9.41581C103.985 9.66807 103.831 10.359 103.651 10.6771C102.546 11.3132 100.363 12.3058 99.4764 12.4429C99.3068 12.4648 99.1043 12.5032 98.891 12.5416Z" fill="#00853D"/>
<path d="M117.508 21.0032C116.556 20.5261 115.396 20.9155 114.92 21.8697C114.937 21.8313 114.948 21.8148 114.948 21.8148C114.877 21.93 114.477 22.5168 113.427 22.5168C111.304 22.5168 110.325 22.3139 109.931 21.7874C109.624 21.3761 109.613 20.1423 110.078 18.7164C110.801 18.6177 111.725 18.541 112.201 18.6177C113.438 18.8261 115.407 18.541 117.984 18.0529C118.165 18.02 118.334 17.9871 118.406 17.9761C119.314 17.8226 120.435 17.2852 120.758 17.1206C121.869 16.5613 122.323 15.2068 121.765 14.0935C121.207 12.9803 119.855 12.5252 118.745 13.0845C118.367 13.2764 117.837 13.4903 117.656 13.5232C117.541 13.5397 117.377 13.5726 117.147 13.6164C114.143 14.1868 113.219 14.2032 112.934 14.1648C112.661 14.121 112.365 14.099 112.07 14.0881C112.491 13.1558 112.923 12.2235 113.306 11.401C113.372 11.39 113.438 11.39 113.503 11.3735L118.668 10.1068C120.37 9.87645 123.286 8.82903 124.183 8.49451C125.512 8.00096 126.196 6.51483 125.699 5.17677C125.206 3.8387 123.723 3.15871 122.394 3.65774C120.78 4.26096 118.553 4.9629 117.946 5.00677L117.738 5.02322L117.536 5.07258L112.283 6.36129C111.195 6.63 110.445 7.55677 110.347 8.62064C109.745 9.91483 108.262 13.1119 107.31 15.2781C107.13 15.5303 107.004 15.821 106.938 16.1335C106.79 16.4845 106.664 16.7861 106.588 17.0055C106.079 18.36 105.094 21.7655 106.85 24.1126C108.426 26.2184 111.074 26.3939 113.432 26.3939C116.233 26.3939 117.858 24.639 118.373 23.6026C118.849 22.6429 118.46 21.4803 117.508 21.0032Z" fill="#00853D"/>
<path d="M133.852 4.93549C133.026 4.24452 132.156 4.00323 131.27 4.21162C129.667 4.59 128.512 6.20226 126.351 11.1268C125.618 12.7884 125.016 14.1484 124.513 15.2671C123.419 15.6236 122.658 16.671 122.735 17.8774C122.751 18.179 122.833 18.4587 122.943 18.7274C122.691 19.2758 122.483 19.709 122.319 20.071L122.105 20.5261C121.575 21.6668 120.557 23.5477 120.546 23.5697C120.037 24.5074 120.388 25.6865 121.323 26.191C122.259 26.701 123.429 26.35 123.938 25.4123C123.982 25.33 125.016 23.4106 125.596 22.1658L125.804 21.7161C125.99 21.3213 126.209 20.8442 126.493 20.23L131.997 19.8845C131.992 22.2645 131.964 24.5129 131.964 24.5513C131.954 25.6206 132.802 26.4981 133.868 26.509C134.935 26.5255 135.811 25.67 135.822 24.6006C135.827 24.3429 135.904 18.3161 135.822 15.4865C135.592 7.06871 134.76 5.69226 133.852 4.93549ZM129.88 12.6842C130.553 11.1542 131.456 9.38291 131.456 9.38291L131.576 9.60226C131.576 9.60226 131.833 12.0755 131.943 14.7077L128.901 14.8997C129.202 14.2252 129.524 13.4958 129.88 12.6842Z" fill="#00853D"/>
<path d="M176.817 6.64097C176.658 5.22614 175.383 4.20614 173.972 4.36517C173.758 4.3871 168.67 4.96291 167.516 5.12743L165.147 5.47291C163.719 5.6813 161.569 5.99936 161.311 6.03227C160.589 6.11452 159.298 6.33936 158.609 6.46001C157.679 6.3942 156.77 6.90968 156.382 7.81452C156.382 7.82001 156.376 7.82001 156.376 7.82549C156.283 7.99001 156.207 8.16549 156.152 8.35194C155.496 9.91485 155.31 10.4687 155.249 10.7319C155.189 10.9129 154.97 11.5216 154.768 12.0755C154.39 13.1119 154.018 14.1484 153.685 15.1136C153.564 15.3329 153.482 15.5742 153.438 15.8319C153.083 16.8903 152.798 17.8281 152.656 18.4916C152.596 18.7603 152.574 19.0126 152.552 19.2648C152.421 19.1826 152.284 19.1113 152.136 19.0565C150.971 18.6177 150.489 18.711 149.242 20.3781V20.3726C149.231 20.3945 147.65 21.091 146.08 20.7674C145.631 20.6742 144.603 20.2739 144.192 20.0436C143.552 19.6816 142.392 19.1936 141.539 18.3929C141.227 18.0968 140.8 16.8519 141.024 15.4974C141.117 14.9161 141.73 13.9181 141.73 13.9181C142.917 12.5032 144.17 11.5161 146.058 10.5016C147.371 9.7942 147.847 10.0848 147.973 10.2877C148.093 10.4907 147.852 11.2145 147.852 11.2145C147.732 12.9474 147.584 13.1997 148.29 14.2252C148.996 15.2507 150.396 15.5139 151.42 14.8065C152.043 14.3732 152.629 13.5068 153.252 12.0755C153.893 10.6058 153.767 8.69743 152.935 7.32098C152.295 6.2571 151.272 5.60452 150.134 5.52775C149.997 5.51678 149.833 5.50033 149.658 5.48388C148.383 5.35227 146.463 5.15485 143.935 6.51485C141.593 7.77065 139.93 9.08678 138.398 10.88C137.961 11.2968 136.598 12.7445 136.265 14.7461C135.991 16.4077 135.838 19.4842 137.906 21.4365C139.159 22.621 140.833 23.5587 142.305 24.3868C142.71 24.6171 143.098 24.831 143.454 25.0394C145.254 26.1032 147.13 26.4432 149.538 26.1416C151.376 25.9113 152.536 24.0742 153.17 22.6429C153.378 23.0432 153.581 23.3339 153.712 23.4984C155.337 25.9387 158.483 25.9442 160.595 25.9442C163.544 25.9442 165.82 24.2003 166.066 24.0029C167.04 23.2297 167.204 21.8094 166.427 20.8332C165.655 19.8571 164.238 19.6926 163.265 20.4713L163.275 20.4603C162.925 20.729 161.755 21.431 160.589 21.431C158.674 21.431 157.613 21.2774 157.432 20.9758L157.317 20.7784L157.219 20.6687C157.17 20.6029 156.896 20.1807 157.055 19.4348C157.115 19.1607 157.219 18.7823 157.35 18.3545C157.679 18.3381 157.985 18.3216 158.204 18.3052C158.849 18.2503 161.716 18.0968 162.088 18.0968L165.929 18.0419C167.171 18.02 168.161 16.9945 168.145 15.7497C168.123 14.5048 167.1 13.5068 165.858 13.5287L162.088 13.5836C161.667 13.5836 160.086 13.6658 158.948 13.7316C158.964 13.6932 158.981 13.6439 158.992 13.6055C159.435 12.3936 159.555 12.0481 159.615 11.7958C159.637 11.73 159.675 11.6258 159.73 11.4887C160.441 11.3626 161.415 11.2036 161.908 11.1432C162.192 11.1103 163.669 10.891 165.891 10.5674L168.243 10.2219C169.102 10.1013 172.741 9.68452 174.546 9.48162C175.958 9.33904 176.975 8.0613 176.817 6.64097Z" fill="#00853D"/>
</svg>
