<svg width="110" height="45" viewBox="0 0 110 45" fill="none" xmlns="http://www.w3.org/2000/svg">
<g clip-path="url(#clip0_98_1252)">
<path d="M87.5541 1.20001C81.0432 1.20001 75.132 4.1143 71.2768 8.74287C67.336 4.1143 61.5105 1.20001 54.9996 1.20001C48.4887 1.20001 42.5775 4.1143 38.7223 8.74287C34.7815 4.1143 28.956 1.20001 22.4451 1.20001C10.6226 1.20001 1.11328 10.8 1.11328 22.6286C1.11328 34.4572 10.7083 44.0572 22.4451 44.0572C28.956 44.0572 34.8672 41.1429 38.7223 36.5143C42.6631 41.1429 48.4887 44.0572 54.9996 44.0572C61.5105 44.0572 67.4217 41.1429 71.2768 36.5143C75.2176 41.1429 81.0432 44.0572 87.5541 44.0572C99.3765 44.0572 108.886 34.4572 108.886 22.6286C108.972 10.8 99.3765 1.20001 87.5541 1.20001Z" fill="url(#paint0_linear_98_1252)"/>
<path d="M34.696 36.6V14.4H37.5231V10.2H26.3003V14.4H29.1274V27.1714L17.305 10.2H8.65234V14.4H11.5651V32.4H8.65234V36.6H19.9608V32.4H17.048V19.6286L26.0433 32.4L28.9561 36.6H34.696Z" fill="white"/>
<path d="M56.7121 26.4857C61.0813 26.4857 65.1077 23.1429 65.1077 18.0857C65.1077 13.0286 61.3383 9 54.5704 9C45.318 9 41.4629 16.5429 41.4629 22.4571C41.4629 31.5429 47.5454 37.8857 56.7121 37.8857C62.8803 37.8857 72.9037 34.2 72.1327 21.2571C72.1327 21.2571 69.5626 32.2286 59.1965 32.2286C48.8305 32.2286 47.8881 23.6571 47.8881 22.1143C47.8881 20.5714 49.3445 14.2286 54.913 14.2286C60.4816 14.2286 59.6249 20.2286 57.8258 21.6857C56.1124 23.1429 54.399 23.8286 51.4006 23.4857C51.1436 23.4857 50.9722 23.6571 51.0579 23.9143C51.4863 24.7714 52.6856 26.4857 56.7121 26.4857Z" fill="white"/>
<path d="M101.432 10.8857H102.118C103.403 10.8857 104.345 12.1714 103.831 13.3714L98.8623 27L93.4651 12.8572C93.1224 11.9143 93.8078 10.9714 94.7501 10.9714H96.0352V10.2H84.2128V10.9714H84.9838C85.9262 10.9714 86.6972 11.5714 87.0399 12.3429L89.1816 18L85.4121 28.0286L79.5009 12.8572C79.1582 11.9143 79.8436 10.9714 80.786 10.9714H81.6427V10.2H70.4199V10.9714H71.0196C71.8763 10.9714 72.733 11.4857 73.0757 12.3429L82.328 36.2572L82.4994 36.6857H83.3561L89.9526 19.9714L95.8639 35.6572L96.2922 36.6857H96.9776L106.059 11.7429C105.802 11.2286 105.459 10.8 105.116 10.2857H101.604V10.8857H101.432Z" fill="white"/>
</g>
<defs>
<linearGradient id="paint0_linear_98_1252" x1="1.00594" y1="22.6394" x2="108.95" y2="22.6394" gradientUnits="userSpaceOnUse">
<stop offset="0.2" stop-color="#006FB9"/>
<stop offset="0.5" stop-color="#6F2C87"/>
<stop offset="0.8" stop-color="#DD2514"/>
</linearGradient>
<clipPath id="clip0_98_1252">
<rect width="110" height="45" fill="white"/>
</clipPath>
</defs>
</svg>
