<svg width="110" height="35" viewBox="0 0 110 35" fill="none" xmlns="http://www.w3.org/2000/svg">
<g clip-path="url(#clip0_66_21907)">
<path fill-rule="evenodd" clip-rule="evenodd" d="M0.589844 34.0737H33.2359V0.992432H0.589844V34.0737Z" fill="#ED1B23"/>
<path fill-rule="evenodd" clip-rule="evenodd" d="M7.34287 5.16068C5.90068 5.16068 4.7207 6.3516 4.7207 7.87334C4.7207 9.32892 5.90068 10.586 7.34287 10.586C8.78507 10.586 9.96504 9.39508 9.96504 7.87334C10.0306 6.3516 8.85062 5.16068 7.34287 5.16068ZM7.34287 9.32892C6.55622 9.32892 5.90068 8.66729 5.90068 7.87334C5.90068 7.07939 6.55622 6.41776 7.34287 6.41776C8.12952 6.41776 8.78507 7.07939 8.78507 7.87334C8.85062 8.66729 8.19508 9.32892 7.34287 9.32892Z" fill="white"/>
<path fill-rule="evenodd" clip-rule="evenodd" d="M16.9132 5.16068C15.471 5.16068 14.291 6.3516 14.291 7.87334C14.291 9.32892 15.471 10.586 16.9132 10.586C18.3554 10.586 19.6009 9.39508 19.6009 7.87334C19.5354 6.3516 18.3554 5.16068 16.9132 5.16068ZM16.9132 9.32892C16.1265 9.32892 15.471 8.66729 15.471 7.87334C15.471 7.07939 16.1265 6.41776 16.9132 6.41776C17.6998 6.41776 18.3554 7.07939 18.3554 7.87334C18.3554 8.66729 17.6998 9.32892 16.9132 9.32892Z" fill="white"/>
<path fill-rule="evenodd" clip-rule="evenodd" d="M26.419 5.16068C24.9769 5.16068 23.7969 6.3516 23.7969 7.87334C23.7969 9.32892 24.9769 10.586 26.419 10.586C27.8612 10.586 29.0412 9.39508 29.0412 7.87334C29.0412 6.3516 27.8612 5.16068 26.419 5.16068ZM26.419 9.32892C25.6324 9.32892 24.9769 8.66729 24.9769 7.87334C24.9769 7.07939 25.6324 6.41776 26.419 6.41776C27.2057 6.41776 27.8612 7.07939 27.8612 7.87334C27.8612 8.66729 27.2057 9.32892 26.419 9.32892Z" fill="white"/>
<path fill-rule="evenodd" clip-rule="evenodd" d="M7.34287 14.8866C5.90068 14.8866 4.7207 16.0775 4.7207 17.5992C4.7207 19.0548 5.90068 20.3119 7.34287 20.3119C8.78507 20.3119 9.96504 19.121 9.96504 17.5992C10.0306 16.0775 8.85062 14.8866 7.34287 14.8866ZM7.34287 18.9886C6.55622 18.9886 5.90068 18.327 5.90068 17.5331C5.90068 16.7391 6.55622 16.0775 7.34287 16.0775C8.12952 16.0775 8.78507 16.7391 8.78507 17.5331C8.85062 18.327 8.19508 18.9886 7.34287 18.9886Z" fill="white"/>
<path fill-rule="evenodd" clip-rule="evenodd" d="M16.9132 14.8866C15.471 14.8866 14.291 16.0775 14.291 17.5992C14.291 19.0548 15.471 20.3119 16.9132 20.3119C18.3554 20.3119 19.6009 19.121 19.6009 17.5992C19.5354 16.0775 18.3554 14.8866 16.9132 14.8866ZM16.9132 18.9886C16.1265 18.9886 15.471 18.327 15.471 17.5331C15.471 16.7391 16.1265 16.0775 16.9132 16.0775C17.6998 16.0775 18.3554 16.7391 18.3554 17.5331C18.3554 18.327 17.6998 18.9886 16.9132 18.9886Z" fill="white"/>
<path fill-rule="evenodd" clip-rule="evenodd" d="M26.419 14.8866C24.9769 14.8866 23.7969 16.0775 23.7969 17.5992C23.7969 19.0548 24.9769 20.3119 26.419 20.3119C27.8612 20.3119 29.0412 19.121 29.0412 17.5992C29.0412 16.0775 27.8612 14.8866 26.419 14.8866ZM26.419 18.9886C25.6324 18.9886 24.9769 18.327 24.9769 17.5331C24.9769 16.7391 25.6324 16.0775 26.419 16.0775C27.2057 16.0775 27.8612 16.7391 27.8612 17.5331C27.8612 18.327 27.2057 18.9886 26.419 18.9886Z" fill="white"/>
<path fill-rule="evenodd" clip-rule="evenodd" d="M18.0274 24.6125H16.9785V29.707H18.0274V24.6125Z" fill="white"/>
<path fill-rule="evenodd" clip-rule="evenodd" d="M14.619 24.6125V25.0756C14.2257 24.7448 13.7013 24.6125 13.1113 24.6125C11.7347 24.6125 10.5547 25.7372 10.5547 27.1928C10.5547 28.5822 11.6691 29.7731 13.1113 29.7731C13.7013 29.7731 14.1602 29.5746 14.619 29.2438V29.707H15.7335V24.6125H14.619ZM13.1769 28.516C12.4558 28.516 11.8002 27.9206 11.8002 27.1266C11.8002 26.3327 12.3902 25.7372 13.1769 25.7372C13.898 25.7372 14.5535 26.3327 14.5535 27.1266C14.5535 27.8544 13.898 28.516 13.1769 28.516Z" fill="white"/>
<path fill-rule="evenodd" clip-rule="evenodd" d="M22.0919 26.2004C22.0264 25.8034 21.6986 25.4726 21.1086 25.4726C20.8464 25.4726 20.1908 25.6049 20.1908 25.9357C20.1908 26.465 21.1086 26.5312 21.3708 26.5312C22.8786 26.6635 23.3374 27.3251 23.3374 28.1191C23.3374 28.7145 23.0752 29.1115 22.6163 29.4423C22.2886 29.707 21.5675 29.7731 21.1086 29.7731C20.1253 29.7731 19.0764 29.2438 18.9453 28.0529H20.0597C20.1253 28.5822 20.7153 28.8469 21.043 28.8469C21.6986 28.8469 22.0919 28.5822 22.0919 28.2514C22.0919 27.7883 21.633 27.6559 20.9775 27.5898C20.5842 27.5236 19.9286 27.4574 19.6009 27.1928C19.2731 26.9281 19.0109 26.6635 19.0109 26.1342C19.0109 25.2741 19.732 24.5463 21.1086 24.5463C22.2886 24.5463 23.1408 25.2079 23.1408 26.2004H22.0919Z" fill="white"/>
<path fill-rule="evenodd" clip-rule="evenodd" d="M8.71866 22.8922V25.1418C8.32533 24.811 7.8009 24.6786 7.21091 24.6786C5.83427 24.6786 4.6543 25.8034 4.6543 27.259C4.6543 28.6484 5.76872 29.8393 7.21091 29.8393C7.73535 29.8393 8.25978 29.6408 8.71866 29.31V29.7732H9.83308V22.8922H8.71866ZM7.27647 28.5161C6.48982 28.5161 5.89983 27.8544 5.89983 27.1266C5.89983 26.3327 6.48982 25.7372 7.27647 25.7372C7.99756 25.7372 8.65311 26.3327 8.65311 27.1266C8.65311 27.8544 7.99756 28.5161 7.27647 28.5161Z" fill="white"/>
<path fill-rule="evenodd" clip-rule="evenodd" d="M26.4844 24.6125C25.1077 24.6125 23.9277 25.7372 23.9277 27.1928C23.9277 28.5822 25.0422 29.7731 26.4844 29.7731C27.9265 29.7731 29.041 28.6484 29.041 27.1928C29.041 25.7372 27.9265 24.6125 26.4844 24.6125ZM26.4844 28.5822C25.6977 28.5822 25.1077 27.9206 25.1077 27.1928C25.1077 26.3988 25.7633 25.8034 26.4844 25.8034C27.271 25.8034 27.861 26.465 27.861 27.1928C27.9265 27.9206 27.271 28.5822 26.4844 28.5822Z" fill="white"/>
<path fill-rule="evenodd" clip-rule="evenodd" d="M39.9883 9.85822V17.9962C39.9883 22.1645 43.3315 25.5387 47.3959 25.5387H53.8202V22.0321H47.3959C45.1671 22.0321 43.3971 20.1796 43.3971 17.9962C43.3971 17.9962 43.3971 15.1512 43.3971 13.2987C45.9537 13.2987 53.8202 13.2987 53.8202 13.2987V9.79205H39.9883V9.85822Z" fill="#ED1B26"/>
<path fill-rule="evenodd" clip-rule="evenodd" d="M64.7676 17.5331C64.7676 21.8336 68.2419 25.3403 72.503 25.3403C76.764 25.3403 80.2384 21.8336 80.2384 17.5331C80.2384 13.2325 76.764 9.72589 72.503 9.72589C68.2419 9.72589 64.7676 13.2325 64.7676 17.5331ZM68.3075 17.5331C68.3075 15.1512 70.2086 13.2325 72.5685 13.2325C74.9285 13.2325 76.8296 15.1512 76.8296 17.5331C76.8296 19.9149 74.9285 21.8336 72.5685 21.8336C70.2086 21.8336 68.3075 19.9149 68.3075 17.5331Z" fill="#ED1B26"/>
<path fill-rule="evenodd" clip-rule="evenodd" d="M81.9434 9.65973V25.4726H85.4177V9.65973H81.9434Z" fill="#ED1B26"/>
<path fill-rule="evenodd" clip-rule="evenodd" d="M96.6929 14.2249C97.3485 13.431 98.2007 13.034 99.1184 13.034C100.036 13.034 100.888 13.4972 101.478 14.2249L106.788 20.6427L109.41 18.3932L104.035 11.9754C102.724 10.3875 100.954 9.5274 99.0529 9.5274C97.1518 9.5274 95.3818 10.3875 94.0708 11.9754L88.6953 18.3932L91.3175 20.6427L96.6929 14.2249ZM100.692 18.327H97.2829V22.5614H89.5475V25.4726H109.279V22.5614H100.692V18.327Z" fill="#ED1B26"/>
<path fill-rule="evenodd" clip-rule="evenodd" d="M56.1797 9.65973H59.6541V13.2987H62.604V16.8053H59.6541V25.4726H56.1797V9.65973Z" fill="#ED1B26"/>
</g>
<defs>
<clipPath id="clip0_66_21907">
<rect width="110" height="35" fill="white"/>
</clipPath>
</defs>
</svg>
