<svg width="180" height="41" viewBox="0 0 180 41" fill="none" xmlns="http://www.w3.org/2000/svg">
<path d="M19.8222 20.3306L18.1581 1.67023C15.0568 2.7322 12.8632 5.6147 12.8632 9.10403C12.8632 9.93844 13.0145 10.697 13.2414 11.4555C11.9555 10.5453 10.367 10.0143 8.70293 10.0143C6.05549 10.0143 3.71062 11.3038 2.27344 13.3519L19.8222 20.3306Z" fill="#00A23E"/>
<path d="M19.2925 22.0752L1.13867 17.8273C1.21431 21.0891 3.25662 24.1233 6.50919 25.1853C7.2656 25.4128 8.09765 25.5645 8.85406 25.5645C7.56816 26.4748 6.58483 27.8402 6.05534 29.4331C5.22329 31.9364 5.75277 34.5913 7.18995 36.5635L19.2925 22.0752Z" fill="#00A23E"/>
<path d="M20.8062 22.9096L11.2754 39.0667C14.3767 39.977 17.8562 38.9909 19.8985 36.1842C20.3523 35.5015 20.7305 34.8189 20.9574 34.0603C21.4869 35.5774 22.3946 36.9428 23.7562 37.9289C25.8741 39.5219 28.5215 39.8253 30.8664 38.9909L20.8062 22.9096Z" fill="#00A23E"/>
<path d="M21.6367 20.3305L38.8072 12.9726C36.8406 10.3935 33.4367 9.17982 30.1842 10.2418C29.4277 10.4694 28.6713 10.8486 28.0662 11.3038C28.5201 9.78666 28.5957 8.11785 28.0662 6.52489C27.2342 4.02167 25.2675 2.20115 22.9226 1.4426L21.6367 20.3305Z" fill="#00A23E"/>
<path d="M22.166 21.9235L34.4199 36.0325C36.2352 33.3776 36.3109 29.7366 34.3442 26.9299C33.8904 26.2472 33.2852 25.7162 32.6801 25.2611C34.2686 25.2611 35.857 24.7301 37.2186 23.744C39.3365 22.1511 40.4711 19.7237 40.4711 17.2963L22.166 21.9235Z" fill="#00A23E"/>
<path d="M50.002 6.44904H60.4404V9.48325H53.5571V20.9374H62.7853V5.99391H66.4917V12.9726H68.3071V5.99391H72.0891V28.3712H68.3071V16.0826H66.4917V28.3712H62.7853V24.1233H50.002V6.44904Z" fill="#0A2A82"/>
<path d="M75.8711 5.99408V9.10414H83.2839L75.8711 16.6138L78.4429 18.8895L83.8134 13.352L89.1839 18.8895L91.7557 16.6138L84.7211 9.10414H91.7557V5.99408H75.8711Z" fill="#0A2A82"/>
<path d="M78.1406 20.2547V28.3712H98.2611V25.0336H81.6958V20.2547H78.1406Z" fill="#0A2A82"/>
<path d="M90.6211 10.6969V13.5794H94.4788V22.1511H98.2608V5.46292H94.4788V10.6969H90.6211Z" fill="#0A2A82"/>
<path d="M102.877 5.99391V9.10397H115.055V13.5794H110.895V10.6969H107.113V13.5794H102.271V16.6136H121.257V18.0549H125.039V12.2899H128.141V9.10397H125.039V5.46292H121.257V13.5794H118.837V5.99391H102.877Z" fill="#0A2A82"/>
<path d="M114.677 17.3722C108.929 17.3722 104.314 19.7995 104.314 22.9096C104.314 25.9438 108.929 28.447 114.677 28.447C120.426 28.447 125.04 26.0197 125.04 22.9096C125.04 19.8754 120.426 17.3722 114.677 17.3722ZM114.677 25.5645C111.198 25.5645 108.323 24.3509 108.323 22.9096C108.323 21.4684 111.198 20.2547 114.677 20.2547C118.157 20.2547 121.031 21.4684 121.031 22.9096C121.031 24.3509 118.157 25.5645 114.677 25.5645Z" fill="#0A2A82"/>
<path d="M149.622 5.46292V7.96614H144.1C142.587 6.60075 140.469 5.76634 138.049 5.76634C133.586 5.76634 129.955 8.64884 129.955 12.214C129.955 15.7792 133.586 18.6617 138.049 18.6617C140.62 18.6617 142.965 17.6756 144.403 16.2344H149.622V18.6617H153.101V5.46292H149.622ZM138.049 15.7034C135.628 15.7034 133.661 14.1863 133.661 12.2899C133.661 10.3935 135.628 8.8764 138.049 8.8764C140.469 8.8764 142.436 10.3935 142.436 12.2899C142.436 14.1863 140.469 15.7034 138.049 15.7034ZM149.622 13.3519H145.991C146.067 12.9726 146.142 12.5933 146.142 12.214C146.142 11.7589 146.067 11.3038 145.915 10.8486H149.546V13.3519H149.622Z" fill="#0A2A82"/>
<path d="M132.148 20.0271V22.9855H149.622V28.3712H153.101V20.0271H132.148Z" fill="#0A2A82"/>
<path d="M164.448 6.90416L155.977 21.1649L159.153 22.9096L164.448 14.1104L169.97 22.9096L173.223 21.1649L164.448 6.90416Z" fill="#0A2A82"/>
<path d="M178.14 5.91805H174.66V28.3712H178.14V5.91805Z" fill="#0A2A82"/>
<path d="M51.1387 37.1706V32.9227H52.5002C53.1054 32.9227 53.5592 33.0744 53.8618 33.4537C54.1643 33.8329 54.3156 34.3639 54.3156 35.0466C54.3156 35.1983 54.3156 35.4259 54.24 35.6535C54.1643 36.0327 54.0887 36.2603 53.9374 36.4879C53.7105 36.7913 53.4836 36.943 53.181 37.0188C53.0297 37.0947 52.8028 37.0947 52.5002 37.0947H51.1387V37.1706ZM50.3066 37.7774H52.6515C53.6348 37.7774 54.3156 37.3223 54.7695 36.5637C54.9964 36.1086 55.1477 35.5776 55.1477 34.9708C55.1477 34.2122 54.9207 33.6054 54.5425 33.0744C54.0887 32.5434 53.4836 32.24 52.6515 32.24H50.3066V37.7774Z" fill="#0D3387"/>
<path d="M57.3413 35.5017L58.249 33.0744L59.1567 35.5017H57.3413ZM55.6016 37.7774H56.4336L57.0387 36.1086H59.3836L59.9887 37.7774H60.8964L58.7785 32.24H57.8708L55.6016 37.7774Z" fill="#0D3387"/>
<path d="M61.5762 32.2398H65.8877V32.9225H62.4082V34.5913H65.6608V35.1982H62.4082V37.0946H65.9633V37.7773H61.6518V32.2398H61.5762Z" fill="#0D3387"/>
<path d="M69.8218 36.1084C69.8218 36.5636 69.7462 36.9429 69.5949 37.1704C69.2923 37.6256 68.8385 37.8531 68.0064 37.8531C67.5526 37.8531 67.1744 37.7773 66.8718 37.5497C66.5692 37.3221 66.418 36.9429 66.418 36.336V35.9567H67.1744V36.4119C67.1744 36.7153 67.25 36.9429 67.4013 37.0946C67.5526 37.2463 67.7795 37.3221 68.0821 37.3221C68.5359 37.3221 68.7628 37.1704 68.9141 36.9429C68.9898 36.7911 69.0654 36.4877 69.0654 35.9567V32.2398H69.8975V36.1084H69.8218Z" fill="#0D3387"/>
<path d="M70.957 32.24H75.2686V32.9227H71.7891V34.5915H75.0416V35.1983H71.7891V37.0947H75.3442V37.7774H71.0327V32.24H70.957Z" fill="#0D3387"/>
<path d="M78.8973 37.2462C78.1409 37.2462 77.6114 37.0187 77.3088 36.6394C77.0062 36.1843 76.7793 35.7291 76.7793 35.1223C76.7793 34.3637 77.0062 33.7569 77.3844 33.3776C77.7627 32.9983 78.2921 32.7708 78.8973 32.7708C79.5024 32.7708 80.0319 32.9983 80.4101 33.3776C80.7883 33.7569 80.9396 34.2879 80.9396 34.9706C80.9396 35.5774 80.7883 36.1084 80.4857 36.6394C80.1075 37.0187 79.578 37.2462 78.8973 37.2462ZM78.8216 32.0881C77.8383 32.0881 77.0819 32.3915 76.5524 33.0742C76.1742 33.6052 75.9473 34.212 75.9473 34.9706C75.9473 35.805 76.1742 36.4877 76.628 37.0187C77.1575 37.5496 77.8383 37.8531 78.746 37.8531C79.7293 37.8531 80.4857 37.5496 81.0152 36.8669C81.4691 36.336 81.696 35.6533 81.696 34.8189C81.696 34.0603 81.4691 33.4535 81.0909 32.9225C80.637 32.3915 79.8806 32.0881 78.8216 32.0881Z" fill="#0D3387"/>
<path d="M82.6055 32.2398H83.5132L86.4632 36.7153V32.2398H87.2196V37.7773H86.3119L83.3619 33.3018V37.7773H82.6055V32.2398Z" fill="#0D3387"/>
<path d="M92.8164 32.2398H93.951L95.6151 36.867L97.2792 32.2398H98.4138V37.7773H97.6574V34.5155C97.6574 34.4396 97.6574 34.2121 97.6574 33.9845C97.6574 33.7569 97.6574 33.4535 97.6574 33.1501L95.9933 37.7773H95.2369L93.5728 33.1501V33.3018C93.5728 33.4535 93.5728 33.6052 93.5728 33.9087C93.5728 34.2121 93.5728 34.3638 93.5728 34.5155V37.7773H92.8164V32.2398Z" fill="#0D3387"/>
<path d="M99.625 32.24H103.937V32.9227H100.457V34.5915H103.71V35.1983H100.457V37.0947H104.012V37.7774H99.7006V32.24H99.625Z" fill="#0D3387"/>
<path d="M109.156 32.24V32.9227H107.189V37.7774H106.357V32.9227H104.391V32.24H109.156Z" fill="#0D3387"/>
<path d="M110.743 34.8189V32.9225H112.634C112.861 32.9225 113.088 32.9225 113.239 32.9984C113.541 33.1501 113.693 33.3777 113.693 33.8328C113.693 34.2121 113.617 34.4396 113.39 34.5913C113.163 34.7431 112.861 34.8189 112.558 34.8189H110.743ZM109.986 37.7773H110.818V35.4258H112.558C112.861 35.4258 113.088 35.4258 113.239 35.5016C113.466 35.6533 113.617 35.8809 113.617 36.2602L113.693 37.1704C113.693 37.398 113.693 37.5497 113.693 37.6256C113.693 37.7014 113.693 37.7773 113.768 37.7773H114.752V37.6256C114.6 37.5497 114.525 37.4738 114.525 37.3221C114.525 37.2463 114.449 37.0946 114.449 36.867V36.1084C114.449 35.805 114.374 35.5775 114.222 35.4258C114.071 35.274 113.92 35.1982 113.693 35.0465C113.92 34.8948 114.147 34.7431 114.298 34.5155C114.449 34.2879 114.525 34.0604 114.525 33.6811C114.525 33.0742 114.222 32.6191 113.693 32.3915C113.39 32.2398 113.012 32.2398 112.634 32.2398H109.986V37.7773Z" fill="#0D3387"/>
<path d="M118.307 37.2462C117.551 37.2462 117.022 37.0187 116.719 36.6394C116.416 36.1843 116.189 35.7291 116.189 35.1223C116.189 34.3637 116.416 33.7569 116.795 33.3776C117.173 32.9983 117.702 32.7708 118.307 32.7708C118.913 32.7708 119.442 32.9983 119.82 33.3776C120.198 33.7569 120.35 34.2879 120.35 34.9706C120.35 35.5774 120.198 36.1084 119.896 36.6394C119.518 37.0187 118.988 37.2462 118.307 37.2462ZM118.232 32.0881C117.248 32.0881 116.492 32.3915 115.963 33.0742C115.584 33.6052 115.357 34.212 115.357 34.9706C115.357 35.805 115.584 36.4877 116.038 37.0187C116.568 37.5496 117.248 37.8531 118.156 37.8531C119.139 37.8531 119.896 37.5496 120.425 36.8669C120.879 36.336 121.106 35.6533 121.106 34.8189C121.106 34.0603 120.879 33.4535 120.501 32.9225C120.047 32.3915 119.291 32.0881 118.232 32.0881Z" fill="#0D3387"/>
<path d="M125.645 33.8328C125.645 34.2121 125.569 34.4396 125.342 34.5914C125.115 34.7431 124.813 34.8189 124.51 34.8189H122.922V32.9225H124.51C124.813 32.9225 125.04 32.9984 125.191 33.0743C125.494 33.1501 125.645 33.4535 125.645 33.8328ZM122.09 37.7773H122.922V35.4258H124.737C125.342 35.4258 125.721 35.2741 126.023 34.9706C126.326 34.6672 126.477 34.2879 126.477 33.8328C126.477 33.3018 126.326 32.9225 126.023 32.695C125.721 32.3916 125.267 32.3157 124.737 32.3157H122.09V37.7773Z" fill="#0D3387"/>
<path d="M129.956 37.2462C129.199 37.2462 128.67 37.0187 128.367 36.6394C128.065 36.1843 127.838 35.7291 127.838 35.1223C127.838 34.3637 128.065 33.7569 128.443 33.3776C128.821 32.9983 129.351 32.7708 129.956 32.7708C130.561 32.7708 131.09 32.9983 131.469 33.3776C131.847 33.7569 131.998 34.2879 131.998 34.9706C131.998 35.5774 131.847 36.1084 131.544 36.6394C131.166 37.0187 130.712 37.2462 129.956 37.2462ZM129.88 32.0881C128.897 32.0881 128.14 32.3915 127.611 33.0742C127.233 33.6052 127.006 34.212 127.006 34.9706C127.006 35.805 127.233 36.4877 127.687 37.0187C128.216 37.5496 128.897 37.8531 129.805 37.8531C130.788 37.8531 131.544 37.5496 132.074 36.8669C132.528 36.336 132.755 35.6533 132.755 34.8189C132.755 34.0603 132.528 33.4535 132.149 32.9225C131.696 32.3915 130.939 32.0881 129.88 32.0881Z" fill="#0D3387"/>
<path d="M133.662 32.24H134.494V37.0947H137.444V37.7774H133.738V32.24H133.662Z" fill="#0D3387"/>
<path d="M138.352 32.2398H139.184V37.7773H138.352V32.2398Z" fill="#0D3387"/>
<path d="M144.554 32.2398V32.9225H142.588V37.7773H141.756V32.9225H139.789V32.2398H144.554Z" fill="#0D3387"/>
<path d="M145.842 35.5017L146.75 33.0744L147.657 35.5017H145.842ZM144.178 37.7774H145.01L145.615 36.1086H147.96L148.565 37.7774H149.473L147.355 32.24H146.447L144.178 37.7774Z" fill="#0D3387"/>
<path d="M150.002 32.24H150.91L153.86 36.7154V32.24H154.616V37.7774H153.708L150.758 33.3019V37.7774H150.002V32.24Z" fill="#0D3387"/>
<path d="M164.449 32.695C164.827 33.0743 165.054 33.4535 165.13 33.9087H164.374C164.298 33.5294 164.147 33.3018 163.844 33.0743C163.617 32.8467 163.239 32.7708 162.785 32.7708C162.18 32.7708 161.726 32.9984 161.424 33.3777C161.045 33.757 160.894 34.3638 160.894 35.1224C160.894 35.8051 161.045 36.2602 161.348 36.7153C161.65 37.0946 162.104 37.3222 162.785 37.3222C163.39 37.3222 163.768 37.0946 164.071 36.7153C164.222 36.4878 164.374 36.1843 164.449 35.8051H165.206C165.13 36.4119 164.903 36.867 164.525 37.2463C164.071 37.7014 163.466 37.929 162.634 37.929C161.953 37.929 161.424 37.7014 160.894 37.3222C160.289 36.7912 159.986 36.0326 159.986 34.9706C159.986 34.1362 160.213 33.5294 160.667 32.9984C161.121 32.4674 161.802 32.164 162.709 32.164C163.466 32.0882 163.995 32.3157 164.449 32.695Z" fill="#0D3387"/>
<path d="M166.264 32.24H167.096V37.7774H166.264V32.24Z" fill="#0D3387"/>
<path d="M172.543 32.2398V32.9225H170.576V37.7773H169.744V32.9225H167.777V32.2398H172.543Z" fill="#0D3387"/>
<path d="M172.77 32.2398H173.677L175.341 34.8948L177.005 32.2398H177.913L175.72 35.5016V37.7014H174.887V35.5016L172.77 32.2398Z" fill="#0D3387"/>
</svg>
