<svg width="180" height="51" viewBox="0 0 180 51" fill="none" xmlns="http://www.w3.org/2000/svg">
<g clip-path="url(#clip0_66_22241)">
<path d="M105.171 18.2423C105.76 21.364 107.822 23.5102 109.885 24.6808L108.903 25.949C107.43 25.4612 105.073 23.8028 103.502 21.2664C102.029 23.8028 99.6718 25.4612 98.1006 26.0465L97.2168 24.8759C99.279 23.7053 101.341 21.4615 101.93 18.3399H97.806V16.5839H102.029V13.95H104.975V16.5839H109.295V18.2423H105.171ZM112.143 31.5095V28.9731H100.948V27.3147H114.991V33.0703H103.796V35.0213C103.796 35.4116 103.894 35.6067 104.287 35.6067H115.286V37.265H102.716C101.538 37.265 100.948 36.4846 100.948 35.2164V31.5095H112.143ZM114.991 25.8514H112.143V14.5353H114.991V25.8514Z" fill="#E60012"/>
<path d="M125.696 17.1693C125.696 21.1689 127.857 23.7053 130.508 25.2661L129.526 26.6318C128.053 26.1441 125.696 24.6808 124.125 22.1444C122.652 24.6808 120.197 26.3392 118.724 26.9245L117.742 25.6563C120.197 24.2906 122.554 21.364 122.554 17.3644V15.3158H125.598V17.1693H125.696ZM134.633 32.7776C134.633 35.8993 132.276 37.8504 129.232 37.8504C126.187 37.8504 123.831 35.8018 123.831 32.7776C123.831 29.7535 126.187 27.7049 129.232 27.7049C132.276 27.7049 134.633 29.7535 134.633 32.7776ZM126.777 32.7776C126.777 34.5336 127.66 36.192 129.33 36.192C131.097 36.192 131.883 34.6311 131.883 32.7776C131.883 31.0217 130.999 29.3633 129.33 29.3633C127.562 29.4609 126.777 31.1193 126.777 32.7776ZM135.516 14.5353V27.6074H132.669V20.5836H128.741V18.9252H132.669V14.5353H135.516Z" fill="#E60012"/>
<path d="M157.905 27.4122H138.756V25.7538H157.905V27.4122ZM155.253 29.4608V37.265H142.782C141.604 37.265 141.014 36.4846 141.014 35.2164V29.4608H155.253ZM154.075 19.0227C154.075 22.4371 151.031 23.9979 148.281 23.9979C145.532 23.9979 142.487 22.4371 142.487 19.0227C142.487 15.5108 145.532 14.0475 148.281 14.0475C151.031 14.0475 154.075 15.6084 154.075 19.0227ZM143.862 35.0213C143.862 35.4115 143.96 35.6066 144.353 35.6066H152.504V31.1192H143.862V35.0213ZM145.237 19.0227C145.237 20.7787 146.415 22.3395 148.281 22.3395C150.147 22.3395 151.325 20.7787 151.325 19.0227C151.325 17.1692 150.147 15.7059 148.281 15.7059C146.415 15.7059 145.237 17.2668 145.237 19.0227Z" fill="#E60012"/>
<path d="M174.206 28.6804V32.5825H178.92V34.2409H159.869V32.5825H164.681V28.6804H163.601C162.815 28.6804 162.128 27.9976 162.128 27.022V21.7542H173.617V18.2423H162.03V16.5839H176.268V23.4126H164.779V26.3392C164.779 26.8269 164.976 27.022 165.368 27.022H176.563V28.6804H174.206ZM167.431 32.5825H171.358V28.6804H167.431V32.5825Z" fill="#E60012"/>
<path d="M90.7369 37.265H93.6829V14.6329H90.7369V37.265ZM86.0233 22.7297H82.3899V24.7783H86.0233V29.5584C85.3359 29.8511 84.6485 30.0462 83.6665 30.0462H79.5421C79.1493 30.0462 78.8547 29.6559 78.8547 29.2657V17.9497H84.2557V16.2913H75.8105V30.0462C75.8105 30.9241 76.3997 31.7046 77.1853 31.7046H83.6665C84.6485 31.7046 85.4341 31.5094 86.0233 31.1192V37.265H88.9693V14.6329H86.0233V22.7297Z" fill="#E60012"/>
<path d="M64.0262 26.5343V24.2906H70.5074V22.6322H58.3307C57.9379 22.6322 57.6433 22.242 57.6433 21.8517V20.486H70.2128V15.0231H54.5991V16.5839H67.1686V18.8276H54.5991V22.7297C54.5991 23.6077 55.1883 24.3881 55.9739 24.3881H60.9821V26.6318H52.9297V28.2902H72.0786V26.6318H64.0262V26.5343ZM64.1245 29.2657H60.6875C59.8037 33.558 55.3847 35.7042 53.7153 35.9968L54.5991 37.4601C56.2685 37.265 60.0001 35.7042 62.3569 32.6801C64.7136 35.7042 68.4452 37.265 70.1146 37.4601L70.9984 35.9968C69.4272 35.7042 65.0082 33.558 64.1245 29.2657Z" fill="#E60012"/>
<path d="M30.9322 46.1423C26.1205 51.7028 18.3627 51.7028 13.5509 46.1423L4.71292 35.8993C-0.00066185 30.4364 -0.00066185 21.364 4.71292 15.901L13.5509 5.65804C18.3627 0.0975484 26.1205 0.0975484 30.9322 5.65804L39.7702 15.901C44.582 21.4615 44.582 30.4364 39.7702 35.9968L30.9322 46.1423Z" fill="#E60012"/>
<path d="M17.0852 40.8745C16.3978 40.8745 15.8086 40.1916 15.8086 39.4112C15.8086 39.021 15.9068 38.6308 16.1032 38.3381C16.2996 38.0454 16.6924 37.8503 16.987 37.8503C17.6744 37.8503 18.3618 38.4357 18.3618 39.3136C18.3618 40.1916 17.7726 40.8745 17.0852 40.8745Z" fill="white"/>
<path d="M21.7996 13.072C21.1122 13.072 20.523 13.3647 20.032 13.8524C19.05 15.0231 18.4609 17.3643 18.5591 20.486C18.6573 24.3881 19.4428 31.9972 22.0942 35.9968C22.487 36.6797 22.978 37.1675 23.469 37.5577C23.96 37.9479 24.451 38.2405 25.2366 38.2405C25.433 38.2405 25.7276 38.2405 25.924 38.143C27.397 37.7528 29.361 35.8017 30.7358 33.1678C30.9322 32.7776 31.325 32.5825 31.7178 32.5825C31.9142 32.5825 32.1106 32.68 32.307 32.7776C32.6016 32.9727 32.798 33.2654 32.798 33.6556C32.8962 34.0458 32.798 34.3384 32.6016 34.6311C30.834 37.9479 28.4772 40.1916 26.3168 40.7769C26.3168 40.7769 26.3168 40.7769 26.2186 40.7769C25.8258 40.8744 25.433 40.8744 25.0402 40.8744C23.6654 40.8744 22.6834 40.2891 21.996 39.7038C21.3086 39.2161 20.6212 38.4356 20.032 37.5577C16.3005 31.9972 16.0059 21.6566 16.0059 20.486C16.0059 17.7545 16.3005 13.95 18.1663 11.8038C19.0501 10.7307 20.2284 10.243 21.6032 10.243H21.7996C23.1744 10.243 24.2546 10.7307 25.2366 11.8038C27.1024 13.95 27.4952 17.657 27.397 20.486C27.397 23.4126 26.906 28.973 24.3528 33.9482C24.1564 34.3384 23.7636 34.6311 23.3708 34.6311C23.1744 34.6311 22.978 34.5335 22.7816 34.436C22.1924 34.0458 22.0942 33.2654 22.3888 32.5825C24.1564 29.0706 25.0402 25.2661 25.1384 20.486C25.1384 17.3643 24.6474 14.9255 23.6654 13.8524C23.1744 13.3647 22.5852 13.072 21.8978 13.072H21.7996Z" fill="white"/>
</g>
<defs>
<clipPath id="clip0_66_22241">
<rect width="180" height="50.7273" fill="white"/>
</clipPath>
</defs>
</svg>
