<svg width="142" height="33" viewBox="0 0 142 33" fill="none" xmlns="http://www.w3.org/2000/svg">
<path d="M31.9268 11.619C28.6416 11.619 26.2935 12.4281 24.3804 14.4771C23.1589 12.6784 20.6601 11.619 17.1797 11.619C14.5359 11.619 11.3957 12.6435 10.1742 14.2559V12.1661H3.06836V30.3921H10.5144V19.9083C10.5144 18.2609 11.9367 16.7532 14.5303 16.7532C17.2243 16.7532 18.4458 18.1095 18.4458 19.8326V30.3921H25.7971V19.8675C25.7971 18.255 27.2193 16.7532 29.8631 16.7532C32.5069 16.7532 33.734 18.1095 33.734 19.8326V30.3921H40.9402V18.5869C40.9402 13.6389 36.5339 11.619 31.9268 11.619Z" fill="#E7310E"/>
<path d="M77.757 14.6285V12.1662H70.5508V30.3921H78.0025V22.4347C78.0025 18.8023 80.6964 17.4867 83.6916 17.4867C84.4278 17.4867 85.2087 17.5216 86.0453 17.673V12.1662C85.5545 12.0556 84.8183 11.9857 84.082 11.9857C82.1187 11.9857 79.0343 12.5737 77.757 14.6285Z" fill="#E7310E"/>
<path d="M96.0359 12.1661H88.5898V30.3921H96.0359V12.1661Z" fill="#E7310E"/>
<path d="M109.511 6.85144H102.851V9.19736C102.851 10.8855 101.624 12.1661 99.075 12.1661H97.8535V17.0442H102.165V24.8562C102.165 28.4828 105.249 30.7239 110.297 30.7239C112.651 30.7239 113.872 30.3222 114.168 30.2116V25.5897C113.727 25.6653 112.991 25.7701 112.21 25.7701C110.593 25.7701 109.516 25.3685 109.516 23.8608V17.0442H114.268V12.1661H109.516V6.85144H109.511Z" fill="#E7310E"/>
<path d="M92.2599 1.95007C89.6719 1.95007 87.5078 3.56835 87.5078 5.54753C87.5078 7.52672 89.6663 9.13917 92.2599 9.13917C94.9595 9.13917 97.118 7.5209 97.118 5.54753C97.118 3.56253 94.9595 1.95007 92.2599 1.95007Z" fill="#E7310E"/>
<path d="M55.6585 11.5142C49.2666 11.5142 43.3711 15.298 43.3711 21.2297C43.3711 27.4234 49.4172 31.0558 56.2051 31.0558C61.7883 31.0558 65.503 28.9194 67.0759 26.1893L60.9182 24.4371C60.115 25.5548 58.6537 26.2708 56.3055 26.2708C53.3829 26.2708 50.8562 24.7864 50.7056 22.7141H67.8512C67.9014 22.6035 68.0018 21.7478 68.0018 20.9736C67.9962 15.036 63.2887 11.5142 55.6585 11.5142ZM50.8506 19.0759C51.0012 17.7021 52.5853 15.9616 55.7589 15.9616C59.3286 15.9616 60.617 17.6672 60.7118 19.0759H50.8506Z" fill="#E7310E"/>
<path d="M126.167 25.514L137.294 16.7532V12.1661H117.354V16.9395V17.0442H127.65L117.059 25.4791V30.3921H137.489V25.5897V25.514H126.167Z" fill="#E7310E"/>
</svg>
