<svg width="142" height="36" viewBox="0 0 142 36" fill="none" xmlns="http://www.w3.org/2000/svg">
<path d="M21.2347 19.6981C21.102 20.5811 19.3768 33.2151 19.1777 34.3698H23.0927C23.2254 33.4868 24.9506 20.8528 25.1497 19.6981H21.2347Z" fill="#003F7E"/>
<path d="M53.4828 19.6981C53.3501 20.5811 51.6248 33.2151 51.4258 34.3698H60.6491C60.7155 33.6906 60.9809 31.9925 61.1136 31.1774H55.5398L55.9379 28.4604H61.0473C61.1136 27.8491 61.3791 26.2868 61.4454 25.4717H56.3361L56.7342 22.8226H62.1753C62.2417 22.2113 62.5071 20.4453 62.6398 19.6302H53.4828V19.6981Z" fill="#003F7E"/>
<path d="M9.6218 28.1208C9.6218 28.1208 12.9396 20.3774 13.205 19.6981H18.1816C18.1816 20.717 17.5181 33.3509 17.5181 34.3698H13.9349L14.5321 24.0453C14.5321 24.0453 10.5508 33.6906 10.219 34.3698H7.43208L6.10498 24.1132C6.03862 24.5887 4.71152 31.4491 3.98162 34.4377H0.398438C0.796568 33.1472 3.51713 20.5132 3.71619 19.766H8.49376L9.6218 28.1208Z" fill="#003F7E"/>
<path d="M46.5825 31.4491C46.5825 31.4491 46.848 33.8264 46.9143 34.4377H50.6966C50.4311 33.2151 48.3741 20.5811 48.2414 19.6981H43.4638C43.1984 20.3094 37.7573 32.9434 37.0938 34.3698H40.9423C41.1414 33.8943 42.1367 31.3811 42.1367 31.3811L46.5825 31.4491ZM43.1984 28.3925L45.4545 22.9585L46.1844 28.3925H43.1984Z" fill="#003F7E"/>
<path d="M30.6561 22.483H31.5187C32.1159 22.483 32.7794 22.551 33.1776 23.0264C33.443 23.366 33.5757 23.8415 33.5093 24.5208C33.5093 24.5208 33.3766 25.6755 32.6467 26.0151C32.6467 26.0151 32.1822 26.3547 31.3196 26.3547H29.528L32.9121 34.4377H36.7607L33.8411 28.2566C35.5663 27.917 36.9598 27.3736 37.2916 24.5887C37.3579 24.2491 37.3579 23.9094 37.3579 23.5698C37.3579 22.551 37.0925 21.6679 36.5617 21.0566C35.6327 19.9019 33.9738 19.6981 32.7794 19.6981H27.4047C27.272 20.5811 25.5467 33.2151 25.3477 34.3698H28.9308C29.1299 33.5547 30.6561 22.483 30.6561 22.483Z" fill="#003F7E"/>
<path d="M141.072 0.950928C138.75 10.7321 130.521 16.0302 125.678 18.883L125.479 18.6113C127.469 16.9811 134.304 11.7509 136.493 3.19244L141.072 0.950928Z" fill="#F08300"/>
<path d="M101.722 26.7623C101.656 26.7623 101.59 26.7623 101.457 26.8304C101.59 26.8304 101.656 26.8304 101.722 26.7623Z" fill="#003F7E"/>
<path d="M109.552 25.2C109.287 25.2682 109.021 25.3363 108.756 25.4045C108.955 25.3363 109.287 25.2682 109.552 25.2Z" fill="#003F7E"/>
<path d="M111.41 24.6566C111.211 24.7248 111.078 24.7248 110.879 24.7929C111.078 24.7929 111.211 24.7248 111.41 24.6566Z" fill="#003F7E"/>
<path d="M114.263 23.8415C114.064 23.9097 113.931 23.9778 113.732 23.9778C113.931 23.9778 114.131 23.9097 114.263 23.8415Z" fill="#003F7E"/>
<path d="M113.534 24.1132C112.937 24.3169 112.406 24.4528 111.742 24.6566C112.339 24.4528 112.937 24.249 113.534 24.1132Z" fill="#003F7E"/>
<path d="M110.548 24.9283C110.349 24.9964 110.217 24.9964 110.018 25.0646C110.15 24.9964 110.349 24.9964 110.548 24.9283Z" fill="#003F7E"/>
<path d="M98.3387 25.4717L97.2771 24.9283C96.9453 24.7245 96.149 24.249 96.149 23.5019C96.149 23.0943 96.2817 22.8226 96.5472 22.5509C96.8789 22.2792 97.3434 22.1434 97.8743 22.2792C98.5378 22.4151 99.3341 22.8226 100.197 23.5698C100.595 22.7547 101.391 21.2603 101.656 20.717C100.661 19.9019 99.7322 19.4264 98.3387 19.1547C96.6135 18.883 94.8883 19.2905 93.6939 20.1736C92.6986 20.9887 92.1014 22.0754 91.9023 23.5019C91.9023 23.7056 91.8359 23.9773 91.8359 24.1811C91.8359 24.9283 91.9687 25.6075 92.3004 26.1509C94.4238 26.083 96.6799 26.0151 98.9359 25.8113C98.8032 25.7434 98.6042 25.6075 98.3387 25.4717Z" fill="#003F7E"/>
<path d="M114.33 19.6981C114.263 20.3094 113.998 22.2793 113.865 23.1623C116.652 22.3472 120.036 21.1925 123.089 19.6981H114.33Z" fill="#003F7E"/>
<path d="M115.789 23.366C115.391 23.5019 114.993 23.6377 114.595 23.7736C114.528 23.7736 114.396 23.8415 114.329 23.8415C114.13 23.9094 113.998 23.9774 113.798 23.9774C113.732 23.9774 113.599 24.0453 113.533 24.0453C112.936 24.2491 112.405 24.3849 111.741 24.5887C111.609 24.5887 111.542 24.6566 111.41 24.6566C111.211 24.7245 111.078 24.7245 110.879 24.7925C110.746 24.8604 110.613 24.8604 110.481 24.9283C110.282 24.9962 110.149 24.9962 109.95 25.0642C109.817 25.1321 109.618 25.1321 109.485 25.2C109.22 25.2679 108.955 25.3358 108.689 25.4038C108.556 25.4717 108.357 25.4717 108.225 25.5396C108.158 25.5396 108.092 25.5396 108.026 25.6075C106.433 26.0151 104.708 26.3547 102.85 26.6264C102.784 26.6264 102.784 26.6264 102.717 26.6264C102.385 26.6943 102.054 26.7623 101.722 26.7623C101.655 26.7623 101.589 26.7623 101.456 26.8302C101.125 26.8981 100.727 26.966 100.395 26.966H100.328C98.4041 27.2377 96.2807 27.5094 94.1574 27.7132C93.8256 27.7132 93.4938 27.7811 93.162 27.7811C93.162 27.7811 93.0957 27.7811 93.0293 27.7811C92.6975 27.7811 92.3658 27.8491 92.034 27.8491H91.9676C91.6359 27.8491 91.3041 27.917 90.906 27.917H90.8396C90.5078 27.917 90.1097 27.9849 89.7779 27.9849C89.7779 27.9849 89.7779 27.9849 89.7116 27.9849C87.92 28.0528 85.9957 28.1208 84.0714 28.1208C84.005 28.1208 83.9387 28.1208 83.9387 28.1208C83.5405 28.1208 83.076 28.1208 82.6779 28.1208C82.6116 28.1208 82.4788 28.1208 82.4125 28.1208C80.82 28.1208 79.2274 28.0528 77.6349 27.9849C75.1798 27.8491 72.5919 27.6453 69.9377 27.3057L72.9901 24.3849C72.9901 24.3849 74.7817 24.9283 77.2368 25.4038C76.7723 22.5509 76.3742 20.0377 76.3078 19.6981H71.5303C71.2648 20.3094 65.8237 32.9434 65.1602 34.3698H69.0088C69.2078 33.8943 70.5349 30.7019 70.5349 30.7019H74.5162C74.5162 30.7019 74.9144 33.7585 74.9807 34.3698H78.763C78.6966 33.8943 78.2985 31.6528 77.9003 29.0717C80.6209 29.2075 83.2751 29.2755 85.7966 29.2075C85.9293 29.4113 85.9957 29.683 85.9957 29.8868C85.9957 29.9547 85.9957 30.0906 85.9957 30.1585C85.9293 30.4981 85.7966 30.7698 85.5312 30.9736C85.0003 31.3811 84.2704 31.2453 83.7396 31.1774C82.5452 30.9736 81.5499 30.0226 80.7536 29.2075C80.2891 30.0226 79.2274 31.7208 78.8957 32.3321C80.3555 33.6906 81.8817 34.5057 83.5405 34.7094C85.1994 34.9811 86.8583 34.5736 88.0527 33.6226C89.1144 32.8075 89.7779 31.6528 89.977 30.2264C90.0433 29.8189 90.0433 29.4113 90.0433 29.0717C92.7639 28.9358 94.9536 28.8 96.4134 28.6642C96.8779 29.0038 97.1433 29.4113 97.1433 29.8868C97.1433 29.9547 97.1433 30.0906 97.1433 30.1585C97.077 30.4981 96.9443 30.7698 96.6788 30.9736C96.148 31.3811 95.4181 31.2453 94.8873 31.1774C93.6929 30.9736 92.6975 30.0226 91.9013 29.2075C91.4368 30.0226 90.3751 31.7208 90.0433 32.3321C91.5031 33.6906 93.0293 34.5057 94.6882 34.7094C96.3471 34.9811 98.006 34.5736 99.2003 33.6226C100.262 32.8075 100.926 31.6528 101.125 30.2264C101.257 29.4113 101.257 28.7321 101.058 28.0528C101.655 27.9849 102.253 27.8491 102.85 27.7811C102.452 30.8377 101.987 33.7585 101.921 34.3019H111.144C111.211 33.6226 111.476 31.9245 111.609 31.1094H106.035L106.433 28.3925H111.476C111.542 27.8491 111.741 26.5585 111.874 25.6755C112.538 25.4717 112.936 25.3358 112.936 25.3358C112.936 25.3358 114.661 24.7925 116.851 23.9774C116.519 26.2868 115.524 33.283 115.391 34.3019H119.372C119.505 33.4189 120.898 23.2302 120.898 23.2302H123.818C123.884 22.6189 124.15 20.5811 124.283 19.6302C122.624 20.6491 119.837 22.0075 115.789 23.366Z" fill="#003F7E"/>
<path d="M88.3847 26.2188C88.053 25.9471 87.6548 25.6754 87.1904 25.4717L86.1287 24.9283C85.7969 24.7245 85.0006 24.249 85.0006 23.5019C85.0006 23.0943 85.1333 22.8226 85.3988 22.5509C85.7305 22.2792 86.195 22.1434 86.7922 22.2792C87.4558 22.4151 88.252 22.8226 89.1147 23.5698C89.5128 22.7547 90.309 21.2603 90.5745 20.717C89.5791 19.9019 88.6502 19.4264 87.2567 19.1547C85.5315 18.883 83.8062 19.2905 82.6119 20.1736C81.6165 20.9887 81.0193 22.0754 80.8203 23.5019C80.8203 23.7056 80.7539 23.9773 80.7539 24.1811C80.7539 24.8603 80.8866 25.4037 81.0857 25.8792C81.152 25.8792 81.2184 25.8792 81.3511 25.8792C83.1427 26.083 85.5315 26.2188 88.3847 26.2188Z" fill="#003F7E"/>
<path d="M107.032 22.8906H112.473C112.54 22.2793 112.805 20.5132 112.938 19.6981H103.847C103.781 20.1057 103.449 22.551 103.051 25.4038C104.312 25.2679 105.572 25.0642 106.767 24.8604L107.032 22.8906Z" fill="#003F7E"/>
</svg>
