<svg width="110" height="42" viewBox="0 0 110 42" fill="none" xmlns="http://www.w3.org/2000/svg">
<g clip-path="url(#clip0_66_23042)">
<path d="M12.25 19.0567V32.0328H4.1875V19.0567H6.75V22.6298H9.6875V19.0567H12.25ZM9.6875 25.5761H6.75V29.2119H9.6875V25.5761ZM18.5625 23.7582H16.6875V17.4895H14.0625V36.4208H16.75L16.6875 26.7044H18.5625V36.4208H21V17.4895H18.5625V23.7582Z" fill="black"/>
<path d="M25.875 21.0626V24.8238H32.8125V27.2686H23.125V18.4298H32.375V21.1253H25.875V21.0626ZM24.375 31.5313H34.5625V30.4656H24.375V28.585H37.5625V33.6626H27.125V34.6656H37.5625V36.797H24.375V31.5313ZM40.3125 24.2597H37.625V27.8955H34.8125V17.2388H37.625V21.3134H40.3125V24.2597Z" fill="black"/>
<path d="M50.9375 23.8835V36.985H48.625V32.9731C48.25 33.2865 47.8125 33.6 47.375 33.8507C46.9375 34.1015 46.4375 34.2895 46 34.4776C45.5 34.6656 45.0625 34.791 44.5625 34.8537C44.0625 34.9164 43.625 35.0418 43.1875 35.0418C42.125 35.1671 41.0625 35.1671 39.9375 35.0418V32.9104C40.5 33.0358 41.0625 33.0985 41.6875 33.0985C42.3125 33.0985 42.875 33.0358 43.5 32.9731C44.125 32.9104 44.6875 32.785 45.25 32.6597C45.8125 32.5343 46.3125 32.4089 46.75 32.2835C47.1875 32.1582 47.5625 32.0328 47.9375 31.9074C48.25 31.7821 48.5 31.7194 48.6875 31.6567V23.8835H50.9375ZM45.5 24.385C45.75 24.5104 46 24.6358 46.125 24.8238C46.3125 25.0119 46.4375 25.2627 46.5625 25.5134C46.6875 25.7641 46.6875 26.0776 46.6875 26.3283V28.4597C46.6875 29.0865 46.5 29.6507 46.0625 30.0268C45.6875 30.4029 45.125 30.591 44.4375 30.591H42.625C42.375 30.591 42.0625 30.5283 41.8125 30.4656C41.5625 30.4029 41.3125 30.2149 41.125 30.0895C40.9375 29.9015 40.75 29.7134 40.625 29.4627C40.5 29.2119 40.4375 28.9612 40.4375 28.6477V26.3283C40.4375 26.0149 40.5 25.7641 40.625 25.5134C40.75 25.2627 40.875 25.0119 41.0625 24.8238C41.25 24.6358 41.5 24.4477 41.75 24.385C42 24.2597 42.3125 24.197 42.625 24.197H44.625C44.9375 24.197 45.25 24.2597 45.5 24.385ZM44.875 26.7671C44.875 26.5164 44.8125 26.3283 44.625 26.1403C44.4375 25.9522 44.25 25.8895 44 25.8895H43.375C43.125 25.8895 42.875 25.9522 42.6875 26.1403C42.5 26.3283 42.375 26.5164 42.375 26.7671V28.0835C42.375 28.3343 42.5 28.585 42.6875 28.7104C42.875 28.8985 43.125 28.9612 43.375 28.9612H44C44.25 28.9612 44.4375 28.8985 44.625 28.7104C44.8125 28.5224 44.875 28.3343 44.875 28.0835V26.7671Z" fill="black"/>
<path d="M87.5625 17.2388H84.6875V29.5253H87.5625V17.2388Z" fill="black"/>
<path d="M105.437 26.0149V28.6477H88.8125V26.0149H95.625V23.6328H98.6875V26.0149H105.437ZM103.812 30.1522V32.8477C103.812 33.4119 103.75 33.9761 103.687 34.4149C103.562 34.9164 103.5 35.2925 103.375 35.6686C103.25 36.1074 103.125 36.4835 102.937 36.797H100.25C100.5 36.2955 100.687 35.794 100.812 35.2925C100.937 34.791 101.062 34.4149 101.125 34.0388C101.187 33.6 101.187 33.2238 101.187 32.8477H90.625V30.2149H103.812V30.1522ZM90.625 17.2388H103.375V19.5582H98.8125C99.0625 19.997 99.375 20.3731 99.75 20.6865C100.125 21 100.5 21.3134 100.875 21.5641C101.25 21.8149 101.687 22.0656 102.062 22.2537C102.5 22.4418 102.875 22.5671 103.25 22.6925V24.7612C101.812 24.5731 100.562 24.197 99.5625 23.6328C98.5625 23.0059 97.6875 22.3164 96.9375 21.4388C96.5625 21.9403 96.125 22.3791 95.5625 22.7552C95.0625 23.1313 94.5 23.5074 93.9375 23.8209C93.375 24.1343 92.8125 24.385 92.1875 24.5731C91.625 24.7612 91.0625 24.9492 90.625 25.0746V22.8179C91.125 22.6298 91.625 22.4418 92.125 22.1283C92.625 21.8776 93.0625 21.5641 93.5 21.2507C93.875 20.9373 94.25 20.6238 94.5 20.3104C94.75 19.997 94.9375 19.7462 95 19.5582H90.625V17.2388Z" fill="black"/>
<path d="M60.6875 5.70449C61.3125 5.6418 61.9375 5.6418 62.5625 5.70449C64.4375 5.95523 65.875 6.89553 67.0625 8.33732C68.375 9.96717 68.75 11.8478 68.625 13.9164C68.5625 14.9821 68.3125 15.9224 67.6875 16.8C67.375 17.1761 67.0625 17.4896 66.625 17.7403C66.125 17.9911 65.8125 18.4299 65.375 18.7433C65.3125 18.806 65.3125 18.8687 65.375 18.9314C66.625 20.8119 66.9375 22.9433 67.1875 25.1373C67.1875 25.3881 67.1875 25.5761 67.25 25.8269C67.3125 26.0776 67.1875 26.203 66.9375 26.2657C66.625 26.3284 66.6875 26.5164 66.6875 26.7045C66.6875 26.9552 66.875 26.8299 67 26.8299C67.3125 26.8299 67.5625 26.8299 67.875 26.8299C68.125 26.8299 68.1875 26.7672 68.1875 26.5164C68.0625 25.0746 68.0625 23.5702 68.0625 22.1284C68.0625 21.8149 68 21.4388 68.125 21.1254C68.25 20.6239 68.5625 20.3105 69.125 20.3105C70.25 20.2478 71.4375 20.1851 72.5625 20.2478C72.8125 20.2478 72.875 20.1851 72.875 19.9343C72.875 19.5582 72.875 19.1821 72.875 18.806C72.875 18.5552 72.9375 18.4925 73.1875 18.4925C75.5 18.4925 77.875 18.4925 80.1875 18.4925C80.875 18.4925 81.5625 18.4925 82.25 18.4925C82.25 18.5552 82.3125 18.5552 82.3125 18.6179C82.3125 21.3761 82.3125 24.197 82.3125 26.9552C82.3125 27.206 82.3125 27.4567 82.3125 27.7075L82.25 27.7702C79.875 27.7702 77.5625 27.7702 75.1875 27.7702C73.25 27.8328 71.3125 27.8955 69.3125 27.9582C69.9375 28.8358 69.9375 29.5881 68.9375 30.0896C69.1875 30.3403 69.375 30.5284 69.5625 30.7791C69.6875 30.9045 69.8125 30.9045 69.9375 30.9045C70.4375 30.9045 71 30.9045 71.5 30.8418C71.6875 30.8418 71.8125 30.9045 71.8125 31.1552C71.8125 31.5314 71.8125 31.9075 71.8125 32.2836C71.8125 32.4716 71.75 32.5343 71.5625 32.5343C71.25 32.5343 70.9375 32.597 70.625 32.597C70.5 32.597 70.4375 32.6597 70.4375 32.7851C70.5625 34.4776 69.3125 36.609 66.875 36.5463C65.625 36.4836 64.375 35.5433 63.9375 34.1642C63.8125 33.7881 63.75 33.4119 63.75 33.0358C63.75 32.8478 63.6875 32.7851 63.5 32.8478C61.5 33.0358 59.5625 32.9731 57.5625 32.9731C57.3125 32.9731 57 32.9731 56.75 32.9105C56.5 32.8478 56.4375 32.9105 56.375 33.1612C56.25 34.7911 55.25 36.2955 53.4375 36.5463C52.6875 36.6716 51.9375 36.5463 51.3125 36.0448C51.1875 35.9194 50.4375 35.6687 50.25 35.6687C49.5625 35.7314 49.875 35.7314 49.1875 35.7314C49.375 35.1045 49.3125 34.7284 49 35.1672C49 34.4149 48.875 34.2269 48.875 33.4746C48.875 33.4119 48.625 33.0358 48.625 32.9105C47.9375 33.4746 46.9375 33.9134 46.125 34.2269C44.75 34.6657 43.3125 34.7284 41.875 34.8537C41.125 34.9164 40.875 34.8537 40.1875 34.8537C40 34.8537 40.0625 35.1045 40.125 34.8537C40.4375 34.2896 40.875 33.9134 40.1875 33.2866C40.5625 33.3493 41.1875 33.9134 40.25 33.0985C41.4375 33.1612 42.375 33.0985 43.5625 32.9105C45.25 32.6597 46.875 32.3463 48.4375 31.7821C48.6875 31.7194 48.625 31.5313 48.625 31.406C48.625 28.8358 48.875 27.5194 48.875 24.9493C48.875 24.8239 49.0625 24.6985 49.0625 24.5731C49.0625 24.5731 49.125 24.1343 49.1875 24.1343C49.9375 24.1343 49.1875 24.8866 49.9375 24.8866L50.375 25.1373C50.25 26.7672 48.875 28.0209 50.625 28.0836C49.8125 29.1493 50.8125 28.5224 51 28.5851C51.375 28.0836 51.6875 27.5821 52.0625 27.1433C52.625 26.3911 53.25 25.6388 53.875 24.9493C54.0625 24.7612 54 24.5731 53.75 24.4478C53.25 24.2597 53.125 23.8836 53.3125 23.3821C53.5 22.8806 53.8125 22.5045 54.25 22.1911C54.6875 21.8149 55.1875 21.4388 55.6875 21.1881C55.8125 21.1254 56 21 56.1875 21C56.75 20.8746 56.9375 21 57.0625 21.5642C57.125 21.7522 57.0625 22.0657 57.1875 22.1911C57.3125 22.3164 57.625 22.2537 57.8125 22.2537C58.4375 22.2537 59.0625 22.2537 59.6875 22.003C59.75 22.003 60 22.003 59.875 21.8149C59.75 21.6269 59.875 21.3134 59.5625 21.2508C59.25 21.2508 59 21.1881 58.75 21.1254C58.4375 21 58.1875 20.8119 58.1875 20.4358C58.1875 20.2478 58.0625 20.2478 57.9375 20.2478C57.5625 20.0597 57.25 19.7463 57 19.3702C56.75 18.994 56.75 18.7433 56.75 18.3672C56.75 18.0537 56.4375 17.803 56.1875 17.6149C55.5625 17.1761 55.5 16.9254 56 16.3612C56.5 15.7343 56.625 15.0448 56.5 14.2925C56.4375 13.8537 56.375 13.603 56 13.3522C55.375 12.9134 55.3125 12.2239 55.25 11.5343C55.1875 8.40001 57.4375 6.39404 59.6875 5.89254C60.0625 5.76717 60.375 5.76717 60.6875 5.70449ZM60.8125 31.7821C60.5625 31.7821 60.25 31.7821 60 31.7821C59.8125 31.7821 59.6875 31.9075 59.5625 32.0328C59.5 32.0955 59.5 32.2209 59.625 32.2209C60.0625 32.2209 60.5 32.1582 60.8125 31.7821ZM67.6875 30.9672H69.1875C69.0625 30.8418 69 30.7791 68.9375 30.7164C68.5625 30.3403 68.625 30.3403 68.1875 30.6537C68 30.7164 67.875 30.7791 67.6875 30.9672C67.625 30.9045 67.5625 30.9045 67.5625 30.9672C67.625 31.0299 67.6875 30.9672 67.6875 30.9672ZM54.875 23.3194C54.625 23.3821 54.375 24.009 54.4375 24.2597L54.5 24.3224C54.75 24.3224 54.9375 24.3851 55.1875 24.3224C55.375 24.2597 55.25 24.0716 55.25 23.8836C55.25 23.6955 55.25 23.5702 55.25 23.3821C55.25 23.3821 55.1875 23.3821 55.1875 23.3194C55.125 23.3194 55.0625 23.3194 54.9375 23.3194C54.9375 23.3194 54.9375 23.3194 54.875 23.3194ZM65.25 18.3672C65.1875 18.3672 65.1875 18.3045 65.125 18.3045C64.625 18.3672 64.0625 18.4925 63.5625 18.5552C63.5 18.5552 63.4375 18.6179 63.4375 18.6806C63.25 19.0567 63 19.3702 62.6875 19.6836C62.8125 19.6836 62.9375 19.6836 63.0625 19.6209C63.5625 19.4328 64 19.2448 64.4375 18.9314C64.625 18.806 64.9375 18.6179 65.25 18.3672C65.1875 18.3672 65.1875 18.3672 65.25 18.3672ZM60.25 26.4537C59.75 26.5791 59.25 26.8299 58.875 27.0806C58.3125 27.4567 58 27.9582 58.0625 28.7105C58.125 29.4 58.25 30.0896 58.4375 30.7791C58.625 31.3433 58.8125 31.406 59.375 31.3433C59.1875 31.0299 59.0625 30.7791 58.9375 30.4657C58.8125 30.1522 58.75 29.8388 58.625 29.4627C58.3125 28.1463 58.6875 27.394 59.75 26.7672C59.9375 26.7045 60.125 26.6418 60.25 26.4537C60.3125 26.5164 60.375 26.4537 60.375 26.4537C60.3125 26.4537 60.3125 26.4537 60.25 26.4537ZM57.125 31.7821C57.125 31.6567 57.0625 31.6567 57 31.594C56.375 30.9672 55.75 30.2149 55.25 29.4627C55.0625 29.1493 55 28.8985 55.125 28.5224C55.375 27.5821 55.75 26.6418 55.875 25.6388C55.875 25.5761 56 25.3881 55.8125 25.3881C55.6875 25.3881 55.5625 25.3254 55.5 25.5134C55.125 26.5164 54.6875 27.5194 54.375 28.5851C54.3125 28.8358 54.25 29.0866 54.4375 29.3373C55.0625 30.403 55.75 31.5314 57.125 31.7821ZM65.6875 32.1582C66.125 32.2209 66.625 32.2836 67.0625 32.2836C68.25 32.409 69.4375 32.3463 70.625 32.2836C71.4375 32.2209 71.4375 32.2836 71.4375 31.4687C71.4375 31.2179 71.375 31.2179 71.1875 31.2179C70.25 31.2179 69.25 31.2806 68.3125 31.2806C67.4375 31.2806 66.6875 31.406 66 31.9075C65.875 31.9702 65.75 32.0328 65.625 32.0955C65.625 32.1582 65.625 32.1582 65.6875 32.1582ZM55.9375 12.7881C56.0625 13.1015 56.375 13.2269 56.6875 13.3522C57.0625 13.4776 57.5 13.4776 57.9375 13.4149C58.75 13.3522 59.5 13.2896 60.3125 13.2269C61.3125 13.1642 61.75 13.4149 62 14.4179C62.125 14.9194 62.1875 15.4209 62.25 15.9224C62.3125 16.4866 62.3125 17.0508 62.4375 17.5522C62.5 17.9284 62.625 18.2418 63.125 18.3045C63.25 18.3045 63.375 18.3045 63.4375 18.3045C64.3125 18.2418 65.1875 18.0537 66 17.6776C67.0625 17.1761 67.75 16.3612 68 15.2328C68.25 14.2925 68.3125 13.2896 68.1875 12.2866C68 10.0925 67 8.40001 65.25 7.14628C63.25 5.70449 61 5.6418 58.8125 6.51941C57.3125 7.08359 56.25 8.21195 55.8125 9.8418C55.5625 10.6567 55.4375 11.5343 55.6875 12.3493C55.75 12.4746 55.875 12.6627 55.9375 12.7881ZM69.625 26.7672C70 26.7045 70.375 26.7045 70.75 26.7672H70.8125C71.75 26.7672 72.75 26.7045 73.6875 26.7045C73.6875 26.7045 73.6875 26.6418 73.75 26.6418C73.75 26.5164 73.75 26.3911 73.75 26.2657C73.75 25.2 73.75 24.0717 73.6875 23.006C73.75 22.4418 73.625 21.8149 73.625 21.2508C73.625 20.6866 73.625 20.6866 73.0625 20.5612C71.8125 20.4358 70.625 20.4985 69.375 20.5612C69.125 20.5612 68.8125 20.5612 68.625 20.8119C68.5625 20.8746 68.4375 20.9373 68.5 21.0627C68.5625 21.1881 68.6875 21.1254 68.75 21.1254C70 21.1254 71.25 21.0627 72.4375 21.0627C72.5 21.0627 72.5625 21.0627 72.625 21.0627C72.75 21.0627 72.9375 21.0627 72.9375 21.2508C72.9375 21.4388 72.75 21.4388 72.625 21.4388C72.375 21.4388 72.125 21.4388 71.875 21.5015C70.75 21.5015 69.625 21.5642 68.5625 21.5642C68.375 21.5642 68.375 21.6896 68.375 21.8149C68.375 22.3791 68.375 22.9433 68.375 23.5075C68.375 23.7582 68.3125 23.9463 68.4375 24.197C68.375 24.3224 68.375 24.4478 68.375 24.5731C68.375 25.2 68.4375 25.8896 68.4375 26.5164C68.4375 26.5164 68.4375 26.5164 68.4375 26.5791C68.5 27.0179 68.5 27.0179 68.9375 26.8925C69.125 27.0179 69.375 26.8925 69.625 26.9552C69.5625 26.7672 69.625 26.7672 69.625 26.7672ZM51.9375 27.8955C51.875 28.0209 51.75 28.1463 51.6875 28.2716C51.4375 28.6478 51.1875 29.0239 50.9375 29.4C50.6875 29.7761 50.75 29.9642 51.1875 30.0896C51.375 30.1522 51.5625 30.1522 51.75 30.2149C52.1875 30.2149 52.625 30.2149 53.0625 30.2149C53.5625 30.2149 53.9375 30.403 54.3125 30.7164C54.6875 31.0925 55.0625 31.5314 55.4375 31.9075C55.8125 32.2836 56.3125 32.5343 56.875 32.597C59 32.7224 61.0625 32.7224 63.1875 32.597C63.6875 32.597 64.25 32.4717 64.75 32.2209C66.1875 31.4687 67.5625 30.5911 68.9375 29.7134C69.5 29.3373 69.5625 28.7731 69.125 28.2716C69.0625 28.1463 69 28.209 68.875 28.2716C67.625 29.1493 66.375 29.9015 65.0625 30.6537C64.1875 31.1552 63.3125 31.594 62.3125 31.9075C62.3125 31.9075 62.25 31.9075 62.25 31.9702C62.1875 31.9702 62.125 31.9702 62.125 31.9702H62.0625C61.5625 32.0955 61.0625 32.2209 60.5625 32.409C60 32.597 59.375 32.7851 58.9375 32.1582C58.875 32.0955 58.8125 32.0955 58.6875 32.0955C58.4375 32.0955 58.1875 32.0955 58 32.0955C57.375 32.0955 56.8125 32.0955 56.25 31.8448C56.1875 31.7821 56.125 31.7194 56.0625 31.7194C55.125 31.0925 54.5 30.2776 54.0625 29.2746C54.0625 29.2746 54.0625 29.2119 54 29.2119C53.9375 28.8985 54 28.5851 54.0625 28.2716V28.209C54.0625 28.0836 54.125 28.0209 54.125 27.8955C54.4375 27.0806 54.6875 26.2657 55 25.4508C55.0625 25.3254 54.9375 25.3254 54.875 25.3254C54.625 25.3254 54.4375 25.3254 54.1875 25.3254C54.125 25.2627 54 25.2627 53.9375 25.3254C53.875 25.3881 53.8125 25.4508 53.75 25.5134C53.125 26.203 52.5 27.0179 51.9375 27.7702C52 27.8328 52 27.8328 51.9375 27.8955ZM61.8125 21.1881C62 21.1254 62.1875 20.9373 62.375 20.8119C62.5 20.7493 62.625 20.5612 62.75 20.7493C62.875 20.9373 62.6875 21 62.625 21.0627C62.0625 21.5015 61.4375 21.8149 60.75 22.0657C60.625 22.1284 60.5 22.1911 60.5625 22.3164C60.6875 22.8179 60.8125 23.3194 61.0625 23.7582C61.3125 24.197 61.3125 24.197 61.75 23.9463C62.8125 23.4448 63.75 22.7552 64.25 21.6896C64.3125 21.5642 64.3125 21.1881 64.5625 21.3134C64.8125 21.4388 64.625 21.6896 64.5 21.8149C64 22.8179 63.1875 23.5075 62.25 24.009C61.6875 24.3224 61.1875 24.5731 61.3125 25.3254C61.3125 25.3881 61.3125 25.4508 61.25 25.5134C61.1875 25.8269 61.25 25.8896 61.5625 25.9522C63.25 26.3284 64.9375 26.1403 66.625 25.8896C66.8125 25.8269 66.875 25.7642 66.875 25.5761C66.8125 24.5731 66.6875 23.5702 66.4375 22.5672C66.1875 21.3761 65.8125 20.2478 65.125 19.1821C65 18.994 64.9375 18.9314 64.75 19.1194C64.125 19.6209 63.4375 19.9343 62.6875 20.1224C62.125 20.3105 61.75 20.4985 61.8125 21.1881ZM57.375 19.3075C57.5625 19.7463 57.9375 19.809 58.25 19.997C58.3125 19.997 58.3125 19.997 58.375 19.997C58.8125 19.6836 59.3125 19.6836 59.8125 19.6209C60.0625 19.6209 60.4375 19.6836 60.625 19.6209C61.1875 19.3702 61.75 19.0567 62.125 18.4925C62.25 18.3045 62.3125 18.1164 62.1875 17.8657C62.0625 17.6776 62.0625 17.3642 62 17.1761C61.875 16.3612 61.875 15.5463 61.6875 14.7314C61.6875 14.606 61.625 14.5433 61.5 14.4806C61.0625 14.3552 60.6875 14.1672 60.375 13.8537C60.0625 13.603 59.75 13.5403 59.375 13.603C58.6875 13.6657 58 13.7911 57.3125 13.7284C56.75 13.7284 56.75 13.7284 56.875 14.2299C57 15.0448 56.875 15.797 56.3125 16.4866C55.9375 16.9254 56 16.9881 56.4375 17.3015C56.8125 17.6149 57.1875 17.9284 57.0625 18.5552C57 18.9314 57.0625 18.994 57.4375 18.9314C57.9375 18.806 58.25 18.4925 58.375 17.9911C58.375 17.8657 58.4375 17.7403 58.5625 17.803C58.75 17.8657 58.6875 17.9911 58.6875 18.1164C58.5625 18.6806 58.1875 19.0567 57.625 19.2448C57.625 19.2448 57.5 19.3075 57.375 19.3075ZM61 24.5105C61.0625 24.2597 60.625 24.0717 60.5625 23.7582C60.5625 23.7582 60.4375 23.7582 60.375 23.7582C59.625 23.8836 58.8125 23.9463 58.0625 23.9463C57.9375 23.9463 57.8125 24.009 57.75 24.1343C57.625 24.3224 57.4375 24.5105 57.1875 24.4478C56.9375 24.3851 56.6875 24.5105 56.4375 24.5731C56.1875 24.6358 56.1875 24.7612 56.1875 24.9493C56.1875 25.3881 56.1875 25.7642 56.0625 26.1403C55.8125 27.0179 55.625 27.8328 55.375 28.7105C55.3125 28.8985 55.3125 29.0866 55.4375 29.2746C55.8125 29.9015 56.25 30.403 56.6875 30.9045C57 31.2179 57.3125 31.5314 57.6875 31.7821C57.9375 31.9702 58.0625 31.7194 58.25 31.594C58.3125 31.5314 58.375 31.5313 58.3125 31.406C57.9375 30.7164 57.8125 29.9642 57.6875 29.1493C57.5625 28.1463 57.875 27.3314 58.75 26.7672C59.3125 26.4537 59.875 26.203 60.5 26.0776C60.625 26.0776 60.8125 26.0149 60.8125 25.8269C60.875 25.3881 60.9375 25.0119 61 24.5105ZM75.5 23.0687C75.5 23.6328 75.5 24.2597 75.5 24.8239C75.5 25.0746 75.5625 25.1373 75.8125 25.1373C77 25.1373 78.125 25.1373 79.3125 25.1373C79.5 25.1373 79.625 25.0746 79.625 24.8866C79.625 23.6955 79.625 22.5045 79.625 21.3761C79.625 21.1881 79.5625 21.1254 79.375 21.1254C78.1875 21.1254 77 21.1254 75.8125 21.1254C75.5625 21.1254 75.5625 21.1881 75.5625 21.3761C75.5 21.9403 75.5 22.5045 75.5 23.0687ZM52.9375 36.2328C54.8125 36.2328 56 34.7284 56.0625 32.9731C56.0625 32.7851 56 32.7224 55.875 32.597C55.3125 32.2836 54.875 31.8448 54.5 31.406C54.1875 31.0299 53.875 30.5911 53.3125 30.5284C52.625 30.4657 52 30.5284 51.3125 30.403C51.1875 30.403 51.125 30.4657 51.0625 30.5284C50.0625 31.4687 49.75 32.7851 50.25 34.1015C50.6875 35.4179 51.75 36.2328 52.9375 36.2328ZM58.9375 28.7731C59 29.4627 59.1875 30.2149 59.5625 30.9045C59.8125 31.4687 60.0625 31.5313 60.6875 31.406C60.875 31.3433 60.875 31.2806 60.875 31.1552C60.8125 30.8418 60.75 30.5911 60.6875 30.2776C60.5 29.0866 60.8125 28.4597 61.875 28.2716C62.5 28.1463 63.0625 28.0836 63.6875 27.9582C64.3125 27.8328 64.9375 27.7702 65.5625 27.4567C65.875 27.2687 66.1875 27.0806 66.25 26.7045C66.3125 26.5164 66.3125 26.3911 66 26.4537C64.875 26.5791 63.8125 26.7045 62.6875 26.6418C62.3125 26.5791 61.9375 26.4537 61.625 26.5164C60.8125 26.6418 60.0625 26.9552 59.5 27.5194C59.125 27.7702 58.875 28.1463 58.9375 28.7731ZM62.375 31.406C62.4375 31.406 62.4375 31.406 62.4375 31.406C62.5625 31.3433 62.625 31.3433 62.75 31.2806C64.75 30.4657 66.5625 29.3373 68.375 28.1463C68.5 28.0209 68.8125 27.9582 68.8125 27.7702C68.8125 27.5194 68.5625 27.3314 68.3125 27.206C68.1875 27.1433 67.9375 27.1433 67.8125 27.0806C67.5625 27.0806 67.3125 27.0806 67.0625 27.0806C66.75 27.0179 66.5 27.0806 66.25 27.394C66.0625 27.6448 65.8125 27.7702 65.5 27.8328C64.9375 28.0209 64.375 28.1463 63.8125 28.209C63.375 28.2716 62.9375 28.2716 62.5 28.397C63.1875 29.2119 63.125 30.1522 62.375 31.406ZM69.5625 32.7224C69 32.7224 69 32.7224 69 33.2866C69 33.3493 69 33.3493 69 33.4119C68.9375 34.5403 67.9375 35.3552 66.8125 35.1672C65.5625 34.9164 65 34.0388 65.25 32.7224C65.25 32.6597 65.375 32.5343 65.25 32.4716C65.1875 32.409 65.0625 32.4716 65 32.4716C64.75 32.597 64.5 32.7224 64.1875 32.7851C64 32.8478 64.0625 32.9731 64.0625 33.0358C64.0625 33.7881 64.3125 34.4149 64.75 34.9791C65.5625 36.1075 66.875 36.4836 68.125 36.0448C69.25 35.606 70.0625 34.4149 70.125 33.1612C70.125 32.7224 70.125 32.7224 69.6875 32.7224C69.625 32.7224 69.5625 32.7224 69.5625 32.7224ZM61.25 31.6567C62.1875 31.406 62.9375 30.0896 62.5625 29.2119C62.3125 28.5851 61.9375 28.397 61.3125 28.7731C61.0625 28.8985 60.9375 29.1493 60.9375 29.4C60.9375 29.7134 60.9375 30.0269 61 30.3403C61.0625 30.7791 61.25 31.2179 61.25 31.6567ZM54.125 22.8179C54.4375 23.006 54.75 23.006 55 23.006C55.6875 23.006 55.5625 22.9433 55.625 23.6328C55.625 24.3224 55.625 24.3224 56.3125 24.197C56.3125 24.197 56.3125 24.197 56.375 24.197C55.9375 23.7582 56 23.006 56.5 22.7552C56.75 22.6299 56.8125 22.5045 56.8125 22.1911C56.8125 22.0657 56.75 21.8776 56.75 21.7522C56.6875 21.3134 56.625 21.2508 56.1875 21.4388C55.375 21.7522 54.6875 22.2537 54.125 22.8179ZM66.375 32.597C65.625 32.4716 65.5625 32.597 65.5625 33.3493C65.5625 33.4746 65.5625 33.6627 65.625 33.7881C65.875 34.4776 66.625 34.8537 67.25 34.8537C68 34.7911 68.5625 34.2269 68.6875 33.4746C68.75 32.7851 68.6875 32.7224 68 32.7224C68 32.7224 67.9375 32.7224 67.9375 32.7851C68.125 33.3493 68 33.7881 67.625 34.0388C67.3125 34.2269 66.8125 34.2269 66.5 33.9134C66.125 33.6 66.0625 33.1612 66.375 32.597ZM68.6875 27.0806C68.875 27.5194 69.125 27.6448 69.5625 27.6448C71 27.5821 72.375 27.5194 73.8125 27.5194C74 27.5194 74.125 27.5821 74.125 27.2687C74.125 27.0179 74 27.0179 73.8125 27.0179C72.8125 27.0806 71.75 27.0806 70.75 27.0806C70.0625 27.0806 69.4375 27.0806 68.6875 27.0806ZM56.5625 23.8836C56.625 23.5075 56.75 23.3194 57 23.3821C57.4375 23.5075 57.25 23.8209 57.125 24.0717C57.375 24.0717 57.5 24.009 57.5625 23.8209C57.625 23.6328 57.75 23.5702 57.9375 23.6328C58.6875 23.6328 59.4375 23.5702 60.1875 23.5075C60.25 23.5075 60.375 23.5075 60.375 23.4448C60.375 23.2567 60.25 23.006 60.25 22.8179C60.1875 22.6925 60.0625 22.7552 59.9375 22.7552C59.1875 22.9433 58.5 23.0687 57.75 23.0687C57.4375 23.0687 57.125 23.006 56.875 23.006C56.625 23.006 56.5 23.1314 56.4375 23.3194C56.375 23.5075 56.375 23.6955 56.5625 23.8836ZM59.5 20.9373C59.875 20.8746 60.25 20.8119 60.5 20.5612C60.75 20.3105 60.6875 20.0597 60.4375 19.997C59.8125 19.9343 59.25 19.9343 58.6875 20.1851C58.4375 20.3105 58.4375 20.5612 58.6875 20.7493C58.9375 20.8746 59.25 20.9373 59.5 20.9373ZM61.125 20.3731C61.875 20.0597 62.5 19.5582 62.875 18.8687C62.9375 18.806 63.0625 18.6806 62.9375 18.6179C62.8125 18.5552 62.625 18.3045 62.4375 18.6179C62.1875 19.0567 61.8125 19.3702 61.375 19.6209C61 19.809 60.9375 19.997 61.125 20.3731ZM67.0625 32.6597C66.6875 32.6597 66.5 32.9105 66.4375 33.2239C66.4375 33.5373 66.6875 33.7881 67.0625 33.7881C67.375 33.7881 67.6875 33.5373 67.6875 33.1612C67.6875 32.9105 67.4375 32.6597 67.0625 32.6597ZM61.5 20.6866C61.0625 20.8746 60.6875 21.0627 60.25 21.2508C60.125 21.3134 60.125 21.3761 60.125 21.5015C60.1875 21.7522 60.3125 21.9403 60.625 21.7522C60.8125 21.6269 61.0625 21.5642 61.25 21.5015C61.3125 21.5015 61.375 21.4388 61.4375 21.3761C61.4375 21.1254 61.4375 20.9373 61.5 20.6866ZM55.25 25.0746C55.375 25.0746 55.5 25.0119 55.6875 25.0119C55.9375 25.0119 55.875 24.8866 55.875 24.7612C55.875 24.5731 55.75 24.6358 55.625 24.6358C55.25 24.6985 54.875 24.6985 54.5 24.6358C54.375 24.6358 54.25 24.5731 54.25 24.7612C54.25 24.9493 54.3125 24.9493 54.4375 24.9493C54.75 25.0119 54.9375 25.0746 55.25 25.0746ZM53.5625 23.8209C53.5625 24.1343 53.8125 24.2597 54 24.2597C54.1875 24.2597 54.125 24.0717 54.1875 23.9463C54.25 23.8209 54.25 23.6328 54.3125 23.5075C54.3125 23.4448 54.375 23.3194 54.25 23.3194C54.125 23.3194 54 23.0687 53.875 23.2567C53.6875 23.3821 53.625 23.5702 53.5625 23.8209ZM57.125 22.5672C57.625 22.7552 58.125 22.6925 58.625 22.5672H57.125ZM59.1875 31.7821C58.6875 31.594 58.6875 31.594 58.5 31.8448C58.75 31.8448 59 31.8448 59.1875 31.7821ZM59.875 22.3164C59.875 22.3791 59.9375 22.4418 60 22.4418C60.0625 22.4418 60.125 22.3791 60.125 22.3164C60.125 22.2537 60.0625 22.1911 60 22.1911C60 22.1911 59.875 22.1911 59.875 22.3164ZM59.4375 22.4418C59.5625 22.5045 59.6875 22.5672 59.8125 22.4418V22.3791C59.625 22.3164 59.5625 22.5045 59.4375 22.4418ZM60.875 26.3911C60.875 26.3284 60.9375 26.3284 60.9375 26.3284L60.875 26.2657L60.8125 26.3284C60.875 26.3284 60.875 26.3284 60.875 26.3911ZM59.3125 22.5672C59.25 22.5045 59.25 22.5045 59.1875 22.5045C59.125 22.5045 59.125 22.5045 59.125 22.5672C59.125 22.5672 59.125 22.6299 59.1875 22.6299C59.1875 22.5672 59.25 22.5672 59.3125 22.5672Z" fill="#050101"/>
<path d="M74.4375 32.409C74.3125 32.4717 74.25 32.5343 74.1875 32.597C73.75 32.8478 73.3125 32.7851 73.0625 32.3463C72.75 31.8448 72.8125 31.3433 73.25 31.0925C73.5 30.9672 73.5625 30.8418 73.5 30.5911C73.5 30.2149 73.875 29.8388 74.25 29.9015C74.5625 29.9642 74.875 29.9015 75.1875 29.9642C75.375 29.9642 75.5625 30.0269 75.6875 29.9642C75.8125 29.9015 75.6875 29.6508 75.75 29.5254C75.8125 29.212 76.0625 28.9612 76.375 28.9612C76.5625 28.9612 76.75 28.9612 76.9375 28.8358C77.1875 28.6478 77.4375 28.6478 77.6875 28.8985C77.9375 29.0866 77.9375 29.4 77.75 29.7134C77.6875 29.8388 77.625 29.9015 77.6875 30.0896C77.8125 30.4657 77.6875 30.7791 77.375 30.9045C77.1875 30.9672 77.1875 31.0926 77.1875 31.2179C77.1875 31.9702 77.1875 32.7224 77.1875 33.412C77.1875 33.6627 77.25 33.7254 77.5 33.7254C80.8125 33.7254 84.0625 33.7254 87.375 33.7254C87.6875 33.7254 87.75 33.7881 87.75 34.1015C87.75 34.7911 87.75 35.4806 87.75 36.1702C87.75 36.4209 87.6875 36.4836 87.4375 36.4836C83.1875 36.4836 78.9375 36.4836 74.625 36.4836C74.375 36.4836 74.3125 36.4209 74.3125 36.1702C74.4375 34.8537 74.4375 33.6627 74.4375 32.409ZM75.5625 31.7194C75.5625 31.4687 75.375 31.2179 75.125 31.1552C74.8125 31.0926 74.6875 31.0299 74.6875 30.6537C74.6875 30.403 74.4375 30.1523 74.25 30.2149C74 30.2149 73.8125 30.4657 73.9375 30.7164C74.0625 31.0926 73.9375 31.2179 73.625 31.2806C73.375 31.3433 73.25 31.5314 73.25 31.7821C73.25 31.9702 73.3125 32.2209 73.5625 32.2836C73.8125 32.409 74 32.2836 74.125 32.1582C74.3125 31.9075 74.5 31.9702 74.6875 32.0955C75.1875 32.409 75.5625 32.1582 75.5625 31.7194ZM76.4375 29.212C76.1875 29.212 76.0625 29.4 76.0625 29.5881C76.0625 29.7761 76.25 29.9642 76.375 29.9015C76.75 29.7761 76.75 29.9642 76.75 30.2776C76.75 30.403 76.875 30.5284 77 30.5284C77.125 30.5284 77.3125 30.4657 77.375 30.3403C77.4375 30.2149 77.5 30.0269 77.375 29.9642C77.0625 29.7761 77.1875 29.6508 77.4375 29.4627C77.5625 29.4 77.6875 29.212 77.5 29.0239C77.375 28.8985 77.25 28.8985 77.125 29.0239C76.9375 29.212 76.75 29.4 76.4375 29.212Z" fill="#050101"/>
<path d="M82.25 18.5548C82.25 18.4923 82.1875 18.4923 82.1875 18.4298C82.25 18.4298 82.25 18.4923 82.25 18.5548Z" fill="#0D0D0C"/>
<path d="M82.1875 27.7075C82.25 27.7075 82.25 27.77 82.1875 27.7075V27.7075Z" fill="#0D0D0C"/>
<path d="M55.7496 12.2866C55.4996 11.409 55.6246 10.5941 55.8746 9.77915C56.3121 8.1493 57.4371 7.08362 58.8746 6.45676C61.1246 5.57915 63.3121 5.70452 65.3121 7.08362C67.0621 8.33736 68.0621 10.0299 68.2496 12.2239C68.3121 13.2269 68.3121 14.1672 68.0621 15.1702C67.7496 16.2986 67.0621 17.1135 66.0621 17.615C65.2496 17.9911 64.3746 18.1791 63.4996 18.2418C63.3746 17.4896 63.3121 16.7374 63.1871 15.9851C63.0621 15.2329 63.0621 14.4806 62.8121 13.7911C62.4371 12.7254 61.8121 12.2239 60.6871 12.2866C59.9996 12.2866 59.3121 12.412 58.6246 12.4747C57.6246 12.5374 56.6871 12.6 55.7496 12.2866Z" fill="#5ABAA3"/>
<path d="M61.8115 21.1881C61.749 20.5613 62.124 20.3105 62.6865 20.1851C63.4365 19.9971 64.124 19.6836 64.749 19.1822C64.9365 18.9941 64.999 19.0568 65.124 19.2448C65.8115 20.3105 66.1865 21.4389 66.4365 22.6299C66.624 23.6329 66.749 24.6359 66.874 25.6389C66.874 25.8269 66.8115 25.9523 66.624 25.9523C64.9365 26.2657 63.249 26.4538 61.5615 26.015C61.249 25.9523 61.1865 25.8269 61.249 25.5762C61.249 25.5135 61.3115 25.4508 61.3115 25.3881C61.1865 24.6359 61.624 24.3851 62.249 24.0717C63.249 23.5702 64.0615 22.8807 64.499 21.8777C64.5615 21.6896 64.8115 21.5016 64.5615 21.3762C64.3115 21.2508 64.3115 21.6269 64.249 21.7523C63.6865 22.818 62.749 23.5075 61.749 24.009C61.249 24.1971 61.249 24.1971 60.999 23.821C60.749 23.3822 60.624 22.8807 60.499 22.3792C60.4365 22.1911 60.5615 22.1284 60.6865 22.1284C61.374 21.8777 61.999 21.5642 62.5615 21.1254C62.6865 21.0628 62.8115 21.0001 62.6865 20.812C62.5615 20.6239 62.4365 20.812 62.3115 20.8747C62.1865 20.9374 61.999 21.0627 61.8115 21.1881Z" fill="#FEFEFE"/>
<path d="M57.3751 19.3074C57.5001 19.2447 57.6251 19.2447 57.6876 19.2447C58.2501 19.0567 58.6251 18.6805 58.7501 18.1164C58.8126 17.991 58.8126 17.8656 58.6251 17.8029C58.5001 17.8029 58.4376 17.8656 58.4376 17.991C58.3126 18.4925 58.0001 18.8059 57.5001 18.9313C57.1251 18.994 57.0626 18.9313 57.1251 18.5552C57.2501 17.9283 56.8751 17.6149 56.5001 17.3014C56.0626 16.9253 56.0001 16.9253 56.3751 16.4865C56.9376 15.797 57.0626 15.0447 56.9376 14.2298C56.8126 13.6656 56.8751 13.6656 57.3751 13.7283C58.0626 13.7283 58.7501 13.6656 59.4376 13.6029C59.8126 13.5402 60.1251 13.6029 60.4376 13.8537C60.7501 14.1671 61.1251 14.3552 61.5626 14.4805C61.6876 14.4805 61.7501 14.6059 61.7501 14.7313C61.9376 15.5462 61.9376 16.3611 62.0626 17.1761C62.1251 17.4268 62.1251 17.6776 62.2501 17.8656C62.3751 18.1164 62.3126 18.3044 62.1876 18.4925C61.8126 19.0567 61.2501 19.3701 60.6876 19.6208C60.4376 19.7462 60.1251 19.6208 59.8751 19.6208C59.3751 19.6208 58.8751 19.6835 58.4376 19.997C58.3751 19.997 58.3751 20.0596 58.3126 19.997C57.9376 19.8716 57.5626 19.7462 57.3751 19.3074ZM58.6876 13.9164C58.3126 13.9791 58.0626 14.1044 57.7501 14.2925C57.6876 14.1671 57.8126 14.1044 57.8126 13.9791C57.3751 14.1044 57.1876 14.3552 57.1251 14.9193C57.8751 14.794 58.6251 14.6686 59.3126 14.2298H58.6876C58.6251 14.1044 58.6876 14.0417 58.6876 13.9164ZM57.8751 15.4208C57.8126 15.2328 57.8126 15.0447 57.5626 15.0447C57.3751 15.0447 57.2501 15.2328 57.3126 15.4208C57.3126 15.6089 57.3751 15.797 57.6251 15.797C57.8126 15.7343 57.8751 15.5462 57.8751 15.4208Z" fill="#FEFEFE"/>
<path d="M62.3122 31.8448C63.3122 31.5941 64.1872 31.0926 65.0622 30.5911C66.3747 29.9016 67.6247 29.0866 68.8747 28.209C68.9372 28.1463 68.9997 28.0836 69.1247 28.209C69.5622 28.7732 69.5622 29.2747 68.9372 29.6508C67.5622 30.5284 66.1872 31.406 64.7497 32.1583C64.2497 32.409 63.7497 32.4717 63.1872 32.5344C61.0622 32.6598 58.9997 32.6598 56.8747 32.5344C56.3122 32.5344 55.8122 32.221 55.4372 31.8448C55.0622 31.4687 54.6872 31.0926 54.3122 30.6538C53.9997 30.2777 53.5622 30.1523 53.0622 30.1523C52.6247 30.1523 52.1872 30.1523 51.7497 30.1523C51.5622 30.1523 51.3747 30.0896 51.1872 30.0269C50.7497 29.9016 50.6872 29.7135 50.9372 29.3374C51.1872 28.9613 51.4372 28.5851 51.6872 28.209C51.7497 28.0836 51.8747 27.9583 51.9372 27.8329L51.9997 27.7702C52.6247 27.018 53.1872 26.2657 53.8122 25.5135C53.8747 25.4508 53.9372 25.3881 53.9997 25.3254C54.0622 25.4508 54.1872 25.4508 54.2497 25.3254C54.4997 25.3254 54.6872 25.3254 54.9372 25.3254C54.9372 25.3881 54.9997 25.4508 55.0622 25.4508C54.7497 26.2657 54.4997 27.0807 54.1872 27.8956C54.1247 28.021 54.1247 28.0836 54.1247 28.209V28.2717C53.9997 28.5851 53.9997 28.8986 54.0622 29.212C54.0622 29.212 54.0622 29.2747 54.1247 29.2747C54.5622 30.2777 55.2497 31.0926 56.1247 31.7195C56.1247 31.8448 56.1872 31.8448 56.3122 31.8448C56.8747 32.0956 57.4997 32.0956 58.0622 32.0956C58.3122 32.0956 58.5622 32.0956 58.7497 32.0956C58.8122 32.0956 58.9372 32.0956 58.9997 32.1583C59.4372 32.7851 60.0622 32.5971 60.5622 32.409C61.0622 32.1583 61.5622 32.0956 62.0622 31.9702H62.1247C62.1247 31.9075 62.1872 31.9075 62.3122 31.8448Z" fill="#942123"/>
<path d="M68.875 26.7045C68.4375 26.8299 68.4375 26.8299 68.375 26.3911V26.3284C68.375 25.7015 68.3125 25.012 68.3125 24.3851C68.3125 24.2597 68.25 24.1344 68.375 24.009C69.625 23.2567 70.6875 22.2538 71.8125 21.3761C72.0625 21.3761 72.3125 21.3761 72.5625 21.3135C72.6875 21.3135 72.875 21.3135 72.875 21.1254C72.875 20.9373 72.6875 20.9373 72.5625 20.9373C72.5 20.9373 72.4375 20.9373 72.375 20.9373C72.5625 20.6866 72.75 20.5612 73 20.4985C73.5625 20.6239 73.5625 20.6239 73.5625 21.1881C73.5625 21.7523 73.6875 22.3791 73.625 22.9433C72.75 23.6329 71.9375 24.4478 71 25.0747C70.3125 25.6388 69.625 26.203 68.875 26.7045Z" fill="#D4C931"/>
<path d="M52.9377 36.2329C51.7502 36.2329 50.6877 35.4179 50.1877 34.1642C49.6877 32.9105 50.0002 31.5314 51.0002 30.5911C51.0627 30.5284 51.1252 30.403 51.2502 30.4657C51.8752 30.5911 52.5627 30.4657 53.2502 30.5911C53.8127 30.6538 54.1252 31.0926 54.4377 31.4687C54.8752 31.9075 55.3127 32.3463 55.8127 32.6597C55.9377 32.7224 56.0002 32.8478 56.0002 33.0358C56.0002 34.7284 54.8127 36.2955 52.9377 36.2329ZM51.1252 33.2866C51.0627 34.3523 52.0002 35.1672 53.0627 35.1672C54.1877 35.1672 54.9377 34.2269 55.0002 33.2239C55.0002 32.1582 54.0627 31.2179 52.9377 31.2179C51.9377 31.2179 51.1252 32.1582 51.1252 33.2866Z" fill="#5A5353"/>
<path d="M58.9375 28.7732C58.9375 28.1463 59.125 27.7702 59.5 27.4567C60.125 26.8926 60.875 26.6418 61.625 26.4538C61.9375 26.3911 62.3125 26.5164 62.6875 26.5791C63.8125 26.7045 64.9375 26.5164 66 26.3911C66.3125 26.3284 66.3125 26.4537 66.25 26.6418C66.125 27.0179 65.875 27.2687 65.5625 27.394C65 27.7075 64.375 27.7702 63.6875 27.8955C63.0625 27.9582 62.4375 28.0836 61.875 28.209C60.8125 28.397 60.4375 29.0239 60.6875 30.2149C60.75 30.5284 60.8125 30.7791 60.875 31.0926C60.9375 31.2806 60.875 31.3433 60.6875 31.3433C60.0625 31.4687 59.875 31.406 59.5625 30.8418C59.1875 30.1523 58.9375 29.4 58.9375 28.7732Z" fill="#5ABAA3"/>
<path d="M62.375 31.4059C63.1875 30.1522 63.1875 29.2119 62.4375 28.5223C62.875 28.397 63.3125 28.397 63.75 28.3343C64.3125 28.2716 64.875 28.1462 65.4375 27.9582C65.6875 27.8328 66 27.7074 66.1875 27.5194C66.4375 27.2059 66.6875 27.1432 67 27.2059C67.25 27.2686 67.5 27.2059 67.75 27.2059C67.9375 27.2059 68.125 27.2059 68.25 27.3313C68.5 27.4567 68.6875 27.6447 68.75 27.8955C68.75 28.0835 68.5 28.1462 68.3125 28.2716C66.5 29.4626 64.6875 30.591 62.6875 31.4059C62.5625 31.4686 62.5 31.4686 62.375 31.5313C62.4375 31.4059 62.375 31.4059 62.375 31.4059Z" fill="#C7C6C7"/>
<path d="M69.5627 32.7224C69.6252 32.7224 69.6252 32.7224 69.6877 32.7224C70.1252 32.7224 70.1252 32.7224 70.1252 33.1613C70.0627 34.415 69.2502 35.6687 68.1252 36.0448C66.8127 36.5463 65.5002 36.1075 64.7502 34.9792C64.3127 34.415 64.0627 33.7254 64.0627 33.0359C64.0627 32.9105 64.0002 32.7851 64.1877 32.7851C64.5002 32.7224 64.7502 32.5971 65.0002 32.4717C65.0627 32.409 65.1877 32.409 65.2502 32.4717C65.3752 32.5344 65.2502 32.6598 65.2502 32.7224C64.9377 33.9762 65.5627 34.9165 66.8127 35.1672C67.8752 35.3553 68.9377 34.5404 69.0002 33.412C69.0002 33.3493 69.0002 33.3493 69.0002 33.2866C69.0002 32.7224 69.0002 32.7224 69.5627 32.7224Z" fill="#5A5353"/>
<path d="M68.875 26.7045C69.5625 26.203 70.3125 25.6388 71 25.1373C71.9375 24.5105 72.75 23.6955 73.625 23.006C73.75 24.0717 73.6875 25.1373 73.6875 26.2657C73.6875 26.3911 73.6875 26.5164 73.6875 26.6418C73.6875 26.6418 73.6875 26.7045 73.625 26.7045C72.6875 26.7045 71.6875 26.7672 70.75 26.7672H70.6875C70.3125 26.7672 69.9375 26.7045 69.5625 26.7672H69.5C69.3125 26.7672 69.125 26.8299 68.875 26.7045Z" fill="#942123"/>
<path d="M63.125 18.3045C62.6875 18.3045 62.5625 17.9284 62.4375 17.5522C62.3125 16.9881 62.3125 16.4239 62.25 15.9224C62.1875 15.4209 62.125 14.9194 62 14.4179C61.75 13.4149 61.3125 13.1642 60.3125 13.2269C59.5 13.2896 58.75 13.3522 57.9375 13.4149C57.5 13.4149 57.125 13.4776 56.6875 13.3522C56.375 13.2269 56.125 13.1015 55.9375 12.7881C56.25 12.7881 56.5 12.8508 56.8125 12.8508C58 12.9134 59.25 12.7881 60.4375 12.6627C61.4375 12.5373 61.9375 12.8508 62.375 13.7911C62.4375 13.9791 62.5 14.2299 62.5625 14.4179C62.75 15.7343 62.9375 16.9881 63.125 18.3045Z" fill="#5ABAA3"/>
<path d="M65.625 32.0955C65.75 32.0328 65.875 31.9701 66 31.9074C66.6875 31.3433 67.4375 31.2179 68.3125 31.2806C69.25 31.3433 70.1875 31.2806 71.1875 31.2179C71.375 31.2179 71.4375 31.2806 71.4375 31.4686C71.4375 32.2836 71.4375 32.2836 70.625 32.2836C69.4375 32.3463 68.25 32.4089 67.0625 32.2836C66.625 32.2209 66.125 32.2209 65.6875 32.1582L65.625 32.0955Z" fill="#FEFEFE"/>
<path d="M71.8125 21.3761C70.6875 22.3164 69.5625 23.2567 68.375 24.0089C68.25 23.8209 68.3125 23.5701 68.3125 23.3194C68.3125 22.7552 68.3125 22.191 68.3125 21.6268C68.3125 21.5015 68.3125 21.3761 68.5 21.3761C69.625 21.4388 70.6875 21.3761 71.8125 21.3761Z" fill="#942123"/>
<path d="M57.125 31.7821C55.75 31.5314 55.0625 30.403 54.4375 29.3373C54.3125 29.0866 54.3125 28.8358 54.375 28.5851C54.625 27.5194 55.125 26.5791 55.5 25.5135C55.5625 25.3254 55.6875 25.3881 55.8125 25.3881C56 25.3881 55.875 25.5135 55.875 25.6388C55.75 26.6418 55.375 27.5821 55.125 28.5224C55 28.8985 55.0625 29.1493 55.25 29.4627C55.75 30.2776 56.375 30.9672 57 31.5941C57.0625 31.5941 57.125 31.6567 57.125 31.7821Z" fill="#FEFEFE"/>
<path d="M63.125 18.3044C62.9375 16.988 62.75 15.7343 62.5625 14.4179C62.5625 14.1671 62.5 13.9791 62.375 13.791C62 12.8507 61.4375 12.6 60.4375 12.6627C59.25 12.788 58 12.9134 56.8125 12.8507C56.5 12.8507 56.25 12.788 55.9375 12.788C55.8125 12.6627 55.75 12.5373 55.75 12.3492C56.6875 12.6627 57.625 12.5373 58.5625 12.5373C59.25 12.4746 59.9375 12.4119 60.625 12.3492C61.75 12.2865 62.375 12.788 62.75 13.8537C63 14.5432 63 15.2955 63.125 16.0477C63.25 16.8 63.3125 17.5522 63.4375 18.3044C63.3125 18.3044 63.1875 18.3044 63.125 18.3044Z" fill="#FEFEFE"/>
<path d="M54.125 22.8179C54.75 22.191 55.375 21.7522 56.125 21.3761C56.5625 21.188 56.625 21.2507 56.6875 21.6895C56.6875 21.8149 56.75 22.0029 56.75 22.1283C56.8125 22.3791 56.75 22.5044 56.4375 22.6925C55.9375 22.9432 55.9375 23.6328 56.3125 24.1343C56.3125 24.1343 56.3125 24.1343 56.25 24.1343C55.625 24.385 55.625 24.385 55.625 23.6328C55.625 22.9432 55.75 23.0059 55 23.0059C54.75 23.0059 54.4375 23.0059 54.125 22.8179Z" fill="#C7C6C7"/>
<path d="M66.3754 32.597C66.1254 33.1612 66.1254 33.6 66.5004 33.9135C66.8129 34.1642 67.3129 34.2269 67.6254 34.0388C68.0004 33.7881 68.1254 33.3493 67.9379 32.7851C67.9379 32.7851 68.0004 32.7851 68.0004 32.7224C68.6879 32.7224 68.7504 32.7851 68.6879 33.4747C68.6254 34.1642 68.0004 34.7911 67.2504 34.8538C66.6254 34.9164 65.8129 34.5403 65.6254 33.7881C65.5629 33.6627 65.5629 33.4747 65.5629 33.3493C65.5004 32.597 65.5629 32.4717 66.3754 32.597Z" fill="#FEFEFE"/>
<path d="M60.2501 26.5165C60.1251 26.5792 59.9376 26.7045 59.8126 26.7672C58.6876 27.3941 58.3751 28.1463 58.6876 29.4627C58.7501 29.7762 58.8751 30.0896 59.0001 30.4657C59.1251 30.7792 59.2501 31.0926 59.4376 31.3433C58.8126 31.4687 58.6876 31.3433 58.5001 30.7792C58.2501 30.0896 58.1251 29.4001 58.1251 28.7105C58.0626 28.021 58.3751 27.5195 58.9376 27.0807C59.2501 26.8299 59.7501 26.6419 60.2501 26.5165Z" fill="#5ABAA3"/>
<path d="M68.6875 27.0806C69.375 27.0806 70.0625 27.0806 70.6875 27.0806C71.6875 27.0806 72.75 27.0179 73.75 27.0179C73.9375 27.0179 74.0625 27.0179 74.0625 27.2687C74.0625 27.5821 73.9375 27.5194 73.75 27.5194C72.3125 27.5821 70.9375 27.5821 69.5 27.6448C69.125 27.6448 68.9375 27.5194 68.6875 27.0806Z" fill="#FEFEFE"/>
<path d="M56.5618 23.8835C56.3118 23.7582 56.3743 23.5701 56.4368 23.3194C56.4993 23.1313 56.6243 22.9432 56.8743 23.0059C57.1868 23.0059 57.4993 23.0686 57.7493 23.0686C58.4993 23.0686 59.1868 22.9432 59.9368 22.7552C60.0618 22.7552 60.1868 22.6298 60.2493 22.8179C60.3118 23.0059 60.4368 23.194 60.3743 23.4447C60.3743 23.5074 60.2493 23.5074 60.1868 23.5074C59.4368 23.5701 58.6868 23.6955 57.9368 23.6328C57.7493 23.6328 57.6243 23.6328 57.5618 23.8208C57.4993 24.0089 57.3743 24.1343 57.1243 24.0716C57.2493 23.8208 57.4368 23.5074 56.9993 23.382C56.8118 23.3193 56.6243 23.4447 56.5618 23.8835Z" fill="#FEFEFE"/>
<path d="M72.9995 20.5611C72.7495 20.6865 72.4995 20.8119 72.3745 21C71.1245 21 69.8745 21.0626 68.687 21.0626C68.6245 21.0626 68.4995 21.1253 68.437 21C68.3745 20.8746 68.4995 20.8119 68.562 20.7492C68.7495 20.5611 69.062 20.5611 69.312 20.4985C70.562 20.4985 71.7495 20.4358 72.9995 20.5611Z" fill="#942123"/>
<path d="M59.5 20.9373C59.25 20.8746 58.9375 20.8746 58.6875 20.7492C58.4375 20.5612 58.4375 20.3104 58.6875 20.185C59.25 19.9343 59.875 19.9343 60.4375 19.997C60.6875 20.0597 60.6875 20.3104 60.5 20.5612C60.25 20.8119 59.875 20.8746 59.5 20.9373Z" fill="#D4C931"/>
<path d="M65.25 18.3672C64.9375 18.6179 64.6875 18.806 64.375 19.0567C63.9375 19.3702 63.5 19.5582 63 19.7463C62.875 19.809 62.8125 19.809 62.625 19.809C62.9375 19.4955 63.1875 19.1821 63.375 18.806C63.375 18.7433 63.4375 18.6806 63.5 18.6806C64 18.6179 64.5625 18.4926 65.0625 18.4299C65.125 18.3672 65.1875 18.3672 65.25 18.3672Z" fill="#FEFEFE"/>
<path d="M61.1258 20.3731C60.9383 19.997 61.0008 19.809 61.3758 19.6209C61.8133 19.3702 62.1883 19.0567 62.4383 18.6179C62.6258 18.3672 62.7508 18.6179 62.9383 18.6179C63.1258 18.6806 62.9383 18.806 62.8758 18.8687C62.4383 19.5582 61.8133 20.0597 61.1258 20.3731Z" fill="#584F4F"/>
<path d="M67.0625 32.6597C67.4375 32.6597 67.6875 32.9104 67.6875 33.2238C67.6875 33.5373 67.4375 33.8507 67.0625 33.8507C66.75 33.8507 66.4375 33.6 66.4375 33.2865C66.5 32.9104 66.75 32.6597 67.0625 32.6597Z" fill="#FEFEFE"/>
<path d="M61.4991 20.6865C61.4991 20.9373 61.4366 21.1253 61.4366 21.3134C61.4366 21.4388 61.3116 21.4388 61.2491 21.4388C61.0616 21.5014 60.8116 21.6268 60.6241 21.6895C60.3116 21.8776 60.1866 21.6895 60.1241 21.4388C60.0616 21.3134 60.1241 21.2507 60.2491 21.188C60.6866 21.0626 61.0616 20.8746 61.4991 20.6865Z" fill="#FEFEFE"/>
<path d="M55.2492 23.3821C55.2492 23.5702 55.2492 23.6956 55.2492 23.8836C55.2492 24.009 55.3742 24.2598 55.1867 24.3224C54.9992 24.3851 54.7492 24.3224 54.4992 24.3224L54.4367 24.2598C54.3117 24.0717 54.6242 23.3821 54.8742 23.3195C54.8742 23.3195 54.9367 23.3821 54.9367 23.3195C55.0617 23.3195 55.1242 23.3195 55.2492 23.3821Z" fill="#D4C931"/>
<path d="M55.25 25.0746C54.9375 25.0746 54.75 25.0119 54.5 25.0119C54.3125 25.0119 54.3125 24.9492 54.3125 24.8239C54.3125 24.6358 54.4375 24.6358 54.5625 24.6985C54.9375 24.6985 55.3125 24.7612 55.6875 24.6985C55.8125 24.6985 55.9375 24.6358 55.9375 24.8239C55.9375 24.9492 55.9375 25.0746 55.75 25.0746C55.5 25.0119 55.375 25.0746 55.25 25.0746Z" fill="#FEFEFE"/>
<path d="M53.5625 23.8209C53.5625 23.6328 53.6875 23.3821 53.8125 23.2567C53.9375 23.0686 54.0625 23.3194 54.1875 23.3194C54.3125 23.3194 54.25 23.4448 54.25 23.5075C54.1875 23.6328 54.1875 23.8209 54.125 23.9463C54.0625 24.0716 54.1875 24.2597 53.9375 24.2597C53.8125 24.197 53.5625 24.1343 53.5625 23.8209Z" fill="#FEFEFE"/>
<path d="M67.6875 30.9045C67.875 30.7791 68 30.7164 68.1875 30.591C68.625 30.3403 68.625 30.3403 68.9375 30.6537C69 30.7164 69.0625 30.7791 69.1875 30.9045H67.6875Z" fill="#942123"/>
<path d="M60.8125 31.782C60.5 32.1582 60.0625 32.2209 59.5625 32.1582C59.4375 32.1582 59.4375 32.0955 59.5 31.9701C59.625 31.8447 59.75 31.7194 59.9375 31.7194C60.25 31.782 60.5 31.782 60.8125 31.782Z" fill="#942123"/>
<path d="M57.125 22.5671H58.625C58.1875 22.6921 57.6875 22.7546 57.125 22.5671Z" fill="#FEFEFE"/>
<path d="M59.1875 31.7817C59 31.8442 58.75 31.8442 58.5 31.8442C58.6875 31.5942 58.6875 31.5942 59.1875 31.7817Z" fill="#0D0D0C"/>
<path d="M59.875 22.316C59.875 22.2535 60 22.191 60.0625 22.191C60.125 22.191 60.1875 22.2535 60.1875 22.316C60.1875 22.441 60.125 22.441 60.0625 22.441C59.9375 22.441 59.875 22.3785 59.875 22.316Z" fill="#0D0D0C"/>
<path d="M59.4375 22.4415C59.5625 22.504 59.6875 22.3165 59.8125 22.379V22.4415C59.625 22.5665 59.5625 22.504 59.4375 22.4415Z" fill="#0D0D0C"/>
<path d="M54.3125 25.3878C54.25 25.5128 54.125 25.5128 54.0625 25.3878C54.125 25.2628 54.25 25.2628 54.3125 25.3878Z" fill="#0D0D0C"/>
<path d="M60.875 26.3906L60.8125 26.3281L60.875 26.2656C60.875 26.2656 60.9375 26.2656 60.9375 26.3281C60.9375 26.3281 60.9375 26.3281 60.875 26.3906Z" fill="#0D0D0C"/>
<path d="M56.25 31.8444C56.125 31.9069 56.0625 31.8444 56.0625 31.7194C56.1875 31.7819 56.25 31.7819 56.25 31.8444Z" fill="#0D0D0C"/>
<path d="M67.6875 30.9045C67.625 31.0295 67.625 31.0295 67.5625 30.967C67.5625 30.9045 67.625 30.9045 67.6875 30.9045Z" fill="#0D0D0C"/>
<path d="M55.125 25.5131C55.0625 25.5131 55.0625 25.4506 55 25.3881C55.0625 25.3881 55.125 25.3256 55.125 25.5131Z" fill="#0D0D0C"/>
<path d="M59.3125 22.5668C59.25 22.5668 59.25 22.5668 59.1875 22.5668C59.1875 22.5668 59.125 22.5668 59.125 22.5043C59.125 22.4418 59.125 22.4418 59.1875 22.4418C59.25 22.5043 59.25 22.5043 59.3125 22.5668Z" fill="#0D0D0C"/>
<path d="M60.25 26.4536C60.3125 26.3911 60.375 26.3911 60.375 26.4536C60.3125 26.5161 60.3125 26.5161 60.25 26.4536C60.25 26.5161 60.25 26.5161 60.25 26.4536Z" fill="#5ABAA3"/>
<path d="M52 27.8329L51.9375 27.8954C52 27.8329 52 27.8329 52 27.8329Z" fill="#0D0D0C"/>
<path d="M68.375 26.3284C68.4375 26.3284 68.4375 26.3909 68.375 26.3284V26.3284Z" fill="#0D0D0C"/>
<path d="M54.0625 29.3372C54.0625 29.3372 54.0625 29.2747 54 29.2747C54 29.2747 54.0625 29.2747 54.0625 29.3372Z" fill="#0D0D0C"/>
<path d="M75.5625 31.7194C75.5625 32.2209 75.1875 32.4089 74.6875 32.1582C74.4375 32.0328 74.3125 31.9701 74.125 32.2209C74 32.4089 73.75 32.4716 73.5625 32.3462C73.375 32.2209 73.25 32.0328 73.25 31.8448C73.25 31.594 73.375 31.4059 73.625 31.3433C73.9375 31.2179 74.0625 31.0925 73.9375 30.7791C73.875 30.5283 74 30.2776 74.25 30.2776C74.5 30.2776 74.75 30.4656 74.6875 30.7164C74.625 31.0925 74.8125 31.1552 75.125 31.2179C75.4375 31.2179 75.5625 31.4686 75.5625 31.7194Z" fill="#FEFEFE"/>
<path d="M76.438 29.2119C76.688 29.4 76.8755 29.2119 77.1255 29.0238C77.2505 28.8985 77.3755 28.8985 77.5005 29.0238C77.6255 29.2119 77.563 29.3373 77.438 29.4626C77.188 29.6507 77.063 29.7134 77.3755 29.9641C77.5005 30.0268 77.5005 30.2149 77.3755 30.3403C77.313 30.4656 77.188 30.5283 77.0005 30.5283C76.8755 30.5283 76.7505 30.4029 76.7505 30.2776C76.7505 29.9641 76.7505 29.8388 76.3755 29.9015C76.188 29.9641 76.0005 29.7761 76.063 29.588C76.1255 29.4 76.188 29.2119 76.438 29.2119Z" fill="#FEFEFE"/>
<path d="M58.75 13.9792C58.6875 14.0418 58.625 14.1045 58.5625 14.2299H59.1875C58.5625 14.6687 57.8125 14.8568 57 14.9195C57.0625 14.3553 57.25 14.1045 57.6875 13.9792C57.75 14.1045 57.625 14.1672 57.625 14.2926C58.0625 14.1045 58.375 13.9792 58.75 13.9792Z" fill="#0D0D0C"/>
<path d="M57.875 15.4209C57.8125 15.5463 57.8125 15.797 57.625 15.797C57.375 15.797 57.3125 15.609 57.3125 15.4209C57.3125 15.2329 57.375 15.0448 57.5625 15.0448C57.8125 15.0448 57.8125 15.2329 57.875 15.4209Z" fill="#0D0D0C"/>
<path d="M51.1258 33.2866C51.1258 32.1582 51.9383 31.2179 52.9383 31.2179C54.0008 31.2179 55.0008 32.1582 55.0008 33.2239C55.0008 34.2269 54.2508 35.1671 53.0633 35.1671C52.0633 35.1671 51.0633 34.3522 51.1258 33.2866ZM51.5008 33.2866C51.5008 34.1642 52.1883 34.791 53.0633 34.791C53.8758 34.791 54.6258 34.1015 54.6258 33.2239C54.6258 32.3463 53.8758 31.594 52.9383 31.594C52.1258 31.594 51.5008 32.3463 51.5008 33.2866Z" fill="#0D0D0C"/>
<path d="M51.5 33.2865C51.5 32.3462 52.1875 31.594 52.9375 31.594C53.875 31.594 54.625 32.3462 54.625 33.2238C54.625 34.1015 53.9375 34.8537 53.0625 34.791C52.1875 34.791 51.5 34.1641 51.5 33.2865ZM53.0625 34.1641C53.5625 34.1641 54 33.7253 54 33.2238C54 32.7224 53.5625 32.2835 53.125 32.2835C52.625 32.2835 52.1875 32.7224 52.1875 33.2238C52.0625 33.7253 52.5 34.1641 53.0625 34.1641Z" fill="#FEFEFE"/>
<path d="M53.0625 34.1642C52.5625 34.1642 52.125 33.7254 52.125 33.2239C52.125 32.7224 52.5625 32.2836 53.0625 32.2836C53.5625 32.2836 54 32.7224 53.9375 33.2239C53.9375 33.7254 53.5625 34.1642 53.0625 34.1642ZM53.0625 33.788C53.375 33.788 53.6875 33.5373 53.6875 33.1612C53.6875 32.8477 53.4375 32.5343 53.125 32.5343C52.8125 32.5343 52.5 32.8477 52.5 33.1612C52.4375 33.5373 52.6875 33.788 53.0625 33.788Z" fill="#0D0D0C"/>
<path d="M53.0625 33.7881C52.75 33.7881 52.4375 33.5373 52.4375 33.2239C52.4375 32.9105 52.75 32.597 53.0625 32.597C53.375 32.597 53.625 32.9105 53.625 33.2239C53.625 33.5373 53.375 33.7881 53.0625 33.7881Z" fill="#FEFEFE"/>
<path d="M61.5625 16.9254C61.5625 17.7404 60.9375 18.3672 60.125 18.3672C59.3125 18.3672 58.6875 17.7404 58.6875 16.9254C58.6875 16.1105 59.3125 15.4836 60.125 15.4836C60.9375 15.4836 61.5625 16.1105 61.5625 16.9254Z" fill="#F0D4D8"/>
</g>
<defs>
<clipPath id="clip0_66_23042">
<rect width="110" height="42" fill="white"/>
</clipPath>
</defs>
</svg>
