<svg width="180" height="58" viewBox="0 0 180 58" fill="none" xmlns="http://www.w3.org/2000/svg">
<g clip-path="url(#clip0_74_10764)">
<path d="M89.5797 37.3081V39.7117H69.8594V37.3081H78.3559V32.9189H71.4328V20.6919H74.0552V23.827H85.3839V20.6919H88.0062V33.0234H81.0832V37.4126H89.5797V37.3081ZM85.3839 26.1261H74.0552V30.6198H85.3839V26.1261Z" fill="#595757"/>
<path d="M102.273 31.6649H99.6503V22.782H91.7832V20.3784H102.378V31.6649H102.273ZM93.1468 40.8613V33.0234H95.8741V38.5622H110.874V40.9658H93.1468V40.8613ZM107.622 19.7514H110.35V33.546H107.622V27.2757H104.056V24.9766H107.622V19.7514Z" fill="#595757"/>
<path d="M133.636 30.3063V32.6054H113.811V30.3063H122.307V28.4252H115.384V19.9604H118.006V21.9459H129.335V19.9604H131.957V28.4252H125.034V30.3063H133.636ZM132.062 34.382V41.2793H129.335V36.5766H114.859V34.2775H132.062V34.382ZM129.335 24.245H118.006V26.2306H129.335V24.245Z" fill="#595757"/>
<path d="M136.259 23.5135V21.1099H149.056V23.5135H143.706L149.685 37.6216L147.273 38.6667L142.657 27.6937L138.147 38.8757L135.734 37.8306L141.713 23.618H136.259V23.5135ZM152.308 19.7514H155.035V41.2793H152.308V19.7514Z" fill="#595757"/>
<path d="M158.182 33.3369H178.007V35.7405H169.405V41.2793H166.678V35.7405H158.182V33.3369ZM162.377 22.8865H173.706V20.1694H176.328V30.5153H159.755V20.1694H162.377V22.8865ZM173.706 25.1856H162.377V28.1117H173.706V25.1856Z" fill="#595757"/>
<path d="M39.2004 27.3C35.2004 24.6 30.2004 25.7 27.5004 29.8C25.3004 33.2 21.9004 33.6 20.6004 33.6C16.4004 33.6 13.5004 30.6 12.6004 27.5V27.4V27.3C12.3004 26 12.2004 25.4 12.2004 24C12.2004 16.6 19.8004 8.39999 30.7004 8.39999C41.9004 8.39999 48.3004 16.9 49.9004 21.7C49.9004 21.6 49.8004 21.5 49.8004 21.4C46.5004 12.1 37.8004 5.39999 27.4004 5.39999C14.4004 5.39999 3.90039 16 3.90039 29C3.90039 40.6 12.3004 50.6 23.9004 50.6C33.2004 50.6 39.4004 45.4 42.2004 38.2C43.8004 34.3 42.7004 29.7 39.2004 27.3Z" fill="#003763"/>
<path d="M49.9 22.1C48.5 17.5 42.1 8.39999 30.5 8.39999C19.6 8.39999 12 16.6 12 24C12 25.4 12.1 26 12.4 27.3C12.3 26.7 12.2 26.2 12.2 25.6C12.2 17.9 19.9 12.6 27.8 12.6C38.5 12.6 47.2 21.3 47.2 32C47.2 40.4 42.4 47.7 35.3 51.2C44.5 47.9 51 39.2 51 29C51 26.6 50.6 24.5 49.9 22.1Z" fill="#E4022D"/>
</g>
<defs>
<clipPath id="clip0_74_10764">
<rect width="180" height="58" fill="white"/>
</clipPath>
</defs>
</svg>
