<svg width="110" height="45" viewBox="0 0 110 45" fill="none" xmlns="http://www.w3.org/2000/svg">
<path d="M35.6641 43.9616H70.3828L53.3672 3.20193L35.6641 43.9616Z" fill="url(#paint0_linear_66_21699)"/>
<path d="M12.5469 7.26923L14.0078 3.20192L14.1797 2.76923C14.4375 2.76923 14.7812 2.85576 15.0391 2.85576C15.2969 2.85576 15.5547 2.76923 15.8984 2.76923C15.125 4.24038 9.79688 16.875 8.85156 19.5577C8.67969 19.5577 8.50781 19.4711 8.33594 19.4711C8.16406 19.4711 7.99219 19.5577 7.82031 19.5577C5.15625 13.8461 1.54688 4.84615 0.515625 2.76923C0.859375 2.85576 1.28906 2.85576 1.71875 2.85576C2.14844 2.85576 2.49219 2.76923 2.92188 2.76923C3.17969 3.54807 3.4375 4.32692 3.78125 5.1923L5.41406 9.51923L8.42188 16.9615H8.59375C9.02344 15.9231 9.53906 14.9712 9.96875 14.0192L12.5469 7.26923Z" fill="black"/>
<path d="M21.2266 2.76923C21.5703 2.76923 21.9141 2.85576 22.2578 2.85576C22.6016 2.85576 22.9453 2.76923 23.2891 2.76923V19.5577C22.8594 19.5577 22.6016 19.4711 22.2578 19.4711C21.9141 19.4711 21.5703 19.5577 21.2266 19.5577V2.76923Z" fill="black"/>
<path d="M40.7344 7.26923L42.1953 3.20192L42.3672 2.76923C42.625 2.76923 42.9688 2.85576 43.2266 2.85576C43.4844 2.85576 43.7422 2.76923 44.0859 2.76923C43.3125 4.24038 37.9844 16.875 37.0391 19.5577C36.8672 19.5577 36.6953 19.4711 36.5234 19.4711C36.3516 19.4711 36.1797 19.5577 36.0078 19.5577C33.2578 13.7596 29.7344 4.84615 28.6172 2.76923C28.9609 2.76923 29.3906 2.85576 29.8203 2.85576C30.25 2.85576 30.5937 2.76923 31.0234 2.76923C31.3672 3.54807 31.625 4.32692 31.8828 5.1923L33.5156 9.51923L36.5234 16.9615H36.7812C37.2109 15.9231 37.7266 14.9712 38.1563 14.0192L40.7344 7.26923Z" fill="black"/>
<path d="M69.6094 18.3461C71.0703 18.4327 72.875 18.2596 74.3359 18.2596C75.1094 18.2596 75.8828 18.1731 76.6562 18C76.6562 18.2596 76.5703 18.5192 76.5703 18.7788C76.5703 19.0385 76.6562 19.2981 76.6562 19.5577H67.4609V2.76923C67.8047 2.76923 68.1484 2.85576 68.4922 2.85576C68.8359 2.85576 69.1797 2.76923 69.5234 2.76923V18.3461H69.6094Z" fill="black"/>
<path d="M86.0234 3.80768C87.0547 3.80768 87.4844 3.72114 88.5156 3.72114C93.9297 3.72114 96.0781 5.62499 96.0781 10.8173C96.0781 13.8461 95.2187 16.5288 92.5547 17.8269C90.5781 18.8654 88.1719 18.5192 86.0234 18.4327V3.80768ZM83.875 19.4711H88C90.5781 19.4711 93.2422 19.3846 95.3047 17.5673C97.1094 15.9231 98.3984 13.7596 98.3984 10.2981C98.3984 7.96152 97.625 5.71153 95.8203 4.15383C93.7578 2.42306 91.3516 2.68268 88.7734 2.68268H83.875V19.4711Z" fill="black"/>
<path d="M106.477 2.76923C106.82 2.76923 107.164 2.85576 107.508 2.85576C107.852 2.85576 108.195 2.76923 108.539 2.76923V19.5577C108.109 19.5577 107.852 19.4711 107.508 19.4711C107.164 19.4711 106.82 19.5577 106.477 19.5577V2.76923Z" fill="black"/>
<path d="M23.375 28.2115C24.0625 28.125 25.8672 28.125 26.8984 28.2115C28.7891 28.3846 29.6484 29.6827 29.6484 31.4134C29.6484 33.5769 28.2734 35.1346 25.7812 35.3942C24.9219 35.4808 23.9766 35.4808 23.375 35.3942V28.2115ZM23.375 36.3461C23.9766 36.3461 25.5234 36.5192 26.6406 36.2596C30.0781 35.5673 31.7969 34.1827 31.7969 31.2404C31.7969 28.2981 30.25 27.1731 25.5234 27.1731H21.1406V43.9615C21.4844 43.9615 21.8281 43.875 22.1719 43.875C22.5156 43.875 22.8594 43.9615 23.2031 43.9615V36.3461H23.375Z" fill="black"/>
<path d="M80.0078 28.125C81.0391 28.0385 82.6719 28.0385 83.6172 28.125C85.4219 28.3846 86.2813 29.5096 86.2813 31.2404C86.2813 33.1442 84.9063 34.3558 83.1875 34.7885C81.9844 35.0481 80.4375 34.9615 80.0937 34.875V28.125H80.0078ZM77.8594 44.0481C78.2031 44.0481 78.5469 43.9615 78.8906 43.9615C79.2344 43.9615 79.5781 44.0481 79.9219 44.0481V35.8269H80.8672L82.8438 38.1635L85.6797 41.8846C86.1953 42.5769 86.7109 43.2692 87.2266 44.0481C87.6562 44.0481 88.1719 43.9615 88.6016 43.9615C89.0312 43.9615 89.4609 44.0481 89.9766 44.0481L89.5469 43.4423L88.3438 42.0577L83.3594 35.6538C85.8516 35.2212 88.3438 33.8365 88.3438 30.9808C88.3438 28.4712 86.7109 27.2596 82.9297 27.2596H77.7734V44.0481H77.8594Z" fill="black"/>
<path d="M102.953 32.625L100.891 34.7019C102.867 36.9519 104.844 39.2019 106.82 41.4519L108.797 43.875V43.9615C108.281 43.9615 107.852 43.875 107.422 43.875C106.992 43.875 106.477 43.9615 106.047 43.9615C105.531 43.1827 105.016 42.4038 104.414 41.7115L99.0859 35.4808C99 35.3942 98.6563 35.3077 98.6563 35.3942V43.9615C98.2266 43.9615 97.9687 43.875 97.625 43.875C97.2812 43.875 96.9375 43.9615 96.5938 43.9615V27.2596C96.9375 27.2596 97.2812 27.3462 97.625 27.3462C97.9687 27.3462 98.3125 27.2596 98.6563 27.2596V34.875C98.6563 35.0481 99 34.9615 99.2578 34.7019C99.6875 34.3558 100.203 33.8365 100.547 33.4904L106.562 27.2596C106.906 27.2596 107.164 27.3462 107.508 27.3462C107.766 27.3462 108.109 27.2596 108.453 27.2596L102.953 32.625Z" fill="black"/>
<path d="M69.4375 44.2212C69.4375 44.2212 70.4687 43.7885 71.9297 44.1346L53.4531 1.125L34.8047 44.3077C34.8047 44.3077 36.0938 44.1346 36.8672 44.3942L53.2812 4.93269L69.4375 44.2212Z" fill="black"/>
<defs>
<linearGradient id="paint0_linear_66_21699" x1="53.0607" y1="1.70412" x2="53.0607" y2="43.0807" gradientUnits="userSpaceOnUse">
<stop stop-color="#0097E0"/>
<stop offset="0.0559587" stop-color="#009ED3"/>
<stop offset="0.1964" stop-color="#3FB2AD"/>
<stop offset="0.3239" stop-color="#88C387"/>
<stop offset="0.4342" stop-color="#ADD066"/>
<stop offset="0.5228" stop-color="#C1D84D"/>
<stop offset="0.5787" stop-color="#C8DA41"/>
<stop offset="0.6302" stop-color="#CDDD56"/>
<stop offset="0.7346" stop-color="#DAE687"/>
<stop offset="0.8809" stop-color="#EFF4CC"/>
<stop offset="1" stop-color="white"/>
</linearGradient>
</defs>
</svg>
