<svg width="110" height="17" viewBox="0 0 110 17" fill="none" xmlns="http://www.w3.org/2000/svg">
<g clip-path="url(#clip0_66_21619)">
<path fill-rule="evenodd" clip-rule="evenodd" d="M60.2043 7.89866C60.2043 7.89866 59.1537 7.21606 58.4851 6.98853C58.4851 6.98853 56.4793 6.04589 56.0654 5.59082C56.0654 5.59082 55.2694 4.84321 55.747 3.96558C55.747 3.96558 55.938 3.3805 56.7658 3.3805C56.7658 3.3805 57.8483 3.44551 57.8483 4.35564V5.65583H61.7325V3.77055C61.7325 3.77055 62.0191 0.6826 57.1479 0.520076C57.1479 0.520076 53.3273 0.260038 52.213 2.37285C52.213 2.37285 51.7673 2.82792 51.7673 4.48566V5.65583C51.7673 5.65583 51.7354 7.02103 52.404 7.89866C52.404 7.89866 52.7861 8.48375 53.7412 9.10134C53.7412 9.10134 55.6833 10.174 56.8295 10.7591C56.8295 10.7591 58.0075 11.4417 57.8483 12.5143C57.8483 12.5143 57.7528 13.6195 56.6385 13.587C56.6385 13.587 55.6197 13.5545 55.6197 12.4493V11.1491H51.4807V13.0019C51.4807 13.0019 51.3534 16.5774 56.6703 16.5774C56.6703 16.5774 61.7644 16.675 61.9872 12.9044V11.3767C61.9872 11.4092 62.1783 9.10134 60.2043 7.89866Z" fill="black"/>
<path fill-rule="evenodd" clip-rule="evenodd" d="M40.307 0.910133L39.0017 9.23136H38.7151L37.4735 0.975143H30.9785L30.6602 16.0899H34.4807L34.5444 4.71319H34.8309L36.8686 16.0899H40.912L42.9178 4.71319H43.2043L43.2998 16.0899H47.1522L46.7383 0.910133H40.307Z" fill="black"/>
<path fill-rule="evenodd" clip-rule="evenodd" d="M17.4461 0.975143L14.8672 16.0574H19.0061L20.5343 4.35564H20.8846L22.3809 16.0574H26.5199L23.9728 0.975143H17.4461Z" fill="black"/>
<path fill-rule="evenodd" clip-rule="evenodd" d="M104.236 7.70363V9.91396H105.287V12.3193C105.287 13.4895 104.3 13.522 104.3 13.522C103.122 13.522 103.154 12.4168 103.154 12.4168V4.12811C103.154 3.28298 104.204 3.21797 104.204 3.21797C105.223 3.21797 105.223 4.22562 105.223 4.22562V5.49331H109.107C109.235 3.05545 108.757 2.43786 108.757 2.43786C107.802 0.227532 104.141 0.325047 104.141 0.325047C98.5372 0.325047 99.1421 4.7457 99.1421 4.7457V12.7419C99.2695 16.87 104.809 16.4474 104.905 16.4474C107.356 16.1549 108.12 15.3748 108.12 15.3748C108.789 14.8547 108.98 14.1396 108.98 14.1396C109.171 13.717 109.235 12.3843 109.235 12.3843V7.70363H104.236Z" fill="black"/>
<path fill-rule="evenodd" clip-rule="evenodd" d="M91.3099 10.1415H91.1507L87.2028 0.910133H82.459V16.0899H86.3114L86.0885 6.85851H86.2477L90.3548 16.0899H94.9395V0.910133H91.0552L91.3099 10.1415Z" fill="black"/>
<path fill-rule="evenodd" clip-rule="evenodd" d="M73.067 12.2868C73.067 12.2868 73.1307 13.522 71.9845 13.522C71.9845 13.522 70.8065 13.587 70.8065 12.3193V0.910133H66.5721V12.2218C66.5721 12.2218 66.1264 16.5124 72.0482 16.5124C72.0482 16.5124 77.1741 16.5774 77.1741 12.4168V0.910133H73.0352V12.2868H73.067Z" fill="black"/>
<path fill-rule="evenodd" clip-rule="evenodd" d="M9.39182 7.89866C9.39182 7.89866 8.34117 7.21606 7.67258 6.98853C7.67258 6.98853 5.66679 6.04589 5.2529 5.59082C5.2529 5.59082 4.45695 4.84321 4.93452 3.96558C4.93452 3.96558 5.12554 3.3805 5.95333 3.3805C5.95333 3.3805 7.03582 3.44551 7.03582 4.35564V5.65583H10.92V3.77056C10.92 3.77056 11.2066 0.682601 6.33538 0.520077C6.33538 0.520077 5.95333 0.487572 5.44392 0.520077C5.44392 0.520077 2.483 0.682601 1.43234 2.34034C1.43234 2.34034 1.43235 2.37285 1.40051 2.37285C1.40051 2.37285 0.954776 2.82792 0.954776 4.48566V5.65583C0.954776 5.65583 0.922938 7.02103 1.59153 7.89866C1.59153 7.89866 1.97359 8.48375 2.92873 9.10134C2.92873 9.10134 4.87084 10.174 6.01701 10.7591C6.01701 10.7591 7.19501 11.4417 7.03582 12.5143C7.03582 12.5143 6.94031 13.6195 5.82598 13.587C5.82598 13.587 4.80716 13.5545 4.80716 12.4493V11.1491H0.668235V13.0019C0.668235 13.0019 0.540883 16.5774 5.85782 16.5774C5.85782 16.5774 10.9519 16.675 11.1747 12.9044V11.3767C11.2066 11.4092 11.3658 9.10134 9.39182 7.89866Z" fill="black"/>
</g>
<defs>
<clipPath id="clip0_66_21619">
<rect width="110" height="17" fill="white"/>
</clipPath>
</defs>
</svg>
