<svg width="160" height="24" viewBox="0 0 160 24" fill="none" xmlns="http://www.w3.org/2000/svg">
<g clip-path="url(#clip0_66_22171)">
<path d="M10.6818 5.91753H1.04688V1.104H18.3112H18.442C18.442 1.104 13.6463 3.04708 10.8125 5.87337H10.6818V5.91753Z" fill="#F08300"/>
<path d="M21.1882 0.750732V6.13835C21.1882 6.13835 16.0874 7.50733 15.4335 11.3493C15.4335 11.3493 14.3872 15.9862 14.6487 22.0362H6.97571C6.97571 22.0362 6.71413 13.9548 9.02476 9.36208C9.02476 9.36208 11.2482 4.01863 21.1882 0.750732Z" fill="#E60012"/>
<path d="M31.1286 9.49457H21.9297V13.2924H31.1286V9.49457Z" fill="#00903B"/>
<path d="M36.0996 1.05988V21.9038H51.2277V17.7968H44.601V12.9391H51.2277V9.49458H44.601V4.81354H51.2277V1.05988H36.0996Z" fill="#00903B"/>
<path d="M71.3242 1.05988V21.9038H86.4523V17.7968H79.8692V12.9391H86.4959V9.49458H79.8692V4.81354H86.4959V1.05988H71.3242Z" fill="#00903B"/>
<path d="M112.131 1.05988V21.9038H127.259V17.7968H120.632V12.9391H127.259V9.49458H120.632V4.81354H127.259V1.05988H112.131Z" fill="#00903B"/>
<path d="M54.541 1.05988V21.9038H69.1895V17.7968H62.8244V1.05988H54.541Z" fill="#00903B"/>
<path d="M88.5898 1.05988L92.3392 21.9038H104.677L109.865 1.05988H103.369L99.6198 16.0304L96.6116 1.05988H88.5898Z" fill="#00903B"/>
<path d="M151.717 21.9037V5.82922C151.717 5.82922 152.85 0.220805 144.61 0.618252C144.61 0.618252 140.687 1.28066 138.42 2.91461V1.05986H130.441V21.9479H138.463V8.47887C138.463 8.47887 138.376 5.91754 140.687 5.69674C142.997 5.5201 143.52 6.35915 143.433 7.59565V21.9037H151.717Z" fill="#00903B"/>
<path d="M156.513 17.0461C154.987 17.0461 153.723 18.3267 153.723 19.8724C153.723 20.6231 154.028 21.3297 154.551 21.8596C155.074 22.3895 155.772 22.6987 156.513 22.6987C157.254 22.6987 157.952 22.3895 158.475 21.8596C158.998 21.3297 159.303 20.6231 159.303 19.8724C159.303 19.1216 158.998 18.4151 158.475 17.8851C157.952 17.3552 157.254 17.0461 156.513 17.0461ZM158.911 19.8724C158.911 21.2414 157.821 22.3454 156.513 22.3454C155.859 22.3454 155.249 22.0804 154.813 21.6388C154.377 21.153 154.115 20.5789 154.115 19.9165C154.115 19.2541 154.377 18.6359 154.813 18.1943C155.249 17.7527 155.859 17.4877 156.513 17.4877C157.167 17.4877 157.777 17.7527 158.213 18.1943C158.693 18.5917 158.911 19.21 158.911 19.8724Z" fill="#00903B"/>
<path d="M157.734 21.2855L157.036 19.9165C157.211 19.8282 157.298 19.6957 157.429 19.6074C157.559 19.4307 157.603 19.2541 157.603 19.0775C157.603 18.945 157.559 18.7683 157.516 18.68C157.472 18.5475 157.341 18.4151 157.254 18.3267C157.167 18.2384 157.036 18.2384 156.905 18.1942C156.775 18.1942 156.557 18.1501 156.295 18.1501H155.467V18.5034V19.9607V21.3738C155.467 21.4621 155.554 21.5505 155.641 21.5505C155.728 21.5505 155.816 21.4621 155.816 21.3738V19.9607H156.644L157.385 21.4621C157.429 21.5505 157.559 21.5946 157.603 21.5505C157.734 21.5063 157.777 21.418 157.734 21.2855ZM155.816 19.6074V18.5034H156.382C156.6 18.5034 156.818 18.5475 156.905 18.6359C157.036 18.7242 157.08 18.8567 157.08 19.0333C157.08 19.2099 157.036 19.3424 156.905 19.4307C156.775 19.5191 156.6 19.5632 156.339 19.5632H155.816V19.6074Z" fill="#00903B"/>
</g>
<defs>
<clipPath id="clip0_66_22171">
<rect width="160" height="23.2727" fill="white"/>
</clipPath>
</defs>
</svg>
