<svg width="121" height="34" viewBox="0 0 121 34" fill="none" xmlns="http://www.w3.org/2000/svg">
<g clip-path="url(#clip0_66_22471)">
<mask id="mask0_66_22471" style="mask-type:luminance" maskUnits="userSpaceOnUse" x="0" y="1" width="32" height="32">
<path d="M15.6251 1.013C7.05712 1.39289 0.442112 8.73739 0.820113 17.3482C1.19811 25.959 8.44312 32.607 17.0111 32.2272C25.5791 31.8473 32.1312 24.5028 31.7532 15.892C31.3752 7.53442 24.5081 1.013 16.3181 1.013C16.0661 1.013 15.8141 1.013 15.6251 1.013Z" fill="white"/>
</mask>
<g mask="url(#mask0_66_22471)">
<mask id="mask1_66_22471" style="mask-type:luminance" maskUnits="userSpaceOnUse" x="0" y="1" width="33" height="32">
<path d="M0.441406 1.013H32.1305V32.607H0.441406V1.013Z" fill="white"/>
</mask>
<g mask="url(#mask1_66_22471)">
<path d="M32.1305 1.013H0.441406V32.607H32.1305V1.013Z" fill="url(#paint0_radial_66_22471)"/>
</g>
</g>
<mask id="mask2_66_22471" style="mask-type:luminance" maskUnits="userSpaceOnUse" x="0" y="0" width="32" height="33">
<path d="M12.7895 30.0112C11.0885 29.8212 9.00953 29.3147 7.18253 27.7318C5.54453 26.2756 4.47353 24.3128 3.96953 22.54C3.46553 20.7672 3.27653 18.6778 4.09553 18.8045C4.34753 18.8678 4.78853 20.0074 5.29253 20.8305C5.79653 21.7169 6.17453 22.1601 6.61553 22.4767C6.80453 22.6033 7.37153 21.2737 8.25353 20.514C8.75753 20.0708 9.32453 19.9441 9.38753 21.2104C9.51353 22.73 9.19853 24.5661 9.63953 24.5661C10.0175 24.5661 10.9625 24.2495 13.0415 24.0596C13.7975 23.9963 14.2385 24.1229 13.5455 25.1992C13.1675 25.7058 12.6635 26.4655 11.5295 27.2886C13.2935 28.9348 15.3725 28.7449 15.3725 29.4413C15.3725 29.8212 14.6165 30.0745 13.6085 30.0745C13.2935 30.0745 13.0415 30.0745 12.7895 30.0112ZM18.5855 15.3221C17.0105 15.0056 16.6955 13.5493 16.6955 13.5493C16.5695 13.0428 16.5065 12.4097 16.6325 11.5866C16.8215 9.87708 17.3255 9.05399 17.8295 7.72438C18.5225 5.95157 16.8215 4.87522 17.0735 4.24207C17.4515 3.35567 18.7115 4.49533 20.0345 4.55865C21.2315 4.62196 21.9245 4.55865 22.8696 4.68528C24.0666 4.87522 25.5786 5.25511 26.2086 6.01489C26.7756 6.71135 25.8936 7.59775 24.8226 7.02792C24.0036 6.64803 22.9956 6.90129 23.6256 7.72438C24.3186 8.54748 24.6966 8.54748 25.3896 8.73742C27.4056 9.24394 27.4056 11.2067 26.0826 12.2197C24.5706 13.3594 22.9956 12.9162 22.3656 10.6369C22.0506 9.4972 21.2945 8.92736 20.4755 9.30725C19.6565 9.62383 20.1605 11.0801 20.7275 12.473C21.7985 15.1955 19.6565 15.4488 18.8375 15.4488C18.7115 15.3221 18.6485 15.3221 18.5855 15.3221ZM17.4515 30.5177C17.4515 30.1378 17.9555 30.0745 17.9555 30.0745C22.6175 29.1248 21.2315 26.0857 19.5935 24.5028C18.9005 23.8696 12.4745 18.2346 12.4745 18.2346C6.30053 12.8529 6.80453 8.73742 6.80453 8.73742C7.11953 3.60893 11.5295 2.34263 14.9315 2.59589C15.3095 2.65921 15.5615 2.84915 15.4985 3.22904C15.4355 3.60893 14.9315 3.60893 14.9315 3.60893C13.8605 3.67224 12.9155 3.79887 12.1595 4.30539C9.45053 6.14152 10.2695 9.30725 13.8605 12.7896C14.3015 13.2328 14.8055 13.676 15.3095 14.1825C15.3095 14.1825 16.0025 14.8156 17.5145 16.2086C20.2865 18.8045 21.7985 20.1974 21.7985 20.1974C26.7126 24.3128 25.0116 28.1117 23.1846 29.4413C21.7355 30.4544 20.1605 30.8976 18.0815 31.0242H18.0185C17.7665 30.9609 17.4515 30.8343 17.4515 30.5177ZM15.5615 0.82308C6.93053 1.20297 0.252521 8.61079 0.630521 17.3482C1.00852 26.0856 8.37953 32.8603 17.0105 32.4171C25.6416 32.0372 32.3826 24.6294 31.9416 15.892C31.5636 7.40781 24.6336 0.82308 16.3175 0.759766C16.0655 0.759766 15.8135 0.82308 15.5615 0.82308Z" fill="white"/>
</mask>
<g mask="url(#mask2_66_22471)">
<mask id="mask3_66_22471" style="mask-type:luminance" maskUnits="userSpaceOnUse" x="0" y="0" width="33" height="33">
<path d="M0.251953 0.759766H32.319V32.797H0.251953V0.759766Z" fill="white"/>
</mask>
<g mask="url(#mask3_66_22471)">
<path d="M32.382 0.759766H0.251953V32.797H32.382V0.759766Z" fill="url(#paint1_radial_66_22471)"/>
</g>
</g>
<path d="M37.7381 17.9181C37.9901 17.9181 38.2421 17.8548 38.5571 17.7281C38.8721 17.6015 39.1871 17.4749 39.5651 17.2216C39.9431 17.0317 40.2581 16.8417 40.5731 16.5885C41.7071 15.8287 42.7151 14.879 43.4711 13.7393C43.7861 14.1825 44.2271 14.6257 44.6681 15.0689C45.1721 15.4488 45.6761 15.8287 46.1801 16.2086C47.1251 16.7784 47.8181 17.1583 48.3221 17.2216C48.8261 17.3483 49.2041 17.2849 49.3301 17.0317L50.2751 15.2589C49.6451 15.0689 49.0151 14.7523 48.3851 14.4358C47.7551 14.1192 47.1881 13.7393 46.7471 13.2961C46.2431 12.8529 45.8651 12.3464 45.5501 11.7766C45.2351 11.2067 45.1091 10.5736 45.1091 9.87712V7.02795H41.3921C41.2661 7.02795 41.1401 7.09127 41.0771 7.2179C41.0141 7.34453 41.0771 7.47116 41.2031 7.6611C41.3921 7.91436 41.5181 8.1043 41.5811 8.35756C41.5811 8.61082 41.5811 8.86408 41.5811 9.24397V10.1304C41.5811 10.8268 41.4551 11.46 41.1401 12.0298C40.8881 12.5996 40.5101 13.1062 40.0061 13.6127C39.5021 14.1192 38.9351 14.4991 38.3051 14.879C37.6751 15.2589 36.9821 15.5754 36.2891 15.892L37.2971 17.7915C37.3601 17.9181 37.4861 17.9814 37.7381 17.9181Z" fill="#868687"/>
<path d="M43.5333 23.9963C43.3443 23.8063 43.2183 23.4898 43.2183 22.9833V19.0577H39.5643C39.3753 19.0577 39.3123 19.1211 39.2493 19.2477C39.1863 19.3743 39.2493 19.5009 39.3753 19.6909C39.5643 19.9441 39.6903 20.1341 39.7533 20.3873C39.8163 20.5773 39.8163 20.8939 39.8163 21.2738V23.3631C39.8163 23.9963 39.8793 24.5661 40.0683 25.0093C40.2573 25.4525 40.5093 25.7691 40.8873 26.0224C41.2653 26.2756 41.7063 26.4656 42.2103 26.5922C42.7143 26.7188 43.3443 26.7188 44.1003 26.7188H55.6293V24.2495H44.6043C44.1003 24.2495 43.7853 24.1229 43.5333 23.9963Z" fill="#868687"/>
<path d="M55.3153 20.1341V6.71136H51.6613C51.5353 6.71136 51.4093 6.77468 51.3463 6.90131C51.2833 7.02794 51.2833 7.15457 51.4723 7.34451C51.6613 7.59777 51.7873 7.78771 51.9133 8.04097C51.9763 8.29423 52.0393 8.54749 52.0393 8.92738V20.1341H55.3153Z" fill="#868687"/>
<path d="M60.9858 24.946C61.1748 25.3892 61.4268 25.7058 61.8048 25.959C62.1828 26.2123 62.6238 26.4022 63.1278 26.5288C63.6318 26.6555 64.2618 26.6555 65.0178 26.6555H76.4208V24.1862H65.5848C65.0808 24.1862 64.7028 24.1229 64.5138 23.9329C64.2618 23.743 64.1988 23.4264 64.1988 22.9199V19.8808H60.5448C60.3558 19.8808 60.2928 19.9441 60.2298 20.0707C60.1668 20.1974 60.2298 20.324 60.3558 20.5139C60.4818 20.7039 60.6078 20.8938 60.6708 21.0838C60.7338 21.2737 60.7968 21.4637 60.7968 21.6536V23.2998C60.7338 23.9329 60.8598 24.5028 60.9858 24.946Z" fill="#868687"/>
<path d="M59.0315 12.1564C58.8425 12.5996 58.7795 13.1062 58.7795 13.676C58.7795 14.3725 58.9055 15.0056 59.1575 15.5754C59.4095 16.1453 59.7875 16.6518 60.2285 17.095C60.6695 17.5382 61.2995 17.8548 61.9925 18.108C62.6855 18.3613 63.4415 18.4879 64.3235 18.4879C65.2055 18.4879 66.0245 18.3613 66.6545 18.108C67.3475 17.8548 67.9145 17.5382 68.4185 17.095C68.8595 16.6518 69.2375 16.1453 69.4895 15.5754C69.7415 15.0056 69.8675 14.3725 69.8675 13.676C69.8675 13.1062 69.7415 12.5996 69.5525 12.1564C69.3635 11.7132 69.1115 11.27 68.7965 10.8901H71.0646V8.48418H66.1505V6.14154H62.4965C62.3075 6.14154 62.2445 6.20486 62.1815 6.33148C62.1185 6.45811 62.1815 6.58474 62.3075 6.77469C62.4965 7.02795 62.6225 7.28121 62.6855 7.47115C62.7485 7.72441 62.7485 7.97767 62.7485 8.35756V8.5475H57.5195V10.9535H59.7875C59.4725 11.27 59.2205 11.7132 59.0315 12.1564ZM62.5595 11.7132C62.9375 11.2067 63.5675 10.9535 64.3235 10.9535C65.0795 10.9535 65.6465 11.2067 66.0245 11.7132C66.4025 12.2198 66.6545 12.8529 66.6545 13.5494C66.6545 14.2458 66.4655 14.8157 66.0245 15.3222C65.6465 15.8287 65.0165 16.0819 64.3235 16.0819C63.5675 16.0819 63.0005 15.8287 62.5595 15.3222C62.1815 14.8157 61.9295 14.2458 61.9295 13.5494C61.9925 12.8529 62.1815 12.2198 62.5595 11.7132Z" fill="#868687"/>
<path d="M76.1051 6.71136H72.451C72.325 6.71136 72.199 6.77468 72.136 6.90131C72.073 7.02794 72.136 7.15457 72.262 7.34451C72.451 7.59777 72.577 7.85103 72.64 8.04097C72.703 8.29423 72.766 8.54749 72.766 8.92738V20.4507H76.1051V14.1192H78.5621V11.6499H76.1051V6.71136Z" fill="#868687"/>
<path d="M95.32 7.72436C94.69 7.34447 93.871 7.0279 92.8629 6.77464C91.8549 6.5847 90.7209 6.45807 89.3979 6.45807C88.0749 6.45807 86.8779 6.5847 85.9329 6.77464C84.9249 6.96459 84.1689 7.28116 83.4759 7.72436C82.8459 8.10425 82.3419 8.61077 82.0269 9.1806C81.7119 9.75043 81.5859 10.3203 81.5859 11.0167C81.5859 11.6499 81.7119 12.283 82.0269 12.7895C82.3419 13.3594 82.8459 13.8026 83.4759 14.1825C84.1059 14.5624 84.9249 14.8789 85.9329 15.1322C86.9409 15.3854 88.0749 15.4488 89.3979 15.4488C90.7209 15.4488 91.9179 15.3221 92.8629 15.1322C93.871 14.8789 94.69 14.6257 95.32 14.1825C95.95 13.8026 96.454 13.2961 96.769 12.7895C97.084 12.2197 97.21 11.6499 97.21 11.0167C97.21 10.3836 97.021 9.75043 96.769 9.1806C96.454 8.61077 95.95 8.16757 95.32 7.72436ZM92.8 12.5996C92.107 12.9795 90.973 13.1694 89.335 13.1694C87.6969 13.1694 86.5629 12.9795 85.8699 12.5996C85.1769 12.2197 84.8619 11.7132 84.8619 11.0167C84.8619 10.3836 85.1769 9.81375 85.8699 9.43386C86.5629 9.05397 87.6969 8.86403 89.335 8.86403C90.973 8.86403 92.107 9.05397 92.8 9.43386C93.493 9.81375 93.808 10.3836 93.808 11.0167C93.871 11.6499 93.493 12.2197 92.8 12.5996Z" fill="#868687"/>
<path d="M97.4614 24.2496H86.0584C85.6804 24.2496 85.4284 24.1862 85.3024 24.1229C85.1764 23.9963 85.0504 23.8063 85.0504 23.3631V20.1341H81.3964C81.2704 20.1341 81.1444 20.1974 81.0814 20.324C81.0184 20.4507 81.0814 20.5773 81.2074 20.7672C81.3964 20.9572 81.4594 21.1471 81.5224 21.3371C81.5854 21.527 81.6484 21.717 81.6484 21.9069V23.933C81.6484 24.5028 81.7114 24.946 81.9004 25.2626C82.0264 25.6425 82.2784 25.8957 82.5934 26.0857C82.9084 26.2756 83.2864 26.4656 83.7904 26.5289C84.2944 26.5922 84.7984 26.6555 85.4914 26.6555H97.5244V24.2496H97.4614Z" fill="#868687"/>
<path d="M99.5409 16.5251H79.1289V18.8678H99.5409V16.5251Z" fill="#868687"/>
<path d="M101.558 11.8398C101.432 12.2197 101.369 12.6629 101.369 13.1061C101.369 13.8026 101.495 14.4358 101.684 15.0056C101.936 15.5754 102.251 16.0819 102.629 16.4618C103.07 16.8417 103.574 17.1583 104.204 17.4115C104.834 17.6648 105.527 17.7281 106.346 17.7281C107.165 17.7281 107.858 17.6015 108.488 17.4115C109.118 17.1583 109.622 16.905 110.063 16.4618C110.504 16.0819 110.819 15.5754 111.008 15.0056C111.197 14.4358 111.323 13.8026 111.323 13.1061C111.323 12.6629 111.26 12.2197 111.134 11.8398C111.008 11.46 110.819 11.0801 110.567 10.7635H112.016V8.35754H108.236V6.01489H104.582C104.456 6.01489 104.33 6.07821 104.267 6.20484C104.204 6.33147 104.204 6.4581 104.393 6.64804C104.582 6.9013 104.708 7.09124 104.771 7.3445C104.834 7.59776 104.834 7.85102 104.834 8.29422V8.35754H100.424V10.7635H102.125C101.873 11.0801 101.684 11.46 101.558 11.8398ZM104.456 12.283C104.519 12.0298 104.645 11.7765 104.834 11.5233C105.023 11.27 105.212 11.1434 105.464 11.0168C105.716 10.8901 106.031 10.8268 106.346 10.8268C106.661 10.8268 106.976 10.8901 107.228 11.0168C107.48 11.1434 107.669 11.3333 107.858 11.5233C108.047 11.7765 108.11 11.9665 108.236 12.283C108.299 12.5363 108.362 12.8529 108.362 13.1695C108.362 13.486 108.299 13.7393 108.236 13.9925C108.173 14.2458 108.047 14.4991 107.858 14.7523C107.669 14.9423 107.48 15.1322 107.228 15.2588C106.976 15.3855 106.661 15.4488 106.346 15.4488C106.031 15.4488 105.716 15.3855 105.464 15.2588C105.212 15.1322 105.023 14.9423 104.834 14.7523C104.645 14.5624 104.582 14.3091 104.456 13.9925C104.393 13.7393 104.33 13.4227 104.33 13.1695C104.33 12.8529 104.393 12.5363 104.456 12.283Z" fill="#868687"/>
<path d="M112.519 6.83799C112.393 6.83799 112.267 6.90131 112.204 7.02794C112.141 7.15457 112.204 7.2812 112.33 7.47114C112.456 7.66109 112.582 7.85103 112.645 8.04097C112.708 8.23092 112.771 8.48418 112.771 8.86406V17.4116H115.858V13.4227H117.307V18.0447H120.394V6.71136H117.307V10.8268H115.858V6.83799H112.519Z" fill="#868687"/>
<path d="M104.896 22.9199C104.896 23.6164 105.085 24.1862 105.4 24.756C105.715 25.3259 106.219 25.7691 106.849 26.2123C107.479 26.5922 108.298 26.9087 109.243 27.162C110.188 27.3519 111.322 27.4786 112.582 27.4786C113.842 27.4786 114.913 27.3519 115.858 27.162C116.803 26.972 117.622 26.6555 118.252 26.2123C118.883 25.8324 119.387 25.3259 119.765 24.756C120.08 24.1862 120.269 23.5531 120.269 22.9199C120.269 21.527 119.576 20.3873 118.252 19.6275C116.929 18.8044 115.04 18.4246 112.519 18.4246C109.936 18.4246 108.046 18.8044 106.723 19.6275C105.526 20.3873 104.896 21.527 104.896 22.9199ZM108.487 21.9702C108.613 21.7169 108.865 21.4637 109.243 21.337C109.558 21.1471 109.999 21.0205 110.566 20.9571C111.133 20.8938 111.763 20.8305 112.582 20.8305C113.401 20.8305 114.031 20.8938 114.598 20.9571C115.165 21.0838 115.606 21.2104 115.921 21.337C116.236 21.527 116.488 21.7169 116.677 21.9702C116.803 22.2234 116.93 22.54 116.93 22.8566C116.93 23.1732 116.866 23.4897 116.677 23.743C116.551 23.9963 116.299 24.2495 115.921 24.4395C115.606 24.6294 115.165 24.756 114.598 24.8827C114.031 24.946 113.401 25.0093 112.582 25.0093C111.763 25.0093 111.133 24.946 110.566 24.8827C109.999 24.8193 109.558 24.6294 109.243 24.4395C108.928 24.2495 108.676 24.0596 108.487 23.743C108.361 23.4897 108.235 23.1732 108.235 22.8566C108.298 22.54 108.361 22.2234 108.487 21.9702Z" fill="#868687"/>
</g>
<defs>
<radialGradient id="paint0_radial_66_22471" cx="0" cy="0" r="1" gradientUnits="userSpaceOnUse" gradientTransform="translate(18.2192 11.5525) scale(14.7076 14.8462)">
<stop stop-color="white"/>
<stop offset="1" stop-color="#D3A245"/>
</radialGradient>
<radialGradient id="paint1_radial_66_22471" cx="0" cy="0" r="1" gradientUnits="userSpaceOnUse" gradientTransform="translate(18.8352 12.4627) scale(32.8877 33.1984)">
<stop stop-color="#2BBAEE"/>
<stop offset="0.2191" stop-color="#0092D3"/>
<stop offset="0.2781" stop-color="#0080C5"/>
<stop offset="0.3446" stop-color="#0071BA"/>
<stop offset="0.4141" stop-color="#0066B2"/>
<stop offset="0.4878" stop-color="#005FAD"/>
<stop offset="0.573" stop-color="#005DAC"/>
<stop offset="1" stop-color="#005DAC"/>
</radialGradient>
<clipPath id="clip0_66_22471">
<rect width="120.645" height="34" fill="white"/>
</clipPath>
</defs>
</svg>
