<svg width="125" height="34" viewBox="0 0 125 34" fill="none" xmlns="http://www.w3.org/2000/svg">
<mask id="mask0_66_22436" style="mask-type:luminance" maskUnits="userSpaceOnUse" x="1" y="1" width="32" height="32">
<path d="M16.4312 1.70312C7.86657 2.14468 1.2052 9.39886 1.58585 17.9777C1.9665 26.5566 9.26229 33.243 17.8904 32.8015C26.5184 32.423 33.1798 25.1057 32.7991 16.5269C32.355 8.26342 25.4399 1.70312 17.1925 1.70312C16.9387 1.70312 16.685 1.70312 16.4312 1.70312Z" fill="white"/>
</mask>
<g mask="url(#mask0_66_22436)">
<path d="M33.1797 1.70312H1.20508V33.1799H33.1797V1.70312Z" fill="url(#paint0_radial_66_22436)"/>
</g>
<mask id="mask1_66_22436" style="mask-type:luminance" maskUnits="userSpaceOnUse" x="1" y="1" width="32" height="33">
<path d="M13.5759 30.6568C11.863 30.4675 9.76941 29.9629 7.9296 28.3859C6.28011 26.9351 5.20161 24.9796 4.69407 23.2134C4.18654 21.4471 3.93277 19.3655 4.82096 19.4917C5.07472 19.5547 5.51881 20.6902 6.02635 21.5102C6.53388 22.3933 6.91453 22.8349 7.35862 23.1503C7.54895 23.2764 8.11992 21.9518 9.00811 21.1948C9.51564 20.7532 10.0866 20.6271 10.1501 21.8887C10.2769 23.4026 9.95973 25.2319 10.4038 25.2319C10.7845 25.2319 11.7361 24.9165 13.8297 24.7273C14.591 24.6642 15.0351 24.7904 14.3372 25.8627C13.9566 26.3673 13.449 27.1243 12.3071 27.9443C14.0834 29.5844 16.177 29.3952 16.177 30.0891C16.177 30.4675 15.4157 30.7199 14.4006 30.7199C14.1469 30.7199 13.8931 30.6568 13.5759 30.6568ZM19.476 15.9592C17.8899 15.6438 17.5727 14.193 17.5727 14.193C17.4458 13.6883 17.3824 13.0575 17.5093 12.2375C17.6996 10.5343 18.2071 9.71429 18.7147 8.38961C19.4125 6.62338 17.6996 5.55102 17.9534 4.92022C18.334 4.03711 19.6029 5.17254 20.9986 5.23562C22.204 5.2987 22.9018 5.23562 23.8535 5.36178C25.0588 5.55102 26.5814 5.9295 27.2159 6.68646C27.7868 7.38034 26.8987 8.26345 25.8201 7.69573C24.9954 7.31725 23.9803 7.56957 24.6148 8.38961C25.3126 9.20965 25.6933 9.20965 26.3911 9.39889C28.4213 9.90353 28.4213 11.859 27.089 12.8683C25.5664 14.0037 23.9803 13.5622 23.3459 11.2913C23.0287 10.1558 22.2674 9.58813 21.4427 9.90353C20.6179 10.2189 21.1255 11.6698 21.6964 13.0575C22.7749 15.7069 20.6179 16.0223 19.7932 16.0223C19.6029 15.9592 19.5394 15.9592 19.476 15.9592ZM18.334 31.1614C18.334 30.7829 18.8416 30.7199 18.8416 30.7199C23.5362 29.7737 22.1405 26.7458 20.491 25.1688C19.7932 24.538 13.2587 18.9239 13.2587 18.9239C7.04141 13.5622 7.54895 9.39889 7.54895 9.39889C7.86616 4.28943 12.3705 3.02783 15.7329 3.28015C16.1136 3.34323 16.3673 3.53247 16.3039 3.91095C16.2405 4.28943 15.7329 4.28943 15.7329 4.28943C14.6544 4.35251 13.7028 4.47867 12.9415 4.9833C10.2135 6.81262 11.0382 9.96661 14.6544 13.436C15.0985 13.8776 15.606 14.3191 16.1136 14.8237C16.1136 14.8237 16.8114 15.4545 18.334 16.8423C21.1255 19.4286 22.7115 20.8163 22.7115 20.8163C27.66 24.9165 25.947 28.7013 24.1072 30.026C22.6481 31.0352 21.062 31.4768 18.9684 31.603H18.905C18.6512 31.603 18.334 31.4768 18.334 31.1614ZM16.4308 1.51392C7.73927 1.89239 0.951015 9.27273 1.33166 17.9777C1.71231 26.4304 8.62746 32.9907 17.0018 33.0538H17.1921C17.3824 33.0538 17.6362 33.0538 17.8265 33.0538C26.518 32.6753 33.3063 25.295 32.9256 16.59C32.545 8.13729 25.5664 1.51392 17.1286 1.51392C16.9383 1.51392 16.6845 1.51392 16.4308 1.51392Z" fill="white"/>
</mask>
<g mask="url(#mask1_66_22436)">
<path d="M33.3064 1.51392H0.951172V33.0538H33.3064V1.51392Z" fill="url(#paint1_radial_66_22436)"/>
</g>
<path d="M54.7492 20.8163V9.5881C54.7492 8.83114 54.6223 8.45267 54.1782 8.01111C53.9244 7.69571 54.1147 7.38031 54.4319 7.38031H58.1116V20.8163H54.7492ZM58.4922 24.9796V27.4397H46.1845C43.5834 27.4397 42.5684 26.7458 42.5684 24.6011V21.4471C42.5684 21.0055 42.4415 20.6901 42.1243 20.3117C41.8705 19.9963 42.0608 19.6809 42.3146 19.6809H45.9942V24.0965C45.9942 24.7903 46.1845 24.9796 46.8824 24.9796H58.4922ZM44.3447 9.9035C44.3447 9.20962 44.2813 8.83114 43.9006 8.32651C43.6469 8.01111 43.8372 7.69571 44.091 7.69571H47.834V10.5343C47.834 13.3729 50.6254 15.013 53.0997 15.833L52.148 17.6623C51.8943 18.167 50.8158 17.9777 48.976 16.8423C47.8975 16.2115 46.8824 15.3284 46.248 14.4452C45.4232 15.5807 44.4716 16.5269 43.3297 17.2838C41.9974 18.167 40.3479 18.987 40.0307 18.4193L39.0156 16.5269C41.8705 15.3914 44.3447 13.5621 44.3447 10.7866V9.9035Z" fill="#868687"/>
<path d="M75.7484 21.1317V9.58813C75.7484 8.83117 75.6215 8.51578 75.2408 8.01114C74.9871 7.69574 75.1139 7.38034 75.4311 7.38034H79.1108V12.4898H81.585V14.9499H79.1108V21.1317H75.7484ZM67.2472 16.7792C68.7063 16.7792 69.5945 15.6438 69.5945 14.256C69.5945 12.8052 68.7063 11.6698 67.2472 11.6698C65.7246 11.6698 64.8998 12.8052 64.8998 14.256C64.8998 15.6438 65.7246 16.7792 67.2472 16.7792ZM79.428 24.9796V27.4397H67.3106C64.7095 27.4397 63.6944 26.7458 63.6944 24.6011V22.3302C63.6944 21.8887 63.5676 21.5733 63.2503 21.1948C62.9966 20.8794 63.1869 20.564 63.4407 20.564H67.1203V24.0965C67.1203 24.7904 67.3106 24.9796 68.0085 24.9796H79.428ZM65.6611 9.02041C65.6611 8.26346 65.5977 7.94806 65.217 7.44342C64.9633 7.12802 65.0902 6.81262 65.4074 6.81262H69.087V9.20965H73.972V11.6067H71.6881C72.3859 12.3636 72.7666 13.3098 72.7666 14.3822C72.7666 17.0946 70.7365 19.1763 67.1837 19.1763C63.631 19.1763 61.6009 17.0946 61.6009 14.3822C61.6009 13.2468 61.9815 12.3636 62.6159 11.6067H60.332V9.20965H65.5977V9.02041H65.6611Z" fill="#868687"/>
<path d="M93.6391 9.52502C93.6391 8.76807 93.4487 8.51575 93.195 8.13727C92.9412 7.75879 93.1315 7.50647 93.3853 7.50647H96.7477V11.2913H98.5875V7.38031H101.76V18.4193H98.5875V13.8775H96.7477V17.8516H93.6391V9.52502ZM98.2703 23.4026C98.2703 22.141 97.1918 21.1948 93.9563 21.1948C90.6573 21.1948 89.6422 22.141 89.6422 23.4026C89.6422 24.6642 90.7207 25.6734 93.9563 25.6734C97.2552 25.6734 98.2703 24.6642 98.2703 23.4026ZM101.76 23.4026C101.76 26.2412 99.095 28.0074 93.9563 28.0074C88.8175 28.0074 86.1529 26.2412 86.1529 23.4026C86.1529 20.564 88.8175 18.7977 93.9563 18.7977C99.095 18.8608 101.76 20.6271 101.76 23.4026ZM86.1529 10.0297C86.1529 9.33578 86.0895 8.9573 85.7088 8.45267C85.4551 8.13727 85.6454 7.82187 85.8992 7.82187H89.5788V11.2913C89.5788 13.436 91.6089 15.013 93.3218 16.0222L91.9896 17.7885C91.6724 18.167 90.7207 17.5362 89.9594 16.9054C89.2616 16.3376 88.5637 15.6438 87.9293 14.8237C87.4218 15.7068 86.7239 16.4638 85.9626 17.1577C84.8841 18.1039 83.6153 18.9239 83.3615 18.5454L81.9023 16.9054C84.1228 15.5807 86.1529 13.7514 86.1529 11.4174V10.0297Z" fill="#868687"/>
<path d="M116.162 13.8145H119.715V12.0482H116.162V13.8145ZM119.651 23.4026C119.651 22.141 118.509 21.1948 115.337 21.1948C112.165 21.1948 111.023 22.141 111.023 23.4026C111.023 24.6642 112.165 25.6104 115.337 25.6104C118.509 25.6104 119.651 24.7273 119.651 23.4026ZM108.168 14.1299C108.168 14.8868 108.295 15.2022 109.31 15.2022H112.799V10.4082H108.168V14.1299ZM123.14 23.4026C123.14 26.115 120.349 28.0074 115.337 28.0074C110.325 28.0074 107.534 26.115 107.534 23.4026C107.534 20.6902 110.325 18.7978 115.337 18.7978C120.349 18.8609 123.14 20.6902 123.14 23.4026ZM119.715 18.4824V16.1484H116.162V17.5993H108.485C105.884 17.5993 104.869 16.9054 104.869 14.7607V10.282C104.869 9.52505 104.742 9.14657 104.362 8.70502C104.108 8.38962 104.298 8.07422 104.615 8.07422H115.718C116.035 8.07422 116.225 8.20038 116.225 8.57886V9.71429H119.778V9.65121C119.778 8.89426 119.651 8.57886 119.207 8.07422C118.953 7.75882 119.08 7.44342 119.461 7.44342H123.14V18.5455H119.715V18.4824Z" fill="#868687"/>
<defs>
<radialGradient id="paint0_radial_66_22436" cx="0" cy="0" r="1" gradientUnits="userSpaceOnUse" gradientTransform="translate(19.0901 12.2429) scale(14.8125 14.7729)">
<stop stop-color="white"/>
<stop offset="1" stop-color="#D3A243"/>
</radialGradient>
<radialGradient id="paint1_radial_66_22436" cx="0" cy="0" r="1" gradientUnits="userSpaceOnUse" gradientTransform="translate(19.6618 13.1629) scale(33.1488 33.0603)">
<stop stop-color="#00B9EF"/>
<stop offset="0.2191" stop-color="#0093D4"/>
<stop offset="0.2202" stop-color="#0092D4"/>
<stop offset="0.2835" stop-color="#007EC5"/>
<stop offset="0.3487" stop-color="#006EBA"/>
<stop offset="0.4169" stop-color="#0063B2"/>
<stop offset="0.4893" stop-color="#005DAE"/>
<stop offset="0.573" stop-color="#005BAC"/>
<stop offset="1" stop-color="#005BAC"/>
</radialGradient>
</defs>
</svg>
