<svg width="134" height="34" viewBox="0 0 134 34" fill="none" xmlns="http://www.w3.org/2000/svg">
<path d="M126.013 20.8324H120.995L125.632 29.2178H8.19286L12.8294 20.8324H7.81178L0.888672 33.3449H132.999L126.013 20.8324Z" fill="#C5C8CE"/>
<path d="M43.9513 17.0328C40.7121 17.0328 38.108 14.3468 38.108 11.0058C38.108 7.66474 40.7121 4.97881 43.9513 4.97881C47.1906 4.97881 49.7947 7.66474 49.7947 11.0058C49.7947 14.3468 47.1906 17.0328 43.9513 17.0328ZM43.9513 0.5896C38.4256 0.5896 33.916 5.24085 33.916 11.0058C33.916 16.7707 38.4256 21.422 43.9513 21.422C49.4771 21.422 53.9867 16.7707 53.9867 11.0058C53.9867 5.24085 49.5406 0.5896 43.9513 0.5896Z" fill="#00B8FF"/>
<path d="M19.7539 6.42004C19.7539 3.99615 25.8513 3.99615 27.1851 7.07515L30.6149 5.04432C29.6622 2.68594 26.2324 0.5896 22.8661 0.5896C18.8647 0.5896 15.4349 2.75145 15.4349 6.55106C15.4349 10.8748 20.262 11.9884 22.231 12.5125C24.2635 13.0366 26.9311 13.4297 26.9311 15.133C26.9311 16.7052 25.2162 17.2948 23.3107 17.2948C20.8972 17.2948 18.9917 16.4432 18.166 14.4778L14.8633 16.4432C15.8795 19.4567 19.1823 21.3565 23.1837 21.3565C28.3284 21.3565 31.2501 18.8671 31.2501 14.9364C31.2501 11.7919 28.5825 9.82659 25.4067 8.97496C22.485 8.31985 19.7539 7.86128 19.7539 6.42004Z" fill="#00B8FF"/>
<path d="M72.2796 13.2331C71.4539 15.4605 69.5485 16.9672 67.0714 16.9672C63.8322 16.9672 61.3551 14.2813 61.3551 10.9402C61.3551 7.59919 63.8322 4.91326 67.0714 4.91326C69.4215 4.91326 71.3269 6.28898 72.2796 8.31981L76.0905 6.09245C74.5026 2.75141 70.9458 0.524048 67.1349 0.524048C61.6092 0.524048 57.0996 5.1753 57.0996 10.9402C57.0996 16.7052 61.6092 21.3564 67.1349 21.3564C71.1364 21.3564 74.5026 18.9325 76.154 15.4605L72.2796 13.2331Z" fill="#00B8FF"/>
<path d="M90.1276 1.11365H85.364L77.6152 20.8323H82.5059L87.7141 6.74756L93.1128 20.8323H98.0035L90.1276 1.11365Z" fill="#00B8FF"/>
<path d="M110.007 10.6782H105.371V5.24081H110.007C111.722 5.24081 112.865 6.3545 112.865 7.92675C112.865 9.56451 111.722 10.6782 110.007 10.6782ZM113.945 13.6262L114.326 13.4296C116.232 12.2504 117.311 10.2851 117.311 7.99226C117.311 3.9306 114.453 1.11365 110.325 1.11365H101.115V20.8323H105.434V14.5433H109.626L113.183 20.8323H118.01L113.945 13.6262Z" fill="#00B8FF"/>
</svg>
