<svg width="180" height="21" viewBox="0 0 180 21" fill="none" xmlns="http://www.w3.org/2000/svg">
<path d="M9.74415 4.37825C10.0825 5.15286 11.5712 8.79016 11.7742 9.29534H7.61258C7.81558 8.79016 9.40581 5.15286 9.74415 4.37825ZM8.93212 1.98706L1.89453 18.0518H3.92461L6.93588 11.013C6.93588 11.013 12.1802 11.013 12.4848 11.013C12.5863 11.2824 15.4284 18.0518 15.4284 18.0518H17.5599L10.7254 1.98706H8.93212Z" fill="#005099"/>
<path d="M33.5975 1.98706C33.5975 1.98706 28.4208 13.842 28.0487 14.7176C27.6427 13.842 22.466 1.98706 22.466 1.98706H19.8945V18.0518H21.8231V5.05182L27.5411 18.0518H28.4885C28.4885 18.0518 33.4284 6.6684 34.1389 5.0855V18.0518H36.0675V1.98706H33.5975Z" fill="#005099"/>
<path d="M77.1758 1.98706V18.0518H88.5442V16.2668H79.1044V10.6425H87.6645V8.85751H79.1044V3.77203H88.172V1.98706H77.1758Z" fill="#005099"/>
<path d="M69.4627 10.4741C72.0003 10.0362 73.3199 8.62173 73.3199 6.2979C73.3199 3.43521 71.3575 1.98703 67.5342 1.98703H60.8011V8.85748H56.5379C56.0304 4.51293 52.7823 1.58289 48.2823 1.58289C43.3763 1.58289 39.959 5.05179 39.959 10.0026C39.959 14.9533 43.3763 18.4222 48.2823 18.4222C52.9853 18.4222 56.3011 15.2564 56.5718 10.6425H60.8011V18.0518H62.7297V10.6425H67.4665C67.6018 10.8445 71.865 18.0518 71.865 18.0518H74.0642C74.0642 18.0518 69.7673 11.0129 69.4627 10.4741ZM48.2823 16.6709C44.4928 16.6709 41.8876 13.943 41.8876 10.0362C41.8876 6.12951 44.4928 3.36786 48.2823 3.36786C52.0379 3.36786 54.677 6.09583 54.677 10.0026C54.677 13.9093 52.0379 16.6709 48.2823 16.6709ZM62.6958 8.82381V3.73832H67.9402C71.053 3.73832 71.3913 5.52329 71.3913 6.2979C71.3913 7.07251 71.053 8.85748 67.9402 8.85748H62.6958V8.82381Z" fill="#005099"/>
<path d="M94.5332 1.98702V18.0518H95.6159V10.2046H99.4392C101.74 10.2046 104.21 9.1269 104.21 6.1295C104.21 2.39116 100.623 2.0207 99.1009 2.0207H94.5332M95.8528 2.93002H99.27C101.029 2.93002 103.127 3.77199 103.127 6.1295C103.127 8.45333 101.199 9.29529 99.3716 9.29529H95.6159V2.93002H95.8528ZM110.503 1.98702L103.466 18.0518H104.548C104.548 18.0518 107.492 11.1476 107.56 11.0129H114.394C114.462 11.1476 117.338 18.0518 117.338 18.0518H118.556L111.789 1.98702H110.503ZM110.841 3.36784C110.841 3.36784 110.977 3.06474 111.044 2.86266C111.247 3.33417 113.887 9.80047 114.022 10.1036H107.966C108.101 9.7668 110.841 3.36784 110.841 3.36784ZM120.281 10.0025C120.281 14.9533 123.699 18.4222 128.605 18.4222C130.973 18.4222 132.902 17.5466 134.323 15.7616L134.39 15.6606L133.511 14.987L133.443 15.088C132.09 16.8393 129.992 17.4792 128.605 17.4792C124.341 17.4792 121.364 14.3808 121.364 9.96887C121.364 5.55696 124.341 2.4922 128.605 2.4922C130.364 2.4922 131.954 3.23313 133.003 4.5466L133.071 4.64763L133.951 3.9067L133.883 3.80567C132.597 2.3238 130.804 1.54919 128.605 1.54919C123.699 1.58287 120.281 5.05178 120.281 10.0025ZM163.387 10.0025C163.387 14.9533 166.804 18.4222 171.71 18.4222C174.078 18.4222 176.007 17.5466 177.428 15.7616L177.496 15.6606L176.616 14.987L176.548 15.088C175.195 16.8393 173.097 17.4792 171.71 17.4792C167.447 17.4792 164.469 14.3808 164.469 9.96887C164.469 5.55696 167.447 2.4922 171.71 2.4922C173.469 2.4922 175.06 3.23313 176.108 4.5466L176.176 4.64763L177.056 3.9067L176.988 3.80567C175.702 2.3238 173.909 1.54919 171.71 1.54919C166.804 1.58287 163.387 5.05178 163.387 10.0025ZM138.789 18.0518H139.872V1.98702H138.789V18.0518ZM144.473 1.98702V18.0518H145.556V10.2046H153.372V9.26162H145.556V2.93002H153.947V1.98702H144.473ZM158.481 18.0518H159.563V1.98702H158.481V18.0518Z" fill="#001659"/>
</svg>
