<svg width="160" height="46" viewBox="0 0 160 46" fill="none" xmlns="http://www.w3.org/2000/svg">
<path d="M133.09 12.0242C133.09 12.3582 133.171 12.7758 133.253 13.1098C133.824 14.6963 135.455 15.6983 137.412 14.8633C137.901 14.6963 150.949 9.10168 150.949 9.10168C150.949 9.10168 145.812 22.8795 145.567 23.3805C144.833 25.3845 145.73 27.138 147.279 27.7226C147.606 27.8896 148.013 27.8896 148.34 27.8896C149.563 27.8896 150.705 27.138 151.275 25.5515C151.357 25.301 157.799 6.68013 157.962 6.17912C158.044 5.92862 158.207 5.2606 158.207 4.84309C158.207 3.92458 157.881 3.08956 157.228 2.42155C156.576 1.75353 155.761 1.41953 154.945 1.41953C154.537 1.41953 154.211 1.50303 153.64 1.67003C153.314 1.75353 136.678 8.26666 135.292 8.85117C133.824 9.51919 133.09 10.6882 133.09 12.0242Z" fill="#E60012"/>
<path d="M106.014 33.3172C102.589 33.3172 99.7344 35.5717 99.7344 38.3273C99.7344 41.0828 102.589 43.2539 106.014 43.2539C109.439 43.2539 112.293 40.9993 112.293 38.3273C112.293 35.5717 109.52 33.3172 106.014 33.3172ZM106.014 40.9158C104.22 40.9158 102.996 39.8303 102.996 38.3273C102.996 36.8242 104.22 35.7387 106.014 35.7387C107.808 35.7387 109.031 36.8242 109.031 38.3273C109.031 39.8303 107.808 40.8323 106.014 40.9158Z" fill="#3E3A39"/>
<path d="M112.293 22.2114H109.031V32.8996H112.293V27.806H115.311V25.3845H112.293V22.2114Z" fill="#3E3A39"/>
<path d="M106.749 28.3071C106.749 27.138 106.26 26.136 105.445 25.301H107.402V22.8795H103.08V21.1259H99.8177V22.8795H95.4141V25.301H97.3713C96.5558 26.136 96.0665 27.138 96.0665 28.3071C96.0665 30.8121 98.4314 32.8997 101.449 32.8997C104.385 32.8997 106.749 30.8121 106.749 28.3071ZM99.1653 28.2236C99.1653 26.7205 100.062 25.802 101.449 25.802C102.835 25.802 103.732 26.7205 103.732 28.2236C103.732 29.6431 102.835 30.5616 101.449 30.6451C100.062 30.5616 99.1653 29.6431 99.1653 28.2236Z" fill="#3E3A39"/>
<path d="M128.767 30.2276V26.5535H125.505V30.2276H118.084V32.7327H138.064V30.2276H128.767Z" fill="#3E3A39"/>
<path d="M131.785 29.0586H134.639C134.639 29.0586 135.455 26.7205 135.455 21.7104H121.184V24.132H132.03C132.03 27.2215 131.785 29.0586 131.785 29.0586Z" fill="#3E3A39"/>
<path d="M128.115 33.7347C124.69 33.7347 121.836 35.9057 121.836 38.5778C121.836 41.1663 124.69 43.3374 128.115 43.3374C131.54 43.3374 134.395 41.1663 134.395 38.5778C134.395 35.9057 131.54 33.7347 128.115 33.7347ZM128.115 40.9158C126.321 40.9158 125.098 39.9138 125.098 38.5778C125.098 37.1582 126.321 36.2397 128.115 36.2397C129.909 36.2397 131.133 37.2417 131.133 38.5778C131.133 39.9138 129.828 40.9158 128.115 40.9158Z" fill="#3E3A39"/>
<path d="M8.31834 22.7125C5.05637 22.7125 2.36523 25.969 2.36523 29.9771C2.36523 33.9852 5.05637 37.2418 8.31834 37.2418C11.5803 37.2418 14.2715 33.9852 14.2715 29.9771C14.353 25.969 11.6619 22.7125 8.31834 22.7125ZM8.31834 34.7367C6.85045 34.7367 5.62721 32.6492 5.62721 30.0606C5.62721 27.4721 6.85045 25.3845 8.31834 25.3845C9.78623 25.3845 11.0095 27.4721 11.0095 30.0606C11.0095 32.6492 9.86778 34.7367 8.31834 34.7367Z" fill="#3E3A39"/>
<path d="M43.1409 22.2114H39.8789V42.8363H43.1409V22.2114Z" fill="#3E3A39"/>
<path d="M19.49 22.2114H16.1465V42.8363H19.49V30.9791H22.6704V28.4741H19.49V22.2114Z" fill="#3E3A39"/>
<path d="M54.0683 22.7125C50.8064 22.7125 48.1152 25.969 48.1152 29.9771C48.1152 33.9852 50.8064 37.2418 54.0683 37.2418C57.3303 37.2418 60.0215 33.9852 60.0215 29.9771C60.0215 25.969 57.3303 22.7125 54.0683 22.7125ZM54.0683 34.7367C52.6005 34.7367 51.3772 32.6492 51.3772 30.0606C51.3772 27.4721 52.6005 25.3845 54.0683 25.3845C55.5362 25.3845 56.7595 27.4721 56.7595 30.0606C56.7595 32.6492 55.5362 34.7367 54.0683 34.7367Z" fill="#3E3A39"/>
<path d="M65.1585 22.2114H61.8965V42.8363H65.1585V30.9791H68.4204V28.4741H65.1585V22.2114Z" fill="#3E3A39"/>
<path d="M88.2361 22.2114H84.8926V42.8363H88.2361V30.9791H91.4165V28.4741H88.2361V22.2114Z" fill="#3E3A39"/>
<path d="M32.1314 22.963H28.8694L25.6074 36.4067H28.7878L31.1528 26.5535C33.9255 28.9751 34.9041 36.4067 34.9041 36.4067H37.9214C38.0029 36.4067 37.4321 27.472 32.1314 22.963Z" fill="#3E3A39"/>
<path d="M77.1454 33.9017C76.4114 33.9017 76.0037 33.5677 76.0037 32.8161V22.963H72.6602V33.4007C72.6602 35.2377 74.2096 36.3232 75.759 36.3232H81.1413C82.1199 36.3232 83.18 36.1562 83.18 36.1562V33.7347C83.18 33.7347 82.3645 33.8182 81.386 33.8182L77.1454 33.9017Z" fill="#3E3A39"/>
</svg>
