<svg width="78" height="43" viewBox="0 0 78 43" fill="none" xmlns="http://www.w3.org/2000/svg">
<g clip-path="url(#clip0_66_21767)">
<path d="M56.2829 14.0112H76.2124C76.6935 14.0112 77.1058 13.5971 77.1058 13.0449V1.79454C77.1058 1.24237 76.6935 0.828247 76.2124 0.828247H50.1666C49.7542 0.828247 49.3419 0.966289 49.067 1.31139L41.7824 9.04173L34.4979 1.31139C34.223 1.03531 33.8106 0.828247 33.3983 0.828247H9.27672C8.86438 0.828247 8.45205 0.966289 8.17716 1.31139L1.30491 8.62761C1.03002 8.90369 0.892578 9.24879 0.892578 9.66292V41.2745C0.892578 41.8266 1.30491 42.2408 1.78597 42.2408H12.919C13.4001 42.2408 13.8124 41.8266 13.8124 41.2745V15.7368C13.8124 14.9085 14.4996 14.2183 15.3243 14.2183H27.2133C28.038 14.2183 28.7252 14.9085 28.7252 15.7368V41.3435C28.7252 41.8957 29.1375 42.3098 29.6186 42.3098H40.7516C41.2327 42.3098 41.645 41.8957 41.645 41.3435V34.0273L48.9296 41.7576C49.2045 42.0337 49.6168 42.2408 50.0291 42.2408H76.1437C76.6247 42.2408 77.0371 41.8266 77.0371 41.2745V30.0241C77.0371 29.4719 76.6247 29.0578 76.1437 29.0578H56.2142C55.3895 29.0578 54.7023 28.3676 54.7023 27.5393V15.5297C54.771 14.7014 55.4582 14.0112 56.2829 14.0112Z" fill="url(#paint0_linear_66_21767)"/>
</g>
<defs>
<linearGradient id="paint0_linear_66_21767" x1="39.054" y1="-1.62627" x2="39.054" y2="44.7508" gradientUnits="userSpaceOnUse">
<stop stop-color="#004C98"/>
<stop offset="0.5192" stop-color="#003F7D"/>
<stop offset="1" stop-color="#003569"/>
</linearGradient>
<clipPath id="clip0_66_21767">
<rect width="78" height="43" fill="white"/>
</clipPath>
</defs>
</svg>
