<svg width="110" height="32" viewBox="0 0 110 32" fill="none" xmlns="http://www.w3.org/2000/svg">
<path d="M69.7642 6.44732V9.22736H73.5057V9.93715C73.5057 12.8355 72.3545 14.3734 69.3037 15.3789L70.455 18.0407C72.5272 17.5083 74.5994 16.2662 75.4628 14.4917C76.3838 16.207 78.3409 17.4492 80.1829 17.8632L81.6219 14.7874C78.9741 14.1959 77.0745 12.7172 77.0745 9.878V9.16821H80.7585V6.38817L69.7642 6.44732ZM86.86 6.03327H83.4063V10.0555H80.1829V13.0129H83.4063V20.4067H86.4571C86.6873 19.4011 86.86 17.7449 86.86 16.5028V6.03327ZM87.2054 23.0092H77.0745C76.7867 23.0092 76.7292 22.9501 76.7292 22.6543V18.5139H73.2755V24.0739C73.2755 25.2569 73.8511 25.8484 75.0599 25.8484H87.2054V23.0092ZM89.1625 6.44732V9.22736H93.0766V10.5878C93.0766 14.1368 92.3859 16.3845 88.8171 17.9815L90.141 20.4658C92.1557 19.6969 94.1127 18.2181 94.9762 16.3253C95.8396 18.0998 97.7391 19.5786 99.5235 20.2884L101.135 17.39C97.6816 16.0296 96.4728 13.9593 96.4728 10.5878V9.28651H100.272V6.50647H89.1625V6.44732ZM109.079 11.2976H105.683V6.03327H102.402V25.8484H105.28C105.567 24.6654 105.683 22.6543 105.683 21.1165V14.1959H109.079V11.2976ZM41.2713 25.5527H49.1572V21.8854H40.2928V6.50647H36.0332V25.6118L41.2713 25.5527ZM58.5973 18.2773H62.1086V21.5896C61.4754 21.8262 60.209 22.122 59.0002 22.122C55.1436 22.122 53.8773 20.1109 53.8773 16.0296C53.8773 12.1257 55.0861 9.81885 58.9427 9.81885C61.0725 9.81885 62.3388 10.5287 63.3173 11.8299L65.9652 9.28651C64.3535 6.86137 61.4754 6.15157 58.8276 6.15157C52.8412 6.15157 49.6753 9.52311 49.6753 15.9704C49.6753 22.3586 52.4958 25.8484 58.77 25.8484C61.6481 25.8484 64.4686 25.0795 65.9652 23.9556V14.7283H58.5397L58.5973 18.2773Z" fill="#6B6C6C"/>
<path d="M15.2537 30.817C23.1971 30.817 29.5865 24.1922 29.5865 16.0296C29.5865 7.86691 23.1396 1.24214 15.2537 1.24214C7.36773 1.24214 0.863281 7.86691 0.863281 16.0296C0.863281 24.1922 7.31017 30.817 15.2537 30.817Z" fill="#A51B37"/>
<path d="M14.6771 9.5231V22.4769H18.6488V21.2939H15.7708V9.46395H14.6771V9.5231ZM10.6478 13.0721C11.5688 13.1312 12.4322 12.3623 12.4322 11.4159C12.4898 10.4103 11.7415 9.58225 10.8205 9.5231C10.7629 9.5231 10.7054 9.5231 10.6478 9.5231C9.72681 9.58225 8.97852 10.3512 8.97852 11.3567C9.03608 12.3031 9.72681 13.0129 10.6478 13.0721Z" fill="white"/>
<path d="M15.7711 3.66728C15.5984 3.66728 15.3681 3.66728 15.1954 3.66728C8.63344 3.66728 3.22266 9.16821 3.22266 16.0296C3.22266 19.342 4.48901 22.4177 6.73391 24.7837C8.97881 27.0906 12.0296 28.3919 15.253 28.3919C18.4189 28.3919 21.4696 27.0906 23.7721 24.7837C26.017 22.4769 27.2834 19.342 27.2834 16.0296V15.4381H26.8229H18.6491V16.5619H26.0746V16.7394C25.7292 22.5952 21.0092 27.2089 15.253 27.2089C12.3749 27.2089 9.61198 26.0259 7.53977 23.8965C5.46755 21.8262 4.31632 18.9279 4.37389 15.9704C4.37389 12.9538 5.52512 10.1738 7.53977 8.04436C9.55442 5.91497 12.3749 4.73198 15.253 4.73198H15.8286V3.66728H15.7711Z" fill="white"/>
</svg>
