<svg width="110" height="37" viewBox="0 0 110 37" fill="none" xmlns="http://www.w3.org/2000/svg">
<g clip-path="url(#clip0_66_21596)">
<mask id="mask0_66_21596" style="mask-type:luminance" maskUnits="userSpaceOnUse" x="0" y="-35" width="110" height="112">
<path d="M110 -34.2388H0V76.2089H110V-34.2388Z" fill="white"/>
</mask>
<g mask="url(#mask0_66_21596)">
<path d="M17.9843 35.1224C25.7393 35.1224 32.0643 28.8269 32.0643 20.9851C32.0643 13.1985 25.7393 6.84776 17.9843 6.84776C10.2293 6.84776 3.9043 13.1985 3.9043 20.9851C3.9043 28.7716 10.2293 35.1224 17.9843 35.1224Z" fill="#C00C3F"/>
</g>
<mask id="mask1_66_21596" style="mask-type:luminance" maskUnits="userSpaceOnUse" x="0" y="-35" width="110" height="112">
<path d="M110 -34.2388H0V76.2089H110V-34.2388Z" fill="white"/>
</mask>
<g mask="url(#mask1_66_21596)">
<path d="M17.4342 14.8V27.2254H21.3392V26.1209H18.5342V14.8H17.4342ZM13.5292 18.1687C14.4642 18.1687 15.2342 17.3955 15.2342 16.4567C15.2342 15.5179 14.4642 14.7448 13.5292 14.7448C12.5942 14.7448 11.8242 15.5179 11.8242 16.4567C11.8242 17.3955 12.5942 18.1687 13.5292 18.1687Z" fill="white"/>
</g>
<mask id="mask2_66_21596" style="mask-type:luminance" maskUnits="userSpaceOnUse" x="0" y="-35" width="110" height="112">
<path d="M110 -34.2388H0V76.2089H110V-34.2388Z" fill="white"/>
</mask>
<g mask="url(#mask2_66_21596)">
<path d="M18.5895 9.16717C18.4245 9.16717 18.1495 9.16717 18.0395 9.16717C11.5495 9.16717 6.26953 14.4687 6.26953 20.9851C6.26953 24.1328 7.47953 27.1149 9.73453 29.3791C11.9895 31.5881 14.9045 32.8582 18.0945 32.8582C21.2295 32.8582 24.1995 31.6433 26.3995 29.3791C28.5995 27.1702 29.8645 24.1881 29.8645 20.9851V20.4328H21.3945V21.5373H28.7095V21.703C28.3245 27.2806 23.6495 31.6985 17.9845 31.6985C15.1245 31.6985 12.4295 30.594 10.4495 28.5507C8.41453 26.5075 7.31453 23.8567 7.31453 20.9851C7.31453 18.1134 8.41453 15.4075 10.4495 13.4194C12.4845 11.3761 15.1245 10.2716 17.9845 10.2716C18.0945 10.2716 18.4245 10.2716 18.5345 10.2716L18.5895 9.16717Z" fill="white"/>
</g>
<mask id="mask3_66_21596" style="mask-type:luminance" maskUnits="userSpaceOnUse" x="0" y="-35" width="110" height="112">
<path d="M110 -34.2388H0V76.2089H110V-34.2388Z" fill="white"/>
</mask>
<g mask="url(#mask3_66_21596)">
<path d="M42.6803 11.597H38.4453V29.9866H51.4253V26.397H42.6803V11.597ZM60.7753 23.0284H64.2403V26.2313C63.5803 26.4522 62.3703 26.7284 61.1603 26.7284C57.3653 26.7284 56.1003 24.7955 56.1003 20.8194C56.1003 17.0642 57.3103 14.8552 61.1053 14.8552C63.2503 14.8552 64.4053 15.5179 65.4503 16.7881L68.0903 14.3582C66.4953 12.0388 63.6903 11.3761 61.0503 11.3761C55.1103 11.3761 52.0303 14.6343 52.0303 20.8194C52.0303 27.0045 54.8353 30.3179 61.0503 30.3179C63.9103 30.3179 66.6603 29.6 68.2003 28.5507V19.6045H60.8303V23.0284H60.7753ZM101.53 11.597V6.95821H98.1203V11.597H93.6103V14.8552H98.1203V19.4388H101.53V14.8552H106.04V11.597H101.53Z" fill="#6D6E71"/>
</g>
<mask id="mask4_66_21596" style="mask-type:luminance" maskUnits="userSpaceOnUse" x="0" y="-35" width="110" height="112">
<path d="M110 -34.2388H0V76.2089H110V-34.2388Z" fill="white"/>
</mask>
<g mask="url(#mask4_66_21596)">
<path d="M86.5701 11.597V22.2552C86.5701 25.1821 85.1401 26.6179 82.6651 26.6179C80.1901 26.6179 78.7601 25.1821 78.7601 22.2552V11.597H74.5801V22.3104C74.5801 28.109 77.6601 30.3179 82.5001 30.3179C82.5551 30.3179 82.6101 30.3179 82.6651 30.3179C82.7201 30.3179 82.7751 30.3179 82.8301 30.3179C87.6701 30.3179 90.7501 28.1642 90.7501 22.3104V11.597H86.5701Z" fill="#6D6E71"/>
</g>
</g>
<defs>
<clipPath id="clip0_66_21596">
<rect width="110" height="37" fill="white"/>
</clipPath>
</defs>
</svg>
