<svg width="50" height="50" viewBox="0 0 50 50" fill="none" xmlns="http://www.w3.org/2000/svg">
<g clip-path="url(#clip0_66_23032)">
<path d="M50 0H0V50H50V0Z" fill="#EC1C24"/>
<path d="M40.0008 6.80005H36.8008V22.6H40.0008V6.80005Z" fill="white"/>
<path d="M16.7992 17.4C16.7992 20.3 14.3992 22.7 11.4992 22.7C8.59922 22.7 6.19922 20.3 6.19922 17.4V6.80005H9.39922V17.3C9.39922 18.5 10.2992 19.4 11.4992 19.4C12.6992 19.4 13.5992 18.5 13.5992 17.3V6.80005H16.7992V17.4Z" fill="white"/>
<path d="M31.5996 43.2H21.0996V27.4H24.1996V40H31.5996V43.2Z" fill="white"/>
<path d="M31.5996 22.6H28.3996L24.1996 13.6V22.6H21.0996V6.80005H24.1996L28.3996 15.9V6.80005H31.5996V22.6Z" fill="white"/>
<path d="M11.5988 27.4C8.69883 27.4 6.29883 29.8 6.29883 32.7V38C6.29883 40.9 8.69883 43.3 11.5988 43.3C11.8988 43.3 12.2988 43.3 12.5988 43.2L13.6988 46.5H16.8988L15.2988 41.8C16.2988 40.8 16.8988 39.5 16.8988 38.1V32.8C16.7988 29.7 14.4988 27.4 11.5988 27.4ZM13.6988 37.9C13.6988 39.1 12.7988 40 11.5988 40C10.3988 40 9.49883 39.1 9.49883 37.9V32.6C9.49883 31.4 10.3988 30.5 11.5988 30.5C12.7988 30.5 13.6988 31.4 13.6988 32.6V37.9Z" fill="white"/>
<path d="M38.3996 27.4C35.4996 27.4 33.0996 29.8 33.0996 32.7V38C33.0996 40.9 35.4996 43.3 38.3996 43.3C41.2996 43.3 43.6996 40.9 43.6996 38V32.7C43.6996 29.7 41.2996 27.4 38.3996 27.4ZM40.4996 37.9C40.4996 39.1 39.5996 40 38.3996 40C37.1996 40 36.2996 39.1 36.2996 37.9V32.6C36.2996 31.4 37.1996 30.5 38.3996 30.5C39.5996 30.5 40.4996 31.4 40.4996 32.6V37.9Z" fill="white"/>
</g>
<defs>
<clipPath id="clip0_66_23032">
<rect width="50" height="50" fill="white"/>
</clipPath>
</defs>
</svg>
