<svg width="110" height="35" viewBox="0 0 110 35" fill="none" xmlns="http://www.w3.org/2000/svg">
<path d="M108.127 32.4957C107.764 32.6178 105.951 33.1065 103.956 33.1065C99.6048 33.1065 97.2477 31.2129 97.2477 27.1815V2.99304H99.7257C102.264 2.99304 103.11 4.52009 103.11 6.59688V8.42934H108.127V9.83423C108.127 11.8499 106.737 13.0105 104.682 13.0105H103.11V26.1431C103.11 27.6091 103.594 28.5864 105.588 28.5864C106.797 28.5864 107.885 28.2199 108.066 28.1588C108.127 28.6475 108.127 32.4957 108.127 32.4957ZM92.9565 12.3386C94.1652 12.3386 95.4949 12.7051 95.6158 12.7662V8.42934C95.4345 8.36826 93.0169 7.8796 90.7202 7.8796C86.8521 7.8796 84.1323 9.46774 84.1323 13.6824V32.4957H89.9949V14.843C90.0553 13.2548 91.0224 12.3386 92.9565 12.3386ZM59.4729 14.6597C59.4729 12.2164 58.1433 7.8796 50.2861 7.8796C46.2971 7.8796 44.6652 8.918 44.1213 9.34557C43.5169 8.97908 41.6433 7.8796 37.9565 7.8796C30.7641 7.8796 28.8301 11.4834 28.8301 14.5375V32.5567H34.6927C34.6927 32.5567 34.6927 15.5759 34.6927 14.9651C34.6927 13.9267 35.2367 12.3997 37.9565 12.3997C40.0718 12.3997 41.2202 13.4992 41.2202 14.9651C41.2202 15.3927 41.2202 32.5567 41.2202 32.5567H47.0828C47.0828 32.5567 47.0828 16.0035 47.0828 14.9651C47.0828 13.4992 48.1707 12.3997 50.3466 12.3997C52.6433 12.3997 53.6103 13.6213 53.6103 14.9651C53.6103 16.0035 53.6103 28.4642 53.6103 28.5253C53.6103 31.2129 55.1213 32.6789 57.5993 32.6789C59.2916 32.6789 59.5334 32.6789 59.5334 32.6789V14.6597H59.4729ZM71.9235 7.81852C79.2971 7.81852 81.9565 11.3613 81.9565 16.0035V23.6388C81.9565 29.014 78.5718 33.0454 71.5004 33.0454C64.7312 33.0454 61.1048 29.8691 61.1048 25.5323C61.1048 22.1117 63.4015 19.8517 68.418 18.4468C69.1433 18.2635 71.6213 17.5306 72.7092 17.1641C75.2477 16.4311 76.0334 15.8203 76.0334 14.7208C76.0334 13.5602 74.6433 12.2775 71.7422 12.2775C68.2971 12.2775 67.2092 14.4154 67.2092 15.9424H61.8905C61.8905 11.2391 64.7312 7.81852 71.9235 7.81852ZM71.0169 28.5864C73.2532 28.5864 76.0334 27.1204 76.0334 23.4555V20.5847C76.0334 20.5847 71.5608 21.8674 70.3521 22.2339C68.1158 22.9058 67.0279 24.0663 67.0279 25.5323C67.0279 27.0594 68.2971 28.5864 71.0169 28.5864Z" fill="#464B54"/>
<path d="M14.0223 33.0454C5.92336 33.0454 2.35742 28.0366 2.35742 21.6841V14.8429C2.35742 5.98602 8.15962 2.56543 15.0497 2.56543C23.33 2.56543 26.8959 7.0855 26.8959 11.6667C26.8959 18.3246 20.1871 19.9127 17.2256 20.7679C16.3794 21.0122 13.2365 21.9895 12.5113 22.1728C9.73105 22.9668 8.94533 23.8831 8.94533 24.9215C8.94533 26.6928 10.4563 28.2199 14.0223 28.2199C17.1047 28.2199 19.3409 27.1815 19.764 23.8831H26.231C25.5662 29.0139 22.4838 33.0454 14.0223 33.0454ZM14.808 7.45199C11.242 7.45199 8.88489 9.89527 8.88489 13.9878V18.3246C8.88489 18.3246 13.7201 16.9197 15.775 16.2478C17.4673 15.6981 20.4893 14.6597 20.4893 11.911C20.4893 9.65095 18.5552 7.45199 14.808 7.45199Z" fill="#F8B62D"/>
</svg>
