<svg width="120" height="47" viewBox="0 0 120 47" fill="none" xmlns="http://www.w3.org/2000/svg">
<path d="M74.9098 1.16381C74.8189 1.07429 74.8189 1.07429 74.728 1.07429C74.3643 0.984765 74.0916 1.25334 73.5462 1.61143L73.1825 1.88C71.8189 2.59619 70.728 5.9981 70.4553 7.43048C70.4553 7.43048 70.3643 7.43048 70.2734 7.52C69.4553 6.08762 67.8189 4.74477 66.2734 4.47619C66.9098 6.89334 69.0916 14.2343 72.0007 13.6076C73.4553 13.2495 76.5462 7.16191 76.5462 3.84953V3.76C76.5462 2.05905 75.728 1.43238 74.9098 1.16381Z" fill="#F08300"/>
<path d="M94.4547 38.6743C90.8184 38.8533 89.6365 38.6743 86.0911 39.7486C85.6365 39.9276 85.182 40.1962 84.7275 40.6438C84.8184 41.36 84.3638 42.5238 85.0002 42.7924C85.0002 42.7924 85.0002 42.8819 85.0911 42.9714C85.2729 43.1505 85.5456 43.24 85.7275 43.4191C85.8184 43.5981 86.0002 43.4191 86.0911 43.5086C86.182 43.5981 86.182 43.6876 86.2729 43.6876C86.6365 43.8667 86.9093 43.7772 87.2729 43.9562C87.4547 44.1352 87.6365 44.0457 87.8184 44.1352C87.9093 44.1352 88.0911 44.3143 88.0911 44.4038C88.7275 44.6724 89.3638 44.4038 90.0002 44.4038C92.0002 44.4038 91.6365 44.1352 93.6365 44.1352C95.3638 44.1352 97.0002 44.4038 98.6365 44.3143C99.5456 44.3143 100.546 44.3143 101.455 44.2248C103.091 44.1352 104.727 44.4038 106.273 44.4038C107.091 44.4038 108 44.6724 108.818 44.7619C109.727 44.7619 110.546 44.5829 111.455 44.7619C111.727 44.7619 112 44.7619 112.273 44.8514C112.546 44.941 112.818 45.12 113.091 45.12C113.909 45.2095 114.546 44.8514 115.273 44.5829C115.727 44.4038 116.182 44.4038 116.546 44.1352C116.727 44.0457 116.909 43.6876 117 43.4191C117.182 42.7924 117.364 42.1657 117.182 41.4495C117.182 41.4495 117 41.5391 117 41.4495C116.909 41.36 116.909 41.0914 116.818 41.0914C116.455 41.0019 116.182 40.9124 115.818 40.8229C115.364 40.7333 114.909 40.5543 114.546 40.4648C112.727 40.1067 101.273 38.4057 94.4547 38.6743Z" fill="#009F73"/>
<path d="M59.3645 39.9276C59.7282 40.0171 60.1827 40.0172 60.3645 40.1962C60.5463 40.3752 60.1827 40.7333 60.1827 40.9124C60.1827 41.5391 60.3645 42.0762 60.3645 42.6133C60.3645 42.7029 60.3645 42.7924 60.1827 42.8819C60.0918 43.061 59.91 43.1505 59.7282 43.3295C59.1827 43.6876 58.5463 43.5086 58.0009 43.6876C57.2736 43.9562 56.4554 43.9562 55.6372 44.0457C54.1827 44.2248 52.91 43.8667 51.4554 43.8667C50.91 43.8667 50.3645 43.8667 49.91 44.0457C49.2736 44.2248 48.6372 44.2248 48.0009 44.1352C44.6372 44.0457 41.2736 43.9562 37.91 43.9562C37.2736 43.9562 36.6372 44.0457 36.0918 44.0457C33.3645 44.2248 30.6373 44.1352 27.91 44.2248C27.0009 44.2248 26.0009 44.3143 25.0918 44.2248C24.5463 44.2248 24.0009 44.2248 23.5463 44.2248C21.5463 44.3143 19.4554 44.4038 17.4554 44.3143C16.7282 44.3143 15.8191 44.3143 15.0918 44.3143C12.8191 44.4038 10.5463 44.7619 8.27362 44.6724C6.63725 44.5829 5.0918 44.2248 3.54634 43.4191C2.54634 42.8819 1.72816 42.1657 1.0918 41.2705C1.45543 40.7333 2.0918 40.5543 2.72816 40.3752C4.27361 40.0171 5.63725 39.7486 7.18271 39.48C8.45543 39.301 9.63725 39.1219 10.91 39.0324C27.1827 37.6 45.3645 38.1371 52.4554 38.5848C54.8191 39.1219 57.0918 39.48 59.3645 39.9276Z" fill="#0073BD"/>
<path d="M88.7284 24.9771C88.7284 25.0667 88.7284 25.0667 88.7284 25.1562C88.9103 25.5143 89.183 25.6038 89.4557 25.8724C89.7285 25.8724 90.0921 25.8724 90.3648 25.8724C90.3648 25.6933 90.5466 25.8724 90.5466 25.6933C90.7284 25.6933 91.0921 25.6038 91.2739 25.3352C91.3648 25.3352 91.3648 25.3352 91.4557 25.3352C91.6375 25.0667 91.8194 24.8876 92.183 24.8876C92.5466 24.44 92.9103 23.9924 93.3648 23.5448C93.3648 23.3657 93.4557 23.1867 93.6375 23.0971C93.9103 22.2914 94.0012 21.3067 94.4557 20.501C94.4557 20.2324 94.6375 19.8743 94.5466 19.6057C94.6375 19.6057 94.7284 19.6057 94.7284 19.5162C94.6375 19.1581 94.9103 18.9791 95.0012 18.8C95.183 18.8 95.2739 18.8 95.3648 18.621C95.3648 18.5314 95.3648 18.5314 95.3648 18.4419C95.7285 18.4419 96.183 18.7105 96.4557 19.0686C96.6375 19.0686 96.7284 19.0686 97.0012 19.0686C97.0012 19.2476 97.0921 19.2476 97.183 19.3371C97.5466 19.3371 98.4557 19.2476 98.9103 19.4267C98.9103 19.6952 99.2739 19.6057 99.4557 19.8743C99.5466 20.1429 99.5466 20.4114 99.7284 20.68C99.7284 20.7695 99.7284 20.8591 99.6375 20.9486C99.8194 21.2171 100.001 21.6648 99.7284 21.9333C99.8194 22.2914 99.7285 22.7391 99.9103 23.0971C99.7285 23.2762 99.8194 23.5448 99.8194 23.7238C100.001 24.0819 100.001 24.5295 100.092 24.9771C100.456 25.4248 100.365 25.9619 100.728 26.4095C100.728 26.5886 100.728 26.7676 100.728 26.9467C100.91 26.9467 100.728 27.2152 100.91 27.2152C101.001 27.7524 100.728 28.3791 100.728 29.0057C100.638 29.0952 100.547 29.1848 100.456 29.2743C100.456 29.3638 100.456 29.3638 100.456 29.4533C100.365 29.4533 100.274 29.4533 100.274 29.3638C100.092 29.6324 99.7284 29.8114 99.5466 30.08C99.3648 29.9905 99.2739 30.1695 99.183 30.1695C99.0012 30.1695 99.183 30.4381 99.0012 30.4381C98.8194 30.4381 98.6375 30.5276 98.4557 30.6171C98.2739 30.7067 97.5466 30.5276 97.3648 30.7067L97.2739 30.6171C97.183 30.7067 97.0921 30.7962 96.9103 30.7962C96.9103 30.7067 96.9103 30.6171 96.8194 30.6171C96.7284 30.8857 96.2739 31.0648 96.0012 30.9752C95.9103 30.7962 95.9103 30.6171 95.7285 30.5276C95.6375 29.9905 95.6375 29.4533 95.3648 28.9162C95.4557 28.9162 95.4557 28.8267 95.4557 28.7371C95.3648 28.4686 95.183 28.2 95.183 28.021C94.9103 27.6629 94.9103 27.2152 94.5466 26.9467C94.6375 26.8571 94.3648 26.7676 94.4557 26.6781C94.2739 26.4991 94.183 26.4095 94.0921 26.2305C93.9103 26.2305 93.9103 26.32 93.8194 26.4095C93.7284 26.8571 93.3648 27.1257 93.2739 27.5733L93.183 27.4838C93.0921 27.7524 92.9103 27.9314 92.9103 28.1105C92.7284 28.2 92.6375 28.4686 92.5466 28.5581C92.5466 28.6476 92.5466 28.6476 92.5466 28.7371C92.0012 29.2743 91.7284 29.9905 91.0921 30.3486C90.9103 30.7067 90.5466 30.7962 90.3648 31.1543C90.0921 31.1543 89.7285 31.2438 89.4557 31.3333C89.2739 31.2438 88.9103 31.0648 88.7284 31.2438C88.7284 31.1543 88.6375 31.1543 88.5466 31.1543L88.4557 31.2438C88.2739 31.0648 87.9103 31.2438 87.6375 31.1543C87.0012 30.7067 86.3648 30.4381 85.6375 30.08C85.4557 30.08 85.6375 29.8114 85.4557 29.8114C85.3648 29.8114 85.2739 29.8114 85.183 29.7219C85.183 29.4533 85.2739 29.2743 85.0012 29.0057L85.0921 28.9162C85.0921 28.8267 85.0012 28.8267 84.9103 28.8267C84.8194 28.2895 84.5466 27.7524 84.3648 27.2152C84.2739 27.1257 84.2739 27.1257 84.183 27.0362C84.183 26.7676 84.0921 26.4991 84.0012 26.2305C83.9103 25.8724 84.2739 25.5143 84.0921 25.1562C84.0921 25.0667 84.0921 24.9771 84.183 24.8876C84.0921 24.44 84.183 24.1714 84.2739 23.7238C84.183 23.7238 84.183 23.6343 84.183 23.5448C84.3648 23.1867 84.3648 22.8286 84.3648 22.4705C84.4557 22.2019 84.6375 21.9333 84.7284 21.6648L84.6375 21.5752C84.8194 21.3962 84.7285 21.1276 85.0012 20.9486C85.0012 20.8591 85.0012 20.7695 84.9103 20.7695C84.9103 20.5905 85.0921 20.501 85.183 20.4114C85.2739 20.2324 85.6375 19.5162 85.9103 19.3371L85.8194 19.2476C86.0012 18.9791 86.4557 18.8895 86.7285 18.8895C87.0012 18.8895 87.4557 19.1581 87.6375 19.1581C87.7285 19.3371 87.6375 19.5162 87.8194 19.7848C87.9103 19.7848 87.9103 19.7848 88.0012 19.7848C88.0012 19.8743 88.0012 19.8743 88.0012 19.9638C88.0012 20.0533 88.0921 20.0533 88.183 20.0533C88.2739 20.3219 88.3648 20.5905 88.3648 20.8591C88.3648 20.9486 88.4557 20.9486 88.5466 20.9486C88.4557 21.1276 88.7284 21.3067 88.7284 21.4857C88.5466 21.6648 88.7285 21.9333 88.6375 22.2019C88.8194 22.6495 88.8194 23.1867 89.0012 23.6343C88.3648 24.3505 88.5466 24.7086 88.7284 24.9771Z" fill="black"/>
<path d="M51.274 28.3791C51.274 28.3791 51.6376 28.6476 51.7285 28.8267C51.8194 29.0057 52.0012 29.2743 52.1831 29.2743C52.3649 29.3638 52.5467 29.4533 52.5467 29.4533L52.6376 29.7219L52.9103 29.9905C53.274 30.08 53.274 29.901 53.5467 30.2591C53.6376 30.2591 53.7285 30.2591 53.7285 30.3486L53.8194 30.2591C53.9103 30.4381 54.1831 30.5276 54.274 30.6171C54.6376 30.6171 54.9103 30.7067 55.0921 30.9752C55.1831 30.9752 55.1831 31.1543 55.1831 31.0648C55.5467 31.1543 55.7285 31.4229 56.0012 31.1543C56.0921 31.1543 56.1831 31.1543 56.1831 31.2438L56.274 31.1543C56.4558 31.0648 56.5467 31.3333 56.7285 31.2438C56.8194 31.2438 56.8194 31.3333 56.8194 31.4229C56.9103 31.4229 56.9103 31.4229 57.0012 31.4229C57.1831 31.6019 58.1831 31.3333 58.3649 31.5124C59.6376 31.6914 61.6376 31.4229 61.6376 31.4229C61.6376 31.2438 62.0012 31.4229 62.0012 31.2438L62.0922 31.3333C62.5467 31.4229 63.0012 30.9752 63.3649 31.1543C63.4558 31.0648 63.4558 31.0648 63.5467 30.9752C63.7285 30.8857 64.0921 31.2438 64.274 30.9752C64.274 31.0648 64.3649 31.0648 64.4558 31.0648C64.4558 30.9752 64.4558 30.9752 64.4558 30.8857C64.8194 30.7067 65.1831 30.7962 65.4558 30.5276C65.5467 30.5276 65.7285 30.5276 65.9103 30.5276C66.0012 30.4381 66.0012 30.4381 66.1831 30.3486C66.7285 30.2591 67.1831 29.8114 67.8194 29.6324C67.9103 29.5429 68.0921 29.5429 68.1831 29.2743C68.274 29.2743 68.3649 29.2743 68.5467 29.2743C68.6376 29.1848 68.7285 29.0952 68.8194 29.0057C69.1831 29.0952 69.4558 28.6476 69.7285 28.5581C69.7285 28.4686 69.7285 28.3791 69.8194 28.3791L69.9103 28.4686C70.0922 28.3791 70.0921 28.3791 70.1831 28.1105C70.5467 28.1105 70.7285 27.7524 70.9103 27.5733C71.0012 27.5733 71.0012 27.5733 71.0921 27.5733C71.1831 27.4838 71.1831 27.4838 71.274 27.3943C71.3649 27.3943 71.3649 27.3943 71.4558 27.3943C71.7285 27.1257 71.9103 26.8571 72.274 26.6781C72.274 26.5886 72.274 26.4991 72.3649 26.4991C72.5467 26.5886 72.5467 26.32 72.6376 26.141C72.7285 26.0514 73.0012 25.8724 73.0922 25.9619C73.0922 26.141 73.3649 25.6038 73.3649 25.6933C73.4558 25.7829 73.8194 24.8876 73.9103 24.7981L73.0012 22.4705C72.6376 22.9181 71.5467 24.44 70.9103 24.5295C70.9103 24.9771 70.3649 25.0667 70.0012 25.3352C70.0012 25.4248 70.0922 25.5143 69.9103 25.5143C69.6376 25.6038 69.4558 25.9619 69.274 25.9619C69.274 25.8724 69.1831 25.8724 69.0012 25.9619C68.9103 26.0514 68.7285 26.141 68.6376 26.32C68.3649 26.4095 68.274 26.6781 68.0922 26.9467L68.0012 26.8571C67.6376 27.2152 67.0921 27.1257 66.8194 27.5733C66.1831 27.8419 65.7285 27.9314 65.0921 28.2C65.0012 28.2 64.9103 28.2 64.9103 28.1105C64.8194 28.2895 64.3649 28.1105 64.274 28.3791C63.6376 28.3791 63.0921 28.3791 62.4558 28.4686C62.4558 28.2895 62.1831 28.4686 62.0922 28.2895C61.5467 28.4686 61.0012 28.2 60.5467 28.2C60.4558 28.1105 60.1831 28.1105 60.0921 27.9314C59.5467 28.021 59.274 27.9314 58.9103 27.6629C58.5467 27.6629 58.3649 27.3943 58.0922 27.3048C58.0922 27.2152 58.0922 27.2152 58.0922 27.1257C58.0012 27.0362 58.0012 27.0362 57.9103 26.9467C57.9103 26.6781 58.274 26.6781 58.4558 26.5886C58.6376 26.32 59.274 26.4095 59.4558 26.0514C59.4558 25.9619 59.7285 25.7829 59.7285 25.6933C59.8194 25.5143 59.9103 25.3352 60.0012 25.3352C60.3649 25.1562 60.0921 24.9771 60.5467 24.7981C60.5467 24.7086 60.9103 24.44 60.8194 24.3505C61.274 24.0819 61.274 23.9029 61.3649 23.3657C61.5467 23.0971 61.9103 22.7391 61.9103 22.381C62.0012 22.2914 61.9103 21.8438 62.0922 21.7543C62.1831 21.1276 61.9103 20.7695 61.9103 20.1429C61.8194 20.0533 61.8194 20.0533 61.7285 19.9638C61.7285 19.6952 61.5467 19.5162 61.6376 19.2476C61.3649 18.9791 61.3649 18.8895 61.0921 18.621L60.9103 18.4419C60.8194 18.4419 60.8194 18.4419 60.7285 18.4419C60.6376 18.2629 60.274 18.1733 60.274 17.9943C59.8194 17.9048 59.4558 17.6362 59.0012 17.4571L58.9103 17.5467L59.0922 17.4571C59.0012 17.5467 59.0012 17.5467 58.9103 17.6362C58.9103 17.3676 58.6376 17.6362 58.4558 17.4571C58.274 17.4571 58.0012 17.3676 57.8194 17.5467C57.1831 17.3676 56.4558 17.7257 55.8194 17.3676C55.8194 17.5467 55.3649 17.2781 55.3649 17.5467C55.1831 17.6362 54.8194 17.6362 54.7285 17.7257C54.6376 17.7257 54.5467 17.7257 54.3649 17.7257C54.0012 17.9943 53.7285 18.3524 53.0922 18.3524C52.9103 18.3524 53.0922 18.621 52.9103 18.621C52.8194 18.621 52.8194 18.621 52.7285 18.621C52.1831 19.0686 51.7285 19.6057 51.0922 20.0533C51.0922 20.1429 50.9103 20.2324 51.0012 20.4114C51.0012 20.501 50.9103 20.501 50.8194 20.501C50.8194 20.68 50.7285 20.7695 50.6376 20.8591C50.6376 20.9486 50.6376 21.0381 50.7285 21.0381C50.7285 21.1276 50.5467 21.3962 50.4558 21.3962C50.3649 21.7543 50.3649 22.1124 50.0012 22.2914C50.0012 23.0076 49.8194 23.3657 49.7285 24.261C49.8194 24.7086 49.8194 25.3352 49.8194 25.7829C50.1831 25.9619 49.7285 25.9619 50.0012 26.2305C50.0922 26.2305 50.0921 26.4095 50.0921 26.4991C50.1831 26.6781 50.5467 26.8571 50.4558 27.0362C50.4558 27.1257 50.6376 27.2152 50.7285 27.2152C50.8194 27.3943 50.5467 27.6629 50.8194 27.7524C50.8194 27.8419 51.1831 27.7524 51.0922 27.9314L51.274 28.3791ZM58.274 22.2914C58.0921 22.381 58.274 22.56 58.0922 22.6495L58.1831 22.7391C58.0922 23.5448 57.6376 24.6191 56.4558 25.4248C56.3649 25.4248 56.274 25.4248 56.274 25.3352C56.274 25.1562 56.0922 24.7981 56.1831 24.6191C56.1831 24.5295 56.0921 24.5295 56.0012 24.5295C56.1831 24.3505 55.8194 24.1714 56.0012 23.8133C55.9103 23.8133 55.9103 23.7238 55.9103 23.6343C56.274 23.4552 56.0012 22.9181 56.274 22.7391L56.1831 22.6495C56.274 22.4705 56.4558 22.1124 56.6376 21.9333C56.6376 21.8438 56.6376 21.8438 56.6376 21.7543C57.0922 21.3962 57.6376 21.2171 58.1831 20.9486C58.274 20.9486 58.3649 20.9486 58.3649 21.0381C58.5467 21.4857 58.3649 21.8438 58.274 22.2914Z" fill="black"/>
<path d="M76.8198 21.3962C76.8198 21.4857 76.8198 21.6648 76.8198 21.7543C77.5471 22.4705 77.3652 23.6343 77.9107 24.5295C77.638 24.7981 77.8198 25.1562 77.7289 25.5143C77.9107 25.6038 77.9107 25.6038 78.0016 25.7829C77.8198 26.4991 78.2743 27.0362 78.1834 27.7524C78.0925 27.9314 78.0925 27.9314 77.9107 28.021C77.9107 28.1105 77.9107 28.2895 78.0925 28.2895L78.0016 28.4686L78.1834 28.5581L78.0925 28.7371C78.1834 28.7371 78.2743 28.8267 78.2743 29.0057C78.0925 29.2743 78.4561 29.6324 78.0925 29.901C78.2743 29.9905 78.2743 30.1695 78.2743 30.2591C77.9107 30.5276 78.0925 31.1543 77.9107 31.5124L78.0016 31.6019L77.9107 31.781L77.8198 31.6914C77.7289 31.6914 77.7289 31.8705 77.7289 31.96C77.9107 32.2286 78.0925 32.4971 77.9107 32.7657L78.0925 32.8552C77.7289 33.1238 77.547 33.4819 77.4561 33.84C77.3652 33.9295 77.3652 33.9295 77.1834 34.1086C77.2743 34.1981 77.2743 34.3771 77.2743 34.4667C77.0016 34.7352 76.9107 35.0038 76.7289 35.2724C76.7289 35.3619 76.8198 35.6305 76.638 35.8095L76.7289 35.8991C76.638 36.1676 76.4561 36.5257 76.3652 36.7943C76.4561 36.7943 76.4561 36.8838 76.4561 37.0629C76.0925 37.3314 75.638 37.6 75.8198 38.1371C75.5471 38.4952 75.2743 38.6743 75.0925 39.0324C75.1834 39.301 74.638 39.3905 74.638 39.6591C74.638 39.9276 74.2743 39.8381 74.3652 40.0171L74.4561 40.1067C74.3652 40.1067 74.3652 40.1067 74.1834 40.1067C74.0925 40.3752 74.0925 40.3752 73.8198 40.4648C73.8198 40.5543 73.8198 40.7333 73.7289 40.7333C73.547 40.9124 73.3652 41.0914 73.1834 41.36C73.2743 41.4495 72.8198 41.7181 72.9107 41.7181C72.8198 41.8076 72.638 41.9867 72.638 42.1657C72.5471 42.1657 72.3652 42.1657 72.3652 42.2552V42.4343C72.2743 42.5238 72.2743 42.5238 72.0925 42.5238C71.1834 43.5981 69.7289 44.0457 68.8198 45.12C68.547 45.2095 68.2743 45.2991 68.0925 45.4781C67.8198 45.5676 67.9107 45.9257 67.7289 45.8362C67.7289 45.7467 67.3652 45.9257 67.2743 45.9257C67.0016 46.1943 66.638 46.0152 66.3652 46.0152C66.3652 45.9257 66.2743 45.9257 66.0925 45.7467L65.8198 45.6571C65.7289 45.5676 65.4561 45.2991 65.2743 45.2991C65.1834 45.2095 65.3652 45.0305 65.2743 45.0305L65.3652 44.941C65.3652 44.8514 65.1834 44.7619 65.0925 44.7619C64.9107 44.4933 65.3652 44.6724 65.2743 44.4038H64.8198C64.7289 44.1352 64.4561 44.1352 64.3652 43.8667C64.3652 43.5981 64.9107 43.5981 64.9107 43.4191C65.1834 43.4191 65.0925 43.4191 65.3652 43.24L65.2743 43.061C65.5471 42.9714 65.4561 42.7029 65.638 42.7029C65.638 42.7924 65.7289 42.7029 65.8198 42.7029C65.9107 42.7029 66.0925 42.7029 66.0925 42.6133C66.0925 42.5238 66.0925 42.3448 66.2743 42.2552C66.3652 42.2552 66.3652 42.2552 66.547 42.2552C67.0925 41.8076 66.7289 42.0762 67.2743 41.5391C67.2743 41.4495 67.2743 41.4495 67.2743 41.2705C67.3652 41.181 67.4561 40.9124 67.7289 40.8229C67.7289 40.9124 67.7289 41.0914 67.8198 41.0914C68.1834 40.8229 68.0016 40.7333 67.9107 40.4648C68.0016 40.3752 68.0016 40.3752 68.1834 40.1962C68.1834 40.2857 68.3652 40.1962 68.2743 40.1962C68.2743 40.2857 68.3652 39.9276 68.5471 39.9276C68.8198 39.48 68.638 40.0171 69.0925 39.2114C69.1834 39.1219 69.4561 39.0324 69.4561 38.9429C69.4561 38.9429 69.7289 38.8533 69.638 38.6743C69.638 38.5848 69.638 38.4952 69.4561 38.6743C69.638 38.4057 70.0016 38.0476 70.0925 37.7791C70.4561 37.9581 70.1834 37.3314 70.3652 37.3314C70.2743 37.421 70.0925 37.2419 70.0925 37.3314H70.4561C70.7289 37.0629 70.0925 37.1524 70.3652 36.8838C70.3652 36.7943 70.3652 36.7048 70.1834 36.7048C70.1834 36.6152 70.1834 36.4362 70.2743 36.4362L70.3652 36.5257C70.4561 36.4362 70.2743 35.9886 70.4561 35.8095C70.4561 35.72 70.4561 35.541 70.4561 35.4514C70.8198 35.1829 70.638 35.1829 70.7289 34.8248L70.638 34.7352C70.638 34.8248 70.9107 34.6457 70.8198 34.6457C70.8198 34.5562 70.8198 34.5562 70.8198 34.3771C71.0925 34.1981 71.2743 33.3924 71.1834 33.1238C71.1834 33.3924 70.9107 32.5867 71.1834 32.6762C71.5471 32.1391 71.2743 31.5124 71.3652 30.7962C71.0925 30.7067 71.547 30.5276 71.4561 30.2591C71.3652 30.2591 71.1834 30.2591 71.1834 30.1695C71.2743 29.9905 71.2743 29.9905 71.3652 29.901C71.3652 29.8114 71.3652 29.6324 71.1834 29.6324C71.1834 29.5429 71.1834 29.3638 71.2743 29.3638C71.2743 29.2743 71.2743 29.0952 71.0925 29.0952C71.1834 28.9162 71.1834 28.9162 71.2743 28.8267C71.2743 28.7371 71.1834 28.7371 71.0016 28.7371C71.0925 28.2 70.5471 27.8419 70.7289 27.3048C70.638 27.3048 70.638 27.2152 70.547 27.0362C70.9107 26.5886 70.4561 26.141 70.638 25.6933C70.3652 25.6038 70.4561 25.3352 70.4561 25.0667C70.547 24.8876 70.2743 24.7981 70.2743 24.7086C70.0016 24.0819 70.0925 23.6343 69.8198 23.0076C69.5471 23.1867 69.3652 21.3067 69.1834 20.501C68.9107 20.0533 69.0925 19.4267 68.9107 18.9791C69.0016 18.9791 69.1834 18.9791 69.1834 18.8C69.0016 18.4419 69.3652 18.2629 69.4561 17.8152C69.7289 17.8152 70.0016 17.6362 70.2743 17.8152C70.5471 17.6362 70.3652 17.4571 70.3652 17.2781C70.9107 17.1886 71.2743 17.1886 71.8198 17.0991C71.8198 17.1886 71.8198 17.3676 72.0016 17.3676C72.3652 17.2781 72.547 17.5467 72.9107 17.5467C72.9107 17.6362 72.9107 17.8152 73.0925 17.8152C73.3652 17.8152 73.4561 17.9048 73.638 17.9943C73.7289 17.9943 73.9107 17.9943 73.9107 17.8152L74.0925 17.9048L74.1834 17.7257C74.3652 17.8152 74.4561 17.8152 74.5471 17.8152C74.7289 17.9048 74.7289 18.3524 75.0016 18.1733C75.5471 19.6057 76.2743 20.4114 76.8198 21.3962Z" fill="black"/>
<path d="M19.2729 23.6343C19.2729 23.4552 18.9093 23.3657 18.8184 23.3657C18.7275 23.3657 18.4548 23.6343 18.3639 23.4552C18.3639 23.4552 18.182 23.8133 17.9093 23.9924C17.7275 24.0819 17.4548 24.0819 17.4548 24.0819C17.3639 24.44 17.3639 24.44 17.6366 25.1562C17.7275 25.1562 17.9093 25.8724 18.0002 25.9619C17.9093 25.6933 18.3639 26.5886 18.5457 26.6781C18.6366 26.6781 18.6366 26.6781 18.7275 26.6781C18.8184 26.6781 18.8184 26.7676 18.7275 26.8572L19.0911 27.1257C19.0911 27.2152 19.182 27.2152 19.0911 27.3943C19.3639 27.3943 19.5457 27.5733 19.8184 27.6629C19.9093 27.6629 19.8184 27.7524 19.8184 27.8419C19.9093 27.8419 20.0002 27.9314 20.0002 27.8419C20.182 27.8419 20.0911 28.021 20.0911 28.2H20.182C20.182 28.2895 20.3639 28.3791 20.3639 28.3791C20.6366 28.7372 21.9093 29.2743 22.182 29.6324L22.2729 29.5429C22.3639 29.7219 22.9093 29.8114 22.9093 30.08L23.0002 29.9905C23.0911 30.08 23.9093 30.2591 24.0911 30.3486C24.182 30.2591 24.0002 30.1695 24.182 30.08C24.2729 30.1695 24.6366 30.4381 24.7275 30.6172C24.7275 30.6172 25.0911 30.6172 25.3639 30.7067C25.7275 31.0648 26.3639 30.7962 26.7275 30.9752C26.8184 31.0648 26.9093 31.0648 26.9093 31.1543L27.0002 31.0648L27.0911 31.1543C27.3639 31.0648 27.4548 31.1543 27.6366 30.9752L27.7275 31.0648L27.8184 30.9752C27.9093 31.0648 27.9093 31.0648 27.9093 31.1543C28.2729 31.2438 28.5457 31.4229 28.9093 31.2438C29.0002 31.3333 29.0911 31.3333 29.0911 31.4229C29.182 31.3333 29.182 31.3333 29.3639 31.3333C29.6366 31.4229 29.6366 31.5124 30.0002 31.4229L30.0911 31.5124C30.4548 31.3333 30.7275 31.4229 31.0911 31.4229C31.182 31.2438 31.3638 31.5124 31.4548 31.3333L31.5457 31.4229C31.8184 31.2438 32.2729 31.3333 32.5457 31.3333L32.6366 31.4229C32.7275 31.3333 32.7275 31.4229 32.7275 31.4229C33.0002 31.3333 33.5457 31.3333 33.7275 31.1543C34.0911 31.2438 34.0911 31.3333 34.5457 31.2438C34.6366 31.2438 34.8184 31.3333 34.9093 31.3333C35.2729 31.0648 35.6366 31.0648 36.0002 31.2438C36.3638 31.1543 37.0002 30.8857 37.2729 30.7067C37.3639 30.7067 37.4548 30.7962 37.5457 30.7962C37.7275 30.7067 37.8184 30.7962 37.9093 30.6172C38.3639 30.4381 38.6366 30.3486 39.0002 30.08C39.0002 30.1695 39.2729 29.9905 39.3639 30.08C39.4548 29.9905 39.4548 29.9905 39.4548 29.901C39.6366 29.9905 39.8184 29.7219 40.0002 29.8114C40.0911 29.7219 40.0911 29.7219 40.0911 29.6324C40.3638 29.5429 40.2729 29.4533 40.5457 29.3638C40.8184 29.1848 41.0911 28.6476 41.7275 28.3791C41.7275 28.2 42.0911 28.1105 42.182 27.9314C42.182 27.8419 42.3639 27.8419 42.4548 27.9314L42.3638 27.8419C42.5457 27.7524 42.4548 27.4838 42.6366 27.6629C42.6366 27.5733 42.8184 27.3943 42.7275 27.3943C43.0002 27.2152 43.0002 26.4991 43.3639 26.4095C43.3639 26.32 43.3639 26.32 43.4548 26.2305C43.6366 26.0514 43.5457 25.6038 43.6366 25.6038C43.6366 25.5143 43.6366 25.4248 43.7275 25.5143C43.8184 25.1562 43.9093 24.7086 44.0002 24.261C43.9093 24.261 44.0002 24.1714 44.0002 24.0819C44.0911 24.0819 44.0911 23.9924 44.182 23.9029C44.0911 23.9029 44.0911 23.8133 44.182 23.7238L44.2729 23.6343C44.0911 23.6343 44.2729 23.3657 44.0911 23.3657L44.182 23.2762C44.0002 22.9181 44.2729 22.4705 44.0911 22.1124L44.182 22.0229C44.0002 21.7543 44.0002 21.5752 44.182 21.3067C44.0911 21.2172 44.182 21.1276 44.182 21.0381C44.0002 20.8591 44.2729 20.7695 44.0911 20.5905C44.182 20.3219 43.9093 20.1429 44.0911 19.8743C44.0002 19.6952 44.0002 19.6057 43.8184 19.4267C43.8184 19.3372 43.9093 19.2476 43.9093 19.1581C43.8184 19.1581 43.7275 19.1581 43.7275 19.0686C43.8184 18.8895 43.7275 18.8 43.7275 18.621C43.5457 18.621 43.6366 18.4419 43.6366 18.3524C43.5457 17.9048 43.4548 17.5467 43.182 17.1886C43.2729 17.0095 43.0911 16.3829 43.0911 16.1143H43.182C43.0911 15.9352 43.0002 15.7562 42.9093 15.6667C42.9093 15.5772 42.9093 15.5772 42.9093 15.4876C42.8184 15.4876 42.7275 15.4876 42.7275 15.3981C42.7275 15.3086 42.7275 15.3086 42.7275 15.2191L42.6366 15.3086C42.4548 15.2191 42.3639 14.9505 42.4548 14.7714C42.182 14.3238 42.0002 14.0552 41.5457 13.4286C41.3639 13.5181 41.5457 13.0705 41.3639 13.16C41.0911 12.6229 41.0002 12.5333 40.6366 12.1752C40.6366 12.0857 40.6366 12.0857 40.6366 11.9962C40.5457 11.9962 40.5457 11.9962 40.4548 11.9962C40.3639 11.9962 40.3639 11.9067 40.3639 11.8172C39.8184 11.4591 37.8184 11.1905 37.5457 10.6533C37.3639 10.6533 37.182 10.5638 37.0911 10.7429C37.0002 10.6533 37.0002 10.6533 36.9093 10.5638C36.4548 10.8324 36.0911 10.2952 35.6366 10.2057L35.5457 10.2952C35.3638 9.93715 35.0911 10.2952 34.9093 10.2952C34.8184 10.2057 34.7275 10.2057 34.6366 10.2057C34.182 10.3848 33.8184 10.2057 33.3639 10.6533L33.2729 10.5638L34.2729 12.3543C34.2729 12.4438 34.5457 13.6076 34.8184 14.1448C34.9093 14.1448 35.0002 14.3238 35.0911 14.5029C35.0911 14.5924 35.0911 14.5924 35.0002 14.6819C35.0911 14.9505 35.2729 15.1295 35.3639 15.3981C35.2729 15.3981 35.2729 15.4876 35.2729 15.5772C35.3639 15.9352 35.3639 16.2933 35.4548 16.5619C35.6366 16.6514 35.4548 16.741 35.5457 16.92L35.4548 17.0991C35.3639 17.2781 35.4548 17.4572 35.4548 17.4572C35.5457 17.8152 35.4548 17.5467 35.7275 17.8152C35.4548 18.0838 35.9093 18.5314 35.6366 18.8C35.7275 18.8895 35.7275 18.7105 35.8184 18.8895C35.8184 18.9791 35.8184 18.9791 35.7275 19.0686C35.7275 19.1581 35.7275 19.1581 35.8184 19.1581C35.9093 19.3372 35.7275 19.5162 35.8184 19.6952C35.9093 19.6952 35.8184 19.9638 35.9093 19.9638C35.9093 20.1429 36.182 20.2324 35.9093 20.3219C35.8184 20.3219 35.9093 20.68 35.8184 20.9486C35.9093 21.0381 35.8184 21.4857 35.8184 21.5752C35.9093 21.5752 36.0002 21.4857 35.9093 21.5752C35.9093 21.6648 35.9093 21.6648 35.8184 21.7543C35.9093 21.7543 35.9093 21.9333 35.8184 22.0229C35.8184 22.2914 35.6366 22.381 35.5457 22.6495C35.4548 23.1867 35.7275 23.6343 35.3639 23.8133C35.4548 23.9029 35.3639 24.0819 35.2729 24.1714C35.182 24.261 35.182 24.44 35.0911 24.5295C35.0002 24.8876 34.9093 24.7981 34.7275 25.1562C34.5457 25.2457 34.4548 25.4248 34.2729 25.5143C34.2729 25.6038 34.2729 25.6038 34.182 25.6933C34.182 25.7829 34.0911 25.7829 34.0002 25.7829C33.8184 25.9619 33.3639 26.141 33.2729 26.32V26.4095C33.0002 26.4991 32.9093 26.5886 32.5457 26.7676C32.182 26.9467 32.0002 26.9467 31.6366 27.1257C31.3639 27.0362 31.0911 27.2152 30.8184 27.2152C30.7275 27.3048 30.6366 27.3048 30.4548 27.3943C30.2729 27.3943 30.0911 27.4838 30.0002 27.3943C29.8184 27.3943 29.9093 27.6629 29.7275 27.5733C29.6366 27.5733 29.6366 27.5733 29.5457 27.5733V27.4838C29.3639 27.5733 29.182 27.4838 28.9093 27.5733V27.4838C28.7275 27.5733 28.5457 27.4838 28.3639 27.5733C28.182 27.4838 27.7275 27.4838 27.4548 27.4838C27.4548 27.3943 27.4548 27.3943 27.3639 27.3943L27.2729 27.4838C27.2729 27.3943 26.6366 27.4838 26.5457 27.3943H26.3639V27.3048L26.2729 27.3943C26.182 27.3048 25.3639 27.2152 25.182 27.0362C25.0002 27.2152 24.9093 27.1257 24.7275 27.1257C24.0002 27.0362 23.182 26.7676 23.0911 26.7676L23.0002 26.6781C22.7275 26.7676 22.3639 26.6781 22.2729 26.4991C22.182 26.4991 22.0911 26.4991 22.0002 26.4095C21.9093 26.2305 21.3639 26.2305 21.2729 26.0514C21.2729 26.0514 21.0002 25.8724 20.9093 25.6933C20.7275 25.7829 20.2729 25.2457 20.182 25.2457H19.9093L19.8184 24.8876L19.3639 24.6191C19.5457 23.7238 19.3639 23.9029 19.2729 23.6343Z" fill="black"/>
<path d="M25.8192 11.7276C25.9102 11.7276 26.092 11.7276 26.1829 11.7276C26.7283 12.2648 27.8192 12.0857 28.5465 12.4438C28.8192 12.2648 29.1829 12.3543 29.3647 12.2648C29.4556 12.3543 29.4556 12.3543 29.5465 12.4438C30.1829 12.2648 30.5465 12.5333 31.092 12.5333C31.2738 12.4438 31.2738 12.4438 31.3647 12.3543C31.4556 12.3543 31.5465 12.3543 31.5465 12.4438L31.8192 12.5333L31.9102 12.6229L32.092 12.5333C32.092 12.6229 32.1829 12.6229 32.2738 12.6229C32.5465 12.4438 32.7283 12.7124 33.092 12.4438C33.1829 12.5333 33.2738 12.6229 33.3647 12.6229C33.7283 12.3543 33.8192 12.6229 34.2738 12.5333L34.3647 12.6229L34.5465 12.5333L34.4556 12.4438C34.4556 12.3543 34.6374 12.3543 34.7283 12.3543C34.9102 12.5333 35.0011 12.7124 35.3647 12.6229L35.4556 12.7124C35.6374 12.6229 34.1829 12.5333 36.4556 12.4438C36.6374 12.3543 36.6374 12.3543 36.7283 12.3543C36.8192 12.4438 36.9102 12.5333 37.0011 12.5333C37.2738 12.4438 37.5465 12.3543 37.8192 12.2648C37.9102 12.2648 38.092 12.4438 38.2738 12.2648L38.3647 12.3543C38.6374 12.3543 39.0011 12.2648 39.1829 12.2648C39.1829 12.3543 39.0011 12.1752 39.092 12.1752C39.4556 11.9962 39.8192 11.8171 40.1829 12.0857C40.5465 12.0857 40.7283 11.8171 41.1829 11.8171C41.2738 11.9962 41.6374 11.6381 41.8192 11.7276C42.0011 11.8171 42.0011 11.5486 42.1829 11.7276V11.9067C42.2738 11.8171 42.2738 11.8171 42.2738 11.7276C42.5465 11.7276 42.5465 11.7276 42.7283 11.6381C42.8192 11.7276 42.9102 11.7276 43.0011 11.6381C43.1829 11.5486 43.4556 11.5486 43.7283 11.4591C43.7283 11.6381 44.0011 11.3695 43.9102 11.4591C44.092 11.4591 44.1829 11.3695 44.3647 11.4591C44.4556 11.3695 44.4556 11.28 44.5465 11.3695L44.6374 11.4591C44.7283 11.4591 44.7283 11.4591 44.9102 11.3695C46.1829 11.28 46.8192 10.6533 48.092 10.6533C48.2738 10.5638 48.5465 10.4743 48.7283 10.3848C48.9102 10.2952 49.1829 10.5638 49.1829 10.2952C49.092 10.2057 49.4556 10.1162 49.4556 10.1162C49.7283 10.1162 49.9102 9.57905 50.092 9.40001C50.0011 9.31048 50.092 9.22096 50.092 9.13143H50.2738C50.2738 8.95239 50.1829 8.41524 50.2738 8.32572C50.1829 8.05715 49.9102 8.14667 50.0011 8.05715L49.9102 7.96762C49.8192 7.8781 49.9102 7.78858 50.0011 7.69905C49.9102 7.43048 49.6374 7.69905 49.5465 7.52L49.7283 7.16191C49.6374 6.98286 49.1829 6.80381 49.0011 6.71429C48.9102 6.89334 48.9102 6.80381 48.6374 6.89334L48.5465 6.71429C48.3647 6.80381 48.1829 6.71429 48.1829 6.80381C48.3647 6.98286 48.1829 6.89334 48.1829 6.98286C48.092 7.07239 48.0011 7.16191 47.9102 7.16191C47.8192 7.07239 47.7283 7.07239 47.5465 7.07239C47.4556 7.16191 47.4556 7.16191 47.4556 7.25143C46.8192 7.34096 45.4556 7.34096 45.3647 7.16191C45.1829 7.16191 45.1829 7.16191 45.092 7.25143C45.1829 7.34096 45.0011 7.43048 45.092 7.34096C45.1829 7.43048 44.8192 7.25143 44.7283 7.34096C44.2738 7.34096 43.1829 7.43048 43.3647 7.34096C43.092 7.34096 42.6374 7.43048 42.4556 7.34096C42.3647 7.60953 42.092 7.16191 41.9102 7.34096C42.092 7.34096 41.7283 7.25143 41.8192 7.34096V7.43048C41.5465 7.52001 41.4556 7.25143 41.1829 7.34096C41.092 7.34096 41.0011 7.25143 41.092 7.16191C41.0011 7.16191 40.9102 7.07239 40.9102 7.16191L41.0011 7.25143C40.9102 7.34096 40.6374 7.07239 40.4556 7.16191C40.3647 7.16191 40.2738 7.07239 40.1829 7.07239C39.8192 7.25143 39.4556 7.25143 39.092 7.25143L39.0011 7.16191C39.092 7.16191 38.8192 7.34096 38.8192 7.25143C38.7283 7.25143 38.7283 7.25143 38.6374 7.25143C38.4556 7.43048 37.7283 7.43048 37.4556 7.34096C37.6374 7.43048 37.0011 6.98286 37.092 7.16191C36.5465 7.34096 35.9102 7.07239 35.3647 7.07239C35.3647 6.89334 35.092 7.25143 34.9102 7.07239C34.9102 6.98286 35.0011 6.89334 34.9102 6.89334C34.7283 6.98286 34.6374 6.89334 34.5465 6.98286C34.4556 6.98286 34.3647 6.98286 34.3647 6.89334C34.2738 6.89334 34.1829 6.89334 34.092 6.98286C34.0011 6.98286 33.9102 6.98286 33.9102 6.89334C33.7283 6.98286 33.6374 7.07239 33.4556 7.16191C33.3647 7.16191 33.3647 7.07239 33.3647 6.98286C32.9102 7.07239 32.6374 6.62477 32.1829 6.80381C32.1829 6.71429 32.092 6.71429 32.0011 6.71429C31.5465 6.98286 31.0011 6.71429 30.6374 6.89334C30.5465 6.71429 30.3647 6.80381 30.092 6.80381C30.0011 6.89334 29.9102 6.62477 29.7283 6.62477C29.1829 6.44572 28.8192 6.53524 28.2738 6.44572C28.4556 6.26667 26.7283 6.26667 26.092 6.08762C25.6374 5.90858 25.1829 6.08762 24.7283 5.9981C24.7283 6.08762 24.6374 6.17715 24.5465 6.17715C24.2738 6.08762 24.0011 6.3562 23.6374 6.44572C23.5465 6.62477 23.3647 6.71429 23.4556 6.98286C23.2738 7.16191 23.2738 7.25143 23.1829 7.25143C23.092 7.69905 23.0011 7.60953 22.9102 8.05715C23.0011 8.05715 23.1829 8.05715 23.092 8.14667C23.0011 8.50477 23.1829 8.59429 23.092 8.86286C23.1829 8.86286 23.3647 8.86286 23.2738 8.95239C23.1829 9.13143 23.2738 9.31048 23.3647 9.40001C23.3647 9.48953 23.2738 9.57905 23.1829 9.57905L23.2738 9.66858L23.092 9.7581C23.1829 9.84762 23.1829 9.93715 23.092 10.1162C23.1829 10.2057 23.5465 10.2057 23.3647 10.4743C24.3647 10.8324 25.0011 11.3695 25.8192 11.7276Z" fill="black"/>
</svg>
