<svg width="110" height="54" viewBox="0 0 110 54" fill="none" xmlns="http://www.w3.org/2000/svg">
<g clip-path="url(#clip0_66_22346)">
<path d="M63.0235 43.4556C62.7047 46.0119 63.5549 50.4852 61.0042 53.0414C59.6225 53.2545 58.8786 52.2959 58.666 50.2722C58.3472 46.1184 59.7288 43.4556 62.7047 40.0474C63.5549 41.0059 62.2795 42.2841 63.0235 43.4556Z" fill="#83AD4A"/>
<path d="M26.5692 41.3254C28.3759 45.1598 29.7576 48.7811 28.4822 53.2544C27.8445 54.3195 26.6755 53.787 26.4629 53.2544C24.3373 48.6746 22.8494 42.497 25.0813 38.4497C26.0378 38.7692 26.1441 40.1538 26.5692 41.3254Z" fill="#83AD4A"/>
<path d="M50.5901 47.716C50.4838 49.4201 49.2084 50.5917 48.5707 51.9763C47.8268 52.5089 46.764 52.1894 45.9137 52.2959C44.3195 51.1243 43.5756 48.8876 43.6818 46.9704C44.0007 45.3728 45.3823 44.6272 45.8074 42.8166C46.4451 42.3905 47.5079 40.4734 47.8268 40.4734C49.5273 42.1775 50.5901 47.503 50.5901 47.716Z" fill="#83AD4A"/>
<path d="M55.4785 47.6095C55.5848 49.2071 54.9471 49.8462 54.6283 51.5503C54.3094 52.0828 53.1404 51.5503 52.8215 52.6154C51.7587 51.1243 50.0582 50.1657 50.3771 47.8225C50.1645 45.9053 51.6524 44.9468 51.7587 43.1361C52.609 41.0059 52.3964 43.5621 53.4592 43.5621C53.4592 43.3491 55.3722 46.0118 55.4785 47.6095Z" fill="#83AD4A"/>
<path d="M43.4677 43.2426C43.9991 46.1183 43.7865 48.0355 42.9363 50.3787C42.2986 50.9112 41.5546 51.0177 40.7044 50.6982C38.7913 47.929 40.173 45.7988 41.0232 43.0296C41.8735 42.9231 41.8735 41.432 42.83 41.5385L43.4677 43.2426Z" fill="#83AD4A"/>
<path d="M82.5792 43.5621C83.1106 46.4379 83.2169 47.503 82.3666 49.8461C81.729 50.3787 81.1976 51.2308 80.4536 51.3373C78.5406 48.568 79.2845 46.1183 80.1348 43.3491C80.985 43.2426 80.985 41.7515 81.9415 41.858L82.5792 43.5621Z" fill="#83AD4A"/>
<path d="M16.0475 43.4557C16.5789 46.3314 16.6852 48.4616 15.6224 50.9113C14.9847 51.4438 14.1345 51.1243 13.3905 51.2308C11.4775 48.4616 13.0717 46.1184 13.9219 43.3492C14.7721 43.2426 14.2407 41.3255 15.6224 41.645L16.0475 43.4557Z" fill="#83AD4A"/>
<path d="M74.6081 41.2189C75.0332 41.3254 75.6709 42.7101 75.9897 44.8402C76.2023 45.9053 76.4148 46.9704 76.4148 47.929C75.8834 49.4201 75.8834 51.0177 75.2457 51.9763C74.8206 52.6154 74.5018 51.7633 74.1829 51.5503C73.5453 51.9763 74.3955 53.2544 73.3327 52.8284C72.2699 51.0177 71.3134 49.1006 71.5259 46.9704C71.9511 44.6272 73.3327 41.5385 74.6081 41.2189Z" fill="#83AD4A"/>
<path d="M32.6273 45.1598C32.6273 46.6509 33.7964 47.2899 32.3085 49.9527C32.2022 50.9112 31.0331 51.4438 30.608 51.3373C29.7578 51.3373 29.4389 49.2071 28.8013 48.568C28.3761 47.3964 28.3761 47.0769 28.8013 46.2248C28.9075 45.3728 29.1201 45.4793 29.9703 43.1361C30.3955 41.7515 30.608 41.5385 30.9269 41.5385C32.2022 42.497 32.2022 43.5621 32.6273 45.1598Z" fill="#83AD4A"/>
<path d="M21.8938 41.4319C21.8938 41.4319 22.9566 42.6035 23.7005 44.4142C24.4445 46.1183 24.5508 46.3314 24.657 48.6745C24.3382 50.3787 23.1691 50.8047 22.5314 51.1243L21.2561 51.4438C21.3624 51.0177 20.1933 50.3787 20.1933 49.8461C19.5556 48.2485 19.8744 47.2899 19.9807 46.0118C20.7247 45.2663 20.9372 41.9645 21.8938 41.4319Z" fill="#83AD4A"/>
<path d="M84.7045 42.4971C84.7045 42.4971 85.661 43.4556 86.2987 45.0533C86.9364 46.5444 87.0427 46.7574 87.0427 48.7811C86.8301 50.2722 85.7673 50.5917 85.1296 51.0178L84.1731 51.2308C84.2794 50.9113 83.2166 50.2722 83.2166 49.8462C82.5789 48.4616 82.8977 47.6095 83.1103 46.5444C83.6417 45.9054 83.8543 42.9231 84.7045 42.4971Z" fill="#83AD4A"/>
<path d="M65.4683 41.1124C65.6809 41.0059 65.8935 41.3254 66.106 41.9645C66.2123 42.3905 66.2123 42.9231 66.5311 43.7751C67.2751 45.4793 67.4877 46.3313 67.7002 48.2485C67.3814 49.8461 66.106 50.8047 65.4683 51.2308L64.6181 51.4438C64.7244 51.0177 63.3427 50.0592 63.3427 49.5266C62.0674 47.3964 63.2365 47.3964 63.1302 46.2248C63.8741 45.3728 64.7244 41.4319 65.4683 41.1124Z" fill="#83AD4A"/>
<path d="M92.6762 42.1775C92.8887 42.071 93.2076 42.3906 93.3139 43.0296C93.4201 43.4556 93.4201 43.9882 93.739 44.8403C94.4829 46.5444 94.8018 47.3965 94.9081 49.3136C94.5892 50.0592 93.4201 51.4438 92.6762 51.8698L91.7197 52.5089C91.8259 52.0829 90.4443 51.1243 90.4443 50.5917C89.1689 48.4616 90.338 48.4616 90.2317 47.29C90.9757 46.4379 91.8259 42.4971 92.6762 42.1775Z" fill="#83AD4A"/>
<path d="M57.0719 42.3906C58.9849 43.3491 58.3473 45.6923 58.8787 47.3965C58.8787 48.3551 58.241 50.3787 57.3907 51.1243C53.3521 48.4616 56.8593 44.9468 57.0719 42.3906Z" fill="#83AD4A"/>
<path d="M10.7343 43.0296C12.7537 43.8817 12.0097 46.0118 12.6474 47.6095C12.6474 48.5681 11.6908 50.1657 10.8406 51.0178C8.50244 48.8876 9.35269 46.8639 10.7343 43.0296Z" fill="#83AD4A"/>
<path d="M79.3907 47.929C79.3907 49.1006 78.8593 50.1657 78.6468 50.9112C78.5405 51.1243 78.1154 50.9113 78.0091 51.1243C76.7337 50.6982 76.4149 49.3136 76.3086 47.929C76.3086 47.1834 76.4149 46.1184 76.84 44.9468C76.9463 44.7337 77.3714 43.9882 77.4777 43.7752C77.584 43.5621 77.584 43.3491 77.9028 43.3491C78.3279 43.3491 79.2844 45.6923 79.3907 47.929Z" fill="#83AD4A"/>
<path d="M39.8548 45.1598C39.9611 45.6923 40.28 46.8639 39.6423 48.6746C40.0674 49.9527 38.4732 49.7397 38.0481 50.5917C36.3476 49.5267 36.9853 44.9468 37.0915 44.6272C37.7292 43.3491 38.5795 39.9409 38.5795 39.9409C39.2171 40.2604 39.7485 44.6272 39.8548 45.1598Z" fill="#83AD4A"/>
<path d="M89.9134 45.6923C90.0197 46.2249 90.3385 47.3965 89.7009 49.2071C90.126 50.4852 88.4255 50.2722 88.1067 51.1243C86.4062 50.0592 87.0439 45.4793 87.1501 45.1598C87.7878 43.8817 88.6381 40.4734 88.6381 40.4734C89.2757 40.8994 89.8071 45.2663 89.9134 45.6923Z" fill="#83AD4A"/>
<path d="M70.7822 45.0533C70.9947 46.0118 71.5261 47.1834 71.5261 47.503C71.5261 48.142 71.101 50.0592 69.5068 50.9112C69.2942 51.0178 68.8691 51.2308 68.6566 51.1243C68.0189 50.8047 67.9126 48.6746 67.5938 48.142C67.7 46.4379 68.7628 43.5621 69.7194 43.5621C70.0382 43.5621 70.5696 43.8817 70.7822 45.0533Z" fill="#83AD4A"/>
<path d="M36.9851 47.3965C37.0914 48.142 36.6663 51.7633 35.7097 52.5089C35.3909 52.8284 35.2846 51.7633 34.7532 51.7633C33.6904 51.8698 33.159 49.3136 32.8402 48.4616C32.6276 46.6509 34.0093 43.0296 35.1783 43.0296C35.2846 43.0296 36.7726 45.4793 36.9851 47.3965Z" fill="#83AD4A"/>
<path d="M19.0239 44.9468C19.1301 45.6923 19.7678 46.7574 19.8741 47.1835C20.0867 48.2486 19.2364 51.2308 17.6422 51.5503C17.5359 51.5503 17.3234 50.5918 17.2171 50.5918C16.1543 50.6983 16.5794 48.7811 16.1543 47.929C16.3669 46.1184 17.0045 43.4557 18.0673 43.2426C18.1736 43.2426 18.8113 43.0296 19.0239 44.9468Z" fill="#83AD4A"/>
<path d="M65.8949 0.745561L63.8756 1.06509C63.0254 1.1716 62.1751 1.38461 61.3249 1.38461C61.0061 1.59763 60.6872 1.70414 60.2621 1.70414C60.0495 1.70414 59.7307 1.70414 59.5181 1.81065C59.3056 2.13018 58.9867 2.13018 58.8805 2.02367C58.7742 2.02367 58.1365 2.4497 58.1365 2.4497C57.6051 2.66272 57.0737 2.98225 56.6486 3.40828H56.436C55.5858 3.51479 54.4167 3.51479 53.8853 2.66272C53.779 2.66272 50.0592 1.59763 50.0592 1.59763C49.5278 1.27811 48.8901 1.27811 48.2524 1.27811C48.0399 1.27811 48.0399 1.38461 47.9336 1.70414C47.9336 1.70414 47.9336 1.81065 47.9336 1.91716C48.1462 2.13018 48.465 2.34319 48.8901 2.66272C49.3152 2.87574 49.7404 3.19527 49.8466 3.72781C49.9529 3.72781 50.0592 3.83432 50.1655 3.94083L50.2718 4.04734L50.4843 4.26035C50.4843 4.26035 50.6969 4.36686 50.6969 4.47337H50.8032C51.866 5.11243 52.6099 5.9645 53.4602 6.92308L54.0978 7.45562V7.56213L54.2041 7.66864C54.3104 7.77515 54.4167 7.88166 54.523 7.98816C54.6292 8.09467 54.7355 8.20118 54.7355 8.30769C55.0544 8.52071 55.3732 8.4142 55.7983 8.30769L56.1172 8.20118L56.3297 8.09467C56.5423 7.98816 56.7549 7.88166 56.7549 7.77515V7.66864H56.8611C57.0737 7.56213 57.0737 7.45562 57.0737 7.34911C57.0737 7.13609 57.18 7.02959 57.3925 6.81657C58.0302 6.49704 58.7742 5.9645 59.3056 5.43195C60.0495 5.21893 60.5809 4.7929 61.1123 4.26035C61.5375 3.83432 62.0689 3.40828 62.6003 3.19527H62.9191C63.1317 3.19527 63.2379 3.19527 63.4505 3.08876C63.6631 2.66272 64.1945 2.55621 64.5133 2.55621L65.0447 2.4497C65.4698 2.34319 65.7887 2.13018 66.1075 1.91716C66.4263 1.70414 66.7452 1.49112 67.064 1.38461C67.2766 1.27811 67.2766 1.1716 67.2766 0.958579V0.85207C67.2766 0.85207 67.2766 0.745561 67.2766 0.639053C66.7452 0.532544 66.3201 0.532544 65.8949 0.745561Z" fill="black"/>
<path d="M50.6978 12.6746C50.1664 12.7811 49.2099 13.2071 48.9973 13.8461C48.6785 14.8047 51.1229 13.9527 51.6543 13.7396C51.9732 13.6331 53.2485 13.3136 53.3548 12.8876C53.3548 12.142 51.1229 12.355 50.6978 12.6746Z" fill="#FFD873"/>
<path d="M54.0985 8.94672H53.4608C52.5043 9.05323 51.6541 9.47926 51.0164 10.2248V10.3313C51.0164 10.6509 50.9101 10.9704 50.8038 11.1834L50.9101 11.2899L50.8038 11.5029V11.6094H50.9101C51.0164 11.7159 51.1227 11.7159 51.1227 11.8225C51.1227 11.929 51.0164 12.0355 51.0164 12.142C50.9101 12.2485 50.8038 12.355 50.9101 12.4615L49.9536 12.8875C49.6347 13.1006 49.3159 13.2071 48.9971 13.5266L48.7845 13.7396C48.5719 13.9526 48.3594 14.0591 48.3594 14.3787H48.4657C48.6782 14.4852 48.8908 14.5917 49.1033 14.5917L50.9101 14.1657L51.3352 14.0591C51.4415 13.9526 51.9729 13.7396 52.0792 13.6331L52.6106 13.3136L51.7603 13.6331C51.6541 13.6331 51.5478 13.7396 51.5478 13.7396L50.3787 14.0591C50.2724 14.0591 50.0599 14.0591 49.9536 14.1657C49.741 14.2722 49.5285 14.3787 49.3159 14.1657C49.2096 14.0591 49.3159 13.9526 49.3159 13.8461L49.4222 13.7396H49.5285H49.6347V13.6331C49.6347 13.5266 49.741 13.4201 49.8473 13.4201L50.0599 13.2071C50.1661 13.1006 50.2724 12.8875 50.485 12.8875L51.0164 12.781C51.4415 12.6745 51.8666 12.568 52.398 12.781C52.6106 12.568 52.8231 12.6745 52.9294 12.781L53.142 12.8875V12.9941L53.2483 13.1006C53.4608 13.1006 53.6734 12.9941 53.7797 12.9941C53.9922 12.8875 54.3111 12.781 54.5236 12.8875C54.6299 12.8875 54.8425 12.8875 54.8425 12.8875C54.9487 12.8875 55.055 12.8875 55.055 12.781H55.1613C55.2676 12.6745 55.4801 12.568 55.5864 12.6745C55.6927 12.6745 55.6927 12.568 55.799 12.568C55.9053 12.4615 55.9053 12.4615 56.0115 12.355C56.0115 12.2485 56.1178 12.142 56.1178 12.0355L56.2241 11.7159V11.6094C56.2241 11.5029 56.3304 11.3964 56.4367 11.2899C56.5429 11.1834 56.6492 11.0769 56.6492 10.9704V10.8639H56.7555C56.8618 10.8639 56.8618 10.8639 56.8618 10.7574L56.9681 10.6509V10.5443L56.8618 10.4378V10.3313V10.2248V10.1183C56.8618 10.0118 56.8618 9.9053 56.9681 9.9053V9.79879C56.9681 9.79879 56.9681 9.79879 56.9681 9.69228C56.9681 9.58577 56.9681 9.58577 56.8618 9.58577C56.6492 9.58577 56.543 9.47926 56.543 9.26624C56.4367 9.15973 56.4367 9.05323 56.3304 9.05323C56.1178 9.26624 55.9053 9.26624 55.6927 9.26624L55.2676 9.47926C55.1613 9.47926 55.1613 9.37275 55.1613 9.37275H55.055H54.9487C54.9487 9.37275 54.8425 9.26624 54.8425 9.15973C54.6299 8.94672 54.4173 8.94672 54.0985 8.94672Z" fill="black"/>
<path d="M30.8212 24.923C31.0337 25.0295 31.14 25.136 31.2463 25.2426C31.7777 25.0295 32.0965 25.2426 32.4154 25.4556H33.053C33.4782 25.2426 34.4347 24.923 34.4347 24.923L34.6472 24.8165C34.9661 24.923 35.1786 24.923 35.6038 24.8165L36.2414 24.71C37.0917 24.8165 37.8357 24.6035 38.5796 24.3905C39.2173 24.1775 39.7487 24.071 40.3864 23.9644C41.1303 23.5384 41.8743 23.2189 42.512 23.0059C43.4685 22.5798 44.3187 22.2603 45.169 21.7278C45.169 21.6213 45.2753 21.4082 45.2753 21.4082C45.2753 21.4082 45.3815 21.3017 45.3815 21.1952L45.169 21.0887V20.8757C44.9564 19.065 43.1497 18.426 41.5555 17.7869L40.9178 17.5739C40.9178 17.5739 40.3864 17.0414 40.1738 16.8284C39.7487 17.0414 39.2173 16.8284 38.8985 16.6153C38.4733 16.4023 38.3671 16.2958 38.0482 16.4023L36.2414 17.0414C34.9661 17.4674 33.797 17.7869 32.7342 18.639C31.7777 19.065 30.8212 20.0236 30.2898 21.0887V21.1952H30.1835C29.6521 21.5147 29.6521 21.9408 29.5458 22.4733C29.4395 22.7929 29.7584 23.0059 29.5458 23.3254C29.8646 24.71 30.5023 24.6035 30.8212 24.923ZM36.3477 20.9822C36.6666 20.8757 36.9854 20.6627 37.0917 20.4497L37.4105 20.3431L37.9419 20.2366C38.1545 20.3431 38.1545 20.5562 38.4733 20.3431C38.6859 20.2366 39.0047 20.0236 39.3236 20.1301C39.5361 20.2366 39.6424 20.3431 39.855 20.6627C39.9613 21.1952 39.5361 21.5147 39.3236 21.7278C39.2173 21.8343 39.0047 22.0473 39.0047 22.1538L38.8985 22.3668L38.6859 22.4733C38.1545 22.6863 37.6231 22.6863 37.198 22.8994C36.7729 23.0059 36.454 22.8994 35.9226 22.8994H35.71V22.6863C35.3912 21.7278 35.8163 21.1952 36.3477 20.9822Z" fill="black"/>
<path d="M28.8035 29.1834C28.6973 29.3964 29.0161 29.8224 29.1224 29.8224C29.4412 29.9289 29.7601 30.0355 29.9726 30.355L30.2915 30.2485L30.504 30.142C30.9292 30.4615 31.1417 30.355 31.6731 30.142C32.0982 29.9289 32.5234 29.7159 33.161 29.9289C35.2866 29.2899 39.7504 28.9704 42.3011 28.7573C42.7263 28.5443 43.2577 28.6508 43.7891 28.6508C44.4267 28.7573 44.9581 28.8639 45.3833 28.4378L45.4895 28.3313H45.5958C46.0209 28.4378 46.5523 28.3313 47.0837 28.2248L47.934 28.1183C48.1465 28.1183 48.2528 27.9053 48.4654 27.5857C48.5717 27.3727 48.7842 27.0532 49.2093 26.8402C49.2093 26.7337 49.2093 26.7337 49.2093 26.7337C49.2093 26.6272 49.2093 26.6272 49.2093 26.5207C49.2093 26.4142 49.2093 26.4142 49.2093 26.3076C48.8905 26.3076 46.4461 25.9881 46.4461 25.9881C41.9823 25.6686 34.649 26.3076 30.504 27.3727C30.1852 27.7988 29.7601 27.7988 29.3349 27.9053C29.0161 28.0118 28.9098 27.9053 28.8035 28.0118C28.9098 28.1183 28.6973 28.5443 28.6973 28.5443L28.8035 29.1834Z" fill="black"/>
<path d="M4.99604 16.5089L5.2086 16.6154C5.95256 16.6154 6.48396 16.9349 7.01536 17.2544C7.54676 17.5739 7.97188 17.787 8.60956 17.8935C8.71584 18 8.82212 18.213 8.82212 18.213H8.9284C10.2038 18.426 11.1603 18.9586 12.1168 19.3846L13.711 20.1302C13.9236 20.2367 14.0299 20.3432 14.1361 20.5562C14.2424 20.7692 14.3487 20.9822 14.6675 20.8757C14.7738 20.8757 14.9864 21.0887 14.9864 21.0887L15.0927 20.8757L15.1989 20.6627L15.3052 20.4497L15.4115 20.3432L15.3052 20.2367C15.0927 19.7041 14.5613 19.2781 14.0299 18.852L13.2859 18.213L11.6917 17.2544C9.24724 15.7633 6.8028 14.2722 3.82695 13.8461H3.72067H3.40183C3.40183 13.8461 2.87043 14.1657 2.87043 14.3787C2.87043 14.5917 2.44531 15.0177 2.44531 15.0177L2.76415 15.2307C3.72067 15.5503 4.46464 15.9763 4.99604 16.5089Z" fill="black"/>
<path d="M16.8994 31.2071L15.3052 30.568C14.9863 30.568 14.6675 30.355 14.2424 30.142C13.9235 29.929 13.6047 29.716 13.2859 29.8225C13.2859 29.8225 13.2859 29.716 13.2859 29.6095L13.3921 29.0769L14.4549 27.0533V26.9467L14.3487 26.3077C14.3487 26.0947 14.3487 25.8817 14.4549 25.6686L14.7738 25.4556V25.2426C14.7738 24.8166 14.5612 24.6035 14.3487 24.284L14.0298 23.7515V23.645H13.9235C11.054 22.4734 8.18441 22.0473 5.73997 22.2604C5.10229 22.5799 4.46461 22.5799 3.82693 22.6864C2.97669 22.7929 2.23272 22.7929 1.59504 23.3254L1.48876 23.4319L1.59504 23.858C1.59504 24.071 1.48876 24.284 1.38248 24.497C1.2762 24.7101 1.16992 24.9231 1.16992 25.1361L1.2762 25.4556C1.2762 25.7751 1.38248 25.9882 1.48876 26.0947C1.59504 26.2012 1.8076 26.2012 2.02016 26.0947C2.339 25.9882 2.65784 25.9882 2.87041 26.2012L2.97669 26.3077H3.08297C3.29553 26.2012 3.61437 26.2012 3.93321 26.3077H4.03949L5.10229 25.9882C6.90905 25.3491 8.71582 24.7101 10.8414 25.0296C11.2665 25.4556 11.2665 25.9882 11.3728 26.5207V26.7337C11.4791 26.9467 11.4791 27.1598 11.4791 27.2663C11.4791 28.0118 11.054 28.6509 10.5226 29.3964C10.0975 30.0355 9.67234 30.6746 9.56606 31.3136H9.45978L9.3535 31.4201L9.14094 31.5266H9.03466L8.92838 31.6331L8.2907 32.6982C7.86557 33.3373 7.54673 33.9763 7.54673 34.6154V34.7219L7.65301 34.8284C8.07813 35.3609 8.92838 35.4675 9.67234 35.3609H9.77862L9.8849 35.2544C9.99118 35.1479 10.2037 35.0414 10.5226 35.1479H10.6289C11.3728 34.9349 11.5854 34.2959 11.7979 33.5503C11.9042 33.0177 12.0105 32.5917 12.4356 32.2722C12.6482 32.3787 13.1796 32.4852 13.1796 32.4852C13.6047 32.5917 14.1361 32.6982 14.5612 33.0177H14.6675H14.8801C15.4115 33.0177 15.9429 33.2308 16.368 33.3373C17.4308 33.6568 18.4936 33.9763 19.2376 33.0177L19.6627 32.5917L19.8752 32.2722L20.1941 31.9527H19.6627C18.7062 31.9527 17.8559 31.6331 16.8994 31.2071Z" fill="black"/>
<path d="M28.377 32.5917L28.0582 31.8461V31.7396C27.1016 30.9941 27.1016 29.929 27.1016 29.0769C27.1016 28.2248 26.464 27.6923 26.464 27.2663V27.0532V26.7337L26.3577 26.4142V26.3077V26.2012L26.1451 25.5621L26.0388 25.2426V25.0296L25.72 24.284L25.5074 23.5385C25.4012 23.3254 25.4012 23.1124 25.4012 22.8994C25.4012 22.8994 25.4012 22.8994 25.4012 22.7929C25.4012 22.6864 25.4012 22.6864 25.4012 22.5799C25.4012 22.2604 25.4012 22.0473 25.1886 21.7278C25.2949 21.6213 25.2949 21.5148 25.2949 21.5148C25.2949 21.4083 25.1886 21.3018 25.1886 21.1953L24.976 20.9822C24.8698 20.9822 23.807 20.7692 23.807 20.7692H23.7007C23.4881 20.7692 23.063 20.8757 22.9567 20.9822L22.7442 21.4083C22.7442 21.4083 22.8504 21.4083 22.8504 21.5148L22.6379 21.8343V21.9408C22.6379 21.9408 22.6379 21.9408 22.6379 22.0473C22.6379 22.1538 22.6379 22.4734 22.6379 22.4734V22.6864V23.0059C22.6379 23.2189 22.6379 23.4319 22.6379 23.645C22.6379 23.858 22.6379 23.9645 22.6379 24.071C22.1065 24.1775 21.8939 24.1775 21.3625 24.071C21.3625 24.071 19.9809 24.3905 19.7683 24.497C19.5557 24.7101 19.3432 24.6035 18.9181 24.6035C18.4929 24.6035 17.749 25.0296 17.749 25.0296C17.4301 24.9231 17.1113 25.1361 16.7925 25.3491L16.3673 25.5621H15.9422V25.6686L15.8359 26.2012C15.8359 26.7337 16.1548 27.3728 16.6862 27.9053C17.3239 28.3314 17.749 28.0118 18.1741 27.6923C18.1741 27.6923 18.8118 27.4793 18.9181 27.3728C19.7683 27.1598 19.3432 27.3728 20.6185 26.5207L20.9374 26.4142H21.2562L21.4688 26.5207C22.0002 26.6272 22.6379 26.6272 23.063 27.1598C23.3818 27.3728 23.4881 27.7988 23.5944 28.2248C23.5944 28.5444 23.7007 28.7574 23.807 28.9704C23.9132 29.503 24.0195 30.0355 24.2321 30.6746C24.4446 31.4201 24.6572 32.1657 24.6572 33.0177V33.2308V33.3373L25.0823 34.1893C25.4012 34.8284 25.72 35.4675 26.2514 35.6805L26.5702 35.787C26.5702 35.787 26.9954 35.6805 26.9954 35.574H27.1016L27.4205 35.4675C27.633 35.3609 27.7393 35.0414 28.0582 35.2544L28.4833 35.1479L28.5896 34.9349L28.6958 34.4024C28.9084 33.7633 28.5896 33.2308 28.377 32.5917Z" fill="black"/>
<path d="M48.3583 30.8876C47.5081 30.9941 46.6578 30.8876 45.8076 30.7811L44.3197 30.6745C41.025 30.4615 36.4549 31.4201 34.1168 31.9526C33.7979 31.9526 33.4791 32.1657 33.1603 32.2722C32.6289 32.4852 31.6723 32.3787 31.2472 32.5917C30.9284 32.8047 30.8221 33.1242 30.6095 33.2308L30.1844 33.5503V33.6568C30.1844 33.7633 30.2907 33.9763 30.397 34.0828L30.5032 34.1893V34.2958C30.5032 34.4024 30.5032 34.6154 30.5032 34.7219C30.5032 35.6805 30.397 35.6805 30.1844 36.8521C30.2907 37.0651 30.0781 37.4911 30.0781 37.7041C30.0781 37.8106 30.0781 37.8106 30.0781 37.9171C30.0781 38.0237 30.0781 38.0237 30.0781 38.1302C30.0781 38.3432 30.0781 38.4497 30.2907 38.5562H30.397V38.6627C30.5032 38.8757 30.6095 38.8757 30.7158 38.9822C30.8221 38.9822 31.0346 38.7692 31.1409 38.6627C31.4598 38.4497 31.7786 38.0237 32.31 38.1302C32.4163 38.0237 32.6289 37.9171 32.6289 37.9171C33.054 37.7041 33.1603 37.5976 33.1603 37.3846L41.8752 36.3195L43.3631 36.426C44.2134 36.5325 45.0636 36.639 45.8076 36.3195L45.9139 36.213L46.0202 36.3195C46.339 36.5325 46.4453 36.3195 46.8704 36.213L47.6144 36.1065C47.6144 36.1065 47.8269 35.1479 46.6578 35.1479C46.0202 35.1479 46.0202 35.0414 45.3825 34.8284V34.6154L45.595 34.2958C46.0202 33.6568 46.4453 32.9112 47.083 32.4852L47.4018 32.2722H47.6144L47.9332 32.3787C48.252 32.1657 48.252 32.1657 48.5709 32.1657C48.8897 32.0592 49.2086 32.0592 49.3148 31.8461C49.4211 31.7396 49.4211 31.7396 49.4211 31.6331C49.4211 31.5266 48.996 31.3136 48.7834 31.2071C48.7834 31.2071 48.4646 30.9941 48.3583 30.8876ZM42.7255 32.4852L42.5129 32.8047C42.1941 33.6568 41.7689 35.2544 39.5371 35.0414C37.9429 34.9349 36.7738 35.2544 34.967 35.574L33.2665 35.8935V35.574C33.4791 34.5089 33.5854 34.0828 34.2231 33.5503L34.8607 33.1242L35.6047 32.9112C36.9863 32.8047 37.0926 32.5917 38.368 32.2722L39.6433 31.8461C40.3873 31.8461 40.9187 31.8461 41.3438 31.8461L42.938 31.9526L42.7255 32.4852Z" fill="black"/>
<path d="M73.3336 19.5976C73.3336 19.5976 73.1211 19.5976 73.0148 19.5976V19.7041L72.9085 19.9171V20.1301C72.4834 20.5562 72.3771 21.1952 72.2708 21.8343C72.1646 22.5798 72.2708 23.3254 71.6332 23.9645L71.5269 24.071L71.4206 24.1775C69.4013 24.8165 69.6138 24.8165 67.5945 25.3491L66.7443 25.6686C65.7877 25.9881 65.2563 26.3077 64.9375 27.1597C65.2563 27.5858 65.4689 27.9053 66.0003 28.1183C66.3191 28.1183 66.638 28.2248 66.9568 28.3313C67.3819 28.5443 67.4882 28.5443 67.5945 28.3313L67.7008 28.2248H67.8071C68.1259 28.1183 68.1259 28.1183 68.3385 28.2248L68.8699 28.0118C69.0824 27.6923 69.295 27.6923 69.4013 27.5858C69.7201 27.4793 69.7201 27.4793 69.7201 27.3727L70.039 27.1597L70.3578 26.9467C70.3578 26.9467 70.4641 26.9467 70.7829 27.2662L70.8892 27.3727L70.5704 30.2485C70.5704 31.8461 70.9955 33.4437 71.6332 34.7219C72.0583 34.9349 72.2708 35.2544 72.2708 35.6804V35.7869L72.3771 36.213C72.4834 36.5325 72.696 37.1716 72.9085 37.2781C72.9085 37.2781 73.0148 37.2781 73.1211 37.2781C73.2274 36.9585 73.5462 36.852 73.6525 36.7455L73.9713 36.5325H74.0776H74.1839C74.0776 36 74.1839 35.8935 73.9713 35.5739L73.865 35.0414L73.7588 34.6153L73.6525 33.8698L73.7588 30.781C73.7588 29.7159 73.865 28.5443 73.4399 27.2662V27.1597V27.0532C73.4399 26.6272 73.6525 26.3077 73.865 25.8816C73.9713 25.5621 74.1839 25.3491 74.1839 25.1361V25.0296L74.609 23.6449C74.9278 23.0059 75.353 22.2603 75.4592 21.6213V21.1952V21.0887C75.353 20.9822 75.1404 20.6627 75.1404 20.6627C75.1404 20.6627 75.0341 20.5562 75.1404 20.4497V20.3432C75.1404 20.1301 74.9278 20.0236 74.3964 19.8106C74.3964 19.8106 73.865 19.4911 73.6525 19.4911C73.6525 19.5976 73.3336 19.5976 73.3336 19.5976Z" fill="black"/>
<path d="M87.4701 29.8225C85.4508 31.1006 82.9001 31.5266 80.4556 30.8876H80.2431V30.6746C80.1368 30.2485 80.2431 29.929 80.3493 29.6095L80.4556 29.0769L80.5619 28.9704C80.6682 28.9704 80.7745 28.3314 80.8807 28.2249C81.1996 28.0118 81.4121 28.1183 81.6247 27.6923C81.8373 27.1598 82.7938 27.3728 83.1126 27.2663L83.9629 27.1598L84.2817 27.0533H84.4943C84.4943 27.0533 85.0257 27.0533 85.1319 27.0533C85.2382 26.9468 85.6634 26.9467 85.6634 26.9467C86.0885 26.7337 86.301 26.3077 86.301 26.0947C86.301 25.9882 86.301 25.9882 86.1948 25.8817L86.9387 24.6036C87.4701 23.9645 87.5764 23.2189 87.6827 22.4734C86.5136 21.7278 85.8759 21.0888 84.7068 21.3018H84.6005H84.4943C82.6875 20.5562 80.987 20.4497 79.074 20.4497C78.0112 20.4497 78.2237 20.5562 77.0547 20.3432C76.9484 20.5562 76.417 20.6627 76.417 20.6627C76.417 20.7692 76.3107 20.8757 76.3107 20.9823C76.3107 21.0888 76.3107 21.0888 76.3107 21.1953C76.3107 21.3018 76.3107 21.3018 76.3107 21.4083C76.3107 21.7278 76.2044 22.0473 75.8856 22.2604V22.3669C75.8856 22.5799 75.9919 22.5799 76.2044 22.7929C76.2044 22.7929 76.3107 22.8994 76.5233 23.1124C76.7358 23.1124 77.6923 22.8994 77.6923 22.8994C78.33 22.6864 78.8614 22.7929 78.8614 22.7929H79.074C79.2865 23.1124 79.7117 23.1124 80.2431 23.0059C80.8807 22.8994 81.731 22.8994 82.1561 24.071C82.2624 24.284 82.3687 24.497 82.3687 24.7101C82.3687 25.3491 81.731 25.8817 81.3059 26.2012L80.7745 26.4142H80.6682C80.2431 26.4142 79.9242 26.3077 79.7117 26.2012C79.2865 25.9882 79.1803 25.9882 79.074 26.0947L78.9677 26.2012H78.8614C78.33 26.7337 78.2237 26.7337 78.1175 27.2663C77.3735 28.6509 76.8421 29.929 76.5233 31.1006C76.5233 31.4201 76.3107 31.6331 76.0981 31.8462C75.8856 32.0592 75.8856 32.1657 75.8856 32.2722V32.3787L75.9919 32.4852L75.8856 32.5917C75.7793 32.6982 75.7793 32.8047 75.7793 33.0178C75.7793 33.4438 76.0981 33.7633 76.6295 34.0828C76.9484 34.2959 77.1609 34.5089 77.3735 34.8284C78.0112 34.9349 78.4363 34.9349 78.9677 34.6154L79.074 34.5089H79.1803L79.2865 34.1894C79.3928 33.9763 79.4991 33.7633 79.6054 33.5503L79.7117 33.4438H79.8179C80.4556 33.5503 80.8807 33.6568 81.4121 33.4438C82.0498 33.2308 82.2624 33.1243 83.2189 32.9112C83.4315 33.0178 83.5378 32.9112 83.7503 32.5917C83.9629 32.3787 84.1754 32.1657 84.6005 32.1657C84.7068 31.9527 84.9194 31.8462 85.1319 31.7396C85.3445 31.6331 85.6633 31.6331 85.7696 31.5266V31.4201L85.8759 31.3136C86.1948 31.1006 86.6199 30.7811 86.9387 30.4615L87.4701 29.6095C87.5764 29.929 87.5764 29.929 87.4701 29.8225Z" fill="black"/>
<path d="M56.1174 18.5325C54.2043 18.3195 51.9724 17.7869 49.9531 18.639C50.1657 19.1715 50.3782 19.8106 50.8034 19.9171H50.9096L51.0159 20.2366C52.185 21.7278 53.8855 21.5147 55.6923 21.3017C56.4362 21.1952 57.2865 21.0887 58.0304 21.1952C58.8807 21.3017 59.8372 21.6212 60.6874 21.9408C62.0691 22.4733 63.557 23.0059 64.7261 22.5798C64.9386 22.4733 64.9386 22.3668 64.9386 22.2603V22.1538L64.8324 22.0473C64.8324 21.9408 64.7261 21.6212 64.6198 21.6212H64.4072C64.4072 21.6212 64.1947 21.1952 64.1947 21.0887C61.6439 20.3431 59.3058 19.1715 56.9676 18.852L56.1174 18.5325Z" fill="black"/>
<path d="M100.118 33.1242C100.118 33.0177 99.7987 33.0177 99.5862 32.9112C99.1611 32.8047 98.5234 32.8047 98.4171 32.0592L98.3108 31.7396L98.6297 31.6331C98.8422 31.5266 98.9485 31.5266 98.9485 31.3136C98.9485 31.2071 98.9485 31.1006 98.9485 30.9941C98.9485 30.8876 98.9485 30.6745 98.9485 30.568C98.9485 30.4615 98.9485 30.4615 98.9485 30.355C98.3108 29.2899 96.9292 29.1834 95.6538 29.1834L94.0596 29.0769L94.2722 28.6509C95.1224 27.1597 95.4413 25.8816 95.4413 24.6035C95.4413 23.9645 95.2287 22.0473 95.0161 21.5148C94.8036 21.4083 94.3785 21.3018 94.2722 21.1953C94.0596 21.3018 93.5282 21.5148 93.5282 21.5148C92.9968 21.7278 92.5717 23.2189 92.2529 23.7515L92.1466 23.858H92.0403C90.9775 24.497 90.7649 24.497 90.021 24.497C89.1707 24.497 89.0645 24.284 87.8954 25.1361L87.7891 25.3491C87.7891 25.5621 87.6828 25.7751 87.5765 25.9882C87.5765 25.9882 87.4703 26.0947 87.5765 26.0947C87.5765 26.2012 87.8954 26.4142 88.1079 26.5207C88.2142 26.5207 88.5331 26.6272 88.5331 26.6272C88.9582 26.8402 89.0645 26.8402 89.4896 26.9467C89.8084 26.7337 89.8084 26.8402 90.1273 26.7337C90.1273 26.7337 90.3398 26.6272 90.4461 26.6272L90.6587 26.5207C91.4026 25.7751 90.8712 26.0947 91.4026 25.9882L92.4654 26.0947L92.5717 26.2012C92.7843 26.5207 92.8905 27.0532 92.8905 27.4793C92.8905 27.9053 92.7843 28.3313 92.678 28.6509C92.678 28.7574 92.678 28.8639 92.678 28.9704C92.678 29.1834 92.5717 29.3964 92.4654 29.6095C92.1466 30.142 91.5089 30.2485 90.9775 30.355C90.6587 30.4615 90.2335 30.4615 90.021 30.6745C89.9147 30.781 89.8084 30.9941 89.8084 30.9941C89.277 31.7396 88.8519 32.3787 88.7456 33.2308L88.6393 34.2958C88.5331 34.6154 88.5331 34.9349 88.5331 35.2544C88.5331 35.4674 88.5331 35.4674 88.6393 35.6805C88.6393 35.6805 88.7456 35.8935 88.8519 35.787C89.0645 35.6805 89.277 35.4674 89.7021 35.574C90.5524 36.1065 91.4026 35.8935 92.2529 35.6805C92.678 35.5739 93.2094 35.4674 93.7408 35.4674C94.4847 35.4674 95.1224 35.3609 95.7601 35.1479C96.7166 34.9349 97.6731 34.7219 98.8422 34.9349C99.0548 34.7219 99.2674 34.6154 99.4799 34.6154C100.011 34.4024 100.224 34.2958 100.224 33.9763V33.8698V33.7633C100.118 33.2308 100.118 33.1242 100.118 33.1242ZM94.8036 32.5917L94.591 32.6982L93.8471 33.0177C92.678 33.4438 92.1466 33.5503 91.934 33.5503C91.8277 33.5503 91.6152 33.5503 91.6152 33.3373C91.4026 33.1242 91.5089 32.6982 91.6152 32.2722L91.7215 31.8461C91.7215 31.9526 91.8277 31.4201 91.8277 31.4201H91.934C92.4654 31.2071 92.678 31.1006 93.3157 31.1006C93.6345 30.8876 94.0596 30.8876 94.3785 30.8876C94.591 30.8876 94.8036 30.8876 94.9099 30.8876L95.1224 30.781L95.2287 30.9941C95.5475 31.6331 95.1224 32.2722 94.8036 32.5917Z" fill="black"/>
<path d="M66.5314 30.994C65.4686 30.4615 63.2367 30.2485 63.8744 29.0769L63.5555 28.8639V28.4378L63.6618 27.9053L63.7681 27.5858L63.6618 27.4793V27.3727V27.1597C63.6618 26.9467 63.7681 26.7337 63.8744 26.5207L63.9806 26.0946C63.9806 26.0946 63.9806 26.0946 63.9806 25.9881H63.8744C63.8744 25.9881 63.8744 25.9881 63.8744 25.8816C63.8744 25.8816 63.8744 25.7751 63.7681 25.7751C63.7681 25.6686 63.6618 25.6686 63.6618 25.5621C63.6618 25.5621 63.6618 25.4556 63.5555 25.3491C63.5555 25.3491 63.4492 25.3491 63.4492 25.2426C63.343 25.2426 63.343 25.1361 63.2367 25.1361L63.1304 25.0296L63.0241 24.923C62.9178 24.923 62.9178 24.8165 62.8116 24.8165C62.7053 24.8165 62.7053 24.71 62.599 24.71H62.4927C61.2174 23.9645 59.3043 23.858 56.8599 24.497L55.5845 24.71C54.0966 25.0296 52.5024 25.3491 50.9082 25.7751C50.6956 25.8816 50.4831 26.2011 50.3768 26.4142C50.1642 26.7337 49.9517 26.9467 49.6328 27.1597L50.0579 27.3727H51.3333C53.4589 27.3727 55.4782 27.4793 57.3913 26.7337H57.4975H57.6038H58.1352C58.5603 26.6272 59.198 26.6272 59.6231 27.2662V27.3727V27.4793V27.6923L59.7294 28.1183C59.7294 28.3313 59.6231 28.4378 59.5169 28.5443C59.5169 28.6509 59.6231 28.9704 59.6231 28.9704C59.6231 28.9704 59.5169 29.3964 59.4106 29.3964V29.6094C59.4106 30.142 59.0918 30.568 58.8792 30.8875C58.6666 31.2071 58.4541 31.4201 58.4541 31.7396V31.9526V32.3787C58.1352 32.5917 57.9227 33.0177 57.7101 33.4438C57.6038 33.7633 57.3913 33.9763 57.1787 34.2958C57.285 34.4023 57.4975 34.5088 57.4975 34.5088C57.7101 34.6154 57.8164 34.7219 58.0289 34.8284C58.5603 34.5088 59.198 34.4023 59.8357 34.4023C60.2608 34.4023 60.686 34.0828 61.1111 33.6568C61.5362 33.3372 61.5362 32.5917 62.0676 32.4852H62.1739H62.2802C63.5555 32.5917 64.9372 33.5503 65.8937 34.0828C65.8937 34.0828 66.4251 34.4023 66.6376 34.5088V34.4023C66.8502 34.4023 67.0628 34.2958 67.2753 34.1893L67.3816 34.2958C67.4879 34.4023 67.5942 34.5088 68.0193 34.2958C68.1256 34.1893 68.3381 34.1893 68.4444 34.1893C68.3381 34.0828 68.2318 33.8698 68.2318 33.6568C68.2318 33.6568 68.2318 33.5503 68.3381 33.5503C68.4444 33.3372 68.7632 32.6982 68.7632 32.4852V32.3787C68.1256 31.4201 67.4879 31.5266 66.5314 30.994Z" fill="black"/>
<path d="M101.499 34.7217C101.499 34.6154 101.499 34.6154 101.499 34.7217C101.393 34.6154 101.499 34.6154 101.499 34.7217C101.393 34.6154 101.393 34.6154 101.393 34.6154C101.393 34.6154 101.393 34.7217 101.499 34.7217Z" fill="#E11921"/>
<path d="M109.575 39.9406C109.469 39.8343 109.469 39.8344 109.469 39.8344C109.363 39.8344 109.044 39.8344 108.938 39.8344C108.938 39.8344 108.938 39.8344 108.831 39.8344C108.831 39.8344 108.831 39.8344 108.725 39.8344C108.619 39.8344 108.619 39.8344 108.513 39.8344C108.406 39.8344 108.3 39.8344 108.088 39.8344H107.981H107.875H107.769C107.662 39.8344 107.556 39.8344 107.45 39.8344C107.344 39.8344 107.237 39.8344 107.131 39.8344H106.812C106.812 39.8344 106.812 39.8344 106.706 39.8344C106.6 39.8344 106.493 39.8344 106.387 39.8344C106.281 39.8344 106.281 39.8344 106.174 39.8344H106.068C106.068 39.8344 106.068 39.8344 105.962 39.8344H105.856H105.749H105.643C105.537 39.8344 105.537 39.8344 105.431 39.8344C105.324 39.8344 105.324 39.8344 105.324 39.8344C105.324 39.8344 105.324 39.8343 105.324 39.9406C105.324 39.9406 105.324 39.9406 105.218 39.9406C105.218 39.9406 105.112 39.9406 105.112 39.8344C105.112 39.8344 105.112 39.8344 105.005 39.8344H104.687H104.58H104.474H104.368C104.368 39.8344 104.368 39.8344 104.261 39.8344C104.261 39.8344 104.261 39.8343 104.261 39.9406H104.155C104.049 39.9406 104.049 39.9406 103.943 39.8344H103.836C103.73 39.8344 103.836 39.9406 103.836 39.9406H103.943H104.049H104.155H104.261H104.368C104.474 39.9406 104.474 39.9406 104.58 39.9406C104.687 39.9406 104.687 39.9406 104.793 39.9406H104.899C105.005 39.9406 105.005 39.9406 105.112 39.9406C105.112 39.9406 105.112 39.9406 105.218 39.9406H105.324C105.324 39.9406 105.324 39.9406 105.431 39.9406H105.537C105.643 39.9406 105.749 39.9406 105.749 39.9406H105.856H105.962C106.068 39.9406 106.068 39.9406 106.174 39.9406C106.281 39.9406 106.387 39.9406 106.387 39.9406H106.493C106.6 39.9406 106.6 39.9406 106.706 39.9406C106.812 39.9406 106.812 39.9406 106.918 39.9406H107.025C107.131 39.9406 107.025 39.9406 107.131 39.9406H107.237H107.344C107.45 39.9406 107.556 39.9406 107.662 39.9406C107.662 39.9406 107.662 39.9406 107.769 39.9406H107.875C107.981 39.9406 107.981 39.9406 107.981 39.9406H108.088H108.3C108.3 39.9406 108.3 39.9406 108.406 39.9406C108.513 39.9406 108.406 40.0469 108.513 39.9406H108.619C108.619 39.9406 108.619 39.9406 108.725 39.9406H109.15C109.469 40.0469 109.469 40.0469 109.575 39.9406C109.575 40.0469 109.575 40.0469 109.575 39.9406Z" fill="#E11921"/>
<path d="M102.668 40.1539L102.562 40.0473C102.562 40.0473 102.562 40.0473 102.562 40.1539C102.562 40.1539 102.562 40.1539 102.455 40.1539C102.455 40.1539 102.455 40.1539 102.349 40.0473C102.349 40.0473 102.349 40.0473 102.243 40.0473L102.137 39.9408H102.03H101.924H101.818C101.818 39.9408 101.818 39.9408 101.711 39.9408H101.605V39.8343C101.605 39.8343 101.605 39.8343 101.605 39.7278V39.6213C101.605 39.6213 101.605 39.5148 101.605 39.4083V39.3018V39.1953C101.499 39.1953 101.605 39.0888 101.605 39.0888V38.9823V38.8757V38.6627V38.2367V38.1302V38.0237V37.9172V37.8107C101.605 37.8107 101.605 37.8107 101.605 37.7042V37.5976V37.4911C101.605 37.4911 101.605 37.4911 101.605 37.3846C101.605 37.3846 101.605 37.3846 101.605 37.2781C101.605 37.1716 101.605 37.1716 101.605 37.0651C101.605 36.9586 101.605 36.8521 101.605 36.8521V36.7456V36.6391C101.605 36.5326 101.605 36.5326 101.605 36.426C101.605 36.3195 101.605 36.213 101.605 36.1065V36C101.605 36 101.605 36 101.605 35.8935C101.499 35.8935 101.605 35.787 101.605 35.787H101.499C101.393 35.787 101.499 35.8935 101.499 36C101.499 36.1065 101.605 36.213 101.499 36.3195C101.393 36.3195 101.499 36.426 101.393 36.5326V36.6391C101.393 36.7456 101.393 36.8521 101.393 36.9586C101.393 36.9586 101.393 36.9586 101.393 37.0651V37.1716V37.2781C101.499 37.3846 101.393 37.3846 101.393 37.3846C101.393 37.3846 101.393 37.4911 101.393 37.5976C101.393 37.5976 101.393 37.5976 101.393 37.7042C101.393 37.7042 101.393 37.8107 101.393 37.9172V38.0237C101.393 38.1302 101.393 38.2367 101.393 38.3432C101.393 38.4497 101.393 38.4497 101.393 38.5562V38.6627V38.7692V38.8757C101.393 38.9823 101.393 39.0888 101.393 39.1953V39.3018V39.5148C101.393 39.5148 101.393 39.5148 101.393 39.6213C101.393 39.7278 101.393 39.9408 101.393 40.0473V40.1539V40.2604C101.393 40.3669 101.393 40.3669 101.499 40.4734C101.499 40.4734 101.605 40.5799 101.711 40.4734C101.711 40.3669 101.818 40.4734 101.818 40.4734H101.924H102.03H102.243H102.349C102.349 40.3669 102.562 40.4734 102.562 40.4734C102.562 40.1539 102.562 40.1539 102.668 40.1539C102.774 40.1539 102.774 40.1539 102.668 40.1539C102.774 40.1539 102.774 40.0473 102.668 40.1539Z" fill="#E11921"/>
<path d="M104.05 39.6213C104.156 39.6213 104.156 39.6213 104.262 39.6213H104.369H104.475H104.581C104.688 39.6213 104.688 39.6213 104.794 39.6213H104.9C105.006 39.5148 105.006 39.7278 105.006 39.6213C105.006 39.6213 105.113 39.5148 105.006 39.5148C104.9 39.5148 104.9 39.5148 104.794 39.5148H104.688C104.688 39.5148 104.581 39.5148 104.581 39.4083C104.581 39.4083 104.581 39.4083 104.475 39.3018C104.475 39.3018 104.475 39.3018 104.475 39.1953V39.0888C104.475 38.9823 104.581 38.9823 104.581 38.8758C104.581 38.7692 104.475 38.7692 104.475 38.7692C104.475 38.7692 104.475 38.7692 104.369 38.6627C104.369 38.6627 104.369 38.5562 104.262 38.5562L104.156 38.7692C104.156 38.6627 104.05 38.6627 104.05 38.6627V38.5562C103.944 38.5562 103.944 38.4497 103.944 38.4497C103.944 38.4497 103.944 38.4497 103.944 38.3432C103.944 38.2367 103.731 38.1302 103.625 38.1302C103.625 38.1302 103.519 38.1302 103.519 38.2367C103.519 38.2367 103.519 38.3432 103.412 38.4497C103.412 38.4497 103.412 38.5562 103.306 38.5562C103.306 38.5562 103.306 38.5562 103.2 38.6627V38.7692C103.2 38.7692 103.2 38.7692 103.2 38.8758V38.9823C103.2 38.9823 103.2 39.0888 103.093 39.0888C103.093 39.0888 103.093 39.1953 102.987 39.1953L102.881 39.3018C102.881 39.3018 102.881 39.4083 102.775 39.4083C102.775 39.5148 102.668 39.5148 102.668 39.6213C102.668 39.6213 102.668 39.6213 102.668 39.7278C102.668 39.7278 102.668 39.8343 102.562 39.8343H102.456C102.456 39.8343 102.349 39.8343 102.349 39.7278C102.349 39.6213 102.349 39.6213 102.349 39.6213C102.456 39.5148 102.562 39.4083 102.668 39.3018C102.668 39.3018 102.668 39.3018 102.668 39.1953C102.668 39.1953 102.775 39.0888 102.775 38.9823V38.8758C102.775 38.8758 102.775 38.8758 102.881 38.7692L102.987 38.6627V38.5562C102.987 38.5562 102.987 38.4497 103.093 38.4497C103.093 38.4497 103.093 38.4497 103.2 38.3432C103.2 38.3432 103.2 38.3432 103.2 38.2367C103.306 38.1302 103.306 38.0237 103.412 38.0237C103.412 38.0237 103.519 38.0237 103.625 38.0237L103.731 37.9172H103.837C103.837 37.9172 103.837 37.9172 103.944 37.9172V38.0237C103.944 38.0237 103.944 38.0237 104.05 38.1302L104.156 38.2367C104.262 38.3432 104.262 38.4497 104.369 38.4497C104.369 38.4497 104.369 38.5562 104.475 38.5562C104.475 38.5562 104.475 38.5562 104.581 38.5562V38.6627C104.581 38.6627 104.581 38.6627 104.688 38.6627L104.794 38.7692C104.794 38.7692 104.794 38.8758 104.9 38.8758C104.9 38.8758 104.9 38.8758 105.006 38.8758C105.006 38.9823 105.113 38.9823 105.113 38.9823C105.219 39.0888 105.219 39.0888 105.219 39.0888C105.219 39.0888 105.219 39.1953 105.325 39.1953C105.325 39.1953 105.432 39.1953 105.432 39.3018C105.432 39.3018 105.432 39.4083 105.538 39.4083C105.538 39.4083 105.538 39.4083 105.644 39.5148C105.644 39.5148 105.644 39.6213 105.75 39.6213C105.75 39.6213 105.75 39.6213 105.857 39.7278V39.8343C105.857 39.9408 105.963 39.9408 105.963 39.9408H106.069C106.069 39.9408 106.069 39.9408 106.176 39.9408C106.176 39.9408 106.176 39.9408 106.282 39.9408H106.388H106.494C106.601 39.9408 106.601 40.0474 106.707 39.9408H106.813H106.919C106.919 39.9408 106.919 39.9408 107.026 39.9408H107.132C107.132 39.9408 107.132 39.9408 107.132 39.8343C107.238 39.8343 107.238 39.8343 107.345 39.8343H107.451C107.451 39.8343 107.451 39.8343 107.557 39.8343C107.557 39.8343 107.557 39.8343 107.663 39.8343C107.663 39.8343 107.663 39.8343 107.77 39.8343C107.77 39.9408 107.876 39.8343 107.982 39.8343C107.982 39.8343 107.982 39.8343 108.089 39.8343C108.089 39.8343 108.089 39.8343 108.195 39.8343C108.195 39.7278 108.301 39.8343 108.301 39.8343H108.407H108.514H108.62H108.726C108.726 39.8343 108.726 39.8343 108.833 39.8343C108.833 39.8343 108.833 39.8343 108.939 39.8343C108.939 39.8343 109.045 39.8343 109.151 39.8343H109.258C109.258 39.8343 109.258 39.9408 109.364 39.9408H109.47H109.576C109.576 39.9408 109.895 39.9408 110.002 39.9408C110.002 39.8343 110.002 39.7278 110.002 39.7278C110.002 39.7278 110.002 39.7278 110.002 39.6213C110.002 39.6213 110.002 39.3018 110.002 39.1953V39.0888C110.002 38.9823 110.002 38.9823 110.002 38.8758C110.002 38.7692 110.002 38.7692 110.002 38.6627V38.5562V38.4497V38.3432C110.002 38.2367 110.002 38.2367 110.002 38.1302C110.002 38.0237 110.002 37.9172 110.002 37.8107C110.002 37.7042 110.002 37.7042 110.002 37.5976V37.4911C110.002 37.3846 110.002 37.1716 110.002 37.0651C110.002 37.0651 110.002 37.0651 110.002 36.9586C110.002 36.8521 110.002 36.7456 110.002 36.6391V36.5326V36.4261C110.002 36.3195 110.002 36.3195 110.002 36.213V36.1065V36C110.002 35.8935 110.002 35.787 110.002 35.6805C110.002 35.574 110.002 35.574 110.002 35.4675V35.361V35.2545C110.002 35.2545 110.002 35.2545 110.002 35.1479V35.0414C110.002 35.0414 110.002 35.0414 110.002 34.9349V34.8284C110.002 34.7219 110.002 34.7219 110.002 34.6154V34.5089V34.4024C110.002 34.2959 110.002 34.2959 110.002 34.1894C110.002 34.0829 110.002 33.9763 110.002 33.8698C110.002 33.7633 110.002 33.7633 110.002 33.7633V33.6568V33.5503C109.895 33.5503 110.002 33.4438 109.895 33.4438C110.002 33.4438 109.895 33.3373 110.002 33.3373C110.002 33.3373 110.002 33.3373 110.002 33.2308C110.002 33.2308 110.108 33.0178 110.002 33.0178C110.002 33.0178 110.002 32.9113 109.895 32.9113H109.576C109.576 32.9113 109.576 32.9113 109.576 32.8047H109.364C109.364 32.8047 109.258 32.9113 109.258 32.8047H109.151C109.151 32.8047 109.151 32.8047 109.045 32.8047C109.045 32.6982 108.939 32.6982 108.833 32.6982H108.726H108.62H108.514C108.514 32.6982 108.514 32.6982 108.407 32.6982H108.301H108.195C108.089 32.6982 108.089 32.6982 107.982 32.6982H107.876H107.77C107.77 32.6982 107.77 32.6982 107.663 32.6982C107.663 32.6982 107.663 32.6982 107.557 32.6982C107.557 32.6982 107.557 32.6982 107.451 32.6982H107.345H107.132C107.132 32.6982 107.132 32.6982 107.026 32.6982H106.919C106.813 32.6982 106.813 32.6982 106.707 32.6982H106.601H106.494C106.388 32.6982 106.388 32.6982 106.388 32.6982H105.75H105.644C105.644 32.6982 105.644 32.6982 105.538 32.6982C105.432 32.6982 105.432 32.6982 105.325 32.6982C105.219 32.6982 105.219 32.6982 105.113 32.6982C105.113 32.6982 105.113 32.6982 105.006 32.6982H104.9C104.9 32.6982 104.9 32.6982 104.794 32.6982H104.688C104.581 32.6982 104.581 32.6982 104.475 32.6982C104.369 32.6982 104.262 32.6982 104.262 32.6982H104.156C104.156 32.6982 104.156 32.6982 104.05 32.6982H103.944H103.837C103.731 32.6982 103.625 32.6982 103.519 32.6982C103.412 32.6982 103.412 32.6982 103.412 32.6982H103.306H103.2H103.093C102.987 32.8048 102.987 32.6982 102.881 32.6982C102.881 32.8048 102.775 32.6982 102.775 32.6982C102.775 32.6982 102.775 32.6982 102.775 32.8047C102.775 32.8047 102.775 32.9113 102.668 32.9113V33.1243C102.668 33.2308 102.668 33.2308 102.668 33.3373C102.668 33.4438 102.668 33.5503 102.668 33.5503C102.668 33.6568 102.668 33.6568 102.668 33.7633V34.5089C102.668 34.5089 102.668 34.6154 102.775 34.6154C102.881 34.6154 102.775 33.8698 102.881 33.7633C102.881 33.6568 102.881 33.6568 102.881 33.5503V33.4438V33.3373C102.881 33.2308 102.881 33.3373 102.987 33.3373V33.4438V33.5503V33.6568V33.7633V33.8698V33.9763V34.0829C102.987 34.2959 102.987 34.6154 102.987 34.8284C102.987 34.9349 102.987 35.0414 102.987 35.0414C102.987 35.0414 102.987 35.0414 102.987 35.1479C102.987 35.2545 102.987 35.361 102.987 35.361C102.987 35.4675 102.987 35.574 102.987 35.6805C102.987 35.6805 102.987 35.6805 102.987 35.787C102.987 35.8935 102.987 35.8935 102.987 36C102.987 36 102.987 36 102.987 36.1065V36.213V36.9586C102.987 36.9586 102.987 36.9586 102.987 36.8521C102.987 36.8521 103.093 36.8521 103.093 36.7456C103.093 36.6391 103.2 36.8521 103.306 36.7456C103.412 36.7456 103.625 36.7456 103.731 36.7456C103.731 36.7456 103.731 36.7456 103.837 36.7456H103.944C104.05 36.7456 104.156 36.6391 104.262 36.7456C104.369 36.7456 104.475 36.7456 104.581 36.7456V36.6391L104.475 36.5326C104.475 36.5326 104.475 36.5326 104.475 36.4261V36.3195V36.213C104.475 36.213 104.475 36.213 104.475 36.1065H104.581H104.688H104.794V36.3195C104.794 36.4261 104.794 36.4261 104.794 36.5326H104.9C104.9 36.5326 104.9 36.5326 105.006 36.5326H105.113H105.219C105.219 36.5326 105.219 36.5326 105.325 36.5326C105.325 36.5326 105.325 36.5326 105.432 36.5326C105.538 36.5326 105.538 36.5326 105.538 36.5326H105.644C105.644 36.5326 105.644 36.5326 105.75 36.5326C105.75 36.5326 105.857 36.5326 105.963 36.5326H106.069H106.176C106.176 36.5326 106.176 36.6391 106.176 36.7456C106.176 36.7456 106.176 36.7456 106.176 36.8521C106.176 36.8521 106.176 36.8521 106.069 36.8521H105.963C105.857 36.8521 105.857 36.8521 105.857 36.8521C105.857 36.8521 105.857 36.8521 105.75 36.8521C105.644 36.8521 105.644 36.8521 105.644 36.8521H105.538H105.432C105.432 36.8521 105.432 36.8521 105.325 36.8521H105.219L105.113 36.9586C105.113 36.9586 105.113 36.9586 105.006 36.9586H104.9C104.794 36.9586 104.794 36.9586 104.688 36.9586C104.581 36.9586 104.581 36.9586 104.581 36.9586C104.581 36.9586 104.475 36.9586 104.369 36.9586H104.262H104.156C104.156 36.9586 104.156 36.9586 104.05 36.9586C103.944 36.9586 103.944 36.9586 103.944 36.9586H103.837H103.731C103.731 36.9586 103.625 36.9586 103.519 36.9586C103.519 36.9586 103.519 36.9586 103.412 36.9586C103.412 36.9586 103.306 36.9586 103.2 36.9586H103.093C103.093 36.9586 102.987 36.9586 102.881 36.9586C102.775 36.9586 102.562 36.9586 102.349 36.9586C102.349 37.1716 102.349 37.3846 102.349 37.7042C102.349 37.8107 102.349 37.8107 102.349 37.9172C102.349 38.0237 102.349 38.0237 102.349 38.1302C102.349 38.2367 102.349 38.2367 102.349 38.3432V38.6627C102.349 38.7692 102.349 38.8758 102.349 39.0888C102.349 39.1953 102.349 39.1953 102.349 39.3018C102.349 39.3018 102.349 39.3018 102.456 39.3018C102.456 39.3018 102.562 39.3018 102.562 39.4083H102.668H102.775C102.775 39.4083 102.775 39.4083 102.881 39.3018H102.987C102.987 39.3018 102.987 39.3018 103.093 39.3018H103.2H103.306C103.412 39.3018 103.412 39.3018 103.519 39.3018C103.519 39.3018 103.519 39.3018 103.625 39.3018C103.625 39.1953 103.731 39.3018 103.731 39.3018H103.837H103.944C103.944 39.3018 103.944 39.3018 104.05 39.3018H104.156C104.156 39.3018 104.156 39.3018 104.156 39.1953H104.262C104.369 39.1953 104.369 39.1953 104.475 39.3018C103.837 39.6213 103.944 39.6213 104.05 39.6213ZM108.301 38.3432V38.2367C108.301 38.2367 108.301 38.0237 108.301 37.9172C108.301 37.9172 108.301 37.9172 108.301 37.8107V37.7042C108.301 37.5977 108.301 37.4911 108.301 37.4911C108.301 37.3846 108.301 36.7456 108.301 36.6391V36.5326V36.3195C108.301 36.3195 108.301 36.3195 108.301 36.213V36.1065V36C108.301 36 108.301 36 108.301 35.8935C108.301 35.8935 108.301 35.8935 108.301 35.787V35.574V35.1479C108.301 35.1479 108.301 35.1479 108.301 35.0414V34.9349C108.301 34.8284 108.301 34.7219 108.301 34.7219C108.301 34.7219 108.301 34.6154 108.301 34.5089V34.4024V34.2959V34.1894C108.301 34.0829 108.301 34.0829 108.301 33.9763C108.301 33.8698 108.301 33.8698 108.301 33.7633C108.301 33.7633 108.301 33.4438 108.301 33.3373V33.2308C108.301 33.2308 108.301 33.2308 108.301 33.1243V33.0178H108.407C108.514 33.0178 108.514 33.0178 108.514 33.0178H108.62C108.62 33.0178 108.62 33.0178 108.726 33.0178L108.833 33.1243C108.833 33.2308 108.833 33.1243 108.833 33.2308L108.939 33.3373V33.5503V33.6568C108.939 33.7633 108.939 33.7633 108.939 33.8698V33.9763C108.939 34.0829 108.939 34.0829 108.939 34.1894V34.2959V34.4024C108.939 34.4024 108.939 34.5089 108.939 34.6154C108.939 34.7219 108.939 34.9349 108.939 34.9349C108.939 35.0414 108.939 35.1479 108.939 35.2545V35.4675V35.8935C108.939 35.8935 108.939 36 108.939 36.1065C108.939 36.1065 108.939 36.213 108.939 36.3195C108.939 36.3195 108.939 36.7456 109.045 36.8521V36.9586C109.045 37.0651 109.045 37.1716 109.045 37.2781V37.5976V37.7042V37.8107C109.045 37.8107 109.045 37.9172 109.045 38.0237V38.1302V38.2367V38.5562H108.833C108.833 38.5562 108.833 38.5562 108.726 38.5562C108.726 38.4497 108.726 38.3432 108.62 38.2367C108.301 38.4497 108.301 38.4497 108.301 38.3432ZM104.794 35.8935C104.794 36 104.794 36 104.794 35.8935C104.688 36 104.688 35.8935 104.581 35.8935C104.581 35.8935 104.475 35.8935 104.369 35.8935H104.262C104.156 35.8935 104.05 36 103.944 35.8935C103.944 35.8935 103.944 35.8935 103.837 35.8935H103.731C103.731 35.8935 103.625 35.787 103.625 35.8935H103.519C103.519 35.8935 103.519 35.8935 103.412 35.8935H103.2H103.093C103.093 35.8935 103.093 35.8935 102.987 35.8935C102.987 35.8935 102.987 35.8935 102.881 35.8935H102.775H102.668H102.562C102.562 35.8935 102.562 35.8935 102.456 35.8935H102.349H102.243C102.137 35.8935 102.137 36 102.031 36H101.924C101.818 36 101.712 36 101.712 36V35.8935C101.712 35.8935 101.712 35.787 101.712 35.6805V35.574C101.712 35.574 101.712 35.4675 101.605 35.361C101.924 35.4675 102.031 35.1479 102.031 35.1479V35.0414V34.9349V34.8284V34.7219V34.6154C102.031 34.5089 102.031 34.5089 102.137 34.4024C102.137 34.4024 102.137 34.4024 102.243 34.4024C102.349 34.4024 102.456 34.4024 102.456 34.4024C102.456 34.4024 102.562 34.4024 102.562 34.2959H102.668C102.775 34.2959 102.775 34.2959 102.881 34.2959C102.881 34.2959 102.881 34.2959 102.987 34.2959H103.093C103.093 34.2959 103.306 34.2959 103.412 34.2959C103.412 34.2959 103.519 34.2959 103.625 34.4024C103.731 34.4024 103.731 34.4024 103.837 34.4024C103.837 34.4024 103.837 34.4024 103.944 34.4024H104.05C104.156 34.4024 104.262 34.4024 104.262 34.4024C104.262 34.4024 104.156 34.2959 104.05 34.2959V34.1894C104.05 34.0829 104.05 33.8698 104.05 33.8698C104.05 33.7633 104.156 33.7633 104.156 33.7633V33.6568C104.156 33.6568 104.262 33.5503 104.262 33.4438C104.262 33.4438 104.262 33.3373 104.156 33.3373C104.156 33.3373 104.05 33.3373 104.05 33.2308C104.05 33.2308 103.944 33.2308 103.837 33.2308L103.731 33.3373C103.625 33.3373 103.625 33.3373 103.625 33.3373H103.519C103.519 33.3373 103.519 33.3373 103.412 33.3373C103.306 33.3373 103.306 33.3373 103.306 33.3373C103.306 33.3373 103.2 33.3373 103.093 33.3373C103.093 33.3373 102.987 33.3373 102.881 33.3373C102.881 33.3373 102.881 33.3373 102.775 33.3373H102.668C102.562 33.3373 102.562 33.3373 102.562 33.3373C102.456 33.3373 102.456 33.3373 102.243 33.3373V33.1243C102.243 33.0178 102.349 33.0178 102.456 33.0178C102.562 33.0178 102.562 33.0178 102.668 33.0178C102.775 33.0178 102.775 33.0178 102.775 33.0178H102.881H102.987H103.093C103.2 33.0178 103.2 33.0178 103.2 33.0178C103.2 33.0178 103.2 33.0178 103.306 33.0178C103.306 33.0178 103.306 33.0178 103.412 33.0178C103.519 33.0178 103.625 33.0178 103.625 33.0178C103.625 33.0178 103.625 33.0178 103.731 33.0178H103.837C103.837 33.0178 103.837 33.0178 103.944 33.0178H104.05H104.156L104.262 32.9113C104.369 32.9113 104.369 33.0178 104.369 33.0178C104.369 33.0178 104.475 33.0178 104.581 33.0178C104.581 33.1243 104.581 33.2308 104.688 33.3373V33.5503V33.6568C104.688 33.6568 104.688 33.7633 104.794 33.7633V33.9763V34.0829C104.794 34.1894 104.794 34.2959 104.794 34.2959V34.4024C104.794 34.4024 104.794 34.4024 104.794 34.5089C104.794 34.6154 104.688 34.7219 104.581 34.7219C104.581 34.7219 104.581 34.7219 104.475 34.7219C104.475 34.7219 104.475 34.7219 104.369 34.7219H104.262C104.262 34.7219 104.156 34.7219 104.05 34.7219H103.731H103.625H103.519C103.519 34.7219 103.519 34.7219 103.412 34.7219C103.412 34.7219 103.412 34.7219 103.306 34.7219H103.2C103.093 34.7219 103.093 34.7219 102.987 34.7219C102.987 34.7219 102.987 34.7219 102.881 34.7219C102.881 34.7219 102.775 34.7219 102.668 34.7219H102.456C102.456 34.7219 102.456 34.7219 102.349 34.8284V34.9349C102.349 34.9349 102.349 34.9349 102.349 35.0414C102.349 35.2545 102.456 35.574 102.562 35.574H102.668C102.668 35.574 102.668 35.574 102.775 35.574C102.775 35.574 102.775 35.574 102.881 35.574H102.987H103.2H103.306C103.306 35.574 103.412 35.574 103.519 35.574H103.625C103.731 35.574 103.731 35.574 103.837 35.574H104.262C104.369 35.4675 104.475 35.574 104.581 35.574C104.794 35.6805 104.794 35.787 104.794 35.8935ZM107.238 35.361C107.345 35.361 107.345 35.361 107.345 35.361H107.451V35.2545V35.1479C107.451 35.0414 107.451 34.7219 107.451 34.6154C107.451 34.5089 107.451 34.4024 107.451 34.4024C107.451 34.2959 107.451 34.2959 107.451 34.2959V34.1894V34.0829V33.9763C107.451 33.9763 107.451 33.9763 107.451 33.8698V33.5503C107.451 33.4438 107.451 33.4438 107.451 33.3373V33.2308C107.451 33.2308 107.451 33.2308 107.557 33.1243H107.663C107.77 33.1243 107.663 33.1243 107.77 33.1243H107.876C107.876 33.2308 107.876 33.4438 107.876 33.4438C107.876 33.5503 107.876 33.7633 107.876 33.9763C107.876 34.0829 107.876 34.0829 107.876 34.0829V34.1894V34.2959C107.876 34.4024 107.876 34.4024 107.876 34.4024C107.876 34.5089 107.876 34.5089 107.876 34.6154V34.8284V34.9349C107.876 35.0414 107.876 35.0414 107.876 35.1479V35.2545V35.361C107.876 35.4675 107.876 35.4675 107.876 35.574V35.6805V35.787V36.3195V36.4261C107.876 36.4261 107.876 36.4261 107.876 36.5326V36.6391C107.876 36.7456 107.876 36.8521 107.876 36.8521V36.9586V37.0651V37.1716V37.2781V37.3846V37.4911C107.876 37.4911 107.876 37.4911 107.876 37.5976V37.7042C107.876 37.7042 107.876 37.7042 107.876 37.8107C107.876 37.9172 107.876 38.1302 107.876 38.2367C107.876 38.3432 107.876 38.3432 107.876 38.4497V38.5562H107.77H107.663C107.663 38.5562 107.663 38.5562 107.557 38.5562C107.557 38.5562 107.557 38.5562 107.557 38.4497C107.557 38.4497 107.557 38.3432 107.557 38.2367V37.7042V37.5976C107.557 37.5976 107.557 37.5977 107.557 37.4911C107.557 37.3846 107.557 37.2781 107.557 37.1716C107.557 37.0651 107.557 36.9586 107.557 36.8521C107.557 36.7456 107.557 36.6391 107.557 36.5326V36.4261V36.3195C107.557 36.213 107.557 36.213 107.557 36.1065V36C107.557 36 107.557 36 107.557 35.8935C107.557 35.8935 107.451 35.8935 107.451 35.787H107.345H107.238C107.238 35.787 107.238 35.787 107.132 35.787H107.026C107.026 35.787 106.919 35.787 106.813 35.787C106.707 35.787 106.707 35.787 106.601 35.787C106.494 35.787 106.494 35.787 106.494 35.6805C106.494 35.574 106.388 35.574 106.494 35.574C106.494 35.4675 106.601 35.4675 106.601 35.361C106.601 35.361 106.601 35.361 106.707 35.2545H106.813C106.919 35.2545 106.919 35.2545 106.919 35.2545C106.919 35.2545 106.919 35.2545 107.026 35.2545H107.238C107.132 35.361 107.132 35.361 107.238 35.361ZM105.113 34.2959C105.006 34.1894 105.006 34.1894 105.006 34.0829C105.006 34.0829 105.006 33.9763 105.006 33.8698C105.113 33.8698 105.325 33.8698 105.432 33.7633H105.538H105.857C105.857 33.6568 105.963 33.7633 106.069 33.7633C106.176 33.8698 106.176 33.7633 106.176 33.7633H106.282H106.388H106.601C106.707 33.7633 106.813 33.7633 106.919 33.7633C106.919 33.7633 106.919 33.7633 106.919 33.8698C107.026 33.9763 106.919 34.0829 106.919 34.0829C106.919 34.0829 106.919 34.0829 106.813 34.1894H106.707C106.601 34.1894 106.494 34.1894 106.494 34.1894C106.494 34.2959 106.388 34.1894 106.388 34.1894C106.388 34.1894 106.388 34.1894 106.282 34.1894C106.282 34.1894 106.282 34.1894 106.176 34.1894H106.069H105.963C105.963 34.1894 105.857 34.1894 105.75 34.1894C105.75 34.1894 105.75 34.1894 105.75 34.2959V34.7219C105.75 34.8284 105.75 34.9349 105.75 34.9349C105.75 35.0414 105.75 35.0414 105.644 35.0414C105.644 35.0414 105.644 35.1479 105.75 35.1479C105.75 35.1479 105.857 35.2545 105.75 35.361V35.4675V35.574V35.6805V35.787V35.8935C105.75 35.8935 105.75 35.8935 105.75 36C105.75 36 105.75 36 105.75 36.1065C105.75 36.1065 105.75 36.1065 105.75 36.213C105.75 36.213 105.75 36.213 105.75 36.3195V36.4261C105.75 36.4261 105.75 36.4261 105.644 36.4261C105.644 36.4261 105.644 36.4261 105.644 36.5326H105.75H105.963H106.069C106.069 36.5326 106.069 36.5326 106.176 36.5326H106.282H106.388H106.494C106.601 36.5326 106.601 36.5326 106.601 36.5326V36.6391C106.601 36.6391 106.601 36.6391 106.601 36.7456C106.601 36.7456 106.601 36.7456 106.601 36.8521C106.601 36.8521 106.601 36.9586 106.494 36.9586H106.282C106.282 36.9586 106.282 36.9586 106.176 36.9586H106.069C106.069 36.9586 106.069 36.9586 105.963 36.9586C105.963 36.9586 105.963 36.9586 105.857 36.9586C105.857 36.9586 105.857 36.9586 105.75 36.9586C105.75 36.9586 105.75 36.9586 105.644 36.9586H105.219C105.219 36.9586 105.113 37.0651 105.113 36.9586H105.006H104.9C104.9 36.9586 104.9 36.9586 104.794 36.8521C104.794 36.7456 104.794 36.7456 104.794 36.7456C104.794 36.7456 104.794 36.7456 104.794 36.6391C104.794 36.6391 104.794 36.6391 104.794 36.5326V36.4261V35.787C104.794 35.787 104.794 35.787 104.794 35.6805C104.794 35.574 104.794 35.4675 104.794 35.361V35.0414C104.794 35.0414 104.794 35.0414 104.794 34.9349V34.8284C104.794 34.8284 104.794 34.8284 104.794 34.7219V34.5089L104.9 34.4024C104.9 34.4024 104.9 34.4024 104.9 34.2959V34.1894V34.0829V33.9763C104.9 33.9763 104.9 33.8698 104.9 33.7633C105.219 34.4024 105.325 34.4024 105.113 34.2959C105.219 34.4024 105.219 34.2959 105.113 34.2959Z" fill="#E11921"/>
</g>
<defs>
<clipPath id="clip0_66_22346">
<rect width="110" height="54" fill="white"/>
</clipPath>
</defs>
</svg>
