<svg width="106" height="26" viewBox="0 0 106 26" fill="none" xmlns="http://www.w3.org/2000/svg">
<path fill-rule="evenodd" clip-rule="evenodd" d="M25.737 13.052C25.737 20.176 19.9894 26 12.9194 26C5.7476 26 0 20.176 0 13.052C0 5.824 5.7476 0 12.9194 0C19.9894 0 25.737 5.824 25.737 13.052Z" fill="white"/>
<path fill-rule="evenodd" clip-rule="evenodd" d="M19.2774 5.148V5.096C19.2774 5.096 19.2774 5.148 19.2266 5.148H19.2774Z" fill="#004098"/>
<path fill-rule="evenodd" clip-rule="evenodd" d="M19.4298 5.096H19.3789C19.3789 5.148 19.3789 5.148 19.3789 5.148C19.3789 5.148 19.4298 5.148 19.4298 5.096Z" fill="#004098"/>
<path fill-rule="evenodd" clip-rule="evenodd" d="M19.5823 5.148V5.096C19.5314 5.096 19.5314 5.096 19.4297 5.096C19.4297 5.096 19.4806 5.148 19.4297 5.148C19.4806 5.148 19.4806 5.148 19.4806 5.148H19.5823Z" fill="#004098"/>
<path fill-rule="evenodd" clip-rule="evenodd" d="M24.5665 14.768C24.5156 14.716 24.5665 14.716 24.5156 14.716H24.5665V14.768Z" fill="#004098"/>
<path fill-rule="evenodd" clip-rule="evenodd" d="M4.3243 20.956C4.27344 21.008 4.3243 20.956 4.27344 20.956C4.3243 20.956 4.3243 20.956 4.3243 20.956Z" fill="#004098"/>
<path fill-rule="evenodd" clip-rule="evenodd" d="M24.5695 15.132C24.5142 15.132 24.5695 15.132 24.5695 15.08C24.5695 15.028 24.5695 15.028 24.5695 15.132Z" fill="#004098"/>
<path fill-rule="evenodd" clip-rule="evenodd" d="M4.57821 20.956C4.52734 20.956 4.52734 20.904 4.52734 20.904C4.57821 20.904 4.57821 20.956 4.57821 20.956Z" fill="#004098"/>
<path fill-rule="evenodd" clip-rule="evenodd" d="M4.62807 21.008C4.62807 21.008 4.57721 20.956 4.62807 20.956C4.62807 20.956 4.7298 21.008 4.62807 21.008Z" fill="#004098"/>
<path fill-rule="evenodd" clip-rule="evenodd" d="M24.5156 15.184H24.5665C24.5665 15.132 24.5665 15.184 24.5156 15.184Z" fill="#004098"/>
<path fill-rule="evenodd" clip-rule="evenodd" d="M4.47673 21.112H4.375V21.06C4.42586 21.06 4.42586 21.06 4.52759 21.06C4.52759 21.112 4.47673 21.112 4.47673 21.112Z" fill="#004098"/>
<path fill-rule="evenodd" clip-rule="evenodd" d="M4.47656 21.164C4.47656 21.164 4.47656 21.164 4.47656 21.112H4.52743C4.47656 21.164 4.52743 21.112 4.47656 21.164Z" fill="#004098"/>
<path fill-rule="evenodd" clip-rule="evenodd" d="M24.5664 13.988V13.936C24.5664 13.936 24.5664 13.936 24.6173 13.936C24.6173 13.936 24.6173 13.936 24.5664 13.936C24.5664 13.988 24.6173 13.988 24.5664 13.988Z" fill="#004098"/>
<path fill-rule="evenodd" clip-rule="evenodd" d="M4.52743 21.164C4.47656 21.164 4.47656 21.216 4.52743 21.164C4.52743 21.164 4.52743 21.164 4.47656 21.164C4.47656 21.164 4.57829 21.164 4.52743 21.164Z" fill="#004098"/>
<path fill-rule="evenodd" clip-rule="evenodd" d="M24.5156 15.34V15.288C24.571 15.236 24.5156 15.34 24.5156 15.34Z" fill="#004098"/>
<path fill-rule="evenodd" clip-rule="evenodd" d="M4.83211 21.112H4.78125V21.06C4.83211 21.112 4.83211 21.112 4.83211 21.112Z" fill="#004098"/>
<path fill-rule="evenodd" clip-rule="evenodd" d="M4.98446 21.112C4.93359 21.112 4.93359 21.112 4.93359 21.112C4.93359 21.112 5.03532 21.008 4.98446 21.112Z" fill="#004098"/>
<path fill-rule="evenodd" clip-rule="evenodd" d="M4.7306 21.216L4.67974 21.164C4.67974 21.164 4.67974 21.164 4.62888 21.164C4.67974 21.164 4.62888 21.164 4.67974 21.164C4.7306 21.008 4.47629 21.216 4.67974 21.112C4.67974 21.164 4.67974 21.164 4.67974 21.164C4.7306 21.164 4.7306 21.216 4.7306 21.216Z" fill="#004098"/>
<path fill-rule="evenodd" clip-rule="evenodd" d="M4.57721 21.216C4.52635 21.216 4.52635 21.32 4.57721 21.216C4.57721 21.164 4.62807 21.216 4.57721 21.216C4.62807 21.216 4.52635 21.32 4.57721 21.216Z" fill="#004098"/>
<path fill-rule="evenodd" clip-rule="evenodd" d="M4.8322 21.32H4.78133H4.73047V21.268C4.73047 21.32 4.73047 21.268 4.73047 21.32C4.73047 21.268 4.73047 21.268 4.73047 21.268H4.78133C4.78133 21.268 4.78133 21.268 4.8322 21.268C4.8322 21.32 4.8322 21.32 4.8322 21.32Z" fill="#004098"/>
<path fill-rule="evenodd" clip-rule="evenodd" d="M5.39129 21.164C5.28956 21.216 5.44215 21.164 5.39129 21.164V21.164Z" fill="#004098"/>
<path fill-rule="evenodd" clip-rule="evenodd" d="M5.54609 21.164C5.54609 21.164 5.49073 21.112 5.54609 21.112V21.164Z" fill="#004098"/>
<path fill-rule="evenodd" clip-rule="evenodd" d="M5.28914 21.32C5.23828 21.32 5.23828 21.268 5.23828 21.268L5.28914 21.32Z" fill="#004098"/>
<path fill-rule="evenodd" clip-rule="evenodd" d="M6.00289 21.008C5.95202 21.112 6.10462 21.008 6.00289 21.008V21.008Z" fill="#004098"/>
<path fill-rule="evenodd" clip-rule="evenodd" d="M5.23929 21.32C5.18843 21.372 5.29016 21.32 5.23929 21.32V21.32Z" fill="#004098"/>
<path fill-rule="evenodd" clip-rule="evenodd" d="M5.44242 21.32C5.39155 21.32 5.49328 21.32 5.44242 21.268C5.44242 21.216 5.49328 21.216 5.44242 21.32Z" fill="#004098"/>
<path fill-rule="evenodd" clip-rule="evenodd" d="M5.8501 21.372H5.79924H5.74838L5.64665 21.32C5.64665 21.32 5.64665 21.32 5.59579 21.32V21.268C5.64665 21.268 5.64665 21.32 5.64665 21.32H5.69751C5.69751 21.32 5.69751 21.32 5.74838 21.32C5.74838 21.32 5.74838 21.32 5.74838 21.372H5.8501Z" fill="#004098"/>
<path fill-rule="evenodd" clip-rule="evenodd" d="M5.89956 21.424C5.8487 21.424 5.95042 21.424 5.89956 21.424C5.89956 21.424 5.8487 21.372 5.89956 21.372C5.89956 21.372 5.95042 21.424 5.89956 21.424Z" fill="#004098"/>
<path fill-rule="evenodd" clip-rule="evenodd" d="M5.74813 21.58C5.69727 21.58 5.74813 21.58 5.69727 21.528C5.69727 21.476 5.84986 21.58 5.74813 21.58Z" fill="#004098"/>
<path fill-rule="evenodd" clip-rule="evenodd" d="M6.0012 21.476V21.424H5.95034C6.0012 21.424 6.0012 21.424 6.0012 21.424H6.10293C6.0012 21.424 6.10293 21.476 6.0012 21.476Z" fill="#004098"/>
<path fill-rule="evenodd" clip-rule="evenodd" d="M6.15355 21.476C6.15355 21.476 6.15355 21.476 6.10268 21.476C6.05182 21.424 6.10268 21.424 6.10268 21.424C6.15355 21.424 6.15355 21.476 6.15355 21.476Z" fill="#004098"/>
<path fill-rule="evenodd" clip-rule="evenodd" d="M6.20522 21.476C6.00176 21.476 6.40867 21.58 6.20522 21.476H6.25608C6.20522 21.476 6.20522 21.476 6.20522 21.476Z" fill="#004098"/>
<path fill-rule="evenodd" clip-rule="evenodd" d="M4.98749 21.892C4.98749 21.892 4.93214 21.84 4.98749 21.84V21.892Z" fill="#004098"/>
<path fill-rule="evenodd" clip-rule="evenodd" d="M6.30805 21.58C6.15546 21.58 6.30805 21.528 6.30805 21.528C6.30805 21.58 6.35892 21.58 6.30805 21.58Z" fill="#004098"/>
<path fill-rule="evenodd" clip-rule="evenodd" d="M5.18807 21.892C5.13721 21.892 5.23893 21.84 5.23893 21.84C5.23893 21.892 5.23893 21.892 5.18807 21.892Z" fill="#004098"/>
<path fill-rule="evenodd" clip-rule="evenodd" d="M5.03628 21.944C5.03628 21.944 4.98541 21.892 5.03628 21.892C5.03628 21.892 5.08714 21.944 5.03628 21.944Z" fill="#004098"/>
<path fill-rule="evenodd" clip-rule="evenodd" d="M5.90105 21.788L5.85018 21.736C5.79932 21.788 6.00278 21.684 5.85018 21.736C5.85018 21.736 5.85018 21.736 5.90105 21.736C5.90105 21.684 5.95191 21.788 5.90105 21.788Z" fill="#004098"/>
<path fill-rule="evenodd" clip-rule="evenodd" d="M5.18766 21.944H5.08594C5.08594 21.944 5.08594 21.944 5.08594 21.892H5.1368C5.18767 21.944 5.18766 21.944 5.18766 21.944Z" fill="#004098"/>
<path fill-rule="evenodd" clip-rule="evenodd" d="M6.35742 21.684V21.632C6.35742 21.58 6.41278 21.632 6.35742 21.632C6.35742 21.632 6.35742 21.632 6.35742 21.684Z" fill="#004098"/>
<path fill-rule="evenodd" clip-rule="evenodd" d="M6.15542 21.84C6.15542 21.84 6.10455 21.788 6.15542 21.788C6.15542 21.788 6.20628 21.84 6.15542 21.84Z" fill="#004098"/>
<path fill-rule="evenodd" clip-rule="evenodd" d="M5.3913 22.1C5.34044 22.1 5.34044 22.048 5.34044 22.048H5.28958C5.28958 22.048 5.28958 22.048 5.28958 21.996C5.13698 22.048 5.23871 21.996 5.28958 21.996V22.048L5.34044 21.996C5.34044 21.996 5.3913 21.996 5.34044 22.048C5.34044 22.048 5.34044 22.048 5.3913 22.048V22.1Z" fill="#004098"/>
<path fill-rule="evenodd" clip-rule="evenodd" d="M5.545 22.1C5.49414 22.1 5.545 22.1 5.49414 22.048C5.545 22.048 5.545 22.048 5.545 22.1Z" fill="#004098"/>
<path fill-rule="evenodd" clip-rule="evenodd" d="M5.64657 22.1C5.5957 22.1 5.64657 22.1 5.5957 22.1C5.5957 22.1 5.5957 22.1 5.64657 22.048C5.64657 22.1 5.64657 22.1 5.64657 22.1Z" fill="#004098"/>
<path fill-rule="evenodd" clip-rule="evenodd" d="M6.91714 21.684H6.86627C6.81541 21.684 6.81541 21.632 6.86627 21.632C6.86627 21.632 6.86627 21.684 6.91714 21.684Z" fill="#004098"/>
<path fill-rule="evenodd" clip-rule="evenodd" d="M7.4289 21.632C7.37354 21.632 7.4289 21.58 7.4289 21.58C7.4289 21.632 7.4289 21.632 7.4289 21.632Z" fill="#004098"/>
<path fill-rule="evenodd" clip-rule="evenodd" d="M7.47664 21.632C7.42578 21.632 7.47664 21.632 7.42578 21.632C7.42578 21.632 7.47664 21.632 7.47664 21.58C7.47664 21.632 7.47664 21.632 7.47664 21.632Z" fill="#004098"/>
<path fill-rule="evenodd" clip-rule="evenodd" d="M5.84907 22.256C5.69648 22.256 5.84907 22.204 5.84907 22.204C5.84907 22.256 5.84907 22.256 5.84907 22.256Z" fill="#004098"/>
<path fill-rule="evenodd" clip-rule="evenodd" d="M7.27385 21.84C7.27385 21.84 7.22299 21.84 7.22299 21.788H7.12126H7.07039C7.01953 21.788 7.01953 21.736 7.01953 21.736H7.07039C7.07039 21.736 7.07039 21.736 7.12126 21.736V21.788L7.17212 21.736C7.17212 21.788 7.17212 21.788 7.17212 21.788C7.22299 21.788 7.22299 21.788 7.22299 21.788C7.22299 21.788 7.22299 21.788 7.27385 21.788C7.27385 21.84 7.27385 21.84 7.27385 21.84Z" fill="#004098"/>
<path fill-rule="evenodd" clip-rule="evenodd" d="M7.52751 21.84H7.47664H7.42578C7.42578 21.84 7.42578 21.84 7.42578 21.788H7.47664C7.47664 21.788 7.57837 21.84 7.52751 21.84Z" fill="#004098"/>
<path fill-rule="evenodd" clip-rule="evenodd" d="M7.01953 22.048C7.01953 22.048 7.01953 22.048 7.01953 21.996C7.07489 21.944 7.01953 22.048 7.01953 22.048Z" fill="#004098"/>
<path fill-rule="evenodd" clip-rule="evenodd" d="M7.93563 21.788V21.736L7.88477 21.788V21.736C7.93563 21.736 7.93563 21.736 7.93563 21.736C7.93563 21.736 7.98649 21.788 7.93563 21.788Z" fill="#004098"/>
<path fill-rule="evenodd" clip-rule="evenodd" d="M6.10385 22.36C6.05298 22.36 6.10385 22.36 6.05298 22.36C6.05298 22.308 6.05298 22.308 6.05298 22.308V22.36C6.00212 22.36 6.00212 22.308 6.00212 22.308L5.90039 22.36L5.95125 22.308V22.36H6.00212H6.10385Z" fill="#004098"/>
<path fill-rule="evenodd" clip-rule="evenodd" d="M5.85078 22.516C5.85078 22.516 5.79542 22.464 5.85078 22.464C5.85078 22.516 5.85078 22.516 5.85078 22.516Z" fill="#004098"/>
<path fill-rule="evenodd" clip-rule="evenodd" d="M7.12109 22.048V21.996H7.17196C7.17196 22.048 7.17196 22.048 7.17196 22.048C7.17196 22.048 7.22282 22.048 7.12109 22.048Z" fill="#004098"/>
<path fill-rule="evenodd" clip-rule="evenodd" d="M7.47656 21.944C7.47656 21.892 7.52743 21.892 7.52743 21.892L7.47656 21.944Z" fill="#004098"/>
<path fill-rule="evenodd" clip-rule="evenodd" d="M7.78245 21.892H7.73159C7.73159 21.892 7.68073 21.84 7.73159 21.84C7.78245 21.892 7.78245 21.84 7.78245 21.84V21.892Z" fill="#004098"/>
<path fill-rule="evenodd" clip-rule="evenodd" d="M7.88477 21.892V21.84C7.94012 21.84 7.88477 21.892 7.88477 21.892Z" fill="#004098"/>
<path fill-rule="evenodd" clip-rule="evenodd" d="M5.54492 22.62C5.54492 22.568 5.54492 22.568 5.54492 22.568C5.54492 22.568 5.64665 22.568 5.54492 22.62Z" fill="#004098"/>
<path fill-rule="evenodd" clip-rule="evenodd" d="M7.57925 21.944C7.52838 22.048 7.73184 21.892 7.57925 21.944V21.944Z" fill="#004098"/>
<path fill-rule="evenodd" clip-rule="evenodd" d="M7.22266 22.152C7.22266 22.1 7.22266 22.1 7.22266 22.1C7.27352 22.048 7.27352 22.1 7.22266 22.152Z" fill="#004098"/>
<path fill-rule="evenodd" clip-rule="evenodd" d="M5.95117 22.568V22.516C6.00204 22.516 6.00204 22.516 5.95117 22.568Z" fill="#004098"/>
<path fill-rule="evenodd" clip-rule="evenodd" d="M7.52743 22.1H7.47656C7.52743 22.048 7.52743 22.1 7.52743 22.1Z" fill="#004098"/>
<path fill-rule="evenodd" clip-rule="evenodd" d="M8.03719 21.892C7.98633 21.892 7.98633 21.944 7.98633 21.944V21.892H8.03719Z" fill="#004098"/>
<path fill-rule="evenodd" clip-rule="evenodd" d="M6.1543 22.568V22.516C6.20516 22.516 6.20516 22.568 6.1543 22.568Z" fill="#004098"/>
<path fill-rule="evenodd" clip-rule="evenodd" d="M7.8831 22.048V21.996C7.8831 22.048 7.93397 22.048 7.8831 22.048Z" fill="#004098"/>
<path fill-rule="evenodd" clip-rule="evenodd" d="M8.03711 21.944C8.13884 21.892 8.13884 21.944 8.03711 21.944V21.944Z" fill="#004098"/>
<path fill-rule="evenodd" clip-rule="evenodd" d="M6.40949 22.516V22.464C6.35863 22.464 6.40949 22.464 6.35863 22.464C6.35863 22.464 6.35862 22.464 6.30776 22.464H6.2569V22.36C6.20603 22.36 6.20603 22.412 6.2569 22.412H6.30776C6.30776 22.412 6.30776 22.412 6.30776 22.464C6.35862 22.412 6.35863 22.412 6.35863 22.412L6.40949 22.516Z" fill="#004098"/>
<path fill-rule="evenodd" clip-rule="evenodd" d="M8.13867 21.944L8.18954 21.892C8.18954 21.944 8.18954 21.944 8.13867 21.944Z" fill="#004098"/>
<path fill-rule="evenodd" clip-rule="evenodd" d="M5.74813 22.724C5.74813 22.724 5.74813 22.724 5.69727 22.724C5.69727 22.672 5.69727 22.672 5.69727 22.672H5.74813V22.724Z" fill="#004098"/>
<path fill-rule="evenodd" clip-rule="evenodd" d="M6.1036 22.62C6.05273 22.62 6.05273 22.568 6.05273 22.568C6.05273 22.568 6.1036 22.568 6.1036 22.516C6.1036 22.568 6.1036 22.568 6.1036 22.568V22.62Z" fill="#004098"/>
<path fill-rule="evenodd" clip-rule="evenodd" d="M7.67977 22.1C7.62891 22.152 7.62891 22.1 7.62891 22.1C7.67977 22.1 7.67977 22.1 7.67977 22.1Z" fill="#004098"/>
<path fill-rule="evenodd" clip-rule="evenodd" d="M5.89948 22.724C5.84861 22.724 5.84861 22.776 5.89948 22.724V22.724Z" fill="#004098"/>
<path fill-rule="evenodd" clip-rule="evenodd" d="M5.95026 22.776C5.89939 22.776 5.89939 22.724 5.95026 22.724C5.95026 22.724 6.00112 22.776 5.95026 22.776Z" fill="#004098"/>
<path fill-rule="evenodd" clip-rule="evenodd" d="M6.35871 22.62C6.30784 22.62 6.30784 22.62 6.30784 22.62H6.25698V22.568L6.30784 22.62H6.35871Z" fill="#004098"/>
<path fill-rule="evenodd" clip-rule="evenodd" d="M8.23949 22.048C8.23949 22.048 8.23949 22.048 8.23949 21.996V22.048C8.29035 22.048 8.23948 22.048 8.29035 22.048H8.23949C8.34121 22.048 8.23949 22.1 8.23949 22.048Z" fill="#004098"/>
<path fill-rule="evenodd" clip-rule="evenodd" d="M8.596 22.048C8.596 22.048 8.54514 22.048 8.54514 21.996C8.54514 22.048 8.54514 21.996 8.596 21.996C8.18909 22.048 8.90119 21.996 8.596 21.996C8.596 22.048 8.64687 22.048 8.596 22.048Z" fill="#004098"/>
<path fill-rule="evenodd" clip-rule="evenodd" d="M6.00204 22.776C5.95117 22.828 6.00204 22.776 5.95117 22.776H6.00204Z" fill="#004098"/>
<path fill-rule="evenodd" clip-rule="evenodd" d="M7.73047 22.308V22.256C7.78583 22.256 7.73047 22.308 7.73047 22.308Z" fill="#004098"/>
<path fill-rule="evenodd" clip-rule="evenodd" d="M8.13792 22.152C8.08706 22.204 8.08706 22.204 8.08706 22.204C8.08706 22.204 8.0362 22.152 8.08706 22.152H8.13792Z" fill="#004098"/>
<path fill-rule="evenodd" clip-rule="evenodd" d="M8.64761 22.048C8.64761 22.048 8.59674 22.048 8.64761 21.996C8.64761 22.048 8.69847 22.048 8.64761 22.048Z" fill="#004098"/>
<path fill-rule="evenodd" clip-rule="evenodd" d="M6.61141 22.724C6.56055 22.724 6.56055 22.724 6.56055 22.724C6.56055 22.724 6.61141 22.724 6.61141 22.672C6.61141 22.724 6.61141 22.724 6.61141 22.724Z" fill="#004098"/>
<path fill-rule="evenodd" clip-rule="evenodd" d="M8.44244 22.152C8.39158 22.152 8.39158 22.1 8.44244 22.1V22.152Z" fill="#004098"/>
<path fill-rule="evenodd" clip-rule="evenodd" d="M9.05386 21.944C9.05386 21.944 9.00299 21.892 9.05386 21.892C9.05386 21.892 9.10472 21.944 9.05386 21.944Z" fill="#004098"/>
<path fill-rule="evenodd" clip-rule="evenodd" d="M7.88477 22.36V22.308C7.88477 22.308 7.94012 22.36 7.88477 22.36Z" fill="#004098"/>
<path fill-rule="evenodd" clip-rule="evenodd" d="M9.15633 21.944C9.10547 21.944 9.15633 21.944 9.10547 21.892C9.15633 21.892 9.15633 21.892 9.15633 21.944Z" fill="#004098"/>
<path fill-rule="evenodd" clip-rule="evenodd" d="M8.49331 22.152C8.44245 22.152 8.49331 22.1 8.49331 22.1C8.49331 22.152 8.59504 22.152 8.49331 22.152Z" fill="#004098"/>
<path fill-rule="evenodd" clip-rule="evenodd" d="M7.27344 22.568V22.516C7.3288 22.516 7.27344 22.568 7.27344 22.568Z" fill="#004098"/>
<path fill-rule="evenodd" clip-rule="evenodd" d="M8.19062 22.308C8.19062 22.256 8.13526 22.256 8.19062 22.256V22.308Z" fill="#004098"/>
<path fill-rule="evenodd" clip-rule="evenodd" d="M7.93472 22.36C7.93472 22.36 7.88385 22.308 7.93472 22.308C7.93472 22.308 7.98558 22.36 7.93472 22.36Z" fill="#004098"/>
<path fill-rule="evenodd" clip-rule="evenodd" d="M8.9014 22.048C8.85054 22.1 8.95227 22.048 8.9014 22.048V22.048Z" fill="#004098"/>
<path fill-rule="evenodd" clip-rule="evenodd" d="M8.69735 22.256C8.64648 22.256 8.64648 22.204 8.64648 22.204H8.69735C8.69735 22.152 8.69735 22.152 8.69735 22.256Z" fill="#004098"/>
<path fill-rule="evenodd" clip-rule="evenodd" d="M7.07148 22.776V22.724C7.01612 22.724 7.07148 22.724 7.07148 22.776Z" fill="#004098"/>
<path fill-rule="evenodd" clip-rule="evenodd" d="M6.40878 22.932C6.40878 22.932 6.40878 22.932 6.35792 22.932C6.35792 22.932 6.35792 22.932 6.35792 22.88C6.30705 22.88 6.30705 22.88 6.30705 22.88H6.25619C6.25619 22.88 6.25619 22.88 6.20533 22.88C6.15446 22.88 6.15446 22.88 6.05273 22.88L6.1036 22.828V22.88H6.15446C6.15446 22.88 6.15446 22.88 6.20533 22.88C6.20533 22.88 6.20533 22.88 6.25619 22.88H6.30705H6.35792C6.45964 22.828 6.45964 22.932 6.40878 22.932Z" fill="#004098"/>
<path fill-rule="evenodd" clip-rule="evenodd" d="M8.34188 22.36C8.29102 22.36 8.29102 22.308 8.29102 22.36H8.34188Z" fill="#004098"/>
<path fill-rule="evenodd" clip-rule="evenodd" d="M8.79883 22.256C8.79883 22.256 8.79883 22.256 8.79883 22.204C8.79883 22.256 8.84969 22.256 8.84969 22.256C8.84969 22.256 8.84969 22.256 8.79883 22.256Z" fill="#004098"/>
<path fill-rule="evenodd" clip-rule="evenodd" d="M9.35946 22.048C9.30859 22.1 9.35946 22.048 9.30859 22.048C9.35946 22.048 9.35946 22.048 9.35946 22.048Z" fill="#004098"/>
<path fill-rule="evenodd" clip-rule="evenodd" d="M9.35965 22.1C9.30879 22.1 9.30879 22.1 9.30879 22.1H9.35965C9.76656 21.892 8.95274 22.308 9.35965 22.1Z" fill="#004098"/>
<path fill-rule="evenodd" clip-rule="evenodd" d="M8.49508 22.36C8.44421 22.464 8.5968 22.36 8.49508 22.36V22.36Z" fill="#004098"/>
<path fill-rule="evenodd" clip-rule="evenodd" d="M9.41024 22.1C9.41024 22.1 9.41024 22.1 9.35938 22.1C9.41024 22.1 9.41024 22.048 9.41024 22.048C9.41024 22.1 9.41024 22.1 9.41024 22.1Z" fill="#004098"/>
<path fill-rule="evenodd" clip-rule="evenodd" d="M8.85035 22.36C8.85035 22.36 8.85035 22.36 8.79949 22.36C8.79949 22.308 8.79949 22.308 8.79949 22.308C8.74862 22.308 8.74862 22.308 8.74862 22.308C8.6469 22.308 8.6469 22.36 8.6469 22.36V22.308H8.59603H8.54517H8.49431L8.44344 22.256H8.39258C8.39258 22.256 8.39258 22.204 8.44344 22.204V22.256H8.49431C8.54517 22.308 8.54517 22.256 8.54517 22.256H8.59603C8.59603 22.256 8.59603 22.256 8.59603 22.308L8.6469 22.256C8.6469 22.256 8.6469 22.256 8.6469 22.308V22.256L8.69776 22.308H8.74862C8.79949 22.308 8.79949 22.308 8.79949 22.308C8.79949 22.308 8.85035 22.308 8.85035 22.36Z" fill="#004098"/>
<path fill-rule="evenodd" clip-rule="evenodd" d="M8.44453 22.516C8.38917 22.516 8.44453 22.464 8.44453 22.464V22.516Z" fill="#004098"/>
<path fill-rule="evenodd" clip-rule="evenodd" d="M7.88422 22.724C7.73163 22.724 7.88422 22.672 7.88422 22.672C7.88422 22.724 7.88422 22.724 7.88422 22.724Z" fill="#004098"/>
<path fill-rule="evenodd" clip-rule="evenodd" d="M9.15471 22.308C9.10385 22.308 9.10385 22.256 9.10385 22.256V22.308C9.05298 22.308 9.10385 22.256 9.05298 22.256C9.05298 22.308 9.10385 22.308 9.05298 22.308V22.256L9.00212 22.308C9.00212 22.308 9.00212 22.308 9.00212 22.256L8.95125 22.308V22.256C8.95125 22.256 8.95125 22.256 9.00212 22.204V22.256L9.05298 22.204V22.256H9.10385C9.10385 22.204 9.10385 22.256 9.10385 22.204H9.05298C9.00212 22.152 9.05298 22.152 9.00212 22.152H8.95125C9.00212 22.152 9.00212 22.1 9.00212 22.1L9.05298 22.152H9.10385L9.15471 22.204V22.152L9.20557 22.204C9.05298 22.204 9.20557 22.152 9.15471 22.204C9.15471 22.204 9.15471 22.204 9.10385 22.204V22.256H9.15471V22.308Z" fill="#004098"/>
<path fill-rule="evenodd" clip-rule="evenodd" d="M9.76579 22.152C9.6132 22.152 9.76579 22.1 9.71493 22.1C9.66406 22.152 9.71493 22.1 9.66406 22.1H9.71493H9.76579H9.81665C9.76579 22.1 9.76579 22.1 9.76579 22.1C9.71493 22.152 9.81665 22.1 9.76579 22.152Z" fill="#004098"/>
<path fill-rule="evenodd" clip-rule="evenodd" d="M9.76562 22.152L9.81649 22.1C9.81649 22.1 9.81649 22.152 9.76562 22.152Z" fill="#004098"/>
<path fill-rule="evenodd" clip-rule="evenodd" d="M8.03736 22.724C7.98649 22.724 7.98649 22.724 7.98649 22.724C7.93563 22.724 7.93563 22.724 7.93563 22.724C7.93563 22.672 7.93563 22.672 7.88477 22.672C7.93563 22.672 7.93563 22.672 7.93563 22.672H7.98649L8.03736 22.724C8.03736 22.724 8.03736 22.724 8.08822 22.724C8.13908 22.724 8.13908 22.724 8.03736 22.724Z" fill="#004098"/>
<path fill-rule="evenodd" clip-rule="evenodd" d="M8.59682 22.568V22.516C8.64769 22.516 8.64769 22.516 8.64769 22.516V22.568C8.59683 22.568 8.64769 22.568 8.59682 22.568Z" fill="#004098"/>
<path fill-rule="evenodd" clip-rule="evenodd" d="M8.69684 22.568C8.54425 22.568 8.69684 22.568 8.64597 22.568C8.64597 22.568 8.69684 22.516 8.69684 22.568Z" fill="#004098"/>
<path fill-rule="evenodd" clip-rule="evenodd" d="M10.0717 22.152C10.0717 22.152 10.0717 22.152 10.0208 22.152V22.1C9.96995 22.1 10.0208 22.152 9.96995 22.152H9.91909V22.1H9.96995C9.96995 22.1 9.96995 22.1 10.0208 22.1C10.0208 22.152 10.0717 22.1 10.0717 22.1V22.152Z" fill="#004098"/>
<path fill-rule="evenodd" clip-rule="evenodd" d="M10.2228 22.152L10.172 22.1C10.1211 22.152 10.1211 22.1 10.1211 22.1H10.172C10.2228 22.1 10.2228 22.1 10.3245 22.1C10.2737 22.1 10.3245 22.1 10.2737 22.1C10.2228 22.152 10.2228 22.1 10.2228 22.152Z" fill="#004098"/>
<path fill-rule="evenodd" clip-rule="evenodd" d="M16.4297 20.28C16.4806 20.228 16.4806 20.28 16.4297 20.28V20.28Z" fill="#004098"/>
<path fill-rule="evenodd" clip-rule="evenodd" d="M8.39204 22.776C8.23945 22.776 8.39204 22.724 8.39204 22.724V22.776Z" fill="#004098"/>
<path fill-rule="evenodd" clip-rule="evenodd" d="M9.05415 22.568C8.90156 22.568 9.05415 22.516 9.05415 22.516C9.05415 22.516 9.05415 22.516 9.05415 22.568Z" fill="#004098"/>
<path fill-rule="evenodd" clip-rule="evenodd" d="M7.12126 23.036H7.07039C7.07039 23.036 7.07039 23.036 7.07039 22.984C7.07039 22.984 7.01953 23.036 7.07039 23.036L7.12126 23.088V23.036Z" fill="#004098"/>
<path fill-rule="evenodd" clip-rule="evenodd" d="M6.56055 22.984C6.56055 22.932 6.56055 22.932 6.56055 22.932V22.984C6.61141 22.984 6.61141 22.984 6.56055 22.984Z" fill="#004098"/>
<path fill-rule="evenodd" clip-rule="evenodd" d="M8.44393 22.776C8.39307 22.776 8.49479 22.724 8.49479 22.724C8.44393 22.776 8.49479 22.776 8.44393 22.776Z" fill="#004098"/>
<path fill-rule="evenodd" clip-rule="evenodd" d="M9.41024 22.516L9.35938 22.464H9.41024C9.41024 22.464 9.51197 22.516 9.41024 22.516Z" fill="#004098"/>
<path fill-rule="evenodd" clip-rule="evenodd" d="M10.6311 22.1H10.5803C10.5294 22.1 10.5294 22.152 10.6311 22.1Z" fill="#004098"/>
<path fill-rule="evenodd" clip-rule="evenodd" d="M11.3419 21.892C11.291 21.944 11.3419 21.892 11.291 21.892C11.3419 21.892 11.3419 21.892 11.3419 21.892Z" fill="#004098"/>
<path fill-rule="evenodd" clip-rule="evenodd" d="M10.7825 22.1H10.7316C10.6807 22.1 10.7316 22.1 10.7316 22.152L10.7825 22.1Z" fill="#004098"/>
<path fill-rule="evenodd" clip-rule="evenodd" d="M11.1391 22.048C11.1391 22.048 11.1391 22.048 11.0882 22.048C10.9356 22.048 11.1391 22.048 11.0374 22.048V21.996L10.9865 22.048C10.9865 21.996 10.9865 21.996 10.9865 21.996L10.9356 22.048C10.9356 21.996 10.9356 21.996 10.9356 21.996C10.8848 21.996 10.8848 21.996 10.8848 21.996C10.8848 21.996 10.8848 21.996 10.9356 21.944C10.9356 21.996 10.9356 21.996 10.9356 21.996H10.9865H11.0374C11.0882 21.996 11.0882 22.048 11.0882 22.048C11.0882 22.048 11.1391 22.048 11.1391 21.996C11.1391 22.048 11.1391 22.048 11.1391 22.048Z" fill="#004098"/>
<path fill-rule="evenodd" clip-rule="evenodd" d="M8.69727 22.828V22.776C8.69727 22.776 8.79899 22.776 8.69727 22.828Z" fill="#004098"/>
<path fill-rule="evenodd" clip-rule="evenodd" d="M9.35921 22.568C9.30835 22.568 9.30835 22.568 9.30835 22.62C9.25748 22.62 9.25748 22.568 9.25748 22.568C9.66439 22.412 8.9523 22.776 9.30835 22.568V22.516H9.35921C9.35921 22.516 9.41007 22.568 9.35921 22.568Z" fill="#004098"/>
<path fill-rule="evenodd" clip-rule="evenodd" d="M9.30892 22.62C9.30892 22.62 9.30892 22.62 9.25806 22.62C9.2072 22.62 9.2072 22.62 9.2072 22.62L9.15633 22.568C9.15633 22.568 9.15633 22.568 9.10547 22.568C9.15633 22.568 9.15633 22.568 9.25806 22.516C9.25806 22.568 9.25806 22.568 9.2072 22.568H9.15633C9.15633 22.568 9.15633 22.568 9.15633 22.62V22.568L9.2072 22.62H9.30892Z" fill="#004098"/>
<path fill-rule="evenodd" clip-rule="evenodd" d="M6.76562 23.088V23.036C6.76562 23.088 6.82098 23.088 6.76562 23.088Z" fill="#004098"/>
<path fill-rule="evenodd" clip-rule="evenodd" d="M9.35854 22.62V22.568H9.40941C9.40941 22.568 9.40941 22.568 9.40941 22.62H9.35854Z" fill="#004098"/>
<path fill-rule="evenodd" clip-rule="evenodd" d="M10.9874 22.152C10.9874 22.152 10.9874 22.152 10.9365 22.152V22.1C10.9365 22.1 10.9365 22.152 10.8857 22.152V22.1L10.8348 22.152C10.7839 22.152 10.7839 22.152 10.7839 22.152H10.6822C10.6822 22.152 10.6822 22.152 10.6314 22.152C10.6314 22.152 10.6314 22.152 10.5805 22.152C10.5296 22.152 10.5296 22.152 10.4279 22.152H10.377C10.377 22.152 10.377 22.152 10.3262 22.152V22.1H10.377C10.4279 22.1 10.4279 22.1 10.4279 22.1C10.4788 22.048 10.4279 22.1 10.4788 22.1C10.4788 22.1 10.4788 22.1 10.5296 22.1C10.5296 22.1 10.5296 22.1 10.5805 22.1H10.6822C10.7331 22.1 10.7331 22.1 10.8348 22.1C10.8857 22.1 10.8857 22.048 10.8857 22.048V22.1C10.8857 22.1 10.8857 22.048 10.9365 22.048V22.1L10.9874 22.048C10.9874 22.048 11.0383 22.048 11.0383 22.1C11.0383 22.048 11.0383 22.048 11.0891 22.048C11.0891 22.1 11.0383 22.1 10.9365 22.1C10.9874 22.1 11.0891 22.152 10.9874 22.152Z" fill="#004098"/>
<path fill-rule="evenodd" clip-rule="evenodd" d="M7.27333 22.984C7.27333 22.984 7.12074 23.244 7.22247 23.244C7.22247 23.244 7.3242 22.984 7.27333 22.984Z" fill="#004098"/>
<path fill-rule="evenodd" clip-rule="evenodd" d="M11.1418 22.152C11.0864 22.152 11.1418 22.1 11.1418 22.1V22.152Z" fill="#004098"/>
<path fill-rule="evenodd" clip-rule="evenodd" d="M11.8506 21.892C11.7998 21.944 11.9015 21.892 11.8506 21.892V21.892Z" fill="#004098"/>
<path fill-rule="evenodd" clip-rule="evenodd" d="M9.76675 22.568C9.71588 22.568 9.71588 22.568 9.71588 22.62C9.71588 22.568 9.71588 22.568 9.71588 22.568C9.66502 22.568 9.66502 22.62 9.71588 22.568H9.76675Z" fill="#004098"/>
<path fill-rule="evenodd" clip-rule="evenodd" d="M9.51089 22.724V22.672C9.51089 22.672 9.56175 22.724 9.51089 22.724Z" fill="#004098"/>
<path fill-rule="evenodd" clip-rule="evenodd" d="M12.0046 21.892C11.9028 21.944 12.0554 21.892 12.0046 21.892V21.892Z" fill="#004098"/>
<path fill-rule="evenodd" clip-rule="evenodd" d="M9.71509 22.62C9.66423 22.62 9.66423 22.62 9.66423 22.672C9.66423 22.62 9.66423 22.62 9.66423 22.62C9.66423 22.62 9.61336 22.62 9.61336 22.672C9.61336 22.62 9.61336 22.62 9.61336 22.62H9.5625C9.61336 22.62 9.5625 22.568 9.5625 22.568C9.61336 22.568 9.51164 22.62 9.61336 22.568C9.66423 22.568 9.66423 22.568 9.66423 22.568V22.62C9.71509 22.62 9.61336 22.62 9.71509 22.62Z" fill="#004098"/>
<path fill-rule="evenodd" clip-rule="evenodd" d="M12.0547 21.944C12.0547 21.892 12.0547 21.892 12.0547 21.892C12.0547 21.892 12.0547 21.892 12.1056 21.892L12.0547 21.944Z" fill="#004098"/>
<path fill-rule="evenodd" clip-rule="evenodd" d="M6.86835 23.244C6.86835 23.244 6.813 23.192 6.86835 23.192V23.244Z" fill="#004098"/>
<path fill-rule="evenodd" clip-rule="evenodd" d="M12.3099 21.892C12.1064 21.944 12.4625 21.892 12.259 21.892C12.2082 21.892 12.2082 21.892 12.2082 21.892C12.259 21.892 12.259 21.892 12.3099 21.892Z" fill="#004098"/>
<path fill-rule="evenodd" clip-rule="evenodd" d="M9.81649 22.776C9.6639 22.776 10.0708 22.724 9.81649 22.724V22.776C9.81649 22.776 9.81649 22.776 9.81649 22.724L9.76562 22.776C9.76562 22.776 9.81649 22.724 9.76562 22.724H9.81649H9.86735C9.86735 22.724 9.86735 22.776 9.81649 22.776Z" fill="#004098"/>
<path fill-rule="evenodd" clip-rule="evenodd" d="M7.07039 23.296C7.01953 23.296 7.01953 23.244 7.01953 23.296C7.07039 23.296 7.07039 23.296 7.07039 23.296Z" fill="#004098"/>
<path fill-rule="evenodd" clip-rule="evenodd" d="M7.93472 23.244C7.93472 23.192 7.88385 23.088 7.93472 23.192C7.93472 23.192 7.98558 23.244 7.93472 23.244Z" fill="#004098"/>
<path fill-rule="evenodd" clip-rule="evenodd" d="M7.68026 23.296C7.62939 23.296 7.73112 23.244 7.73112 23.244C7.73112 23.296 7.73112 23.296 7.68026 23.296Z" fill="#004098"/>
<path fill-rule="evenodd" clip-rule="evenodd" d="M7.98633 23.244C7.98633 23.244 7.98633 23.244 7.98633 23.192C7.98633 23.244 8.04169 23.244 7.98633 23.244Z" fill="#004098"/>
<path fill-rule="evenodd" clip-rule="evenodd" d="M7.88485 23.4C7.83398 23.4 7.83398 23.4 7.83398 23.4C7.83398 23.4 7.83398 23.4 7.83398 23.348L7.88485 23.4Z" fill="#004098"/>
<path fill-rule="evenodd" clip-rule="evenodd" d="M11.089 22.62L11.0381 22.672V22.62C10.9873 22.62 10.9873 22.672 10.9873 22.672V22.62C10.9364 22.62 10.9364 22.672 10.9364 22.672V22.62L10.8856 22.672H10.8347C10.7838 22.672 10.6821 22.672 10.6821 22.672C10.6312 22.672 10.6312 22.672 10.6312 22.672H10.5804H10.5295C10.4786 22.672 10.5295 22.672 10.4786 22.672C10.4786 22.672 10.4786 22.672 10.4278 22.672V22.62C10.3769 22.672 10.3769 22.672 10.3769 22.672L10.1735 22.62C10.1735 22.62 10.1735 22.62 10.1226 22.62H10.1735C10.1226 22.672 10.1735 22.62 10.1226 22.62C10.1226 22.62 10.1226 22.672 10.0717 22.672V22.62H10.0209V22.672C9.97001 22.672 9.97001 22.672 9.97001 22.672C9.97001 22.672 9.97001 22.62 10.0209 22.62H9.97001H9.91915L9.86828 22.672C9.86828 22.672 9.81742 22.672 9.81742 22.62C9.76655 22.62 9.86828 22.62 9.81742 22.62C9.81742 22.62 9.81742 22.62 9.86828 22.62V22.568H9.91915C9.91915 22.568 9.91915 22.568 9.97001 22.568H10.0209C10.0717 22.568 10.0717 22.568 10.0717 22.568H10.1226C10.1226 22.568 10.1226 22.568 10.1226 22.62C10.1226 22.568 10.1226 22.568 10.1735 22.568C10.1735 22.568 10.1735 22.568 10.1735 22.62H10.2243L10.2752 22.568H10.3261H10.3769C10.3769 22.568 10.3769 22.568 10.3769 22.62C10.4278 22.568 10.4278 22.568 10.4278 22.568C10.4786 22.62 10.4786 22.568 10.4786 22.568V22.62L10.5295 22.568V22.62C10.5295 22.62 10.5295 22.568 10.5804 22.568C10.5804 22.568 10.5804 22.568 10.5804 22.62C10.6312 22.568 10.6312 22.568 10.6312 22.568L10.6821 22.62L10.733 22.568V22.62C10.7838 22.62 10.7838 22.62 10.8856 22.62C10.8856 22.62 10.9364 22.568 10.8856 22.568H10.9364V22.62C11.1399 22.62 11.089 22.62 11.089 22.62Z" fill="#004098"/>
<path fill-rule="evenodd" clip-rule="evenodd" d="M9.15471 23.244V23.192H9.10385L9.05298 23.14L9.00212 23.192C8.95125 23.192 8.95125 23.14 8.95125 23.14C8.95125 23.14 8.95125 23.14 8.90039 23.14V23.192H8.95125H9.00212H9.05298C9.05298 23.244 9.05298 23.192 9.10385 23.192V23.244C9.15471 23.244 9.15471 23.244 9.15471 23.244Z" fill="#004098"/>
<path fill-rule="evenodd" clip-rule="evenodd" d="M7.68002 23.66H7.62915C7.57829 23.608 7.57829 23.66 7.57829 23.608C7.52743 23.608 7.52743 23.608 7.52743 23.608L7.47656 23.556H7.52743H7.57829V23.608C7.57829 23.608 7.57829 23.608 7.62915 23.608L7.68002 23.66Z" fill="#004098"/>
<path fill-rule="evenodd" clip-rule="evenodd" d="M8.34097 23.556C8.34097 23.556 8.2901 23.504 8.34097 23.504C8.34097 23.504 8.34097 23.504 8.34097 23.556C8.39183 23.556 8.39183 23.556 8.34097 23.556Z" fill="#004098"/>
<path fill-rule="evenodd" clip-rule="evenodd" d="M8.79891 23.504V23.452C8.79891 23.452 8.79891 23.452 8.74805 23.452C8.79891 23.452 8.74805 23.452 8.79891 23.452C8.79891 23.452 8.79891 23.452 8.79891 23.504H8.84977C8.84977 23.504 8.84977 23.504 8.79891 23.504Z" fill="#004098"/>
<path fill-rule="evenodd" clip-rule="evenodd" d="M8.44244 23.66C8.44244 23.608 8.44244 23.608 8.44244 23.608C8.39158 23.608 8.39158 23.608 8.44244 23.608C8.44244 23.556 8.44244 23.556 8.44244 23.66Z" fill="#004098"/>
<path fill-rule="evenodd" clip-rule="evenodd" d="M8.79891 23.556C8.74805 23.556 8.79891 23.556 8.74805 23.504C8.79891 23.504 8.79891 23.504 8.79891 23.556Z" fill="#004098"/>
<path fill-rule="evenodd" clip-rule="evenodd" d="M8.34188 23.712L8.29102 23.66C8.34188 23.66 8.34188 23.66 8.34188 23.712Z" fill="#004098"/>
<path fill-rule="evenodd" clip-rule="evenodd" d="M8.90151 23.556V23.504C8.95238 23.504 8.95238 23.556 8.90151 23.556Z" fill="#004098"/>
<path fill-rule="evenodd" clip-rule="evenodd" d="M9.35843 23.504C9.30757 23.504 9.4093 23.504 9.35843 23.452C9.35843 23.452 9.4093 23.452 9.35843 23.504Z" fill="#004098"/>
<path fill-rule="evenodd" clip-rule="evenodd" d="M8.64673 23.712H8.59587V23.66C8.59587 23.66 8.59587 23.66 8.545 23.66C8.49414 23.66 8.59587 23.66 8.545 23.66C8.49414 23.66 8.545 23.66 8.49414 23.66V23.608L8.545 23.66C8.545 23.66 8.545 23.66 8.59587 23.66C8.64673 23.66 8.64673 23.66 8.64673 23.66V23.712Z" fill="#004098"/>
<path fill-rule="evenodd" clip-rule="evenodd" d="M8.44253 23.764C8.44253 23.764 8.39166 23.712 8.44253 23.712C8.44253 23.712 8.49339 23.764 8.44253 23.764Z" fill="#004098"/>
<path fill-rule="evenodd" clip-rule="evenodd" d="M8.18962 23.764C8.18962 23.764 8.18962 23.764 8.13875 23.764H8.08789C8.08789 23.764 8.08789 23.712 8.13875 23.712V23.764H8.18962H8.24048C8.18962 23.764 8.24048 23.868 8.18962 23.764Z" fill="#004098"/>
<path fill-rule="evenodd" clip-rule="evenodd" d="M8.70038 23.712C8.70038 23.712 8.64503 23.66 8.70038 23.66C8.70038 23.712 8.70038 23.712 8.70038 23.712Z" fill="#004098"/>
<path fill-rule="evenodd" clip-rule="evenodd" d="M8.2414 23.868C8.2414 23.868 8.18604 23.816 8.2414 23.816V23.868Z" fill="#004098"/>
<path fill-rule="evenodd" clip-rule="evenodd" d="M8.4936 23.764C8.34101 23.764 8.4936 23.712 8.4936 23.712C8.4936 23.764 8.4936 23.764 8.4936 23.764Z" fill="#004098"/>
<path fill-rule="evenodd" clip-rule="evenodd" d="M9.10455 23.66V23.608C9.05369 23.608 9.05369 23.608 9.10455 23.608H9.15542C9.10455 23.66 9.15542 23.66 9.10455 23.66Z" fill="#004098"/>
<path fill-rule="evenodd" clip-rule="evenodd" d="M8.44453 23.868C8.38917 23.868 8.44453 23.816 8.44453 23.816V23.868Z" fill="#004098"/>
<path fill-rule="evenodd" clip-rule="evenodd" d="M9.30868 23.66C9.25781 23.66 9.25781 23.66 9.25781 23.66V23.608C9.25781 23.66 9.25781 23.66 9.25781 23.66C9.30868 23.66 9.30868 23.66 9.30868 23.66Z" fill="#004098"/>
<path fill-rule="evenodd" clip-rule="evenodd" d="M9.86727 23.556C9.86727 23.504 9.86727 23.504 9.86727 23.504H9.81641C9.86727 23.504 9.81641 23.504 9.86727 23.504V23.556Z" fill="#004098"/>
<path fill-rule="evenodd" clip-rule="evenodd" d="M13.2753 22.62H13.2244H13.1736H13.1227H13.0719H13.021C12.9701 22.62 12.9701 22.62 12.9701 22.62C12.9193 22.62 12.9193 22.62 12.8175 22.62C12.8175 22.62 12.8175 22.62 12.7667 22.62C12.5632 22.672 13.021 22.62 12.7667 22.62V22.672C12.7158 22.672 12.9193 22.672 12.7667 22.672C12.8175 22.672 12.9193 22.672 12.9193 22.672C12.9701 22.672 12.9701 22.672 13.0719 22.672V22.62H13.1227C13.1227 22.62 13.1227 22.62 13.1227 22.672L13.1736 22.62H13.2244C13.1736 22.62 13.2244 22.62 13.2753 22.62Z" fill="#004098"/>
<path fill-rule="evenodd" clip-rule="evenodd" d="M8.90096 23.764C8.8501 23.816 8.95182 23.764 8.95182 23.764C8.95182 23.764 8.95182 23.764 8.90096 23.764Z" fill="#004098"/>
<path fill-rule="evenodd" clip-rule="evenodd" d="M9.3073 23.712H9.25644C9.20557 23.712 9.20557 23.712 9.20557 23.712H9.15471H9.10385V23.66C9.05298 23.66 8.95125 23.66 8.95125 23.66C8.95125 23.66 8.95125 23.66 8.95125 23.608L8.90039 23.66C8.90039 23.608 8.90039 23.608 8.90039 23.608C8.95125 23.608 8.95125 23.608 8.95125 23.608L9.00212 23.66H9.05298H9.10385V23.712C9.15471 23.712 9.15471 23.712 9.15471 23.712C9.20557 23.712 9.20557 23.712 9.20557 23.712H9.3073Z" fill="#004098"/>
<path fill-rule="evenodd" clip-rule="evenodd" d="M8.49508 23.92C8.44421 23.972 8.5968 23.92 8.49508 23.92V23.92Z" fill="#004098"/>
<path fill-rule="evenodd" clip-rule="evenodd" d="M9.10368 23.868H9.05282L9.00195 23.816H9.05282C9.05282 23.816 9.05282 23.816 9.05282 23.868L9.10368 23.816V23.868Z" fill="#004098"/>
<path fill-rule="evenodd" clip-rule="evenodd" d="M10.3263 23.556V23.608C10.3263 23.556 10.2754 23.556 10.2754 23.556C10.3263 23.556 10.3263 23.556 10.3263 23.556Z" fill="#004098"/>
<path fill-rule="evenodd" clip-rule="evenodd" d="M10.6817 23.712V23.66H10.6309C10.6309 23.66 10.6309 23.66 10.6817 23.66H10.7326V23.712C10.6817 23.712 10.6817 23.712 10.6817 23.712Z" fill="#004098"/>
<path fill-rule="evenodd" clip-rule="evenodd" d="M8.4936 24.18C8.34101 24.18 8.4936 24.128 8.4936 24.128C8.4936 24.18 8.4936 24.18 8.4936 24.18Z" fill="#004098"/>
<path fill-rule="evenodd" clip-rule="evenodd" d="M10.8839 23.712C10.833 23.712 10.833 23.712 10.833 23.66C10.7822 23.712 10.8839 23.66 10.833 23.66C10.833 23.66 10.833 23.66 10.8839 23.66V23.712Z" fill="#004098"/>
<path fill-rule="evenodd" clip-rule="evenodd" d="M11.088 23.764C11.1388 23.712 11.0371 23.712 11.0371 23.712C11.088 23.712 11.088 23.712 11.088 23.712C11.088 23.712 11.088 23.712 11.088 23.764Z" fill="#004098"/>
<path fill-rule="evenodd" clip-rule="evenodd" d="M11.6475 23.764C11.5966 23.764 11.6984 23.712 11.6475 23.712C11.6475 23.712 11.6984 23.712 11.6475 23.764Z" fill="#004098"/>
<path fill-rule="evenodd" clip-rule="evenodd" d="M18.7179 23.4C18.7179 23.348 18.7179 23.348 18.7179 23.348C18.7179 23.348 18.8196 23.296 18.7179 23.4Z" fill="#004098"/>
<path fill-rule="evenodd" clip-rule="evenodd" d="M15.7177 24.544C15.7685 24.544 15.7177 24.544 15.7685 24.544C15.7685 24.544 15.7685 24.544 15.7685 24.492C15.8194 24.492 15.8194 24.492 15.9211 24.492C15.9211 24.492 15.9211 24.492 15.972 24.492C15.972 24.492 15.972 24.492 16.0228 24.492C16.0737 24.492 16.0737 24.44 16.0737 24.44C16.0737 24.388 16.1246 24.388 16.1246 24.388V24.44C16.1754 24.44 16.1754 24.388 16.1754 24.388C16.2263 24.388 16.328 24.388 16.3789 24.336C16.3789 24.388 16.4298 24.336 16.3789 24.336C16.4298 24.336 16.4298 24.336 16.4298 24.336C16.4298 24.336 16.4806 24.336 16.4806 24.284C16.5315 24.284 16.5315 24.284 16.5315 24.284L16.5823 24.232H16.7858H16.8367C16.8367 24.232 16.8875 24.232 16.9893 24.18C16.9893 24.18 16.9893 24.18 17.0401 24.18C17.091 24.18 17.091 24.18 17.1927 24.18C17.1419 24.18 17.2436 24.128 17.1927 24.18H17.2436C17.2436 24.128 17.1927 24.128 17.2436 24.128C17.2944 24.128 17.1927 24.18 17.2436 24.18C17.2436 24.128 17.2436 24.128 17.2436 24.128C17.2944 24.128 17.2944 24.128 17.2944 24.128C17.3453 24.076 17.3453 24.128 17.3453 24.128L17.3962 24.076C17.447 24.076 17.447 24.076 17.5488 24.076V23.92H17.5996C17.5996 23.868 17.6505 23.92 17.6505 23.868C17.7014 23.816 17.7014 23.868 17.8031 23.868C17.8031 23.816 17.8031 23.816 17.8031 23.816H17.8539C17.9048 23.764 17.9048 23.764 17.9048 23.764C17.9557 23.764 17.9557 23.764 17.9557 23.764V23.712C18.0065 23.712 18.0065 23.712 18.0065 23.712C18.0574 23.712 18.0574 23.712 18.0574 23.712V23.66C18.1083 23.66 18.1083 23.66 18.21 23.66V23.712C18.21 23.66 18.21 23.66 18.21 23.66C18.2609 23.66 18.2609 23.66 18.2609 23.66H18.3117V23.608H18.3626C18.4134 23.556 18.4134 23.556 18.5152 23.556V23.4C18.5152 23.4 18.566 23.4 18.566 23.348C18.6169 23.348 18.7186 23.348 18.7695 23.296H18.8204C18.8204 23.244 18.8712 23.244 18.8712 23.244C18.8712 23.244 18.8712 23.244 18.9221 23.244C18.9221 23.192 18.9221 23.192 18.9221 23.192C18.9221 23.14 18.9221 23.14 18.9221 23.14C18.9729 23.088 18.9729 23.14 19.0747 23.088C19.0747 23.088 19.0747 23.088 19.1255 23.088V23.036H19.329L19.3799 22.984H19.4307C19.4816 22.984 19.4816 22.984 19.4816 22.984L19.5324 22.932V22.88H19.5833V22.828C19.6342 22.828 19.6342 22.828 19.6342 22.828H19.685C19.685 22.828 19.685 22.828 19.7359 22.828V22.776C19.7359 22.776 19.7359 22.776 19.7868 22.776L19.8376 22.516H19.8885C19.8885 22.516 19.8885 22.516 19.9394 22.516H19.8885C19.9394 22.464 19.9394 22.516 19.9394 22.464C19.9902 22.464 19.9902 22.464 20.0919 22.464V22.36H20.1428C20.1428 22.308 20.1428 22.308 20.1937 22.308C20.1937 22.308 20.1937 22.308 20.1428 22.308H20.1937V22.256C20.2445 22.256 20.2445 22.256 20.3463 22.256L20.2954 22.204C20.4989 22.048 20.1428 22.36 20.3463 22.204C20.3463 22.204 20.3463 22.204 20.3463 22.152H20.3971L20.448 22.1H20.4989V22.048C20.4989 22.048 20.4989 22.048 20.5497 22.048V21.996V21.84C20.6006 21.84 20.6006 21.84 20.6006 21.84V21.788C20.6514 21.788 20.6514 21.84 20.6514 21.788H20.7023V21.736C20.7023 21.736 20.7023 21.736 20.7532 21.736C20.7532 21.684 20.7532 21.684 20.804 21.684V21.632H20.8549H20.9058V21.58C20.9058 21.58 20.9058 21.58 20.9058 21.528C20.9058 21.528 20.9058 21.528 20.9566 21.476C20.9566 21.476 20.9566 21.476 21.0075 21.424C21.0075 21.424 21.0075 21.424 21.0584 21.424C21.0584 21.372 21.0584 21.372 21.0584 21.372C21.1092 21.32 21.0584 21.32 21.1092 21.32L21.1601 21.268L21.2109 21.216V21.164C21.2618 21.112 21.2618 21.164 21.2618 21.164V21.112C21.3127 21.112 21.3127 21.112 21.3127 21.112C21.3127 21.112 21.3127 21.06 21.3635 21.06V21.008L21.4144 20.956C21.4653 20.956 21.4653 20.904 21.4653 20.904V20.852H21.8722V20.8H21.923C21.923 20.8 21.923 20.8 21.923 20.748H21.9739V20.696H22.0248V20.28H22.0756V20.228C22.1265 20.228 22.1265 20.228 22.1265 20.228V20.176H22.1774V20.124H22.2282C22.2282 20.124 22.2282 20.124 22.2282 20.072C22.2282 20.072 22.2282 20.072 22.2791 20.02L22.33 19.968H22.3808C22.4317 19.968 22.4317 19.968 22.4317 19.968C22.4317 19.916 22.4317 19.916 22.4825 19.812C22.4825 19.812 22.4825 19.812 22.5334 19.812V19.76V19.708C22.5843 19.708 22.5843 19.708 22.5843 19.656H22.6351V19.604C22.6351 19.604 22.6351 19.604 22.686 19.552C22.686 19.552 22.686 19.552 22.7369 19.5L22.7877 19.448V19.24C22.8386 19.188 22.7877 19.188 22.8386 19.188C22.8386 19.136 22.8386 19.136 22.8386 19.136C22.8386 19.136 22.8386 19.136 22.8895 19.084C22.9403 19.032 22.9403 19.032 22.9403 19.032C22.9403 19.032 22.9912 19.032 22.9912 18.98V18.928V18.72V18.668H23.042V18.616H23.0929C23.0929 18.564 23.0929 18.564 23.0929 18.564C23.0929 18.512 23.0929 18.512 23.0929 18.512C23.0929 18.512 23.0929 18.512 23.1438 18.512C23.1438 18.46 23.1438 18.46 23.1438 18.46V18.408C23.1946 18.408 23.1438 18.408 23.1946 18.408V18.356C23.1946 18.356 23.1946 18.356 23.1946 18.304C23.1946 18.304 23.1946 18.304 23.2455 18.304V18.252V18.2C23.2455 18.148 23.2455 18.148 23.2455 18.148H23.2964C23.2964 18.096 23.2964 18.096 23.2964 18.096C23.2964 18.044 23.2964 18.044 23.2964 18.044C23.2964 17.992 23.2964 17.992 23.2964 17.992H23.3472C23.3472 17.94 23.3472 17.992 23.3472 17.94H23.3981V17.68V17.628V17.576C23.3981 17.576 23.3981 17.576 23.449 17.576H23.3981C23.449 17.576 23.449 17.576 23.449 17.576V17.524V17.472L23.4998 17.42C23.4998 17.42 23.4998 17.42 23.5507 17.42L23.4998 17.368H23.9067V17.316V17.264C23.9576 17.264 23.9067 17.264 23.9576 17.212V17.16H24.0085C24.0085 17.108 23.9576 17.108 24.0085 17.108V17.056V17.004C24.0085 17.004 24.0085 17.004 24.0085 16.952C24.0593 16.952 24.0593 16.952 24.0593 16.952V16.64L24.1102 16.588V16.536C24.1102 16.536 24.1102 16.536 24.1102 16.484C24.1102 16.484 24.1102 16.484 24.161 16.484C24.161 16.432 24.161 16.432 24.161 16.432V16.38V16.328C24.161 16.276 24.161 16.276 24.161 16.172C24.161 16.172 24.161 16.172 24.161 16.12H24.2119C24.2119 16.068 24.2119 16.068 24.161 16.068C24.2119 16.068 24.2119 16.068 24.2119 16.068V16.016V15.964C24.2119 15.964 24.2119 15.964 24.2628 15.912H24.2119C24.2628 15.912 24.2628 15.912 24.2628 15.912C24.2628 15.86 24.2628 15.86 24.2628 15.756C24.2628 15.756 24.2628 15.756 24.2628 15.704C24.2628 15.704 24.2628 15.704 24.2628 15.652H24.4154C24.4154 15.6 24.4154 15.6 24.4154 15.6C24.4154 15.548 24.4154 15.548 24.4154 15.444V15.392C24.4154 15.34 24.4154 15.34 24.4154 15.34C24.4154 15.288 24.4154 15.288 24.4154 15.288C24.4154 15.288 24.4154 15.288 24.4662 15.288C24.4662 15.236 24.4662 15.236 24.4662 15.132V15.08V15.028C24.4662 14.976 24.4662 14.976 24.4662 14.976C24.4662 14.924 24.4662 14.82 24.4662 14.768L24.5171 14.82C24.3645 14.82 24.5171 14.82 24.4662 14.82H24.5171C24.5171 14.768 24.5171 14.768 24.5171 14.768C24.5171 14.768 24.5171 14.768 24.4662 14.768V14.716V14.664V14.612C24.4662 14.56 24.5171 14.352 24.5171 14.404H24.4662V14.352C24.4662 14.352 24.4662 14.352 24.5171 14.352H24.4662C24.4662 14.3 24.5171 14.3 24.5171 14.3H24.4662C24.4662 14.3 24.4662 14.3 24.5171 14.3C24.5171 14.248 24.4662 14.248 24.4662 14.248H24.5171C24.5171 14.196 24.4662 14.196 24.4662 14.196C24.5171 14.196 24.5171 14.196 24.5171 14.196H24.4662V14.144V14.092V14.04C24.4662 14.04 24.4662 14.04 24.4662 13.988C24.5171 13.988 24.5171 13.988 24.5171 13.988C24.4662 13.988 24.5171 13.936 24.5171 13.936V13.52V13.468C24.568 13.416 24.5171 13.416 24.5171 13.312H24.4662C24.5171 13.312 24.4662 13.26 24.4662 13.26C24.5171 13.26 24.5171 13.26 24.5171 13.26V13.208C24.5171 13.156 24.4662 13.052 24.4662 13C24.4662 13 24.4662 13 24.5171 13C24.4662 12.948 24.4662 12.844 24.4662 12.844C24.4662 12.792 24.4662 12.792 24.4662 12.688C24.4662 12.636 24.4662 12.532 24.4154 12.48C24.4154 12.48 24.4154 12.48 24.4662 12.48C24.4662 12.428 24.4154 12.324 24.4154 12.272V12.22H24.4662C24.4662 12.168 24.4154 12.168 24.4154 12.064H24.4662L24.4154 12.012L24.4662 11.96C24.4662 11.96 24.4662 11.96 24.4154 11.908C24.4662 11.908 24.4662 11.908 24.4662 11.908C24.4662 11.856 24.4154 11.752 24.4154 11.648C24.4154 11.7 24.4154 11.648 24.4154 11.596C24.4154 11.544 24.4154 11.44 24.3645 11.388V11.336C24.3645 11.284 24.3645 11.284 24.3645 11.18C24.3136 11.18 24.3136 11.128 24.3136 11.128C24.3136 11.076 24.3136 11.076 24.3136 11.076V11.024H24.2628V10.972V10.92C24.2628 10.868 24.2628 10.868 24.2119 10.764V10.712C24.161 10.712 24.161 10.66 24.161 10.66C24.161 10.608 24.161 10.608 24.161 10.608C24.161 10.608 24.161 10.608 24.1102 10.608C24.1102 10.556 24.1102 10.452 24.1102 10.4V10.348C24.0593 10.348 24.0593 10.348 24.0593 10.348C24.0593 10.296 24.0593 10.296 24.0593 10.192C24.0085 10.192 24.0085 10.192 24.0085 10.14V10.192C24.0085 10.14 24.0085 10.14 24.0085 10.036H23.9576C23.9576 9.984 23.9576 9.984 23.9576 9.88H23.9067V9.828V9.776V9.724C23.8559 9.724 23.8559 9.672 23.8559 9.672C23.8559 9.62 23.8559 9.516 23.8559 9.464V9.412C23.805 9.36 23.805 9.36 23.805 9.36V9.308V9.256C23.805 9.204 23.805 9.204 23.805 9.204C23.7541 9.204 23.7541 9.152 23.7541 9.152C23.7033 9.1 23.7033 9.1 23.7033 8.996C23.6524 8.996 23.6524 8.996 23.6524 8.996V8.944C23.6015 8.944 23.6015 8.892 23.6015 8.892C23.6015 8.892 23.6015 8.892 23.6015 8.84H23.5507C23.5507 8.84 23.5507 8.84 23.5507 8.788C23.6015 8.788 23.5507 8.788 23.6015 8.84C23.6015 8.84 23.6524 8.788 23.6015 8.788C23.6015 8.788 23.6015 8.788 23.5507 8.788V8.736H23.4998C23.4998 8.736 23.4998 8.736 23.4998 8.684H23.449C23.449 8.632 23.449 8.632 23.449 8.632C23.449 8.58 23.449 8.58 23.449 8.58V8.528C23.449 8.528 23.449 8.528 23.449 8.476V8.424H23.3981V8.372C23.3981 8.424 23.3981 8.424 23.3981 8.424C23.3981 8.372 23.3981 8.372 23.3981 8.372C23.3472 8.32 23.3472 8.32 23.3472 8.32V8.268C23.2964 8.268 23.2964 8.268 23.2964 8.268C23.2964 8.216 23.2455 8.268 23.2455 8.216C23.2455 8.216 23.2455 8.164 23.1946 8.164C23.1946 8.112 23.1438 8.164 23.1438 8.164V8.112V8.06C23.0929 8.06 23.0929 8.06 23.0929 8.06V8.008C23.0929 8.008 23.0929 8.008 23.042 8.008C22.9912 8.008 22.9912 8.008 22.9912 8.008H22.9403H22.8895H22.3808V7.956C22.3808 7.956 22.3808 7.956 22.4317 7.956H22.3808C22.3808 7.904 22.3808 7.904 22.3808 7.8V7.28C22.3808 7.124 22.3808 7.02 22.3808 6.864H22.33V6.76C22.33 6.708 22.33 6.708 22.33 6.708C22.2791 6.708 22.2791 6.708 22.2791 6.708C22.2282 6.656 22.2791 6.656 22.2791 6.656H22.2282C22.2282 6.604 22.2282 6.604 22.2282 6.604V6.552C22.1774 6.552 22.1774 6.552 22.1774 6.552V6.5H22.1265L22.0756 6.448L22.0248 6.396H21.8722V6.24H21.8213H21.7705C21.7705 6.24 21.8213 6.24 21.7705 6.188H21.7196C21.6687 6.188 21.6687 6.188 21.6687 6.188L21.6179 6.136H21.6687C21.6179 6.136 21.6179 6.136 21.6179 6.136C21.6179 6.084 21.6179 6.084 21.6179 6.084H21.567H21.5161C21.5161 6.084 21.5161 6.084 21.4653 6.084C21.4653 6.084 21.4653 6.084 21.4144 6.084C21.4144 6.084 21.4144 6.084 21.3635 6.084H21.4144L21.3635 6.032H21.3127V5.98L21.2618 6.032C21.2618 5.98 21.2618 5.98 21.2618 5.98H21.2109C21.1601 5.98 21.1601 5.98 21.1601 5.98V5.928C21.1092 5.928 21.1092 5.928 21.1092 5.928H21.0584H21.0075H20.9566C20.9566 5.928 20.9566 5.928 20.9058 5.928C20.9058 5.928 20.9058 5.928 20.9058 5.876H20.8549V5.72H20.804C20.804 5.72 20.804 5.72 20.7532 5.72V5.668H20.3463H20.2954V5.616C20.2445 5.616 20.2445 5.616 20.2445 5.616C20.1937 5.616 20.1937 5.616 20.1937 5.616C20.1937 5.564 20.1937 5.564 20.1937 5.564H20.1428C20.1428 5.564 20.1428 5.564 20.1428 5.512H20.0919V5.46H20.0411C20.0411 5.46 20.0411 5.46 20.0411 5.512C20.0411 5.512 20.0411 5.46 19.9902 5.512C19.9902 5.46 19.9902 5.46 19.9902 5.46C19.9902 5.46 20.0411 5.46 19.9902 5.408V5.356H19.8376V5.148L19.7868 5.2V5.148H19.7359H19.685C19.685 5.096 19.6342 5.148 19.6342 5.148V5.096C19.6342 5.096 19.6342 5.096 19.6342 5.044H19.685C19.685 5.044 19.685 5.044 19.6342 5.044C19.6342 4.992 19.6342 4.992 19.6342 4.992V5.044C19.5833 5.096 19.685 4.992 19.5833 5.044C19.5833 5.044 19.6342 5.096 19.5833 5.096C19.5833 5.096 19.5833 5.096 19.5833 5.044C19.5833 5.096 19.5324 5.096 19.4307 5.096C19.4307 5.096 19.4307 5.096 19.3799 5.096C19.329 5.096 19.329 5.096 19.329 5.096C19.2781 5.096 19.2781 5.096 19.2781 5.096C19.2781 5.096 19.2781 5.096 19.2273 5.096C19.2273 5.148 19.2273 5.148 19.2273 5.148H19.1764V5.096L19.1255 5.044H19.0747C19.0747 5.044 19.0747 5.044 19.0238 5.044C18.9729 5.044 18.9729 5.044 18.9729 5.044C18.9221 5.044 18.9221 5.044 18.9221 5.044C18.9221 5.044 18.9221 5.044 18.9221 4.992H18.8712C18.8712 4.992 18.8712 4.992 18.8204 4.992C18.7695 4.992 18.7695 4.992 18.7695 4.992H18.7186C18.566 4.992 18.4134 4.992 18.2609 5.044C17.8539 5.096 17.4979 5.252 17.1419 5.304C16.9893 5.356 16.8875 5.46 16.6841 5.46C16.6841 5.46 16.6332 5.46 16.5315 5.512C16.5315 5.512 16.5315 5.512 16.4806 5.564C16.4298 5.564 16.4298 5.564 16.4298 5.564C16.4298 5.564 16.4298 5.564 16.4298 5.616C16.3789 5.616 16.3789 5.616 16.2772 5.616V5.72C16.2772 5.72 16.2772 5.72 16.2263 5.72V5.668C16.2263 5.668 16.2263 5.72 16.1754 5.72V5.668C16.1754 5.72 16.1246 5.72 16.1246 5.72C15.7685 5.72 15.7685 5.72 15.7685 5.72C15.7177 5.72 15.7177 5.72 15.6159 5.72C15.6159 5.772 15.5651 5.772 15.5651 5.772C15.5142 5.772 15.5142 5.772 15.5142 5.824H15.4633C15.4633 5.876 15.4125 5.876 15.4125 5.876H15.3616L15.4125 5.928C15.3616 5.928 15.3616 5.928 15.3616 5.928V5.98H15.2599V6.032C15.2599 6.032 15.2599 6.084 15.209 6.084C15.209 6.084 15.209 6.032 15.1582 6.084V6.24C15.1073 6.24 15.1073 6.24 15.1073 6.24H15.0564C15.0056 6.292 15.0056 6.292 15.0056 6.292V6.344V6.396C14.9547 6.396 14.9547 6.396 14.853 6.396C14.853 6.396 14.853 6.396 14.853 6.448C14.8021 6.448 14.8021 6.5 14.8021 6.5H14.7513V6.552H14.7004V6.604V6.76C14.6495 6.812 14.6495 6.76 14.6495 6.812C14.5987 6.812 14.6495 6.812 14.5987 6.812V6.864H14.5478C14.5478 6.864 14.5478 6.864 14.5478 6.916L14.4969 6.968C14.4969 6.968 14.4969 6.968 14.4461 6.968V7.02L14.3952 7.072V7.28V7.332L14.3443 7.384C14.3443 7.384 14.3443 7.384 14.3443 7.436C14.3443 7.488 14.3443 7.488 14.3443 7.488C14.3443 7.488 14.3443 7.54 14.3443 7.644L14.3952 7.592C14.3952 7.644 14.3952 7.644 14.3952 7.644C14.3952 7.644 14.3952 7.644 14.3443 7.644L14.3952 7.696C14.3952 7.696 14.3952 7.696 14.3443 7.696L14.3952 7.748H14.3443C14.3443 7.8 14.3952 7.904 14.3952 7.956C14.4461 8.112 14.4461 8.216 14.4461 8.372C14.3952 8.372 14.2935 8.424 14.2935 8.424C14.2426 8.424 14.2426 8.424 14.2426 8.424C14.1918 8.424 14.1918 8.424 14.1918 8.424C14.1918 8.424 14.1409 8.424 14.0392 8.424V8.476C14.0392 8.476 14.0392 8.476 13.9883 8.476V8.528C13.9883 8.58 13.9374 8.528 13.9374 8.58C13.9374 8.632 13.9374 8.632 13.9374 8.632C13.9374 8.632 13.8866 8.632 13.8866 8.684H13.8357V8.736C13.8357 8.788 13.8357 8.788 13.8357 8.788H13.7848V8.84V8.892V8.944H13.734V8.996V9.048C13.734 9.1 13.734 9.1 13.734 9.1V9.152V9.204V9.256H13.6831C13.6831 9.256 13.6831 9.256 13.6831 9.308V9.36C13.6831 9.412 13.6831 9.412 13.6831 9.412C13.6831 9.412 13.6831 9.412 13.6831 9.464V9.88C13.6831 9.932 13.6831 9.932 13.6831 9.932H13.734C13.734 9.932 13.734 9.984 13.734 10.088H13.7848V10.14C13.7848 10.192 13.7848 10.296 13.8357 10.296V10.348H13.8866C13.8866 10.4 13.8866 10.4 13.8866 10.4V10.452C13.8866 10.452 13.8866 10.452 13.9374 10.452C13.9374 10.504 13.9374 10.504 13.9374 10.504H13.9883V10.556C14.0392 10.556 14.0392 10.556 14.0392 10.556C14.0392 10.556 14.0392 10.556 14.0392 10.608H14.09C14.09 10.608 14.09 10.608 14.09 10.66H14.1409V10.712H14.1918H14.2426V10.764L14.2935 10.816V10.868C14.2935 10.868 14.3443 10.816 14.3443 10.868H14.3952C14.3952 10.92 14.3952 10.92 14.3952 10.92H14.4461C14.4461 10.972 14.4461 10.972 14.4461 10.972C14.4969 10.972 14.4969 10.972 14.4969 10.972V11.024C14.4969 11.024 14.4969 11.024 14.5478 11.024C14.5478 11.024 14.5478 11.024 14.5987 11.024V11.076H14.6495H14.7513V11.128C14.7513 11.128 14.7513 11.128 14.7513 11.076L14.8021 11.128C14.8021 11.128 14.8021 11.128 14.853 11.128C14.9038 11.128 14.9038 11.128 14.9038 11.128L14.9547 11.18C15.0056 11.18 15.0056 11.18 15.0056 11.18C15.0056 11.18 15.0056 11.232 15.0564 11.232C15.0564 11.232 15.0564 11.232 15.0564 11.284C15.1073 11.284 15.1073 11.336 15.1073 11.336V11.388C15.1582 11.388 15.1582 11.388 15.1582 11.388V11.44H15.209C15.209 11.492 15.209 11.492 15.209 11.492V11.544L15.4633 11.596C15.5142 11.596 15.5142 11.648 15.5142 11.648C15.5142 11.648 15.5142 11.648 15.5651 11.648V11.7H15.7685V11.752C15.7685 11.752 15.7685 11.752 15.8194 11.752C15.8703 11.804 15.8703 11.804 15.8703 11.908C15.9211 11.908 15.9211 11.908 15.9211 11.908C15.972 11.96 15.9211 11.96 15.972 11.96V12.012C16.0228 12.012 16.0228 12.012 16.0228 12.012C16.0228 12.012 16.0737 12.012 16.0737 12.064C16.0737 12.064 16.0737 12.064 16.1246 12.064V12.116H16.1754H16.2263C16.2263 12.168 16.2263 12.168 16.2263 12.168H16.2772H16.328H16.3789V12.22H16.4298V12.272H16.4806L16.5315 12.324H16.5823C18.21 13.156 18.2609 14.872 18.2609 14.872C18.2609 14.924 18.2609 14.924 18.2609 15.028C18.3117 15.028 18.3117 15.028 18.3117 15.028C18.3117 15.028 18.3117 15.028 18.3117 15.08C18.3117 15.08 18.3117 15.132 18.3626 15.132V15.288L18.4134 15.34C18.3626 15.34 18.4134 15.496 18.4134 15.496C18.4134 15.496 18.4134 15.496 18.4134 15.548V16.12C18.4134 16.172 18.4134 16.172 18.4134 16.172V16.224C18.4134 16.276 18.4134 16.276 18.4134 16.276C18.4134 16.328 18.4134 16.328 18.4134 16.328C18.4134 16.328 18.4134 16.328 18.4134 16.38C18.4134 16.38 18.4134 16.38 18.4134 16.432C18.4134 16.484 18.4134 16.484 18.4134 16.484V16.64C18.4134 16.64 18.4134 16.64 18.4134 16.692C18.4134 16.744 18.4643 16.744 18.4643 16.744C18.4643 16.744 18.4643 16.744 18.4134 16.744H18.8204L18.7695 16.796C18.7695 16.796 18.8204 16.796 18.8204 16.848H18.7695L18.8204 16.9H18.7695V16.952V17.004V17.056C18.7695 17.056 18.7695 17.056 18.7695 17.108C18.7695 17.108 18.7695 17.108 18.7186 17.108H18.7695L18.7186 17.16C18.7186 17.212 18.7186 17.212 18.7186 17.212V17.264V17.316C18.6678 17.368 18.7186 17.368 18.6678 17.472V17.524H18.6169L18.6678 17.576H18.6169V17.628C18.6169 17.628 18.6169 17.68 18.566 17.68C18.6169 17.68 18.6169 17.732 18.6169 17.732H18.566V17.784V17.836C18.566 17.888 18.566 17.888 18.566 17.888H18.5152V17.94V17.992L18.4643 18.044C18.4643 18.096 18.4643 18.096 18.4643 18.2H18.4134C18.4134 18.252 18.4134 18.252 18.4134 18.252V18.304H18.3626C18.3626 18.304 18.4134 18.356 18.4134 18.304C18.4134 18.356 18.4134 18.356 18.4134 18.356V18.408V18.46C18.3626 18.512 18.3626 18.512 18.2609 18.512C18.2609 18.564 18.2609 18.564 18.2609 18.564H18.21C18.21 18.564 18.21 18.564 18.1591 18.564C18.1591 18.616 18.1591 18.616 18.1591 18.616V18.668H18.1083L17.9048 19.24L17.8031 19.292C17.8031 19.344 17.8031 19.292 17.7522 19.344C17.7522 19.344 17.7522 19.344 17.7522 19.396H17.7014V19.448C17.6505 19.448 17.6505 19.448 17.6505 19.448C17.5996 19.5 17.5996 19.448 17.5996 19.5H17.5488C17.5488 19.552 17.5488 19.5 17.5488 19.552C17.4979 19.552 17.4979 19.552 17.4979 19.552V19.604H17.447C17.447 19.604 17.3962 19.604 17.3962 19.656C17.3962 19.656 17.3962 19.656 17.3453 19.656C17.3453 19.656 17.3453 19.656 17.3453 19.708H17.2944V19.76C17.2436 19.76 17.2436 19.76 17.2436 19.76H17.1927C17.1927 19.76 17.1927 19.76 17.1927 19.812H17.1419C17.1419 19.864 17.1419 19.864 17.091 19.864C17.091 19.916 17.0401 19.916 16.9384 19.916V19.968C16.8875 19.968 16.8875 19.968 16.7858 19.968C16.7858 20.02 16.7858 20.02 16.7349 20.02H16.6841C16.6841 20.072 16.6841 20.072 16.6841 20.072C16.7349 20.02 16.7349 20.02 16.8367 20.02C16.8367 20.02 16.8875 20.02 16.8875 19.968C16.8875 19.968 16.8875 19.968 16.9384 19.968V19.916C16.9893 19.916 16.9893 19.916 16.9893 19.916C17.0401 19.916 16.9893 19.916 17.0401 19.916C17.0401 19.916 17.0401 19.916 17.091 19.864V19.916H17.0401V19.968H16.9893V20.02H16.7858H16.7349V20.28H16.7858C16.7858 20.28 16.7858 20.28 16.7858 20.228H16.8367C16.8367 20.228 16.8367 20.228 16.8367 20.176H16.8875C16.8875 20.176 16.8875 20.176 16.9384 20.176C16.9384 20.228 16.9384 20.176 16.9384 20.228C16.9384 20.28 16.9384 20.28 16.9384 20.28H16.8875C16.8367 20.332 16.8367 20.332 16.8367 20.332C16.7858 20.332 16.7858 20.332 16.7858 20.384H16.7349C16.7349 20.436 16.7349 20.436 16.6841 20.436V20.488C16.6332 20.488 16.6332 20.488 16.6332 20.488C16.5824 20.488 16.5823 20.488 16.5823 20.488C16.5823 20.54 16.5823 20.54 16.5823 20.54H16.5315C16.4806 20.592 16.4806 20.592 16.4806 20.592C16.4806 20.592 16.4806 20.592 16.4298 20.592C16.4298 20.644 16.4298 20.644 16.4298 20.644H16.3789L16.328 20.696C16.2772 20.696 16.2772 20.696 16.2772 20.696C16.2772 20.696 16.2772 20.696 16.2772 20.748H16.2263C16.2263 20.748 16.2263 20.748 16.1754 20.748C16.1754 20.8 16.1754 20.748 16.1246 20.8C16.0737 20.852 16.0737 20.852 15.972 20.852C15.9211 20.852 15.9211 20.852 15.8194 20.904C15.8194 20.904 15.8194 20.904 15.7685 20.904C15.7685 20.956 15.7177 20.956 15.6159 20.956H15.5651C15.5651 21.008 15.5651 21.008 15.5651 21.008C15.5651 21.008 15.5142 21.008 15.4125 21.008C15.4125 21.008 15.4125 21.06 15.3616 21.06H15.2599C15.209 21.06 15.1073 21.06 15.1073 21.06C15.1073 21.06 15.1073 21.06 15.1073 21.112C15.0564 21.112 15.0564 21.112 15.0564 21.112C15.0056 21.112 15.0056 21.112 15.0056 21.112C15.0056 21.112 15.0056 21.112 15.0056 21.164C14.9547 21.164 15.0056 21.112 14.9547 21.112C14.9547 21.164 14.9547 21.164 14.9547 21.164C14.9038 21.164 14.9038 21.164 14.8021 21.216C14.7513 21.216 14.6495 21.216 14.5987 21.268C14.5987 21.268 14.5987 21.268 14.5478 21.268C14.5478 21.268 14.5478 21.268 14.4969 21.268C14.4969 21.268 14.4969 21.268 14.4461 21.268C14.2935 21.32 14.1918 21.32 14.1409 21.424C13.9883 21.476 13.8357 21.58 13.6831 21.632C13.6831 21.58 13.6831 21.58 13.6831 21.58C13.5305 21.632 13.5305 21.632 13.4797 21.632C13.4288 21.632 13.4288 21.632 13.4288 21.632C13.3779 21.632 13.3779 21.632 13.3779 21.632C13.3271 21.632 13.3271 21.632 13.2253 21.632C13.2253 21.632 13.2253 21.632 13.1745 21.684C13.1745 21.632 13.1745 21.632 13.1745 21.632C13.1745 21.632 13.1745 21.684 13.1236 21.684C13.1236 21.684 13.1236 21.684 13.0728 21.684C13.0219 21.684 13.0219 21.684 12.9202 21.736C12.9202 21.736 12.9202 21.736 12.8693 21.736C12.8693 21.736 12.8693 21.736 12.8693 21.684C12.8184 21.684 12.8184 21.736 12.7167 21.736C12.7167 21.736 12.7167 21.736 12.6658 21.736C12.6658 21.736 12.6658 21.736 12.615 21.736C12.615 21.736 12.615 21.736 12.5641 21.736C12.5133 21.736 12.5641 21.736 12.5133 21.736C12.5133 21.736 12.5133 21.736 12.4624 21.736C12.4115 21.736 12.4115 21.736 12.4115 21.736H12.3607C12.3607 21.736 12.3607 21.736 12.3098 21.736H12.2589H12.2081C12.2081 21.736 12.1572 21.736 12.0555 21.736H12.0046H11.6994C11.6486 21.736 11.6486 21.736 11.6486 21.736H11.5977C11.5468 21.736 11.5468 21.736 11.5468 21.736C11.496 21.736 11.496 21.736 11.496 21.736C11.4451 21.736 11.3434 21.736 11.3434 21.736V21.788L11.3943 21.736C11.3943 21.788 11.3943 21.788 11.3943 21.788H11.4451C11.496 21.788 11.4451 21.736 11.496 21.736V21.788H11.5468C11.5977 21.788 11.5977 21.736 11.6994 21.736L11.7503 21.788C11.7503 21.788 11.7503 21.736 11.8012 21.736C11.8012 21.788 11.8012 21.788 11.8012 21.788V21.736C11.8012 21.788 11.8012 21.788 11.8012 21.788C11.8012 21.788 11.852 21.788 11.852 21.736V21.788H11.8012C11.7503 21.788 11.7503 21.788 11.6486 21.788H11.5977H11.5468C11.5468 21.788 11.5468 21.84 11.496 21.84C11.496 21.788 11.496 21.788 11.496 21.788C11.4451 21.788 11.4451 21.84 11.3434 21.84H11.2925H11.2417H11.1908C11.1399 21.84 11.1399 21.84 11.0382 21.84C10.9873 21.84 11.0382 21.84 10.9873 21.84C10.9873 21.84 10.9873 21.84 10.9365 21.84H10.8856C10.8856 21.84 10.8856 21.84 10.8347 21.84H10.7839H10.6822L10.6313 21.892C10.6313 21.892 10.6313 21.892 10.6313 21.84L10.5804 21.892V21.84C10.5804 21.84 10.5804 21.84 10.5296 21.84C10.5296 21.84 10.5296 21.892 10.4787 21.892C10.4787 21.84 10.4787 21.84 10.4787 21.84V21.892C10.4787 21.84 10.4787 21.84 10.4787 21.84C10.4278 21.84 10.4278 21.892 10.4278 21.892L10.377 21.84C10.377 21.84 10.377 21.892 10.3261 21.892C10.3261 21.892 10.3261 21.892 10.3261 21.84C10.2752 21.84 10.2752 21.892 10.2752 21.892H10.2244V21.84H10.1735C10.1227 21.84 10.1227 21.84 10.1227 21.84H10.0718H10.0209C10.0209 21.84 9.97007 21.84 9.97007 21.892C9.97007 21.84 9.97007 21.84 9.97007 21.84C9.9192 21.84 9.9192 21.84 9.81747 21.892C9.81747 21.892 9.81748 21.892 9.76661 21.892H9.71575L9.76661 21.84V21.892C9.81748 21.892 9.81747 21.84 9.81747 21.84C9.76661 21.84 9.81748 21.84 9.76661 21.84H9.71575H9.66488C9.66488 21.84 9.66488 21.84 9.61402 21.84C9.61402 21.84 9.61402 21.84 9.56316 21.84H9.51229C9.46143 21.84 9.51229 21.892 9.56316 21.892C9.51229 21.892 9.51229 21.892 9.51229 21.944H9.56316H9.61402H9.66488C9.66488 21.944 9.66488 21.944 9.66488 21.892H9.71575C9.56316 21.944 9.86834 21.84 9.71575 21.892V21.944C9.71575 21.944 9.76661 21.892 9.71575 21.892H9.76661V21.944C9.76661 21.944 9.76661 21.996 9.71575 21.996V21.944C9.71575 21.944 9.71575 21.996 9.66488 21.944L9.3597 22.36C9.3597 22.308 9.3597 22.308 9.3597 22.308C9.30884 22.308 9.30884 22.308 9.30884 22.308H9.25797C9.25797 22.308 9.25797 22.36 9.20711 22.36V22.308C9.20711 22.308 9.15625 22.308 9.05452 22.308C9.05452 22.308 9.05452 22.308 9.00366 22.308H8.95279V22.36C9.00366 22.36 9.00366 22.308 9.10538 22.308V22.36C9.15625 22.36 9.15625 22.308 9.15625 22.36C9.10538 22.36 9.10538 22.36 9.10538 22.36C9.15625 22.36 9.15625 22.36 9.15625 22.36C9.15625 22.412 9.20711 22.36 9.20711 22.36H9.25797C9.25797 22.36 9.25797 22.36 9.25797 22.412L9.30884 22.36C9.3597 22.36 9.3597 22.36 9.3597 22.36C9.3597 22.36 9.3597 22.36 9.41057 22.36C9.41057 22.36 9.41057 22.36 9.46143 22.412H9.51229H9.56316H9.61402C9.66488 22.412 9.61402 22.464 9.66488 22.412V22.464L9.71575 22.412L9.76661 22.464V22.412C9.81748 22.412 9.81747 22.464 9.81747 22.464L9.86834 22.412L9.9192 22.464C9.9192 22.464 9.9192 22.412 9.97007 22.412V22.464C10.0209 22.464 9.97007 22.412 10.0209 22.412H10.0718V22.464C10.1227 22.464 10.1227 22.412 10.2244 22.412V22.464C10.2244 22.464 10.2244 22.412 10.2752 22.412C10.2752 22.464 10.2752 22.464 10.2752 22.464V22.412C10.2752 22.464 10.2752 22.464 10.2752 22.464L10.3261 22.412V22.464C10.377 22.464 10.377 22.412 10.377 22.412V22.464H10.4278C10.4787 22.412 10.4278 22.464 10.4787 22.464C10.5296 22.464 10.5296 22.412 10.5296 22.412V22.464H10.5804C10.5804 22.464 10.5804 22.412 10.6313 22.412V22.464H10.6822C10.6822 22.464 10.6822 22.464 10.733 22.464H11.1908H11.2417C11.2417 22.464 11.2925 22.464 11.3943 22.464H11.4451H11.496C11.496 22.464 11.5468 22.464 11.6486 22.464H11.6994C11.7503 22.464 11.6994 22.464 11.7503 22.464H11.8012C11.8012 22.464 11.8012 22.464 11.852 22.464V22.516C11.8012 22.516 11.8012 22.516 11.6994 22.516C11.6486 22.516 11.6994 22.516 11.6486 22.516C11.5977 22.516 11.6486 22.516 11.5977 22.516C11.5977 22.516 11.5977 22.516 11.5468 22.516C11.5468 22.516 11.496 22.516 11.3943 22.516C11.3434 22.516 11.2417 22.516 11.2417 22.516H11.1908C11.1399 22.516 11.1399 22.516 11.0382 22.516C10.9873 22.568 11.0382 22.568 11.0382 22.568H11.1908V22.62C11.1908 22.62 11.1908 22.672 11.2417 22.672H11.2925H11.3434C11.3942 22.672 11.3943 22.672 11.3943 22.672H11.4451C11.4451 22.672 11.4451 22.672 11.496 22.672C11.496 22.672 11.496 22.672 11.5468 22.672C11.5468 22.672 11.5468 22.672 11.5468 22.724C8.34243 22.724 9.9192 22.724 11.496 22.724C13.0219 22.672 14.5987 22.672 11.5468 22.672C11.496 22.672 11.496 22.724 11.496 22.724V22.672L11.4451 22.724V22.672C11.4451 22.672 11.4451 22.724 11.3943 22.724C11.3943 22.724 11.3943 22.724 11.3943 22.672V22.724H11.3434C11.3434 22.724 11.3434 22.724 11.3434 22.672C11.2925 22.672 11.2925 22.724 11.2925 22.724C11.2925 22.724 11.2925 22.724 11.2925 22.672C11.2417 22.672 11.2417 22.724 11.1399 22.724C11.1399 22.724 11.1399 22.724 11.1399 22.672C11.0891 22.672 11.0891 22.724 10.9873 22.724V22.672L10.9365 22.724C10.9365 22.724 10.9365 22.724 10.9365 22.672C10.8856 22.672 10.8856 22.724 10.8856 22.724C10.8856 22.724 10.8856 22.724 10.8856 22.672V22.724C10.8347 22.724 10.8347 22.672 10.8347 22.672C10.7839 22.672 10.7839 22.724 10.7839 22.724C10.7839 22.724 10.7839 22.724 10.7839 22.672L10.733 22.724V22.672L10.6822 22.828C10.6822 22.828 10.6822 22.828 10.6822 22.776C10.6313 22.776 10.6313 22.828 10.6313 22.828V22.776C10.5804 22.776 10.5804 22.828 10.5804 22.828V22.776C10.5296 22.776 10.5296 22.828 10.4278 22.828L10.377 22.776V22.828C10.377 22.776 10.377 22.776 10.377 22.776L10.3261 22.828V22.776L10.2752 22.828C10.2752 22.828 10.2752 22.828 10.2752 22.776C10.2244 22.776 10.2244 22.828 10.2244 22.828C10.1735 22.828 10.1735 22.828 10.1735 22.828C10.1735 22.828 10.1735 22.828 10.1735 22.776L10.1227 22.828V22.776C10.1227 22.776 10.1227 22.828 10.0718 22.828V22.776C10.0209 22.776 10.0209 22.776 10.0209 22.776L9.97007 22.828V22.776L9.9192 22.828C9.9192 22.776 9.9192 22.776 9.9192 22.776C9.9192 22.776 9.9192 22.828 9.86834 22.828V22.776C9.86834 22.776 9.86834 22.828 9.81747 22.828V22.776H9.76661C9.71575 22.776 9.71575 22.776 9.71575 22.776C9.66488 22.776 9.66488 22.776 9.66488 22.776C9.61402 22.776 9.61402 22.776 9.61402 22.776C9.61402 22.776 9.61402 22.776 9.56316 22.776C9.51229 22.776 9.51229 22.776 9.51229 22.776H9.15625H9.10538C9.05452 22.776 9.05452 22.776 9.05452 22.776H9.00366C9.00366 22.776 9.00366 22.776 8.95279 22.776C8.95279 22.776 8.95279 22.776 8.95279 22.724V22.776C9.00366 22.776 9.00366 22.776 9.00366 22.776H9.05452C9.05452 22.776 9.05452 22.828 9.10538 22.828V22.776L9.15625 22.828V22.88L9.10538 22.828L9.05452 22.88C9.00365 22.88 9.00366 22.88 8.90193 22.88H8.85106C8.85106 22.88 8.85106 22.932 8.8002 22.932V22.88C8.8002 22.88 8.8002 22.88 8.74934 22.88C8.74934 22.88 8.74934 22.88 8.69847 22.88H8.64761H8.59675H8.54588C8.54588 22.88 8.54588 22.88 8.49502 22.88V22.828H8.44415H8.39329C8.39329 22.828 8.39329 22.828 8.34243 22.828C8.34243 22.828 8.34243 22.828 8.29156 22.828C8.2407 22.828 8.2407 22.828 8.2407 22.828C8.2407 22.828 8.2407 22.828 8.18984 22.828C8.18984 22.828 8.18984 22.828 8.13897 22.828C8.13897 22.828 8.13897 22.828 8.18984 22.776H8.13897H8.08811C8.08811 22.724 8.08811 22.776 8.03724 22.776C8.03724 22.724 8.03724 22.776 8.03724 22.724H7.98638V22.776C7.98638 22.776 7.98638 22.776 7.93552 22.776H7.88465H7.83379C7.78293 22.776 7.78293 22.776 7.78293 22.776H7.73206V22.724L7.6812 22.672C7.63034 22.672 7.63033 22.672 7.63033 22.672C7.57947 22.672 7.63033 22.672 7.57947 22.672H7.1217C7.1217 22.724 7.1217 22.672 7.07083 22.724V22.672H7.01997V22.62L6.96911 22.672L6.91824 22.62H6.86738H6.81651V22.568C6.76565 22.62 6.76565 22.568 6.76565 22.62V22.568H6.61306H6.5622V22.516H6.51133C6.51133 22.516 6.51133 22.516 6.46047 22.516V22.36H6.40961H6.35874C6.35874 22.36 6.30788 22.36 6.30788 22.308V22.36C6.30788 22.36 6.30788 22.36 6.25701 22.36C6.20615 22.36 6.25701 22.308 6.25701 22.308L6.10442 22.36V22.308H6.05356V22.256H6.0027C5.95183 22.256 6.0027 22.308 5.95183 22.308V22.256C5.95183 22.256 5.95183 22.256 5.90097 22.256H5.8501H5.79924V22.204H5.8501C5.79924 22.204 5.8501 22.152 5.79924 22.152C5.74838 22.152 5.79924 22.204 5.79924 22.204C5.74838 22.204 5.74838 22.204 5.74838 22.204C5.74838 22.152 5.74838 22.204 5.69751 22.204C5.69751 22.152 5.69751 22.152 5.69751 22.152H5.64665C5.64665 22.152 5.64665 22.152 5.64665 22.1L5.59579 22.152V22.1H5.54492C5.54492 22.152 5.54492 22.152 5.54492 22.152H5.59579V22.204C5.64665 22.204 5.64665 22.204 5.64665 22.204H5.69751L5.74838 22.256C5.79924 22.256 5.79924 22.308 5.79924 22.308H5.8501C5.8501 22.308 5.8501 22.308 5.90097 22.308C5.95183 22.36 5.90097 22.308 5.95183 22.308C5.95183 22.36 5.95183 22.36 5.95183 22.36H6.0027L6.05356 22.412H6.10442C6.10442 22.36 6.10442 22.36 6.10442 22.36L6.15529 22.412C6.15529 22.412 6.15529 22.412 6.15529 22.464H6.20615H6.25701H6.30788V22.516H6.35874C6.35874 22.516 6.35874 22.516 6.40961 22.516C6.40961 22.568 6.40961 22.516 6.46047 22.516V22.568C6.25701 22.516 6.66392 22.568 6.46047 22.568C6.51133 22.516 6.46047 22.568 6.51133 22.568C6.66392 22.568 6.46047 22.568 6.5622 22.568C6.5622 22.568 6.5622 22.568 6.61306 22.568H6.66392V22.62H6.71479V22.672H6.76565H6.81651H6.86738H7.1217V22.724H7.17256C7.22343 22.724 7.17256 22.724 7.22342 22.724H7.27429H7.32515H7.37602C7.37602 22.724 7.37602 22.724 7.42688 22.724L7.47774 22.776C7.47774 22.776 7.47774 22.724 7.52861 22.724V22.776L7.57947 22.724V22.776H7.63033H7.6812C7.6812 22.828 7.73206 22.776 7.73206 22.776C7.73206 22.776 7.73206 22.776 7.73206 22.828C7.78293 22.828 7.78293 22.828 7.78293 22.828H7.83379C7.83379 22.828 7.83379 22.828 7.88465 22.828H7.93552H7.98638V22.88C8.03724 22.88 8.03724 22.88 8.03724 22.88H8.08811H8.13897C8.18984 22.88 8.18984 22.88 8.18984 22.88C8.2407 22.88 8.18984 22.932 8.2407 22.932H8.64761H8.69847H8.74934H8.8002C8.8002 22.932 8.8002 22.932 8.8002 22.984L8.85106 22.932C8.85106 22.984 8.85106 22.984 8.85106 22.984V22.932L8.90193 22.984C8.95279 22.984 8.95279 22.984 8.95279 22.984H9.00366H9.15625C9.20711 22.984 9.20711 23.036 9.20711 23.036C9.20711 23.036 9.20711 23.036 9.25797 23.036C9.25797 23.036 9.25797 23.036 9.30884 23.036C9.30884 23.036 9.30884 23.036 9.3597 22.984C9.3597 23.036 9.3597 23.036 9.3597 23.036H9.41057H9.46143C9.46143 23.036 9.46143 23.036 9.51229 23.036H9.56316C9.61402 23.036 9.61402 23.036 9.61402 23.036H9.66488C9.66488 23.036 9.66488 23.036 9.71575 23.036C9.76661 23.036 9.71575 23.036 9.76661 23.088L9.81747 22.932C9.81747 22.984 9.76661 22.984 9.76661 22.984H9.71575H9.66488C9.66488 22.984 9.61402 22.984 9.71575 22.984C9.66488 22.984 9.66488 22.984 9.66488 22.984C9.61402 22.984 9.61402 22.984 9.61402 22.984V22.932C9.56316 22.932 9.56316 22.984 9.56316 22.984C9.56316 22.984 9.56316 22.984 9.56316 22.932H9.51229H9.46143C9.41057 22.932 9.46143 22.932 9.41057 22.932C9.41057 22.932 9.41056 22.932 9.3597 22.932H9.30884H9.25797C9.20711 22.932 9.20711 22.932 9.20711 22.932V22.88L9.15625 23.192L9.10538 23.348V23.14C9.10538 23.14 9.05452 23.348 9.05452 23.296C9.00365 23.348 9.05452 23.14 9.05452 23.14C9.05452 23.14 8.90193 23.348 8.90193 23.296C8.85106 23.296 8.85106 23.348 8.85106 23.296C8.85106 23.296 8.85106 23.296 8.8002 23.296H8.74934C8.74934 23.296 8.74934 23.296 8.69847 23.296V23.244L8.64761 23.296V23.244H8.59675H8.54588H8.49502H8.44415V23.192L8.39329 23.244H8.44415H8.49502V23.296L8.54588 23.244V23.296H8.59675H8.64761L8.8002 23.14C8.8002 23.14 8.74934 23.348 8.8002 23.348C8.8002 23.296 8.74934 23.296 8.8002 23.296C8.8002 23.348 8.95279 23.14 8.95279 23.14L8.90193 23.192C8.90193 23.192 8.90193 23.192 8.90193 23.14C8.85106 23.14 8.85106 23.192 8.85106 23.14C8.85106 23.14 8.85106 23.14 8.8002 23.14H8.74934H8.69847C8.69847 23.14 8.69847 23.14 8.64761 23.14C8.64761 23.088 8.59675 23.348 8.59675 23.348C8.59675 23.348 8.59675 23.348 8.59675 23.296C8.54588 23.296 8.54588 23.348 8.54588 23.348C8.54588 23.296 8.54588 23.296 8.54588 23.296C8.49502 23.296 8.49502 23.348 8.49502 23.348L8.44415 23.296H8.13897H8.08811L8.03724 23.244H7.98638H7.93552H7.88465H7.83379H7.78293V23.192C7.78293 23.192 7.78293 23.244 7.73206 23.192H7.6812H7.63033L7.57947 23.14C7.57947 23.14 7.57947 23.192 7.52861 23.192V23.14H7.47774C7.47774 23.14 7.47774 23.14 7.42688 23.14C7.42688 23.14 7.42688 23.088 7.37602 23.088L7.32515 23.036V23.088C7.32515 23.088 7.32515 23.036 7.27429 23.036H7.22342C7.17256 23.036 7.22343 23.036 7.17256 23.036L7.1217 22.984H7.17256H7.22342V23.036C7.27429 23.036 7.27429 22.984 7.27429 22.984V23.036L7.32515 22.984V23.036C7.37602 23.036 7.37602 23.036 7.37602 23.036H7.42688V23.088C7.47774 23.088 7.47774 23.036 7.47774 23.036C7.47774 23.036 7.47774 23.036 7.47774 23.088H7.52861H7.57947C7.57947 23.088 7.57947 23.088 7.63033 23.088L7.6812 23.14V23.088L7.73206 23.14H7.78293C7.78293 23.14 7.78293 23.14 7.83379 23.14C7.83379 23.192 7.83379 23.192 7.83379 23.192L7.88465 23.14V23.192C7.88465 23.192 7.88465 23.192 7.93552 23.192C7.93552 23.192 7.93552 23.192 7.98638 23.192H8.03724C8.08811 23.192 8.08811 23.192 8.08811 23.192L8.13897 23.244C8.18984 23.244 8.13897 23.244 8.18984 23.192H8.13897H8.08811H8.03724C7.98638 23.192 7.98638 23.192 7.98638 23.192C7.98638 23.14 7.98638 23.14 7.98638 23.14H7.93552H7.88465H7.83379H7.78293V23.088L7.73206 23.14V23.088C7.6812 23.088 7.6812 23.088 7.6812 23.088C7.63034 23.088 7.6812 23.088 7.63033 23.088L7.57947 23.036V23.088L7.52861 23.036C7.47774 23.036 7.47774 23.036 7.47774 23.036H7.42688C7.42688 23.036 7.42688 23.036 7.37602 23.036C7.37602 22.984 7.37602 22.984 7.37602 22.984H7.32515H7.27429H7.22342H7.17256H7.1217C7.1217 22.932 7.1217 22.932 7.1217 22.932H7.07083C7.01997 22.932 7.01997 22.932 7.01997 22.932C7.01997 22.88 7.01997 22.88 7.01997 22.88H6.61306V22.932L6.5622 22.88H6.51133C6.46047 22.828 6.46047 22.828 6.46047 22.828C6.40961 22.828 6.40961 22.828 6.40961 22.828C6.40961 22.88 6.40961 22.88 6.40961 22.88C6.46047 22.88 6.46047 22.88 6.46047 22.88V22.932C6.46047 22.88 6.51133 22.88 6.51133 22.88V22.932C6.46047 22.88 6.5622 22.932 6.51133 22.932H6.5622H6.61306V22.984H6.66392H6.71479H6.76565V23.036C6.81652 23.036 6.76565 23.036 6.81651 23.036V23.088C6.86738 23.088 6.81652 23.088 6.86738 23.088V23.14H6.81651V23.088H6.76565C6.71479 23.088 6.71479 23.088 6.71479 23.088H6.66392V23.036C6.66392 23.036 6.61306 23.088 6.61306 23.036V23.088H6.66392H6.71479C6.76565 23.088 6.76565 23.088 6.76565 23.088V23.14C6.81652 23.14 6.81651 23.14 6.81651 23.14C6.81651 23.14 6.81652 23.192 6.86738 23.192C6.86738 23.192 6.86738 23.192 6.91824 23.14C6.91824 23.192 6.91824 23.192 6.91824 23.192C6.96911 23.192 6.96911 23.192 6.96911 23.192C7.01997 23.192 7.01997 23.192 7.01997 23.192H7.07083L7.1217 23.244C7.1217 23.244 7.1217 23.244 7.17256 23.244H7.22342C7.27429 23.244 7.27429 23.244 7.27429 23.244C7.32515 23.296 7.32515 23.296 7.32515 23.296H7.37602C7.37602 23.296 7.37602 23.296 7.42688 23.296H7.47774V23.348L7.52861 23.296L7.57947 23.088H7.63033C7.6812 23.088 7.6812 23.088 7.6812 23.088H7.73206V23.14H8.13897H8.18984C8.18984 23.192 8.18984 23.192 8.18984 23.192L8.2407 23.14H8.29156C8.29156 23.14 8.29156 23.14 8.34243 23.14L8.29156 23.192C8.29156 23.192 8.2407 23.192 8.29156 23.14L8.2407 23.192H8.29156H8.34243H8.39329H8.44415C8.49502 23.192 8.49502 23.192 8.49502 23.192C8.49502 23.192 8.49502 23.244 8.54588 23.244C8.54588 23.244 8.54588 23.192 8.59675 23.192V23.244H8.64761C8.69847 23.244 8.69847 23.244 8.69847 23.244V23.296H8.74934C8.74934 23.296 8.74934 23.296 8.8002 23.296H8.85106C8.90193 23.296 8.90193 23.296 8.90193 23.296H9.15625V23.4L9.20711 23.348C9.20711 23.4 9.20711 23.4 9.20711 23.4H9.25797C9.30884 23.4 9.30884 23.4 9.41057 23.4H9.46143H9.51229V23.452C9.56316 23.452 9.56316 23.4 9.56316 23.4H9.61402C9.61402 23.4 9.61402 23.4 9.61402 23.452C9.61402 23.452 9.61402 23.4 9.66488 23.4V23.452H9.71575H9.76661C9.76661 23.452 9.76661 23.452 9.81747 23.452V23.504L9.86834 23.452C9.86834 23.452 9.86834 23.452 9.86834 23.504L9.9192 23.452V23.504L9.97007 23.452V23.504H10.0209H10.0718C10.1227 23.504 10.1227 23.504 10.2244 23.504C10.2244 23.504 10.2244 23.504 10.2752 23.504H10.3261H10.377L10.4278 23.556V23.504C10.4278 23.556 10.4278 23.556 10.4278 23.556C10.4787 23.556 10.4787 23.556 10.4787 23.556H10.5296H10.5804C10.5804 23.556 10.5804 23.556 10.6313 23.556H10.6822V23.608C10.733 23.608 10.733 23.608 10.733 23.608C10.7839 23.608 10.7839 23.608 10.7839 23.608C10.7839 23.608 10.7839 23.608 10.8347 23.608C10.8347 23.608 10.8347 23.608 10.8856 23.608V23.66L10.9365 23.608V23.66L10.9873 23.608C10.9873 23.66 10.9873 23.66 10.9873 23.66H11.0382C11.0382 23.66 11.0891 23.66 11.0891 23.608L11.1399 23.66H11.1908C11.1908 23.66 11.1908 23.608 11.2417 23.608C11.2417 23.608 11.1908 23.66 11.2417 23.66C11.3943 23.816 11.2417 23.66 11.2925 23.66C11.3434 23.66 11.2925 23.66 11.3434 23.66C11.3434 23.66 11.3434 23.66 11.2925 23.66H11.3434C11.3434 23.66 11.3434 23.66 11.3943 23.66C11.3943 23.66 11.3943 23.66 11.4451 23.66C11.496 23.66 11.496 23.66 11.496 23.66C11.5468 23.66 11.5468 23.66 11.5468 23.66C11.5977 23.66 11.5977 23.66 11.5977 23.66C11.5977 23.66 11.5977 23.66 11.6486 23.66H11.6994C11.6994 23.66 11.6994 23.66 11.6994 23.712C11.6994 23.712 11.6994 23.66 11.7503 23.66C11.7503 23.712 11.7503 23.712 11.7503 23.712C11.7503 23.712 11.7503 23.66 11.8012 23.66V23.712C11.8012 23.712 11.8012 23.712 11.852 23.712C11.8012 23.712 11.8012 23.712 11.6994 23.712C11.6994 23.712 11.6994 23.712 11.6486 23.712C11.5977 23.712 11.5977 23.712 11.496 23.712C11.496 23.712 11.496 23.712 11.4451 23.712H11.3943C11.3434 23.712 11.3434 23.712 11.3434 23.712H11.2925H11.2417C11.1908 23.712 11.1908 23.712 11.1908 23.712H11.6994C11.6994 23.712 11.6486 23.712 11.5468 23.712H11.496C11.4451 23.712 11.4451 23.712 11.3434 23.712H11.2925C11.2417 23.712 11.2417 23.764 11.2417 23.764V23.712C11.1908 23.712 11.1908 23.764 11.1908 23.764V23.712L11.1399 23.764C11.1399 23.712 11.1399 23.712 11.1399 23.712C11.1399 23.712 11.1399 23.712 11.0891 23.712C11.0891 23.712 11.0891 23.712 11.0382 23.712H10.9873C10.9365 23.712 10.9365 23.712 10.9365 23.712C10.9365 23.712 10.9365 23.712 10.8856 23.712H10.8347C10.8347 23.712 10.8347 23.712 10.7839 23.712C10.7839 23.712 10.7839 23.712 10.7839 23.66L10.733 23.712V23.66C10.733 23.66 10.6822 23.712 10.6822 23.66C10.6313 23.66 10.6313 23.66 10.6313 23.66C10.5804 23.66 10.5804 23.66 10.5804 23.66H10.5296H10.4787H10.4278H10.1735V23.608L10.1227 23.66V23.608H10.0718C10.0718 23.608 10.0718 23.608 10.0209 23.608C10.0209 23.608 10.0209 23.608 9.97007 23.608H9.9192C9.9192 23.608 9.9192 23.608 9.9192 23.556V23.608L9.86834 23.556H9.81747H9.76661H9.71575H9.66488C9.66488 23.556 9.66488 23.556 9.66488 23.504V23.556C9.66488 23.504 9.66488 23.504 9.66488 23.504H9.61402C9.61402 23.504 9.61402 23.504 9.56316 23.504H9.51229H9.46143V23.452H9.15625C9.20711 23.452 9.20711 23.452 9.15625 23.452H9.10538C9.10538 23.452 9.10538 23.452 9.05452 23.452C9.00365 23.4 9.00366 23.452 9.00366 23.452V23.4H8.95279H8.90193V23.348C8.85106 23.348 8.85106 23.348 8.85106 23.348H8.8002L8.64761 23.244V23.296L8.59675 23.244H8.54588V23.192L8.49502 23.244V23.192H8.44415C8.44415 23.192 8.44415 23.192 8.44415 23.244V23.192C8.44415 23.244 8.44415 23.244 8.44415 23.244C8.49502 23.244 8.49502 23.244 8.49502 23.244H8.54588V23.296H8.59675C8.59675 23.296 8.59675 23.296 8.64761 23.296C8.64761 23.296 8.64761 23.296 8.69847 23.296V23.4H8.74934H8.8002V23.452H8.85106C8.85106 23.452 8.85106 23.452 8.90193 23.452C8.90193 23.452 8.85106 23.452 8.85106 23.504L8.90193 23.452V23.504C8.95279 23.504 8.95279 23.504 8.95279 23.504H9.00366H9.15625V23.556H9.20711C9.20711 23.556 9.20711 23.556 9.25797 23.556C9.25797 23.556 9.25797 23.556 9.30884 23.556V23.608L9.3597 23.556V23.608C9.3597 23.608 9.3597 23.556 9.41057 23.608H9.3597V23.66C9.3597 23.66 9.3597 23.66 9.41057 23.66L9.3597 23.712C9.41056 23.712 9.3597 23.712 9.41057 23.712H9.46143H9.51229V23.764H9.56316C9.56316 23.764 9.56316 23.764 9.61402 23.764V23.92C9.66488 23.92 9.66488 23.92 9.66488 23.92H9.71575H9.76661C9.71575 23.92 9.71575 23.972 9.71575 23.972V23.92H9.66488H9.61402C9.61402 23.92 9.61402 23.92 9.56316 23.92H9.51229H9.46143H9.41057H9.3597C9.30884 23.868 9.30884 23.92 9.30884 23.92L9.25797 23.868V23.92C9.25797 23.92 9.25797 23.92 9.20711 23.92V23.868H9.15625V23.92C9.15625 23.868 9.15625 23.868 9.15625 23.868C9.10538 23.868 9.10538 23.92 9.10538 23.92C9.10538 23.868 9.10538 23.868 9.10538 23.868C9.05452 23.868 9.05452 23.92 9.05452 23.92L9.00366 23.868C9.00366 23.868 9.00366 23.868 8.95279 23.868H8.90193C8.90193 23.816 8.90193 23.868 8.85106 23.868V23.816C8.85106 23.816 8.85106 23.868 8.8002 23.868C8.8002 23.868 8.8002 23.868 8.8002 23.816H8.64761C8.64761 23.816 8.64761 23.816 8.64761 23.868C8.64761 23.868 8.64761 23.868 8.69847 23.868C8.69847 23.868 8.69847 23.868 8.74934 23.868C8.74934 23.868 8.74934 23.868 8.8002 23.92V23.972L8.85106 23.92V23.972C8.85106 23.972 8.85106 23.92 8.90193 23.972H8.95279H9.00366C9.00366 24.024 9.00366 24.024 9.00366 24.024C9.05452 24.024 9.05452 24.024 9.05452 24.024H9.10538C9.10538 24.076 9.10538 24.076 9.10538 24.076C9.05452 24.076 9.05452 24.076 9.05452 24.076H9.00366C8.95279 24.076 8.95279 24.076 8.95279 24.076L8.90193 24.024C8.85106 24.024 8.85106 24.024 8.85106 24.024H8.8002V23.972C8.8002 23.972 8.8002 24.024 8.74934 24.024V23.972C8.74934 23.972 8.74934 23.972 8.69847 23.972C8.64761 23.972 8.64761 23.972 8.64761 23.972V23.92L8.59675 23.972H8.64761C8.64761 23.972 8.64761 23.972 8.64761 24.024C8.69847 24.024 8.64761 23.972 8.69847 23.972C8.69847 24.024 8.69847 24.024 8.69847 24.024C8.74934 24.024 8.74934 24.024 8.74934 24.024H8.8002V24.076C8.8002 24.076 8.85106 24.024 8.85106 24.076H8.90193C8.95279 24.076 8.95279 24.076 8.95279 24.076C9.00366 24.076 9.00366 24.076 9.00366 24.076H9.15625H9.20711H9.25797C9.25797 24.076 9.25797 24.076 9.30884 24.128H9.3597H9.41057H9.46143H9.51229L9.56316 24.18H9.61402H9.66488C9.71575 24.18 9.71575 24.18 9.71575 24.18V24.232C9.76661 24.232 9.76661 24.18 9.86834 24.18V24.232C9.9192 24.232 9.9192 24.18 9.9192 24.232H10.1735C10.2244 24.232 10.3261 24.232 10.3261 24.232H10.377C10.4278 24.232 10.4278 24.232 10.4278 24.232C10.4278 24.284 10.4278 24.284 10.4278 24.284H10.4787C10.5296 24.284 10.5296 24.284 10.5296 24.284H10.5804C10.5804 24.284 10.5804 24.284 10.6313 24.284V24.44C10.5804 24.44 10.5804 24.44 10.5804 24.44H10.5296C10.5296 24.44 10.5296 24.44 10.5296 24.388C10.5296 24.388 10.5296 24.44 10.4787 24.44C10.4787 24.44 10.4787 24.44 10.4787 24.388C10.4787 24.388 10.4787 24.44 10.4278 24.44C10.4278 24.388 10.4278 24.388 10.4278 24.388H10.377H10.3261H10.2752C10.2244 24.388 10.3261 24.388 10.2752 24.388H10.1735C10.1735 24.388 10.1735 24.388 10.1227 24.388L10.0718 24.336C10.0718 24.336 10.0718 24.388 10.0209 24.388V24.336H9.97007H9.9192H9.86834L9.81747 24.284C9.76661 24.284 9.76661 24.284 9.76661 24.284H9.71575C9.66488 24.284 9.66488 24.284 9.66488 24.284C9.61402 24.284 9.61402 24.284 9.61402 24.284H9.56316V24.232C9.51229 24.232 9.51229 24.232 9.51229 24.232H9.46143H9.15625H9.10538V24.18H9.05452H9.00366C9.00366 24.18 9.00366 24.18 8.95279 24.18H8.90193H8.85106V24.128H8.8002H8.64761H8.59675C8.59675 24.128 8.59675 24.128 8.59675 24.076C8.54588 24.076 8.54588 24.076 8.54588 24.076H8.49502V23.92L8.44415 23.972V23.92C8.49502 23.92 8.49502 23.868 8.49502 23.92C8.44415 23.868 8.49502 23.868 8.44415 23.868H8.39329C8.44415 23.868 8.44415 23.868 8.44415 23.868V23.92C8.44415 23.92 8.44415 23.92 8.39329 23.92C8.34243 23.92 8.34243 23.92 8.34243 23.92V23.868C8.29156 23.868 8.29156 23.868 8.29156 23.868C8.29156 23.868 8.29156 23.868 8.2407 23.816V23.868L8.18984 23.816C8.18984 23.816 8.18984 23.816 8.13897 23.816C8.13897 23.816 8.13897 23.764 8.08811 23.764C8.03724 23.764 8.03724 23.764 8.03724 23.764H7.98638V23.712C7.98638 23.712 7.98638 23.764 7.93552 23.764V23.712C7.93552 23.712 7.88465 23.764 7.93552 23.764H7.98638V23.816C7.98638 23.816 7.98638 23.816 8.03724 23.816L8.08811 23.868V23.816L8.13897 23.868H8.18984V23.92H8.13897L8.18984 23.972V23.92C8.18984 23.972 8.18984 23.972 8.18984 23.972H8.2407L8.29156 24.024V23.972L8.34243 24.024L8.39329 24.076V24.024C8.44415 24.024 8.39329 24.076 8.44415 24.076H8.49502H8.64761C8.64761 24.076 8.64761 24.076 8.64761 24.128C8.64761 24.128 8.69847 24.128 8.69847 24.076V24.128C8.69847 24.128 8.69847 24.076 8.74934 24.076C8.69847 24.128 8.74934 24.128 8.74934 24.128L8.69847 24.18C8.74934 24.18 8.74934 24.18 8.74934 24.18H8.8002C8.8002 24.232 8.8002 24.232 8.8002 24.232C8.85106 24.232 8.85106 24.232 8.95279 24.232H9.00366C9.00366 24.284 9.00365 24.232 9.05452 24.232V24.284C9.05452 24.284 9.05452 24.284 9.10538 24.284C9.15625 24.284 9.15625 24.284 9.15625 24.284C9.20711 24.284 9.20711 24.336 9.20711 24.336V24.284L9.25797 24.336C9.25797 24.336 9.25797 24.336 9.30884 24.336C9.3597 24.336 9.3597 24.336 9.3597 24.336H9.30884C9.30884 24.388 9.30884 24.388 9.30884 24.388H9.3597V24.44H9.41057C9.46143 24.44 9.46143 24.44 9.46143 24.44L9.51229 24.492H9.56316C9.56316 24.492 9.56316 24.44 9.61402 24.44V24.492H9.66488C9.66488 24.492 9.66488 24.492 9.71575 24.492C9.76661 24.492 9.76661 24.492 9.76661 24.492V24.544C9.81748 24.544 9.81747 24.492 9.81747 24.492C9.81747 24.544 9.81747 24.544 9.81747 24.544C9.86834 24.544 9.86834 24.544 9.86834 24.544H9.9192H9.97007C9.97007 24.544 9.97007 24.544 10.0209 24.544C10.0209 24.596 10.0718 24.544 10.0718 24.544C10.0718 24.544 10.0718 24.544 10.0718 24.596L10.1227 24.544V24.596C10.1735 24.596 10.1735 24.596 10.1735 24.596H10.2244C10.2244 24.596 10.2244 24.596 10.2752 24.596C10.3261 24.648 10.3261 24.596 10.4278 24.596V24.648H10.4787C10.4787 24.648 10.4787 24.648 10.5296 24.648V24.596C10.5804 24.596 10.5804 24.596 10.5804 24.596C10.5804 24.596 10.5804 24.596 10.6313 24.596C10.6313 24.648 10.6313 24.648 10.6313 24.648C10.6822 24.648 10.6822 24.648 10.6822 24.596C10.6822 24.648 10.6822 24.648 10.6822 24.648H11.1908C11.1908 24.648 11.1908 24.648 11.2417 24.648H11.2925C11.3434 24.648 11.2417 24.648 11.3434 24.648L11.3943 24.7C11.4451 24.7 11.4451 24.7 11.4451 24.7H11.496C11.5468 24.7 11.5468 24.7 11.6486 24.7C11.6994 24.7 11.6994 24.7 11.6994 24.7H11.7503C11.7503 24.7 11.7503 24.7 11.8012 24.7H11.852H11.9029L11.9538 24.752L12.0046 24.7H12.0555C12.0555 24.7 12.0555 24.7 12.0555 24.752L12.1063 24.7V24.752C12.1063 24.752 12.1063 24.752 12.1572 24.752C12.1572 24.752 12.1572 24.752 12.2081 24.752C12.2081 24.752 12.2081 24.752 12.2589 24.752H12.3098H12.3607H12.5133C12.5133 24.752 12.5133 24.752 12.5641 24.752H12.615H12.6658H12.7167H12.7676H12.8184H12.971H13.0219H13.0728V24.7H13.1236C13.1236 24.7 13.1236 24.7 13.1745 24.7H13.2253H13.2762H13.734H13.7848H13.8357H13.8866H13.9374H13.9883L14.0392 24.648H14.09H14.1409L14.1918 24.7V24.648C14.2426 24.648 14.1409 24.7 14.1918 24.7C14.1918 24.648 14.2426 24.648 14.2426 24.648C14.2426 24.648 14.2426 24.648 14.2935 24.648C14.3443 24.648 14.3443 24.648 14.4461 24.648C14.4461 24.596 14.4969 24.648 14.5987 24.596C14.6495 24.596 14.6495 24.596 14.7513 24.596C14.8021 24.596 14.8021 24.596 14.8021 24.596C14.9547 24.544 14.853 24.596 14.853 24.596V24.544H14.9038V24.596L14.9547 24.544V24.596H15.2599L15.3108 24.544H15.3616H15.4125H15.4633L15.5142 24.492H15.5651H15.7177V24.544Z" fill="#1D2088"/>
<path fill-rule="evenodd" clip-rule="evenodd" d="M14.5463 17.472C16.9878 16.536 18.1577 13.832 17.1913 11.336C16.3266 8.892 13.6308 7.644 11.2402 8.632C8.79874 9.568 7.57801 12.272 8.54442 14.768C9.40911 17.212 12.1049 18.408 14.5463 17.472Z" fill="url(#paint0_linear_74_11066)"/>
<path fill-rule="evenodd" clip-rule="evenodd" d="M21.9223 5.46C19.3791 2.288 14.5979 1.612 11.1901 4.108C7.7822 6.604 7.0701 11.284 9.61329 14.508C10.834 16.172 10.5288 18.46 8.85033 19.76C7.0701 20.956 4.73037 20.644 3.40792 19.032C-0.406863 14.196 0.661276 7.28 5.84938 3.484C10.9357 -0.26 18.1584 0.623999 21.9223 5.46Z" fill="#009944"/>
<path d="M41.0465 13.624V12.844H34.0273V10.608H50.965V12.844H43.9458V13.624H41.0465ZM44.607 6.76C44.963 7.072 45.6751 7.28 46.7433 7.436C47.5571 7.54 48.7778 7.644 50.4055 7.644V9.88C48.4218 9.828 46.9467 9.776 45.9295 9.62C44.251 9.412 43.0811 8.996 42.5216 8.424C41.9112 8.996 40.7922 9.412 39.0629 9.62C38.0456 9.724 36.5705 9.828 34.6377 9.828V7.592C36.3162 7.54 37.5369 7.488 38.2999 7.384C39.3172 7.228 40.0293 7.02 40.3853 6.708H34.6377V4.68H40.9448V3.068H44.0984V4.68H50.4055V6.76H44.607ZM46.1329 14.456C47.2519 15.392 47.8114 16.588 47.8114 18.044C47.8114 19.448 47.2519 20.644 46.1329 21.58C45.0648 22.464 43.844 22.932 42.4707 22.932C41.0465 22.932 39.7749 22.464 38.7068 21.58C37.5878 20.644 37.0283 19.448 37.0283 18.044C37.0283 16.588 37.5878 15.392 38.7068 14.456C39.7749 13.572 40.9957 13.156 42.4707 13.156C43.8949 13.156 45.1156 13.624 46.1329 14.456ZM40.6396 16.276C40.131 16.744 39.8767 17.368 39.8767 18.044C39.8767 18.72 40.131 19.344 40.6396 19.812C41.1483 20.28 41.7586 20.488 42.4199 20.488C43.0811 20.488 43.6915 20.28 44.2001 19.812C44.7087 19.344 45.0139 18.772 45.0139 18.044C45.0139 17.316 44.7596 16.744 44.2001 16.276C43.6915 15.808 43.132 15.6 42.4199 15.6C41.7586 15.6 41.1483 15.808 40.6396 16.276Z" fill="black"/>
<path d="M68.2595 21.84V16.276H61.1895V13.728H78.1271V16.276H71.057V21.84H68.2595ZM71.4639 6.864C71.5148 7.644 72.1252 8.268 73.295 8.736C74.3632 9.152 75.8382 9.412 77.6184 9.464V12.012C75.9399 11.96 74.4649 11.752 73.1933 11.44C71.4639 11.024 70.2941 10.4 69.6837 9.568C69.0733 10.4 67.9035 11.024 66.1232 11.44C64.8516 11.752 63.3766 11.908 61.7998 12.012V9.464C63.6309 9.412 65.0551 9.152 66.1232 8.736C67.2931 8.268 67.9035 7.644 67.9035 6.812H61.7998V4.316H77.5676V6.864H71.4639Z" fill="black"/>
<path d="M95.4704 4.316C95.4704 8.164 95.8264 10.972 96.5385 12.688C97.1489 14.196 98.1661 15.08 99.5903 15.34V18.2C98.2679 18.044 97.1489 17.576 96.1825 16.848C95.2161 16.12 94.504 15.08 93.9953 13.884C93.4867 15.132 92.7237 16.12 91.6556 16.848C90.6892 17.576 89.621 17.992 88.4512 18.2V15.34C89.8245 15.08 90.8418 14.144 91.503 12.636C92.2151 10.92 92.622 8.112 92.622 4.264H95.4704V4.316ZM101.981 4.316H104.778V21.944H101.981V4.316Z" fill="black"/>
<defs>
<linearGradient id="paint0_linear_74_11066" x1="16.7869" y1="13.0534" x2="9.07137" y2="13.0534" gradientUnits="userSpaceOnUse">
<stop stop-color="white"/>
<stop offset="0.5" stop-color="#E60012"/>
</linearGradient>
</defs>
</svg>
