<svg width="110" height="35" viewBox="0 0 110 35" fill="none" xmlns="http://www.w3.org/2000/svg">
<g clip-path="url(#clip0_66_21957)">
<path d="M6.61256 33.1204H2.98828V2.07407L6.61256 1.2963V33.1204ZM16.2773 10.6296L19.075 12.7037L12.1444 21.5833L20.2195 31.4352L17.4218 33.7037L7.94782 21.8426L16.2773 10.6296Z" fill="#FFCC00"/>
<path d="M23.3984 27.2222C23.3984 25.0185 24.0979 23.3333 25.5603 22.1667C27.0227 21 29.121 20.4167 31.9187 20.4167H36.1152V18.9908C36.1152 15.6204 34.6528 13.8704 31.7279 13.8704C30.7742 13.8704 29.8204 14 28.7395 14.2593C27.7221 14.5185 26.7684 14.8426 25.8782 15.2315L24.7973 12.6389C25.8782 11.9908 27.0227 11.5371 28.2944 11.213C29.5661 10.8889 30.7742 10.6945 31.9187 10.6945C37.0054 10.6945 39.5487 13.4815 39.5487 18.9908V33.0556H36.8782L36.4331 30.6574C35.3522 31.5648 34.2077 32.213 32.9996 32.7315C31.7915 33.25 30.647 33.4445 29.5025 33.4445C27.595 33.4445 26.069 32.8611 24.988 31.7593C23.9707 30.7222 23.3984 29.1667 23.3984 27.2222ZM30.2019 30.5278C30.7106 30.5278 31.2192 30.463 31.7279 30.3333C32.2366 30.2037 32.8088 30.0093 33.3175 29.8148C33.8262 29.6204 34.3349 29.3611 34.8435 29.0371C35.2886 28.713 35.7337 28.3889 36.1152 28.0648V22.9445H32.3638C30.4562 22.9445 29.0574 23.2685 28.1672 23.9167C27.2771 24.5648 26.832 25.6667 26.832 27.0926C26.8955 29.3611 27.9765 30.5278 30.2019 30.5278Z" fill="#FFCC00"/>
<path d="M49.595 33.1204H45.9707V2.07407L49.595 1.2963V33.1204ZM59.2597 10.6296L62.0574 12.7037L55.1268 21.5833L63.2019 31.4352L60.4042 33.7037L50.9302 21.8426L59.2597 10.6296Z" fill="#FFCC00"/>
<path d="M66.3809 27.2222C66.3809 25.0185 67.0803 23.3333 68.5427 22.1667C70.0051 21 72.1034 20.4167 74.9011 20.4167H79.034V18.9908C79.034 15.6204 77.5716 13.8704 74.6468 13.8704C73.693 13.8704 72.7392 14 71.6583 14.2593C70.641 14.5185 69.6872 14.8426 68.797 15.2315L67.7161 12.6389C68.797 11.9908 69.9416 11.5371 71.2132 11.213C72.4849 10.8889 73.693 10.6945 74.8375 10.6945C79.9242 10.6945 82.4676 13.4815 82.4676 18.9908V33.0556H79.797L79.352 30.6574C78.271 31.5648 77.1265 32.213 75.9184 32.7315C74.7103 33.1852 73.5658 33.4445 72.4213 33.4445C70.5138 33.4445 68.9878 32.8611 67.9069 31.7593C66.9531 30.7222 66.3809 29.1667 66.3809 27.2222ZM73.1843 30.5278C73.693 30.5278 74.2017 30.463 74.7103 30.3333C75.219 30.2037 75.7913 30.0093 76.2999 29.8148C76.8086 29.6204 77.3173 29.3611 77.8259 29.0371C78.271 28.713 78.7161 28.3889 79.0976 28.0648V22.9445H75.3462C73.4387 22.9445 72.0398 23.2685 71.1496 23.9167C70.2595 24.5648 69.8144 25.6667 69.8144 27.0926C69.878 29.3611 70.9589 30.5278 73.1843 30.5278Z" fill="#FFCC00"/>
<path d="M97.0933 10.8241C100.082 10.8241 102.434 11.7963 104.151 13.8055C105.868 15.8148 106.694 18.6018 106.694 22.2963C106.694 25.9259 105.868 28.713 104.151 30.6574C102.434 32.6018 100.082 33.5741 97.0933 33.5741C94.1049 33.5741 91.7523 32.6018 90.0355 30.6574C88.3188 28.713 87.4922 25.9259 87.4922 22.2963C87.4922 18.6018 88.3188 15.75 90.0355 13.8055C91.7523 11.7963 94.1049 10.8241 97.0933 10.8241ZM97.0933 13.8055C95.1858 13.8055 93.787 14.5185 92.7696 15.9444C91.7523 17.3704 91.2436 19.5093 91.2436 22.2963C91.2436 25.0833 91.7523 27.1574 92.7696 28.5185C93.787 29.9444 95.2494 30.6574 97.0933 30.6574C99.0009 30.6574 100.463 29.9444 101.481 28.5185C102.498 27.0926 103.007 25.0185 103.007 22.2963C103.007 19.5093 102.498 17.3704 101.481 15.9444C100.463 14.5185 99.0009 13.8055 97.0933 13.8055Z" fill="#FFCC00"/>
</g>
<defs>
<clipPath id="clip0_66_21957">
<rect width="110" height="35" fill="white"/>
</clipPath>
</defs>
</svg>
