<svg width="120" height="45" viewBox="0 0 120 45" fill="none" xmlns="http://www.w3.org/2000/svg">
<path d="M36.8283 40.944H5.92482C4.30221 40.944 2.97461 39.594 2.97461 37.944V6.44397C2.97461 4.79397 4.30221 3.44397 5.92482 3.44397H36.8283C38.451 3.44397 39.7786 4.79397 39.7786 6.44397V37.944C39.7786 39.594 38.451 40.944 36.8283 40.944Z" fill="#20284F"/>
<path d="M32.404 10.944H10.2773V13.644H32.404V10.944Z" fill="#FFEA00"/>
<path d="M32.4036 16.719H22.9629V33.444H25.6918V19.419H32.4036V16.719Z" fill="#FFEA00"/>
<path d="M10.3496 16.719V19.419H17.0613V33.444H19.7903V16.719H10.3496Z" fill="#FFEA00"/>
<path d="M51.8009 29.844H49.957V13.269L51.8009 12.819V29.844ZM57.1113 17.844L58.5127 18.894L54.7511 23.694L59.1027 29.019L57.7013 30.144L52.6122 23.769L57.1113 17.844Z" fill="#20284F"/>
<path d="M64.6338 23.094H66.9203V22.119C66.9203 20.244 66.109 19.569 64.5601 19.569C63.5275 19.569 62.2737 19.869 61.3886 20.319L60.8723 19.044C62.0524 18.369 63.4538 17.994 64.6338 17.994C67.3628 17.994 68.6904 19.344 68.6904 22.269V29.919H67.3628L67.1415 28.644C66.0352 29.544 64.5601 30.069 63.38 30.069C61.3886 30.069 60.1348 28.794 60.1348 26.769C60.1348 24.294 61.6836 23.094 64.6338 23.094ZM66.9203 27.219V24.444H64.8551C62.79 24.444 61.8312 25.119 61.8312 26.694C61.8312 27.894 62.495 28.569 63.675 28.569C64.7814 28.494 66.1827 27.969 66.9203 27.219Z" fill="#20284F"/>
<path d="M73.7794 29.844H71.9355V13.269L73.7794 12.819V29.844ZM79.0898 17.844L80.4912 18.894L76.7296 23.694L81.0812 29.019L79.6799 30.144L74.5907 23.769L79.0898 17.844Z" fill="#20284F"/>
<path d="M86.6124 23.094H88.8988V22.119C88.8988 20.244 88.0875 19.569 86.5386 19.569C85.506 19.569 84.2522 19.869 83.3671 20.319L82.8508 19.044C84.0309 18.369 85.4323 17.994 86.6124 17.994C89.3413 17.994 90.6689 19.344 90.6689 22.269V29.919H89.3413L89.12 28.644C88.0137 29.544 86.5386 30.069 85.3585 30.069C83.3671 30.069 82.1133 28.794 82.1133 26.769C82.1133 24.294 83.6621 23.094 86.6124 23.094ZM88.8988 27.219V24.444H86.8336C84.7685 24.444 83.8096 25.119 83.8096 26.694C83.8096 27.894 84.4734 28.569 85.6535 28.569C86.7599 28.494 88.1612 27.969 88.8988 27.219Z" fill="#20284F"/>
<path d="M103.43 24.069C103.43 27.969 101.513 30.069 98.3411 30.069C95.1696 30.069 93.252 27.894 93.252 24.069C93.252 20.169 95.1696 17.994 98.3411 17.994C101.513 17.994 103.43 20.169 103.43 24.069ZM95.1696 24.069C95.1696 26.994 96.3497 28.569 98.3411 28.569C100.332 28.569 101.513 26.994 101.513 24.069C101.513 21.144 100.332 19.494 98.3411 19.494C96.3497 19.494 95.1696 21.069 95.1696 24.069Z" fill="#20284F"/>
<path d="M109.404 29.8439V16.7189H104.758V14.1689H117.296V16.7189H112.65V29.8439H109.404Z" fill="#20284F"/>
</svg>
