<svg width="110" height="22" viewBox="0 0 110 22" fill="none" xmlns="http://www.w3.org/2000/svg">
<g clip-path="url(#clip0_66_21630)">
<path d="M107.519 3.64157H104.716C104.716 3.64157 105.091 5.8046 104.89 9.15868C102.69 11.0205 100.463 11.267 98.612 11.1985C96.4388 11.1301 94.8559 10.6098 94.1315 8.98071C93.2998 7.10516 93.8364 3.62788 93.8364 3.62788H91.0059C91.0059 3.62788 90.4693 6.20162 91.0998 8.98071C91.0998 8.98071 91.6766 14.005 98.5583 14.005C98.5583 14.005 101.402 14.2514 104.474 12.7044C104.474 12.7044 104.072 16.0174 102.355 19.9876H105.373C108.633 12.0336 107.519 3.64157 107.519 3.64157Z" fill="#00A7E1"/>
<path d="M86.2968 5.59925C86.2968 5.59925 83.4395 2.25887 77.9797 2.36839C77.9797 2.36839 74.8407 2.27256 72.359 3.98382C69.2468 6.03734 69.5553 9.11761 69.5553 9.11761C70.0382 15.0865 77.7248 14.7579 77.7248 14.7579C83.4529 14.7579 86.4444 10.8836 86.4444 10.8836C87.1419 12.3485 87.5846 13.7038 87.6785 14.005H90.5492C90.2273 12.8413 88.9529 8.26882 86.2968 5.59925ZM77.7517 11.9378C75.6321 11.9515 72.8017 11.2806 72.6004 8.95333C72.4529 7.22838 74.2639 5.13379 78.2212 5.13379C82.7553 5.13379 84.8614 8.39203 84.8614 8.39203C84.1773 9.50093 81.6419 11.9104 77.7517 11.9378Z" fill="#00A7E1"/>
<path d="M0.966797 8.55632C0.966797 12.7455 5.20582 14.9085 10.679 14.9085C12.9863 14.9085 16.3802 14.4431 18.5534 13.3752L17.6278 10.8289C15.7631 11.5955 13.0802 12.0336 10.679 12.0336C6.92289 12.0336 4.02533 10.8289 4.02533 8.55632V8.57001C4.02533 6.29745 6.92289 5.09272 10.6924 5.09272C13.0936 5.09272 15.7766 5.5308 17.6144 6.29745L18.5266 3.75109C16.3802 2.69695 12.9863 2.2178 10.6924 2.2178C5.20582 2.20411 0.966797 4.36714 0.966797 8.55632Z" fill="#00A7E1"/>
<path d="M29.0433 14.8127C23.7042 14.8127 19.5859 12.7044 19.5859 8.55631V8.57C19.5859 4.4219 23.7042 2.31363 29.0433 2.31363H29.0567C34.1811 2.31363 38.514 4.4219 38.514 8.57V8.55631C38.514 12.7044 34.3957 14.8127 29.0433 14.8127ZM29.0567 12.0062C32.6518 12.0062 35.4018 10.8015 35.4018 8.54262V8.55631C35.4018 6.31114 32.4774 5.10641 29.0567 5.10641H29.0433C25.4481 5.10641 22.6847 6.31114 22.6847 8.55631V8.54262C22.6981 10.8015 25.4481 12.0062 29.0567 12.0062Z" fill="#00A7E1"/>
<path d="M54.0894 8.92595C56.1955 8.92595 57.6845 14.1419 61.4406 14.1419C63.6675 14.1419 66.4711 12.2253 68.7919 3.64157H65.5992C65.2906 5.32545 63.4394 10.8699 61.5345 10.8699C58.8784 10.8699 57.8589 5.55818 54.1028 5.55818C50.3467 5.55818 49.3272 10.8699 46.6711 10.8699C44.7662 10.8699 42.915 5.31176 42.6065 3.64157H39.4004C41.7211 12.2253 44.5248 14.1419 46.7516 14.1419C50.4943 14.1419 51.9833 8.92595 54.0894 8.92595Z" fill="#00A7E1"/>
</g>
<defs>
<clipPath id="clip0_66_21630">
<rect width="110" height="22" fill="white"/>
</clipPath>
</defs>
</svg>
