<svg width="180" height="36" viewBox="0 0 180 36" fill="none" xmlns="http://www.w3.org/2000/svg">
<path d="M11.0669 25.8687C8.38231 26.2739 6.35248 25.8687 5.69769 24.6529L1.17969 27.2871C2.48925 28.9756 6.22152 29.0432 11.1324 27.6248L11.0669 25.8687Z" fill="url(#paint0_linear_66_21773)"/>
<path d="M36.3408 16.2101L33.4598 14.5891L31.8883 13.7111L28.156 11.6173L23.2452 8.78049C28.156 6.95685 32.0847 6.75422 33.3288 8.51032L37.9123 5.80863C36.4063 3.0394 29.4001 3.91745 21.2808 7.69982L10.5424 1.48593L10.7388 10.5366C15.3878 9.25329 18.2033 9.18574 18.2033 9.18574C17.5485 9.52346 16.8938 9.92871 16.1735 10.2664C14.2746 11.3471 12.5067 12.4953 10.8697 13.6435C10.8697 13.6435 10.8043 13.6435 10.8043 13.7111C3.66713 18.7767 -0.523487 24.2477 0.917037 27.0169C0.982515 27.152 1.04799 27.2195 1.11347 27.2871L5.63148 24.6529C4.58382 22.7617 6.81009 19.3171 10.8043 15.94L10.9352 20.6004L11.0662 27.6248L11.1317 31.3396L11.1971 35.3246L40.0731 18.439L36.3408 16.2101Z" fill="url(#paint1_linear_66_21773)"/>
<path d="M37.9127 5.80864L33.3292 8.51033C33.3947 8.57787 33.4602 8.64541 33.4602 8.71295C34.1149 9.92871 33.4602 11.7524 31.8887 13.7111L33.4602 14.5891C37.1924 11.0094 38.9603 7.76736 37.9127 5.80864Z" fill="url(#paint2_linear_66_21773)"/>
<path fill-rule="evenodd" clip-rule="evenodd" d="M164.22 20.1276C164.22 20.6679 163.892 22.4916 161.731 22.4916C159.571 22.4916 159.243 20.6679 159.243 20.1276V19.925C159.243 19.3846 159.571 17.561 161.731 17.561C163.892 17.561 164.22 19.3846 164.22 19.925V20.1276ZM166.642 16.0075C166.642 14.9268 166.118 12.4953 163.827 11.5497C161.469 10.5366 158.327 11.7523 157.541 12.0901C157.475 12.0901 157.41 12.1576 157.41 12.2927V12.3602L158.065 14.2514C158.13 14.3189 158.196 14.3865 158.261 14.3865C159.112 13.9137 161.469 13.1032 162.91 13.7786C164.285 14.454 164.154 15.94 164.154 16.1426V16.5478C163.303 15.8724 162.255 15.5347 161.208 15.5347C158.85 15.5347 157.672 16.7505 157.148 17.7636C156.559 18.8443 156.559 19.9925 156.559 20.2627C156.559 20.4653 156.559 21.6135 157.148 22.7617C157.672 23.7749 158.85 24.9906 161.208 24.9906C162.583 24.9906 163.565 24.4503 164.22 23.9099V24.5178C164.22 24.5854 164.285 24.7204 164.416 24.7204H166.38C166.511 24.7204 166.577 24.6529 166.577 24.5178V17.4259V16.075C166.642 16.0075 166.642 16.0075 166.642 16.0075Z" fill="#945226"/>
<path fill-rule="evenodd" clip-rule="evenodd" d="M64.9553 19.9249C64.9553 20.4653 65.3482 22.424 67.5745 22.424C69.8007 22.424 70.1936 20.4653 70.1936 19.9249V16.0075C70.1936 15.4672 69.8007 13.5084 67.5745 13.5084C65.3482 13.5084 64.9553 15.4672 64.9553 16.0075V19.9249ZM62.3362 16.075C62.3362 15.8049 62.3362 14.5891 62.991 13.4409C63.5803 12.3602 64.8899 11.0769 67.509 11.0769C70.1281 11.0769 71.4377 12.3602 72.027 13.4409C72.6818 14.5891 72.6818 15.8049 72.6818 16.075V19.7899C72.6818 20.06 72.6818 21.2758 72.027 22.424C71.4377 23.5047 70.1281 24.788 67.509 24.788C64.8899 24.788 63.5803 23.5047 62.991 22.424C62.3362 21.2758 62.3362 20.06 62.3362 19.7899V16.075ZM61.2886 22.0863C61.2886 22.0188 61.2231 21.9512 61.1576 21.9512L59.1932 20.9381H59.1278C59.0623 20.9381 58.9968 21.0056 58.9968 21.0056C58.6694 21.681 58.0146 22.424 56.6396 22.424C54.4133 22.424 54.0205 20.4653 54.0205 19.9249V16.0075C54.0205 15.4672 54.4133 13.5084 56.6396 13.5084C58.0146 13.5084 58.6694 14.2514 58.9968 14.9944C58.9968 15.0619 59.0623 15.1295 59.1932 15.1295H59.2587L61.2231 14.0488C61.2886 14.0488 61.2886 13.9812 61.2886 13.9137V13.8462C61.2231 13.7786 61.2231 13.7111 61.1576 13.6435C60.5683 12.5628 59.2587 11.2795 56.6396 11.2795C54.0205 11.2795 52.7109 12.5628 52.1216 13.6435C51.4668 14.7917 51.4668 16.0075 51.4668 16.2777V19.9925C51.4668 20.2627 51.4668 21.4784 52.1216 22.6266C52.7109 23.7073 54.0205 24.9906 56.6396 24.9906C59.2587 24.9906 60.5683 23.7073 61.1576 22.6266C61.2231 22.5591 61.2231 22.4916 61.2886 22.3565C61.2886 22.1538 61.2886 22.1538 61.2886 22.0863ZM84.7298 24.3152V11.4822C84.7298 11.3471 84.6643 11.2795 84.5334 11.2795H82.3071C82.1761 11.2795 82.1107 11.3471 82.1107 11.4822V16.0075V19.8574C82.1107 20.3977 81.7178 22.3565 79.4915 22.3565C77.2653 22.3565 76.8724 20.3977 76.8724 19.8574V11.5497C76.8724 11.4146 76.8069 11.3471 76.676 11.3471H74.4497C74.3187 11.3471 74.2533 11.4146 74.2533 11.5497V19.7899C74.2533 20.06 74.2533 21.2758 74.8426 22.424C75.3664 23.5047 76.545 24.788 78.9022 24.788C80.4737 24.788 81.5214 24.1126 82.1761 23.4371V24.3152C82.1761 24.4503 82.2416 24.5178 82.3726 24.5178H84.4679C84.6643 24.5178 84.7298 24.4503 84.7298 24.3152Z" fill="#945226"/>
<path fill-rule="evenodd" clip-rule="evenodd" d="M105.813 20.1276C105.813 20.6679 105.486 22.4916 103.325 22.4916C101.164 22.4916 100.837 20.6679 100.837 20.1276V19.925C100.837 19.3846 101.164 17.561 103.325 17.561C105.486 17.561 105.813 19.3846 105.813 19.925V20.1276ZM108.236 16.0075C108.236 14.9268 107.712 12.4953 105.42 11.5497C103.063 10.5366 99.9203 11.7523 99.1345 12.0901C99.069 12.0901 99.0036 12.1576 99.0036 12.2927V12.3602L99.6583 14.2514C99.7238 14.3189 99.7893 14.3865 99.8548 14.3865C100.706 13.9137 103.063 13.1032 104.504 13.7786C105.879 14.454 105.748 15.94 105.748 16.1426V16.5478C104.897 15.8724 103.849 15.5347 102.801 15.5347C100.444 15.5347 99.2655 16.7505 98.7417 17.7636C98.1523 18.8443 98.1523 19.9925 98.1523 20.2627C98.1523 20.4653 98.1523 21.6135 98.7417 22.7617C99.2655 23.7749 100.444 24.9906 102.801 24.9906C104.176 24.9906 105.159 24.4503 105.813 23.9099V24.5178C105.813 24.5854 105.879 24.7204 106.01 24.7204H107.974C108.105 24.7204 108.171 24.6529 108.171 24.5178V17.4259V16.075C108.236 16.0075 108.236 16.0075 108.236 16.0075Z" fill="#FFC500"/>
<path fill-rule="evenodd" clip-rule="evenodd" d="M120.351 16.075C120.351 15.8049 120.351 14.5891 119.761 13.4409C119.237 12.3602 118.059 11.0769 115.702 11.0769C114.13 11.0769 113.148 11.7523 112.428 12.4278V11.5497C112.428 11.4146 112.362 11.3471 112.231 11.3471H110.136C110.005 11.3471 109.939 11.4146 109.939 11.5497V24.3827C109.939 24.4503 110.005 24.5854 110.136 24.5854H112.362C112.428 24.5854 112.559 24.5178 112.559 24.3827V15.8724C112.624 15.197 113.082 13.5084 115.112 13.5084C117.339 13.5084 117.731 15.4672 117.731 16.0075V24.3827C117.731 24.5178 117.797 24.5854 117.928 24.5854H120.22C120.285 24.5854 120.416 24.5178 120.416 24.3827L120.351 16.075Z" fill="#87CC2E"/>
<path fill-rule="evenodd" clip-rule="evenodd" d="M94.2245 19.9249C94.2245 20.4653 93.8316 22.424 91.6054 22.424C89.3791 22.424 88.9862 20.4653 88.9862 19.9249V16.0075C88.9862 15.4672 89.3791 13.5084 91.6054 13.5084C93.8316 13.5084 94.2245 15.4672 94.2245 16.0075V19.9249ZM96.2543 13.4409C95.7305 12.3602 94.5519 11.0769 92.1947 11.0769C90.6232 11.0769 89.5755 11.7523 88.9207 12.4278V11.4822C88.9207 11.3471 88.8553 11.2795 88.7243 11.2795H86.6945C86.5635 11.2795 86.498 11.3471 86.498 11.4822V28.9081C86.498 29.0431 86.5635 29.1107 86.6945 29.1107H88.9862C89.0517 29.1107 89.1172 29.0431 89.1172 28.9081V23.5722C89.772 24.1801 90.7541 24.788 92.1947 24.788C94.5519 24.788 95.7305 23.5047 96.2543 22.424C96.8436 21.2758 96.8436 20.06 96.8436 19.7899V16.075C96.8436 15.8049 96.8436 14.5891 96.2543 13.4409Z" fill="#F7552F"/>
<path fill-rule="evenodd" clip-rule="evenodd" d="M148.047 19.9249C148.047 20.4653 147.654 22.424 145.428 22.424C143.201 22.424 142.808 20.4653 142.808 19.9249V16.0075C142.808 15.4672 143.201 13.5084 145.428 13.5084C147.654 13.5084 148.047 15.4672 148.047 16.0075V19.9249ZM150.077 13.4409C149.553 12.3602 148.374 11.0769 146.017 11.0769C144.445 11.0769 143.398 11.7523 142.743 12.4278V11.4822C142.743 11.3471 142.678 11.2795 142.547 11.2795H140.517C140.386 11.2795 140.32 11.3471 140.32 11.4822V28.9081C140.32 29.0431 140.386 29.1107 140.517 29.1107H142.808C142.874 29.1107 142.939 29.0431 142.939 28.9081V23.5722C143.594 24.1801 144.576 24.788 146.017 24.788C148.374 24.788 149.553 23.5047 150.077 22.424C150.666 21.2758 150.666 20.06 150.666 19.7899V16.075C150.666 15.8049 150.666 14.5891 150.077 13.4409Z" fill="#945226"/>
<path fill-rule="evenodd" clip-rule="evenodd" d="M129.779 16.0075C129.779 16.5478 129.386 18.3715 127.16 18.3715C124.934 18.3715 124.541 16.4803 124.541 16.0075V15.8724C124.541 15.3321 124.934 13.5084 127.16 13.5084C129.386 13.5084 129.779 15.3996 129.779 15.8724V16.0075ZM133.642 11.212C132.333 11.1445 131.416 11.7523 130.892 12.3602C130.107 11.6848 128.993 11.1445 127.226 11.1445C124.606 11.1445 123.297 12.3602 122.708 13.3734C122.053 14.454 122.053 15.6698 122.053 15.8724V16.0075C122.053 16.2777 122.053 17.4259 122.708 18.5066C122.969 18.9794 123.362 19.4522 124.017 19.8574C123.035 20.4653 122.184 21.4784 122.184 23.3696V24.3827C122.184 24.4503 122.249 24.5854 122.38 24.5854H130.238C130.958 24.5854 131.547 25.1933 131.547 25.9362C131.547 26.6792 131.023 27.0844 130.172 27.4221C130.041 27.4897 129.976 27.5572 130.041 27.7599C130.107 27.8274 130.761 29.2458 130.761 29.3133C130.827 29.4484 130.958 29.4484 131.023 29.4484C132.595 28.9756 133.642 27.6248 133.642 26.0038C133.642 24.045 132.071 22.4916 130.238 22.4916H124.672C124.934 20.8705 126.767 20.8706 127.029 20.9381C127.095 20.9381 127.226 20.9381 127.291 20.9381H127.356C129.976 20.9381 131.285 19.7223 131.874 18.7092C132.529 17.6285 132.529 16.4803 132.529 16.2101V16.0751C132.529 15.8724 132.529 14.9944 132.136 14.1163C132.464 13.8462 132.988 13.6435 133.773 13.7111C133.839 13.7111 133.97 13.6435 133.97 13.5084V11.6173C133.773 11.2796 133.708 11.212 133.642 11.212Z" fill="#30B5DC"/>
<path fill-rule="evenodd" clip-rule="evenodd" d="M154.922 5.67354C154.922 5.53846 154.856 5.47092 154.725 5.47092H152.499C152.368 5.47092 152.303 5.53846 152.303 5.67354V24.3827C152.303 24.5178 152.368 24.5854 152.499 24.5854H154.725C154.856 24.5854 154.922 24.5178 154.922 24.3827V5.67354Z" fill="#945226"/>
<path fill-rule="evenodd" clip-rule="evenodd" d="M178.625 11.4146H176.399C176.268 11.4146 176.203 11.4822 176.137 11.6173L172.929 22.0863L170.179 11.6173C170.179 11.4822 170.048 11.4146 169.982 11.4146H167.756C167.625 11.4146 167.625 11.4822 167.625 11.6173L170.899 24.3827C170.899 24.5178 171.03 24.5854 171.095 24.5854H172.143L170.637 29.5835C170.637 29.7186 170.637 29.7861 170.768 29.7861H172.994C173.125 29.7861 173.191 29.7186 173.256 29.5835L178.756 11.6848C178.756 11.4822 178.756 11.4146 178.625 11.4146Z" fill="#945226"/>
<defs>
<linearGradient id="paint0_linear_66_21773" x1="5.16752" y1="24.9029" x2="7.90778" y2="29.5041" gradientUnits="userSpaceOnUse">
<stop stop-color="#27C0FF"/>
<stop offset="1" stop-color="#0890FF"/>
</linearGradient>
<linearGradient id="paint1_linear_66_21773" x1="10.9725" y1="1.26493" x2="26.1489" y2="26.7478" gradientUnits="userSpaceOnUse">
<stop stop-color="#53D2FF"/>
<stop offset="1" stop-color="#02AFFF"/>
</linearGradient>
<linearGradient id="paint2_linear_66_21773" x1="33.9946" y1="8.07846" x2="36.7327" y2="12.676" gradientUnits="userSpaceOnUse">
<stop stop-color="#23BDFF"/>
<stop offset="1" stop-color="#0890FF"/>
</linearGradient>
</defs>
</svg>
