<svg width="134" height="34" viewBox="0 0 134 34" fill="none" xmlns="http://www.w3.org/2000/svg">
<path d="M123.249 7.58315H129.381C130.778 7.58315 131.931 6.40216 131.931 4.97254C131.931 3.54293 130.778 2.36194 129.381 2.36194H123.31C118.149 2.36194 113.899 6.58863 113.839 11.8098C113.778 17.1554 117.967 21.5685 123.189 21.5685H125.981C129.26 21.5685 131.931 18.8336 131.931 15.415V13.4259C131.931 11.9963 130.778 10.8153 129.381 10.8153C127.985 10.8153 126.831 11.9963 126.831 13.4259V16.3473H123.189C120.881 16.3473 118.999 14.4204 118.939 12.0585C118.939 9.57218 120.881 7.58315 123.249 7.58315Z" fill="#FF8633"/>
<path d="M77.3493 20.9469C75.9529 20.9469 74.7993 19.766 74.7993 18.3363V11.0639C74.7993 8.88844 73.16 7.02372 71.035 6.96156C68.7886 6.89941 66.9672 8.70197 66.9672 11.0018V18.3363C66.9672 19.766 65.8136 20.9469 64.4172 20.9469C63.0208 20.9469 61.8672 19.766 61.8672 18.3363V11.0639C61.8672 5.96705 65.8136 1.6782 70.7922 1.61604C75.8315 1.55389 79.96 5.71842 79.96 10.9396V18.2742C79.96 19.766 78.8065 20.9469 77.3493 20.9469Z" fill="#FF8633"/>
<path d="M108.435 20.9469C107.039 20.9469 105.885 19.766 105.885 18.3363V11.0639C105.885 8.88844 104.246 7.02372 102.121 6.96156C99.8745 6.89941 98.0531 8.70197 98.0531 11.0018V18.3363C98.0531 19.766 96.8996 20.9469 95.5031 20.9469C94.1067 20.9469 92.9531 19.766 92.9531 18.3363V11.0639C92.9531 5.96705 96.8996 1.6782 101.878 1.61604C106.917 1.55389 111.046 5.71842 111.046 10.9396V18.2742C110.985 19.766 109.832 20.9469 108.435 20.9469Z" fill="#FF8633"/>
<path d="M16.2713 1.61609H4.00703C2.6106 1.61609 1.45703 2.79708 1.45703 4.22669C1.45703 5.65631 2.6106 6.83729 4.00703 6.83729H7.58917V18.2742C7.58917 19.7038 8.74275 20.8848 10.1392 20.8848C11.5356 20.8848 12.6892 19.7038 12.6892 18.2742V6.89945H16.2713C17.6677 6.89945 18.8213 5.71846 18.8213 4.28885C18.8213 2.79708 17.7285 1.61609 16.2713 1.61609Z" fill="#FF8633"/>
<path d="M29.7506 20.947C24.5898 20.947 20.3398 16.596 20.3398 11.3126C20.3398 6.02925 24.5898 1.61609 29.7506 1.61609C34.9113 1.61609 39.1613 5.96709 39.1613 11.2505C39.1613 16.5338 34.9113 20.947 29.7506 20.947ZM29.7506 6.89945C27.3827 6.89945 25.5006 8.88848 25.5006 11.3126C25.5006 13.7367 27.3827 15.7258 29.7506 15.7258C32.1184 15.7258 34.0006 13.7367 34.0006 11.3126C34.0613 8.82633 32.1184 6.89945 29.7506 6.89945Z" fill="#FF8633"/>
<path d="M50.272 20.947C45.1113 20.947 40.8613 16.596 40.8613 11.3126C40.8613 6.02925 45.0506 1.61609 50.272 1.61609C55.4935 1.61609 59.6828 5.96709 59.6828 11.2505C59.6828 16.5338 55.4328 20.947 50.272 20.947ZM50.272 6.89945C47.9042 6.89945 46.022 8.88848 46.022 11.3126C46.022 13.7367 47.9042 15.7258 50.272 15.7258C52.6399 15.7258 54.522 13.7367 54.522 11.3126C54.522 8.82633 52.5792 6.89945 50.272 6.89945Z" fill="#FF8633"/>
<path d="M86.2746 20.947C84.8782 20.947 83.7246 19.766 83.7246 18.3364V4.22669C83.7246 2.79708 84.8782 1.61609 86.2746 1.61609C87.671 1.61609 88.8246 2.79708 88.8246 4.22669V18.2742C88.8246 19.766 87.671 20.947 86.2746 20.947Z" fill="#FF8633"/>
<path d="M39.6458 32.6946C35.3958 32.6946 31.2672 31.3272 27.8065 28.8409C26.5315 27.9085 26.3493 26.0438 27.4422 24.925C28.2922 23.9926 29.7493 23.8062 30.7815 24.552C33.3922 26.4168 36.4886 27.4113 39.6458 27.4113C42.8636 27.4113 45.9601 26.4168 48.5101 24.552C49.5422 23.8062 50.9386 23.9926 51.8493 24.925C52.8815 26.106 52.7601 27.9707 51.4851 28.8409C48.0243 31.3272 43.9565 32.6946 39.6458 32.6946Z" fill="#FF8633"/>
</svg>
