<svg width="180" height="40" viewBox="0 0 180 40" fill="none" xmlns="http://www.w3.org/2000/svg">
<path d="M55.4263 27.6392L53.3333 30.4031L55.5813 33.6276H54.2635L52.248 30.4799L54.186 27.7159H55.4263V27.6392ZM51.2402 33.6276V27.6392H52.248V33.6276H51.2402Z" fill="#595757"/>
<path d="M58.4494 32.9367C57.4416 32.9367 57.054 32.0921 57.054 30.5566C57.054 29.0979 57.4416 28.3301 58.4494 28.3301C59.5347 28.3301 59.8447 29.2515 59.8447 30.7102C59.8447 32.2457 59.3796 32.9367 58.4494 32.9367ZM58.5269 33.7044C60.0773 33.7044 61.0075 32.476 61.0075 30.6334C61.0075 28.8676 60.1548 27.5624 58.5269 27.5624C57.054 27.5624 56.0463 28.6372 56.0463 30.6334C55.9688 32.3992 56.744 33.7044 58.5269 33.7044Z" fill="#595757"/>
<path d="M63.8766 28.4069C64.7293 28.4069 65.1169 28.714 65.1169 29.3282C65.1169 29.6353 65.0393 29.8657 64.8843 30.0192C64.7293 30.1728 64.4192 30.2495 63.8766 30.2495H63.3339V28.4069H63.8766ZM66.4347 33.6277L65.582 32.1689C65.2719 31.6315 64.8843 31.0941 64.6518 31.0173C65.582 31.0173 66.1246 30.2495 66.1246 29.405C66.1246 28.4837 65.5045 27.7159 64.1866 27.7159H62.3262V33.7044H63.3339V31.0941C63.489 31.0941 63.644 31.1708 63.7215 31.2476C64.0316 31.5547 64.3417 32.0154 64.7293 32.7063L65.2719 33.6277H66.4347Z" fill="#595757"/>
<path d="M67.752 33.6276V27.6392H71.0853L70.9302 28.4069H68.6822V30.0192H70.5426V30.8637H68.6822V32.7063H71.0853V33.5509H67.752V33.6276Z" fill="#595757"/>
<path d="M75.0396 31.1708H73.5668C73.7218 30.787 74.342 28.6372 74.342 28.6372C74.342 28.8676 74.9621 31.0941 75.0396 31.1708ZM76.8226 33.6276L74.9621 27.6392H73.7993L71.8613 33.6276H72.8691L73.3342 32.0921H75.2722L75.7373 33.6276H76.8226Z" fill="#595757"/>
<path d="M82.0927 33.7044C81.3175 33.7044 80.6198 33.3973 80.1547 32.8599C79.6896 32.3225 79.457 31.6315 79.457 30.7102C79.457 30.0192 79.6121 29.405 79.8446 28.8676C80.3097 28.023 81.0849 27.4856 82.0927 27.4856C82.7128 27.4856 83.2555 27.6392 83.5656 27.9463L83.1004 28.6372C82.7904 28.4069 82.4803 28.3301 82.0927 28.3301C81.5501 28.3301 81.1625 28.5605 80.9299 29.0211C80.6973 29.405 80.6198 29.8656 80.6198 30.5566C80.6198 31.3244 80.6973 31.7083 80.8524 32.0154C81.0849 32.5528 81.6276 32.8599 82.1702 32.8599C82.5578 32.8599 82.9454 32.7831 83.2555 32.476L83.7206 33.0902C83.2555 33.5509 82.7904 33.7044 82.0927 33.7044Z" fill="#595757"/>
<path d="M86.9757 32.9367C85.968 32.9367 85.5804 32.0921 85.5804 30.5566C85.5804 29.0979 85.968 28.3301 86.9757 28.3301C88.061 28.3301 88.3711 29.2515 88.3711 30.7102C88.2935 32.2457 87.8284 32.9367 86.9757 32.9367ZM86.9757 33.7044C88.5261 33.7044 89.4563 32.476 89.4563 30.6334C89.4563 28.8676 88.6036 27.5624 86.9757 27.5624C85.5028 27.5624 84.4951 28.6372 84.4951 30.6334C84.4176 32.3992 85.2703 33.7044 86.9757 33.7044Z" fill="#595757"/>
<path d="M92.5577 28.4069C92.9453 28.4069 93.1779 28.4837 93.4104 28.714C93.5655 28.8676 93.643 29.0979 93.643 29.4818C93.643 30.1728 93.3329 30.5566 92.5577 30.5566H91.7825V28.4069H92.5577ZM94.7283 29.405C94.7283 28.714 94.4182 28.2534 93.8756 27.8695C93.5655 27.6392 93.2554 27.5624 92.3252 27.5624H90.6973V33.5509H91.705V31.2476H92.7128C93.8756 31.3244 94.7283 30.5566 94.7283 29.405Z" fill="#595757"/>
<path d="M97.9848 31.1708V33.5509H96.8995V31.1708L95.0391 27.6392H96.2794L97.2096 29.4818C97.3646 29.8657 97.5197 30.2495 97.5197 30.2495C97.5197 30.2495 97.6747 29.8657 97.8298 29.4818L98.76 27.5624H99.9228L97.9848 31.1708Z" fill="#595757"/>
<path d="M102.17 28.4069C103.022 28.4069 103.41 28.714 103.41 29.3282C103.41 29.6353 103.332 29.8657 103.177 30.0192C103.022 30.1728 102.712 30.2495 102.17 30.2495H101.627V28.4069H102.17ZM104.728 33.6277L103.875 32.1689C103.565 31.6315 103.177 31.0941 102.945 31.0173C103.875 31.0173 104.418 30.2495 104.418 29.405C104.418 28.4837 103.797 27.7159 102.48 27.7159H100.619V33.7044H101.627V31.0941C101.782 31.0941 101.937 31.1708 102.014 31.2476C102.325 31.5547 102.635 32.0154 103.022 32.7063L103.565 33.6277H104.728Z" fill="#595757"/>
<path d="M105.969 33.6276V27.6392H106.977V33.6276H105.969Z" fill="#595757"/>
<path d="M111.007 33.7044C110.154 33.7044 109.534 33.4741 109.069 32.8599C108.604 32.3225 108.371 31.6315 108.371 30.7102C108.371 29.4818 108.759 28.6372 109.534 28.0998C109.999 27.7927 110.464 27.6392 111.007 27.6392C111.704 27.6392 112.325 27.8695 112.79 28.2534L112.247 28.8676C111.859 28.5605 111.472 28.4069 111.007 28.4069C109.921 28.4069 109.456 29.405 109.456 30.787C109.456 31.6315 109.611 32.1689 109.921 32.5528C110.154 32.8599 110.619 33.0134 111.084 33.0134C111.394 33.0134 111.627 32.9367 111.859 32.8599V31.3244H110.852L110.697 30.4799H112.867V33.3205C112.325 33.4741 111.627 33.7044 111.007 33.7044Z" fill="#595757"/>
<path d="M117.597 33.6276V30.8637H115.504V33.6276H114.496V27.6392H115.504V30.0192H117.519V27.6392H118.527V33.6276H117.597Z" fill="#595757"/>
<path d="M123.722 28.4837H122.171V33.6276H121.164V28.4837H119.613V27.6392H123.799L123.722 28.4837Z" fill="#595757"/>
<path d="M129.069 33.7044C128.294 33.7044 127.596 33.3973 127.131 32.8599C126.666 32.3225 126.434 31.6315 126.434 30.7102C126.434 30.0192 126.589 29.405 126.821 28.8676C127.286 28.023 128.061 27.4856 129.069 27.4856C129.689 27.4856 130.232 27.6392 130.542 27.9463L130.077 28.6372C129.767 28.4069 129.457 28.3301 129.069 28.3301C128.527 28.3301 128.139 28.5605 127.906 29.0211C127.674 29.405 127.596 29.8656 127.596 30.5566C127.596 31.3244 127.674 31.7083 127.829 32.0154C128.061 32.5528 128.604 32.8599 129.147 32.8599C129.612 32.8599 129.922 32.7831 130.232 32.476L130.697 33.0902C130.232 33.5509 129.689 33.7044 129.069 33.7044Z" fill="#595757"/>
<path d="M133.877 32.9367C132.869 32.9367 132.481 32.0921 132.481 30.5566C132.481 29.0979 132.869 28.3301 133.877 28.3301C134.962 28.3301 135.272 29.2515 135.272 30.7102C135.272 32.2457 134.807 32.9367 133.877 32.9367ZM133.954 33.7044C135.505 33.7044 136.435 32.476 136.435 30.6334C136.435 28.8676 135.582 27.5624 133.954 27.5624C132.481 27.5624 131.474 28.6372 131.474 30.6334C131.396 32.3992 132.249 33.7044 133.954 33.7044Z" fill="#595757"/>
<path d="M142.636 33.6276L142.326 29.9424C142.326 29.5585 142.248 29.0979 142.248 28.9443C142.171 29.1747 142.093 29.4818 142.016 29.8656L140.93 33.6276H140.078L139.07 30.0192C138.992 29.6353 138.837 29.0979 138.837 28.9443C138.837 29.1747 138.837 29.7121 138.76 30.0192L138.527 33.6276H137.52L138.062 27.6392H139.38L140.31 31.0173C140.465 31.5547 140.465 31.8618 140.543 32.0154C140.543 31.8618 140.62 31.4779 140.775 31.0173L141.706 27.6392H143.023L143.566 33.6276H142.636Z" fill="#595757"/>
<path d="M149.999 33.6276L149.689 29.9424C149.689 29.5585 149.611 29.0979 149.611 28.9443C149.534 29.1747 149.456 29.4818 149.379 29.8656L148.294 33.6276H147.441L146.433 30.0192C146.356 29.6353 146.201 29.0979 146.201 28.9443C146.201 29.1747 146.201 29.7121 146.123 30.0192L145.891 33.6276H144.883L145.425 27.6392H146.743L147.674 31.0173C147.829 31.5547 147.829 31.8618 147.906 32.0154C147.906 31.8618 147.984 31.4779 148.139 31.0173L149.069 27.6392H150.387L150.929 33.6276H149.999Z" fill="#595757"/>
<path d="M152.559 33.6276V27.6392H153.566V33.6276H152.559Z" fill="#595757"/>
<path d="M156.745 33.7044C156.047 33.7044 155.349 33.5509 154.807 33.167L155.194 32.3992C155.737 32.7063 156.202 32.8599 156.822 32.8599C157.597 32.8599 157.985 32.476 157.985 31.9386C157.985 31.4779 157.675 31.2476 157.055 31.0173L156.435 30.8637C155.892 30.7102 155.504 30.4799 155.272 30.1728C155.117 29.9424 155.039 29.6353 155.039 29.3282C155.039 28.2534 155.892 27.5624 157.055 27.5624C157.752 27.5624 158.45 27.7927 158.993 28.0998L158.528 28.7908C157.985 28.4837 157.597 28.3301 157.132 28.3301C156.512 28.3301 156.124 28.6372 156.124 29.1747C156.124 29.5586 156.357 29.7121 156.9 29.9424L157.597 30.1728C158.45 30.4031 159.07 30.9405 159.07 31.8618C159.07 32.7831 158.295 33.7044 156.745 33.7044Z" fill="#595757"/>
<path d="M161.938 33.7044C161.24 33.7044 160.543 33.5509 160 33.167L160.388 32.3992C160.93 32.7063 161.395 32.8599 162.016 32.8599C162.791 32.8599 163.178 32.476 163.178 31.9386C163.178 31.4779 162.868 31.2476 162.248 31.0173L161.628 30.8637C161.085 30.7102 160.698 30.4799 160.465 30.1728C160.31 29.9424 160.233 29.6353 160.233 29.3282C160.233 28.2534 161.085 27.5624 162.248 27.5624C162.946 27.5624 163.643 27.7927 164.186 28.0998L163.721 28.7908C163.178 28.4837 162.791 28.3301 162.326 28.3301C161.705 28.3301 161.318 28.6372 161.318 29.1747C161.318 29.5586 161.55 29.7121 162.093 29.9424L162.791 30.1728C163.643 30.4031 164.264 30.9405 164.264 31.8618C164.264 32.7831 163.488 33.7044 161.938 33.7044Z" fill="#595757"/>
<path d="M165.736 33.6276V27.6392H166.744V33.6276H165.736Z" fill="#595757"/>
<path d="M170.62 32.9367C169.612 32.9367 169.225 32.0921 169.225 30.5566C169.225 29.0979 169.612 28.3301 170.62 28.3301C171.706 28.3301 172.016 29.2515 172.016 30.7102C171.938 32.2457 171.473 32.9367 170.62 32.9367ZM170.62 33.7044C172.171 33.7044 173.101 32.476 173.101 30.6334C173.101 28.8676 172.248 27.5624 170.62 27.5624C169.147 27.5624 168.14 28.6372 168.14 30.6334C168.062 32.3992 168.915 33.7044 170.62 33.7044Z" fill="#595757"/>
<path d="M177.441 33.6276L176.123 30.8637C175.813 30.1727 175.503 29.4818 175.348 29.0979C175.426 29.6353 175.426 30.2495 175.426 30.787V33.7044H174.418V27.6392H175.581L177.054 30.5566C177.364 31.0941 177.596 31.785 177.674 32.0921C177.674 31.785 177.596 30.9405 177.596 30.4031V27.7159H178.526V33.7044H177.441V33.6276Z" fill="#595757"/>
<path d="M127.595 6.52591V16.0461H124.805V17.5816H127.595V19.8081H129.688V6.52591H127.595Z" fill="#595757"/>
<path d="M117.209 6.75624V8.21497H123.333V13.8196H125.426V6.75624H117.209Z" fill="#595757"/>
<path d="M128.526 13.1286H116.666V14.5873H121.085V18.119H123.1V14.5873H128.526V13.1286Z" fill="#595757"/>
<path d="M160.93 14.4338H149.225V15.9693H153.643V18.8868H155.581V15.9693H160.93V14.4338Z" fill="#595757"/>
<path d="M160.078 6.52591V17.0441H157.287V18.5797H160.078V19.8081H162.171V6.52591H160.078Z" fill="#595757"/>
<path d="M150.232 10.0576C150.232 7.98464 152.093 6.37236 154.418 6.37236C156.744 6.37236 158.605 8.06142 158.605 10.0576C158.605 12.1305 156.744 13.7428 154.418 13.7428C152.093 13.7428 150.232 12.1305 150.232 10.0576ZM154.418 12.2073C155.581 12.2073 156.434 11.2092 156.434 10.0576C156.434 8.90595 155.504 7.90787 154.418 7.90787C153.256 7.90787 152.403 8.90595 152.403 10.0576C152.403 11.2092 153.256 12.2073 154.418 12.2073Z" fill="#595757"/>
<path d="M145.97 6.52591H143.877V22.8023H145.97V6.52591Z" fill="#595757"/>
<path d="M145.039 15.739H132.559V17.2745H136.745V22.8023H138.838V17.2745H145.039V15.739Z" fill="#595757"/>
<path d="M133.412 10.3647C133.412 8.13819 135.35 6.37236 137.831 6.37236C140.234 6.37236 142.249 8.13819 142.249 10.3647C142.249 12.5912 140.311 14.357 137.831 14.357C135.35 14.4338 133.412 12.5912 133.412 10.3647ZM137.831 12.8215C139.071 12.8215 140.079 11.7466 140.079 10.3647C140.079 8.98272 139.071 7.90787 137.831 7.90787C136.59 7.90787 135.583 9.0595 135.583 10.3647C135.505 11.7466 136.513 12.8215 137.831 12.8215Z" fill="#595757"/>
<path d="M178.527 6.52591H176.434V22.8023H178.527V6.52591Z" fill="#595757"/>
<path d="M171.473 17.5048V14.8177H169.38V17.5048H165.504V18.9635H177.054V17.5048H171.473Z" fill="#595757"/>
<path d="M171.472 7.90786V6.14203H169.379V7.90786H165.891V9.3666H175.038V7.90786H171.472Z" fill="#595757"/>
<path d="M166.277 12.2073C166.277 10.1344 168.138 8.4453 170.386 8.4453C172.634 8.4453 174.494 10.1344 174.494 12.2073C174.494 14.2802 172.634 15.9693 170.386 15.9693C168.138 15.9693 166.277 14.2802 166.277 12.2073ZM170.463 14.357C171.549 14.357 172.479 13.4357 172.479 12.2073C172.479 11.0557 171.626 10.0576 170.463 10.0576C169.378 10.0576 168.448 10.9789 168.448 12.2073C168.448 13.3589 169.301 14.357 170.463 14.357Z" fill="#595757"/>
<path d="M91.7818 6.75624H83.0996V8.21497H91.7818V6.75624Z" fill="#595757"/>
<path d="M93.9529 6.52591V10.8253H90.9297V12.2841H93.9529V22.8023H96.046V6.52591H93.9529Z" fill="#595757"/>
<path d="M82.7129 17.5048V15.8925C84.3408 15.3551 86.3563 13.8964 86.3563 9.75049H87.9842V13.1286C87.7517 13.9731 86.5113 16.6603 82.7129 17.5048Z" fill="#595757"/>
<path d="M92.1698 17.5048V15.8925C90.5419 15.3551 88.5263 13.8964 88.5263 9.75049H86.8984V13.1286C87.131 13.9731 88.4488 16.6603 92.1698 17.5048Z" fill="#595757"/>
<path d="M88.526 7.60077H86.3555V9.82726H88.526V7.60077Z" fill="#595757"/>
<path d="M114.728 9.3666H112.558V6.52591H110.465V15.2015H112.558V10.9021H114.728V9.3666Z" fill="#595757"/>
<path d="M101.316 16.3532V17.8119H110.464V22.8023H112.557V16.3532H101.316Z" fill="#595757"/>
<path d="M108.76 6.75624H100V8.21497H108.76V6.75624Z" fill="#595757"/>
<path d="M99.6895 14.7409V13.1286C101.782 12.5144 103.333 11.3628 103.333 8.52206H104.883V11.1324C104.651 12.0537 103.41 13.9731 99.6895 14.7409Z" fill="#595757"/>
<path d="M105.503 7.21689H103.332V8.7524H105.503V7.21689Z" fill="#595757"/>
<path d="M109.147 14.7409V13.1286C107.054 12.5144 105.504 11.3628 105.504 8.52206H103.953V11.1324C104.186 12.0537 105.426 13.9731 109.147 14.7409Z" fill="#595757"/>
<path d="M80.3876 12.8215H65.5039V14.2802H80.3876V12.8215Z" fill="#595757"/>
<path d="M67.0547 6.75624V8.21497H76.5896V13.2822H78.6826V6.75624H67.0547Z" fill="#595757"/>
<path d="M67.5195 16.5067V17.9654H76.2017V22.8023H78.2947V16.5067H67.5195Z" fill="#595757"/>
<path d="M73.6438 13.5125H71.5508V17.1977H73.6438V13.5125Z" fill="#595757"/>
<path d="M49.3789 12.0537C49.3789 9.90403 51.2394 8.1382 53.565 8.1382C55.8905 8.1382 57.751 9.90403 57.751 12.0537C57.751 14.2035 55.8905 15.9693 53.565 15.9693C51.2394 15.9693 49.3789 14.2035 49.3789 12.0537ZM53.565 14.5106C54.7277 14.5106 55.658 13.4357 55.658 12.1305C55.658 10.8253 54.7277 9.75048 53.565 9.75048C52.4022 9.75048 51.4719 10.8253 51.4719 12.1305C51.4719 13.3589 52.4022 14.5106 53.565 14.5106Z" fill="#595757"/>
<path d="M58.1395 7.52399H48.9922V8.98272H58.1395V7.52399Z" fill="#595757"/>
<path d="M64.2638 10.0576H60.7754V11.5163H64.2638V10.0576Z" fill="#595757"/>
<path d="M54.6516 5.83493H52.5586V7.98464H54.6516V5.83493Z" fill="#595757"/>
<path d="M62.1711 6.52591H60.0781V17.6583H62.1711V6.52591Z" fill="#595757"/>
<path d="M53.72 21.3436V17.5816H51.627V21.4971C51.627 22.3417 52.1696 22.8023 52.8673 22.8023H62.3246V21.3436H53.72Z" fill="#595757"/>
<path d="M129.844 21.3436H120.154V16.8906H118.139V21.4971C118.139 22.3417 118.681 22.8023 119.379 22.8023H129.767V21.3436H129.844Z" fill="#595757"/>
<path d="M162.325 21.3436H152.635V17.5816H150.619V21.4971C150.619 22.3417 151.162 22.8023 151.859 22.8023H162.247V21.3436H162.325Z" fill="#595757"/>
<path d="M18.9914 25.643C18.9914 25.1823 18.9914 24.7217 19.069 24.3378C18.3713 24.4914 17.5186 24.6449 16.5883 24.6449C11.7046 24.6449 7.90617 21.19 7.90617 15.8925C7.90617 14.5873 8.13873 13.3589 8.52633 12.2841L2.4023 18.2726C1.39455 19.2706 1.39455 20.8829 2.4023 21.8042L19.379 38.5413C20.3868 39.5394 22.0147 39.5394 22.9449 38.5413L27.131 34.3954C22.5573 34.0883 18.9914 30.7102 18.9914 25.643Z" fill="#EA5504"/>
<path d="M39.7664 18.2726L22.9446 1.61228C21.9369 0.614204 20.309 0.614204 19.3788 1.61228L13.3322 7.60077C14.34 7.21689 15.5028 6.98657 16.6656 6.98657C19.6113 6.98657 22.0144 8.21497 23.9524 9.90403L21.6268 12.2841C19.9989 10.9021 18.526 10.2111 16.7431 10.2111C14.0299 10.2111 11.8594 12.3608 11.8594 15.8157C11.8594 19.1171 13.8749 21.4971 16.8981 21.4971C18.7586 21.4971 20.1539 20.6526 21.4718 19.4242C23.1772 17.7351 25.2702 16.8138 27.8284 16.8138C30.7741 16.8138 33.1772 18.0422 35.1152 19.7313L32.7896 22.1113C31.1617 20.7294 29.6888 20.0384 27.9059 20.0384C25.1927 20.0384 23.0222 22.1881 23.0222 25.643C23.0222 28.9443 25.0377 31.3244 28.0609 31.3244C29.9214 31.3244 31.3167 30.4798 32.6346 29.2514L39.9989 21.9578C40.7741 20.8829 40.7741 19.2706 39.7664 18.2726Z" fill="#EA5504"/>
</svg>
