<svg width="180" height="23" viewBox="0 0 180 23" fill="none" xmlns="http://www.w3.org/2000/svg">
<path d="M58.1542 8.94444C58.1542 7.99524 57.8588 7.19206 57.3788 6.53492H59.0404V4.81904H55.3111V2.48254H52.5788V4.81904H48.8496V6.53492H50.5111C50.0311 7.19206 49.7358 7.99524 49.7358 8.94444C49.7358 11.354 51.6188 12.9238 53.945 12.9238C56.2711 12.9238 58.1542 11.354 58.1542 8.94444ZM52.3204 8.94444C52.3204 7.52063 53.0219 6.60793 53.945 6.60793C54.8311 6.60793 55.5327 7.52063 55.5327 8.94444C55.5327 10.3317 54.8311 11.2444 53.945 11.2444C53.0588 11.2444 52.3204 10.3317 52.3204 8.94444Z" fill="#0963A5"/>
<path d="M33.1188 2.95714L26.4727 19.9698H30.3496L31.3465 17.2317H38.6203L39.5803 19.9698H43.568L37.0696 2.95714H33.1188ZM32.3803 14.4571L35.0757 7.08253L37.6603 14.4206H32.3803V14.4571Z" fill="#213A77"/>
<path d="M24.9591 2.95714H21.1191V19.9698H24.9591V2.95714Z" fill="#213A77"/>
<path d="M14.141 14.4571L6.79331 2.95714H2.99023V19.9698H6.57177V8.50634L13.8825 19.9698H17.7225V2.95714H14.141V14.4571Z" fill="#213A77"/>
<path d="M167.556 9.49206C169.809 9.49206 171.618 8.10476 171.618 5.9873C171.618 3.86984 169.809 2.44603 167.556 2.44603C165.304 2.44603 163.532 3.83333 163.532 5.9873C163.495 8.10476 165.304 9.49206 167.556 9.49206ZM167.556 4.12539C168.369 4.12539 168.996 4.81905 168.996 5.9873C168.996 7.11905 168.369 7.8127 167.556 7.8127C166.744 7.8127 166.116 7.11905 166.116 5.9873C166.116 4.85555 166.744 4.12539 167.556 4.12539Z" fill="#0963A5"/>
<path d="M99.9507 12.3762H110.437C110.769 12.3762 110.88 12.2302 110.88 11.9381V3.39523H108.258V6.24285H102.092V3.39523H99.4707V11.9381C99.5076 12.2667 99.6184 12.3762 99.9507 12.3762ZM108.258 7.95872V10.4778C108.258 10.6238 108.185 10.6968 108.037 10.6968H102.314C102.166 10.6968 102.092 10.6238 102.092 10.4778V7.95872H108.258Z" fill="#0963A5"/>
<path d="M170.805 12.9238V14.6032H173.906V15.8809H176.528V2.99364H173.906V12.9238H170.805Z" fill="#0963A5"/>
<path d="M144.848 2.99364H142.227V15.1873H144.848V2.99364Z" fill="#0963A5"/>
<path d="M149.574 7.19206C149.574 9.09047 151.457 10.2952 153.894 10.2952C156.257 10.2952 158.214 9.05397 158.214 7.19206C158.214 6.60793 158.03 6.09682 157.697 5.65873H159.728L159.765 4.05238H155.261V2.26349H152.528V4.05238H148.061V5.65873H150.054C149.759 6.13333 149.574 6.64444 149.574 7.19206ZM153.894 8.65238C152.934 8.65238 152.159 8.10476 152.159 7.19206C152.159 6.31587 152.934 5.73174 153.894 5.73174C154.817 5.73174 155.63 6.31587 155.63 7.19206C155.63 8.10476 154.854 8.65238 153.894 8.65238Z" fill="#0963A5"/>
<path d="M153.896 13.4714C151.2 13.4714 149.059 14.8587 149.059 17.0127C149.059 19.1302 151.2 20.554 153.896 20.554C156.554 20.554 158.732 19.1667 158.732 17.0127C158.732 14.8587 156.591 13.4714 153.896 13.4714ZM153.896 18.8746C152.64 18.8746 151.643 18.1444 151.643 17.0127C151.643 15.881 152.677 15.1508 153.896 15.1508C155.114 15.1508 156.148 15.9175 156.148 17.0127C156.148 18.1444 155.114 18.8746 153.896 18.8746Z" fill="#0963A5"/>
<path d="M161.427 11.0619H146.51V12.8143H161.427V11.0619Z" fill="#0963A5"/>
<path d="M136.799 18.0349V14.019H134.178V19.4952C134.178 19.7873 134.325 19.9333 134.621 19.9333H145.218V18.254H137.021C136.873 18.254 136.799 18.1809 136.799 18.0349Z" fill="#0963A5"/>
<path d="M55.2368 18.0349V14.2746H52.6152V19.5317C52.6152 19.8238 52.7629 19.9698 53.0583 19.9698H63.6552V18.254H55.4583C55.3106 18.254 55.2368 18.1809 55.2368 18.0349Z" fill="#0963A5"/>
<path d="M166.043 14.4206H168.665V11.9746H172.874V10.2222H162.24V11.9746H166.043V14.4206Z" fill="#0963A5"/>
<path d="M127.642 2.99365H125.02V15.0048H120.257V12.5587C121.882 12.0841 123.1 10.7333 123.1 8.87143C123.1 7.95873 122.842 7.19206 122.362 6.57143H123.839V4.85555H120.331V2.48254H117.599V4.81904H114.091V6.53492H115.568C115.125 7.15555 114.83 7.92222 114.83 8.83492C114.83 10.6968 116.011 12.0841 117.673 12.5222V14.9683H113.943V16.7206H125.02V20.1524H127.642V9.6746H129.82V7.92222H127.642V2.99365ZM118.965 6.60793C119.777 6.60793 120.479 7.44762 120.479 8.83492C120.479 10.1857 119.814 11.0254 118.965 11.0254C118.116 11.0254 117.451 10.1857 117.451 8.83492C117.451 7.44762 118.116 6.60793 118.965 6.60793Z" fill="#0963A5"/>
<path d="M168.48 18.254C168.332 18.254 168.258 18.181 168.258 18.0349V15.2238H165.637V19.5317C165.637 19.8238 165.784 19.9698 166.08 19.9698H176.898V18.254H168.48Z" fill="#0963A5"/>
<path d="M135.766 10.4413C136.763 11.719 138.277 12.6317 140.197 13.2159L141.046 11.6825C138.572 10.8794 136.948 9.30952 136.948 7.00952V5.11111H140.086V3.39523H131.298V5.11111H134.326V7.19206C134.326 9.52857 132.923 10.9889 130.449 11.8286L131.298 13.3619C133.329 12.7413 134.806 11.7556 135.766 10.4413Z" fill="#0963A5"/>
<path d="M79.4579 3.6873C79.4579 3.39524 79.3472 3.24921 79.0149 3.24921H67.7164V4.96508H76.5779C76.7256 4.96508 76.7995 5.0381 76.7995 5.18413V9.45556H66.0918V11.2079H72.2579V14.019H67.901V15.7349H76.541C76.6887 15.7349 76.7626 15.8079 76.7626 15.954V20.2254H79.3841V14.4206C79.3841 14.1286 79.2364 13.9825 78.941 13.9825H74.8426V11.1714H81.0087V9.41905H79.4579V3.6873Z" fill="#0963A5"/>
<path d="M63.2114 2.99364H60.5898V15.1873H63.2114V9.2365H65.4268V7.52063H63.2114V2.99364Z" fill="#0963A5"/>
<path d="M91.4209 11.8651L92.2701 10.3317C89.7963 9.52857 88.3932 8.03174 88.3932 5.69523V5.11111H91.4209V3.39523H82.8547V5.11111H85.8086V5.91428C85.8086 8.25079 84.4055 9.7111 81.9316 10.5508L82.7809 12.0841C84.7378 11.4635 86.2516 10.5143 87.1747 9.19999C88.1347 10.4048 89.5747 11.2809 91.4209 11.8651Z" fill="#0963A5"/>
<path d="M91.0148 12.5587C88.5778 12.5587 86.584 14.1651 86.584 16.5746C86.584 18.9841 88.5778 20.554 91.0148 20.554C93.4517 20.554 95.4455 18.9841 95.4455 16.5746C95.4455 14.1651 93.4517 12.5587 91.0148 12.5587ZM91.0148 18.8746C90.0178 18.8746 89.2055 17.9619 89.2055 16.5746C89.2055 15.1508 90.0178 14.2381 91.0148 14.2381C92.0117 14.2381 92.824 15.1508 92.824 16.5746C92.824 17.9619 92.0117 18.8746 91.0148 18.8746Z" fill="#0963A5"/>
<path d="M93.7093 6.68095H90.6816V8.36031H93.7093V12.5587H96.2939V2.99364H93.7093V6.68095Z" fill="#0963A5"/>
<path d="M106.485 13.0333H103.863V16.2825H97.6973V18.0349H112.651V16.2825H106.485V13.0333Z" fill="#0963A5"/>
</svg>
