<svg width="100" height="40" viewBox="0 0 115 54" fill="none" xmlns="http://www.w3.org/2000/svg">
<path d="M1.62891 31.1032H6.00501V40.3227H6.10678L13.536 31.1032H18.2174L9.87227 40.6266L19.0316 52.1764H13.6378L6.10678 41.9437H6.00501V52.1764H1.62891V31.1032Z" fill="#005097"/>
<path d="M44.5749 37.6886C44.5749 37.8912 42.1325 48.4278 42.1325 48.4278C42.1325 48.4278 38.5705 37.8912 38.4687 37.6886C38.367 37.6886 36.6369 37.6886 36.5351 37.6886C36.5351 37.7899 33.2785 48.5291 33.2785 48.5291C33.2785 48.5291 30.6325 37.7899 30.5307 37.6886C30.3272 37.6886 27.2741 37.6886 26.9688 37.6886C27.0705 37.9925 30.9378 51.9737 31.0395 52.1764C31.2431 52.1764 34.1944 52.1764 34.398 52.1764C34.398 52.0751 37.451 42.9569 37.451 42.9569C37.451 42.9569 40.8095 52.0751 40.8095 52.1764C40.9112 52.1764 43.9643 52.1764 44.1679 52.1764C44.1679 51.9737 47.628 37.9925 47.7298 37.6886C47.4245 37.6886 44.6767 37.6886 44.5749 37.6886Z" fill="#005097"/>
<path d="M59.0265 49.9475C59.0265 49.9475 59.0265 51.9737 59.0265 52.1764C59.23 52.1764 62.6902 52.1764 62.8937 52.1764C62.8937 51.9737 62.8937 42.349 62.8937 42.349C62.8937 39.7148 62.1813 37.3846 56.8893 37.3846C52.7167 37.3846 50.4778 38.9043 50.4778 41.8424C50.6813 41.8424 54.4468 41.8424 54.6504 41.8424C54.6504 41.7411 54.6504 41.7411 54.6504 41.7411C54.7521 40.728 54.8539 38.6004 56.8893 38.6004C58.4159 38.6004 59.0265 39.5122 59.0265 41.5385V44.0713H58.9247C56.6858 44.1726 49.8672 44.4766 49.8672 48.833C49.8672 50.8593 51.8008 52.379 54.2433 52.379C57.4999 52.4803 59.0265 49.9475 59.0265 49.9475ZM55.8716 50.6567C54.6504 50.6567 53.938 49.8462 53.938 48.5291C53.938 46.8068 55.6681 45.7936 58.9247 45.4897H59.0265V46.6041C59.0265 48.6304 57.907 50.6567 55.8716 50.6567Z" fill="#005097"/>
<path d="M73.376 52.4803C74.2919 52.4803 75.2078 52.379 76.1238 52.2777C76.1238 52.0751 76.1238 50.5554 76.1238 50.3527C75.5131 50.5554 74.9025 50.5554 74.3937 50.5554C72.7653 50.5554 72.1547 49.9475 72.1547 48.0225V39.2083C72.1547 39.2083 76.5308 39.2083 76.7344 39.2083C76.7344 39.0056 76.7344 37.7899 76.7344 37.5872C76.5308 37.5872 72.1547 37.5872 72.1547 37.5872C72.1547 37.5872 72.1547 32.319 72.1547 31.9137C71.8494 32.1163 68.3892 33.94 68.2875 34.0413C68.2875 34.1426 68.2875 37.5872 68.2875 37.5872C68.2875 37.5872 65.4379 37.5872 65.2344 37.5872C65.2344 37.7899 65.2344 39.0056 65.2344 39.2083C65.4379 39.2083 68.2875 39.2083 68.2875 39.2083V48.4278C68.2875 51.8724 70.2211 52.4803 73.376 52.4803Z" fill="#005097"/>
<path d="M85.8953 52.4803C88.236 52.4803 89.1519 52.1764 90.9838 51.4672C90.9838 51.3659 90.9838 50.3527 90.9838 50.1501C90.1696 50.454 89.0502 50.758 87.9307 50.758C83.1475 50.758 81.621 45.6923 81.621 43.2608V43.1595C81.621 43.1595 90.9838 43.1595 91.2891 43.1595C91.2891 43.0582 91.2891 42.7542 91.2891 42.7542C91.2891 39.3096 89.0502 37.3846 84.8776 37.3846C80.1962 37.3846 77.8555 39.7148 77.8555 44.2739C77.8555 51.6698 83.4528 52.4803 85.8953 52.4803ZM81.7227 41.7411C81.8245 40.8293 82.4351 38.6004 84.7758 38.6004C87.5236 38.6004 87.6254 41.4372 87.6254 41.7411V41.8424H81.7227V41.7411Z" fill="#005097"/>
<path d="M103.908 41.0319C103.908 40.8293 103.908 37.5872 103.908 37.3846C101.058 37.5872 99.6334 39.4109 98.514 41.3358L98.4122 41.5385C98.4122 41.5385 98.4122 37.8912 98.4122 37.6886C98.2086 37.6886 94.7485 37.6886 94.5449 37.6886C94.5449 37.8912 94.5449 51.9737 94.5449 52.1764C94.7485 52.1764 98.2086 52.1764 98.4122 52.1764C98.4122 51.9737 98.4122 45.6923 98.4122 45.6923C98.4122 42.349 99.9387 41.0319 103.908 41.0319Z" fill="#005097"/>
<path d="M26.9688 30.9006C38.1634 24.0113 51.2918 19.9587 65.336 19.9587C79.482 19.9587 92.7121 24.0113 103.907 31.0019V21.3771C92.5086 15.197 79.5838 11.7523 65.7431 11.651C51.0882 14.5891 37.8581 21.2758 26.9688 30.6979V30.9006Z" fill="url(#paint0_linear_74_11008)"/>
<path d="M26.9688 21.3771V30.7992C37.7564 21.3771 51.0882 14.5891 65.7431 11.7523C65.6413 11.7523 65.4378 11.7523 65.2342 11.7523C51.4953 11.651 38.367 15.197 26.9688 21.3771Z" fill="#005097"/>
<path d="M81.6192 1.82364C61.6723 1.82364 42.7431 8.20638 26.9688 19.9587V21.2758C38.367 15.0957 51.4953 11.651 65.336 11.651C65.5395 11.651 65.6413 11.651 65.8449 11.651C71.0351 10.6379 76.3272 10.1313 81.721 10.1313C93.0174 10.1313 103.805 12.3602 113.677 16.5141V7.5985C103.601 3.84991 92.9156 1.82364 81.6192 1.82364Z" fill="url(#paint1_linear_74_11008)"/>
<defs>
<linearGradient id="paint0_linear_74_11008" x1="26.9872" y1="21.3966" x2="103.901" y2="21.3966" gradientUnits="userSpaceOnUse">
<stop offset="0.4" stop-color="#00B9EF"/>
<stop offset="1" stop-color="#4694D1"/>
</linearGradient>
<linearGradient id="paint1_linear_74_11008" x1="26.9872" y1="11.5951" x2="113.571" y2="11.5951" gradientUnits="userSpaceOnUse">
<stop stop-color="#ED6C00"/>
<stop offset="1" stop-color="#FDD000"/>
</linearGradient>
</defs>
</svg>
