<svg width="180" height="34" viewBox="0 0 180 34" fill="none" xmlns="http://www.w3.org/2000/svg">
<path d="M56.374 17.6497C55.9754 17.1927 55.5198 16.7929 55.1212 16.4502C55.4059 16.1646 55.6907 15.879 55.9754 15.5934L66.7378 2.68458H57.5129L51.306 10.11C49.5976 12.1092 48.5726 12.9659 46.7504 12.9659C44.9282 12.9659 43.9032 12.1092 42.1949 10.11L35.988 2.68458H26.7631L37.5825 15.5934C37.8672 15.9361 38.1519 16.2217 38.4366 16.5073C38.038 16.85 37.6394 17.2498 37.2408 17.7068L31.7742 23.9898H20.8979C14.634 23.9898 10.7618 20.2771 10.7618 14.3368V3.02729H2.67578V14.2797C2.67578 27.5312 12.2993 30.9583 20.5562 30.9583H33.8811C34.9061 30.9583 35.4755 30.7298 35.988 30.1015L42.081 23.0759C43.8463 21.0768 44.9282 20.22 46.8074 20.22C48.7435 20.22 49.7685 21.0768 51.5337 23.0759L58.367 30.9012H67.9906L56.374 17.6497Z" fill="#00A88E"/>
<path d="M98.1704 21.8765C98.2843 21.4766 98.3412 21.0768 98.3412 20.677V17.7639H89.8566V18.9634H96.3482V20.677C96.3482 21.0768 96.3482 21.4195 96.2913 21.7622C96.2343 22.1049 96.1774 22.4476 96.0635 22.7332H88.5469V23.9898H93.0454V25.8748H89.5149V27.0743H96.6329V30.8441H98.569V25.8748H94.9246V23.9898H100.448V22.7904H97.6579C97.9426 22.619 98.0565 22.2763 98.1704 21.8765Z" fill="#003A6A"/>
<path d="M111.838 21.8765C111.952 21.4766 112.009 21.0768 112.009 20.677V17.7639H103.525V18.9634H110.016V20.677C110.016 21.0768 110.016 21.4195 109.959 21.7622C109.902 22.1049 109.845 22.4476 109.731 22.7332H102.215V23.9898H106.713V25.8748H103.24V27.0743H110.358V30.8441H112.294V25.8748H108.65V23.9898H114.173V22.7904H111.383C111.611 22.619 111.724 22.2763 111.838 21.8765Z" fill="#003A6A"/>
<path d="M148.224 23.0759V17.8781H150.16V22.8475C150.16 23.3615 149.989 23.6471 149.762 23.8756C149.477 24.1041 149.078 24.2183 148.623 24.2183H143.327C142.871 24.2183 142.473 24.1041 142.188 23.8756C141.903 23.6471 141.732 23.3615 141.732 22.8475V17.821H143.669V23.0188H148.224V23.0759Z" fill="#003A6A"/>
<path d="M124.764 19.0205V17.821H116.564V22.8475C116.564 23.2473 116.678 23.59 116.963 23.8756C117.248 24.1612 117.646 24.2754 118.102 24.2754H124.707V23.0759H118.444V21.5909H124.48V20.3914H118.444V19.0205H124.764Z" fill="#003A6A"/>
<path d="M149.477 19.8202H142.473V21.0197H149.477V19.8202Z" fill="#003A6A"/>
<path d="M160.183 20.5056C160.183 20.9054 160.183 21.2481 160.126 21.5909C160.069 21.9336 160.012 22.2763 159.899 22.5619H161.55C161.721 22.3905 161.835 22.1049 161.949 21.7051C162.062 21.2481 162.119 20.8483 162.119 20.4485V17.821H153.635V19.0205H160.126V20.5056H160.183Z" fill="#003A6A"/>
<path d="M157.507 20.8483H155.571V23.3615H152.211V24.6181H163.657V23.3615H157.507V20.8483Z" fill="#003A6A"/>
<path d="M121.86 27.5883V25.3607H119.81V27.5883H115.426V28.7878H126.359V27.5883H121.86Z" fill="#003A6A"/>
<path d="M146.915 27.5883V25.3607H144.978V27.5883H140.594V28.7878H151.299V27.5883H146.915Z" fill="#003A6A"/>
<path d="M175.501 20.8483V17.7068H173.564V30.9012H175.501V22.1049H177.494V20.8483H175.501Z" fill="#003A6A"/>
<path d="M136.437 20.0487H134.273V21.2481H136.437V24.561H138.373V17.7639H136.437V20.0487Z" fill="#003A6A"/>
<path d="M131.255 22.5619C132.451 22.7904 133.989 23.59 134.786 24.2754L135.583 23.3044C135.014 22.6761 133.078 21.5909 132.053 21.3053C132.223 20.8483 132.337 20.3914 132.337 19.8773V19.1348H134.615V17.9353H128.124V19.1348H130.401V19.8773C130.401 20.7912 130.06 22.6761 127.668 23.1331V24.3326C127.953 24.3326 128.237 24.2754 128.522 24.2183C129.49 23.9327 130.515 23.3615 131.255 22.5619Z" fill="#003A6A"/>
<path d="M85.4716 17.7068H83.4785V25.989H85.4716V21.9907H87.2938V20.7341H85.4716V17.7068Z" fill="#003A6A"/>
<path d="M79.2076 26.3888H77.2715V29.4161C77.2715 29.8731 77.4423 30.2158 77.727 30.4443C78.0118 30.6727 78.4104 30.8441 78.8659 30.8441H85.9839V29.7017H79.2645V26.3888H79.2076Z" fill="#003A6A"/>
<path d="M137.235 25.989C136.495 25.4178 135.64 25.0751 134.615 25.0751C133.59 25.0751 132.736 25.3607 131.996 25.989C131.256 26.6173 130.914 27.3027 130.914 28.1595C130.914 29.0163 131.256 29.7017 131.996 30.33C132.736 30.9012 133.59 31.2439 134.615 31.2439C135.64 31.2439 136.552 30.9583 137.235 30.33C137.975 29.7588 138.317 29.0163 138.317 28.1595C138.317 27.3027 137.975 26.6173 137.235 25.989ZM134.615 29.9873C133.647 29.9873 132.85 29.1305 132.85 28.1024C132.85 27.0743 133.647 26.2175 134.615 26.2175C135.583 26.2175 136.381 27.0743 136.381 28.1024C136.381 29.1305 135.583 29.9873 134.615 29.9873Z" fill="#003A6A"/>
<path d="M160.524 25.989C159.784 25.4178 158.929 25.0751 157.904 25.0751C156.879 25.0751 156.025 25.3607 155.285 25.989C154.545 26.6173 154.203 27.3027 154.203 28.1595C154.203 29.0163 154.545 29.7017 155.285 30.33C156.025 30.9012 156.879 31.2439 157.904 31.2439C158.929 31.2439 159.841 30.9583 160.524 30.33C161.264 29.7588 161.606 29.0163 161.606 28.1595C161.606 27.3027 161.264 26.6173 160.524 25.989ZM157.904 29.9873C156.936 29.9873 156.139 29.1305 156.139 28.1024C156.139 27.0743 156.936 26.2175 157.904 26.2175C158.873 26.2175 159.67 27.0743 159.67 28.1024C159.67 29.1305 158.873 29.9873 157.904 29.9873Z" fill="#003A6A"/>
<path d="M80.8035 23.9898C81.4868 23.4187 81.8854 22.6761 81.8854 21.8765C81.8854 21.0768 81.5438 20.4485 80.9743 19.8773H82.0563V18.6778H79.2091V17.7068H77.273V18.6778H74.4258V19.8773H75.5647C74.9383 20.4485 74.6536 21.1339 74.6536 21.8765C74.6536 22.7332 74.9952 23.4187 75.7355 23.9898C76.4188 24.561 77.3299 24.8466 78.298 24.8466C79.2091 24.8466 80.0632 24.561 80.8035 23.9898ZM76.4758 21.8193C76.4758 20.7912 77.273 19.9915 78.1841 19.9915C79.1521 19.9915 79.8924 20.7912 79.8924 21.8193C79.8924 22.8475 79.0952 23.6471 78.1841 23.6471C77.273 23.6471 76.4758 22.8475 76.4758 21.8193Z" fill="#003A6A"/>
<path d="M169.636 22.162C169.749 21.7622 169.863 21.3624 169.863 20.8483V17.821H167.813V20.4485C167.813 21.9907 167.244 23.4758 165.08 23.9898V25.3036C165.763 25.2465 167.073 24.8466 167.7 24.3897C167.984 24.2183 168.383 23.9327 168.781 23.5329C169.863 23.9898 170.945 24.6753 171.686 25.4749L172.654 24.4468C172.255 23.7043 170.661 22.619 169.636 22.162Z" fill="#003A6A"/>
</svg>
