<svg width="180" height="52" viewBox="0 0 180 52" fill="none" xmlns="http://www.w3.org/2000/svg">
<g clip-path="url(#clip0_66_22123)">
<mask id="mask0_66_22123" style="mask-type:luminance" maskUnits="userSpaceOnUse" x="-96" y="-105" width="364" height="256">
<path d="M267.697 -104.936H-95.5469V150.28H267.697V-104.936Z" fill="white"/>
</mask>
<g mask="url(#mask0_66_22123)">
<mask id="mask1_66_22123" style="mask-type:luminance" maskUnits="userSpaceOnUse" x="-96" y="-105" width="364" height="256">
<path d="M267.697 -104.936H-95.5469V150.28H267.697V-104.936Z" fill="white"/>
</mask>
<g mask="url(#mask1_66_22123)">
<path d="M23.3373 26.9359C22.7094 20.7999 29.0931 16.0159 37.6745 16.0159C46.2559 16.1199 53.6862 21.0079 54.4187 27.1439C55.0466 33.1759 48.6629 38.0639 40.1862 37.9599C31.5001 37.9599 24.0699 32.9679 23.3373 26.9359ZM55.9885 28.8079C55.2559 21.3199 46.5699 15.1839 36.7327 15.0799C26.8955 14.9759 19.5699 21.0079 20.3024 28.4959C21.035 35.9839 29.721 42.1199 39.5582 42.2239C49.3955 42.3279 56.721 36.2959 55.9885 28.8079Z" fill="#F9A984"/>
</g>
<mask id="mask2_66_22123" style="mask-type:luminance" maskUnits="userSpaceOnUse" x="-96" y="-105" width="364" height="256">
<path d="M267.697 -104.936H-95.5469V150.28H267.697V-104.936Z" fill="white"/>
</mask>
<g mask="url(#mask2_66_22123)">
<path d="M41.0222 42.432C36.2083 47.424 28.3594 47.84 23.6501 43.368C18.9408 38.896 18.9408 31.096 23.8594 26.104C28.6734 21.112 36.5222 20.696 41.2315 25.168C46.0455 29.64 45.9408 37.336 41.0222 42.432ZM23.1269 25.896C17.4757 31.72 17.3711 40.768 22.9176 45.968C28.4641 51.272 37.4641 50.752 43.1152 44.928C48.7664 39.104 48.8711 30.056 43.3245 24.856C37.778 19.552 28.778 19.968 23.1269 25.896Z" fill="#F47C4B"/>
</g>
<mask id="mask3_66_22123" style="mask-type:luminance" maskUnits="userSpaceOnUse" x="-96" y="-105" width="364" height="256">
<path d="M267.697 -104.936H-95.5469V150.28H267.697V-104.936Z" fill="white"/>
</mask>
<g mask="url(#mask3_66_22123)">
<path d="M23.6511 6.96794C33.6976 3.22394 43.7441 6.96794 45.9418 15.4959C48.1395 23.9199 41.7557 33.7999 31.7092 37.5439C21.6627 41.2879 11.6162 37.5439 9.41852 29.0159C7.1162 20.6959 13.4999 10.8159 23.6511 6.96794ZM14.2325 10.1919C3.76736 18.4079 1.15108 30.3679 8.26736 36.8159C15.4883 43.2639 29.7209 41.9119 40.186 33.5919C50.7557 25.4799 53.372 13.5199 46.1511 7.07194C39.0348 0.623938 24.6976 1.97594 14.2325 10.1919Z" fill="#F15A28"/>
</g>
<mask id="mask4_66_22123" style="mask-type:luminance" maskUnits="userSpaceOnUse" x="-96" y="-105" width="364" height="256">
<path d="M267.697 -104.936H-95.5469V150.28H267.697V-104.936Z" fill="white"/>
</mask>
<g mask="url(#mask4_66_22123)">
<path d="M79.5337 35.984H77.1268V26.416H65.5105V35.984H63.1035V17.472H65.5105V23.608H77.1268V17.472H79.5337V35.984Z" fill="#221E1F"/>
</g>
<mask id="mask5_66_22123" style="mask-type:luminance" maskUnits="userSpaceOnUse" x="-96" y="-105" width="364" height="256">
<path d="M267.697 -104.936H-95.5469V150.28H267.697V-104.936Z" fill="white"/>
</mask>
<g mask="url(#mask5_66_22123)">
<path d="M172.361 29.224H168.175C167.233 29.224 166.605 29.328 166.186 29.536C165.454 29.848 165.035 30.472 165.035 31.512C165.035 32.448 165.349 32.968 166.082 33.28C166.5 33.488 167.128 33.592 168.175 33.592H171.733C172.989 33.592 173.826 33.384 174.349 32.968C174.872 32.656 175.082 32.032 175.082 31.2C174.977 29.848 174.035 29.224 172.361 29.224ZM163.989 22.048H171.942C174.14 22.048 175.814 22.672 176.756 24.024C178.012 25.688 177.593 28.08 177.593 30.056V32.032C177.593 33.072 177.279 34.008 176.756 34.736C176.233 35.464 175.5 35.88 174.558 35.88C173.721 35.88 172.884 35.88 172.047 35.88H167.965C166.082 35.88 164.826 35.672 164.093 35.152C163.047 34.528 162.523 33.176 162.523 31.2C162.523 29.328 163.151 28.08 164.198 27.456C164.93 26.936 166.186 26.728 167.965 26.728H174.872C174.872 26 174.663 25.168 173.93 24.856C173.198 24.44 172.361 24.44 171.628 24.44H163.884L163.989 22.048Z" fill="#221E1F"/>
</g>
<mask id="mask6_66_22123" style="mask-type:luminance" maskUnits="userSpaceOnUse" x="-96" y="-105" width="364" height="256">
<path d="M267.697 -104.936H-95.5469V150.28H267.697V-104.936Z" fill="white"/>
</mask>
<g mask="url(#mask6_66_22123)">
<path d="M109.359 22.048C111.138 22.048 112.499 22.568 113.545 23.608C114.592 24.648 115.01 25.792 115.01 27.768V35.88H112.603V27.768C112.603 26.624 112.289 26.208 111.662 25.48C111.034 24.856 110.196 24.544 109.15 24.544H106.952C105.906 24.544 105.069 24.856 104.441 25.48C103.813 26.104 103.499 26.624 103.499 27.768V35.88H101.092V27.768C101.092 25.688 101.615 24.648 102.557 23.608C103.499 22.568 104.964 22.048 106.743 22.048H109.359Z" fill="#221E1F"/>
</g>
<mask id="mask7_66_22123" style="mask-type:luminance" maskUnits="userSpaceOnUse" x="-96" y="-105" width="364" height="256">
<path d="M267.697 -104.936H-95.5469V150.28H267.697V-104.936Z" fill="white"/>
</mask>
<g mask="url(#mask7_66_22123)">
<path d="M139.919 22.048V29.952C139.919 31.096 139.605 31.512 138.977 32.24C138.349 32.864 137.512 33.176 136.465 33.176H135C133.954 33.176 133.116 32.864 132.488 32.24C131.861 31.616 131.547 31.096 131.547 29.952V22.048H129.035V29.952C129.035 31.096 128.721 31.512 128.093 32.24C127.465 32.864 126.628 33.176 125.581 33.176H124.116C123.07 33.176 122.233 32.864 121.605 32.24C120.977 31.616 120.663 31.096 120.663 29.952V22.048H118.256V30.16C118.256 32.24 118.779 33.28 119.721 34.32C120.663 35.36 122.128 35.88 123.907 35.88H125.895C127.674 35.88 129.035 35.36 130.081 34.32C130.186 34.216 130.291 34.112 130.395 33.904C130.5 34.008 130.605 34.112 130.709 34.32C131.756 35.36 133.116 35.88 134.895 35.88H136.884C138.663 35.88 140.023 35.36 141.07 34.32C142.116 33.28 142.535 32.136 142.535 30.16V22.048H139.919Z" fill="#221E1F"/>
</g>
<mask id="mask8_66_22123" style="mask-type:luminance" maskUnits="userSpaceOnUse" x="-96" y="-105" width="364" height="256">
<path d="M267.697 -104.936H-95.5469V150.28H267.697V-104.936Z" fill="white"/>
</mask>
<g mask="url(#mask8_66_22123)">
<path d="M158.128 23.712C157.082 22.672 155.721 22.152 153.942 22.152H151.221C149.966 22.152 148.814 22.464 147.977 22.984V17.472H145.57V36.088H148.082V27.976C148.082 26.832 148.396 26.416 149.024 25.688C149.652 25.064 150.489 24.752 151.535 24.752H153.733C154.78 24.752 155.617 25.064 156.245 25.688C156.873 26.312 157.187 26.832 157.187 27.976V36.088H159.594V27.976C159.594 25.792 159.07 24.752 158.128 23.712Z" fill="#221E1F"/>
</g>
<mask id="mask9_66_22123" style="mask-type:luminance" maskUnits="userSpaceOnUse" x="-96" y="-105" width="364" height="256">
<path d="M267.697 -104.936H-95.5469V150.28H267.697V-104.936Z" fill="white"/>
</mask>
<g mask="url(#mask9_66_22123)">
<path d="M92.72 29.224H88.534C87.5921 29.224 86.9642 29.328 86.5456 29.536C85.813 29.848 85.3944 30.472 85.3944 31.512C85.3944 32.448 85.7084 32.968 86.441 33.28C86.8596 33.488 87.4875 33.592 88.534 33.592H92.0921C93.3479 33.592 94.1851 33.384 94.7084 32.968C95.2317 32.656 95.441 32.032 95.441 31.2C95.2317 29.848 94.3944 29.224 92.72 29.224ZM84.3479 22.048H92.3014C94.4991 22.048 96.1735 22.672 97.1154 24.024C98.3712 25.688 98.0572 28.08 97.9526 30.056V32.032C97.9526 33.072 97.6386 34.008 97.1154 34.736C96.5921 35.464 95.8596 35.88 94.9177 35.88C94.0805 35.88 93.2433 35.88 92.4061 35.88H88.3247C86.441 35.88 85.1851 35.672 84.4526 35.152C83.4061 34.528 82.8828 33.176 82.8828 31.2C82.8828 29.328 83.5107 28.08 84.5572 27.456C85.2898 26.936 86.5456 26.728 88.3247 26.728H95.2317C95.2317 26 95.0223 25.168 94.2898 24.856C93.5572 24.44 92.72 24.44 91.9875 24.44H84.2433L84.3479 22.048Z" fill="#221E1F"/>
</g>
</g>
</g>
<defs>
<clipPath id="clip0_66_22123">
<rect width="180" height="52" fill="white"/>
</clipPath>
</defs>
</svg>
