<svg width="180" height="54" viewBox="0 0 180 54" fill="none" xmlns="http://www.w3.org/2000/svg">
<path d="M39.2004 27.3C35.2004 24.6 30.2004 25.7 27.5004 29.8C25.3004 33.2 21.9004 33.6 20.6004 33.6C16.4004 33.6 13.5004 30.6 12.6004 27.5V27.4V27.3C12.3004 26 12.2004 25.4 12.2004 24C12.2004 16.6 19.8004 8.39999 30.7004 8.39999C41.9004 8.39999 48.3004 16.9 49.9004 21.7C49.9004 21.6 49.8004 21.5 49.8004 21.4C46.5004 12.1 37.8004 5.39999 27.4004 5.39999C14.4004 5.39999 3.90039 16 3.90039 29C3.90039 40.6 12.3004 50.6 23.9004 50.6C33.2004 50.6 39.4004 45.4 42.2004 38.2C43.8004 34.3 42.7004 29.7 39.2004 27.3Z" fill="#003763"/>
<path d="M49.9 22.1C48.5 17.5 42.1 8.39999 30.5 8.39999C19.6 8.39999 12 16.6 12 24C12 25.4 12.1 26 12.4 27.3C12.3 26.7 12.2 26.2 12.2 25.6C12.2 17.9 19.9 12.6 27.8 12.6C38.5 12.6 47.2 21.3 47.2 32C47.2 40.4 42.4 47.7 35.3 51.2C44.5 47.9 51 39.2 51 29C51 26.6 50.6 24.5 49.9 22.1Z" fill="#E4022D"/>
<path d="M68.5004 19V17.1H71.5004V19H75.6004V21.3H63.9004V19H68.5004ZM75.1004 26.6C75.1004 27.3 75.0004 27.9 74.7004 28.4C74.4004 29 74.1004 29.5 73.6004 29.9C73.1004 30.3 72.6004 30.7 72.0004 30.9C71.4004 31.1 70.7004 31.3 70.0004 31.3C69.3004 31.3 68.6004 31.2 68.0004 30.9C67.4004 30.7 66.9004 30.3 66.4004 29.9C65.9004 29.5 65.6004 29 65.3004 28.4C65.0004 27.8 64.9004 27.2 64.9004 26.6C64.9004 25.9 65.0004 25.3 65.3004 24.8C65.6004 24.2 65.9004 23.7 66.4004 23.3C66.9004 22.9 67.4004 22.5 68.0004 22.3C68.6004 22.1 69.3004 21.9 70.0004 21.9C70.7004 21.9 71.4004 22 72.0004 22.3C72.6004 22.5 73.1004 22.9 73.6004 23.3C74.1004 23.7 74.4004 24.2 74.7004 24.8C74.9004 25.3 75.1004 25.9 75.1004 26.6ZM72.5004 26.6C72.5004 25.9 72.3004 25.4 71.8004 24.9C71.3004 24.4 70.7004 24.2 70.0004 24.2C69.3004 24.2 68.7004 24.4 68.3004 24.9C67.8004 25.4 67.6004 26 67.6004 26.6C67.6004 27.3 67.8004 27.8 68.3004 28.3C68.8004 28.8 69.4004 29 70.0004 29C70.7004 29 71.3004 28.8 71.8004 28.3C72.2004 27.8 72.5004 27.2 72.5004 26.6ZM82.3004 35.6C82.3004 36.3 82.2004 36.9 81.9004 37.5C81.6004 38.1 81.2004 38.6 80.7004 39.1C80.2004 39.6 79.6004 39.9 79.0004 40.2C78.3004 40.5 77.7004 40.6 76.9004 40.6C76.2004 40.6 75.5004 40.5 74.8004 40.2C74.1004 39.9 73.6004 39.6 73.1004 39.1C72.6004 38.6 72.2004 38.1 71.9004 37.5C71.6004 36.9 71.5004 36.2 71.5004 35.6C71.5004 34.9 71.6004 34.3 71.9004 33.6C72.2004 33 72.6004 32.4 73.1004 32C73.6004 31.5 74.2004 31.2 74.8004 30.9C75.5004 30.6 76.2004 30.5 76.9004 30.5C77.6004 30.5 78.3004 30.6 79.0004 30.9C79.6004 31.2 80.2004 31.5 80.7004 32C81.2004 32.5 81.6004 33 81.9004 33.6C82.1004 34.3 82.3004 35 82.3004 35.6ZM79.6004 35.6C79.6004 34.9 79.3004 34.3 78.8004 33.7C78.3004 33.2 77.6004 32.9 76.9004 32.9C76.2004 32.9 75.5004 33.2 75.0004 33.7C74.5004 34.2 74.2004 34.9 74.2004 35.6C74.2004 36.3 74.5004 36.9 75.0004 37.5C75.5004 38 76.1004 38.3 76.9004 38.3C77.6004 38.3 78.3004 38 78.8004 37.5C79.3004 37 79.6004 36.3 79.6004 35.6ZM79.5004 29.9H77.0004V17.6H79.6004V22.5H81.9004V17.6H84.6004V30.2H81.9004V25H79.6004V29.9H79.5004Z" fill="#575756"/>
<path d="M87.7012 20.6V18.2H100.501V20.6H95.0012L100.701 27.6L98.8012 29.2L94.2012 23.5L89.7012 29.6L87.7012 28L93.4012 20.7H87.7012V20.6ZM105.501 35.2C105.501 36 105.301 36.7 105.001 37.3C104.701 38 104.301 38.5 103.801 39C103.301 39.5 102.601 39.9 101.901 40.2C101.201 40.5 100.401 40.6 99.7012 40.6C98.9012 40.6 98.2012 40.5 97.4012 40.2C96.7012 39.9 96.1012 39.5 95.5012 39C95.0012 38.5 94.6012 37.9 94.3012 37.3C94.0012 36.6 93.8012 35.9 93.8012 35.2C93.8012 34.4 94.0012 33.7 94.3012 33.1C94.6012 32.4 95.0012 31.8 95.5012 31.4C96.0012 30.9 96.7012 30.5 97.4012 30.2C98.1012 29.9 98.9012 29.8 99.7012 29.8C100.501 29.8 101.201 29.9 101.901 30.2C102.601 30.5 103.201 30.9 103.801 31.4C104.301 31.9 104.701 32.5 105.001 33.1C105.301 33.8 105.501 34.5 105.501 35.2ZM102.701 35.2C102.701 34.4 102.401 33.6 101.801 33C101.201 32.4 100.501 32.1 99.6012 32.1C98.8012 32.1 98.0012 32.4 97.4012 33C96.8012 33.6 96.5012 34.3 96.5012 35.2C96.5012 36 96.8012 36.8 97.4012 37.4C98.0012 38 98.7012 38.3 99.6012 38.3C100.401 38.3 101.201 38 101.801 37.4C102.401 36.8 102.701 36 102.701 35.2ZM104.601 29.5V24.6H100.401V22.2H104.601V17.6H107.401V29.5H104.601Z" fill="#575756"/>
<path d="M123.301 23.9C123.301 24.7 123.101 25.5 122.801 26.3C122.501 27 122.001 27.7 121.401 28.3C120.801 28.8 120.101 29.3 119.401 29.6C118.601 29.9 117.801 30.1 117.001 30.1C116.101 30.1 115.301 29.9 114.601 29.6C113.801 29.3 113.201 28.8 112.601 28.3C112.001 27.7 111.601 27.1 111.201 26.3C110.901 25.6 110.701 24.8 110.701 23.9C110.701 23.1 110.901 22.3 111.201 21.5C111.501 20.8 112.001 20.1 112.601 19.5C113.201 19 113.901 18.5 114.601 18.2C115.401 17.9 116.201 17.7 117.001 17.7C117.901 17.7 118.701 17.9 119.401 18.2C120.201 18.5 120.801 19 121.401 19.5C122.001 20.1 122.401 20.7 122.801 21.5C123.101 22.2 123.301 23 123.301 23.9ZM114.801 32.1V37.1H129.801V39.6H112.001V32.1H114.801ZM120.601 23.9C120.601 23.4 120.501 22.9 120.301 22.5C120.101 22.1 119.801 21.7 119.501 21.3C119.201 21 118.801 20.7 118.301 20.5C117.901 20.3 117.401 20.2 116.901 20.2C116.401 20.2 115.901 20.3 115.501 20.5C115.101 20.7 114.701 21 114.301 21.3C114.001 21.6 113.701 22 113.501 22.5C113.301 22.9 113.201 23.4 113.201 23.9C113.201 24.4 113.301 24.9 113.501 25.3C113.701 25.7 114.001 26.1 114.301 26.5C114.601 26.8 115.001 27.1 115.501 27.3C115.901 27.5 116.401 27.6 116.901 27.6C117.401 27.6 117.901 27.5 118.301 27.3C118.701 27.1 119.101 26.8 119.501 26.5C119.801 26.2 120.101 25.8 120.301 25.3C120.501 24.9 120.601 24.4 120.601 23.9ZM129.301 31.9H126.501V17.6H129.301V22.5H132.501V25.2H129.301V31.9Z" fill="#575756"/>
<path d="M134.5 20.6V18.2H147.3V20.6H141.9L147.6 29L145.5 30.4L141.1 23.7L136.7 30.6L134.5 29.2L140.1 20.7H134.5V20.6ZM136 39.5V32H138.8V37H154.3V39.5H136ZM151.4 31.9V25.3H147.2V22.8H151.4V17.5H154.2V31.8H151.4V31.9Z" fill="#575756"/>
<path d="M158 31.8H178.5V34.3H169.6V40H166.8V34.2H158V31.8ZM162.4 20.8H174.1V18H176.8V28.8H159.6V18H162.3V20.8H162.4ZM174.1 23.2H162.4V26.3H174.1V23.2Z" fill="#575756"/>
</svg>
