<svg width="180" height="27" viewBox="0 0 180 27" fill="none" xmlns="http://www.w3.org/2000/svg">
<path fill-rule="evenodd" clip-rule="evenodd" d="M165.43 7.05638H158.286C157.111 7.15371 156.735 7.4457 156.735 9.05164V13.3828H165.43V7.05638ZM169.19 3.60116V22.5805H165.43V17.0814H156.782V22.5319H152.976V7.68902C152.976 5.06111 153.962 3.60116 156.782 3.60116H169.19ZM149.122 7.68902V17.9574C149.122 21.2179 147.43 22.5805 145.315 22.5805H133.331V3.60116H145.315C148.558 3.60116 149.122 5.79108 149.122 7.68902ZM145.315 8.80832C145.315 7.78635 144.751 7.05638 143.717 7.05638H137.184V18.9307H143.717C145.221 18.8333 145.315 17.86 145.315 17.13V8.80832ZM55.8789 3.60116H59.6857V11.0956H68.1922V3.60116H71.999V22.5805H68.1922V14.7941H59.6857V22.5319H55.8789V3.60116ZM78.4846 3.60116L83.2314 11.3389L87.9311 3.60116H92.5369L85.1113 15.7188V22.5805H81.3045V15.7188L73.8789 3.60116H78.4846ZM113.921 3.60116H126.187C127.926 3.60116 129.618 3.84448 129.571 7.68902V22.5805H125.764V9.05164C125.764 7.39703 125.576 7.05638 124.401 7.05638H117.727V22.5319H113.921V3.60116ZM176.803 3.60116V22.5805H172.996V3.60116H176.803ZM94.5108 22.5319H106.777C109.221 22.5319 110.208 21.7532 110.161 17.9574V3.60116H106.354V17.13C106.354 18.736 106.166 18.9307 104.991 18.9307H98.3175V3.55249H94.5108V22.5319Z" fill="#006CB2"/>
<path fill-rule="evenodd" clip-rule="evenodd" d="M29.0436 15.8648C29.3726 17.7627 28.4797 19.32 27.7277 20.8286C26.8817 22.2399 25.5188 23.4566 23.8269 23.2619C20.1141 23.2132 16.4483 22.5806 13.0645 21.4613C12.9235 21.4126 12.7355 21.3153 12.6885 21.1693C12.6415 20.9746 12.7355 20.78 12.8765 20.634C15.9783 17.9087 19.6441 16.6434 23.2629 15.3295C24.6259 14.8915 26.0358 14.4535 27.5867 14.6482C28.1977 14.7942 28.8556 15.2322 29.0436 15.8648ZM41.7799 7.83507C43.5188 9.39235 45.0697 11.485 44.5528 14.0155C43.7068 17.7627 39.9 19.758 36.8922 21.0233C35.2473 21.6073 33.6024 22.2399 31.8165 22.3859C31.7225 22.3859 31.5345 22.3859 31.4875 22.2399L31.5345 22.0453C34.0723 18.9307 35.9992 15.4755 37.6911 11.9229C38.4901 10.317 39.1951 8.71104 39.853 7.10509C39.947 7.00776 40.041 6.91043 40.182 6.86177C40.84 6.9591 41.2629 7.49441 41.7799 7.83507ZM17.4353 3.84453L17.3883 4.08786C13.7225 8.61371 11.2786 13.8695 9.02273 19.1254C8.55276 19.5634 8.12978 18.9794 7.7538 18.7847C5.73291 17.3248 3.85302 14.9888 4.41699 12.2149C5.26294 8.56505 8.74075 6.61844 11.6076 5.30448C13.2995 4.62317 15.0854 4.03919 16.9653 3.7472C17.0593 3.69854 17.3413 3.64987 17.4353 3.84453ZM35.6233 4.57451C35.8112 4.67184 36.0932 4.7205 36.1872 4.96383C36.2812 5.20715 36.0932 5.40181 35.9522 5.54781C33.0384 7.98106 29.7486 9.34369 26.3648 10.5603C24.6259 10.9983 22.934 11.8256 21.0071 11.3876C20.5371 11.2903 20.1611 10.9496 19.9261 10.463C19.4562 9.0517 20.1141 7.54308 20.6311 6.32645C21.383 4.76917 22.699 2.91989 24.4849 2.91989C28.4327 2.87123 32.1454 3.50388 35.6233 4.57451ZM40.464 4.67184C43.4248 6.42378 46.7616 9.53835 46.4327 13.6262C46.0097 17.4221 42.7669 20.0987 39.806 21.7046C31.2525 26.1331 19.2212 26.2791 10.3857 22.3859C7.42482 21.1206 4.04101 18.7847 2.81907 15.2808C1.83213 12.4096 3.00706 9.44102 4.98095 7.44575C9.11673 3.40655 14.3334 1.99526 19.7381 1.21662C25.6128 0.437976 31.7695 1.11929 37.0332 3.06589C38.2081 3.55254 39.383 4.03919 40.464 4.67184Z" fill="#006CB2"/>
</svg>
