<svg width="110" height="40" viewBox="0 0 110 40" fill="none" xmlns="http://www.w3.org/2000/svg">
<path d="M44.2352 15.6573H38.5955V15.8063C38.5955 16.4596 38.3782 17.0815 38.1195 17.7688C38.1195 17.7688 33.1006 30.7196 32.9117 31.2188C32.7048 30.7249 27.0107 17.2148 27.0107 17.2148L26.915 16.9979C26.7443 16.6111 26.5709 16.2166 26.5709 15.8063V15.6913L26.4597 15.66H20.331V15.9474L20.4034 15.9814C21.5702 16.4099 21.7383 17.9778 21.7383 18.8768L21.7357 32.4234C21.7357 33.9913 21.5702 35.7448 20.3129 36.8632L20.2715 36.8998V37.1585H25.7069V36.8763L25.6448 36.8423C24.4521 36.3092 24.3512 34.9451 24.3512 33.6516V33.2544L24.3564 32.8729C24.3564 32.8729 24.3616 20.5649 24.3616 19.5301C24.76 20.4969 30.2186 33.5967 30.2186 33.5967C31.018 35.4573 31.4915 36.338 33.0696 37.5478L33.1911 37.6445C33.1911 37.6445 39.7855 20.5988 40.1865 19.5405C40.1865 20.6485 40.1839 34.5218 40.1839 34.5218C40.1839 35.52 40.0313 36.4895 38.9551 36.8371L38.8749 36.8632V37.1559H44.988V36.8867L44.9389 36.8501C43.8446 36.0766 43.353 35.0941 43.353 33.6464V17.7688C43.353 17.4134 43.4229 16.2244 44.2663 15.9761L44.3465 15.95V15.6547" fill="#050100"/>
<path d="M48.6567 27.2587C48.6567 21.3295 53.4143 16.516 59.2895 16.516C62.3163 16.516 65.0456 17.7991 66.9807 19.8609C64.849 16.5839 61.1858 14.4202 57.0103 14.4202C50.4237 14.4202 45.0918 19.8086 45.0918 26.4696C45.0918 33.1253 50.4263 38.5189 57.0103 38.5189C58.3452 38.5189 59.6258 38.2837 60.8262 37.8813C60.3217 37.9571 59.812 38.0067 59.2869 38.0067C53.4117 38.0041 48.6567 33.1959 48.6567 27.2587Z" fill="#DD4036"/>
<path d="M60.0197 17.8312C56.3436 17.4863 52.983 19.3678 51.2031 22.3624C52.8562 20.4339 55.3683 19.2998 58.0743 19.5507C62.5344 19.9609 65.8173 23.9486 65.4085 28.4537C64.9998 32.9641 61.0572 36.2828 56.5971 35.8699C55.9814 35.815 55.3838 35.6844 54.8198 35.4936C55.8779 36.0633 57.0602 36.4291 58.3304 36.5493C63.445 37.0197 67.9697 33.2123 68.4354 28.0409C68.9062 22.8772 65.1343 18.3016 60.0197 17.8312Z" fill="#DD4036"/>
<path d="M80.0841 33.4872C79.1424 34.3548 77.6808 34.7624 76.0794 34.603C76.0794 34.603 73.8675 34.3992 73.3966 34.3574V26.5806C73.5855 26.5702 75.5258 26.4578 75.5258 26.4578C77.3393 26.3559 79.0364 26.8811 80.0686 27.8689C80.8395 28.6032 81.2302 29.5466 81.2302 30.6728C81.2302 31.8435 80.8499 32.7947 80.0841 33.4872ZM73.3992 18.1035C73.5829 18.0852 75.4404 17.884 75.4404 17.884C76.5192 17.7769 77.6031 18.114 78.3379 18.7829C78.9536 19.3395 79.277 20.1052 79.277 20.978C79.277 24.0667 75.161 24.2209 74.3357 24.2209H73.3966V18.1035H73.3992ZM79.991 24.6338C81.9985 23.6695 82.9894 22.3002 82.9894 20.4554C82.9894 17.4528 80.4463 15.655 76.1958 15.655H68.5045V15.9424L68.5796 15.9764C69.9662 16.4938 69.9352 18.4145 69.9171 19.8204L69.9119 20.2933V32.4812L69.9171 32.9176C69.9352 34.3522 69.9533 36.3094 68.5718 36.8373L68.502 36.866V37.1561H74.4237C76.6796 37.164 79.0053 37.164 81.0982 36.1396C83.4705 34.9924 84.9995 32.732 84.9995 30.3802C85.0021 27.5762 83.0877 25.4047 79.991 24.6338Z" fill="#050100"/>
<path d="M91.8867 15.6573H85.6934V15.9448L85.771 15.9787C87.155 16.4961 87.1292 18.4325 87.1059 19.8436L87.1033 20.3349V32.5201L87.1059 32.9486C87.1214 34.3781 87.1473 36.3379 85.771 36.837L85.6934 36.8684V37.1558H91.9954V36.8684L91.9204 36.837C90.544 36.3092 90.5699 34.365 90.5829 32.9486L90.588 32.5201V20.3349L90.5829 19.9011C90.5725 18.4639 90.5466 16.504 91.9204 15.9735L91.9954 15.9448V15.6573" fill="#050100"/>
<path d="M93.2945 20.8837C93.2945 24.644 96.5826 26.1257 99.4905 27.4453C101.961 28.5585 104.295 29.6169 104.295 31.872C104.295 33.9887 101.705 35.1202 99.8371 35.1202C97.395 35.1202 94.8079 34.1272 92.9039 32.4626L92.6426 32.2327L93.6593 36.6724L93.7188 36.6907C95.4624 37.3414 97.395 37.6759 99.4801 37.6759C104.266 37.6759 108.165 34.6211 108.165 30.866C108.165 27.576 104.877 26.0604 101.979 24.725C99.5034 23.5805 97.1621 22.5012 97.1621 20.5231C97.1621 18.4325 99.3249 17.6956 101.177 17.6956C103.001 17.6956 104.941 18.4796 106.113 19.6921L106.302 19.8959V15.8821L106.23 15.8533C104.724 15.3803 103.107 15.1399 101.431 15.1399C97.6744 15.1425 93.2945 16.6399 93.2945 20.8837Z" fill="#050100"/>
<path d="M8.24725 5.17303H3.88033V1.48584H1.83398V10.9298H3.88292V7.01792H8.24984V10.9298H10.3014V1.48584H8.24984" fill="#234781"/>
<path d="M54.8541 3.32683H58.6829V6.07066H54.3341V3.86776C54.3419 3.758 54.3186 3.56201 54.4117 3.44704C54.5048 3.32422 54.6626 3.33206 54.8541 3.32683ZM52.7456 2.02025C52.3136 2.46187 52.2981 3.11516 52.2852 3.49146V10.9285H54.3341V7.91555H58.6829V10.9285H60.7344V1.47932H54.3496C53.7417 1.48716 53.1699 1.57601 52.7456 2.02025Z" fill="#234781"/>
<path d="M38.2538 1.48323H31.8535V10.9272H33.905V3.32813H37.7442C37.9356 3.33336 38.0934 3.3229 38.1892 3.44311C38.2771 3.56332 38.2642 3.75669 38.2668 3.86383V10.9246H40.3157V3.48753C40.3054 3.11385 40.2898 2.46056 39.8578 2.01893C39.4284 1.57731 38.8618 1.49107 38.2538 1.48323Z" fill="#234781"/>
<path d="M27.9894 8.54166C27.9843 8.65403 27.9998 8.85002 27.9118 8.96238C27.8135 9.09043 27.6557 9.07475 27.4669 9.07736H23.6303V1.47827H21.5762V10.9275H27.9765C28.5845 10.9223 29.1562 10.8282 29.5831 10.3866C30.0151 9.94494 30.028 9.29687 30.041 8.91535V1.47827H27.992" fill="#234781"/>
<path d="M48.5461 8.54166C48.5383 8.65403 48.5564 8.85002 48.4685 8.96238C48.3727 9.08782 48.2149 9.07475 48.0235 9.08259H44.1766V3.33101H48.0235C48.2149 3.33362 48.3727 3.32317 48.4685 3.44599C48.5564 3.56096 48.5383 3.75957 48.5461 3.8667V8.54166ZM50.5898 3.49041C50.5821 3.11411 50.5614 2.46866 50.1319 2.02181C49.7051 1.57757 49.1359 1.48872 48.5254 1.48349H42.1328V10.9275H48.5254C49.1333 10.9223 49.7025 10.8308 50.1319 10.3866C50.5588 9.94494 50.5795 9.29426 50.5898 8.91535" fill="#234781"/>
<path d="M15.9381 5.61831L13.452 1.48427H11.0176L14.8438 7.4423V10.9283H17.035V7.4423L20.8561 1.48427H18.4269" fill="#234781"/>
<path d="M62.7871 10.9259H64.9724V1.4815H62.7871V10.9259Z" fill="#234781"/>
</svg>
