<svg width="180" height="35" viewBox="0 0 180 35" fill="none" xmlns="http://www.w3.org/2000/svg">
<path d="M10.0339 1.71124C5.47313 1.71124 1.76367 5.50048 1.76367 10.0842V32.3307H4.50016V10.0842C4.50016 7.0284 6.9934 4.52261 10.0339 4.52261H169.845C172.885 4.52261 175.379 7.0284 175.379 10.0842V32.3307H178.115V10.0842C178.115 5.50048 174.406 1.77236 169.845 1.77236H10.0339V1.71124Z" fill="black"/>
<path d="M27.1835 26.4635C27.1835 26.7079 27.0619 26.7691 26.8186 26.7691H24.7511C24.5078 26.7691 24.447 26.7079 24.447 26.4635V20.8407C24.447 20.5963 24.2646 20.474 24.0213 20.474H18.67C18.4267 20.474 18.3051 20.5963 18.3051 20.8407V26.4635C18.3051 26.7079 18.1835 26.7691 17.9402 26.7691H15.8119C15.6294 26.7691 15.5078 26.7079 15.5078 26.4635V12.5289C15.5078 12.2844 15.5686 12.1622 15.8119 12.1622H17.8794C18.1227 12.1622 18.2443 12.2844 18.2443 12.5289V17.9071C18.2443 18.1516 18.3659 18.2738 18.6092 18.2738H23.9605C24.2038 18.2738 24.3862 18.1516 24.3862 17.9071V12.5289C24.3862 12.2844 24.447 12.1622 24.6902 12.1622H26.7578C27.0011 12.1622 27.1227 12.2844 27.1227 12.5289V26.4635H27.1835Z" fill="black"/>
<path d="M32.1077 26.9525C30.5874 26.9525 29.7969 25.7301 29.7969 24.6911V16.0126C29.7969 15.7681 29.9185 15.6459 30.1009 15.6459H32.0469C32.2293 15.6459 32.3509 15.7681 32.3509 16.0126V24.3856C32.3509 24.63 32.4726 24.7523 32.7158 24.7523H36.3036C36.5469 24.7523 36.7293 24.63 36.7293 24.3856V16.0126C36.7293 15.7681 36.8509 15.6459 37.0334 15.6459H38.9793C39.2225 15.6459 39.3442 15.7681 39.3442 16.0126V28.6026C39.3442 28.9082 39.2226 29.2138 39.1009 29.5194L37.7631 31.7196C37.6415 31.9029 37.459 32.0252 37.2766 32.0252H37.0334C36.7901 32.0252 36.7293 31.9029 36.7293 31.6584V26.0968C36.7293 25.8524 36.6077 25.7912 36.3644 25.7912L32.655 26.8913C32.5334 26.9525 32.2901 26.9525 32.1077 26.9525Z" fill="black"/>
<path d="M44.3926 26.8913C43.1764 26.8913 42.1426 25.9135 42.1426 24.63V16.0126C42.1426 15.7681 42.2642 15.6459 42.4466 15.6459H44.4534C44.6358 15.6459 44.7574 15.7681 44.7574 16.0126V24.3856C44.7574 24.63 44.8791 24.6911 45.1223 24.6911H48.7101C48.9534 24.6911 49.075 24.5689 49.075 24.3856V16.0126C49.075 15.7681 49.1358 15.6459 49.3791 15.6459H51.325C51.5683 15.6459 51.6899 15.7681 51.6899 16.0126V26.4635C51.6899 26.708 51.5683 26.7691 51.325 26.7691H49.3791C49.1358 26.7691 49.075 26.708 49.075 26.4635V26.1579C49.075 25.9135 48.8926 25.7912 48.7101 25.8524L45.0007 26.8302C44.7574 26.8913 44.575 26.8913 44.3926 26.8913Z" fill="black"/>
<path d="M64.0947 17.7849V26.4635C64.0947 26.708 63.9731 26.7691 63.7298 26.7691H61.7839C61.5406 26.7691 61.4798 26.708 61.4798 26.4635V18.0905C61.4798 17.846 61.2974 17.7238 61.115 17.7238H57.5271C57.2231 17.7238 57.1623 17.846 57.1623 18.0905V26.4635C57.1623 26.708 57.0406 26.7691 56.8582 26.7691H54.7298C54.4866 26.7691 54.4258 26.708 54.4258 26.4635V16.0125C54.4258 15.7681 54.5474 15.6458 54.7298 15.6458H56.7366C56.919 15.6458 57.0406 15.7681 57.0406 16.0125V16.3181C57.0406 16.5626 57.1623 16.6237 57.4055 16.5626L61.1758 15.5236C61.3582 15.4625 61.5406 15.4014 61.7231 15.4014C63.0609 15.4625 64.0947 16.5626 64.0947 17.7849Z" fill="black"/>
<path d="M66.3457 24.63V19.6184C66.3457 18.5794 66.7714 17.7238 67.7444 17.2349L69.8119 16.0125C70.2376 15.7069 70.6633 15.6458 71.2106 15.6458H73.0349C73.2781 15.6458 73.3998 15.5236 73.3998 15.3402V11.2454C73.3998 11.001 73.5214 10.8787 73.7038 10.8787H75.7106C75.9538 10.8787 76.0754 11.0621 76.0754 11.2454V26.5246C76.0754 26.7691 75.9538 26.8302 75.7106 26.8302H73.7038C73.5214 26.8302 73.3998 26.7691 73.3998 26.5246V26.219C73.3998 25.9746 73.2781 25.8523 73.0349 25.9134L69.2646 26.9524C69.0214 27.0135 68.8389 27.0135 68.6565 27.0135C67.5619 26.9524 66.3457 25.9745 66.3457 24.63ZM73.3389 24.3855V18.0905C73.3389 17.7849 73.2173 17.6627 72.9741 17.6627H69.3254C69.0214 17.6627 68.9606 17.7849 68.9606 18.0905V24.3855C68.9606 24.63 69.0822 24.6911 69.3254 24.6911H72.9741C73.2173 24.6911 73.3389 24.63 73.3389 24.3855Z" fill="black"/>
<path d="M80.5139 26.8913C79.2977 26.8913 78.2031 25.9135 78.2031 24.63V19.6185C78.2031 18.5184 78.6288 17.7238 79.6018 17.2349L81.7301 16.0126C82.1558 15.707 82.5815 15.6459 83.068 15.6459H87.568C87.8112 15.6459 87.872 15.7681 87.872 16.0126V26.4635C87.872 26.708 87.7504 26.7691 87.568 26.7691H85.5612C85.318 26.7691 85.2572 26.708 85.2572 26.4635V26.1579C85.2572 25.9135 85.1356 25.7912 84.8923 25.8524L81.122 26.8913C80.8788 26.8913 80.6964 26.8913 80.5139 26.8913ZM85.318 24.3856V18.0905C85.318 17.785 85.1964 17.6627 84.9531 17.6627H81.3045C81.0004 17.6627 80.9396 17.785 80.9396 18.0905V24.3856C80.9396 24.63 81.0612 24.6911 81.3045 24.6911H84.9531C85.1356 24.6911 85.318 24.5689 85.318 24.3856Z" fill="black"/>
<path d="M93.224 12.8345C93.224 13.0789 93.1024 13.1401 92.9199 13.1401H90.974C90.7307 13.1401 90.6699 13.0789 90.6699 12.8345V11.1843C90.6699 10.9399 90.7307 10.8176 90.974 10.8176H92.9199C93.1024 10.8176 93.224 11.001 93.224 11.1843V12.8345ZM93.224 26.4635C93.224 26.708 93.1024 26.7691 92.9199 26.7691H90.974C90.7307 26.7691 90.6699 26.708 90.6699 26.4635V16.0125C90.6699 15.7681 90.7307 15.6458 90.974 15.6458H92.9199C93.1024 15.6458 93.224 15.7681 93.224 16.0125V26.4635Z" fill="black"/>
<path d="M98.6953 23.8966V16.3793C98.6953 15.2792 99.1818 14.4235 100.155 13.8735L102.466 12.59C102.891 12.3456 103.378 12.2233 103.803 12.2233H108.668C108.912 12.2233 109.033 12.3456 109.033 12.59V14.0568C109.033 14.3013 108.912 14.3624 108.668 14.3624H101.857C101.614 14.3624 101.493 14.4846 101.493 14.7902V24.3244C101.493 24.5689 101.614 24.6911 101.857 24.6911H108.912C109.155 24.6911 109.276 24.8134 109.276 24.9967C109.276 25.2412 109.155 25.3634 108.972 25.4857L107.27 26.4635C106.844 26.708 106.357 26.8302 105.871 26.8302H101.614C100.216 26.708 98.6953 25.7301 98.6953 23.8966Z" fill="black"/>
<path d="M113.168 26.8913C111.952 26.8913 110.857 25.9135 110.857 24.63V19.6185C110.857 18.5184 111.283 17.7238 112.256 17.2349L114.384 16.0126C114.81 15.707 115.236 15.6459 115.722 15.6459H120.222C120.466 15.6459 120.526 15.7681 120.526 16.0126V26.4635C120.526 26.708 120.405 26.7691 120.222 26.7691H118.216C117.972 26.7691 117.911 26.708 117.911 26.4635V26.1579C117.911 25.9135 117.79 25.7912 117.547 25.8524L113.776 26.8913C113.533 26.8913 113.351 26.8913 113.168 26.8913ZM117.911 24.3856V18.0905C117.911 17.785 117.79 17.6627 117.547 17.6627H113.898C113.594 17.6627 113.533 17.785 113.533 18.0905V24.3856C113.533 24.63 113.655 24.6911 113.898 24.6911H117.547C117.79 24.6911 117.911 24.5689 117.911 24.3856Z" fill="black"/>
<path d="M132.872 17.7849V22.7965C132.872 23.8355 132.447 24.63 131.534 25.18L129.406 26.4024C128.98 26.6468 128.494 26.708 128.068 26.708H126.244C125.94 26.708 125.879 26.8913 125.879 27.1358V31.1695C125.879 31.4139 125.757 31.5362 125.514 31.5362H123.507C123.264 31.5362 123.143 31.4139 123.143 31.1695V16.0125C123.143 15.7681 123.264 15.6458 123.507 15.6458H125.514C125.697 15.6458 125.879 15.7681 125.879 16.0125V16.3181C125.879 16.5626 126.001 16.6237 126.244 16.5626L130.014 15.5236C130.257 15.4625 130.44 15.4014 130.622 15.4014C131.717 15.4625 132.872 16.3792 132.872 17.7849ZM130.257 24.3855V18.0905C130.257 17.7849 130.136 17.6627 129.893 17.6627H126.244C125.94 17.6627 125.879 17.7849 125.879 18.0905V24.3855C125.879 24.63 126.001 24.6911 126.244 24.6911H129.893C130.136 24.6911 130.257 24.5689 130.257 24.3855Z" fill="black"/>
<path d="M137.736 12.8345C137.736 13.0789 137.614 13.1401 137.432 13.1401H135.486C135.242 13.1401 135.182 13.0789 135.182 12.8345V11.1843C135.182 10.9399 135.242 10.8176 135.486 10.8176H137.432C137.614 10.8176 137.736 11.001 137.736 11.1843V12.8345ZM137.736 26.4635C137.736 26.708 137.614 26.7691 137.432 26.7691H135.486C135.242 26.7691 135.182 26.708 135.182 26.4635V16.0125C135.182 15.7681 135.242 15.6458 135.486 15.6458H137.432C137.614 15.6458 137.736 15.7681 137.736 16.0125V26.4635Z" fill="black"/>
<path d="M143.149 26.7691C141.507 26.7691 140.412 25.4245 140.412 24.0189V13.9957C140.412 13.7513 140.473 13.629 140.716 13.5068L142.723 13.0179C142.905 12.9567 143.088 13.079 143.088 13.2623V15.3403C143.088 15.5236 143.149 15.6459 143.331 15.6459H146.919C147.162 15.6459 147.284 15.7681 147.284 16.0126V17.3571C147.284 17.5405 147.162 17.6627 146.919 17.6627H143.453C143.209 17.6627 143.088 17.785 143.088 18.0905V24.3856C143.088 24.63 143.209 24.7523 143.453 24.7523H147.345C147.588 24.7523 147.709 24.8745 147.709 25.0578C147.709 25.2412 147.588 25.3634 147.405 25.4857L145.824 26.4024C145.399 26.6469 144.912 26.708 144.426 26.708H143.149V26.7691Z" fill="black"/>
<path d="M151.602 26.8913C150.386 26.8913 149.291 25.9135 149.291 24.63V19.6185C149.291 18.5184 149.717 17.7238 150.69 17.2349L152.818 16.0126C153.244 15.707 153.669 15.6459 154.156 15.6459H158.656C158.899 15.6459 159.021 15.7681 159.021 16.0126V26.4635C159.021 26.708 158.899 26.7691 158.656 26.7691H156.649C156.406 26.7691 156.345 26.708 156.345 26.4635V26.1579C156.345 25.9135 156.223 25.7912 155.98 25.8524L152.21 26.8913C151.967 26.8913 151.845 26.8913 151.602 26.8913ZM156.406 24.3856V18.0905C156.406 17.785 156.284 17.6627 156.041 17.6627H152.392C152.088 17.6627 152.028 17.785 152.028 18.0905V24.3856C152.028 24.63 152.149 24.6911 152.392 24.6911H156.041C156.223 24.6911 156.406 24.5689 156.406 24.3856Z" fill="black"/>
<path d="M164.31 26.4635C164.31 26.708 164.189 26.7691 164.006 26.7691H162.06C161.817 26.7691 161.695 26.708 161.695 26.4635V11.1843C161.695 10.9399 161.817 10.8176 162.06 10.8176H164.006C164.189 10.8176 164.31 11.001 164.31 11.1843V26.4635Z" fill="black"/>
</svg>
