<svg width="130" height="40" viewBox="0 0 130 40" fill="none" xmlns="http://www.w3.org/2000/svg">
<path fill-rule="evenodd" clip-rule="evenodd" d="M42.3311 17.9063V24.6284H45.4601V9.64227H42.3311V15.319H36.4884V9.64227H33.3652V24.6284H36.4884V17.9063H42.3311Z" fill="#004098"/>
<path fill-rule="evenodd" clip-rule="evenodd" d="M55.555 19.0101L60.5614 9.64227H57.0172L54.0519 16.1542L50.9463 9.64227H47.2559L52.426 18.9692V24.6284H55.555V19.0101Z" fill="#004098"/>
<path fill-rule="evenodd" clip-rule="evenodd" d="M74.4289 9.64227H71.2356V19.5123C71.2356 21.3287 70.3583 22.3741 68.2118 22.3741C66.7497 22.3741 65.5449 21.4571 65.5449 19.3663V9.64227H62.3516V19.5766C62.3925 21.0775 62.7083 22.2923 63.5213 23.2092C64.8548 24.6926 66.9018 25.0314 68.2762 25.0314C72.0485 25.0314 74.4289 23.3377 74.4289 19.3897V9.64227Z" fill="#004098"/>
<path fill-rule="evenodd" clip-rule="evenodd" d="M86.6352 20.0788H86.5884L80.6463 9.64227H77.3535V24.6284H80.272V13.9407H80.3129L86.4247 24.6284H89.5537V9.64227H86.6352V20.0788Z" fill="#004098"/>
<path fill-rule="evenodd" clip-rule="evenodd" d="M92.5527 24.6284H99.0388C103.981 24.6284 105.256 19.9971 105.256 16.7791C105.256 13.9407 104.215 9.64227 99.1675 9.64227H92.5586V24.6284H92.5527ZM95.6232 12.2295H98.6294C99.9629 12.2295 102.068 12.5858 102.068 17.0069C102.068 19.4714 101.215 22.0353 98.6704 22.0353H95.6232V12.2295Z" fill="#004098"/>
<path fill-rule="evenodd" clip-rule="evenodd" d="M109.953 21.5389H115.48L116.439 24.6284H119.837L114.562 9.64227H110.953L105.613 24.6284H108.906L109.953 21.5389ZM112.702 13.0238H112.743L114.597 18.9517H110.778L112.702 13.0238Z" fill="#004098"/>
<path fill-rule="evenodd" clip-rule="evenodd" d="M124.715 9.64227H121.592V24.6284H124.715V9.64227Z" fill="#004098"/>
<path fill-rule="evenodd" clip-rule="evenodd" d="M37.4356 28.9327H33.248V34.6269H37.5702V33.6166H34.4119V32.1448H37.19V31.1345H34.4119V29.9372H37.4356V28.9327Z" fill="#004098"/>
<path fill-rule="evenodd" clip-rule="evenodd" d="M41.8001 32.8982H41.7826L39.525 28.9327H38.2734V34.6269H39.3847V30.568H39.3964L41.7183 34.6269H42.9114V28.9327H41.8001V32.8982Z" fill="#004098"/>
<path fill-rule="evenodd" clip-rule="evenodd" d="M46.5141 32.5186H47.8359C47.5903 33.6692 46.7188 33.7743 46.4556 33.7743C45.6485 33.7743 44.8005 33.3713 44.8005 31.8178C44.8005 30.3577 45.5842 29.7737 46.4322 29.7737C47.2744 29.7737 47.678 30.4862 47.678 30.7081H48.8653C48.8009 29.9256 48.1108 28.7867 46.3679 28.7867C44.4496 28.7809 43.584 30.2468 43.584 31.8003C43.584 33.7976 44.8297 34.7847 46.1983 34.7847C47.2394 34.7847 47.6722 34.2707 47.9763 33.9203L48.0933 34.6328H48.8828V31.5608H46.5083V32.5186H46.5141Z" fill="#004098"/>
<path fill-rule="evenodd" clip-rule="evenodd" d="M50.8943 28.9327H49.707V34.6269H50.8943V28.9327Z" fill="#004098"/>
<path fill-rule="evenodd" clip-rule="evenodd" d="M55.2689 32.8982H55.2513L52.9938 28.9327H51.7422V34.6269H52.8476V30.568H52.8651L55.187 34.6269H56.3743V28.9327H55.2689V32.8982Z" fill="#004098"/>
<path fill-rule="evenodd" clip-rule="evenodd" d="M61.4923 28.9327H57.3105V34.6269H61.6268V33.6166H58.4744V32.1448H61.2466V31.1345H58.4744V29.9372H61.4923V28.9327Z" fill="#004098"/>
<path fill-rule="evenodd" clip-rule="evenodd" d="M66.5743 28.9327H62.3867V34.6269H66.7088V33.6166H63.5506V32.1448H66.3287V31.1345H63.5506V29.9372H66.5743V28.9327Z" fill="#004098"/>
<path fill-rule="evenodd" clip-rule="evenodd" d="M67.4688 34.6269H68.6326V32.396H69.8608C70.7381 32.396 70.7907 32.6997 70.7907 33.4764C70.7907 34.0663 70.8375 34.3583 70.9194 34.6269H72.2354V34.4751C71.9839 34.3816 71.9839 34.1714 71.9839 33.3421C71.9839 32.2792 71.7324 32.1039 71.2645 31.8995C71.8259 31.7068 72.1418 31.1695 72.1418 30.5446C72.1418 30.054 71.8669 28.9327 70.3521 28.9327H67.4746V34.6269H67.4688ZM68.6326 31.4382V29.9138H70.1123C70.8083 29.9138 70.9428 30.3577 70.9428 30.6614C70.9428 31.2221 70.6445 31.4382 70.0246 31.4382H68.6326Z" fill="#004098"/>
<path fill-rule="evenodd" clip-rule="evenodd" d="M74.072 28.9327H72.8848V34.6269H74.072V28.9327Z" fill="#004098"/>
<path fill-rule="evenodd" clip-rule="evenodd" d="M78.4466 32.8982H78.4291L76.1715 28.9327H74.9199V34.6269H76.0312V30.568H76.0487L78.3706 34.6269H79.5578V28.9327H78.4466V32.8982Z" fill="#004098"/>
<path fill-rule="evenodd" clip-rule="evenodd" d="M83.1606 32.5186H84.4824C84.2368 33.6692 83.3653 33.7743 83.1021 33.7743C82.295 33.7743 81.447 33.3713 81.447 31.8178C81.447 30.3577 82.2307 29.7737 83.0787 29.7737C83.9209 29.7737 84.3245 30.4862 84.3245 30.7081H85.5118C85.4474 29.9256 84.7573 28.7867 83.0144 28.7867C81.0961 28.7809 80.2305 30.2468 80.2305 31.8003C80.2305 33.7976 81.4762 34.7847 82.8448 34.7847C83.8858 34.7847 84.3186 34.2707 84.6228 33.9203L84.7397 34.6328H85.5293V31.5608H83.1548V32.5186H83.1606Z" fill="#004098"/>
<path fill-rule="evenodd" clip-rule="evenodd" d="M93.4711 30.7958C93.4068 29.9548 92.7167 28.7809 91.0147 28.7809C89.5467 28.7809 88.4004 29.7971 88.4004 31.7886C88.4004 33.7568 89.4882 34.7788 90.9972 34.7788C92.4242 34.7788 93.2313 33.9145 93.4711 32.6763H92.2839C92.1435 33.3713 91.6815 33.7451 91.0264 33.7451C90.0205 33.7451 89.6169 32.8224 89.6169 31.8003C89.6169 30.1884 90.4591 29.8088 91.0264 29.8088C92.009 29.8088 92.1903 30.4512 92.2839 30.7899H93.4711V30.7958Z" fill="#004098"/>
<path fill-rule="evenodd" clip-rule="evenodd" d="M94.2324 31.7769C94.2324 34.4518 96.2151 34.7788 96.9637 34.7788C97.7123 34.7788 99.695 34.4518 99.695 31.7769C99.695 29.1021 97.7123 28.7809 96.9637 28.7809C96.2151 28.7809 94.2324 29.1079 94.2324 31.7769ZM95.4197 31.7769C95.4197 30.1825 96.3204 29.7854 96.9637 29.7854C97.6071 29.7854 98.5077 30.1825 98.5077 31.7769C98.5077 33.3713 97.6071 33.7685 96.9637 33.7685C96.3204 33.7685 95.4197 33.3713 95.4197 31.7769Z" fill="#004098"/>
<path fill-rule="evenodd" clip-rule="evenodd" d="M101.929 33.4706H100.742V34.627H101.929V33.4706Z" fill="#004098"/>
<path fill-rule="evenodd" clip-rule="evenodd" d="M104.56 33.4706H103.373V34.627H104.04C103.999 35.2927 103.677 35.4387 103.373 35.538V35.9585H103.379C104.051 35.8008 104.56 35.4446 104.56 34.4634V33.4706Z" fill="#004098"/>
<path fill-rule="evenodd" clip-rule="evenodd" d="M109.328 28.9327H108.141V34.6269H112.159V33.5932H109.328V28.9327Z" fill="#004098"/>
<path fill-rule="evenodd" clip-rule="evenodd" d="M115.194 29.9372H116.913V28.9327H112.287V29.9372H114.007V34.6269H115.194V29.9372Z" fill="#004098"/>
<path fill-rule="evenodd" clip-rule="evenodd" d="M117.727 34.6269H120.189C122.066 34.6269 122.552 32.869 122.552 31.6426C122.552 30.5621 122.154 28.9327 120.236 28.9327H117.721V34.6269H117.727ZM118.89 29.9138H120.031C120.54 29.9138 121.341 30.0482 121.341 31.7302C121.341 32.6646 121.013 33.6399 120.048 33.6399H118.89V29.9138Z" fill="#004098"/>
<path fill-rule="evenodd" clip-rule="evenodd" d="M124.095 33.4706H122.908V34.627H124.095V33.4706Z" fill="#004098"/>
<path fill-rule="evenodd" clip-rule="evenodd" d="M5.98828 24.8912L15.9835 6.7572L26.5519 24.8912H5.98828Z" fill="#FABE00"/>
<path fill-rule="evenodd" clip-rule="evenodd" d="M8.54492 24.8912L18.5343 6.7572L29.1086 24.8912H8.54492Z" fill="#009944"/>
</svg>
