<svg width="110" height="32" viewBox="0 0 110 32" fill="none" xmlns="http://www.w3.org/2000/svg">
<path d="M23.6662 2.28851V12.0759C21.6015 10.6974 19.3993 10.0082 16.9218 10.0082C14.4443 10.0082 12.242 10.6974 10.1774 12.0759V2.28851H2.05664V29.7207H10.1774V21.3119C11.6915 19.1063 14.169 17.7277 16.9218 17.7277C19.6746 17.7277 22.1521 19.1063 23.6662 21.3119V29.7207H31.787V2.42641H23.6662V2.28851Z" fill="url(#paint0_linear_66_22004)"/>
<path d="M83.4024 26.9637V18.5549H81.0625V29.0314H88.7704V26.9637H83.4024Z" fill="#003C83"/>
<path d="M62.206 20.7604H68.3998V18.5549H59.7285V29.0314H68.2622V26.8259H62.0684V24.7581H67.4364V22.8282H62.0684V20.7604H62.206Z" fill="#003C83"/>
<path d="M72.8047 20.7604H78.9986V18.5549H70.4648V29.0314H78.9986V26.8259H72.8047V24.7581H78.1727V22.8282H72.8047V20.7604Z" fill="#003C83"/>
<path d="M44.7255 22.6904H40.1834C39.7705 22.6904 39.6328 22.5525 39.6328 22.1389V21.174C39.6328 20.8983 39.7705 20.7604 40.1834 20.7604H46.5148V18.5549H39.6328C38.1188 18.5549 37.293 19.2441 37.293 20.7604V22.6904C37.293 24.0689 37.9811 24.8959 39.4952 24.8959H43.8997C44.3126 24.8959 44.4502 25.0338 44.4502 25.4474V26.4123C44.4502 26.688 44.3126 26.8259 43.8997 26.8259H37.293V29.0314H44.4502C45.9643 29.0314 46.7901 28.3422 46.7901 26.8259V24.8959C46.9278 23.3796 46.2396 22.6904 44.7255 22.6904Z" fill="#003C83"/>
<path d="M48.4414 18.5549V20.7604H52.0201V29.0314H54.36V20.7604H57.9386V18.5549H48.4414Z" fill="#003C83"/>
<path d="M44.587 7.80249H39.7696V3.66699H37.4297V14.1436H39.7696V9.87024H44.587V14.1436H46.9269V3.66699H44.587V7.80249Z" fill="#003C83"/>
<path d="M94.2752 4.35614C93.8622 4.90754 93.7246 5.59681 93.7246 6.01036V14.2814H96.0645V10.973H100.882V14.2814H103.222V3.80479H96.0645C95.3763 3.66694 94.8257 3.80474 94.2752 4.35614ZM96.615 5.73464H100.882V8.76736H96.0645V6.28608C96.0645 6.14823 96.0645 6.01039 96.2021 5.87254C96.2021 5.73469 96.4774 5.73464 96.615 5.73464Z" fill="#003C83"/>
<path d="M78.1729 3.66699H71.0156V14.1436H73.3555V5.73474H77.6223C77.8976 5.73474 78.0353 5.73479 78.1729 5.87264C78.3105 6.01049 78.3105 6.14833 78.3105 6.28618V14.1436H80.6505V5.87264C80.6505 5.45909 80.6504 4.76983 80.0999 4.21843C79.4117 3.80488 78.7235 3.66699 78.1729 3.66699Z" fill="#003C83"/>
<path d="M66.6094 11.5245C66.6094 11.6623 66.6094 11.8001 66.4717 11.938C66.3341 12.0758 66.1965 12.0759 65.9212 12.0759H61.6543V3.66699H59.3145V14.1436H66.4717C67.1599 14.1436 67.8482 14.0058 68.2611 13.5922C68.8116 13.0408 68.8116 12.3515 68.8116 11.938V3.66699H66.6094V11.5245Z" fill="#003C83"/>
<path d="M91.9366 6.01025C91.9366 5.5967 91.9366 4.90744 91.3861 4.35604C90.9732 3.80464 90.285 3.80469 89.5968 3.80469H82.4395V14.2813H89.5968C90.285 14.2813 90.9732 14.1435 91.3861 13.7299C91.799 13.1785 91.9366 12.4892 91.9366 12.0757V6.01025ZM89.5968 11.5243C89.5968 11.6621 89.5968 11.7999 89.4591 11.9378C89.3215 12.0756 89.1838 12.0757 88.9086 12.0757H84.6417V5.73454H88.9086C89.1838 5.73454 89.3215 5.73459 89.4591 5.87244C89.5968 6.01029 89.5968 6.14812 89.5968 6.28597V11.5243Z" fill="#003C83"/>
<path d="M53.1208 8.35372L50.368 3.80469H47.6152L51.8821 10.4215V14.2813H54.3596V10.4215L58.6265 3.80469H55.8737L53.1208 8.35372Z" fill="#003C83"/>
<path d="M105.562 3.66699H108.04V14.1436H105.562V3.66699Z" fill="#003C83"/>
<defs>
<linearGradient id="paint0_linear_66_22004" x1="16.8755" y1="31.2082" x2="16.8755" y2="-42.0377" gradientUnits="userSpaceOnUse">
<stop stop-color="#004EA2"/>
<stop offset="1" stop-color="#00A1E9"/>
</linearGradient>
</defs>
</svg>
