<svg width="70" height="73" viewBox="0 0 70 73" fill="none" xmlns="http://www.w3.org/2000/svg">
<g clip-path="url(#clip0_66_22274)">
<mask id="mask0_66_22274" style="mask-type:luminance" maskUnits="userSpaceOnUse" x="0" y="0" width="70" height="73">
<path d="M70 0H0V73H70V0Z" fill="white"/>
</mask>
<g mask="url(#mask0_66_22274)">
<path d="M11.5973 61.7371C11.5973 61.8067 11.6659 61.7371 11.6659 61.8067C11.7346 61.8067 11.7346 61.8762 11.8032 61.9457C11.8718 62.0848 11.8032 62.1543 11.8032 62.2933V62.3629C11.8032 62.5714 11.8032 62.8495 11.8718 63.0581C11.9404 63.2667 12.0091 63.4057 12.0777 63.6143C12.0777 63.6838 12.1463 63.7533 12.0777 63.8229C12.0777 63.8924 12.0777 63.8229 12.0777 63.8924C12.0777 63.9619 12.0091 63.8924 12.0091 63.9619C12.0091 63.9619 11.9404 64.0314 11.9404 63.9619C11.8718 63.8924 11.8032 63.9619 11.7346 63.8924C11.6659 63.8924 11.5973 63.8229 11.5973 63.7533C11.5973 63.6838 11.5287 63.6838 11.5287 63.6838C11.4601 63.6143 11.4601 63.5448 11.3914 63.4752C11.3914 63.4752 11.3914 63.4057 11.3228 63.4057C11.3914 63.4057 11.3228 63.3362 11.3228 63.3362C11.3228 63.2667 11.3228 63.1971 11.2542 63.1276C11.2542 63.0581 11.2542 63.1276 11.2542 63.0581C11.2542 63.0581 11.2542 63.0581 11.2542 62.9886C11.1855 62.919 11.2542 62.919 11.2542 62.919C11.2542 62.8495 11.2542 62.78 11.1855 62.6409V62.5714C11.1855 62.5019 11.1855 62.5019 11.1855 62.4324C11.1855 62.3629 11.1855 62.3629 11.1855 62.2933V62.2238C11.1855 62.0848 11.2542 62.0152 11.2542 61.9457C11.2542 61.8762 11.2542 61.8762 11.2542 61.8762C11.2542 61.8067 11.2542 61.7371 11.3228 61.7371C11.4601 61.6676 11.5973 61.6676 11.5973 61.7371Z" fill="#A8000C"/>
<path d="M9.81385 61.8067C9.88248 61.8067 9.95111 61.8067 9.95111 61.8762C9.95111 61.8762 10.0197 61.8762 10.0197 61.9457C10.0884 61.9457 10.0884 62.0152 10.0884 62.0848C10.0884 62.2238 10.157 62.2933 10.157 62.4324C10.2256 62.5714 10.157 62.78 10.157 62.919C10.0884 62.9886 10.0884 63.1276 10.0884 63.2667V63.3362C10.0197 63.4057 10.0197 63.5448 10.0197 63.6143C10.0197 63.6838 9.95111 63.7533 9.95111 63.8228C9.95111 63.8924 9.95111 63.9619 9.88248 64.0314C9.88248 64.0314 9.88248 64.0314 9.88248 63.9619C9.88248 63.9619 9.88248 63.8924 9.81385 63.8924V63.8228C9.81385 63.8228 9.81385 63.8924 9.74522 63.8228C9.74522 63.8228 9.74523 63.7533 9.6766 63.7533C9.6766 63.7533 9.6766 63.8228 9.60797 63.7533C9.60797 63.7533 9.60797 63.7533 9.60797 63.8228H9.53934C9.60797 63.7533 9.47071 63.7533 9.53934 63.7533C9.53934 63.6838 9.53934 63.5448 9.53934 63.4752C9.53934 63.4057 9.60797 63.3362 9.60797 63.2667C9.60797 63.1971 9.60797 63.1971 9.6766 63.1276C9.6766 63.0581 9.6766 63.0581 9.6766 62.9886C9.74523 62.919 9.6766 62.8495 9.74522 62.78C9.74522 62.7105 9.74522 62.7105 9.74522 62.6409C9.6766 62.5714 9.6766 62.5019 9.6766 62.5019C9.74523 62.5019 9.74522 62.5019 9.74522 62.4324C9.74522 62.3628 9.74522 62.3628 9.74522 62.3628C9.81385 62.2933 9.6766 62.1543 9.81385 62.0848C9.74523 61.8067 9.74523 61.7371 9.81385 61.8067Z" fill="#A8000C"/>
<path d="M13.5188 66.3952C13.5874 66.3952 13.5874 66.3952 13.5188 66.3952C13.5874 66.3952 13.5874 66.3952 13.5874 66.3952C13.5874 66.3952 13.5874 66.3952 13.656 66.3952V66.3257C13.656 66.3257 13.656 66.2562 13.7246 66.2562V66.1867C13.7246 66.1867 13.7246 66.1867 13.656 66.1867C13.5874 66.1867 13.4501 66.1867 13.3815 66.1867C13.3129 66.1867 13.3129 66.1867 13.2443 66.1867C13.1756 66.1867 13.107 66.1867 13.107 66.1867C13.107 66.1867 13.107 66.1867 13.0384 66.1867C12.8325 66.1867 12.6952 66.1171 12.558 66.0476C12.558 66.0476 12.4894 66.0476 12.4894 65.9781C12.4894 65.9781 12.4894 65.9781 12.4207 65.9781H12.3521V65.9086H12.2835C12.2835 65.839 12.2148 65.9086 12.1462 65.839L12.0776 65.7695C12.009 65.7695 11.8717 65.6305 11.8717 65.5609C11.8031 65.4914 11.7345 65.3524 11.6658 65.2828C11.4599 65.0048 11.1854 64.7267 11.1168 64.379C11.0482 64.1705 11.1168 63.8228 11.0482 63.6143C11.0482 63.3362 11.0482 63.1276 11.0482 62.8495V62.78C11.0482 62.7105 11.0482 62.6409 11.0482 62.6409C11.0482 62.5019 11.0482 62.4324 11.0482 62.2933C11.1168 62.2933 11.0482 62.2238 11.0482 62.1543C11.1168 62.0848 11.0482 62.0152 11.1168 61.9457C11.1168 61.8067 11.1168 61.7371 11.1168 61.5981C11.1854 61.459 11.1854 61.2505 11.1854 61.1114C11.1168 61.0419 11.1168 61.0419 11.1168 60.9724C11.1168 60.9028 11.1168 60.9028 11.0482 60.8333C11.0482 60.8333 11.0482 60.7638 10.9795 60.7638C10.9795 60.7638 10.9109 60.7638 10.9109 60.6943H10.8423C10.7737 60.6943 10.7737 60.6943 10.705 60.6943C10.705 60.6943 10.705 60.6943 10.6364 60.6943C10.6364 60.7638 10.5678 60.6943 10.5678 60.7638C10.5678 60.7638 10.4992 60.8333 10.4305 60.8333C10.4305 60.9028 10.3619 60.9028 10.3619 60.9724C10.2933 60.9724 10.3619 61.1114 10.2933 61.1114C10.2933 61.1809 10.2246 61.1809 10.2246 61.1809C10.156 61.1809 10.2246 61.2505 10.156 61.2505L10.0874 61.32C10.0874 61.3895 10.0188 61.3895 10.0874 61.459C10.0188 61.5286 10.0188 61.5981 10.0874 61.6676C10.0874 61.6676 10.0874 61.7371 10.156 61.7371C10.156 61.8067 10.2246 61.8762 10.2933 61.8762C10.2933 61.9457 10.3619 61.8762 10.3619 61.9457C10.3619 61.9457 10.4305 61.9457 10.4305 62.0152V62.0848C10.4992 62.2933 10.4992 62.5714 10.4992 62.78H10.5678C10.5678 62.78 10.5678 62.8495 10.5678 62.919C10.6364 63.0581 10.4992 63.1276 10.5678 63.2667C10.4992 63.3362 10.5678 63.4057 10.5678 63.4752C10.5678 63.5448 10.5678 63.6143 10.5678 63.6143C10.5678 63.6143 10.5678 63.6838 10.5678 63.7533C10.5678 63.8228 10.5678 63.8924 10.5678 63.9619C10.4305 64.3095 10.2933 64.8657 10.0874 65.2133C9.88151 65.4914 9.67563 65.6305 9.46975 65.839C9.40112 65.839 9.40112 65.9086 9.33249 65.9086C9.26386 65.9086 9.33249 65.9781 9.26386 65.9781C9.19524 66.0476 9.05798 66.0476 8.98935 66.1171C8.8521 66.1867 8.78347 66.3257 8.71484 66.4647C8.71484 66.5343 8.78347 66.6038 8.78347 66.6733H8.8521L8.98935 66.8124C9.05798 66.8124 9.12661 66.8124 9.19524 66.7428C9.26386 66.7428 9.26386 66.7428 9.26386 66.7428C9.33249 66.7428 9.33249 66.6733 9.40112 66.6038C9.46975 66.6038 9.53837 66.4647 9.607 66.3952C9.67563 66.3257 9.74426 66.2562 9.81288 66.1867C9.88151 66.1171 9.95014 65.9781 10.0874 65.9781C10.2246 65.839 10.2933 65.7695 10.3619 65.6305C10.3619 65.5609 10.4305 65.4914 10.4305 65.4219C10.4992 65.2828 10.5678 65.1438 10.6364 65.0047C10.6364 64.9352 10.6364 64.8657 10.705 64.8657C10.7737 64.9352 10.7737 65.0047 10.8423 65.0047C10.8423 65.0743 10.9109 65.1438 10.9795 65.2133C11.0482 65.2828 11.0482 65.3524 11.1168 65.4219C11.1168 65.4914 11.2541 65.5609 11.2541 65.6305C11.3227 65.7 11.3227 65.7 11.3227 65.7695L11.3913 65.839C11.4599 65.9086 11.5286 65.9781 11.5972 66.1171C11.5972 66.1171 11.6658 66.1171 11.6658 66.1867C11.6658 66.2562 11.8031 66.2562 11.8717 66.3257C11.9403 66.3952 11.9403 66.3952 12.009 66.3952C12.0776 66.4647 12.1462 66.4647 12.2148 66.4647C12.2835 66.4647 12.2835 66.5343 12.2835 66.4647C12.2835 66.4647 12.2835 66.4647 12.3521 66.4647C12.4207 66.5343 12.558 66.6038 12.6952 66.6038C12.6952 66.6038 12.7639 66.6038 12.8325 66.6038C12.9011 66.6038 12.9697 66.6038 13.107 66.6038H13.1756C13.2443 66.6038 13.2443 66.6038 13.3129 66.6038H13.3815H13.4501C13.3815 66.4648 13.3815 66.3952 13.5188 66.3952Z" fill="#A8000C"/>
<path d="M12.6266 62.5019C12.6266 62.5019 12.558 62.5714 12.558 62.6409C12.558 62.7105 12.558 62.78 12.558 62.8495C12.558 62.8495 12.6266 62.919 12.6952 62.919C12.9011 62.919 13.107 62.78 13.3129 62.78C13.3815 62.78 13.4501 62.7105 13.5188 62.7105C13.8619 62.6409 14.205 62.5714 14.5482 62.6409C14.5482 62.5714 14.6168 62.6409 14.6168 62.5714C14.6168 62.5019 14.6168 62.5019 14.6168 62.4324C14.6168 62.3629 14.6854 62.2933 14.6854 62.2238V62.1543C14.6168 62.1543 14.5482 62.0848 14.4796 62.0848C14.4796 62.0848 14.4109 62.0848 14.3423 62.0848C14.1364 62.0848 13.8619 62.0848 13.656 62.0848V62.0152C13.656 62.0152 13.656 61.9457 13.7246 61.9457C13.7933 61.9457 13.7933 61.9457 13.8619 61.9457H13.9305C14.0678 62.0152 14.2737 62.0152 14.4796 61.9457C14.5482 61.9457 14.5482 61.9457 14.5482 61.9457C14.5482 61.9457 14.4796 61.9457 14.4796 61.8762C14.4796 61.8762 14.4796 61.8762 14.5482 61.8067V61.7371C14.5482 61.6676 14.6168 61.7371 14.6168 61.7371C14.6168 61.7371 14.6168 61.7371 14.5482 61.7371C14.6168 61.7371 14.5482 61.6676 14.6168 61.6676C14.6168 61.6676 14.6168 61.6676 14.6168 61.5981C14.6168 61.5286 14.5482 61.5286 14.5482 61.5286C14.5482 61.5286 14.5482 61.5286 14.4796 61.5286V61.459C14.4796 61.459 14.4109 61.3895 14.4109 61.459C14.205 61.3895 13.9305 61.3895 13.7246 61.3895C13.656 61.32 13.7246 61.32 13.7246 61.2505C13.7933 61.2505 13.7933 61.1114 13.8619 61.1114C13.8619 61.1114 13.8619 61.0419 13.8619 60.9724C13.8619 60.9029 13.8619 60.9029 13.7933 60.8333C13.7933 60.7638 13.7246 60.8333 13.7246 60.7638V60.6943C13.7246 60.6943 13.7246 60.6248 13.656 60.6248C13.656 60.6248 13.656 60.6248 13.5874 60.6248C13.5188 60.6248 13.4501 60.6248 13.3815 60.6943C13.3815 60.6943 13.3129 60.6943 13.3129 60.7638C13.2443 60.7638 13.2443 60.8333 13.2443 60.8333C13.2443 60.8333 13.2443 60.8333 13.1756 60.8333C13.1756 60.8333 13.1756 60.9029 13.107 60.9029C13.107 60.9724 13.0384 60.9724 13.0384 61.0419L12.9697 61.1114C12.9697 61.1114 12.9697 61.1809 12.9011 61.1809V61.2505V61.32V61.3895C12.9697 61.459 12.9011 61.459 12.9011 61.459C12.9011 61.5286 12.8325 61.459 12.8325 61.5286C12.8325 61.5286 12.8325 61.5286 12.7639 61.5286C12.7639 61.5286 12.6952 61.5286 12.6266 61.5286C12.558 61.5981 12.4207 61.5981 12.3521 61.6676C12.2835 61.6676 12.2835 61.7371 12.2148 61.8067V61.8762V61.9457V62.0152C12.2148 62.0848 12.2148 62.1543 12.2835 62.2238C12.3521 62.2238 12.4207 62.2933 12.4894 62.2933C12.558 62.2933 12.558 62.2933 12.6266 62.2933C12.6952 62.2933 12.8325 62.2238 12.9011 62.2933V62.3629C12.9011 62.3629 12.9697 62.3629 12.9697 62.4324V62.5019C12.9011 62.5019 12.9011 62.5019 12.8325 62.5019C12.8325 62.5019 12.8325 62.5019 12.7639 62.5019C12.6952 62.5019 12.6952 62.5714 12.6952 62.5714C12.6266 62.5714 12.558 62.6409 12.4894 62.6409L12.4207 62.7105C12.4207 62.7105 12.4207 62.7105 12.4207 62.78C12.6266 62.4324 12.6266 62.5019 12.6266 62.5019Z" fill="#A8000C"/>
<path d="M12.147 64.101L12.2156 64.1705C12.2843 64.1705 12.2843 64.24 12.3529 64.24C12.4215 64.24 12.4902 64.24 12.5588 64.24C12.696 64.1705 12.8333 64.1705 13.0392 64.101C13.0392 64.101 13.0392 64.101 13.1078 64.101C13.2451 64.0314 13.3823 64.0315 13.3823 63.8924C13.3823 63.8229 13.3823 63.8229 13.4509 63.8229C13.4509 63.8229 13.4509 63.8229 13.3823 63.8229C13.3823 63.8229 13.4509 63.8229 13.4509 63.7534C13.4509 63.7534 13.4509 63.7534 13.3823 63.7534C13.3823 63.7534 13.3823 63.6838 13.4509 63.6838H13.5196C13.3823 63.6143 13.2451 63.6838 13.1078 63.6838C13.1078 63.6838 13.1078 63.6143 13.1764 63.6143C13.2451 63.6143 13.1764 63.5448 13.1764 63.5448C13.2451 63.5448 13.2451 63.4753 13.3137 63.4057C13.3137 63.3362 13.3823 63.3362 13.4509 63.3362C13.4509 63.2667 13.5196 63.2667 13.5196 63.1972V63.1276V63.0581C13.5196 63.0581 13.5882 62.9886 13.5196 62.9886L13.5882 62.9191V62.8495H13.5196C13.4509 62.8495 13.3823 62.8495 13.3137 62.8495H13.2451H13.1764C13.1078 62.8495 13.1078 62.9191 13.0392 62.9191C12.8333 62.9886 12.6274 63.0581 12.4215 63.1276C12.3529 63.1276 12.3529 63.1972 12.2843 63.1972C12.2843 63.2667 12.2156 63.2667 12.2156 63.3362V63.4057C12.2156 63.4753 12.2156 63.4753 12.2843 63.5448L12.3529 63.6143C12.4215 63.6838 12.5588 63.6143 12.6274 63.6143C12.6274 63.6838 12.6274 63.7534 12.5588 63.8229C12.4902 63.8924 12.4215 63.8924 12.3529 63.9619C12.3529 63.9619 12.3529 63.9619 12.2843 63.9619C12.2156 64.0315 12.2156 63.9619 12.147 63.9619C12.0784 64.0315 12.0784 64.0314 12.0098 64.101C12.147 64.0314 12.147 64.101 12.147 64.101Z" fill="#A8000C"/>
<path d="M16.6075 65.6305C16.6075 65.561 16.5389 65.561 16.5389 65.561L16.6075 65.6305C16.5389 65.561 16.5389 65.4914 16.5389 65.4914V65.4219H16.4703C16.4703 65.4219 16.4703 65.4219 16.4703 65.3524C16.4703 65.2829 16.5389 65.2829 16.5389 65.2829H16.4703C16.4703 65.3524 16.4016 65.4219 16.333 65.4219V65.4914C16.333 65.4914 16.333 65.4914 16.333 65.561C16.2644 65.561 16.333 65.6305 16.2644 65.6305V65.561C16.1958 65.6305 16.0585 65.7 15.9899 65.7C15.9212 65.7695 15.9212 65.7 15.8526 65.7695C15.784 65.7695 15.784 65.8391 15.7154 65.8391C15.7154 65.8391 15.7154 65.8391 15.6467 65.8391C15.4408 65.9086 15.5095 65.9781 15.3722 65.9086H15.3036C15.235 65.9086 15.1663 65.9781 15.0977 65.9086C14.8918 65.9086 14.8918 65.9086 14.6859 65.9086C14.5487 65.9086 14.4801 65.8391 14.4114 65.8391L14.3428 65.7695V65.7C14.4114 65.7 14.3428 65.6305 14.3428 65.561C14.4114 65.561 14.3428 65.4914 14.3428 65.4914C14.3428 65.4219 14.3428 65.3524 14.4114 65.3524V65.2829V65.2134L14.4801 65.1438C14.5487 65.0743 14.4801 65.0048 14.5487 65.0048C14.5487 64.9353 14.6173 64.9353 14.6173 64.8657C14.8232 64.8657 14.9605 64.8657 15.1663 64.8657C15.235 64.8657 15.3722 64.8657 15.4408 64.8657H15.5095C15.5095 64.8657 15.5095 64.8657 15.5095 64.7962C15.5095 64.7267 15.5781 64.7267 15.5781 64.7267L15.5095 64.6572C15.5095 64.6572 15.5095 64.6572 15.5095 64.5876H15.5781L15.5095 64.5181C15.5095 64.4486 15.4408 64.4486 15.4408 64.4486C15.4408 64.3791 15.3722 64.4486 15.3722 64.3791H15.3036C15.3036 64.3095 15.235 64.3095 15.1663 64.3095C15.0977 64.3095 15.0977 64.3095 15.0291 64.3095H14.9605C14.8918 64.24 14.8232 64.3095 14.7546 64.3095C14.6859 64.3095 14.6859 64.3095 14.6173 64.3095C14.5487 64.3095 14.4801 64.3095 14.4801 64.3095C14.4114 64.3095 14.3428 64.3095 14.2056 64.3095H14.1369H14.0683C13.9997 64.3791 13.9997 64.3095 13.931 64.3095H13.8624C13.7938 64.3095 13.7252 64.3791 13.5879 64.3791L13.6565 64.3095C13.6565 64.3095 13.6565 64.24 13.7252 64.3095C13.7252 64.3095 13.7938 64.3095 13.7938 64.24C13.8624 64.24 13.931 64.1705 13.9997 64.1705C14.0683 64.1705 14.0683 64.101 14.0683 64.1705L14.1369 64.101C14.4114 64.0314 14.6173 64.0314 14.8918 64.0314C14.9605 63.9619 15.0291 64.0314 15.0291 63.9619C15.0291 63.8924 15.0977 63.8229 15.0977 63.7533C15.1663 63.7533 15.0977 63.6838 15.0977 63.6838V63.6143C14.8918 63.5448 14.6173 63.5448 14.4114 63.6143C14.4114 63.5448 14.4801 63.5448 14.4801 63.5448C14.5487 63.5448 14.5487 63.4753 14.6173 63.4753C14.6859 63.4753 14.8232 63.4753 14.8918 63.4753H14.9605H15.0291H15.0977C15.1663 63.4753 15.1663 63.4753 15.235 63.4057V63.3362C15.235 63.2667 15.1663 63.2667 15.1663 63.2667C15.0977 63.1972 14.9605 63.1276 14.8232 63.1972C14.7546 63.1276 14.6173 63.1972 14.5487 63.1972C14.2742 63.2667 13.9997 63.2667 13.7938 63.3362C13.7938 63.4057 13.7252 63.4057 13.7252 63.4057C13.6565 63.4057 13.6565 63.4753 13.6565 63.4753C13.5879 63.4753 13.6565 63.5448 13.5879 63.6143C13.5879 63.6143 13.6565 63.6143 13.5879 63.6838C13.5879 63.7533 13.6565 63.7533 13.7252 63.7533C13.7938 63.8229 13.931 63.8229 13.9997 63.8229C13.9997 63.8924 13.931 63.8924 13.931 63.9619C13.8624 63.9619 13.8624 64.101 13.7938 64.101C13.7252 64.1705 13.6565 64.1705 13.5879 64.24H13.5193V64.3095V64.3791C13.5193 64.4486 13.5193 64.5876 13.5193 64.6572H13.5879C13.5193 64.6572 13.5193 64.7267 13.4507 64.7267C13.1075 64.7962 12.833 64.8657 12.4899 65.0048C12.4212 65.0743 12.284 65.0743 12.2154 65.1438V65.2134C12.1467 65.2134 12.1467 65.2829 12.1467 65.2829C12.0781 65.3524 12.1467 65.3524 12.1467 65.4219C12.2154 65.4219 12.1467 65.561 12.2154 65.561C12.284 65.561 12.284 65.561 12.3526 65.561C12.3526 65.561 12.3526 65.561 12.4212 65.561C12.4899 65.561 12.5585 65.4914 12.6271 65.4914C12.6958 65.4914 12.6271 65.4914 12.6958 65.4914C12.7644 65.4914 12.7644 65.4914 12.833 65.4914C12.9016 65.4914 12.9703 65.4219 12.9703 65.4914C12.9016 65.7 12.9703 65.7 12.9016 65.9086C12.9016 65.9781 12.833 66.1172 12.833 66.1867C12.7644 66.2562 12.7644 66.2562 12.7644 66.2562C12.7644 66.2562 12.6958 66.2562 12.6958 66.3257C12.6958 66.3257 12.6271 66.3953 12.5585 66.3953C12.5585 66.3953 12.5585 66.3953 12.4899 66.3953H12.4212C12.3526 65.9781 12.284 66.0476 12.2154 66.0476C12.1467 66.0476 12.0781 66.0476 12.0095 66.0476C11.8722 66.0476 11.735 66.0476 11.5291 66.0476C11.4605 66.0476 11.4605 66.0476 11.3918 66.1172V66.1867C11.3232 66.1867 11.3918 66.2562 11.3918 66.2562V66.3257C11.4605 66.3953 11.4605 66.4648 11.5291 66.4648C11.5291 66.5343 11.5977 66.5343 11.6663 66.5343C11.6663 66.5343 11.735 66.5343 11.735 66.6038C11.8036 66.6038 11.8722 66.6038 11.9408 66.6038H12.0095H12.0781C12.1467 66.6038 12.2154 66.6038 12.2154 66.6038C12.284 66.6038 12.284 66.6038 12.284 66.6038C12.3526 66.6038 12.3526 66.5343 12.3526 66.6038C12.4212 66.6038 12.4899 66.5343 12.5585 66.5343C12.5585 66.5343 12.6271 66.5343 12.6271 66.4648C12.6271 66.4648 12.6958 66.4648 12.6958 66.3953C12.6958 66.3953 12.6958 66.3257 12.7644 66.3257C12.833 66.3257 12.833 66.2562 12.9016 66.2562C12.9703 66.1867 13.1075 66.0476 13.1075 65.9781C13.1761 65.9086 13.1761 65.7695 13.2448 65.7C13.3134 65.4914 13.3134 65.4219 13.382 65.2134C13.4507 65.1438 13.382 65.1438 13.382 65.0743V65.0048C13.382 65.0048 13.382 64.9353 13.4507 64.9353C13.4507 64.8657 13.5193 64.8657 13.5193 64.7962C13.5193 64.7962 13.5193 64.7267 13.5879 64.7962C13.6565 64.7267 13.7938 64.7267 13.8624 64.7267V64.7962C13.7938 65.0048 13.7938 65.1438 13.7938 65.3524C13.7938 65.4219 13.7938 65.4914 13.7938 65.561C13.7938 65.6305 13.7938 65.7 13.7938 65.7695C13.7252 65.8391 13.7252 65.9086 13.7252 65.9781V66.0476C13.7252 66.1172 13.7252 66.1867 13.7252 66.1867L13.7938 66.2562L13.8624 66.3257C13.931 66.3257 13.931 66.3953 13.931 66.3953C13.9997 66.3953 14.1369 66.3953 14.2056 66.3953C14.2742 66.3953 14.4114 66.4648 14.4801 66.4648C14.4801 66.4648 14.5487 66.4648 14.5487 66.5343C14.6173 66.5343 14.6173 66.6038 14.6859 66.6038C14.7546 66.6038 14.8918 66.6733 15.0291 66.6733C15.0977 66.7429 15.0291 66.6733 15.0977 66.7429H15.235H15.3036C15.3722 66.7429 15.235 66.8124 15.3722 66.8124L15.4408 66.7429C15.5095 66.7429 15.5781 66.6733 15.6467 66.6733C15.6467 66.6733 15.6467 66.6038 15.7154 66.6733C15.784 66.6733 15.784 66.6734 15.784 66.6038C15.784 66.6038 15.8526 66.6038 15.8526 66.5343V66.4648C15.9212 66.3953 15.9212 66.2562 15.9899 66.2562C16.0585 66.2562 15.9899 66.1867 16.0585 66.1867C16.0585 66.1867 16.0585 66.1867 16.0585 66.2562C16.0585 66.1867 16.1271 66.1867 16.1271 66.1867C16.1271 66.1867 16.1271 66.1867 16.1271 66.1172C16.1958 66.1172 16.1958 66.0476 16.1958 66.0476V65.9781C16.1958 65.9086 16.1958 65.9086 16.2644 65.8391V65.7695C16.5389 65.7 16.5389 65.7 16.6075 65.6305Z" fill="#A8000C"/>
<path d="M14.8235 59.3038L15.0294 59.3733H15.3039H15.647H15.9901C16.0588 59.3733 16.196 59.3733 16.3333 59.3733H16.6764C16.8137 59.3733 16.8823 59.4428 16.8823 59.5124C16.8823 59.6514 16.8823 59.7209 16.8823 59.86C16.8823 59.9295 16.8823 59.999 16.8823 60.1381C16.8823 60.2771 16.8823 60.4162 16.8823 60.5552V60.9028C16.8823 60.9028 16.8823 61.0419 16.8823 61.1809C16.8823 61.2505 16.8823 61.3895 16.8823 61.459C16.8823 61.6676 16.9509 61.8762 16.9509 61.8762V62.1543V63.1971V63.5448V64.5876C16.9509 64.8657 16.9509 65.1438 16.9509 65.4219C16.9509 65.5609 16.9509 65.7 16.9509 65.7695C16.9509 65.9086 16.9509 66.1171 16.9509 66.1867C16.9509 66.3257 16.9509 66.5343 16.9509 66.6733C16.9509 66.9514 16.8823 67.16 16.8823 67.16C16.8823 67.2295 16.8137 67.5076 16.8137 67.5076C16.8137 67.5076 16.8137 67.7857 16.8137 67.8552C16.8137 67.8552 16.6078 67.9943 16.6078 68.0638C16.5392 68.0638 15.7156 67.9943 15.7156 67.9943C15.647 67.9943 15.3039 68.0638 15.3039 68.0638L14.2744 68.1333H14.0686H12.9705H12.7646H11.2548H10.2941L8.99014 68.2028C8.99014 68.2028 8.37249 68.2028 8.23523 68.2028C8.23523 68.2028 8.16661 68.0638 8.09798 68.0638C8.09798 67.9943 8.02935 67.299 8.02935 67.299V66.8124L8.09798 65.7V64.5181L7.8921 64.24L8.02935 63.8924L8.09798 62.919L8.02935 61.5981L7.96073 61.459C7.96073 61.3895 7.96073 61.32 7.96073 61.32C7.96073 61.1809 8.02935 61.1114 8.02935 60.9724V60.3467V59.7905C8.02935 59.5819 8.09798 59.5819 8.23523 59.5124C8.23523 59.5124 8.44112 59.5124 8.57837 59.5124C8.85288 59.5124 9.12739 59.5124 9.12739 59.5124H9.60778H10.0195H10.2941H10.7058C10.7058 59.5124 10.8431 59.5124 10.9803 59.5124C11.1176 59.5124 11.2548 59.5124 11.2548 59.5124C11.2548 59.5124 11.3921 59.5124 11.598 59.5124C11.6666 59.5124 11.8039 59.5124 11.8725 59.5124C11.9411 59.5124 12.0097 59.5124 12.147 59.5819H12.4215C12.4215 59.5819 12.5588 59.5819 12.7646 59.5819C12.9019 59.5819 12.9705 59.5819 13.1078 59.5819C13.245 59.5819 13.245 59.5819 13.4509 59.5819C13.5195 59.5819 13.5882 59.5819 13.7254 59.5819C13.8627 59.5819 15.0294 59.5819 15.0294 59.5819C15.098 59.5819 15.1666 59.5819 15.1666 59.5819C15.2352 59.5819 15.5097 59.4429 15.5784 59.3038C15.5784 59.2343 15.5784 59.1648 15.5097 59.0952C15.4411 59.0257 15.2352 58.9562 15.2352 58.9562C15.098 58.9562 13.4509 58.9562 13.4509 58.9562H13.1764L12.2156 58.8867C12.147 58.8867 11.6666 58.8867 11.6666 58.8867L10.7745 58.9562H10.4313H9.67641C9.67641 58.9562 9.53916 58.9562 9.26465 58.9562C9.12739 58.9562 8.99014 58.9562 8.85288 58.9562C8.71563 58.9562 8.647 58.9562 8.57837 58.9562C8.37249 59.0257 8.23523 59.0952 8.09798 59.2343L7.96073 59.4429C7.8921 59.5819 7.82347 59.7209 7.82347 59.86C7.82347 59.999 7.82347 60.4857 7.82347 60.4857V60.8333V61.8067V62.2238V62.5019C7.82347 62.6409 7.82347 62.78 7.82347 62.919V63.1971V63.6143V64.1705C7.82347 63.8924 7.75484 64.5181 7.82347 65.2829V66.0476V66.6038V67.3686L7.8921 67.7857C7.8921 67.8552 7.8921 67.9943 7.8921 68.0638C7.8921 68.2724 8.30386 68.9676 8.71563 69.0371C8.92151 69.1067 9.12739 69.1067 9.33327 69.1067L10.6372 69.0371H11.8725L12.2843 68.9676L13.245 69.0371L14.6176 68.9676L14.9607 69.0371C14.9607 69.0371 15.9901 68.9676 16.0588 68.9676L16.4705 69.0371L17.0195 68.9676L17.2941 68.759L17.5686 68.3419C17.6372 68.2029 17.6372 68.1333 17.6372 67.9943C17.6372 67.8552 17.6372 67.7162 17.6372 67.5771V67.299V67.0209V66.8124V66.5343V66.1171L17.7745 65.7V65.0048V64.5876V63.6143V62.2933V62.0848C17.7745 61.9457 17.7745 61.8762 17.7745 61.7371L17.7058 60.6943V60.3467C17.7058 60.1381 17.7058 59.86 17.7058 59.6514C17.6372 59.3733 17.4313 59.1648 17.1568 59.0952C16.9509 59.0257 16.2646 59.0952 16.2646 59.0952L15.5784 59.0257C15.5784 59.0257 15.2352 59.0952 15.1666 59.0952C14.6176 58.8171 14.4803 59.0952 14.8235 59.3038Z" fill="#A8000C"/>
<path d="M32.5296 35.7352H32.4609V35.8048H32.5296V35.7352Z" fill="black"/>
<path d="M32.597 39.6981C32.597 39.6981 32.4598 39.6981 32.5284 39.559C32.3225 39.559 32.597 39.6981 32.5284 39.7676C32.5284 39.8371 32.4598 39.9066 32.5284 39.9066C32.597 40.0457 32.4598 40.0457 32.3912 40.1152L32.3225 40.0457C32.3225 40.1152 32.3225 40.1152 32.3912 40.1847C32.4598 40.3238 32.3225 40.2543 32.2539 40.3238H32.3225L32.3912 40.3933C32.597 40.1847 32.597 39.9066 32.597 39.6981Z" fill="black"/>
<path d="M33.5586 39.4895V39.559C33.5586 39.6286 33.6272 39.6286 33.6272 39.6286C33.6272 39.559 33.6272 39.4895 33.5586 39.4895Z" fill="black"/>
<path d="M32.1863 40.8105C32.2549 40.5324 32.1863 40.3238 32.2549 40.1152H32.1863L32.1176 40.7409C32.1176 40.88 31.9804 40.88 32.1176 41.019C32.1863 40.9495 32.1176 40.88 32.1863 40.8105Z" fill="black"/>
<path d="M33.4199 40.3933V40.4628H33.4885C33.4885 40.4628 33.4885 40.3933 33.4199 40.3933Z" fill="black"/>
<path d="M33.2835 40.4628H33.2148V40.5324H33.2835V40.4628Z" fill="black"/>
<path d="M32.3223 40.741V40.8105C32.3223 40.8105 32.3909 40.8105 32.3909 40.741C32.3223 40.741 32.3223 40.741 32.3223 40.741Z" fill="black"/>
<path d="M32.4597 40.9495C32.4597 40.88 32.4597 40.8105 32.3911 40.8105C32.2538 40.88 32.3911 40.9495 32.3911 41.0191C32.4597 41.0191 32.4597 41.0191 32.4597 40.9495Z" fill="black"/>
<path d="M33.0784 40.88V40.8105H33.0098L33.0784 40.88Z" fill="black"/>
<path d="M33.4205 40.9495C33.4205 40.88 33.3518 40.9495 33.2832 40.9495V41.0191C33.3518 40.9495 33.4205 40.9495 33.4205 40.9495Z" fill="black"/>
<path d="M32.6663 41.019C32.6663 41.0886 32.6663 41.1581 32.5977 41.1581H32.6663C32.6663 41.1581 32.7349 41.0886 32.6663 41.019Z" fill="black"/>
<path d="M31.9805 41.4362C31.9805 41.5057 32.0491 41.4362 32.0491 41.4362H31.9805Z" fill="black"/>
<path d="M32.6665 41.5057C32.6665 41.5057 32.5979 41.4362 32.5293 41.4362V41.5057C32.5979 41.5057 32.6665 41.5752 32.6665 41.5057Z" fill="black"/>
<path d="M33.1468 41.4362H33.0781V41.5057H33.1468V41.4362Z" fill="black"/>
<path d="M32.9414 41.5057V41.5753C33.01 41.5753 33.01 41.5753 32.9414 41.5057Z" fill="black"/>
<path d="M31.9805 41.6448C31.9805 41.6448 31.9805 41.7838 32.1177 41.7838C31.9805 41.7143 32.0491 41.6448 31.9805 41.6448Z" fill="black"/>
<path d="M32.6663 41.7143H32.5977V41.7838H32.6663V41.7143Z" fill="black"/>
<path d="M32.8711 41.7838C32.9397 41.7838 32.9397 41.7838 32.8711 41.7838C32.9397 41.7143 32.8711 41.6448 32.8711 41.6448V41.7838Z" fill="black"/>
<path d="M33.3518 41.7143H33.2832V41.8533C33.3518 41.7838 33.4205 41.7838 33.3518 41.7143Z" fill="black"/>
<path d="M61.3517 67.7162C61.3517 67.5772 61.2144 67.3686 61.4203 67.2991C61.4203 67.16 61.3517 67.0905 61.4203 67.021C61.283 66.8124 61.2144 66.6038 61.0771 66.3952C61.0085 66.3257 60.9399 66.2562 60.8713 66.1867C60.734 66.1867 60.6654 66.1867 60.5968 66.1172L60.6654 66.0476L60.4595 65.9781C60.3909 66.1172 60.185 65.9781 60.0477 66.0476C60.0477 65.9781 59.9105 66.0476 59.8418 65.9781C59.3615 65.8391 58.8124 65.7695 58.332 65.8391C58.2634 65.7695 58.2634 65.7695 58.1948 65.8391C58.0575 65.7 57.9889 65.9086 57.8517 65.8391C57.3713 65.7 56.8909 65.7 56.4105 65.7C56.2732 65.7695 56.2046 65.561 56.0673 65.7C55.7928 65.561 55.3811 65.7 55.0379 65.6305L54.9693 65.561C53.9399 65.4914 52.9105 65.3524 51.8124 65.3524C51.6752 65.2133 51.5379 65.3524 51.4693 65.2829C51.4693 65.2829 51.4007 65.2829 51.332 65.2829C51.2634 65.2829 51.1262 65.3524 50.9889 65.2829C50.783 65.2829 50.5771 65.2829 50.3713 65.2829C50.234 65.3524 50.1654 65.2829 50.0281 65.3524C49.3419 65.2133 48.3811 65.4219 47.5575 65.3524L47.4889 65.2829C47.5575 65.0048 47.6262 64.7267 47.6948 64.5181C47.6948 64.3791 47.6948 64.1705 47.832 64.0314C47.832 63.8924 47.832 63.7533 47.9007 63.6143C47.9693 63.6143 47.9693 63.5448 47.9693 63.4753C47.832 63.2667 48.0379 62.9886 47.9693 62.7105C47.9693 62.5714 47.9007 62.3629 48.0379 62.2238C48.0379 61.8067 48.0379 61.32 48.0379 60.9029C48.0379 60.6943 48.0379 60.5553 48.1066 60.3467C48.0379 60.1381 48.0379 59.9295 48.1066 59.721C47.9693 59.6514 48.1752 59.5819 48.0379 59.5124V58.3305C47.9007 58.1914 48.0379 58.0524 47.9693 57.8438C47.9693 57.6352 47.9007 57.3572 47.9693 57.0791C47.832 56.801 48.0379 56.5229 47.9693 56.1753C47.7634 55.9667 48.1066 55.6191 47.9007 55.4105C47.9007 54.9238 47.832 54.4372 47.832 53.9505C47.832 53.881 47.7634 53.8114 47.7634 53.8114L47.6948 53.7419C47.832 53.2553 47.6262 52.8381 47.832 52.421C47.7634 52.0733 47.832 51.6562 47.832 51.3086C47.9007 51.0305 47.9007 50.8219 47.9007 50.5438C47.7634 50.4048 47.9007 50.1962 47.7634 49.9876C47.7634 49.8486 47.832 49.7095 47.6948 49.64C47.6948 49.4314 47.4203 49.2229 47.4889 49.0143C47.3517 48.9448 47.4203 48.6667 47.2144 48.7362C47.2144 48.5276 47.0085 48.5276 46.9399 48.3191C46.734 48.2495 46.5968 48.3886 46.4595 48.4581V48.5276C46.1164 48.6667 46.3222 49.0143 46.2536 49.2924C46.185 49.4314 46.2536 49.5705 46.2536 49.7095C46.185 49.7791 46.185 49.8486 46.185 49.9876C45.9791 50.4048 46.0477 50.8914 46.0477 51.3781C45.7732 51.5172 46.0477 51.7257 45.9105 52.0038C45.9105 52.0733 45.7732 52.1429 45.9105 52.2124C45.9105 52.2819 45.9105 52.3514 45.8419 52.421C45.9105 52.6991 45.7046 52.8381 45.7732 53.0467C45.7046 53.2553 45.636 53.5333 45.7046 53.7419C45.7046 53.881 45.5673 54.02 45.636 54.1591C45.5673 54.3676 45.636 54.5762 45.5673 54.7152C45.5673 55.2019 45.4301 55.7581 45.4987 56.2448L45.4301 56.3143C45.4301 56.6619 45.2928 57.0095 45.2928 57.2876C45.2242 57.6352 45.087 57.9829 45.1556 58.3305C45.1556 58.3305 45.1556 58.4 45.0869 58.3305C45.0869 58.5391 45.0183 58.6781 44.9497 58.8867C45.1556 59.4429 45.1556 59.86 45.0869 60.4162C45.2242 60.5552 45.1556 60.6248 45.1556 60.7638C45.2928 60.9724 44.9497 61.2505 45.1556 61.4591C45.087 61.5981 45.0869 61.7372 45.0183 61.7372C45.0869 62.2238 44.8811 62.9191 44.8124 63.4057C44.7438 63.5448 44.8811 63.6838 44.6752 63.7533C44.5379 64.0314 44.6066 64.24 44.4693 64.5181C44.4693 64.7962 44.332 65.2133 44.5379 65.4219C44.6066 65.4219 44.6752 65.4219 44.6752 65.3524C44.8124 65.4219 44.6752 65.561 44.6752 65.6305H43.783L43.7144 65.7C43.1654 65.7695 42.685 65.8391 42.136 65.8391C42.0673 65.9781 41.8615 65.9781 41.7928 65.9086C41.6556 65.9086 41.4497 65.8391 41.3811 65.9781C41.3811 65.9086 41.3124 65.8391 41.3811 65.7695C41.3811 65.7695 41.4497 65.8391 41.4497 65.7695V65.4914H41.3124C41.3124 65.3524 41.4497 65.2829 41.4497 65.1438C41.4497 65.0743 41.4497 64.9352 41.3811 64.8657C41.5183 64.7267 41.3811 64.5181 41.5183 64.3095C41.4497 64.3095 41.4497 64.3095 41.3811 64.3791L41.3124 64.1705C41.3811 64.1705 41.4497 64.101 41.5183 64.101C41.5183 63.6838 41.6556 62.9191 41.3811 62.5019L41.3124 62.5714C41.3811 62.78 41.3811 62.9886 41.3811 63.1972C41.3124 63.4752 41.3811 63.7533 41.2438 63.9619C41.1752 63.7533 41.2438 63.4752 41.2438 63.3362L41.3124 63.2667L41.3811 63.3362C41.3811 63.2667 41.3811 63.1972 41.3124 63.1972C41.3124 62.9886 41.1752 62.9886 41.2438 62.78C41.1066 62.7105 41.1752 62.5714 41.0379 62.5019L41.1066 62.4324C40.9007 62.2933 40.9693 62.0152 40.832 61.8762C40.7634 61.7372 40.7634 61.5981 40.6948 61.5286C40.5575 61.32 40.4889 61.0419 40.4203 60.7638C40.3517 60.6943 40.3517 60.5552 40.3517 60.4857H40.4203C40.4203 60.4857 40.4889 60.5552 40.4203 60.5552C40.4203 60.5552 40.4203 60.6248 40.3517 60.5552C40.4889 60.8333 40.5575 61.1114 40.832 61.2505V61.181C40.6948 61.0419 40.6948 60.9029 40.6262 60.7638C40.5575 60.6943 40.6948 60.5552 40.5575 60.5552C40.4203 60.4162 40.4203 60.2076 40.4203 59.9991C40.3517 59.9295 40.4203 59.7905 40.283 59.721C40.1458 59.5124 40.0771 59.3733 40.0771 59.1648C39.8026 58.7476 39.8026 58.1914 39.5968 57.7743C39.6654 57.6352 39.5281 57.4267 39.5968 57.2876C39.8026 57.1486 39.4595 56.94 39.5968 56.6619C39.5281 56.3838 39.5968 56.0362 39.5281 55.7581C39.5968 55.48 39.6654 55.2019 39.6654 54.9933C39.6654 54.7152 39.734 54.4372 39.8713 54.2286C39.8713 53.8114 40.0771 53.3248 40.4889 53.1162C40.6262 53.1857 40.4889 53.0467 40.6262 52.9772C40.7634 52.9772 40.832 52.7686 40.9693 52.8381V52.6991C41.0379 52.6295 41.1066 52.6295 41.1752 52.6991C41.1752 52.6991 41.1752 52.6991 41.1752 52.7686H41.2438C41.2438 52.6991 41.2438 52.6991 41.1752 52.6295C41.4497 52.6295 41.6556 52.2124 41.9987 52.0733H41.7928L41.8615 52.0038C41.7242 52.0038 41.7928 52.1429 41.7242 52.2124C41.6556 52.2124 41.5183 52.2819 41.4497 52.1429L41.5183 52.0733V52.0038H41.6556C41.9301 51.8648 42.136 51.6562 42.3419 51.4476C42.3419 51.3781 42.4105 51.3086 42.3419 51.2391H42.2732C42.2046 51.2391 42.136 51.3086 42.136 51.3781C41.7242 51.3086 42.3419 51.1695 42.2046 50.961C42.2732 50.961 42.2732 50.961 42.3419 50.961V50.8914C42.4105 50.7524 42.6164 50.6133 42.685 50.6829C42.685 50.6829 42.7536 50.6829 42.685 50.6133C42.6164 50.5438 42.685 50.4743 42.685 50.4743C42.8909 50.2657 42.9595 49.9181 43.234 49.7791C43.234 49.5705 43.5085 49.7095 43.5771 49.501C43.783 49.501 43.5771 49.3619 43.783 49.3619C43.9203 49.2229 43.8517 48.8752 43.9889 48.7362C43.9889 48.4581 44.0575 48.2495 44.2634 48.1105C44.1948 47.9019 44.1262 47.7629 43.9889 47.6238C43.7144 47.3457 43.6458 47.1372 43.3713 46.7895C43.3713 46.7895 43.3713 46.7895 43.4399 46.7895C43.4399 46.7895 43.4399 46.7895 43.3713 46.7895V46.8591C43.1654 46.6505 42.8909 46.581 42.685 46.3724C42.6164 46.5114 42.685 46.581 42.6164 46.6505L42.4791 46.581C42.4105 46.5114 42.2732 46.3724 42.3419 46.3029C42.4791 46.3029 42.4105 46.5114 42.5477 46.5114C42.6164 46.3724 42.4791 46.3724 42.4791 46.3029C42.4791 46.3029 42.4105 46.3029 42.3419 46.3029C42.0673 46.1638 41.8615 45.8857 41.5869 45.7467C41.3811 45.6772 41.1752 45.4686 40.9693 45.5381C40.6262 45.3991 40.3517 45.3991 40.0771 45.26V45.3295H40.1458C40.1458 45.3991 40.0771 45.3295 40.0085 45.3295L39.9399 45.26C39.734 45.26 39.3909 45.26 39.185 45.3991L39.1164 45.3295C39.1164 45.3295 39.0477 45.3295 39.0477 45.3991C39.0477 45.3295 38.9791 45.3991 38.9105 45.3991C38.7732 45.5381 38.636 45.3991 38.4987 45.6076C38.2928 45.6772 38.2242 45.7467 38.0183 45.7467L38.1556 45.6076C37.8811 45.5381 37.6752 45.8162 37.5379 46.0248C36.9889 46.3029 36.783 46.8591 36.4399 47.3457C36.4399 47.4848 36.3026 47.6238 36.3026 47.6933C36.3026 47.8324 36.1654 47.9019 36.1654 48.041C36.0968 48.1105 36.0968 48.18 36.0281 48.18C35.8909 48.4581 35.9595 48.8752 35.685 49.1533H35.7536C35.7536 49.3619 35.6164 49.5705 35.6164 49.7095C35.4791 49.8486 35.5477 50.0572 35.4791 50.1962C35.5477 50.5438 35.2732 50.8914 35.3419 51.1695C35.2046 51.3781 35.2732 51.6562 35.2732 51.8648C35.136 51.8648 35.2732 52.0038 35.136 52.0038V52.4905C35.2046 52.7686 35.2046 53.0467 35.136 53.2552C35.3419 53.3248 34.9987 53.4638 35.2046 53.5333C34.9987 53.7419 35.2732 54.02 35.136 54.1591H35.2046L35.136 54.2286C35.2732 54.5762 34.9301 54.8543 35.0673 55.2714C34.9301 55.2714 35.0673 55.4105 34.9987 55.48C35.136 55.5495 34.9301 55.6191 35.0673 55.6886C34.9301 55.9667 35.0673 56.1752 35.0673 56.4533C35.136 56.5924 35.0673 56.7314 35.2046 56.801C35.0673 56.8705 35.2732 57.0095 35.136 57.0791C35.0673 57.2181 35.2732 57.3572 35.136 57.4267C35.136 57.4962 35.136 57.4962 35.136 57.5657C35.2732 58.3305 35.136 59.1648 35.136 59.9991C35.136 60.2076 35.136 60.4162 35.136 60.6248C35.136 60.7638 35.0673 60.9029 35.136 61.0419C35.136 61.0419 35.136 61.1114 35.0673 61.1114V61.181C35.136 61.181 35.136 61.2505 35.136 61.2505C35.136 61.3895 35.2046 61.5981 35.0673 61.6676C35.0673 61.7372 35.0673 61.8762 35.136 61.8067C35.136 61.9457 35.2732 62.1543 35.136 62.2933C35.3419 62.3629 35.2732 62.641 35.3419 62.8495C35.4791 62.9886 35.4105 63.1972 35.4791 63.3362C35.4105 63.4057 35.4105 63.5448 35.4105 63.6838C35.5477 64.5181 35.6164 65.3524 36.0281 66.0476C36.0281 66.0476 36.0281 66.0476 35.9595 66.0476V66.1172C36.0281 66.1172 36.0281 66.0476 36.0281 66.0476L36.1654 66.1172L36.0968 65.9086C36.1654 65.9086 36.0968 65.7695 36.1654 65.7695C36.1654 65.8391 36.3026 65.8391 36.234 65.9086C36.3026 65.9781 36.3026 66.0476 36.4399 66.0476V65.9781C36.6458 66.1172 36.6458 66.3953 36.7144 66.6038C36.6458 66.6733 36.5085 66.7429 36.4399 66.6733V66.6038C36.3713 66.6038 36.3713 66.6733 36.3026 66.6733C36.1654 66.7429 35.9595 66.8124 35.7536 66.8124C35.685 66.9514 35.4791 66.7429 35.4791 66.9514L35.5477 67.021C35.4791 67.0905 35.3419 67.021 35.2732 67.021C35.0673 67.2295 34.7242 67.16 34.4497 67.16C34.3811 67.2295 34.3124 67.0905 34.3124 67.0905V67.16L33.1458 67.2295C33.0771 67.2295 33.0085 67.16 33.0085 67.2295C33.4203 66.7429 33.0771 66.8819 32.9399 66.7429C32.8713 66.7429 32.8026 66.8124 32.8026 66.8124C32.734 66.8124 32.5968 66.8819 32.5968 66.7429L32.5281 66.8124C32.4595 66.6733 32.3222 66.8124 32.3222 66.7429L32.3909 66.6733H32.2536V66.7429C31.9105 66.8124 31.4987 66.6733 31.2242 66.6733C31.0869 66.3952 30.7438 66.7429 30.6752 66.4648C30.4007 66.5343 30.1948 66.3953 30.0575 66.2562C29.783 66.1867 29.5085 66.2562 29.3713 65.9086C29.3026 65.9086 29.1654 65.7 29.0968 65.8391C28.9595 65.6305 28.6164 65.561 28.3419 65.4219C28.3419 65.2829 28.136 65.2829 28.136 65.2133L28.2732 65.1438C28.2732 65.1438 28.3419 65.1438 28.3419 65.2133H28.4105C28.4105 65.0743 28.5477 65.1438 28.6164 65.0743C28.4791 64.7962 28.8909 64.9352 28.8909 64.7962L28.9595 64.8657C28.8909 64.9352 28.8222 65.0048 28.7536 65.0743C29.0968 65.0743 29.3713 64.9352 29.783 65.0048C29.9203 65.0048 30.1948 65.1438 30.1948 65.0048C30.2634 65.0048 30.2634 65.0048 30.332 65.0743H30.1948L30.2634 65.1438H30.332C30.2634 65.1438 30.2634 65.1438 30.2634 65.0743C30.332 65.0743 30.332 65.0743 30.4007 65.0743L30.1948 64.9352C30.1948 64.8657 30.2634 64.9352 30.332 64.9352C30.4693 65.0048 30.6752 65.0743 30.8124 65.1438C30.7438 65.3524 31.0183 65.1438 31.0183 65.3524L31.0869 65.2829V65.4219C31.2242 65.4219 31.2928 65.561 31.4301 65.561C31.3615 65.2829 30.9497 65.2829 30.7438 65.1438C30.6066 65.1438 30.5379 64.9352 30.4007 65.0048C30.2634 64.9352 30.0575 64.8657 29.8517 64.7962H30.1262H29.9203C29.783 64.6572 29.5771 64.7267 29.4399 64.6572L28.3419 64.5876L28.2732 64.6572C28.0673 64.5876 27.8615 64.7962 27.6556 64.7267C27.4497 64.7267 27.1752 64.9352 27.1066 64.7267L27.0379 64.8657L27.1066 64.6572L27.1752 64.5876C27.1066 64.5876 27.0379 64.8657 26.9007 64.6572C26.9007 64.5181 27.1066 64.5876 27.0379 64.4486C26.9007 64.4486 26.832 64.5876 26.6948 64.5181C26.4889 64.4486 26.1458 64.3791 25.9399 64.5181C25.9399 64.6572 25.734 64.7267 25.734 64.8657C25.4595 64.9352 25.4595 65.2133 25.185 65.2829C25.1164 65.6305 24.7046 65.7 24.636 66.0476C24.636 66.2562 24.5673 66.3257 24.636 66.5343H24.7046C24.7732 66.6733 24.8419 66.7429 24.8419 66.8124C25.0477 66.9514 25.185 67.16 25.3222 67.2991C25.4595 67.2991 25.5281 67.4381 25.5968 67.3686C25.6654 67.4381 25.734 67.5076 25.8026 67.4381C25.9399 67.5772 26.0771 67.5772 26.1458 67.6467C26.2144 67.7162 26.3517 67.6467 26.4203 67.7857C26.5575 67.7857 26.6948 67.9248 26.832 67.9248C27.2438 68.2029 27.7928 68.2029 28.2046 68.481C28.685 68.62 29.1654 68.6895 29.6458 68.8286C30.2634 68.8286 30.7438 69.0371 31.2928 68.9676C31.4301 69.0371 31.4987 68.8981 31.5673 68.9676C31.8419 68.8981 32.0477 68.8981 32.2536 68.8286C32.3909 69.0372 32.4595 68.7591 32.5968 68.9676C32.8713 68.8286 33.0085 69.0372 33.283 68.8981C33.4203 68.8981 33.6262 68.9676 33.7634 68.8286L33.832 68.8981C34.0379 68.9676 34.2438 68.8286 34.3124 68.8981C34.3811 68.8286 34.5183 68.8981 34.5869 68.8286C34.7242 68.8286 34.8615 68.8286 34.9301 68.8981C35.4105 68.7591 35.7536 68.8981 36.234 68.8286L36.3026 68.7591C36.3713 68.8286 36.5085 68.8286 36.5771 68.8286C36.7144 68.8286 36.9203 68.8981 36.9889 68.7591H38.7046C38.9105 68.62 39.3222 68.8286 39.3909 68.5505C39.6654 68.6895 40.0085 68.5505 40.3517 68.5505C40.5575 68.62 40.5575 68.3419 40.6948 68.4114C40.7634 68.4114 40.832 68.3419 40.832 68.2724C41.0379 68.2029 41.3124 68.0638 41.5183 68.1333C41.5183 67.9943 41.7242 68.1333 41.7242 67.9943C41.9987 68.1333 42.2732 67.8552 42.5477 67.9248C42.685 67.8552 42.8909 67.9248 43.0281 67.8552C43.1654 67.9248 43.3713 67.7857 43.5085 67.8552C43.6458 67.7857 43.783 67.9248 43.8517 67.7857C43.9889 67.8552 44.1262 67.7162 44.1948 67.7857L44.332 67.6467C44.332 67.6467 44.4007 67.7162 44.332 67.7162L44.4007 67.6467C44.4007 67.6467 44.4007 67.6467 44.4007 67.7162C44.5379 67.8552 44.6752 67.5772 44.8811 67.7162L45.0183 67.5772C45.0869 67.5772 45.0183 67.7162 45.0869 67.6467C45.1556 67.6467 45.2242 67.6467 45.2928 67.5772C45.3615 67.9248 45.5673 67.5076 45.7732 67.6467V67.5772H45.8419H46.734C46.8713 67.6467 47.0771 67.7162 47.2144 67.5772C47.2144 67.5772 47.283 67.5772 47.2144 67.6467H47.832C47.9693 67.5772 48.1752 67.7857 48.2438 67.5772V67.6467H48.3124C48.3811 67.6467 48.3811 67.6467 48.4497 67.5772L48.5183 67.6467L48.587 67.5772C48.7242 67.7162 48.8615 67.5772 48.9301 67.5772C48.9987 67.7162 49.136 67.5772 49.2732 67.5772C49.2732 67.5772 49.3419 67.6467 49.3419 67.7162H49.8909C49.9595 67.7857 50.234 67.7162 50.3026 67.7857L50.5771 68.1333C50.783 68.1333 50.9889 67.9943 51.1262 68.1333C51.2634 67.9248 51.332 68.2724 51.4693 68.0638C51.5379 68.0638 51.4693 68.1333 51.4693 68.2029C51.6066 68.2724 51.7438 68.0638 51.8811 68.2029C51.9497 68.0638 52.0869 68.2724 52.1556 68.0638H52.2242L52.0869 68.1333C52.1556 68.1333 52.3615 68.0638 52.4301 68.2029C52.5673 68.2029 52.7732 68.1333 52.7732 68.2724L52.8419 68.2029C52.9791 68.2029 53.0477 68.2029 53.185 68.2724C53.3222 68.2724 53.4595 68.2724 53.5281 68.2029C53.5968 68.2029 53.6654 68.2029 53.734 68.2724C53.8713 68.3419 54.0085 68.1333 54.0771 68.2724C54.2144 68.2724 54.1458 68.2029 54.1458 68.1333C54.2144 68.1333 54.2144 68.1333 54.2144 68.2029C54.3517 68.0638 54.4889 68.3419 54.5575 68.2029C54.6262 68.2029 54.5575 68.2724 54.6262 68.2724C54.7634 68.1333 55.1066 68.2724 55.3124 68.2724C55.3124 68.4114 55.1752 68.2724 55.1066 68.3419H55.1752C55.2438 68.3419 55.3124 68.2724 55.3124 68.2029C55.3124 68.2029 55.3811 68.2029 55.4497 68.2029C55.4497 68.2029 55.3811 68.2724 55.3811 68.3419H55.4497C55.4497 68.2724 55.4497 68.2029 55.4497 68.2029C55.5183 68.2029 55.5869 68.2029 55.5869 68.2029C55.5869 68.2724 55.4497 68.2029 55.4497 68.3419H55.7928V68.2724C55.7928 68.2029 55.8615 68.2724 55.9301 68.2724C56.136 68.4114 56.4105 68.2724 56.6164 68.481C56.685 68.3419 56.7536 68.5505 56.8909 68.481C57.1654 68.62 57.3713 68.5505 57.6458 68.6895C58.1262 68.7591 58.5379 68.8286 59.0183 68.8286C59.1556 68.8981 59.2928 68.8981 59.3615 68.7591C59.5673 68.6895 59.7732 68.6895 59.9105 68.8286C59.9105 68.62 60.1164 68.8286 60.185 68.7591C60.2536 68.7591 60.3222 68.8981 60.3909 68.7591C60.4595 68.7591 60.4595 68.8286 60.5281 68.7591C60.734 68.7591 60.8026 68.481 61.0771 68.481C61.0771 68.2029 61.3517 68.2724 61.4203 68.0638C61.4889 67.8552 61.4203 67.8552 61.3517 67.7162ZM43.9203 49.4314C43.9203 49.501 43.9203 49.501 43.8517 49.501L43.9203 49.4314ZM35.2046 68.1333C35.2046 68.1333 35.2732 67.9943 35.3419 68.1333H35.2046ZM35.8222 66.8124C35.8909 66.8124 35.8909 66.8124 35.9595 66.8124H35.8222ZM42.3419 51.2391L42.4791 51.1695L42.5477 51.2391H42.3419ZM39.8026 60.3467C39.734 60.2772 39.734 60.2076 39.6654 60.0686C39.6654 60.0686 39.5968 59.9991 39.5968 59.9295C39.5968 59.9991 39.5968 59.9991 39.6654 60.0686C39.734 60.1381 39.8026 60.2076 39.8026 60.3467ZM39.8713 50.4743C39.8026 50.1962 39.9399 49.8486 39.734 49.64C39.734 49.5705 39.734 49.4314 39.5968 49.3619L39.5281 49.4314C39.4595 49.501 39.5968 49.2924 39.5281 49.2229V49.1533C39.5968 49.1533 39.5968 49.1533 39.5968 49.0838C39.5968 49.0143 39.5968 48.9448 39.5968 48.9448H39.5281C39.8026 48.7362 39.5281 48.4581 39.6654 48.18C39.5281 47.9714 39.8026 47.8324 39.6654 47.6238C39.8713 47.3457 39.734 46.9286 40.0771 46.72C40.0771 46.581 40.2144 46.581 40.283 46.4419C40.3517 46.3724 40.4203 46.581 40.4889 46.4419C40.832 46.5114 41.2438 46.2333 41.5869 46.4419C41.7928 46.4419 41.9987 46.581 42.136 46.6505C42.3419 46.7895 42.6164 46.8591 42.685 47.1372C42.6164 47.3457 42.8909 47.6933 42.6164 47.8324C42.5477 47.9714 42.685 48.2495 42.4791 48.3191L42.5477 48.3886C42.4791 48.3191 42.4105 48.4581 42.4105 48.5276C42.4105 48.5276 42.4105 48.5276 42.4791 48.5276C42.5477 48.5276 42.5477 48.4581 42.5477 48.4581C42.685 48.5276 42.4791 48.6667 42.5477 48.7362C42.4791 48.7362 42.5477 48.5972 42.4791 48.5972C42.4105 48.7362 42.3419 48.9448 42.3419 49.0838C42.0673 49.4314 41.6556 49.9181 41.2438 50.1267C41.0379 50.2657 40.7634 50.5438 40.4203 50.4743C40.283 50.6133 40.0771 50.7524 39.8713 50.7524C39.8026 50.6829 39.8026 50.5438 39.8713 50.4743ZM41.3811 62.7105C41.2438 62.5714 41.2438 62.78 41.1066 62.641C41.0379 62.5714 41.0379 62.5019 40.9693 62.5019L40.9007 62.5714C41.0379 62.641 40.9007 62.78 41.0379 62.8495C41.1066 62.8495 41.0379 62.78 41.0379 62.7105L41.1066 62.8495H40.9693C41.0379 62.9886 41.1066 63.1276 41.0379 63.2667C40.9693 63.2667 40.9007 63.2667 40.9007 63.3362C40.9693 63.1972 40.6948 63.0581 40.832 62.8495C40.6948 62.78 40.9693 62.3629 40.6948 62.2933C40.6948 62.4324 40.6948 62.5019 40.7634 62.5714C40.6948 62.5019 40.5575 62.4324 40.6262 62.3629C40.5575 62.2933 40.4889 62.2238 40.4889 62.0848H40.5575C40.4889 61.9457 40.2144 61.7372 40.4203 61.5981C40.4203 61.5286 40.3517 61.5286 40.3517 61.5286C40.283 61.2505 40.1458 61.0419 40.0771 60.7638C40.283 61.0419 40.283 61.32 40.4889 61.5286C40.4889 61.6676 40.5575 61.7372 40.6262 61.8067C40.6262 61.8067 40.6262 61.8067 40.5575 61.8067V61.8762C40.6262 61.9457 40.6948 61.9457 40.832 61.9457C40.832 61.9457 40.832 61.9457 40.832 62.0152C40.832 62.0152 40.832 62.0152 40.9007 62.0152C40.832 62.0848 40.7634 61.9457 40.7634 62.0848C40.9007 62.1543 40.9693 62.0152 41.0379 62.1543C41.1066 62.0152 40.9693 61.8762 40.9007 61.7372C40.9007 61.4591 40.6262 61.181 40.6948 60.9029C40.6262 60.9029 40.5575 60.8333 40.5575 60.7638V60.6943C40.6262 60.6943 40.6262 60.8333 40.6948 60.7638V60.6943C40.832 60.9029 40.9007 61.181 41.0379 61.3895C40.9693 61.5286 41.1066 61.6676 41.1752 61.7372C41.1752 61.8762 41.3124 62.0152 41.3124 62.2238C41.3811 62.5019 41.3811 62.641 41.3811 62.7105ZM40.5575 61.9457V61.8067C40.5575 61.9457 40.6948 62.0152 40.7634 62.1543C40.6262 62.1543 40.6262 61.9457 40.5575 61.9457ZM41.9987 66.0476H41.8615C41.8615 65.9781 41.9301 65.9781 41.9987 66.0476ZM51.8124 68.0638V67.9943C51.8124 67.9248 51.8811 67.9248 51.9497 67.9943L51.8124 68.0638Z" fill="black"/>
<path d="M27.4499 47.0676C27.3813 47.0676 27.3813 47.1372 27.4499 47.0676V47.0676Z" fill="black"/>
<path d="M19.9707 10.9847H20.0393V10.9152L19.9707 10.9847Z" fill="black"/>
<path d="M21.5488 21.2743V21.4133C21.6175 21.3438 21.6175 21.2743 21.5488 21.2743Z" fill="black"/>
<path d="M31.2251 25.1676L31.1565 25.2371C31.1565 25.3067 31.1565 25.3762 31.1565 25.3762C31.0879 25.4457 31.2251 25.6543 31.0879 25.7933C31.2938 25.7933 31.1565 26.0019 31.2251 26.0714C31.1565 26.1409 31.2938 26.28 31.1565 26.2105C31.1565 26.3495 31.0193 26.4886 31.2251 26.5581C31.2251 26.5581 31.2251 26.6276 31.1565 26.6276C31.2938 26.6971 31.1565 26.7667 31.1565 26.8362C31.1565 27.0448 31.2251 27.3229 31.2938 27.5314C31.2938 27.6705 31.2251 27.74 31.2938 27.879C31.431 28.0181 31.2251 28.1571 31.2938 28.3657C31.2938 28.4352 31.431 28.5048 31.3624 28.5743L31.431 28.6438C31.431 28.7133 31.4997 28.8524 31.431 28.9219C31.5683 28.9914 31.431 29.2 31.5683 29.2C31.5683 29.2695 31.5683 29.339 31.5683 29.4086C31.6369 29.4086 31.7055 29.4086 31.7055 29.4781C31.4997 29.6171 31.8428 29.8257 31.7742 29.9648C31.7742 30.0343 31.7742 30.0343 31.9114 30.0343C31.8428 30.1733 32.1859 30.3124 32.0487 30.5209C32.0487 30.66 32.1859 30.799 32.1859 30.9381H32.1173V31.0076C32.2546 31.0771 32.2546 31.1467 32.2546 31.2857H32.3232C32.3918 31.5638 32.5291 31.9114 32.4604 32.1895C32.5291 32.3286 32.4604 32.4676 32.5291 32.6762C32.5291 33.7886 32.5977 34.9009 32.5291 35.9438H32.4604C32.3918 36.0829 32.6663 36.0829 32.4604 36.1524C32.3918 36.2914 32.3232 36.4305 32.3918 36.5C32.4604 36.4305 32.3918 36.2914 32.4604 36.2219C32.5291 36.3609 32.3918 36.5695 32.4604 36.7086C32.4604 36.7781 32.3232 36.7086 32.3232 36.7781H32.3918C32.3918 36.8476 32.4604 36.9171 32.3918 36.9171C32.3918 37.7514 32.1173 38.5162 32.1173 39.3505H32.1859C32.3232 38.6552 32.4604 38.0295 32.4604 37.3343L32.5291 37.4038C32.4604 37.6124 32.4604 37.7514 32.4604 37.96C32.3232 38.4467 32.3918 39.0029 32.2546 39.4895C32.3232 39.6981 32.0487 39.8371 32.2546 40.0457L32.3232 39.9762C32.2546 39.559 32.5291 39.2114 32.4604 38.7248C32.4604 38.6552 32.5977 38.5857 32.4604 38.5162C32.4604 38.3771 32.5291 38.1686 32.5291 37.96C32.5977 37.8905 32.4604 37.8209 32.5977 37.7514C32.6663 37.96 32.5977 38.1686 32.5291 38.3771C32.5977 38.3771 32.5977 38.4467 32.5977 38.4467L32.5291 38.5162L32.5977 38.6552C32.5977 38.7248 32.5977 38.7943 32.5291 38.7943C32.5977 38.9333 32.5291 39.1419 32.5291 39.2809C32.5291 39.3505 32.5291 39.42 32.5291 39.4895H32.5977C32.5291 39.2809 32.6663 39.2114 32.6663 39.0724H32.8036C32.8036 39.0029 32.7349 38.9333 32.6663 38.9333C32.6663 38.8638 32.7349 38.8638 32.8036 38.8638L32.735 38.7943C32.6663 38.6552 32.7349 38.5162 32.8036 38.3771V38.5857C32.8036 38.5162 32.8036 38.5162 32.8722 38.4467C32.8722 38.6552 32.8722 38.9333 32.8036 39.1419C32.6663 39.6286 32.6663 40.1848 32.6663 40.6714L32.5977 40.7409C32.5977 40.7409 32.5977 40.8105 32.6663 40.7409V40.5324C32.8036 40.3238 32.8036 39.9762 33.0095 39.8371C33.0095 39.9762 32.9408 40.1152 32.9408 40.2543L32.8722 40.3238V40.3933C32.8722 40.4629 32.9408 40.5324 33.0095 40.5324C33.0781 40.1152 33.1467 39.6286 33.2153 39.2114C33.2153 39.2114 33.1467 39.2114 33.0781 39.2114L33.1467 39.1419C33.2153 39.1419 33.2153 39.0029 33.2153 38.9333H33.1467C33.0781 38.8638 33.1467 38.7248 33.1467 38.5857C33.284 38.4467 33.1467 38.1686 33.284 38.0295C33.4212 38.1686 33.2153 38.4467 33.284 38.5857L33.3526 38.7248C33.284 38.8638 33.284 39.0724 33.3526 39.2809C33.3526 39.3505 33.2153 39.42 33.3526 39.4895C33.3526 39.559 33.284 39.6286 33.284 39.6981H33.3526V39.6286C33.4212 39.42 33.4212 39.2114 33.4212 39.0029C33.3526 38.9333 33.6271 38.7943 33.4899 38.7248C33.4212 38.7943 33.4212 38.8638 33.3526 38.7943C33.4212 38.6552 33.5585 38.5857 33.6957 38.4467C33.6957 38.3771 33.6957 38.3771 33.7644 38.3076C33.9016 38.3076 33.833 38.5162 33.9016 38.5857C33.833 38.7248 33.9016 39.0029 33.7644 39.0724C33.7644 39.0029 33.833 38.7943 33.6957 38.7943C33.5585 39.0029 33.6957 39.2114 33.6271 39.42L33.7644 39.4895C33.7644 39.559 33.7644 39.6286 33.7644 39.6981C33.7644 39.7676 33.7644 39.7676 33.6957 39.8371C33.6957 39.8371 33.6957 39.6981 33.6271 39.7676C33.6271 39.8371 33.6271 39.8371 33.6957 39.8371C33.6271 39.8371 33.6957 39.9067 33.6957 39.9762H33.6271C33.6957 39.9762 33.6271 40.0457 33.6271 40.0457C33.6271 40.1152 33.6271 40.1848 33.5585 40.1848C33.5585 40.1848 33.5585 40.1848 33.5585 40.1152H33.4899C33.4899 40.1848 33.4212 40.3238 33.4899 40.3933C33.4899 40.3238 33.4899 40.2543 33.5585 40.1848C33.5585 40.1848 33.5585 40.1848 33.6271 40.1848C33.6271 40.1848 33.6271 40.1848 33.6271 40.2543C33.6271 40.3238 33.5585 40.4629 33.6271 40.5324C33.5585 40.6019 33.5585 40.8105 33.4899 40.88L33.4212 40.8105L33.3526 40.88C33.4212 40.9495 33.4212 40.88 33.4899 40.9495C33.6271 41.0886 33.4899 41.3667 33.4899 41.5057H33.3526V41.5752C33.3526 41.5752 33.4212 41.5752 33.4899 41.5752L33.5585 41.6448C33.4899 41.7838 33.5585 42.0619 33.4899 42.2705C33.3526 42.6181 33.4212 43.0352 33.3526 43.4524C33.4899 43.3133 33.3526 43.0352 33.5585 42.8267C33.6271 42.9657 33.4899 43.1048 33.4899 43.2438C33.6271 43.2438 33.4899 43.3133 33.5585 43.3829C33.6957 43.3133 33.6957 43.1048 33.6957 42.9657H33.833C33.6271 43.1048 33.6271 43.4524 33.5585 43.7305H33.6271C33.6957 43.5219 33.6957 43.3133 33.7644 43.1048C33.9016 43.3133 33.7644 43.5914 33.833 43.8C33.9016 43.7305 33.9702 43.5914 34.0389 43.5219C34.1075 43.4524 34.0389 43.3133 34.1075 43.3133C34.3134 43.0352 34.3134 42.6181 34.382 42.34C34.3134 42.0619 34.5879 41.9229 34.5193 41.7143C34.5193 41.6448 34.6565 41.5752 34.5193 41.5057C34.6565 41.019 34.6565 40.5324 34.7938 40.0457C34.7251 39.6286 34.931 39.3505 34.931 39.0029C34.9997 38.9333 34.8624 38.7248 35.0683 38.6552C34.931 38.3771 35.2742 38.2381 35.0683 37.96C35.2742 37.8209 35.0683 37.5429 35.1369 37.3343C35.2742 37.1952 35.0683 36.9867 35.2742 36.9171C35.1369 36.639 35.3428 36.2914 35.2742 36.0133C35.4114 35.8743 35.2742 35.6657 35.4114 35.5267C35.2742 35.3876 35.48 35.3181 35.4114 35.179C35.48 35.2486 35.48 35.2486 35.5487 35.179C35.6173 35.2486 35.6859 35.179 35.7546 35.2486C35.8918 35.179 35.9604 35.3181 36.0977 35.3181C36.1663 35.179 36.3036 35.3181 36.3722 35.3876V35.2486C36.4408 35.2486 36.4408 35.2486 36.5095 35.3181L36.4408 35.3876C36.4408 35.3876 36.4408 35.3876 36.4408 35.4571C36.3722 35.4571 36.3036 35.4571 36.2349 35.5267H36.3036C36.4408 35.5962 36.5095 35.5267 36.6467 35.5962V35.7352H36.7153C36.8526 35.7352 36.9212 35.8743 36.9212 35.9438C36.8526 36.0133 36.784 35.8743 36.784 35.9438L36.8526 36.0133C36.8526 36.0133 36.8526 36.0133 36.784 36.0133V36.0829C36.6467 36.0829 36.6467 36.2914 36.5095 36.3609C36.5095 36.639 36.8526 36.5695 36.9899 36.7781C36.8526 36.9171 36.784 36.9171 36.5781 36.9867C36.5095 37.0562 36.4408 37.0562 36.4408 37.1952C36.6467 37.4038 36.9212 37.4733 37.1957 37.6124C37.2644 37.6819 37.4702 37.7514 37.5389 37.8209C37.6761 37.8209 37.7448 37.96 37.8134 38.099C38.0193 38.099 38.0193 38.3076 38.1565 38.3076C38.2938 38.5162 38.5683 38.3771 38.6369 38.6552C39.0487 38.5162 39.5977 38.5857 39.8722 38.2381C40.1467 38.2381 40.1467 37.8905 40.284 37.7514C40.6271 37.6819 40.4899 37.1952 40.833 37.1257C40.833 36.9867 41.0389 36.9867 40.9702 36.7781C41.1075 36.7781 41.0389 36.639 41.1075 36.5695C41.1075 36.5695 41.1075 36.5695 41.1761 36.5695V36.2914C41.382 36.2219 41.2448 36.0133 41.382 35.8743C41.3134 35.6657 41.5193 35.4571 41.4506 35.2486C41.5879 35.179 41.5193 34.9705 41.6565 34.9009C41.5879 34.7619 41.7251 34.6229 41.6565 34.5533C41.8624 34.3448 41.6565 34.1362 41.5879 33.9971C41.5193 33.9276 41.382 33.7886 41.3134 33.6495C41.1075 33.6495 41.2448 33.3714 41.1075 33.3019C40.833 33.4409 40.9016 33.0238 40.6271 33.0238C40.4899 33.0933 40.4212 32.8848 40.284 32.8848C40.284 32.6067 40.0095 32.6762 39.8722 32.5371C39.7349 32.6762 39.735 32.3981 39.5977 32.5371C39.5977 32.3981 39.4604 32.4676 39.3232 32.4676C39.2546 32.3981 39.1859 32.4676 39.1173 32.5371C39.0487 32.5371 39.0487 32.5371 38.98 32.6067C38.8428 32.6067 38.7055 32.6067 38.5683 32.6762C38.2938 32.4676 38.0879 32.8152 37.8134 32.7457C37.7448 33.0238 37.4016 32.8152 37.333 33.0238C37.2644 33.0238 37.2644 33.0238 37.2644 32.9543C37.2644 33.0238 37.2644 33.0238 37.2644 33.0933C37.0585 32.8848 37.0585 33.3019 36.8526 33.0933C36.3722 33.0933 35.8918 33.2324 35.4114 33.3019C35.2742 33.2324 35.4114 33.0238 35.2742 32.9543C35.4114 32.5371 35.2055 32.0505 35.2055 31.6333C35.1369 31.3552 35.2055 31.0771 35.0683 30.8686C35.0683 30.5209 34.931 30.1038 34.8624 29.7562C34.931 29.4086 34.5879 29.2 34.7251 28.8524C34.5879 28.6438 34.5879 28.4352 34.6565 28.2267C34.5193 28.1571 34.5879 27.9486 34.5193 27.879C34.382 27.8095 34.382 27.6705 34.4506 27.5314C34.2448 27.3924 34.4506 27.1838 34.4506 26.9752C34.4506 26.9057 34.3134 26.9057 34.4506 26.8362C34.5193 26.4886 34.5193 26.0714 34.382 25.7933C34.5879 25.7238 34.3134 25.5152 34.5193 25.5152C34.3134 25.4457 34.5879 25.3067 34.4506 25.2371C34.5193 25.0981 34.3134 25.0286 34.4506 24.959C34.2448 24.82 34.6565 24.7505 34.382 24.6114C34.3134 24.5419 34.382 24.4724 34.4506 24.4028C34.5193 24.2638 34.382 24.1943 34.3134 24.1248C34.1075 23.8467 33.9016 24.1943 33.6957 23.9162C33.6957 23.8467 33.7644 23.7771 33.833 23.7076C33.9016 23.499 33.6271 23.499 33.5585 23.4295L33.6271 23.36C33.4899 23.2905 33.4899 23.2209 33.284 23.2209C32.9408 23.36 32.5977 23.4295 32.2546 23.5686C32.0487 23.499 31.9114 23.7076 31.7055 23.7771C31.7055 23.9162 31.6369 24.0552 31.4997 24.1248C31.4997 24.1943 31.2938 24.3333 31.4997 24.4028C31.2938 24.5419 31.5683 24.6809 31.4997 24.7505C31.4997 24.8895 31.3624 24.959 31.3624 25.0981C31.1565 24.82 31.1565 25.0286 31.2251 25.1676ZM35.4114 33.9276H35.8232V33.9971L35.9604 33.9276C35.8232 34.0667 35.5487 34.1362 35.4114 33.9971C35.3428 33.9971 35.3428 33.9971 35.4114 33.9276Z" fill="black"/>
<path d="M24.9111 48.4581C25.3228 48.319 25.8032 48.5276 26.215 48.2495C26.4209 48.4581 26.4209 48.1105 26.5581 48.041C26.6954 48.041 26.764 47.8324 26.9013 47.8324C26.9699 47.7629 27.1071 47.7629 27.0385 47.6238C27.1758 47.5543 27.2444 47.4848 27.313 47.4152C27.3817 47.2762 27.3817 47.1371 27.313 46.9981C27.1758 46.859 27.0385 47.1371 26.9699 46.9286C27.0385 46.9286 26.9699 46.8591 27.0385 46.7895H26.9699C27.0385 46.7895 27.0385 46.6505 27.1071 46.6505C27.0385 46.5114 27.2444 46.6505 27.2444 46.5114L27.4503 46.581L27.5189 46.6505V46.581C27.4503 46.6505 27.4503 46.581 27.3817 46.581C27.3817 46.5114 27.4503 46.5114 27.4503 46.4419C27.4503 46.4419 27.5189 46.4419 27.4503 46.5114C27.5875 46.4419 27.5189 46.2333 27.7248 46.3029C27.6562 46.3724 27.6562 46.4419 27.6562 46.5114V46.4419C27.7934 46.4419 27.8621 46.2333 27.9307 46.1638C27.9993 46.1638 28.0679 46.0248 28.1366 45.9552C28.0679 45.8857 28.2738 45.8162 28.2738 45.6771C28.3424 45.6771 28.4111 45.6771 28.4111 45.6076V45.6771H28.4797L28.4111 45.6076L28.5483 45.4686C28.5483 45.6076 28.6856 45.5381 28.7542 45.6076C28.8915 45.5381 28.9601 45.399 28.9601 45.26C28.9601 45.26 28.9601 45.26 29.0287 45.26C29.0287 45.1905 29.0287 45.1905 29.0287 45.121H29.166C29.3032 45.0514 29.3032 44.8429 29.4405 44.9124C29.5091 44.9124 29.5091 44.9819 29.5091 44.9819L29.5777 44.7733C29.6464 44.7038 29.5091 44.6343 29.6464 44.6343C29.6464 44.6343 29.6464 44.6343 29.715 44.6343C29.715 44.6343 29.6464 44.6343 29.715 44.7038C29.7836 44.7038 29.7836 44.6343 29.8522 44.5648H29.7836C29.8522 44.4257 29.9209 44.3562 30.0581 44.2171C29.9895 44.0781 30.1954 44.0781 30.1954 43.939C30.1268 43.939 29.9895 44.0086 29.9895 44.0781C29.9895 43.939 30.1954 43.8695 30.1954 43.6609V43.5914C30.1954 43.5914 30.1954 43.5914 30.264 43.5914L30.1954 43.4524L30.3326 43.3829C30.4013 43.2438 30.264 43.3829 30.1954 43.3133L30.264 43.1048L30.0581 43.3133L30.1268 43.3829C30.1268 43.4524 30.1268 43.4524 30.0581 43.5219C29.9895 43.5219 30.0581 43.4524 30.0581 43.3829C29.8522 43.3829 29.9209 43.661 29.715 43.5914C29.715 43.661 29.6464 43.6609 29.715 43.6609L29.4405 44.0086V43.939H29.3719C29.3032 44.0086 29.3032 44.0781 29.3032 44.1476C29.2346 44.1476 29.2346 44.2171 29.166 44.1476C29.0973 44.1476 29.0973 44.1476 29.0973 44.2171L29.166 44.2867C29.0287 44.2867 29.0973 44.5648 28.9601 44.4952C28.9601 44.4257 29.0287 44.4257 28.9601 44.3562H28.8915C28.8915 44.4257 28.8228 44.5648 28.9601 44.5648C28.8228 44.7038 28.6856 44.8429 28.4797 44.9124L28.4111 44.9819L28.3424 44.9124L28.2738 44.9819H28.3424L28.1366 45.26L28.0679 45.1905C27.9993 45.26 27.9307 45.26 27.9307 45.3295C27.8621 45.399 27.6562 45.399 27.7248 45.5381L27.6562 45.6076C27.5189 45.6076 27.6562 45.5381 27.5875 45.5381C27.4503 45.6076 27.5189 45.6771 27.4503 45.7467V45.6771C27.4503 45.399 27.7248 45.3295 27.7934 45.121C28.1366 44.9124 28.4797 44.4952 28.8228 44.1476C28.6856 44.1476 28.617 44.3562 28.4797 44.4257C28.3424 44.4257 28.3424 44.7038 28.2052 44.6343C28.1366 44.8429 27.7934 44.9124 27.7248 45.1905C27.6562 45.1905 27.5875 45.26 27.5875 45.1905C26.9699 45.6076 26.4209 46.2333 25.666 46.5114C25.2542 46.6505 24.9111 46.72 24.4993 46.6505C24.4993 46.6505 24.4993 46.581 24.5679 46.581C24.7052 46.6505 24.7738 46.3724 24.9111 46.3724V46.3029C24.8424 46.2333 24.8424 46.3029 24.7738 46.3029C24.6366 46.2333 24.7052 46.1638 24.5679 46.2333C24.4993 46.2333 24.4307 46.2333 24.4307 46.1638C23.9503 46.2333 23.4699 46.1638 22.9209 46.0248C22.6464 46.0248 22.3719 46.0248 22.0973 45.9552C21.7542 45.9552 21.2738 45.8857 20.9993 45.8857C20.9993 45.8162 21.0679 45.8857 21.1366 45.8857V45.8162C20.8621 45.7467 20.6562 45.8162 20.4503 45.7467C20.3817 45.7467 20.313 45.8162 20.2444 45.7467L20.1758 45.8857C20.1071 45.8162 19.9699 45.8857 19.8326 45.8162L19.764 45.7467C19.6268 45.7467 19.3522 45.7467 19.215 45.7467C18.9405 45.6771 18.5973 45.8162 18.2542 45.6076C18.3915 45.6076 18.3915 45.4686 18.5287 45.4686C18.5287 45.3295 18.666 45.4686 18.7346 45.3295C18.9405 45.4686 19.0091 45.121 19.215 45.1905C19.3522 45.26 19.4209 45.121 19.4895 45.26C19.6268 45.121 19.8326 45.1905 19.9699 45.0514C20.1071 45.1905 20.1758 44.9124 20.3817 44.9819C20.5189 44.8429 20.7248 44.9124 20.7934 44.7038C20.9993 44.7038 20.9993 44.5648 21.2052 44.6343V44.5648C21.4111 44.5648 21.5483 44.3562 21.7542 44.3562C21.7542 44.1476 21.9601 44.2867 22.0287 44.1476C22.166 44.2171 22.2346 44.0781 22.3032 44.0781C22.5091 44.0781 22.8522 43.939 23.0581 44.0086C23.0581 44.0086 23.0581 44.0086 23.0581 44.0781C23.1268 44.0086 23.1954 43.939 23.3326 43.939C23.4699 43.7305 23.6758 43.8695 23.7444 43.8L23.813 43.6609C23.7444 43.4524 23.9503 43.3829 23.8817 43.2438C23.8817 43.1743 24.0189 43.2438 24.0189 43.1048H23.9503V42.8267C23.8817 42.7571 23.813 42.6181 23.813 42.479C23.9503 42.34 23.6758 42.2705 23.7444 42.1314C23.7444 41.9229 23.5385 41.7143 23.5385 41.5057H23.4699C23.4699 41.4362 23.3326 41.3667 23.4699 41.2971H23.3326C23.264 41.2971 23.3326 41.2276 23.3326 41.1581C22.9895 40.741 22.7836 40.2543 22.6464 39.7676C22.5777 39.7676 22.5777 39.6286 22.5777 39.559C22.5091 39.4895 22.6464 39.3505 22.4405 39.281C22.3719 39.0029 22.3032 38.7943 22.2346 38.5857C21.9601 38.4467 22.2346 38.099 21.9601 37.96C22.0287 37.96 22.0287 37.8905 22.0287 37.821C21.9601 37.6819 21.9601 37.7514 21.8228 37.6819C21.8915 37.4733 21.6856 37.0562 21.9601 36.8476C22.166 36.639 21.9601 36.361 22.0287 36.1524C21.8228 35.9438 22.166 35.8048 22.166 35.5962C22.0973 35.2486 22.2346 34.8314 22.3032 34.4838C22.3032 34.3448 22.166 34.2752 22.3032 34.2057C22.3032 34.2057 22.3032 34.0667 22.2346 34.1362C22.2346 34.1362 22.166 34.0667 22.2346 34.0667C22.0287 33.9276 22.4405 33.6495 22.0973 33.5105C22.0973 33.5105 22.0973 33.5105 22.0973 33.441C22.0973 33.3714 21.9601 33.3019 22.0973 33.3019C21.9601 33.1629 21.9601 32.8848 21.8228 32.7457C21.617 32.5371 21.5483 32.259 21.4797 32.0505C21.4111 32.12 21.3424 31.981 21.3424 31.9114C21.2738 31.7724 21.0679 31.7724 20.9307 31.7029C20.7248 31.7029 20.7934 31.3552 20.5875 31.3552C20.6562 31.2162 20.4503 31.0076 20.5189 30.799L20.5875 30.7295L20.4503 30.66C20.5189 30.66 20.5189 30.5905 20.5189 30.521C20.4503 30.5905 20.3817 30.4514 20.313 30.3819C20.313 30.3819 20.313 30.3819 20.3817 30.3819V30.5905C20.4503 30.521 20.5189 30.521 20.5875 30.521C20.7248 30.521 20.6562 30.3124 20.7248 30.2429C20.7248 30.1038 20.7934 30.1038 20.6562 30.0343C20.7248 29.9648 20.7934 29.8257 20.8621 29.6867C20.8621 29.5476 20.9993 29.4086 20.8621 29.2695C20.9993 28.7829 21.0679 28.2962 21.1366 27.74C21.2738 27.5314 21.2052 27.2533 21.3424 26.9752L21.2738 26.9057C21.3424 26.8362 21.2738 26.7667 21.3424 26.6276C21.5483 26.4886 21.2738 26.4886 21.3424 26.3495L21.4797 26.419C21.4797 26.3495 21.4111 26.3495 21.3424 26.3495C21.4111 26.28 21.2738 26.0714 21.4797 26.0714L21.4111 25.9324C21.4797 25.7933 21.4111 25.5848 21.5483 25.4457L21.4797 25.3762C21.5483 25.1676 21.5483 24.8895 21.617 24.6114C21.7542 24.4724 21.6856 24.3333 21.6856 24.1943C21.8228 23.8467 21.8228 23.4295 21.8915 23.0819C21.9601 23.0124 21.8228 22.8733 21.9601 22.8038L21.8915 22.7343C22.0287 22.3171 21.9601 21.9695 21.9601 21.6219L21.8915 21.5524C21.9601 21.9695 21.7542 22.5257 21.8228 22.8733L21.7542 22.8038C21.7542 22.9429 21.8228 22.8733 21.8228 22.8733C21.7542 23.0819 21.8228 23.36 21.617 23.499C21.7542 23.6381 21.6856 23.7771 21.617 23.9162C21.4111 24.0552 21.6856 24.4029 21.4797 24.5419C21.4797 24.5419 21.4797 24.4724 21.4111 24.5419V24.6114C21.5483 24.7505 21.3424 24.681 21.3424 24.82C21.3424 25.0286 21.2738 25.1676 21.3424 25.3067C21.2052 25.3762 21.3424 25.6543 21.2052 25.7238C21.2052 25.8629 21.1366 25.9324 21.0679 26.0019C21.0679 26.2105 20.9307 26.419 20.9993 26.5581C20.9307 26.6971 20.9993 26.8362 20.7934 26.9057C20.7934 26.9752 20.7934 26.9752 20.8621 27.0448C20.8621 27.2533 20.5875 27.601 20.8621 27.8095C20.7934 28.2962 20.7248 28.7133 20.6562 29.1305C20.4503 29.2 20.6562 29.4086 20.5189 29.4781C20.4503 29.4086 20.3817 29.4086 20.313 29.339C20.313 29.2695 20.3817 29.2695 20.3817 29.2695C20.3817 29.2695 20.4503 29.2695 20.4503 29.339C20.4503 29.2 20.313 29.2 20.3817 29.061C20.3817 29.061 20.3817 28.9914 20.4503 28.9914C20.4503 28.6438 20.4503 28.2267 20.5189 27.879C20.5875 27.8095 20.6562 27.9486 20.6562 27.8095C20.6562 27.8095 20.5875 27.8095 20.5875 27.879C20.5189 27.74 20.7248 27.601 20.5875 27.5314C20.6562 27.3924 20.5875 27.0448 20.7248 26.9057C20.7934 26.7667 20.6562 26.6971 20.7248 26.6276C20.5875 26.28 20.9993 26.0714 20.8621 25.6543L20.9307 25.5848C20.9993 25.2371 21.1366 24.82 21.1366 24.4724C21.1366 24.3333 21.2738 24.2638 21.1366 24.1248C21.2052 23.9857 21.2738 23.8467 21.2738 23.7076C21.3424 23.0819 21.3424 22.5257 21.3424 21.8305C21.4111 21.761 21.4111 21.6914 21.3424 21.6219V20.7181C21.2052 20.5095 21.2738 20.2314 21.2052 19.9533L21.1366 19.8838C21.2738 19.6057 20.8621 19.3971 20.9993 19.0495C20.9993 18.7714 20.7934 18.7019 20.8621 18.4238C20.9307 18.4238 20.9307 18.3543 20.9993 18.4238C20.9993 18.4933 21.0679 18.4933 21.0679 18.5629C21.1366 18.98 21.2738 19.3971 21.3424 19.7448C21.3424 20.1619 21.4797 20.5095 21.4797 20.9267C21.7542 20.9962 21.617 21.2743 21.6856 21.4829H21.7542C21.8228 21.4829 21.7542 21.4133 21.7542 21.4133C21.8228 21.2048 21.7542 21.0657 21.8228 20.8571C21.6856 20.7181 21.7542 20.5095 21.617 20.301C21.617 20.2314 21.6856 20.1619 21.617 20.1619C21.617 19.7448 21.3424 19.4667 21.4111 19.0495C21.2738 18.7019 21.1366 18.2848 21.0679 17.9371C20.7934 17.52 20.7934 17.1724 20.5189 16.8248C20.3817 16.5467 20.2444 16.199 20.1071 15.921C19.764 15.8514 19.9013 15.4343 19.6268 15.2952C19.5581 15.2257 19.4209 15.2257 19.4209 15.1562C19.0777 15.0171 18.7346 14.739 18.3228 14.6695C18.117 14.6 18.0483 14.3219 17.8424 14.461C17.6366 14.1829 17.2934 14.1829 17.0189 14.0438C16.813 14.1133 16.813 13.8352 16.6072 13.8352C16.9503 13.4876 17.2248 13.0705 17.6366 12.8619C18.3228 12.1667 19.1464 11.6105 19.9699 11.0543L19.9013 10.9848C20.3817 10.6371 20.7934 10.359 21.2738 10.0114C21.6856 9.80286 22.0287 9.59429 22.4405 9.45524C22.5777 9.45524 22.7836 9.24667 22.8522 9.24667C22.9209 9.38571 23.0581 9.24667 23.1954 9.24667C23.5385 9.10762 23.264 8.82952 23.4699 8.62095C23.4699 8.55143 23.5385 8.4819 23.5385 8.4819C23.4699 8.41238 23.5385 8.27333 23.4013 8.20381C23.4013 7.99524 23.1268 7.92571 23.1268 7.71714H23.0581C22.715 7.43905 22.5777 7.16095 22.3032 6.88286C22.3032 6.60476 22.0287 6.46571 22.0287 6.25714C21.8228 6.25714 21.8915 6.04857 21.8228 5.90952C21.7542 5.90952 21.7542 5.90952 21.6856 5.84C21.5483 5.63143 21.4111 5.49238 21.1366 5.49238C20.8621 5.28381 20.3817 5.42286 20.0385 5.35333C19.8326 5.35333 19.6954 5.49238 19.4209 5.49238C19.2836 5.77048 18.9405 5.90952 18.7346 6.11809C18.5973 6.39619 18.3228 6.53524 18.3228 6.88286C17.9111 7.23048 18.5973 7.50857 18.2542 7.92571C18.3915 7.99524 18.2542 8.34286 18.5287 8.27333C18.5973 8.34286 18.666 8.34286 18.666 8.4819C18.7346 8.4819 18.8032 8.55143 18.8719 8.62095C19.4895 8.62095 20.2444 8.55143 20.7934 8.62095C20.7934 8.82952 21.0679 8.69048 21.1366 8.82952C21.2052 8.82952 21.2738 8.82952 21.2738 8.76C21.3424 8.82952 21.4111 8.89905 21.4111 8.96857H21.4797C21.4797 8.96857 21.5483 9.03809 21.617 9.03809C21.6856 9.03809 21.7542 9.17714 21.8228 9.24667C21.6856 9.31619 21.6856 9.59429 21.4797 9.52476V9.59429C21.4111 9.66381 21.3424 9.73333 21.2738 9.73333C21.0679 9.66381 21.2738 9.87238 21.1366 9.9419C20.9993 10.0114 20.8621 10.081 20.7934 10.1505C20.7248 10.22 20.6562 10.081 20.6562 10.081C20.3817 10.22 20.1758 10.4286 19.8326 10.4981C19.4895 10.7067 19.1464 10.9848 18.7346 11.1238C17.9797 11.541 17.1562 11.9581 16.3326 12.3752C15.8522 12.5143 15.3719 12.7924 14.9601 12.7924C14.8228 13.001 14.617 12.7924 14.4797 13.001C14.2738 12.8619 14.0679 13.0705 13.8621 13.14C13.7248 12.9314 13.5875 13.279 13.5189 13.0705L13.5875 13.001C13.5189 12.9314 13.4503 13.0705 13.4503 13.001C13.313 13.0705 13.313 13.14 13.2444 13.14C13.2444 13.279 13.1071 13.3486 13.1071 13.4181C13.1071 13.4876 13.0385 13.4876 12.9699 13.4876C12.9699 13.6267 12.9013 13.7657 12.8326 13.9048C12.9699 14.0438 13.0385 13.7657 13.1071 13.9743C12.9013 14.1133 13.0385 14.461 12.764 14.461C12.764 14.461 12.6954 14.6 12.6268 14.6C12.6268 14.6695 12.4895 14.739 12.5581 14.8781C12.4209 14.9476 12.3522 14.9476 12.215 15.0171C12.0091 15.0171 12.0777 15.2257 11.9405 15.3648C11.8719 15.5038 11.666 15.7124 11.8719 15.8514L11.8032 15.921C11.8032 15.9905 11.8032 16.06 11.8719 16.1295C11.8719 16.1295 11.8719 16.199 11.8032 16.199C11.9405 16.199 11.9405 16.4076 11.9405 16.4771C11.8032 16.6162 11.8032 16.8248 11.666 16.8943C11.666 16.9638 11.7346 17.0333 11.7346 17.1029C12.0777 17.381 11.666 17.659 11.8032 18.0067C12.0091 18.1457 11.666 18.4238 11.9405 18.5629C12.0091 18.6324 11.9405 18.7714 11.9405 18.841C12.215 18.9105 12.1464 19.1886 12.1464 19.3971L12.0777 19.4667C12.1464 19.5362 12.1464 19.6057 12.215 19.6057C12.3522 19.9533 12.8326 19.7448 13.0385 20.0229L13.1071 19.9533C13.2444 19.9533 13.3817 20.0924 13.4503 20.0229C13.5189 20.0229 13.5189 20.0924 13.5189 20.0924C13.5189 19.9533 13.7934 20.1619 13.8621 20.0229L13.9307 20.0924C13.9993 20.0924 14.0679 20.0924 14.1366 20.0229C14.3424 20.0924 14.5483 20.0229 14.6856 20.1619C14.8228 20.301 14.8915 20.0924 15.0287 20.0924C15.166 19.8143 15.3719 20.1619 15.5777 20.1619C15.715 20.3705 15.9209 20.2314 16.0581 20.3705C16.1954 20.301 16.264 20.5095 16.3326 20.5095C16.4013 20.7181 16.6072 20.5095 16.6072 20.7181C16.7444 20.7181 16.813 20.8571 17.0189 20.8571C17.0875 20.9267 17.2934 20.9267 17.2248 21.0657C17.2934 21.0657 17.2934 21.1352 17.3621 21.1352C17.4993 21.2048 17.4993 21.3438 17.5679 21.4829C17.7052 21.6219 17.7052 21.761 17.8424 21.9695C17.8424 22.1086 17.9111 22.2476 17.9797 22.3867L17.9111 22.5257C17.9797 22.5952 18.0483 22.7343 18.0483 22.8038C18.117 22.9429 17.9797 23.0819 18.0483 23.221C18.1856 23.2905 18.0483 23.4295 18.1856 23.499C18.1856 23.8467 18.117 24.3333 18.0483 24.681C17.9111 24.8895 17.9797 25.2371 17.8424 25.4457C17.9111 25.6543 17.7052 25.7933 17.7052 26.0019C17.7052 26.141 17.6366 26.2105 17.6366 26.28V26.4886C17.5679 26.5581 17.6366 26.7667 17.4993 26.6971C17.4307 27.2533 17.2934 27.879 17.1562 28.5048C17.2248 28.6438 17.0875 28.7829 17.0189 28.9219C16.9503 29.061 17.0189 29.2695 16.8817 29.4086C17.0189 29.6867 16.6758 29.8257 16.7444 30.0343C16.6071 30.1733 16.7444 30.521 16.4699 30.521C16.4699 30.5905 16.4013 30.66 16.5385 30.7295C16.5385 30.799 16.4699 30.799 16.4013 30.7295C16.264 30.8686 16.3326 31.0076 16.1268 31.0076C16.0581 31.2162 15.715 31.0076 15.7836 31.2857C15.715 31.3552 15.7836 31.4943 15.6464 31.4248C15.5777 31.4248 15.5777 31.3552 15.5777 31.3552C15.4405 31.2857 15.3719 31.4248 15.2346 31.4943C15.0973 31.6333 15.0287 31.7029 14.8915 31.7724C14.8915 31.981 14.5483 31.981 14.617 32.1895C14.1366 32.4676 14.4111 33.0238 14.2738 33.3714C14.0679 33.441 14.2738 33.719 14.0679 33.7886C14.0679 33.9276 13.7934 33.9971 13.9993 34.0667L13.9307 34.1362V34.2057C13.9307 34.2752 13.9993 34.4143 13.9307 34.4143C13.9307 34.5533 13.9307 34.6924 13.9993 34.8314C13.9307 34.8314 13.9307 34.9705 13.9307 35.04C14.1366 35.2486 13.9307 35.5267 14.2052 35.6657C13.9993 35.9438 14.4797 35.8048 14.3424 36.0829C14.4797 36.2219 14.4797 36.4305 14.5483 36.5C14.4111 36.639 14.6856 36.639 14.617 36.7781C14.6856 36.8476 14.7542 36.9867 14.8915 36.9867C14.7542 37.1257 14.9601 37.2648 15.0287 37.3343C15.166 37.3343 15.166 37.5429 15.2346 37.6124C15.3032 37.6124 15.3719 37.6124 15.3719 37.6819C15.4405 37.7514 15.5091 37.8905 15.5777 37.96C15.715 38.0295 15.5777 38.099 15.6464 38.1686C15.8522 38.2381 15.8522 38.5162 15.9895 38.5857C16.1268 38.5857 16.0581 38.9333 16.264 38.8638C16.4013 39.1419 16.5385 39.4895 16.813 39.6286C16.813 39.7676 16.8817 39.8371 17.0189 39.9067V39.9762L17.1562 40.1152C17.0875 40.4629 17.6366 40.3238 17.4993 40.6019L17.6366 40.741C17.7052 40.8105 17.7738 40.88 17.8424 41.019C18.0483 41.0886 17.9797 41.4362 18.1856 41.4362C18.1856 41.5752 18.2542 41.6448 18.3228 41.7143C18.3915 41.7838 18.3228 41.7838 18.4601 41.7838C18.4601 41.9229 18.5287 41.9924 18.5973 42.1314C18.666 42.201 18.7346 42.34 18.8719 42.34C18.8719 42.34 18.8719 42.4095 18.8032 42.4095C18.8719 42.479 18.9405 42.6181 18.8719 42.6876C18.9405 42.7571 19.0091 42.7571 19.0777 42.8267C19.0091 42.8962 19.1464 43.1048 19.0091 43.2438C19.0777 43.2438 19.0777 43.3133 19.1464 43.3829C19.1464 43.5219 19.0777 43.5914 19.0091 43.6609C19.0091 43.7305 18.8719 43.661 18.8719 43.7305H18.666C18.3228 44.0781 17.7052 44.1476 17.2248 44.3562C16.8817 44.3562 16.6758 44.5648 16.4013 44.5648C16.264 44.8429 15.9209 44.7038 15.6464 44.7733V44.8429L15.5777 44.9124C15.5091 44.9124 15.5777 44.8429 15.5777 44.7733C15.4405 44.7733 15.3032 44.7733 15.166 44.7733C14.9601 44.7733 14.8228 44.9124 14.617 44.9124C14.4111 44.8429 14.2052 44.8429 13.9307 44.9124C13.6562 44.8429 13.3817 45.0514 13.1071 44.9819C13.0385 44.9819 13.0385 45.121 13.0385 45.1905C13.0385 45.121 12.9699 45.121 12.9013 45.1905C12.9013 45.1905 12.9013 45.1905 12.9013 45.26C12.5581 45.1905 12.4209 45.6076 12.215 45.7467C12.0777 45.7467 12.0091 45.8857 11.8719 45.8857C11.666 46.0248 11.3915 46.0248 11.1856 46.0943C11.117 46.3724 10.9111 46.0943 10.7738 46.1638C10.7052 46.2333 10.6366 46.3029 10.5679 46.3724H10.4993C10.3621 46.5114 10.2248 46.5114 10.2934 46.72C10.1562 46.9286 10.2934 47.2067 10.2934 47.4152C10.4993 47.4848 10.6366 47.4152 10.7738 47.6238H10.8424C10.8424 47.6933 10.9111 47.6933 10.9111 47.7629H11.1856C11.1856 47.7629 11.2542 47.8324 11.2542 47.9019C11.3915 47.8324 11.4601 47.9714 11.5973 47.9019C11.7346 47.8324 11.666 48.041 11.8032 48.041C11.8719 48.041 11.9405 47.8324 12.0091 48.041C12.215 48.1105 12.4895 48.041 12.6954 48.1105C12.9013 48.2495 13.1071 47.9714 13.3817 48.1105C13.5875 48.18 13.9993 48.1105 14.2738 48.18L14.3424 48.2495C14.4797 48.319 14.6856 48.1105 14.8228 48.319C14.9601 48.3886 15.166 48.319 15.2346 48.4581C15.4405 48.5276 15.7836 48.4581 15.9895 48.5276C16.1268 48.5276 16.264 48.6667 16.3326 48.5971L16.4699 48.6667C16.813 48.6667 17.0875 48.8057 17.3621 48.8752C17.3621 48.8057 17.3621 48.8057 17.3621 48.7362C17.4307 48.8752 17.5679 48.7362 17.6366 48.8752C17.7738 48.9448 17.9111 48.7362 17.9111 48.9448C17.9797 48.9448 18.0483 48.9448 18.117 48.8752C18.3228 49.0143 18.5973 48.9448 18.8719 49.0143V48.9448C19.0777 48.8752 19.3522 48.9448 19.4895 48.8752C19.6268 49.0143 19.764 48.9448 19.9699 49.0143C20.2444 48.9448 20.5189 49.0143 20.7934 48.9448H21.1366V48.8057C21.2738 48.8752 21.4111 48.7362 21.4797 48.9448C21.5483 48.8057 21.7542 49.0838 21.7542 48.8057C21.8228 48.8057 21.9601 48.8752 22.0287 48.9448C22.0973 48.9448 22.166 48.9448 22.166 48.8752L22.2346 48.9448C22.3719 48.8057 22.4405 48.9448 22.5091 48.9448C22.7836 48.8057 23.0581 49.1533 23.264 48.8752C23.6758 48.9448 24.0875 48.8752 24.4993 48.8752L24.5679 48.8057C24.8424 48.9448 25.0483 48.6667 25.2542 48.8057C24.8424 48.3886 24.8424 48.5971 24.9111 48.4581ZM28.6856 45.399C28.6856 45.4686 28.617 45.4686 28.617 45.5381C28.617 45.5381 28.617 45.5381 28.617 45.4686L28.6856 45.399ZM20.4503 29.6171V29.8952C20.3817 29.7562 20.3817 29.6867 20.4503 29.6171ZM20.7934 18.3543C20.7934 18.4238 20.8621 18.3543 20.9307 18.4238C20.9307 18.4933 20.8621 18.4238 20.7934 18.4238V18.3543C20.7934 18.2848 20.7934 18.2848 20.7934 18.3543ZM14.4797 19.3971C14.4111 19.3971 14.3424 19.3971 14.3424 19.3276C14.3424 19.3276 14.4111 19.3971 14.4797 19.3971C14.5483 19.3971 14.617 19.4667 14.617 19.5362C14.617 19.3971 14.5483 19.3971 14.4797 19.3971ZM19.9013 25.3762C19.9699 25.3762 19.9699 25.2371 19.9699 25.1676C20.1071 25.3067 20.0385 25.4457 19.9699 25.5848C19.8326 25.8629 19.764 26.2105 19.764 26.4886C19.6954 26.141 19.8326 25.7933 19.9013 25.3762ZM19.4895 27.879L19.5581 27.9486H19.4895V27.879ZM19.4895 28.0876C19.4895 28.0876 19.4895 28.1571 19.4895 28.2267C19.4209 28.3657 19.4209 28.5048 19.3522 28.7133C19.4209 28.7829 19.3522 28.8524 19.3522 28.9219C19.3522 28.5743 19.4209 28.2962 19.4895 28.0876ZM18.5973 36.9171C18.5973 36.8476 18.5973 36.639 18.4601 36.639C18.3915 36.361 17.9111 36.2914 17.9797 35.9438L17.9111 35.8048C17.9111 35.4571 17.7738 35.04 17.9111 34.8314H17.8424C17.9111 34.6924 17.9111 34.4838 17.9797 34.2752C17.9111 34.0667 18.0483 33.9276 18.117 33.7886C18.2542 33.58 18.3228 33.3714 18.5973 33.3714C18.8719 33.441 19.0777 33.58 19.215 33.7886C19.4895 33.9971 19.6268 34.3448 19.8326 34.5533C19.764 34.7619 19.9699 34.8314 19.9699 34.9705C20.1758 35.2486 19.8326 35.4571 19.9699 35.7352C20.0385 35.9438 19.6954 36.0133 19.8326 36.2219C19.764 36.361 19.6268 36.5 19.6268 36.639C19.4209 36.5695 19.6268 36.8476 19.4209 36.8476C19.215 36.9171 18.8719 37.0562 18.5973 36.9171Z" fill="black"/>
<path d="M18.666 36.8476C18.666 36.8476 18.7346 36.9171 18.8033 36.8476C18.8033 36.7781 18.7346 36.8476 18.666 36.8476Z" fill="black"/>
<path d="M29.5094 43.5219C29.6467 43.5219 29.6467 43.3133 29.7839 43.3133C29.7839 43.2438 29.9212 43.1743 29.8526 43.1743L29.6467 43.4524C29.5094 43.4524 29.5094 43.6609 29.3722 43.6609C29.3722 43.8 29.1663 43.8695 29.0977 44.0085C29.2349 43.939 29.3035 43.6609 29.5094 43.5219Z" fill="black"/>
<path d="M30.0589 43.8695C30.0589 43.8 29.9902 43.8 29.9902 43.8C29.9902 43.8 29.9902 43.8695 30.0589 43.8695Z" fill="black"/>
<path d="M29.0279 44.0085C28.9593 44.0085 28.8906 44.0781 28.8906 44.1476C28.9593 44.1476 28.9593 44.0781 29.0279 44.0085Z" fill="black"/>
<path d="M28.6858 44.7038V44.6343H28.6172L28.6858 44.7038Z" fill="black"/>
<path d="M28.3418 44.9124H28.4104C28.4104 44.8428 28.5477 44.8428 28.5477 44.7733C28.4791 44.7733 28.3418 44.7733 28.3418 44.9124Z" fill="black"/>
<path d="M28.2051 45.8162C28.2737 45.8162 28.2737 45.7466 28.3423 45.6771C28.2051 45.7466 28.2051 45.8162 28.2051 45.8162Z" fill="black"/>
<path d="M21.7539 45.8857H21.8912C21.8225 45.8857 21.7539 45.8162 21.7539 45.8857Z" fill="black"/>
<path d="M35.6858 57.4962C35.6172 57.4962 35.6172 57.5657 35.6172 57.5657H35.6858V57.4962Z" fill="black"/>
<path d="M41.2441 61.3895C41.2441 61.4591 41.3128 61.4591 41.3128 61.3895H41.2441Z" fill="black"/>
<path d="M40.97 61.9457C40.9013 61.9457 40.97 62.0153 40.97 62.0848C41.0386 62.0153 41.0386 61.9457 40.97 61.9457C41.0386 61.9457 41.0386 61.9457 40.97 61.9457Z" fill="black"/>
<path d="M41.6568 62.2238C41.6568 62.1543 41.5882 62.2238 41.5195 62.2238C41.5195 62.2934 41.5195 62.3629 41.5882 62.3629C41.6568 62.2934 41.5195 62.2238 41.6568 62.2238Z" fill="black"/>
<path d="M41.5879 62.3629V62.4324H41.6565L41.5879 62.3629C41.6565 62.3629 41.6565 62.3629 41.5879 62.3629Z" fill="black"/>
<path d="M40.8331 62.4324C40.7645 62.5019 40.8331 62.5714 40.9017 62.5714C40.9017 62.5019 40.8331 62.4324 40.8331 62.4324Z" fill="black"/>
<path d="M40.9007 62.9886H40.832V63.0581H40.9007V62.9886Z" fill="black"/>
<path d="M27.0391 64.5181C27.1763 64.5876 27.3136 64.5181 27.4508 64.379C27.3136 64.379 27.1763 64.5181 27.0391 64.5181Z" fill="black"/>
<path d="M36.9902 65.8391V65.9086H37.0589L36.9902 65.8391Z" fill="black"/>
<path d="M47.6956 67.9943H47.627V68.0638H47.6956V67.9943Z" fill="black"/>
<path d="M54.2832 68.3419C54.3518 68.3419 54.4205 68.4115 54.4205 68.3419C54.3518 68.2724 54.3518 68.2724 54.2832 68.3419Z" fill="black"/>
<path d="M41.1074 68.4114H41.176C41.176 68.4114 41.176 68.4114 41.176 68.3419L41.1074 68.4114Z" fill="black"/>
</g>
</g>
<defs>
<clipPath id="clip0_66_22274">
<rect width="70" height="73" fill="white"/>
</clipPath>
</defs>
</svg>
